<?xml version="1.0" encoding="UTF-8"?>
<!DOCTYPE svg PUBLIC "-//W3C//DTD SVG 1.1//EN" "http://www.w3.org/Graphics/SVG/1.1/DTD/svg11.dtd">
<!-- Creator: CorelDRAW -->
<svg xmlns="http://www.w3.org/2000/svg" xml:space="preserve" width="100%" height="100%" version="1.1" style="shape-rendering:geometricPrecision; text-rendering:geometricPrecision; image-rendering:optimizeQuality; fill-rule:evenodd; clip-rule:evenodd"
viewBox="0 0 10013.18 14018.91"
 xmlns:xlink="http://www.w3.org/1999/xlink"
 xmlns:xodm="http://www.corel.com/coreldraw/odm/2003">
 <defs>
  <style type="text/css">
   <![CDATA[
    .fil0 {fill:#FEFEFE;fill-rule:nonzero}
    .fil1 {fill:#E42D24;fill-rule:nonzero}
   ]]>
  </style>
   <clipPath id="id0">
    <path d="M9624.98 14018.91c0,0 250.21,-7.38 346.88,-274.86 -96.67,267.48 -346.88,274.86 -346.88,274.86zm-19.9 -20.29l-4435.52 0 -378.15 0 -4432.68 0c0,0 -39.81,-1.84 -90.98,-18.45 -110.89,-53.49 -247.37,-180.78 -247.37,-483.31l0 0 0 -3492.02 0 -2435.01c1961.86,-1.84 3920.88,-1.84 5882.75,-3.69 1361.93,0 2726.71,0 4088.64,0l0 2418.41 0 3492.02 0 0c0,510.98 -386.69,522.05 -386.69,522.05l0 0z"/>
   </clipPath>
   <clipPath id="id1">
    <path d="M9991.77 6998.63c-59.71,0 -119.42,0 -179.13,0 -2428.16,0 -4856.32,0 -7284.49,-1.99 -835.92,0 -1671.85,0 -2507.77,-1.99l0 -2957.8 0 -3491.94c0,-512.24 386.69,-522.2 386.69,-522.2l4435.51 0 378.16 0 4432.68 0c0,0 39.8,0 90.98,17.94 110.89,53.81 247.37,181.37 247.37,484.32l0 0 0 3489.96 0 2983.7 0 0z"/>
   </clipPath>
   <clipPath id="id2">
    <path d="M9972.94 13742.18c24.44,-62.55 39.56,-144.65 39.56,-246.3l0 -5930.84 0 0 0 -566.89 0 0 0 -6474.27 0 0c0,-512.15 -387.67,-523.88 -387.67,-523.88l-19.45 0c-0.66,0 -1.05,0 -1.05,0l20.5 0c0,0 387.67,11.73 387.67,523.88l0 3499.08 0 5977.75 0 3495.17c0,101.65 -15.12,183.75 -39.56,246.3l0 0z"/>
   </clipPath>
   <clipPath id="id3">
    <path d="M9992.03 7566.39l0 -567.59 20.44 0 0 567.59 -20.44 0 0 0z"/>
   </clipPath>
   <clipPath id="id4">
    <path d="M9624.6 14018.91l-4429.79 0 -377.47 0 -4407.59 0c0,0 -66.61,-1.84 -141.55,-38.74 52.74,16.61 88.82,18.45 88.82,18.45l4435.34 0 377.47 0 4435.34 0c0,0 385.8,-11.07 385.8,-522.05l0 0 0 0 0 -3492.02 0 -2418.41c8.33,0 13.88,0 22.21,0l0 2433.16 0 3495.72c0,101.46 -16.66,182.62 -38.86,249.03 -99.92,267.48 -349.72,274.86 -349.72,274.86l0 0 0 0z"/>
   </clipPath>
   <clipPath id="id5">
    <path d="M10012.5 6998.53c-6.71,0 -13.8,0 -20.5,0l0 -2982.33 0 -3492.05 0 0c0,-303.83 -136.15,-429.76 -246.93,-483.73 25.1,7.99 53.62,19.98 82.92,37.97l0 0 0 0 0 0c-99.87,-73.95 -203.16,-75.95 -203.16,-75.95l-19.45 0 0 0 19.45 0c0,0 387.67,9.99 387.67,523.7l0 3496.05 0 2976.34 0 0z"/>
   </clipPath>
   <clipPath id="id6">
    <path d="M20.27 7568.99l0 -573.77 0.3 0 0 573.77 -0.3 0 0 0z"/>
   </clipPath>
   <clipPath id="id7">
    <path d="M387.79 14018.91c0,0 -387.5,-11.07 -387.5,-523.89l0 -394.77c6.66,-23.98 13.32,-47.96 19.97,-71.94l0 -3043.76 0 -2414.72c0.13,0 0.26,0 0.38,0l0 2435.01 0 3492.02 0 0c0,302.53 136.08,429.82 247.03,483.31 -25.25,-7.37 -53.78,-20.29 -82.93,-36.89l0 0c99.77,71.94 203.05,75.63 203.05,75.63l0 0z"/>
   </clipPath>
   <clipPath id="id8">
    <path d="M21.05 6995.32c0,0 0,0 0,0l0 -5762.29c-8.34,-71.8 -13.9,-143.6 -19.46,-215.41l0 -492.66c0,-512.6 386.4,-522.57 386.4,-522.57l4431.13 0 375.28 0 4411.67 0c8.34,0 69.5,3.99 139,37.9 -52.82,-17.96 -88.96,-17.96 -88.96,-17.96l-4436.69 0 -375.28 0 -4436.69 0c0,0 -386.4,9.98 -386.4,522.58l0 3490.48 0 2959.93 0 0z"/>
   </clipPath>
   <clipPath id="id9">
    <path d="M408.47 14018.76l-20.68 0 0 0c0,0 -103.24,-3 -203.07,-76.26 29.2,17.47 57.67,29.47 82.89,37.7 76.35,36.82 140.86,38.56 140.86,38.56l0 0z"/>
   </clipPath>
   <clipPath id="id10">
    <path d="M9828.03 78.2c-29.36,-17.47 -57.87,-29.52 -82.94,-37.76 -69.86,-33.77 -130.24,-38.02 -139.72,-38.53l19.46 0c0,0 103.32,2.98 203.2,76.29l0 0z"/>
   </clipPath>
   <clipPath id="id11">
    <path d="M-0 13100.29l0 -12083.93c0.09,0 0.14,0 0.29,0l0.04 3005.49 0 5976.55 0 3101.89c-0.09,0 -0.24,0 -0.33,0l0 0z"/>
   </clipPath>
   <clipPath id="id12">
    <path d="M0.33 7568.99l0 -573.77c6.61,0 13.32,0 19.93,0l0 573.77c-6.61,0 -13.36,0 -19.93,0l0 0z"/>
   </clipPath>
   <clipPath id="id13">
    <path d="M0.33 13099.3l0 -3100.91 0 -2428.73c6.57,0 13.32,0 19.93,0l0 2414.46 -0.04 3043.84c-6.65,23.78 -13.28,47.56 -19.89,71.34l0 0z"/>
   </clipPath>
   <clipPath id="id14">
    <path d="M20.26 6995.02c-6.61,0 -13.32,0 -19.93,0l0 -2973.18 -0.04 -3003.98c6.57,71.85 13.22,143.69 19.97,215.54l0 5761.62 0 0z"/>
   </clipPath>
 </defs>
 <g id="Layer_x0020_1">
  <metadata id="CorelCorpID_0Corel-Layer"/>
  <path class="fil0" d="M9624.8 1.9l-9236.98 0c0,0 -387.58,10.58 -387.58,523.57l0.1 3496.24 0 9473.62c0,512.94 387.48,523.42 387.48,523.42l9236.98 0c0,0 387.68,-10.48 387.68,-523.42l0 -12969.86c0,-512.99 -387.68,-523.57 -387.68,-523.57z"/>
  <g style="clip-path:url(#id0)">
   <image x="-13.74" y="7534.78" width="10031.1" height="6508.11" xlink:href="4_Images\4_ImgID1.png"/>
  </g>
  <g style="clip-path:url(#id1)">
   <image x="-13.74" y="0.78" width="10031.1" height="7031.73" xlink:href="4_Images\4_ImgID2.png"/>
  </g>
  <g style="clip-path:url(#id2)">
   <image x="9568.98" y="-19.55" width="463.63" height="13793.01" xlink:href="4_Images\4_ImgID3.png"/>
  </g>
  <g style="clip-path:url(#id3)">
   <image x="9960.42" y="6975.58" width="72.18" height="616.14" xlink:href="4_Images\4_ImgID4.png"/>
  </g>
  <g style="clip-path:url(#id4)">
   <image x="240.44" y="7534.78" width="9792.16" height="6508.11" xlink:href="4_Images\4_ImgID5.png"/>
  </g>
  <g style="clip-path:url(#id5)">
   <image x="9568.98" y="-19.55" width="463.63" height="7052.07" xlink:href="4_Images\4_ImgID6.png"/>
  </g>
  <g style="clip-path:url(#id6)">
   <image x="-13.74" y="6960.33" width="56.94" height="631.39" xlink:href="4_Images\4_ImgID7.png"/>
  </g>
  <g style="clip-path:url(#id7)">
   <image x="-28.99" y="7534.78" width="443.3" height="6508.11" xlink:href="4_Images\4_ImgID8.png"/>
  </g>
  <g style="clip-path:url(#id8)">
   <image x="-28.99" y="-19.55" width="9807.41" height="7036.81" xlink:href="4_Images\4_ImgID9.png"/>
  </g>
  <g style="clip-path:url(#id9)">
   <image x="154.02" y="13919.87" width="280.62" height="123.03" xlink:href="4_Images\4_ImgID10.png"/>
  </g>
  <g style="clip-path:url(#id10)">
   <image x="9568.98" y="-19.55" width="295.87" height="128.11" xlink:href="4_Images\4_ImgID11.png"/>
  </g>
  <g style="clip-path:url(#id11)">
   <image x="-28.99" y="981.93" width="56.94" height="12145.9" xlink:href="4_Images\4_ImgID12.png"/>
  </g>
  <g style="clip-path:url(#id12)">
   <image x="-28.99" y="6960.33" width="72.19" height="631.39" xlink:href="4_Images\4_ImgID13.png"/>
  </g>
  <g style="clip-path:url(#id13)">
   <image x="-28.99" y="7534.78" width="72.19" height="5593.05" xlink:href="4_Images\4_ImgID14.png"/>
  </g>
  <g style="clip-path:url(#id14)">
   <image x="-28.99" y="981.93" width="72.19" height="6035.33" xlink:href="4_Images\4_ImgID15.png"/>
  </g>
  <path class="fil1" d="M1199.17 2623.25l0.1 -0.16 -0.2 0c-253.32,-140.46 -456.31,-566.17 -462.76,-579.84l0 -0.31 -0.06 0.11 -0.1 -0.11 0 0.31c-6.45,13.67 -209.39,439.38 -462.76,579.84l-0.21 0 0.21 0.16 -0.21 0.05 0.21 0c253.37,140.51 456.31,566.32 462.76,579.89l0 0.36 0.1 -0.21 0.06 0.21 0 -0.36c6.45,-13.57 209.44,-439.38 462.76,-579.89l0.2 0 -0.1 -0.05z"/>
  <path class="fil1" d="M448.57 1364.27l346.1 0 0 -220.37c0,-55.52 0.91,-117.59 2.69,-186.37 1.73,-68.73 3.81,-120.53 6.15,-155.31l-8.84 0 -346.1 549.65 0 12.4zm242.54 408.93c36.6,-9.45 61.11,-19.97 73.46,-31.41 12.4,-11.54 20.54,-27.86 24.4,-49.16 3.76,-21.25 5.7,-53.68 5.7,-97.35l0 -145.14 -492.1 0 0 -66.39 517.77 -781.62 126.58 0 0 762.14 18.56 0c34.26,0 58.71,-2.49 73.51,-7.57 14.74,-4.98 26.94,-13.83 36.7,-26.49 9.71,-12.71 18.71,-33.55 27,-62.42l67.25 0 -10.57 182.35 -212.45 0 0 145.14c0,39.6 1.32,68.47 3.97,86.72 2.64,18.31 7.06,32.79 13.27,43.37 6.2,10.62 15.35,19.47 27.5,26.59 12.05,7.01 31.62,14.18 58.77,21.24l0 43.37 -359.32 0 0 -43.37z"/>
  <path class="fil1" d="M8738.61 11367.26l0 0.1c253.27,140.51 456.51,566.22 462.82,579.89l0 0.31 0 -0.1 0 0.1 0 -0.31c6.71,-13.67 209.55,-439.38 462.87,-579.89l0.35 0 -0.35 -0.1 0.35 -0.05 -0.35 0c-253.32,-140.52 -456.16,-566.32 -462.87,-579.9l0 -0.35 0 0.15 0 -0.15 0 0.35c-6.31,13.58 -209.55,439.38 -462.82,579.9l0 0.05z"/>
  <path class="fil1" d="M9489.32 12626.23l-346.1 0 0 220.37c0,55.47 -1.02,117.59 -2.8,186.37 -1.78,68.73 -3.91,120.49 -6,155.36l8.8 0 346.1 -549.7 0 -12.4zm-242.75 -408.93c-36.65,9.45 -61,19.98 -73.36,31.41 -12.35,11.54 -20.43,27.91 -24.35,49.11 -3.86,21.3 -5.64,53.74 -5.64,97.36l0 145.18 492.15 0 0 66.35 -517.87 781.61 -126.64 0 0 -762.09 -18.71 0c-34.21,0 -58.56,2.49 -73.4,7.52 -14.8,4.98 -26.8,13.88 -36.71,26.59 -9.86,12.61 -18.66,33.5 -26.79,62.38l-67.36 0 10.58 -182.36 212.39 0 0 -145.18c0,-39.5 -1.42,-68.43 -3.91,-86.73 -2.8,-18.25 -7.07,-32.79 -13.42,-43.32 -6,-10.62 -15.15,-19.52 -27.51,-26.53 -11.99,-7.07 -31.41,-14.24 -58.56,-21.3l0 -43.37 359.11 0 0 43.37z"/>
  <path class="fil1" d="M4070.28 11214.44l0.35 -0.1 -0.35 0c-503.08,-278.89 -905.56,-1123.95 -918.67,-1151.04l0 -0.61 0 0.35 -0.31 -0.35 0 0.61c-12.71,27.09 -415.54,872.15 -918.26,1151.04l-0.36 0 0.16 0.1 -0.16 0.15 0.36 0c502.72,278.79 905.55,1123.9 918.26,1150.9l0 0.71 0.31 -0.36 0 0.36 0 -0.71c13.11,-27 415.59,-872.11 918.67,-1150.9l0.35 0 -0.35 -0.15z"/>
  <path class="fil1" d="M4070.28 2806.21l0.35 -0.11 -0.35 0c-503.08,-278.94 -905.56,-1123.99 -918.67,-1151.09l0 -0.56 0 0.31 -0.31 -0.31 0 0.56c-12.71,27.1 -415.54,872.15 -918.26,1151.09l-0.36 0 0.16 0.11 -0.16 0.1 0.36 0c502.72,278.84 905.55,1123.9 918.26,1150.94l0 0.71 0.31 -0.35 0 0.35 0 -0.71c13.11,-27.04 415.59,-872.1 918.67,-1150.94l0.35 0 -0.35 -0.1z"/>
  <path class="fil1" d="M7769.15 11214.44l0.36 -0.1 -0.71 0c-502.67,-278.89 -905.2,-1123.95 -918.26,-1151.04l0 -0.61 0 0.35 -0.36 -0.35 0 0.61c-12.71,27.09 -415.59,872.15 -918.31,1151.04l-0.31 0 0 0.25 0.31 0c502.72,278.79 905.6,1123.9 918.31,1150.9l0 0.71 0.36 -0.36 0 0.36 0 -0.71c13.06,-27 415.59,-872.11 918.26,-1150.9l0.71 0 -0.36 -0.15z"/>
  <path class="fil1" d="M7769.15 2806.21l0.36 -0.11 -0.71 0c-502.67,-278.94 -905.2,-1123.99 -918.26,-1151.09l0 -0.56 0 0.31 -0.36 -0.31 0 0.56c-12.71,27.1 -415.59,872.15 -918.31,1151.09l-0.31 0 0 0.21 0.31 0c502.72,278.84 905.6,1123.9 918.31,1150.94l0 0.71 0.36 -0.35 0 0.35 0 -0.71c13.06,-27.04 415.59,-872.1 918.26,-1150.94l0.71 0 -0.36 -0.1z"/>
 </g>
</svg>
