<?xml version="1.0" encoding="UTF-8"?>
<!DOCTYPE svg PUBLIC "-//W3C//DTD SVG 1.1//EN" "http://www.w3.org/Graphics/SVG/1.1/DTD/svg11.dtd">
<!-- Creator: CorelDRAW -->
<svg xmlns="http://www.w3.org/2000/svg" xml:space="preserve" width="100%" height="100%" version="1.1" style="shape-rendering:geometricPrecision; text-rendering:geometricPrecision; image-rendering:optimizeQuality; fill-rule:evenodd; clip-rule:evenodd"
viewBox="0 0 10012.45 14017.24"
 xmlns:xlink="http://www.w3.org/1999/xlink"
 xmlns:xodm="http://www.corel.com/coreldraw/odm/2003">
 <defs>
  <style type="text/css">
   <![CDATA[
    .fil0 {fill:#FEFEFE;fill-rule:nonzero}
    .fil1 {fill:#E42D24;fill-rule:nonzero}
   ]]>
  </style>
   <clipPath id="id0">
    <path d="M9624.59 14017.24c0,0 88.14,-1.84 179.13,-60.87 -90.99,59.03 -179.13,60.87 -179.13,60.87zm-19.9 -20.29l-4435.52 0 -378.16 0 -4432.67 0c0,0 -36.96,-1.84 -90.99,-18.44 -110.89,-53.5 -247.36,-180.79 -247.36,-483.32l0 0 0 -3492.02 0 -2435.01c1961.86,-1.84 3923.73,-1.84 5882.75,-3.69 1364.77,0 2726.7,0 4088.63,0l0 2418.41 0 3492.02 0 0c0,510.98 -386.68,522.05 -386.68,522.05l0 0z"/>
   </clipPath>
   <clipPath id="id1">
    <path d="M9991.37 6997.11c-59.7,0 -119.41,0 -179.12,0 -2428.16,0 -4856.33,0 -7284.49,-1.99 -835.92,0 -1671.85,0 -2507.77,-1.99l0 -2957.8 0 -3491.94c0,-512.24 389.53,-522.2 389.53,-522.2l4432.67 0 378.16 0 4435.52 0c0,0 36.96,0 88.14,17.94 110.89,53.81 247.36,181.37 247.36,484.32l0 0 0 3489.96 0 2983.7 0 0z"/>
   </clipPath>
   <clipPath id="id2">
    <path d="M9804.95 13956.78c101.18,-63.52 207.37,-194.53 207.37,-464.5l0 -5927.36 0 0 0 -567.73 0 0 0 -6475.24 0 0c0,-512.14 -387.41,-520.08 -387.41,-520.08l-19.06 0c-1.05,0 -1.57,0 -1.57,0l20.63 0c0,0 387.54,7.94 387.54,520.08l0 3497.67 0 5978.97 0 3493.69c0,269.97 -106.18,400.98 -207.5,464.5l0 0z"/>
   </clipPath>
   <clipPath id="id3">
    <path d="M9992.08 7564.8l0 -567.59 20.26 0 0 567.59 -20.26 0 0 0z"/>
   </clipPath>
   <clipPath id="id4">
    <path d="M9625.85 14017.24l-4430.64 0 -378.26 0 -4408.4 0c0,0 -63.97,-1.84 -141.84,-38.73 52.84,16.6 91.78,18.44 91.78,18.44l4433.42 0 378.26 0 4433.43 0c0,0 389.38,-11.07 389.38,-522.05l0 0 0 0 0 -3492.02 0 -2418.41c5.57,0 13.91,0 19.47,0l0 2433.17 0 3495.71c0,269.33 -105.69,400.3 -208.6,463.02 -91.78,59.03 -178,60.87 -178,60.87l0 0 0 0z"/>
   </clipPath>
   <clipPath id="id5">
    <path d="M10012.32 6997.04c-6.7,0 -13.41,0 -20.24,0l0 -2982.18 0 -3491.53 0 0c0,-303.61 -136.01,-431.45 -247.06,-485.38 25.23,9.99 53.88,21.97 83.05,37.95l0 0 0 0 0 0c-100,-71.91 -203.16,-75.9 -203.16,-75.9l-19.06 0 0 0 19.06 0c0,0 387.41,9.98 387.41,523.33l0 3497.52 0 2976.19 0 0z"/>
   </clipPath>
   <clipPath id="id6">
    <path d="M20.29 7567.42l0 -573.87 0.31 0 0 573.87 -0.31 0 0 0z"/>
   </clipPath>
   <clipPath id="id7">
    <path d="M387.78 14017.24c0,0 -387.4,-11.06 -387.4,-523.89l0 -394.77c6.67,-23.98 13.1,-47.96 19.9,-71.94l0 -3043.76 0 -2414.72c0.12,0 0.24,0 0.36,0l0 2435.01 0 3492.02 0 0c0,302.53 136.25,429.82 247.27,483.32 -25.24,-7.38 -53.87,-20.3 -83.23,-36.9l0 0c99.85,71.95 203.1,75.63 203.1,75.63l0 0z"/>
   </clipPath>
   <clipPath id="id8">
    <path d="M20.78 6993.05c0,0 0,0 0,0l0 -5760.63c-8.33,-71.91 -13.88,-143.82 -19.43,-215.72l0 -493.37c0,-513.35 385.8,-523.33 385.8,-523.33l4429.79 0 377.48 0 4410.36 0c11.1,0 72.16,5.99 141.55,37.95 -52.74,-15.98 -91.59,-17.98 -91.59,-17.98l-4435.34 0 -377.48 0 -4432.56 0c0,0 -388.58,11.99 -388.58,523.33l0 3491.53 0 2958.22 0 0z"/>
   </clipPath>
   <clipPath id="id9">
    <path d="M408.48 14017.17l-20.63 0 0 0c0,0 -103.24,-3 -203.12,-76.23 29.27,17.54 57.95,29.57 83.19,37.83 76.23,36.62 140.56,38.4 140.56,38.4l0 0z"/>
   </clipPath>
   <clipPath id="id10">
    <path d="M9828.05 76.62c-29.21,-17.47 -57.79,-29.53 -83.02,-37.83 -69.19,-33.27 -128.55,-37.87 -139.17,-38.43l19.06 0c0,0 103.17,3 203.13,76.26l0 0z"/>
   </clipPath>
   <clipPath id="id11">
    <path d="M-0 13100.22l0 -12087.37c0.09,0 0.19,3.44 0.29,3.44l0.06 3005.49 0 5976.55 0 3098.45c-0.13,3.44 -0.24,3.44 -0.35,3.44l0 0z"/>
   </clipPath>
   <clipPath id="id12">
    <path d="M0.35 7567.42l0 -573.87c6.62,0 13.32,0 19.94,0l0 573.87c-6.58,0 -13.36,0 -19.94,0l0 0z"/>
   </clipPath>
   <clipPath id="id13">
    <path d="M0.35 13097.37l0 -3099.33 0 -2430.31c6.58,0 13.36,0 19.94,0l0 2414.46 -0.02 3043.84c-6.75,23.78 -13.27,47.56 -19.92,71.34l0 0z"/>
   </clipPath>
   <clipPath id="id14">
    <path d="M20.29 6993.08c-6.62,0 -13.32,0 -19.94,0l0 -2973.19 -0.07 -3003.98c6.55,71.85 13.22,143.7 20.01,215.55l0 5761.62 0 0z"/>
   </clipPath>
 </defs>
 <g id="Layer_x0020_1">
  <metadata id="CorelCorpID_0Corel-Layer"/>
  <path class="fil0" d="M9624.9 0.37l-9237.08 0c0,0 -387.53,10.47 -387.53,523.52l0.06 3496.24 0 9473.66c0,512.87 387.47,523.38 387.47,523.38l9237.08 0c0,0 387.43,-10.51 387.43,-523.38l0 -12969.9c0,-513.05 -387.43,-523.52 -387.43,-523.52z"/>
  <g style="clip-path:url(#id0)">
   <image x="-5.6" y="7531.27" width="10031.1" height="6508.11" xlink:href="8_Images\8_ImgID1.png"/>
  </g>
  <g style="clip-path:url(#id1)">
   <image x="-5.6" y="-2.73" width="10031.1" height="7031.73" xlink:href="8_Images\8_ImgID2.png"/>
  </g>
  <g style="clip-path:url(#id2)">
   <image x="9582.2" y="-17.98" width="463.63" height="14006.52" xlink:href="8_Images\8_ImgID3.png"/>
  </g>
  <g style="clip-path:url(#id3)">
   <image x="9968.56" y="6972.06" width="77.27" height="616.14" xlink:href="8_Images\8_ImgID4.png"/>
  </g>
  <g style="clip-path:url(#id4)">
   <image x="233.33" y="7531.27" width="9812.5" height="6508.11" xlink:href="8_Images\8_ImgID5.png"/>
  </g>
  <g style="clip-path:url(#id5)">
   <image x="9582.2" y="-17.98" width="463.63" height="7046.98" xlink:href="8_Images\8_ImgID6.png"/>
  </g>
  <g style="clip-path:url(#id6)">
   <image x="-0.52" y="6972.06" width="51.85" height="616.14" xlink:href="8_Images\8_ImgID7.png"/>
  </g>
  <g style="clip-path:url(#id7)">
   <image x="-20.85" y="7531.27" width="428.04" height="6508.11" xlink:href="8_Images\8_ImgID8.png"/>
  </g>
  <g style="clip-path:url(#id8)">
   <image x="-20.85" y="-17.98" width="9792.16" height="7046.98" xlink:href="8_Images\8_ImgID9.png"/>
  </g>
  <g style="clip-path:url(#id9)">
   <image x="146.91" y="13916.36" width="295.87" height="123.02" xlink:href="8_Images\8_ImgID10.png"/>
  </g>
  <g style="clip-path:url(#id10)">
   <image x="9582.2" y="-17.98" width="275.53" height="123.03" xlink:href="8_Images\8_ImgID11.png"/>
  </g>
  <g style="clip-path:url(#id11)">
   <image x="-20.85" y="978.42" width="56.94" height="12145.9" xlink:href="8_Images\8_ImgID12.png"/>
  </g>
  <g style="clip-path:url(#id12)">
   <image x="-20.85" y="6972.06" width="72.19" height="616.14" xlink:href="8_Images\8_ImgID13.png"/>
  </g>
  <g style="clip-path:url(#id13)">
   <image x="-20.85" y="7531.27" width="72.19" height="5593.05" xlink:href="8_Images\8_ImgID14.png"/>
  </g>
  <g style="clip-path:url(#id14)">
   <image x="-20.85" y="993.67" width="72.19" height="6035.33" xlink:href="8_Images\8_ImgID15.png"/>
  </g>
  <path class="fil1" d="M1226.82 2621.66l0.12 -0.1 -0.18 0c-253.35,-140.46 -456.26,-566.22 -462.79,-579.89l0 -0.31 0 0.16 -0.12 -0.16 0 0.31c-6.47,13.67 -209.46,439.43 -462.73,579.89l-0.18 0 0.06 0.1 -0.06 0.11 0.18 0c253.27,140.51 456.26,566.27 462.73,579.89l0 0.36 0.12 -0.21 0 0.21 0 -0.36c6.53,-13.62 209.44,-439.38 462.79,-579.89l0.18 0 -0.12 -0.11z"/>
  <path class="fil1" d="M539.06 908.57c0,34.77 4.13,67.61 12.37,98.27 8.26,30.75 21.57,57.29 39.86,79.66 18.3,22.42 42.07,40.21 71.2,53.53 29.23,13.27 65.12,19.93 107.59,19.93 48.96,0 90.12,-9.61 123.52,-28.73 33.24,-19.21 58.09,-47.27 74.31,-84.13 16.19,-36.81 24.35,-79.46 24.35,-127.91 0,-53.07 -9.63,-98.06 -28.76,-134.97 -19.18,-36.9 -45.55,-64.1 -79.23,-81.84 -33.64,-17.7 -72.3,-26.64 -115.97,-26.64 -74.31,0 -131.16,20.28 -170.36,60.7 -39.28,40.41 -58.88,97.81 -58.88,172.13zm-9.75 580.66c0,38.43 4.4,74.22 13.34,107.57 8.78,33.29 22.8,62.07 42,86.27 19.18,24.19 43.83,43.31 73.93,57.49 30.07,14.19 66.65,21.25 109.72,21.25 48.37,0 89.88,-9.86 124.39,-29.64 34.52,-19.72 60.77,-49.1 78.78,-87.99 17.99,-38.95 26.94,-85.05 26.94,-138.13 0,-56.68 -9.73,-105.43 -29.15,-146.51 -19.48,-40.97 -46.92,-72.29 -82.31,-93.84 -35.43,-21.51 -76.47,-32.28 -123.04,-32.28 -43.67,0 -80.43,6.81 -110.19,20.33 -29.83,13.62 -54.01,31.93 -72.6,54.9 -18.59,23.03 -31.9,50.03 -39.86,81.04 -7.94,30.91 -11.95,64.15 -11.95,99.54zm433.72 -304.47l1.78 11.49c66.69,25.98 117.15,63.91 151.37,113.78 34.21,49.82 51.31,109.91 51.31,180.06 0,69.04 -16.51,129.84 -49.55,182.35 -33.06,52.52 -81.02,93.08 -143.87,121.7 -62.79,28.68 -136.15,42.96 -219.97,42.96 -78.48,0 -147.31,-13.17 -206.6,-39.35 -59.36,-26.28 -105.39,-64.71 -138.12,-115.09 -32.72,-50.48 -49.12,-109.91 -49.12,-178.39 0,-51.34 8.85,-95.87 26.57,-133.7 17.71,-37.67 40.84,-68.83 69.48,-93.33 28.57,-24.51 64.78,-46.77 108.42,-66.85l-1.78 -11.44c-126.9,-54.91 -190.24,-149 -190.24,-282.45 0,-60.75 16.6,-114.94 50,-162.78 33.3,-47.79 80.76,-85.25 142.5,-112.45 61.6,-27.15 129.91,-40.72 204.87,-40.72 84.96,0 156.33,11.95 214.24,35.89 57.78,23.89 101.31,58.41 130.54,103.55 29.15,45.1 43.77,99.29 43.77,162.43 0,64.87 -15.91,120.79 -47.76,167.76 -31.89,46.87 -81.12,85.1 -147.84,114.58z"/>
  <path class="fil1" d="M8764.34 11365.72l-0.1 0.09 0.1 0c253.37,140.48 456.31,566.2 462.81,579.88l0 0.28 0 -0.1 0.16 0.1 0 -0.28c6.45,-13.68 209.44,-439.4 462.71,-579.88l0.21 0 -0.06 -0.09 0.06 -0.06 -0.21 0c-253.27,-140.52 -456.26,-566.29 -462.71,-579.94l0 -0.36 -0.16 0.22 0 -0.22 0 0.36c-6.5,13.65 -209.44,439.42 -462.81,579.94l-0.1 0 0.1 0.06z"/>
  <path class="fil1" d="M9452.06 13078.78c0,-34.82 -4.07,-67.56 -12.36,-98.23 -8.23,-30.72 -21.55,-57.28 -39.8,-79.68 -18.35,-22.45 -42.1,-40.25 -71.28,-53.54 -29.23,-13.25 -65.12,-19.94 -107.57,-19.94 -48.9,0 -90.08,9.67 -123.48,28.78 -33.3,19.2 -58.11,47.2 -74.32,84.08 -16.22,36.85 -24.35,79.46 -24.35,127.9 0,53.1 9.61,98.08 28.72,134.98 19.22,36.89 45.55,64.14 79.25,81.89 33.61,17.67 72.35,26.59 115.96,26.59 74.33,0 131.16,-20.26 170.36,-60.69 39.24,-40.39 58.87,-97.78 58.87,-172.14zm9.71 -580.64c0,-38.42 -4.33,-74.19 -13.27,-107.53 -8.8,-33.34 -22.83,-62.09 -41.99,-86.28 -19.17,-24.29 -43.88,-43.39 -73.97,-57.55 -30.05,-14.18 -66.65,-21.23 -109.71,-21.23 -48.34,0 -89.88,9.83 -124.34,29.67 -34.57,19.72 -60.8,49.11 -78.8,88.01 -18,38.94 -26.94,84.99 -26.94,138.11 0,56.62 9.71,105.41 29.13,146.48 19.47,40.98 46.92,72.28 82.35,93.85 35.38,21.5 76.41,32.22 122.97,32.22 43.67,0 80.48,-6.73 110.22,-20.31 29.84,-13.58 53.99,-31.85 72.59,-54.85 18.61,-23.07 31.88,-50.06 39.86,-81 7.98,-30.98 11.9,-64.18 11.9,-99.59zm-433.64 304.49l-1.83 -11.5c-66.7,-25.98 -117.13,-63.91 -151.29,-113.79 -34.27,-49.8 -51.35,-109.87 -51.35,-180.11 0,-69.01 16.53,-129.79 49.52,-182.3 33.09,-52.56 81.03,-93.09 143.87,-121.71 62.78,-28.64 136.19,-42.95 219.97,-42.95 78.49,0 147.32,13.19 206.6,39.4 59.37,26.21 105.38,64.6 138.12,115.08 32.74,50.44 49.16,109.89 49.16,178.32 0,51.37 -8.9,95.91 -26.59,133.67 -17.69,37.75 -40.87,68.86 -69.49,93.39 -28.57,24.48 -64.77,46.74 -108.39,66.88l1.73 11.44c126.89,54.85 190.28,148.93 190.28,282.38 0,60.77 -16.62,114.98 -49.97,162.81 -33.35,47.81 -80.83,85.28 -142.54,112.47 -61.62,27.16 -129.89,40.68 -204.88,40.68 -84.94,0 -156.32,-11.89 -214.17,-35.88 -57.85,-23.89 -101.37,-58.35 -130.6,-103.5 -29.18,-45.12 -43.77,-99.27 -43.77,-162.42 0,-64.96 15.91,-120.86 47.79,-167.74 31.82,-46.88 81.08,-85.17 147.83,-114.62z"/>
  <path class="fil1" d="M7774.55 11212.93l0.1 -0.14 -0.36 0c-502.72,-278.91 -905.55,-1123.99 -918.41,-1151.05l0 -0.6 -0.1 0.28 -0.16 -0.28 -0.05 0.6c-12.81,27.06 -415.69,872.14 -918.36,1151.05l-0.41 0 0.2 0 -0.2 0.24 0.41 0c502.67,278.84 905.55,1123.89 918.36,1150.95l0.05 0.66 0.16 -0.34 0.1 0.34 0 -0.66c12.86,-27.06 415.69,-872.11 918.41,-1150.95l0.36 0 -0.1 -0.1z"/>
  <path class="fil1" d="M7774.55 2804.68l0.1 -0.16 -0.36 0c-502.72,-278.89 -905.55,-1123.95 -918.41,-1151.04l0 -0.61 -0.1 0.25 -0.16 -0.25 -0.05 0.61c-12.81,27.09 -415.69,872.15 -918.36,1151.04l-0.41 0 0.2 0.16 -0.2 0.1 0.41 0c502.67,278.84 905.55,1123.84 918.36,1150.94l0.05 0.71 0.16 -0.4 0.1 0.4 0 -0.71c12.86,-27.1 415.69,-872.1 918.41,-1150.94l0.36 0 -0.1 -0.1z"/>
  <path class="fil1" d="M7774.55 7030.88l0.1 -0.2 -0.36 0c-502.72,-278.84 -905.55,-1123.95 -918.41,-1150.99l0 -0.61 -0.1 0.3 -0.16 -0.3 -0.05 0.61c-12.81,27.04 -415.69,872.15 -918.36,1150.99l-0.41 0 0.2 0 -0.2 0.3 0.41 0c502.67,278.79 905.55,1123.9 918.36,1150.9l0.05 0.71 0.16 -0.36 0.1 0.36 0 -0.71c12.86,-27 415.69,-872.11 918.41,-1150.9l0.36 0 -0.1 -0.1z"/>
  <path class="fil1" d="M5925.21 5054.05l0.05 -0.21 -0.3 0c-502.83,-278.89 -905.56,-1123.94 -918.43,-1150.99l0 -0.66 -0.12 0.3 -0.14 -0.3 -0.06 0.66c-12.85,27.05 -415.73,872.1 -918.36,1150.99l-0.43 0 0.18 0.21 -0.18 0.05 0.43 0c502.63,278.84 905.51,1123.9 918.36,1150.94l0.06 0.71 0.14 -0.35 0.12 0.35 0 -0.71c12.87,-27.04 415.6,-872.1 918.43,-1150.94l0.3 0 -0.05 -0.05z"/>
  <path class="fil1" d="M5925.21 9280.16l0.05 -0.1 -0.3 0c-502.83,-278.91 -905.56,-1123.96 -918.43,-1151l0 -0.61 -0.12 0.3 -0.14 -0.3 -0.06 0.61c-12.85,27.04 -415.73,872.09 -918.36,1151l-0.43 0 0.18 0.1 -0.18 0.14 0.43 0c502.63,278.85 905.51,1123.89 918.36,1150.92l0.06 0.73 0.14 -0.36 0.12 0.36 0 -0.73c12.87,-27.03 415.6,-872.07 918.43,-1150.92l0.3 0 -0.05 -0.14z"/>
  <path class="fil1" d="M4075.72 11212.93l0.14 -0.14 -0.35 0c-502.83,-278.91 -905.55,-1123.99 -918.46,-1151.05l0 -0.6 -0.12 0.28 -0.1 -0.28 -0.06 0.6c-12.83,27.06 -415.71,872.14 -918.37,1151.05l-0.43 0 0.19 0.14 -0.19 0.1 0.43 0c502.66,278.84 905.54,1123.89 918.37,1150.95l0.06 0.66 0.1 -0.34 0.12 0.34 0 -0.66c12.91,-27.06 415.63,-872.11 918.46,-1150.95l0.35 0 -0.14 -0.1z"/>
  <path class="fil1" d="M4075.72 2804.68l0.14 -0.16 -0.35 0c-502.83,-278.89 -905.55,-1123.95 -918.46,-1151.04l0 -0.61 -0.12 0.25 -0.1 -0.25 -0.06 0.61c-12.83,27.09 -415.71,872.15 -918.37,1151.04l-0.43 0 0.19 0.16 -0.19 0.1 0.43 0c502.66,278.84 905.54,1123.84 918.37,1150.94l0.06 0.71 0.1 -0.4 0.12 0.4 0 -0.71c12.91,-27.1 415.63,-872.1 918.46,-1150.94l0.35 0 -0.14 -0.1z"/>
  <path class="fil1" d="M4075.72 7030.88l0.14 -0.2 -0.35 0c-502.83,-278.84 -905.55,-1123.95 -918.46,-1150.99l0 -0.61 -0.12 0.3 -0.1 -0.3 -0.06 0.61c-12.83,27.04 -415.71,872.15 -918.37,1150.99l-0.43 0 0.19 0.2 -0.19 0.1 0.43 0c502.66,278.79 905.54,1123.9 918.37,1150.9l0.06 0.71 0.1 -0.36 0.12 0.36 0 -0.71c12.91,-27 415.63,-872.11 918.46,-1150.9l0.35 0 -0.14 -0.1z"/>
 </g>
</svg>
