<?xml version="1.0" encoding="UTF-8"?>
<!DOCTYPE svg PUBLIC "-//W3C//DTD SVG 1.1//EN" "http://www.w3.org/Graphics/SVG/1.1/DTD/svg11.dtd">
<!-- Creator: CorelDRAW -->
<svg xmlns="http://www.w3.org/2000/svg" xml:space="preserve" width="100.129mm" height="140.186mm" version="1.1" style="shape-rendering:geometricPrecision; text-rendering:geometricPrecision; image-rendering:optimizeQuality; fill-rule:evenodd; clip-rule:evenodd"
viewBox="0 0 1632.89 2286.14"
 xmlns:xlink="http://www.w3.org/1999/xlink"
 xmlns:xodm="http://www.corel.com/coreldraw/odm/2003">
 <defs>
  <style type="text/css">
   <![CDATA[
    .fil0 {fill:#FEFEFE;fill-rule:nonzero}
    .fil1 {fill:#E42D24;fill-rule:nonzero}
   ]]>
  </style>
   <clipPath id="id0">
    <path d="M1569.57 2286.13c0,0 40.8,-1.2 57.03,-44.82 -16.23,43.62 -57.03,44.82 -57.03,44.82zm-3.25 -3.31l-723.34 0 -61.67 0 -722.88 0c0,0 -6.49,-0.3 -14.84,-3.01 -18.08,-8.72 -40.34,-29.48 -40.34,-78.82l0 0 0 -569.48 0 -397.1c319.94,-0.3 639.88,-0.3 959.35,-0.6 222.57,0 444.67,0 666.77,0l0 394.39 0 569.48 0 0c0,83.33 -63.06,85.14 -63.06,85.14l0 0z"/>
   </clipPath>
   <clipPath id="id1">
    <path d="M1629.38 1141.27c-9.74,0 -19.47,0 -29.21,0 -395.98,0 -791.97,0 -1187.95,-0.32 -136.32,0 -272.64,0 -408.96,-0.32l0 -482.36 0 -569.46c0,-83.54 63.52,-85.16 63.52,-85.16l722.88 0 61.67 0 723.34 0c0,0 6.03,0 14.37,2.93 18.08,8.78 40.34,29.58 40.34,78.98l0 0 0 569.14 0 486.58 0 0z"/>
   </clipPath>
   <clipPath id="id2">
    <path d="M63.39 2286.14l0 0c0,0 0,0 -0.45,0 0.45,0 0.45,0 0.45,0l0 0zm1563.22 -44.85c3.58,-11.05 6.27,-24.05 6.27,-40.3l0 -967.24 0 0 0 -92.3 0 0 0 -1055.64 0 0c0,-83.85 -63.19,-85.8 -63.19,-85.8l-3.14 0c-0.45,0 -0.45,0 -0.45,0l3.59 0c0,0 63.19,1.95 63.19,85.8l0 570.07 0 974.39 0 570.72c0,16.25 -2.69,29.25 -6.27,40.3l0 0z"/>
   </clipPath>
   <clipPath id="id3">
    <path d="M1629.49 1233.86l0 -92.56 3.31 0 0 92.56 -3.31 0 0 0z"/>
   </clipPath>
   <clipPath id="id4">
    <path d="M1569.77 2286.13l-722.54 0 -61.69 0 -718.92 0c0,0 -10.43,-0.3 -23.13,-6.32 8.62,2.71 14.97,3.01 14.97,3.01l723 0 61.69 0 723 0c0,0 63.5,-1.81 63.5,-85.14l0 0 0 0 0 -569.48 0 -394.39c0.91,0 2.27,0 3.18,0l0 396.8 0 570.08c0,16.55 -2.27,29.78 -6.35,40.61 -16.33,43.62 -56.7,44.82 -56.7,44.82l0 0 0 0z"/>
   </clipPath>
   <clipPath id="id5">
    <path d="M1632.8 1141.25c-1.09,0 -2.19,0 -3.3,0l0 -486.36 0 -569.48 0 0c0,-49.55 -22.18,-70.08 -40.29,-78.89 4.11,1.3 8.77,3.26 13.52,6.19l0 0 0 0 0 0c-16.29,-12.06 -33.11,-12.39 -33.11,-12.39l-3.17 0 0 0 3.17 0c0,0 63.18,1.63 63.18,85.4l0 570.13 0 485.38 0 0z"/>
   </clipPath>
   <clipPath id="id6">
    <path d="M3.31 1234.28l0 -93.57 0.05 0 0 93.57 -0.05 0 0 0z"/>
   </clipPath>
   <clipPath id="id7">
    <path d="M63.12 2286.13c-3.11,-0.3 -63.06,-3.91 -63.06,-85.44l0 -64.38c1.07,-3.91 2.14,-7.82 3.25,-11.73l0 -496.37 0 -393.79c0.02,0 0.04,0 0.04,0l0 397.1 0 569.48 0 0c0,49.34 22.2,70.09 40.3,78.82 -4.11,-1.2 -8.76,-3.31 -13.53,-6.02l0 0c15.49,11.13 31.48,12.33 33,12.33l0 0z"/>
   </clipPath>
   <clipPath id="id8">
    <path d="M3.39 1140.73c0,0 0,0 0,0l0 -939.71c-1.36,-11.71 -2.26,-23.42 -3.17,-35.13l0 -80.34c0,-83.59 62.92,-85.22 62.92,-85.22l722.41 0 61.56 0 719.24 0c1.81,0 11.32,0.65 23.08,6.18 -8.6,-2.93 -14.94,-2.93 -14.94,-2.93l-723.31 0 -61.56 0 -722.86 0c0,0 -63.37,1.63 -63.37,85.22l0 569.22 0 482.7 0 0z"/>
   </clipPath>
   <clipPath id="id9">
    <path d="M66.61 2286.1l-3.36 0c0,0 -0.04,0 -0.12,0 -1.53,-0.08 -17.52,-1.08 -33,-12.44 4.76,2.85 9.41,4.8 13.53,6.15 12.45,6 22.96,6.29 22.96,6.29l0 0z"/>
   </clipPath>
   <clipPath id="id10">
    <path d="M1602.74 12.69c-4.75,-2.85 -9.41,-4.81 -13.51,-6.16 -11.42,-5.51 -21.21,-6.2 -22.77,-6.28l3.16 0c0,0 16.84,0.49 33.13,12.44l0 0z"/>
   </clipPath>
   <clipPath id="id11">
    <path d="M-0 2136.32l0 -1970.64c0.01,0 0.03,0 0.05,0l0.01 490.13 0 974.65 0 505.85c-0.02,0 -0.04,0 -0.06,0l0 0z"/>
   </clipPath>
   <clipPath id="id12">
    <path d="M0.05 1234.28l0 -93.57c1.09,0 2.17,0 3.26,0l0 93.57c-1.07,0 -2.18,0 -3.26,0l0 0z"/>
   </clipPath>
   <clipPath id="id13">
    <path d="M0.05 2136.16l0 -505.69 0 -396.08c1.08,0 2.18,0 3.26,0l0 393.75 -0 496.39c-1.1,3.88 -2.17,7.76 -3.25,11.63l0 0z"/>
   </clipPath>
   <clipPath id="id14">
    <path d="M3.31 1140.69c-1.09,0 -2.16,0 -3.26,0l0 -485.03 -0.01 -489.76c1.06,11.69 2.15,23.65 3.26,35.34l0 939.45 0 0z"/>
   </clipPath>
 </defs>
 <g id="Layer_x0020_1">
  <metadata id="CorelCorpID_0Corel-Layer"/>
  <path class="fil0" d="M1569.61 0.25l-1506.37 0c0,0 -63.2,1.73 -63.2,85.38l0.01 570.16 0 1544.95c0,83.65 63.19,85.36 63.19,85.36l1506.37 0c0,0 63.19,-1.71 63.19,-85.36l0 -2115.11c0,-83.66 -63.19,-85.38 -63.19,-85.38z"/>
  <g style="clip-path:url(#id0)">
   <image x="-0.91" y="1228.7" width="1635.86" height="1061.34" xlink:href="Untitled-1_Images\Untitled-1_ImgID1.png"/>
  </g>
  <g style="clip-path:url(#id1)">
   <image x="-0.91" y="0.07" width="1635.86" height="1146.73" xlink:href="Untitled-1_Images\Untitled-1_ImgID2.png"/>
  </g>
  <g style="clip-path:url(#id2)">
   <image x="57.12" y="-3.25" width="1581.15" height="2293.29" xlink:href="Untitled-1_Images\Untitled-1_ImgID3.png"/>
  </g>
  <g style="clip-path:url(#id3)">
   <image x="1625.66" y="1137.51" width="12.6" height="100.48" xlink:href="Untitled-1_Images\Untitled-1_ImgID4.png"/>
  </g>
  <g style="clip-path:url(#id4)">
   <image x="38.05" y="1228.7" width="1600.21" height="1061.34" xlink:href="Untitled-1_Images\Untitled-1_ImgID5.png"/>
  </g>
  <g style="clip-path:url(#id5)">
   <image x="1562.66" y="-3.25" width="75.61" height="1150.04" xlink:href="Untitled-1_Images\Untitled-1_ImgID6.png"/>
  </g>
  <g style="clip-path:url(#id6)">
   <image x="-0.08" y="1135.02" width="8.46" height="102.97" xlink:href="Untitled-1_Images\Untitled-1_ImgID7.png"/>
  </g>
  <g style="clip-path:url(#id7)">
   <image x="-3.4" y="1228.7" width="69.81" height="1061.34" xlink:href="Untitled-1_Images\Untitled-1_ImgID8.png"/>
  </g>
  <g style="clip-path:url(#id8)">
   <image x="-3.4" y="-3.25" width="1596.9" height="1147.56" xlink:href="Untitled-1_Images\Untitled-1_ImgID9.png"/>
  </g>
  <g style="clip-path:url(#id9)">
   <image x="23.96" y="2269.98" width="48.25" height="20.06" xlink:href="Untitled-1_Images\Untitled-1_ImgID10.png"/>
  </g>
  <g style="clip-path:url(#id10)">
   <image x="1562.66" y="-3.25" width="44.93" height="20.89" xlink:href="Untitled-1_Images\Untitled-1_ImgID11.png"/>
  </g>
  <g style="clip-path:url(#id11)">
   <image x="-3.4" y="160.07" width="9.29" height="1980.74" xlink:href="Untitled-1_Images\Untitled-1_ImgID12.png"/>
  </g>
  <g style="clip-path:url(#id12)">
   <image x="-3.4" y="1135.02" width="11.77" height="102.97" xlink:href="Untitled-1_Images\Untitled-1_ImgID13.png"/>
  </g>
  <g style="clip-path:url(#id13)">
   <image x="-3.4" y="1228.7" width="11.77" height="912.11" xlink:href="Untitled-1_Images\Untitled-1_ImgID14.png"/>
  </g>
  <g style="clip-path:url(#id14)">
   <image x="-3.4" y="162.56" width="11.77" height="981.75" xlink:href="Untitled-1_Images\Untitled-1_ImgID15.png"/>
  </g>
  <path class="fil1" d="M205.21 427.74l0.02 -0.01 -0.03 -0.02c-41.32,-22.91 -74.41,-92.33 -75.48,-94.56l0 -0.05 0 0.02 -0.02 -0.02 0 0.05c-1.06,2.23 -34.16,71.65 -75.47,94.56l-0.03 0 0.01 0.03 -0.01 0.01 0.03 0c41.31,22.91 74.41,92.35 75.47,94.57l0 0.06 0.02 -0.03 0 0.03 0 -0.06c1.07,-2.21 34.16,-71.65 75.48,-94.57l0.03 0 -0.02 -0.01z"/>
  <path class="fil1" d="M98.03 219.52l60.34 0 -27.43 -93.1 -32.91 93.1zm55.44 77.96l0 -7.08c4.8,-0.95 8.39,-2.01 10.75,-3.18 2.36,-1.15 4.12,-2.76 5.27,-4.83 1.16,-2.06 1.74,-4.83 1.74,-8.29 0,-3.27 -0.39,-6.82 -1.16,-10.62 -0.76,-3.8 -1.87,-8.05 -3.31,-12.77l-5.34 -18.62 -67.27 0 -4.91 14.14c-2.5,7.12 -4.14,12.5 -4.9,16.17 -0.78,3.64 -1.16,6.97 -1.16,9.95 0,5.77 1.47,10.01 4.4,12.7 2.93,2.69 7.43,4.48 13.5,5.34l0 7.08 -61.63 0 0 -7.08c5.39,-0.86 10.08,-3.99 14.07,-9.38 4,-5.38 7.88,-13.07 11.63,-23.08l60.19 -159.8 22.81 0 49.07 160.94c2.32,7.51 4.35,13.24 6.13,17.18 1.78,3.95 3.93,7.02 6.42,9.24 2.5,2.21 5.92,3.85 10.25,4.9l0 7.08 -66.54 0z"/>
  <path class="fil1" d="M1423.18 1853.7l-0.01 0.01 0.02 0.01c41.32,22.91 74.41,92.34 75.47,94.57l0 0.05 0 -0.02 0.02 0.02 0 -0.05c1.06,-2.23 34.16,-71.65 75.48,-94.57l0.02 0 -0.01 -0.02 0.01 -0.01 -0.02 0c-41.32,-22.92 -74.41,-92.35 -75.47,-94.57l0 -0.06 -0.02 0.02 0 -0.02 0 0.06c-1.06,2.21 -34.16,71.65 -75.48,94.57l-0.02 0 0.01 0.01z"/>
  <path class="fil1" d="M1530.37 2061.91l-60.35 0 27.44 93.11 32.9 -93.11zm-55.43 -77.94l0 7.06c-4.81,0.97 -8.39,2.01 -10.76,3.18 -2.36,1.15 -4.11,2.77 -5.26,4.83 -1.15,2.07 -1.74,4.84 -1.74,8.31 0,3.27 0.4,6.81 1.17,10.61 0.77,3.79 1.87,8.05 3.32,12.76l5.33 18.63 67.28 0 4.91 -14.15c2.5,-7.11 4.13,-12.5 4.9,-16.16 0.78,-3.66 1.16,-6.98 1.16,-9.96 0,-5.76 -1.47,-10.01 -4.4,-12.7 -2.93,-2.69 -7.43,-4.47 -13.5,-5.34l0 -7.06 61.64 0 0 7.06c-5.39,0.87 -10.08,4 -14.07,9.39 -4,5.38 -7.88,13.08 -11.63,23.08l-60.19 159.79 -22.82 0 -49.07 -160.94c-2.31,-7.51 -4.35,-13.23 -6.13,-17.17 -1.78,-3.95 -3.93,-7.02 -6.43,-9.24 -2.5,-2.21 -5.92,-3.85 -10.25,-4.91l0 -7.06 66.55 0z"/>
  <path class="fil1" d="M965.97 1143.19l0.02 -0.02 -0.07 0c-81.98,-45.48 -147.67,-183.29 -149.78,-187.71l0 -0.1 -0.01 0.05 -0.02 -0.05 -0.01 0.1c-2.09,4.42 -67.79,142.23 -149.76,187.71l-0.07 0 0.04 0.02 -0.04 0.01 0.07 0c81.98,45.47 147.68,183.28 149.76,187.69l0.01 0.12 0.02 -0.06 0.01 0.06 0 -0.12c2.1,-4.41 67.79,-142.22 149.78,-187.69l0.07 0 -0.02 -0.01z"/>
 </g>
</svg>
