<?xml version="1.0" encoding="UTF-8"?>
<!DOCTYPE svg PUBLIC "-//W3C//DTD SVG 1.1//EN" "http://www.w3.org/Graphics/SVG/1.1/DTD/svg11.dtd">
<!-- Creator: CorelDRAW -->
<svg xmlns="http://www.w3.org/2000/svg" xml:space="preserve" width="100%" height="100%" version="1.1" style="shape-rendering:geometricPrecision; text-rendering:geometricPrecision; image-rendering:optimizeQuality; fill-rule:evenodd; clip-rule:evenodd"
viewBox="0 0 8816.14 12343.37"
 xmlns:xlink="http://www.w3.org/1999/xlink"
 xmlns:xodm="http://www.corel.com/coreldraw/odm/2003">
 <defs>
  <style type="text/css">
   <![CDATA[
    .fil0 {fill:#FEFEFE;fill-rule:nonzero}
    .fil1 {fill:#252422;fill-rule:nonzero}
   ]]>
  </style>
   <clipPath id="id0">
    <path d="M8474.05 12343.37l-3900.59 0 -330.9 0 -3883.05 0c0,0 0,0 0,0l3883.05 0 330.9 0 3900.59 0c0,0 145.4,-4.87 248.18,-131.53 -102.78,128.29 -248.18,131.53 -248.18,131.53zm-17.54 -17.86l-3903.11 0 -333.4 0 -3905.61 0c0,0 -32.59,-1.62 -77.71,-16.24 -97.77,-47.09 -218.1,-159.14 -218.1,-425.47l0 0 0 -3074.11 0 -2145.21c1727.2,-1.63 3451.88,-1.63 5179.07,-1.63 1200.77,0 2401.53,0 3599.78,0l0 2128.98 0 3074.11 0 0c0,449.83 -340.92,459.57 -340.92,459.57l0 0z"/>
   </clipPath>
   <clipPath id="id1">
    <path d="M8639.5 6162.9c-2138.31,0 -4274.11,-1.75 -6412.42,-1.75 -737,-1.76 -1471.49,-1.76 -2208.5,-1.76l0 -2605.94 0 -3073.68c0,-450.15 340.93,-460.7 340.93,-460.7l3905.61 0 330.9 0 3905.61 0c0,0 32.59,1.76 77.71,15.83 97.77,47.47 218.09,160.01 218.09,427.29l0 0 0 3073.67 0 2627.04c-52.64,0 -105.28,0 -157.93,0l0 0z"/>
   </clipPath>
   <clipPath id="id2">
    <path d="M8721.08 12211c53.69,-69.52 94.94,-170.33 94.94,-330.22l0 -5217.39 0 0 0 -500.54 0 0 0 -5700.54 0 0c0,-451.88 -341.2,-462.31 -341.2,-462.31l-17.33 0c-0.48,0 -0.85,0 -0.85,0l18.18 0c0,0 341.32,10.43 341.32,462.31l0 3079.68 0 5262.58 0 3076.21c0,159.89 -41.25,260.7 -95.06,330.22l0 0z"/>
   </clipPath>
   <clipPath id="id3">
    <path d="M8798.19 6662.17l0 -499.95 17.82 0 0 499.95 -17.82 0 0 0z"/>
   </clipPath>
   <clipPath id="id4">
    <path d="M8475.62 12343.37l-3902.42 0 -330.71 0 -3882.82 0c-7.35,0 -61.24,-3.24 -122.48,-34.1 44.09,14.62 78.39,16.24 78.39,16.24l3904.86 0 330.72 0 3904.86 0c0,0 342.96,-9.74 342.96,-459.57l0 0 0 0 0 -3074.11 0 -2128.98c4.9,0 12.25,0 17.15,0l0 2140.35 0 3078.98c0,157.52 -41.64,261.45 -95.54,329.66 -100.44,126.66 -244.97,131.53 -244.97,131.53l0 0z"/>
   </clipPath>
   <clipPath id="id5">
    <path d="M8798.15 6162.85l0 -2627.44 0 -3073.27 0 0c0,-267.86 -119.88,-378.88 -217.65,-426.46 22.22,7.05 47.48,17.63 73.21,33.49l0 0 0 0 0 0c-87.95,-65.21 -178.83,-66.97 -178.83,-66.97l-17.42 0 0 0 17.42 0c0,0 341.16,8.81 341.16,459.94l0 3078.56 0 2622.15c-5.96,0 -11.92,0 -17.89,0l0 0z"/>
   </clipPath>
   <clipPath id="id6">
    <path d="M18.17 6664.41l0 -505.23 0.26 0 0 505.23 -0.26 0 0 0z"/>
   </clipPath>
   <clipPath id="id7">
    <path d="M359.95 12343.37l-18.13 0c0,0 -341.16,-9.74 -341.16,-461.19l0 -347.53c5.85,-21.11 11.58,-42.22 17.43,-63.33l0.11 -2679.49 0 -2127.35c0,0 0.12,0 0.24,0l0 2145.21 0 3074.11 0 0c0,266.33 119.99,378.38 217.65,425.47 -22.22,-6.49 -47.37,-17.86 -73.1,-32.48l0 0c87.95,63.34 178.83,66.58 178.83,66.58l17.31 0c0.58,0 0.82,0 0.82,0l0 0z"/>
   </clipPath>
   <clipPath id="id8">
    <path d="M19.6 6159.33c-2.45,0 -2.45,0 -2.45,0l0 -5073.37c-4.9,-63.44 -9.8,-126.88 -17.15,-190.32l0 -433.5c0,-451.13 342.96,-459.94 342.96,-459.94l3899.97 0 330.71 0 3882.82 0c7.35,0 61.24,3.53 124.93,33.48 -46.54,-15.86 -80.84,-15.86 -80.84,-15.86l-3904.86 0 -330.72 0 -3904.86 0c0,0 -340.51,8.82 -340.51,459.94l0 3073.28 0 2606.29 0 0z"/>
   </clipPath>
   <clipPath id="id9">
    <path d="M359.16 12343.23l-17.4 0c0,0 -90.89,-2.58 -178.82,-67.11 25.71,15.43 50.87,25.99 73.15,33.3 62.43,30.05 115.92,33.54 123.07,33.81l0 0z"/>
   </clipPath>
   <clipPath id="id10">
    <path d="M8653.76 68.81c-25.78,-15.42 -51.01,-26.01 -73.22,-33.33 -62.43,-30.01 -115.85,-33.46 -123.07,-33.81l17.4 0c0,0 90.89,2.59 178.89,67.14l0 0z"/>
   </clipPath>
   <clipPath id="id11">
    <path d="M0.32 11536.13l0 -10642.01c0.09,0 0.13,0 0.27,3.03l0.03 2643.06 0 5264.87 0 2728.02c-0.12,0 -0.21,3.03 -0.3,3.03l0 0z"/>
   </clipPath>
   <clipPath id="id12">
    <path d="M0.62 6664.41l0 -505.39c5.82,0.16 11.7,0.16 17.55,0.16l0 505.23c-5.81,0 -11.73,0 -17.55,0l0 0z"/>
   </clipPath>
   <clipPath id="id13">
    <path d="M0.62 11533.78l0 -2730.11 0 -2138.91c5.82,0 11.74,0 17.55,0l0 2126.36 -0.04 2679.91c-5.91,20.92 -11.69,41.83 -17.51,62.75l0 0z"/>
   </clipPath>
   <clipPath id="id14">
    <path d="M18.17 6158.61c-5.85,0 -11.73,0 -17.55,0l0 -2617.25 -0.04 -2644.4c5.78,63.36 11.64,126.72 17.59,190.07l0 5071.58 0 0z"/>
   </clipPath>
 </defs>
 <g id="Layer_x0020_1">
  <metadata id="CorelCorpID_0Corel-Layer"/>
  <path class="fil0" d="M8474.86 1.66l-8133.08 0c0,0 -341.19,9.26 -341.19,460.95l0.04 3078.4 0 8341.44c0,451.55 341.15,460.84 341.15,460.84l8133.08 0c0,0 341.15,-9.29 341.15,-460.84l0 -11419.84c0,-451.69 -341.15,-460.95 -341.15,-460.95z"/>
  <g style="clip-path:url(#id0)">
   <image x="-11.5" y="6636.87" width="8844.03" height="5729.24" xlink:href="10_Images\10_ImgID1.png"/>
  </g>
  <g style="clip-path:url(#id1)">
   <image x="-11.5" y="-17.85" width="8844.03" height="6203.62" xlink:href="10_Images\10_ImgID2.png"/>
  </g>
  <g style="clip-path:url(#id2)">
   <image x="8419.91" y="-31.28" width="430.52" height="12263.13" xlink:href="10_Images\10_ImgID3.png"/>
  </g>
  <g style="clip-path:url(#id3)">
   <image x="8777.93" y="6131.17" width="72.5" height="564.78" xlink:href="10_Images\10_ImgID4.png"/>
  </g>
  <g style="clip-path:url(#id4)">
   <image x="207.79" y="6636.87" width="8642.64" height="5729.24" xlink:href="10_Images\10_ImgID5.png"/>
  </g>
  <g style="clip-path:url(#id5)">
   <image x="8437.81" y="-31.28" width="412.62" height="6217.04" xlink:href="10_Images\10_ImgID6.png"/>
  </g>
  <g style="clip-path:url(#id6)">
   <image x="-11.5" y="6131.17" width="54.6" height="564.78" xlink:href="10_Images\10_ImgID7.png"/>
  </g>
  <g style="clip-path:url(#id7)">
   <image x="-29.4" y="6636.87" width="412.62" height="5729.24" xlink:href="10_Images\10_ImgID8.png"/>
  </g>
  <g style="clip-path:url(#id8)">
   <image x="-29.4" y="-31.28" width="8642.64" height="6217.04" xlink:href="10_Images\10_ImgID9.png"/>
  </g>
  <g style="clip-path:url(#id9)">
   <image x="140.66" y="12244.38" width="242.56" height="121.73" xlink:href="10_Images\10_ImgID10.png"/>
  </g>
  <g style="clip-path:url(#id10)">
   <image x="8437.81" y="-31.28" width="242.56" height="121.73" xlink:href="10_Images\10_ImgID11.png"/>
  </g>
  <g style="clip-path:url(#id11)">
   <image x="-29.4" y="863.77" width="54.6" height="10705.74" xlink:href="10_Images\10_ImgID12.png"/>
  </g>
  <g style="clip-path:url(#id12)">
   <image x="-29.4" y="6131.17" width="72.5" height="564.78" xlink:href="10_Images\10_ImgID13.png"/>
  </g>
  <g style="clip-path:url(#id13)">
   <image x="-29.4" y="6636.87" width="72.5" height="4919.21" xlink:href="10_Images\10_ImgID14.png"/>
  </g>
  <g style="clip-path:url(#id14)">
   <image x="-29.4" y="863.77" width="72.5" height="5321.99" xlink:href="10_Images\10_ImgID15.png"/>
  </g>
  <path class="fil1" d="M880.56 2371.49c-19.2,229.36 -148.54,390.02 -148.54,390.02l297.03 0c0,0 -129.29,-160.66 -148.49,-390.02z"/>
  <path class="fil1" d="M1157.85 2031.46c-183.94,-127.1 -274.88,-260.06 -277.25,-263.46l0 -0.18 -0.09 0.09 -0.04 -0.09 0 0.18c-2.37,3.4 -93.27,136.36 -277.2,263.46 -186.39,128.84 -228.87,289.51 -162.23,410.79 66.73,121.23 333.36,180.26 439.47,-60.51 106.16,240.77 372.84,181.74 439.52,60.51 66.64,-121.28 24.21,-281.95 -162.18,-410.79z"/>
  <path class="fil1" d="M654.96 1403.94c0,30.12 1.7,52.85 5.06,68.11 3.35,15.44 9.35,27.88 17.94,37.51 8.55,9.62 20.9,17.14 37.01,22.55 16.11,5.46 36.39,9.62 60.78,12.44 24.43,2.91 56.65,4.84 96.66,5.86l0 56.93 -575.96 0 0 -56.93c57.64,-2.59 98.85,-6.04 123.51,-10.51 24.71,-4.34 43.55,-11.01 56.48,-19.87 13.07,-8.82 22.51,-21.26 28.51,-37.37 6,-16.11 8.95,-42.38 8.95,-78.72l0 -632.04c0,-20.72 -3.67,-35.94 -10.92,-45.61 -7.3,-9.62 -17.9,-14.45 -32,-14.45 -16.6,0 -40.23,8.59 -70.89,25.73 -30.65,17.19 -68.56,40.82 -113.71,70.93l-34.33 -59.96 364.74 -217.46 42.87 0c-3.18,49.86 -4.7,118.96 -4.7,207.3l0 665.56z"/>
  <path class="fil1" d="M978.39 1061.85c0,169.34 15.66,293.62 47.17,372.88 31.37,79.26 80.1,118.86 146.07,118.86 62.88,0 109.51,-37.32 139.94,-111.88 30.34,-74.56 45.51,-189.97 45.51,-346.39 0,-119.44 -7.74,-216.24 -23.31,-290.31 -15.58,-74.06 -37.37,-127.14 -65.12,-159.41 -27.79,-32.17 -61.4,-48.28 -100.91,-48.28 -35.85,0 -65.79,10.65 -90,31.95 -24.17,21.3 -43.68,51.96 -58.49,91.97 -14.77,40.05 -25.33,88.74 -31.51,146.11 -6.31,57.42 -9.35,122.22 -9.35,194.5zm180.8 557.98c-112.29,0 -195.8,-44.17 -250.57,-132.52 -54.82,-88.29 -82.26,-222.33 -82.26,-402.14 0,-95.6 8.46,-178.16 25.33,-247.8 16.87,-69.64 40.55,-127.19 70.94,-172.61 30.43,-45.47 66.86,-79.17 109.51,-100.96 42.55,-21.8 89.1,-32.72 139.49,-32.72 113.81,0 198.48,43.86 254.06,131.67 55.58,87.84 83.42,220.67 83.42,398.29 0,183.94 -29.81,323.03 -89.28,417.32 -59.48,94.34 -146.34,141.47 -260.64,141.47z"/>
  <path class="fil1" d="M7959.94 9951.9c19.2,-229.34 148.53,-390.03 148.53,-390.03l-297.06 0c0,0 129.33,160.69 148.53,390.03z"/>
  <path class="fil1" d="M7682.65 10291.92c183.94,127.09 274.87,260.09 277.25,263.55l0 0.1 0.08 -0.07 0 0.07 0 -0.1c2.38,-3.46 93.31,-136.46 277.25,-263.55 186.39,-128.81 228.82,-289.46 162.18,-410.75 -66.68,-121.18 -333.32,-180.3 -439.43,60.5 -106.15,-240.8 -372.83,-181.68 -439.47,-60.5 -66.72,121.29 -24.25,281.94 162.14,410.75z"/>
  <path class="fil1" d="M8185.54 10919.47c0,-30.12 -1.7,-52.88 -5.06,-68.16 -3.4,-15.35 -9.35,-27.84 -17.94,-37.43 -8.55,-9.63 -20.86,-17.19 -36.97,-22.62 -16.16,-5.42 -36.38,-9.58 -60.82,-12.41 -24.43,-2.89 -56.66,-4.83 -96.67,-5.86l0 -56.93 575.97 0 0 56.93c-57.68,2.62 -98.86,6.03 -123.52,10.49 -24.7,4.37 -43.54,11.03 -56.52,19.89 -13.02,8.81 -22.46,21.28 -28.46,37.36 -5.95,16.12 -8.95,42.4 -8.95,78.74l0 632.04c0,20.74 3.67,35.94 10.92,45.61 7.29,9.6 17.94,14.42 31.95,14.42 16.65,0 40.28,-8.56 70.93,-25.71 30.66,-17.19 68.57,-40.82 113.77,-70.94l34.32 59.98 -364.78 217.45 -42.87 0c3.13,-49.86 4.7,-118.96 4.7,-207.3l0 -665.55z"/>
  <path class="fil1" d="M7862.16 11261.56c0,-169.34 -15.76,-293.65 -47.22,-372.89 -31.37,-79.23 -80.11,-118.84 -146.07,-118.84 -62.88,0 -109.51,37.28 -139.9,111.9 -30.39,74.54 -45.56,189.93 -45.56,346.36 0,119.48 7.75,216.28 23.32,290.3 15.62,74.05 37.37,127.17 65.11,159.37 27.8,32.22 61.41,48.34 100.92,48.34 35.85,0 65.83,-10.7 89.95,-31.98 24.22,-21.29 43.73,-51.95 58.54,-91.95 14.77,-39.98 25.29,-88.77 31.51,-146.12 6.26,-57.43 9.4,-122.23 9.4,-194.49zm-180.85 -557.96c112.24,0 195.79,44.16 250.57,132.5 54.87,88.31 82.26,222.33 82.26,402.18 0,95.54 -8.46,178.12 -25.29,247.71 -16.96,69.72 -40.59,127.25 -71.02,172.65 -30.39,45.49 -66.86,79.17 -109.47,100.97 -42.6,21.8 -89.1,32.71 -139.49,32.71 -113.81,0 -198.48,-43.9 -254.06,-131.67 -55.63,-87.88 -83.42,-220.62 -83.42,-398.25 0,-183.9 29.76,-323.07 89.28,-417.33 59.48,-94.33 146.34,-141.47 260.64,-141.47z"/>
  <path class="fil1" d="M6020.22 7097.64c38.09,-455.22 294.79,-774.08 294.79,-774.08l-589.57 0c0,0 256.66,318.86 294.78,774.08z"/>
  <path class="fil1" d="M5469.9 7772.34c365.09,252.29 545.54,516.18 550.23,523.01l0 0.39 0.09 -0.14 0.09 0.14 0 -0.39c4.7,-6.83 185.19,-270.72 550.24,-523.01 370.01,-255.68 454.24,-574.45 321.81,-815.17 -132.33,-240.55 -661.53,-357.85 -872.14,120.11 -210.6,-477.96 -739.89,-360.66 -872.23,-120.11 -132.28,240.72 -48.1,559.49 321.91,815.17z"/>
  <path class="fil1" d="M6020.18 9366.71c-38.04,-455.19 -294.79,-774.07 -294.79,-774.07l589.58 0c0,0 -256.66,318.88 -294.79,774.07z"/>
  <path class="fil1" d="M6570.55 10041.44c-365.14,252.33 -545.54,516.14 -550.24,523.03l0 0.38 -0.13 -0.17 -0.09 0.17 0 -0.38c-4.65,-6.89 -185.1,-270.7 -550.19,-523.03 -370.01,-255.63 -454.24,-574.44 -321.86,-815.11 132.33,-240.62 661.53,-357.88 872.14,120.06 210.65,-477.94 739.9,-360.68 872.23,-120.06 132.38,240.67 48.11,559.48 -321.86,815.11z"/>
  <path class="fil1" d="M6020.22 2983.44c-38.08,455.27 -294.78,774.09 -294.78,774.09l589.57 0c0,0 -256.66,-318.82 -294.79,-774.09z"/>
  <path class="fil1" d="M6570.55 2308.79c-365.14,-252.31 -545.54,-516.22 -550.24,-523.07l0 -0.4 -0.09 0.23 -0.09 -0.23 0 0.4c-4.69,6.85 -185.14,270.76 -550.23,523.07 -370.01,255.59 -454.19,574.4 -321.82,815.08 132.34,240.59 661.54,357.85 872.14,-120.11 210.61,477.96 739.9,360.7 872.23,120.11 132.34,-240.68 48.11,-559.49 -321.9,-815.08z"/>
  <path class="fil1" d="M6020.22 5252.58c-38.08,455.22 -294.78,774.09 -294.78,774.09l589.57 0c0,0 -256.66,-318.87 -294.79,-774.09z"/>
  <path class="fil1" d="M6570.55 4577.89c-365.14,-252.32 -545.54,-516.18 -550.24,-523.07l0 -0.36 -0.09 0.18 -0.09 -0.18 0 0.36c-4.69,6.89 -185.14,270.75 -550.23,523.07 -370.01,255.63 -454.19,574.4 -321.82,815.12 132.34,240.55 661.54,357.8 872.14,-120.11 210.61,477.91 739.9,360.66 872.23,120.11 132.34,-240.72 48.11,-559.49 -321.9,-815.12z"/>
  <path class="fil1" d="M2796.38 7097.64c38.12,-455.22 294.78,-774.08 294.78,-774.08l-589.57 0c0,0 256.66,318.86 294.79,774.08z"/>
  <path class="fil1" d="M2246.05 7772.34c365.14,252.29 545.54,516.18 550.24,523.01l0 0.39 0.09 -0.14 0.13 0.14 0 -0.39c4.65,-6.83 185.1,-270.72 550.23,-523.01 369.93,-255.68 454.2,-574.45 321.82,-815.17 -132.33,-240.55 -661.53,-357.85 -872.18,120.11 -210.61,-477.96 -739.86,-360.66 -872.19,-120.11 -132.38,240.72 -48.11,559.49 321.86,815.17z"/>
  <path class="fil1" d="M2796.38 9366.71c-38.09,-455.19 -294.79,-774.07 -294.79,-774.07l589.53 0c0,0 -256.62,318.88 -294.74,774.07z"/>
  <path class="fil1" d="M3346.74 10041.44c-365.18,252.33 -545.58,516.14 -550.28,523.03l0 0.38 -0.08 -0.17 -0.09 0.17 0 -0.38c-4.75,-6.89 -185.19,-270.7 -550.28,-523.03 -369.93,-255.63 -454.2,-574.44 -321.82,-815.11 132.33,-240.62 661.53,-357.88 872.19,120.06 210.6,-477.94 739.85,-360.68 872.18,-120.06 132.33,240.67 48.11,559.48 -321.82,815.11z"/>
  <path class="fil1" d="M2796.38 2983.44c-38.09,455.27 -294.79,774.09 -294.79,774.09l589.53 0c0,0 -256.62,-318.82 -294.74,-774.09z"/>
  <path class="fil1" d="M3346.74 2308.79c-365.13,-252.31 -545.58,-516.22 -550.28,-523.07l0 -0.4 -0.08 0.23 -0.09 -0.23 0 0.4c-4.7,6.85 -185.15,270.76 -550.24,523.07 -369.97,255.59 -454.24,574.4 -321.86,815.08 132.33,240.59 661.53,357.85 872.19,-120.11 210.6,477.96 739.85,360.7 872.18,120.11 132.38,-240.68 48.11,-559.49 -321.82,-815.08z"/>
  <path class="fil1" d="M2796.38 5252.58c-38.09,455.22 -294.79,774.09 -294.79,774.09l589.53 0c0,0 -256.62,-318.87 -294.74,-774.09z"/>
  <path class="fil1" d="M3346.74 4577.89c-365.13,-252.32 -545.58,-516.18 -550.28,-523.07l0 -0.36 -0.08 0.18 -0.09 -0.18 0 0.36c-4.7,6.89 -185.15,270.75 -550.24,523.07 -369.97,255.63 -454.24,574.4 -321.86,815.12 132.33,240.55 661.53,357.8 872.19,-120.11 210.6,477.91 739.85,360.66 872.18,120.11 132.38,-240.72 48.11,-559.49 -321.82,-815.12z"/>
  <path class="fil1" d="M4408.28 4054.33c-38.09,455.22 -294.74,774.08 -294.74,774.08l589.57 0c0,0 -256.7,-318.86 -294.83,-774.08z"/>
  <path class="fil1" d="M4958.65 3379.64c-365.19,-252.32 -545.54,-516.18 -550.24,-523.07l0 -0.36 -0.13 0.18 -0.09 -0.18 0 0.36c-4.7,6.89 -185.14,270.75 -550.19,523.07 -370.02,255.62 -454.24,574.44 -321.86,815.12 132.33,240.55 661.53,357.84 872.14,-120.12 210.65,477.96 739.89,360.67 872.23,120.12 132.29,-240.68 48.06,-559.5 -321.86,-815.12z"/>
  <path class="fil1" d="M4408.28 8131.06c-38.09,-455.17 -294.74,-774.07 -294.74,-774.07l589.57 0c0,0 -256.7,318.9 -294.83,774.07z"/>
  <path class="fil1" d="M4958.65 8805.8c-365.19,252.31 -545.54,516.17 -550.24,523.06l0 0.35 -0.13 -0.17 -0.09 0.17 0 -0.35c-4.7,-6.89 -185.14,-270.75 -550.19,-523.06 -370.02,-255.64 -454.24,-574.43 -321.86,-815.13 132.33,-240.58 661.53,-357.83 872.14,120.11 210.65,-477.94 739.89,-360.69 872.23,-120.11 132.29,240.7 48.06,559.49 -321.86,815.13z"/>
 </g>
</svg>
