<?xml version="1.0" encoding="UTF-8"?>
<!DOCTYPE svg PUBLIC "-//W3C//DTD SVG 1.1//EN" "http://www.w3.org/Graphics/SVG/1.1/DTD/svg11.dtd">
<!-- Creator: CorelDRAW -->
<svg xmlns="http://www.w3.org/2000/svg" xml:space="preserve" width="100%" height="100%" version="1.1" style="shape-rendering:geometricPrecision; text-rendering:geometricPrecision; image-rendering:optimizeQuality; fill-rule:evenodd; clip-rule:evenodd"
viewBox="0 0 8815.86 12342.87"
 xmlns:xlink="http://www.w3.org/1999/xlink"
 xmlns:xodm="http://www.corel.com/coreldraw/odm/2003">
 <defs>
  <style type="text/css">
   <![CDATA[
    .fil0 {fill:#FEFEFE;fill-rule:nonzero}
    .fil1 {fill:#252422;fill-rule:nonzero}
   ]]>
  </style>
   <clipPath id="id0">
    <path d="M8474.58 12342.14l-3900.2 0 -332.73 0 -3882.7 0c0,0 0,0 0,0l3882.7 0 332.73 0 3900.2 0c0,0 100.07,-1.62 192.64,-76.32 -92.57,74.7 -192.64,76.32 -192.64,76.32zm-17.51 -17.86l-3905.21 0 -332.73 0 -3905.21 0c0,0 -32.52,0 -77.55,-14.62 -97.57,-47.09 -217.65,-159.14 -217.65,-427.09l0 0 0 -3074.11 0 -2145.21c1726.2,0 3452.39,0 5178.59,-1.63 1200.83,0 2401.67,0 3600,0l0 2128.98 0 3074.11 0 0c0,451.45 -340.24,459.57 -340.24,459.57l0 0z"/>
   </clipPath>
   <clipPath id="id1">
    <path d="M8639.7 6161.61c-2138.98,0 -4275.47,0 -6414.45,-1.75 -735.51,0 -1471.02,0 -2206.53,-1.76l0 -2605.43 0 -3073.57c0,-450.61 340.23,-459.37 340.23,-459.37l3905.21 0 332.73 0 3905.21 0c0,0 32.53,0 77.56,15.78 97.57,47.34 217.65,157.8 217.65,426.05l0 0 0 3073.58 0 2626.47c-52.54,0 -105.07,0 -157.61,0l0 0z"/>
   </clipPath>
   <clipPath id="id2">
    <path d="M8667.09 12264.46c77.42,-62.84 148.65,-174.56 148.65,-384.03l0 -5219.29 0 0 0 -499.24 0 0 0 -5701.07 0 0c0,-450.36 -341.16,-460.83 -341.16,-460.83l-17.43 0c-0.58,0 -0.82,0 -0.82,0l18.25 0c0,0 341.28,10.47 341.28,460.83l0 3079.21 0 5264.68 0 3075.71c0,209.47 -71.35,321.19 -148.77,384.03l0 0z"/>
   </clipPath>
   <clipPath id="id3">
    <path d="M8797.9 6661.61l0 -499.79 17.82 0 0 499.79 -17.82 0 0 0z"/>
   </clipPath>
   <clipPath id="id4">
    <path d="M8473.47 12342.14l-3899.22 0 -332.47 0 -3882.11 0c-7.34,0 -61.12,-3.24 -124.68,-32.48 46.45,14.62 80.67,14.62 80.67,14.62l3904.12 0 332.47 0 3904.11 0c0,0 342.25,-8.12 342.25,-459.57l0 0 0 0 0 -3074.11 0 -2128.98c4.89,0 12.22,0 17.11,0l0 2141.97 0 3078.98c0,206.24 -70.89,319.91 -149.12,383.25 -90.45,74.7 -193.13,76.32 -193.13,76.32l0 0z"/>
   </clipPath>
   <clipPath id="id5">
    <path d="M8797.84 6161.54l0 -2625.28 0 -3075.44 0 0c0,-267.27 -119.88,-378.05 -217.65,-425.53 22.22,7.04 47.48,17.59 73.21,33.41l0 0 0 0 0 0c-87.95,-65.06 -178.82,-66.82 -178.82,-66.82l-17.43 0 0 0 17.43 0c0,0 341.16,8.79 341.16,460.7l0 3077.19 0 2621.77c-5.97,0 -11.93,0 -17.9,0l0 0z"/>
   </clipPath>
   <clipPath id="id6">
    <path d="M17.97 6664.01l0 -505.39 0.17 0 0 505.39 -0.17 0 0 0z"/>
   </clipPath>
   <clipPath id="id7">
    <path d="M359.65 12342.14l-18.13 0c0,0 -341.16,-8.12 -341.16,-459.57l0 -349.15c5.73,-21.11 11.58,-42.22 17.54,-63.33l0 -2679.49 0 -2127.35 0.24 0 0 2145.21 0 3074.11 0 0c0,267.95 119.88,380 217.54,427.09 -22.11,-8.12 -47.26,-17.86 -73.1,-34.1l0 0c87.95,64.96 178.94,66.58 178.94,66.58l17.31 0c0.58,0 0.82,0 0.82,0l0 0z"/>
   </clipPath>
   <clipPath id="id8">
    <path d="M17.44 6158.02c0,0 0,0 0,0l0 -5072.97c-4.9,-63.3 -12.24,-126.6 -17.14,-189.9l0 -432.57c0,-451.91 340.51,-460.7 340.51,-460.7l3899.96 0 333.17 0 3882.82 0c7.34,0 61.24,3.52 122.48,33.41 -44.09,-15.82 -78.39,-15.82 -78.39,-15.82l-3904.87 0 -330.71 0 -3904.86 0c0,0 -342.97,8.79 -342.97,460.7l0 3073.67 0 2604.18 0 0z"/>
   </clipPath>
   <clipPath id="id9">
    <path d="M358.81 12342.82l-17.34 0c0,0 -90.89,-2.65 -178.89,-67.18 25.77,15.42 50.94,26.04 73.17,33.38 62.53,30.01 115.9,33.44 123.06,33.8l0 0z"/>
   </clipPath>
   <clipPath id="id10">
    <path d="M8653.45 68.38c-25.76,-15.45 -51.01,-26.04 -73.31,-33.34 -62.46,-30.02 -115.76,-33.49 -122.99,-33.78l17.42 0c0,0 90.88,2.59 178.88,67.12l0 0z"/>
   </clipPath>
   <clipPath id="id11">
    <path d="M-0 11533.49l0 -10642.01c0.14,3.03 0.19,3.03 0.31,3.03l0 2646.09 0 5261.84 0 2731.05c-0.12,0 -0.17,0 -0.31,0l0 0z"/>
   </clipPath>
   <clipPath id="id12">
    <path d="M0.32 6664.01l0 -505.39 17.65 0 0 505.39 -17.65 0 0 0z"/>
   </clipPath>
   <clipPath id="id13">
    <path d="M0.32 11533.55l0 -2730.57 0 -2139.15c5.91,0 11.69,0 17.65,0l0 2126.57 -0.11 2680.24c-5.95,20.97 -11.73,41.94 -17.54,62.91l0 0z"/>
   </clipPath>
   <clipPath id="id14">
    <path d="M17.97 6159c-5.92,0 -11.78,0 -17.65,0l0 -2618.75 0 -2644.4c5.69,63.35 11.59,126.71 17.65,190.07l0 5073.08 0 0z"/>
   </clipPath>
 </defs>
 <g id="Layer_x0020_1">
  <metadata id="CorelCorpID_0Corel-Layer"/>
  <path class="fil0" d="M8474.56 1.25l-8133.04 0c0,0 -341.2,9.26 -341.2,460.9l0 11419.82c0,451.55 341.2,460.9 341.2,460.9l8133.04 0c0,0 341.15,-9.35 341.15,-460.9l0 -11419.82c0,-451.64 -341.15,-460.9 -341.15,-460.9z"/>
  <g style="clip-path:url(#id0)">
   <image x="-6.3" y="6637.26" width="8826.12" height="5729.24" xlink:href="2_Images\2_ImgID1.png"/>
  </g>
  <g style="clip-path:url(#id1)">
   <image x="-6.3" y="0.44" width="8826.12" height="6185.72" xlink:href="2_Images\2_ImgID2.png"/>
  </g>
  <g style="clip-path:url(#id2)">
   <image x="8425.11" y="-17.46" width="412.62" height="12316.83" xlink:href="2_Images\2_ImgID3.png"/>
  </g>
  <g style="clip-path:url(#id3)">
   <image x="8765.23" y="6127.08" width="72.5" height="564.78" xlink:href="2_Images\2_ImgID4.png"/>
  </g>
  <g style="clip-path:url(#id4)">
   <image x="212.99" y="6637.26" width="8624.74" height="5729.24" xlink:href="2_Images\2_ImgID5.png"/>
  </g>
  <g style="clip-path:url(#id5)">
   <image x="8425.11" y="-17.46" width="412.62" height="6203.62" xlink:href="2_Images\2_ImgID6.png"/>
  </g>
  <g style="clip-path:url(#id6)">
   <image x="-6.3" y="6127.08" width="54.6" height="564.78" xlink:href="2_Images\2_ImgID7.png"/>
  </g>
  <g style="clip-path:url(#id7)">
   <image x="-24.2" y="6637.26" width="412.62" height="5729.24" xlink:href="2_Images\2_ImgID8.png"/>
  </g>
  <g style="clip-path:url(#id8)">
   <image x="-24.2" y="-17.46" width="8642.64" height="6203.62" xlink:href="2_Images\2_ImgID9.png"/>
  </g>
  <g style="clip-path:url(#id9)">
   <image x="127.96" y="12240.3" width="260.46" height="126.2" xlink:href="2_Images\2_ImgID10.png"/>
  </g>
  <g style="clip-path:url(#id10)">
   <image x="8425.11" y="-17.46" width="260.46" height="103.83" xlink:href="2_Images\2_ImgID11.png"/>
  </g>
  <g style="clip-path:url(#id11)">
   <image x="-24.2" y="864.17" width="54.6" height="10705.74" xlink:href="2_Images\2_ImgID12.png"/>
  </g>
  <g style="clip-path:url(#id12)">
   <image x="-24.2" y="6127.08" width="72.5" height="564.78" xlink:href="2_Images\2_ImgID13.png"/>
  </g>
  <g style="clip-path:url(#id13)">
   <image x="-24.2" y="6637.26" width="72.5" height="4932.64" xlink:href="2_Images\2_ImgID14.png"/>
  </g>
  <g style="clip-path:url(#id14)">
   <image x="-24.2" y="864.17" width="72.5" height="5321.99" xlink:href="2_Images\2_ImgID15.png"/>
  </g>
  <path class="fil1" d="M637.65 2371.04c-19.2,229.35 -148.54,390.06 -148.54,390.06l297.03 0c0,0 -129.34,-160.71 -148.49,-390.06z"/>
  <path class="fil1" d="M914.93 2031.05c-183.97,-127.14 -274.87,-260.06 -277.28,-263.55l0 -0.13 0 0.04 -0.09 -0.04 0 0.13c-2.33,3.49 -93.22,136.41 -277.2,263.55 -186.44,128.8 -228.87,289.46 -162.18,410.69 66.72,121.24 333.31,180.36 439.47,-60.46 106.1,240.82 372.74,181.7 439.42,60.46 66.68,-121.23 24.3,-281.89 -162.14,-410.69z"/>
  <path class="fil1" d="M756.87 1482.2c25.46,0 46,-1.56 61.58,-4.7 15.57,-3.08 28.01,-8.23 37.37,-15.57 9.39,-7.3 16.82,-16.74 22.24,-28.42 5.46,-11.72 12.35,-29.76 20.63,-54.19l66.23 0 -13.2 227.56 -641.39 0 0 -37.41c22.33,-54.51 52.45,-110.36 90.35,-167.55 37.95,-57.15 91.74,-124.42 161.38,-201.84 60.24,-66.55 103.65,-116.89 130.1,-151.17 29.13,-37.42 50.79,-69.77 65.11,-97.03 14.23,-27.25 24.52,-52.98 30.79,-77.2 6.22,-24.12 9.35,-48.42 9.35,-72.85 0,-38.94 -6.26,-73.4 -18.75,-103.29 -12.44,-29.85 -31.5,-53.35 -57.24,-70.49 -25.73,-17.18 -58.09,-25.73 -97.02,-25.73 -97.16,0 -162.68,54.02 -196.38,162.14l-94.29 0 0 -149.65c62.83,-29.68 121.64,-51.07 176.51,-64.31 54.77,-13.25 104,-19.83 147.68,-19.83 96.62,0 169.61,21.12 218.97,63.5 49.37,42.34 74.03,103.74 74.03,184.3 0,27.52 -2.69,52.89 -8.19,75.99 -5.46,23.13 -14.01,45.96 -25.69,68.56 -11.68,22.64 -27.44,46.85 -47.17,72.9 -19.74,25.96 -41.58,52.36 -65.48,79.03 -23.85,26.81 -65.2,71.38 -123.87,133.72 -98.77,104.41 -171.22,195.62 -217.5,273.53l293.85 0z"/>
  <path class="fil1" d="M8086.78 9951.47c19.19,-229.36 148.48,-390.02 148.48,-390.02l-297.02 0c0,0 129.34,160.66 148.54,390.02z"/>
  <path class="fil1" d="M7809.44 10291.45c183.98,127.15 274.87,260.06 277.29,263.55l0 0.14 0.05 -0.05 0.04 0.05 0 -0.14c2.37,-3.49 93.26,-136.4 277.24,-263.55 186.4,-128.75 228.82,-289.46 162.19,-410.69 -66.68,-121.28 -333.37,-180.31 -439.47,60.5 -106.11,-240.81 -372.79,-181.78 -439.48,-60.5 -66.68,121.23 -24.25,281.94 162.14,410.69z"/>
  <path class="fil1" d="M7967.55 10840.3c-25.5,0 -46,1.61 -61.58,4.7 -15.61,3.09 -28.06,8.28 -37.41,15.57 -9.35,7.3 -16.78,16.79 -22.2,28.47 -5.46,11.68 -12.35,29.76 -20.67,54.1l-66.24 0 13.25 -227.52 641.4 0 0 37.41c-22.34,54.51 -52.5,110.36 -90.36,167.56 -37.95,57.19 -91.74,124.41 -161.42,201.83 -60.24,66.55 -103.65,116.9 -130.1,151.18 -29.04,37.46 -50.79,69.77 -65.07,97.07 -14.27,27.29 -24.57,52.98 -30.79,77.15 -6.22,24.12 -9.35,48.42 -9.35,72.86 0,38.98 6.22,73.39 18.7,103.29 12.49,29.89 31.51,53.39 57.29,70.53 25.69,17.14 58.04,25.68 96.98,25.68 97.2,0 162.67,-54.01 196.42,-162.13l94.29 0 0 149.65c-62.88,29.67 -121.73,51.11 -176.5,64.35 -54.83,13.2 -104.05,19.83 -147.69,19.83 -96.62,0 -169.66,-21.17 -219.02,-63.51 -49.31,-42.33 -74.02,-103.78 -74.02,-184.33 0,-27.48 2.73,-52.9 8.24,-75.99 5.41,-23.09 14,-45.96 25.68,-68.56 11.68,-22.6 27.39,-46.9 47.17,-72.91 19.69,-25.95 41.53,-52.31 65.43,-79.03 23.86,-26.76 65.25,-71.33 123.88,-133.72 98.81,-104.36 171.27,-195.61 217.5,-273.53l-293.81 0z"/>
  <path class="fil1" d="M4374.81 3022.23c-38.04,455.23 -294.74,774.09 -294.74,774.09l589.52 0c0,0 -256.61,-318.86 -294.78,-774.09z"/>
  <path class="fil1" d="M4925.18 2347.54c-365.1,-252.32 -545.49,-516.18 -550.24,-523.07l0 -0.36 -0.13 0.18 -0.05 -0.18 0 0.36c-4.7,6.89 -185.14,270.75 -550.23,523.07 -370.02,255.63 -454.24,574.45 -321.86,815.13 132.33,240.54 661.53,357.84 872.14,-120.12 210.65,477.96 739.94,360.66 872.27,120.12 132.34,-240.68 48.07,-559.5 -321.9,-815.13z"/>
  <path class="fil1" d="M4374.81 9405.49c-38.04,-455.18 -294.74,-774.05 -294.74,-774.05l589.52 0c0,0 -256.61,318.87 -294.78,774.05z"/>
  <path class="fil1" d="M4925.18 10080.22c-365.1,252.32 -545.49,516.18 -550.24,523.07l0 0.31 -0.13 -0.17 -0.05 0.17 0 -0.31c-4.7,-6.89 -185.14,-270.75 -550.23,-523.07 -370.02,-255.63 -454.24,-574.44 -321.86,-815.12 132.33,-240.59 661.53,-357.85 872.14,120.11 210.65,-477.96 739.94,-360.7 872.27,-120.11 132.34,240.68 48.07,559.49 -321.9,815.12z"/>
 </g>
</svg>
