<?xml version="1.0" encoding="UTF-8"?>
<!DOCTYPE svg PUBLIC "-//W3C//DTD SVG 1.1//EN" "http://www.w3.org/Graphics/SVG/1.1/DTD/svg11.dtd">
<!-- Creator: CorelDRAW -->
<svg xmlns="http://www.w3.org/2000/svg" xml:space="preserve" width="100%" height="100%" version="1.1" style="shape-rendering:geometricPrecision; text-rendering:geometricPrecision; image-rendering:optimizeQuality; fill-rule:evenodd; clip-rule:evenodd"
viewBox="0 0 8815.7 12342.87"
 xmlns:xlink="http://www.w3.org/1999/xlink"
 xmlns:xodm="http://www.corel.com/coreldraw/odm/2003">
 <defs>
  <style type="text/css">
   <![CDATA[
    .fil0 {fill:#FEFEFE;fill-rule:nonzero}
    .fil1 {fill:#252422;fill-rule:nonzero}
   ]]>
  </style>
   <clipPath id="id0">
    <path d="M8475.49 12342.14l-3900.6 0 -333.4 0 -3883.05 0c0,0 0,0 0,0l3883.05 0 333.4 0 3900.6 0c0,0 100.27,-1.62 190.51,-76.32 -90.24,74.7 -190.51,76.32 -190.51,76.32zm-20.06 -17.86l-3903.1 0 -333.41 0 -3903.1 0c0,0 -35.09,0 -80.22,-14.62 -97.76,-47.09 -218.09,-159.14 -218.09,-427.09l0 0 0 -3074.11 0 -2145.21c1727.19,0 3454.38,0 5181.58,-1.63 1198.25,0 2399.01,0 3599.78,0l0 2128.98 0 3074.11 0 0c0,451.45 -343.44,459.57 -343.44,459.57l0 0z"/>
   </clipPath>
   <clipPath id="id1">
    <path d="M8640.94 6161.61c-2138.31,0 -4276.62,0 -6414.93,-1.75 -737,0 -1471.5,0 -2208.5,-1.76l0 -2605.43 0 -3073.57c0,-450.61 340.93,-459.37 340.93,-459.37l3905.61 0 333.4 0 3903.11 0c0,0 32.58,0 80.21,15.78 97.77,47.34 218.1,157.8 218.1,426.05l0 0 0 3073.58 0 2626.47c-52.65,0 -105.29,0 -157.93,0l0 0z"/>
   </clipPath>
   <clipPath id="id2">
    <path d="M8667.27 12264.46c77.19,-62.84 148.41,-174.56 148.41,-384.03l0 -5219.29 0 0 0 -499.24 0 0 0 -5701.07 0 0c0,-450.36 -341.04,-460.83 -341.04,-460.83l-17.31 0c-0.81,0 -1.05,0 -1.05,0l18.36 0c0,0 341.04,10.47 341.04,460.83l0 3079.21 0 5264.68 0 3075.71c0,209.47 -71.22,321.19 -148.41,384.03l0 0z"/>
   </clipPath>
   <clipPath id="id3">
    <path d="M8798.06 6661.61l0 -499.79 17.63 0 0 499.79 -17.63 0 0 0z"/>
   </clipPath>
   <clipPath id="id4">
    <path d="M8474.43 12342.14l-3899.96 0 -333.17 0 -3882.81 0c-7.35,0 -61.25,-3.24 -122.49,-32.48 46.54,14.62 78.39,14.62 78.39,14.62l3904.87 0 333.16 0 3904.86 0c0,0 340.52,-8.12 340.52,-459.57l0 0 0 0 0 -3074.11 0 -2128.98c4.9,0 12.25,0 17.14,0l0 2141.97 0 3078.98c0,206.24 -71.04,319.91 -146.98,383.25 -93.09,74.7 -193.53,76.32 -193.53,76.32l0 0z"/>
   </clipPath>
   <clipPath id="id5">
    <path d="M8798.02 6161.54l0 -2625.28 0 -3075.44 0 0c0,-267.27 -120.23,-378.05 -218,-425.53 22.22,7.04 47.72,17.59 73.45,33.41l0 0 0 0 0 0c-87.84,-65.06 -178.83,-66.82 -178.83,-66.82l-17.31 0 0 0 17.31 0c0,0 341.04,8.79 341.04,460.7l0 3077.19 0 2621.77c-5.96,0 -11.93,0 -17.66,0l0 0z"/>
   </clipPath>
   <clipPath id="id6">
    <path d="M17.9 6664.01l0 -505.39 0.23 0 0 505.39 -0.23 0 0 0z"/>
   </clipPath>
   <clipPath id="id7">
    <path d="M359.65 12342.14l-18.19 0c0,0 -341.19,-8.12 -341.19,-459.57l0 -349.15c5.86,-21.11 11.71,-42.22 17.57,-63.33l0 -2679.49 0 -2127.35c0.12,0 0.25,0 0.25,0l0 2145.21 0 3074.11 0 0c0,267.95 119.95,380 217.7,427.09 -22.21,-8.12 -47.35,-17.86 -73.1,-34.1l0 0c87.86,64.96 178.77,66.58 178.77,66.58l17.45 0c0.49,0 0.74,0 0.74,0l0 0z"/>
   </clipPath>
   <clipPath id="id8">
    <path d="M18.41 6158.02c0,0 0,0 0,0l0 -5072.97c-7.35,-61.54 -12.25,-124.84 -17.15,-188.14l0 -434.33c0,-451.91 340.51,-460.7 340.51,-460.7l3899.97 0 333.16 0 3882.82 0c7.35,0 58.79,3.52 122.49,33.41 -46.55,-15.82 -78.4,-15.82 -78.4,-15.82l-3904.86 0 -333.16 0 -3904.87 0c0,0 -340.51,8.79 -340.51,460.7l0 3073.67 0 2604.18 0 0z"/>
   </clipPath>
   <clipPath id="id9">
    <path d="M358.86 12342.82l-17.35 0c0,0 -90.95,-2.65 -178.81,-67.18 25.69,15.42 50.87,26.04 73.09,33.38 62.46,30.01 115.91,33.44 123.07,33.8l0 0z"/>
   </clipPath>
   <clipPath id="id10">
    <path d="M8653.45 68.38c-25.79,-15.45 -51.16,-26.1 -73.43,-33.4 -62.43,-29.96 -115.64,-33.43 -122.72,-33.72l17.32 0c0,0 90.96,2.59 178.83,67.12l0 0z"/>
   </clipPath>
   <clipPath id="id11">
    <path d="M-0 11533.49l0 -10642.01c0.09,3.03 0.19,3.03 0.26,6.07l0.07 2643.05 0 5261.84 0 2731.05c-0.1,0 -0.19,0 -0.33,0l0 0z"/>
   </clipPath>
   <clipPath id="id12">
    <path d="M0.31 6664.01l0 -505.39 17.59 0 0 505.39 -17.59 0 0 0z"/>
   </clipPath>
   <clipPath id="id13">
    <path d="M0.31 11533.55l0 -2730.57 0 -2139.15c5.82,0 11.82,0 17.59,0l0 2126.57 -0.04 2680.24c-5.92,20.97 -11.67,41.94 -17.55,62.91l0 0z"/>
   </clipPath>
   <clipPath id="id14">
    <path d="M17.9 6159c-5.85,0 -11.71,0 -17.59,0l0 -2618.75 -0.04 -2644.4c5.78,63.35 11.67,126.71 17.63,190.07l0 5073.08 0 0z"/>
   </clipPath>
 </defs>
 <g id="Layer_x0020_1">
  <metadata id="CorelCorpID_0Corel-Layer"/>
  <path class="fil0" d="M8474.59 1.25l-8133.08 0c0,0 -341.24,9.26 -341.24,460.9l0.05 3078.45 0 8341.37c0,451.55 341.19,460.9 341.19,460.9l8133.08 0c0,0 341.11,-9.35 341.11,-460.9l0 -11419.82c0,-451.64 -341.11,-460.9 -341.11,-460.9z"/>
  <g style="clip-path:url(#id0)">
   <image x="-17.58" y="6637.26" width="8844.03" height="5729.24" xlink:href="4_Images\4_ImgID1.png"/>
  </g>
  <g style="clip-path:url(#id1)">
   <image x="-17.58" y="0.44" width="8844.03" height="6185.72" xlink:href="4_Images\4_ImgID2.png"/>
  </g>
  <g style="clip-path:url(#id2)">
   <image x="8431.72" y="-17.46" width="412.62" height="12316.83" xlink:href="4_Images\4_ImgID3.png"/>
  </g>
  <g style="clip-path:url(#id3)">
   <image x="8771.84" y="6127.08" width="72.5" height="564.78" xlink:href="4_Images\4_ImgID4.png"/>
  </g>
  <g style="clip-path:url(#id4)">
   <image x="201.7" y="6637.26" width="8642.64" height="5729.24" xlink:href="4_Images\4_ImgID5.png"/>
  </g>
  <g style="clip-path:url(#id5)">
   <image x="8431.72" y="-17.46" width="412.62" height="6203.62" xlink:href="4_Images\4_ImgID6.png"/>
  </g>
  <g style="clip-path:url(#id6)">
   <image x="-17.58" y="6127.08" width="54.6" height="564.78" xlink:href="4_Images\4_ImgID7.png"/>
  </g>
  <g style="clip-path:url(#id7)">
   <image x="-35.49" y="6637.26" width="430.52" height="5729.24" xlink:href="4_Images\4_ImgID8.png"/>
  </g>
  <g style="clip-path:url(#id8)">
   <image x="-35.49" y="-17.46" width="8642.64" height="6203.62" xlink:href="4_Images\4_ImgID9.png"/>
  </g>
  <g style="clip-path:url(#id9)">
   <image x="134.57" y="12240.3" width="260.46" height="126.2" xlink:href="4_Images\4_ImgID10.png"/>
  </g>
  <g style="clip-path:url(#id10)">
   <image x="8431.72" y="-17.46" width="242.56" height="103.83" xlink:href="4_Images\4_ImgID11.png"/>
  </g>
  <g style="clip-path:url(#id11)">
   <image x="-35.49" y="864.17" width="54.6" height="10705.74" xlink:href="4_Images\4_ImgID12.png"/>
  </g>
  <g style="clip-path:url(#id12)">
   <image x="-35.49" y="6127.08" width="72.5" height="564.78" xlink:href="4_Images\4_ImgID13.png"/>
  </g>
  <g style="clip-path:url(#id13)">
   <image x="-35.49" y="6637.26" width="72.5" height="4932.64" xlink:href="4_Images\4_ImgID14.png"/>
  </g>
  <g style="clip-path:url(#id14)">
   <image x="-35.49" y="864.17" width="72.5" height="5321.99" xlink:href="4_Images\4_ImgID15.png"/>
  </g>
  <path class="fil1" d="M648.29 2371.04c-19.2,229.35 -148.53,390.06 -148.53,390.06l297.02 0c0,0 -129.34,-160.71 -148.49,-390.06z"/>
  <path class="fil1" d="M925.53 2031.05c-183.93,-127.14 -274.82,-260.06 -277.2,-263.55l0 -0.13 -0.08 0.04 0 -0.04 0 0.13c-2.38,3.49 -93.31,136.41 -277.25,263.55 -186.44,128.8 -228.86,289.46 -162.18,410.69 66.68,121.24 333.27,180.36 439.43,-60.46 106.15,240.82 372.79,181.7 439.47,60.46 66.72,-121.23 24.25,-281.89 -162.19,-410.69z"/>
  <path class="fil1" d="M394.99 1201.65l304.72 0 0 -194.05c0,-48.83 0.76,-103.51 2.33,-164.02 1.56,-60.55 3.4,-106.11 5.46,-136.81l-7.79 0 -304.72 484 0 10.88zm213.52 360.08c32.26,-8.33 53.79,-17.55 64.71,-27.66 10.92,-10.11 18.08,-24.52 21.43,-43.28 3.36,-18.66 5.06,-47.25 5.06,-85.74l0 -127.77 -433.29 0 0 -58.49 455.89 -688.12 111.44 0 0 670.98 16.37 0c30.12,0 51.69,-2.2 64.72,-6.58 12.93,-4.43 23.72,-12.22 32.31,-23.41 8.59,-11.18 16.47,-29.49 23.72,-54.95l59.29 0 -9.35 160.57 -187.06 0 0 127.77c0,34.86 1.16,60.33 3.49,76.35 2.37,16.15 6.22,28.91 11.72,38.26 5.46,9.31 13.47,17.14 24.17,23.36 10.6,6.22 27.92,12.49 51.78,18.71l0 38.17 -316.4 0 0 -38.17z"/>
  <path class="fil1" d="M8101.67 9951.47c19.42,-229.36 148.53,-390.02 148.53,-390.02l-297.06 0c0,0 129.47,160.66 148.53,390.02z"/>
  <path class="fil1" d="M7824.38 10291.45c184.16,127.15 274.83,260.06 277.29,263.55l0 0.14 0.36 -0.05 0 0.05 0 -0.14c2.1,-3.49 93.13,-136.4 276.93,-263.55 186.62,-128.75 228.95,-289.46 162.32,-410.69 -66.69,-121.28 -333.41,-180.31 -439.25,60.5 -106.2,-240.81 -372.88,-181.78 -439.56,-60.5 -66.68,121.23 -24.35,281.94 161.91,410.69z"/>
  <path class="fil1" d="M8354.97 11120.86l-304.45 0 0 194.04c0,48.87 -1.08,103.52 -2.46,164.02 -1.75,60.55 -3.54,106.11 -5.64,136.81l8.1 0 304.45 -483.95 0 -10.92zm-213.42 -360.04c-32.09,8.28 -53.98,17.5 -64.58,27.66 -10.92,10.11 -18.31,24.57 -21.53,43.23 -3.49,18.66 -4.92,47.35 -4.92,85.79l0 127.72 433.2 0 0 58.5 -455.76 688.16 -111.48 0 0 -671.02 -16.6 0c-29.98,0 -51.51,2.23 -64.53,6.57 -13.07,4.48 -23.99,12.22 -32.49,23.46 -8.46,11.14 -16.56,29.44 -23.59,54.86l-59.3 0 9.18 -160.53 187.33 0 0 -127.72c0,-34.91 -1.43,-60.33 -3.53,-76.44 -2.46,-16.11 -6.36,-28.86 -12,-38.17 -5.28,-9.36 -13.42,-17.19 -23.98,-23.41 -10.61,-6.22 -27.88,-12.44 -51.87,-18.66l0 -38.22 316.45 0 0 38.22z"/>
  <path class="fil1" d="M2773.95 2980.39c-38.13,455.18 -294.78,774.04 -294.78,774.04l589.52 0c0,0 -256.65,-318.86 -294.74,-774.04z"/>
  <path class="fil1" d="M3324.23 2305.65c-365.09,-252.31 -545.49,-516.18 -550.19,-523.07l0 -0.31 -0.09 0.18 -0.13 -0.18 0 0.31c-4.7,6.89 -185.14,270.76 -550.19,523.07 -370.02,255.63 -454.24,574.45 -321.86,815.13 132.33,240.54 661.53,357.88 872.18,-120.07 210.61,477.95 739.85,360.61 872.14,120.07 132.38,-240.68 48.2,-559.5 -321.86,-815.13z"/>
  <path class="fil1" d="M2773.95 9363.64c-38.13,-455.22 -294.78,-774.09 -294.78,-774.09l589.52 0c0,0 -256.65,318.87 -294.74,774.09z"/>
  <path class="fil1" d="M3324.23 10038.33c-365.09,252.32 -545.49,516.18 -550.19,523.07l0 0.41 -0.09 -0.18 -0.13 0.18 0 -0.41c-4.7,-6.89 -185.14,-270.75 -550.19,-523.07 -370.02,-255.58 -454.24,-574.44 -321.86,-815.12 132.33,-240.55 661.53,-357.84 872.18,120.11 210.61,-477.95 739.85,-360.66 872.14,-120.11 132.38,240.68 48.2,559.54 -321.86,815.12z"/>
  <path class="fil1" d="M6030.7 2980.39c-38.09,455.18 -294.79,774.04 -294.79,774.04l589.57 0c0,0 -256.7,-318.86 -294.78,-774.04z"/>
  <path class="fil1" d="M6581.06 2305.65c-365.13,-252.31 -545.58,-516.18 -550.28,-523.07l0 -0.31 -0.08 0.18 -0.09 -0.18 0 0.31c-4.7,6.89 -185.15,270.76 -550.19,523.07 -370.02,255.63 -454.24,574.45 -321.91,815.13 132.38,240.54 661.58,357.88 872.19,-120.07 210.6,477.95 739.85,360.61 872.23,120.07 132.33,-240.68 48.01,-559.5 -321.87,-815.13z"/>
  <path class="fil1" d="M6030.7 9363.64c-38.09,-455.22 -294.79,-774.09 -294.79,-774.09l589.57 0c0,0 -256.7,318.87 -294.78,774.09z"/>
  <path class="fil1" d="M6581.06 10038.33c-365.13,252.32 -545.58,516.18 -550.28,523.07l0 0.41 -0.08 -0.18 -0.09 0.18 0 -0.41c-4.7,-6.89 -185.15,-270.75 -550.19,-523.07 -370.02,-255.58 -454.24,-574.44 -321.91,-815.12 132.38,-240.55 661.58,-357.84 872.19,120.11 210.6,-477.95 739.85,-360.66 872.23,-120.11 132.33,240.68 48.01,559.54 -321.87,815.12z"/>
 </g>
</svg>
