<?xml version="1.0" encoding="UTF-8"?>
<!DOCTYPE svg PUBLIC "-//W3C//DTD SVG 1.1//EN" "http://www.w3.org/Graphics/SVG/1.1/DTD/svg11.dtd">
<!-- Creator: CorelDRAW -->
<svg xmlns="http://www.w3.org/2000/svg" xml:space="preserve" width="100%" height="100%" version="1.1" style="shape-rendering:geometricPrecision; text-rendering:geometricPrecision; image-rendering:optimizeQuality; fill-rule:evenodd; clip-rule:evenodd"
viewBox="0 0 8815.88 12342.87"
 xmlns:xlink="http://www.w3.org/1999/xlink"
 xmlns:xodm="http://www.corel.com/coreldraw/odm/2003">
 <defs>
  <style type="text/css">
   <![CDATA[
    .fil0 {fill:#FEFEFE;fill-rule:nonzero}
    .fil1 {fill:#252422;fill-rule:nonzero}
   ]]>
  </style>
   <clipPath id="id0">
    <path d="M8475.55 12342.14l-3900.2 0 -332.73 0 -3882.7 0c0,0 0,0 0,0l3882.7 0 332.73 0 3900.2 0c0,0 100.07,-1.62 190.14,-76.32 -90.07,74.7 -190.14,76.32 -190.14,76.32zm-20.01 -17.86l-3902.71 0 -332.73 0 -3905.21 0c0,0 -32.52,0 -80.05,-14.62 -97.57,-47.09 -217.66,-159.14 -217.66,-427.09l0 0 0 -3074.11 0 -2145.21c1728.7,0 3454.9,0 5181.1,-1.63 1200.83,0 2399.16,0 3600,0l0 2128.98 0 3074.11 0 0c0,451.45 -342.74,459.57 -342.74,459.57l0 0z"/>
   </clipPath>
   <clipPath id="id1">
    <path d="M8640.67 6161.61c-2138.99,0 -4277.97,0 -6414.45,-1.75 -735.51,0 -1471.02,0 -2209.04,-1.76l0 -2605.43 0 -3073.57c0,-450.61 342.74,-459.37 342.74,-459.37l3905.21 0 330.23 0 3905.21 0c0,0 35.02,0 80.06,15.78 97.56,47.34 217.65,157.8 217.65,426.05l0 0 0 3073.58 0 2626.47c-52.54,0 -105.08,0 -157.61,0l0 0z"/>
   </clipPath>
   <clipPath id="id2">
    <path d="M8666.88 12264.46c77.43,-62.84 148.54,-174.56 148.54,-384.03l0 -5219.29 0 0 0 -499.24 0 0 0 -5701.07 0 0c0,-450.36 -341.04,-460.83 -341.04,-460.83l-17.43 0c-0.47,0 -0.47,0 -0.47,0l17.9 0c0,0 341.5,10.47 341.5,460.83l0 3079.21 0 5264.68 0 3075.71c0,209.47 -71.57,321.19 -149,384.03l0 0z"/>
   </clipPath>
   <clipPath id="id3">
    <path d="M8797.96 6661.61l0 -499.79 17.47 0 0 499.79 -17.47 0 0 0z"/>
   </clipPath>
   <clipPath id="id4">
    <path d="M8474.44 12342.14l-3899.22 0 -332.47 0 -3884.56 0c-7.33,0 -61.11,-3.24 -122.23,-32.48 46.45,14.62 78.23,14.62 78.23,14.62l3906.55 0 330.03 0 3906.56 0c0,0 339.8,-8.12 339.8,-459.57l0 0 0 0 0 -3074.11 0 -2128.98c7.34,0 12.23,0 17.12,0l0 2141.97 0 3078.98c0,206.24 -70.9,319.91 -146.68,383.25 -92.9,74.7 -193.13,76.32 -193.13,76.32l0 0z"/>
   </clipPath>
   <clipPath id="id5">
    <path d="M8797.99 6161.54l0 -2625.28 0 -3075.44 0 0c0,-267.27 -120,-378.05 -217.54,-425.53 21.99,7.04 47.02,17.59 72.98,33.41l0 0 0 0 0 0c-88.18,-65.06 -179.05,-66.82 -179.05,-66.82l-17.43 0 0 0 17.43 0c0,0 341.04,8.79 341.04,460.7l0 3077.19 0 2621.77c-5.38,0 -11.58,0 -17.43,0l0 0z"/>
   </clipPath>
   <clipPath id="id6">
    <path d="M17.97 6664.01l0 -505.39 0 0 0 505.39 0 0 0 0z"/>
   </clipPath>
   <clipPath id="id7">
    <path d="M359.79 12342.14l-18.36 0c0,0 -341.15,-8.12 -341.15,-459.57l0 -349.15c5.73,-21.11 11.69,-42.22 17.66,-63.33l0 -2679.49 0 -2127.35 0 0 0 2145.21 0 3074.11 0 0c0,267.95 119.99,380 217.77,427.09 -22.34,-8.12 -47.37,-17.86 -73.1,-34.1l0 0c87.83,64.96 178.82,66.58 178.82,66.58l17.31 0c0.7,0 1.05,0 1.05,0l0 0z"/>
   </clipPath>
   <clipPath id="id8">
    <path d="M18.33 6158.02l0 0 0 -5072.97c-7.34,-63.3 -12.23,-126.6 -17.12,-189.9l0 -432.57c0,-451.91 339.81,-460.7 339.81,-460.7l3901.67 0 332.47 0 3882.11 0c7.33,0 61.12,3.52 122.23,33.41 -44,-15.82 -78.23,-15.82 -78.23,-15.82l-3904.11 0 -332.47 0 -3904.11 0c0,0 -342.25,8.79 -342.25,460.7l0 3073.67 0 2604.18 0 0z"/>
   </clipPath>
   <clipPath id="id9">
    <path d="M358.75 12342.82l-17.28 0c0,0 -91.03,-2.65 -178.8,-67.18 25.69,15.42 50.71,26.01 73.01,33.31 62.38,30.08 116.05,33.51 123.07,33.87l0 0z"/>
   </clipPath>
   <clipPath id="id10">
    <path d="M8653.38 68.38c-25.91,-15.45 -51.01,-26.04 -72.94,-33.34 -62.6,-30.02 -116.35,-33.49 -123.51,-33.78l17.5 0c0,0 90.81,2.59 178.95,67.12l0 0z"/>
   </clipPath>
   <clipPath id="id11">
    <path d="M-0 11533.49l0 -10642.01c0,3.03 0.3,3.03 0.3,3.03l0 2646.09 0 5261.84 0 2731.05c0,0 -0.3,0 -0.3,0l0 0z"/>
   </clipPath>
   <clipPath id="id12">
    <path d="M0.32 6664.01l0 -505.39 17.67 0 0 505.39 -17.67 0 0 0z"/>
   </clipPath>
   <clipPath id="id13">
    <path d="M0.32 11533.55l0 -2730.57 0 -2139.15c6.04,0 11.67,0 17.67,0l0 2126.57 0 2680.24c-6,20.97 -12,41.94 -17.67,62.91l0 0z"/>
   </clipPath>
   <clipPath id="id14">
    <path d="M17.99 6159c-6,0 -11.63,0 -17.67,0l0 -2618.75 0 -2644.4c5.67,63.35 11.67,126.71 17.67,190.07l0 5073.08 0 0z"/>
   </clipPath>
 </defs>
 <g id="Layer_x0020_1">
  <metadata id="CorelCorpID_0Corel-Layer"/>
  <path class="fil0" d="M8474.41 1.25l-8132.95 0c0,0 -341.15,9.26 -341.15,460.9l0 11419.82c0,451.55 341.15,460.9 341.15,460.9l8132.95 0c0,0 341.01,-9.35 341.01,-460.9l0 -11419.82c0,-451.64 -341.01,-460.9 -341.01,-460.9z"/>
  <g style="clip-path:url(#id0)">
   <image x="-5.33" y="6637.26" width="8826.12" height="5729.24" xlink:href="5_Images\5_ImgID1.png"/>
  </g>
  <g style="clip-path:url(#id1)">
   <image x="-5.33" y="0.44" width="8826.12" height="6185.72" xlink:href="5_Images\5_ImgID2.png"/>
  </g>
  <g style="clip-path:url(#id2)">
   <image x="8426.07" y="-17.46" width="412.62" height="12316.83" xlink:href="5_Images\5_ImgID3.png"/>
  </g>
  <g style="clip-path:url(#id3)">
   <image x="8766.19" y="6127.08" width="72.5" height="564.78" xlink:href="5_Images\5_ImgID4.png"/>
  </g>
  <g style="clip-path:url(#id4)">
   <image x="213.96" y="6637.26" width="8624.74" height="5729.24" xlink:href="5_Images\5_ImgID5.png"/>
  </g>
  <g style="clip-path:url(#id5)">
   <image x="8426.07" y="-17.46" width="412.62" height="6203.62" xlink:href="5_Images\5_ImgID6.png"/>
  </g>
  <g style="clip-path:url(#id6)">
   <image x="-5.33" y="6127.08" width="54.59" height="564.78" xlink:href="5_Images\5_ImgID7.png"/>
  </g>
  <g style="clip-path:url(#id7)">
   <image x="-23.23" y="6637.26" width="412.62" height="5729.24" xlink:href="5_Images\5_ImgID8.png"/>
  </g>
  <g style="clip-path:url(#id8)">
   <image x="-23.23" y="-17.46" width="8624.74" height="6203.62" xlink:href="5_Images\5_ImgID9.png"/>
  </g>
  <g style="clip-path:url(#id9)">
   <image x="128.93" y="12240.3" width="260.46" height="126.2" xlink:href="5_Images\5_ImgID10.png"/>
  </g>
  <g style="clip-path:url(#id10)">
   <image x="8426.07" y="-17.46" width="260.46" height="103.83" xlink:href="5_Images\5_ImgID11.png"/>
  </g>
  <g style="clip-path:url(#id11)">
   <image x="-23.23" y="864.17" width="54.59" height="10705.74" xlink:href="5_Images\5_ImgID12.png"/>
  </g>
  <g style="clip-path:url(#id12)">
   <image x="-23.23" y="6127.08" width="72.5" height="564.78" xlink:href="5_Images\5_ImgID13.png"/>
  </g>
  <g style="clip-path:url(#id13)">
   <image x="-23.23" y="6637.26" width="72.5" height="4932.64" xlink:href="5_Images\5_ImgID14.png"/>
  </g>
  <g style="clip-path:url(#id14)">
   <image x="-23.23" y="864.17" width="72.5" height="5321.99" xlink:href="5_Images\5_ImgID15.png"/>
  </g>
  <path class="fil1" d="M658.62 2371.04c-19.07,229.35 -148.53,390.06 -148.53,390.06l297.06 0c0,0 -129.15,-160.71 -148.53,-390.06z"/>
  <path class="fil1" d="M936.27 2031.05c-184.16,-127.14 -275.19,-260.06 -277.65,-263.55l0 -0.13 0 0.04 0 -0.04 0 0.13c-2.1,3.49 -93.13,136.41 -277.29,263.55 -186.26,128.8 -228.59,289.46 -161.91,410.69 66.68,121.24 333,180.36 439.2,-60.46 106.2,240.82 372.88,181.7 439.56,60.46 66.68,-121.23 24.35,-281.89 -161.91,-410.69z"/>
  <path class="fil1" d="M335.1 1603.03l0 -165.22 94.21 0c15.53,52.98 39.16,91.92 70.57,116.89 31.37,24.93 71.96,37.37 121.68,37.37 69.15,0 121.37,-20.72 157,-62.34 35.31,-41.49 52.94,-103.6 52.94,-186.22 0,-55.09 -9.53,-100.65 -28.24,-136.76 -18.71,-36.12 -43.77,-62.21 -75.5,-78.32 -31.77,-16.11 -68.78,-24.21 -110.76,-24.21 -35.31,0 -65.61,2.24 -91.03,6.67 -25.37,4.43 -52.9,11.28 -81.85,20.63l-62.43 -36.61 0 -512.77 429.31 0c17.63,0 30.7,-1.48 38.49,-4.34 7.74,-2.82 13.74,-7.25 18.66,-13.25 4.61,-5.95 9.89,-17.28 16.25,-33.88l60.68 0 -11.63 180.8 -448.07 0 0 342.09c27.21,-11.37 56.48,-19.96 87.85,-25.69 31.78,-5.73 63.51,-8.54 95.28,-8.54 61.71,0 116.76,12.62 164.38,37.77 47.97,25.19 84.67,61.04 110.76,107.58 25.78,46.5 38.84,100.38 38.84,161.69 0,69.59 -14.5,129.38 -43.41,179.24 -29.26,49.9 -71.29,87.8 -126.29,113.8 -55.04,25.96 -120.29,38.94 -195.79,38.94 -89.6,0 -183.8,-18.44 -281.9,-55.32z"/>
  <path class="fil1" d="M8105.2 9951.47c18.79,-229.36 148.58,-390.02 148.58,-390.02l-297.16 0c0,0 128.89,160.66 148.58,390.02z"/>
  <path class="fil1" d="M7827.73 10291.45c183.93,127.15 274.78,260.06 277.47,263.55l0 0.14 0 -0.05 0 0.05 0 -0.14c2.24,-3.49 93.08,-136.4 277.02,-263.55 186.62,-128.75 228.68,-289.46 162,-410.69 -66.68,-121.28 -333.41,-180.31 -439.02,60.5 -106.51,-240.81 -372.79,-181.78 -439.47,-60.5 -66.69,121.23 -24.62,281.94 162,410.69z"/>
  <path class="fil1" d="M8428.76 10719.47l0 165.23 -94.43 0c-15.66,-52.99 -38.93,-91.93 -70.71,-116.9 -31.32,-24.93 -71.6,-37.37 -121.73,-37.37 -68.91,0 -121.28,20.77 -156.63,62.34 -35.35,41.53 -53.26,103.61 -53.26,186.26 0,55.05 9.85,100.61 28.65,136.72 18.34,36.12 43.41,62.21 75.18,78.32 31.78,16.11 68.92,24.26 110.99,24.26 35.35,0 65.34,-2.28 90.85,-6.72 25.5,-4.43 52.8,-11.23 81.89,-20.63l62.66 36.66 0 512.77 -429.63 0c-17.45,0 -30.43,1.43 -38.49,4.34 -7.6,2.82 -13.42,7.25 -18.35,13.21 -4.92,5.99 -10.29,17.27 -16.55,33.92l-60.42 0 11.64 -180.85 447.97 0 0 -342.09c-26.85,11.41 -56.39,20.01 -87.71,25.74 -31.78,5.68 -63.55,8.5 -95.33,8.5 -61.76,0 -116.8,-12.58 -164.69,-37.73 -47.88,-25.24 -84.58,-61.09 -110.54,-107.63 -25.95,-46.45 -38.93,-100.33 -38.93,-161.69 0,-69.59 14.32,-129.38 43.41,-179.19 29.09,-49.9 71.15,-87.8 126.2,-113.85 55.05,-25.96 120.39,-38.94 196.02,-38.94 89.95,0 183.48,18.44 281.94,55.32z"/>
  <path class="fil1" d="M2777.08 2983.03c-38.13,455.22 -294.61,774.04 -294.61,774.04l589.53 0c0,0 -256.84,-318.82 -294.92,-774.04z"/>
  <path class="fil1" d="M3327.4 2308.29c-365.14,-252.31 -545.4,-516.18 -550.01,-523.07l0 -0.36 -0.31 0.23 0 -0.23 0 0.36c-4.61,6.89 -185.23,270.76 -550.37,523.07 -370.06,255.63 -454.02,574.45 -321.73,815.13 132.29,240.59 661.49,357.88 872.1,-120.07 210.6,477.95 740.12,360.66 872.41,120.07 132.28,-240.68 47.97,-559.5 -322.09,-815.13z"/>
  <path class="fil1" d="M2777.08 9366.28c-38.13,-455.22 -294.61,-774.08 -294.61,-774.08l589.53 0c0,0 -256.84,318.86 -294.92,774.08z"/>
  <path class="fil1" d="M3327.4 10041.02c-365.14,252.27 -545.4,516.18 -550.01,523.02l0 0.41 -0.31 -0.23 0 0.23 0 -0.41c-4.61,-6.84 -185.23,-270.75 -550.37,-523.02 -370.06,-255.67 -454.02,-574.49 -321.73,-815.17 132.29,-240.55 661.49,-357.84 872.1,120.11 210.6,-477.95 740.12,-360.66 872.41,-120.11 132.28,240.68 47.97,559.5 -322.09,815.17z"/>
  <path class="fil1" d="M6033.91 2983.03c-38.09,455.22 -294.92,774.04 -294.92,774.04l589.48 0c0,0 -256.48,-318.82 -294.56,-774.04z"/>
  <path class="fil1" d="M6584.23 2308.29c-365.09,-252.31 -545.35,-516.18 -550.32,-523.07l0 -0.36 0 0.23 0 -0.23 0 0.36c-4.92,6.89 -185.23,270.76 -550.32,523.07 -370.06,255.63 -454.38,574.45 -321.73,815.13 132.29,240.59 661.44,357.88 872.05,-120.07 210.61,477.95 739.81,360.66 871.92,120.07 132.91,-240.68 48.33,-559.5 -321.6,-815.13z"/>
  <path class="fil1" d="M6033.91 9366.28c-38.09,-455.22 -294.92,-774.08 -294.92,-774.08l589.48 0c0,0 -256.48,318.86 -294.56,774.08z"/>
  <path class="fil1" d="M6584.23 10041.02c-365.09,252.27 -545.35,516.18 -550.32,523.02l0 0.41 0 -0.23 0 0.23 0 -0.41c-4.92,-6.84 -185.23,-270.75 -550.32,-523.02 -370.06,-255.67 -454.38,-574.49 -321.73,-815.17 132.29,-240.55 661.44,-357.84 872.05,120.11 210.61,-477.95 739.81,-360.66 871.92,-120.11 132.91,240.68 48.33,559.5 -321.6,815.17z"/>
  <path class="fil1" d="M4405.49 6386.69c-38.13,455.18 -294.56,774.05 -294.56,774.05l589.48 0c0,0 -256.83,-318.87 -294.92,-774.05z"/>
  <path class="fil1" d="M4955.82 5711.96c-365.14,-252.27 -545.4,-516.18 -550.33,-523.03l0 -0.4 0 0.18 0 -0.18 0 0.4c-4.96,6.85 -185.23,270.76 -550.32,523.03 -370.06,255.62 -454.06,574.44 -321.77,815.12 132.33,240.55 661.49,357.85 872.09,-120.07 210.61,477.92 739.76,360.62 872.41,120.07 132.29,-240.68 47.98,-559.5 -322.08,-815.12z"/>
 </g>
</svg>
