<?xml version="1.0" encoding="UTF-8"?>
<!DOCTYPE svg PUBLIC "-//W3C//DTD SVG 1.1//EN" "http://www.w3.org/Graphics/SVG/1.1/DTD/svg11.dtd">
<!-- Creator: CorelDRAW -->
<svg xmlns="http://www.w3.org/2000/svg" xml:space="preserve" width="100%" height="100%" version="1.1" style="shape-rendering:geometricPrecision; text-rendering:geometricPrecision; image-rendering:optimizeQuality; fill-rule:evenodd; clip-rule:evenodd"
viewBox="0 0 8816.13 12342.99"
 xmlns:xlink="http://www.w3.org/1999/xlink"
 xmlns:xodm="http://www.corel.com/coreldraw/odm/2003">
 <defs>
  <style type="text/css">
   <![CDATA[
    .fil0 {fill:#FEFEFE;fill-rule:nonzero}
    .fil1 {fill:#252422;fill-rule:nonzero}
   ]]>
  </style>
   <clipPath id="id0">
    <path d="M8474.17 12342.26l-3900.6 0 -330.9 0 -3883.04 0c0,0 0,0 0,0l3883.04 0 330.9 0 3900.6 0c0,0 167.96,-3.24 268.23,-164.01 -100.27,160.77 -268.23,164.01 -268.23,164.01zm-17.55 -17.86l-3903.1 0 -333.41 0 -3905.61 0c0,0 -32.59,0 -77.71,-14.62 -97.76,-47.09 -218.09,-159.14 -218.09,-427.09l0 0 0 -3074.11 0 -2145.21c1727.19,0 3451.88,0 5179.07,-1.63 1200.76,0 2401.52,0 3599.78,0l0 2128.98 0 3074.11 0 0c0,451.45 -340.93,459.57 -340.93,459.57l0 0z"/>
   </clipPath>
   <clipPath id="id1">
    <path d="M8639.62 6161.73c-2138.31,0 -4276.62,0 -6412.42,-1.75 -737,0 -1474.01,0 -2208.5,-1.76l0 -2605.43 0 -3073.57c0,-450.61 340.93,-459.37 340.93,-459.37l3905.6 0 330.9 0 3905.61 0c0,0 32.59,0 77.71,15.78 97.77,47.34 218.1,159.55 218.1,426.05l0 0 0 3073.58 0 2626.47c-52.65,0 -105.29,0 -157.93,0l0 0z"/>
   </clipPath>
   <clipPath id="id2">
    <path d="M8743.54 12179.79c42.46,-69.34 72.4,-162.95 72.4,-298.16l0 -5221.4 0 0 0 -499.26 0 0 0 -5699.86 0 0c0,-450.71 -340.93,-461.11 -340.93,-461.11l-17.54 0c-0.82,0 -0.82,0 -0.82,0l18.36 0c0,0 340.93,10.4 340.93,461.11l0 3078.76 0 5263 0 3078.76c0,135.21 -29.94,228.82 -72.4,298.16l0 0z"/>
   </clipPath>
   <clipPath id="id3">
    <path d="M8798.1 6661.73l0 -499.79 17.9 0 0 499.79 -17.9 0 0 0z"/>
   </clipPath>
   <clipPath id="id4">
    <path d="M8475.62 12342.26l-3902.41 0 -330.72 0 -3882.82 0c-7.34,0 -61.24,-3.24 -122.48,-32.48 44.09,14.62 78.39,14.62 78.39,14.62l3904.86 0 333.17 0 3902.41 0c0,0 342.97,-8.12 342.97,-459.57l0 0 0 0 0 -3074.11 0 -2128.98c4.89,0 9.79,0 17.14,0l0 2141.97 0 3078.98c0,133.16 -29.39,228.97 -73.49,295.56 -100.44,160.77 -267.02,164.01 -267.02,164.01l0 0z"/>
   </clipPath>
   <clipPath id="id5">
    <path d="M8798.04 6161.66l0 -2625.28 0 -3075.44 0 0c0,-267.27 -119.88,-378.05 -217.42,-425.53 22.34,7.04 47.37,17.59 72.87,33.41l0 0 0 0 0 0c-87.6,-65.06 -178.48,-66.82 -178.48,-66.82l-17.54 0 0 0 17.54 0c0,0 340.93,8.79 340.93,460.7l0 3077.19 0 2621.77c-6.2,0 -12.05,0 -17.9,0l0 0z"/>
   </clipPath>
   <clipPath id="id6">
    <path d="M18.51 6664.13l0 -505.39 0 0 0 505.39 0 0 0 0z"/>
   </clipPath>
   <clipPath id="id7">
    <path d="M359.98 12342.26l-18.31 0c0,0 -341.07,-8.12 -341.07,-459.57l0 -349.15c5.86,-21.11 11.23,-42.22 17.45,-63.33l0.49 -2679.49 0 -2127.35 0 0 0 2145.21 0 3074.11 0 0c0,267.95 119.96,380 217.46,427.09 -22.34,-8.12 -47.47,-17.86 -72.98,-34.1l0 0c87.74,64.96 178.65,66.58 178.65,66.58l17.45 0c0.37,0 0.86,0 0.86,0l0 0z"/>
   </clipPath>
   <clipPath id="id8">
    <path d="M19.6 6158.14l0 0 0 -5072.97c-7.35,-63.3 -12.25,-126.6 -19.6,-189.9l0 -432.57c0,-451.91 340.51,-460.7 340.51,-460.7l3902.42 0 330.71 0 3882.82 0c7.35,0 61.24,3.52 124.93,33.41 -46.54,-15.82 -80.84,-15.82 -80.84,-15.82l-3904.86 0 -330.72 0 -3904.86 0c0,0 -340.51,8.79 -340.51,460.7l0 3073.67 0 2604.18 0 0z"/>
   </clipPath>
   <clipPath id="id9">
    <path d="M359.07 12342.94l-17.46 0c0,0 -90.83,-2.65 -178.55,-67.18 25.5,15.46 50.6,26.04 72.94,33.38 62.22,30.01 115.92,33.44 123.07,33.8l0 0z"/>
   </clipPath>
   <clipPath id="id10">
    <path d="M8653.53 68.5c-25.5,-15.39 -50.53,-26.01 -72.94,-33.31 -62.63,-30.05 -115.92,-33.52 -123.07,-33.81l17.47 0c0,0 90.82,2.59 178.54,67.12l0 0z"/>
   </clipPath>
   <clipPath id="id11">
    <path d="M0.16 11533.61l0 -10642.01c0,3.03 0,3.03 0.45,3.03l0 2646.09 0 5261.84 0 2731.05c-0.45,0 -0.45,0 -0.45,0l0 0z"/>
   </clipPath>
   <clipPath id="id12">
    <path d="M0.61 6664.13l0 -505.39 17.9 0 0 505.39 -17.9 0 0 0z"/>
   </clipPath>
   <clipPath id="id13">
    <path d="M0.61 11533.67l0 -2730.57 0 -2139.15c5.82,0 11.64,0 17.9,0l0 2126.57 -0.45 2680.24c-6.27,20.97 -11.63,41.94 -17.45,62.91l0 0z"/>
   </clipPath>
   <clipPath id="id14">
    <path d="M18.51 6159.12c-6.26,0 -12.08,0 -17.9,0l0 -2618.75 0 -2644.4c5.82,63.35 11.18,126.71 17.9,190.07l0 5073.08 0 0z"/>
   </clipPath>
 </defs>
 <g id="Layer_x0020_1">
  <metadata id="CorelCorpID_0Corel-Layer"/>
  <path class="fil0" d="M8474.98 1.37l-8133.35 0c0,0 -341.02,9.26 -341.02,460.9l0 11419.82c0,451.55 341.02,460.9 341.02,460.9l8133.35 0c0,0 341.01,-9.35 341.01,-460.9l0 -11419.82c0,-451.64 -341.01,-460.9 -341.01,-460.9z"/>
  <g style="clip-path:url(#id0)">
   <image x="-16.4" y="6637.38" width="8844.03" height="5729.24" xlink:href="7_Images\7_ImgID1.png"/>
  </g>
  <g style="clip-path:url(#id1)">
   <image x="-16.4" y="0.56" width="8844.03" height="6185.72" xlink:href="7_Images\7_ImgID2.png"/>
  </g>
  <g style="clip-path:url(#id2)">
   <image x="8432.91" y="-17.34" width="412.62" height="12231.8" xlink:href="7_Images\7_ImgID3.png"/>
  </g>
  <g style="clip-path:url(#id3)">
   <image x="8773.03" y="6127.2" width="72.5" height="564.78" xlink:href="7_Images\7_ImgID4.png"/>
  </g>
  <g style="clip-path:url(#id4)">
   <image x="202.89" y="6637.38" width="8642.64" height="5729.24" xlink:href="7_Images\7_ImgID5.png"/>
  </g>
  <g style="clip-path:url(#id5)">
   <image x="8432.91" y="-17.34" width="412.62" height="6203.62" xlink:href="7_Images\7_ImgID6.png"/>
  </g>
  <g style="clip-path:url(#id6)">
   <image x="-16.4" y="6127.2" width="54.59" height="564.78" xlink:href="7_Images\7_ImgID7.png"/>
  </g>
  <g style="clip-path:url(#id7)">
   <image x="-34.3" y="6637.38" width="430.52" height="5729.24" xlink:href="7_Images\7_ImgID8.png"/>
  </g>
  <g style="clip-path:url(#id8)">
   <image x="-34.3" y="-17.34" width="8642.64" height="6203.62" xlink:href="7_Images\7_ImgID9.png"/>
  </g>
  <g style="clip-path:url(#id9)">
   <image x="135.76" y="12240.42" width="242.56" height="126.2" xlink:href="7_Images\7_ImgID10.png"/>
  </g>
  <g style="clip-path:url(#id10)">
   <image x="8432.91" y="-17.34" width="242.56" height="103.83" xlink:href="7_Images\7_ImgID11.png"/>
  </g>
  <g style="clip-path:url(#id11)">
   <image x="-34.3" y="864.29" width="59.07" height="10705.74" xlink:href="7_Images\7_ImgID12.png"/>
  </g>
  <g style="clip-path:url(#id12)">
   <image x="-34.3" y="6127.2" width="72.5" height="564.78" xlink:href="7_Images\7_ImgID13.png"/>
  </g>
  <g style="clip-path:url(#id13)">
   <image x="-34.3" y="6637.38" width="72.5" height="4932.64" xlink:href="7_Images\7_ImgID14.png"/>
  </g>
  <g style="clip-path:url(#id14)">
   <image x="-34.3" y="864.29" width="72.5" height="5321.99" xlink:href="7_Images\7_ImgID15.png"/>
  </g>
  <path class="fil1" d="M695.62 2371.16c-19.24,229.35 -148.58,390.06 -148.58,390.06l297.16 0c0,0 -129.34,-160.71 -148.58,-390.06z"/>
  <path class="fil1" d="M973.09 2031.17c-183.94,-127.14 -274.79,-260.06 -277.47,-263.55l0 -0.13 0 0.04 0 -0.04 0 0.13c-2.69,3.49 -93.53,136.41 -277.47,263.55 -186.17,128.8 -228.68,289.46 -162,410.69 66.68,121.24 333.41,180.36 439.47,-60.46 106.06,240.82 372.79,181.7 439.47,60.46 66.68,-121.23 24.61,-281.89 -162,-410.69z"/>
  <path class="fil1" d="M1037.98 568.11l-453.8 1031.91 -112.77 0 0 -38.17 419.78 -889.28 0 -11.64 -342.81 0c-21.48,0 -38.48,1.93 -51.02,5.77 -12.53,3.94 -23.27,9.54 -32.22,16.79 -8.5,7.29 -15.21,16.91 -21.48,28.82 -5.37,11.99 -13.42,35.62 -23.27,70.93l-67.13 0 15.66 -252.45 669.06 0 0 37.32z"/>
  <path class="fil1" d="M8124.12 9951.59c19.24,-229.36 148.58,-390.02 148.58,-390.02l-297.16 0c0,0 129.33,160.66 148.58,390.02z"/>
  <path class="fil1" d="M7846.65 10291.57c183.93,127.15 274.78,260.06 277.47,263.55l0 0.14 0 -0.05 0 0.05 0 -0.14c2.23,-3.49 93.08,-136.4 277.46,-263.55 186.17,-128.75 228.69,-289.46 162.01,-410.69 -66.68,-121.28 -333.41,-180.31 -439.47,60.5 -106.07,-240.81 -372.79,-181.78 -439.47,-60.5 -66.69,121.23 -24.62,281.94 162,410.69z"/>
  <path class="fil1" d="M7781.76 11754.67l453.79 -1031.95 112.78 0 0 38.22 -420.23 889.24 0 11.63 343.25 0c21.48,0 38.49,-1.88 51.02,-5.77 12.53,-3.89 23.27,-9.53 32.22,-16.74 8.51,-7.29 15.22,-16.96 21.04,-28.86 5.81,-12 13.87,-35.63 23.72,-70.94l67.12 0 -16.11 252.5 -668.6 0 0 -37.33z"/>
  <path class="fil1" d="M2814.66 6386.81c-38.04,455.23 -294.92,774.05 -294.92,774.05l589.84 0c0,0 -256.88,-318.82 -294.92,-774.05z"/>
  <path class="fil1" d="M3365.12 5712.08c-365.19,-252.27 -545.54,-516.18 -550.46,-523.03l0 -0.36 0 0.14 0 -0.14 0 0.36c-4.92,6.85 -185.28,270.76 -550.01,523.03 -370.11,255.67 -454.24,574.44 -321.77,815.17 132.02,240.5 661.44,357.84 871.78,-120.12 210.78,477.96 739.76,360.62 872.23,120.12 132.47,-240.73 48.33,-559.5 -321.77,-815.17z"/>
  <path class="fil1" d="M2814.66 9366.4c-38.04,-455.22 -294.92,-774.08 -294.92,-774.08l589.84 0c0,0 -256.88,318.86 -294.92,774.08z"/>
  <path class="fil1" d="M3365.12 10041.14c-365.19,252.27 -545.54,516.18 -550.46,523.02l0 0.41 0 -0.23 0 0.23 0 -0.41c-4.92,-6.84 -185.28,-270.75 -550.01,-523.02 -370.11,-255.67 -454.24,-574.49 -321.77,-815.17 132.02,-240.55 661.44,-357.84 871.78,120.11 210.78,-477.95 739.76,-360.66 872.23,-120.11 132.47,240.68 48.33,559.5 -321.77,815.17z"/>
  <path class="fil1" d="M2814.66 2983.15c-38.04,455.22 -294.92,774.04 -294.92,774.04l589.84 0c0,0 -256.88,-318.82 -294.92,-774.04z"/>
  <path class="fil1" d="M3365.12 2308.41c-365.19,-252.31 -545.54,-516.18 -550.46,-523.07l0 -0.36 0 0.23 0 -0.23 0 0.36c-4.48,6.89 -185.28,270.76 -550.01,523.07 -370.11,255.63 -454.24,574.45 -321.77,815.13 132.02,240.59 661.44,357.88 871.78,-120.07 210.78,477.95 739.76,360.66 872.23,120.07 132.47,-240.68 48.33,-559.5 -321.77,-815.13z"/>
  <path class="fil1" d="M6005.52 6386.81c-38.04,455.23 -294.47,774.05 -294.47,774.05l589.39 0c0,0 -256.88,-318.82 -294.92,-774.05z"/>
  <path class="fil1" d="M6555.98 5712.08c-365.18,-252.27 -545.53,-516.18 -550.46,-523.03l0 -0.36 0 0.14 0 -0.14 0 0.36c-4.47,6.85 -185.27,270.76 -550.01,523.03 -370.1,255.67 -454.24,574.44 -321.77,815.17 132.02,240.5 661.45,357.84 871.78,-120.12 210.79,477.96 739.77,360.62 872.23,120.12 132.47,-240.73 48.34,-559.5 -321.77,-815.17z"/>
  <path class="fil1" d="M6005.52 9366.4c-38.04,-455.22 -294.47,-774.08 -294.47,-774.08l589.39 0c0,0 -256.88,318.86 -294.92,774.08z"/>
  <path class="fil1" d="M6555.98 10041.14c-365.18,252.27 -545.53,516.18 -550.46,523.02l0 0.41 0 -0.23 0 0.23 0 -0.41c-4.47,-6.84 -185.27,-270.75 -550.01,-523.02 -370.1,-255.67 -454.24,-574.49 -321.77,-815.17 132.02,-240.55 661.45,-357.84 871.78,120.11 210.79,-477.95 739.77,-360.66 872.23,-120.11 132.47,240.68 48.34,559.5 -321.77,815.17z"/>
  <path class="fil1" d="M6005.52 2983.15c-38.04,455.22 -294.47,774.04 -294.47,774.04l589.39 0c0,0 -256.88,-318.82 -294.92,-774.04z"/>
  <path class="fil1" d="M6555.98 2308.41c-365.18,-252.31 -545.53,-516.18 -550.46,-523.07l0 -0.36 0 0.23 0 -0.23 0 0.36c-4.47,6.89 -185.27,270.76 -550.01,523.07 -370.1,255.63 -454.24,574.45 -321.77,815.13 132.02,240.59 661.45,357.88 871.78,-120.07 210.79,477.95 739.77,360.66 872.23,120.07 132.47,-240.68 48.34,-559.5 -321.77,-815.13z"/>
  <path class="fil1" d="M4410.54 4614.07c-38.04,455.18 -294.92,774 -294.92,774l589.39 0c0,0 -256.43,-318.82 -294.47,-774z"/>
  <path class="fil1" d="M4960.55 3939.33c-364.73,-252.31 -545.54,-516.17 -550.01,-523.07l0 -0.35 0 0.18 -0.45 -0.18 0 0.35c-4.47,6.9 -184.83,270.76 -550.01,523.07 -370.1,255.63 -454.24,574.45 -322.22,815.08 132.47,240.6 661.45,357.85 872.68,-120.07 210.34,477.92 739.76,360.67 871.78,120.07 132.47,-240.63 48.33,-559.45 -321.77,-815.08z"/>
 </g>
</svg>
