<?xml version="1.0" encoding="UTF-8"?>
<!DOCTYPE svg PUBLIC "-//W3C//DTD SVG 1.1//EN" "http://www.w3.org/Graphics/SVG/1.1/DTD/svg11.dtd">
<!-- Creator: CorelDRAW -->
<svg xmlns="http://www.w3.org/2000/svg" xml:space="preserve" width="100%" height="100%" version="1.1" style="shape-rendering:geometricPrecision; text-rendering:geometricPrecision; image-rendering:optimizeQuality; fill-rule:evenodd; clip-rule:evenodd"
viewBox="0 0 8816.64 12343.46"
 xmlns:xlink="http://www.w3.org/1999/xlink"
 xmlns:xodm="http://www.corel.com/coreldraw/odm/2003">
 <defs>
  <style type="text/css">
   <![CDATA[
    .fil0 {fill:#FEFEFE;fill-rule:nonzero}
    .fil1 {fill:#252422;fill-rule:nonzero}
   ]]>
  </style>
   <clipPath id="id0">
    <path d="M8475.26 12343.46l-3902.18 0 -330.4 0 -3882.16 0c0,0 0,0 -2.5,0l3884.66 0 330.4 0 3902.18 0c0,0 177.71,-4.87 275.33,-178.63 -97.62,173.76 -275.33,178.63 -275.33,178.63zm-20.02 -17.86l-3902.19 0 -332.9 0 -3904.68 0c0,0 -32.54,-1.62 -80.1,-16.24 -97.62,-47.09 -217.76,-159.14 -217.76,-425.47l0 0 0 -3074.11 0 -2145.21c1727.07,-1.63 3454.15,-1.63 5181.22,-1.63 1198.94,0 2400.38,0 3599.32,0l0 2128.98 0 3074.11 0 0c0,449.83 -342.91,459.57 -342.91,459.57l0 0z"/>
   </clipPath>
   <clipPath id="id1">
    <path d="M8640.46 6162.99c-2137.57,0 -4277.64,-1.75 -6415.2,-1.75 -735.88,-1.76 -1471.77,-1.76 -2207.65,-1.76l0 -2605.94 0 -3073.68c0,-450.15 342.91,-460.7 342.91,-460.7l3904.69 0 330.39 0 3904.69 0c0,0 35.04,1.76 80.1,15.83 97.61,47.47 217.76,160.01 217.76,427.29l0 0 0 3073.67 0 2627.04c-52.56,0 -105.13,0 -157.69,0l0 0z"/>
   </clipPath>
   <clipPath id="id2">
    <path d="M8751.66 12164.95c37.89,-65.85 64.09,-155.96 64.09,-280.73l0 -5222.96 0 0 0 -499.07 0 0 0 -5697.77 0 0c0,-454.02 -341.16,-460.95 -341.16,-460.95l-17.43 0c-0.47,0 -0.82,-3.47 -0.82,-3.47l18.25 0c0,0 341.16,10.4 341.16,460.95l0 3081.1 0 5261.07 0 3077.63c0,128.24 -26.2,218.35 -64.09,284.2l0 0z"/>
   </clipPath>
   <clipPath id="id3">
    <path d="M8797.94 6662.26l0 -499.95 17.8 0 0 499.95 -17.8 0 0 0z"/>
   </clipPath>
   <clipPath id="id4">
    <path d="M8473.67 12343.46l-3899.96 0 -330.72 0 -3885.26 0c-4.9,0 -58.8,-3.24 -122.49,-34.1 46.55,14.62 80.84,16.24 80.84,16.24l3902.42 0 333.16 0 3904.87 0c0,0 340.51,-9.74 340.51,-459.57l0 0 0 0 0 -3074.11 0 -2128.98c7.35,0 12.25,0 19.6,0l0 2140.35 0 3078.98c0,125.04 -26.95,215.98 -66.15,282.56 -97.99,173.76 -276.82,178.63 -276.82,178.63l0 0z"/>
   </clipPath>
   <clipPath id="id5">
    <path d="M8797.97 6162.94l0 -2627.44 0 -3073.27 0 0c0,-267.86 -120,-378.88 -217.77,-426.46 22.34,7.05 47.48,17.63 73.21,33.49l0 0 0 0 0 0c-87.95,-65.21 -178.82,-66.97 -178.82,-66.97l-17.43 0 0 0 17.43 0c0,0 341.16,8.81 341.16,459.94l0 3078.56 0 2622.15c-5.97,0 -11.93,0 -17.78,0l0 0z"/>
   </clipPath>
   <clipPath id="id6">
    <path d="M17.91 6664.5l0 -505.23 0.26 0 0 505.23 -0.26 0 0 0z"/>
   </clipPath>
   <clipPath id="id7">
    <path d="M359.66 12343.46l-18.13 0c0,0 -341.16,-9.74 -341.16,-461.19l0 -347.53c5.85,-21.11 11.58,-42.22 17.43,-63.33l0.11 -2679.49 0 -2127.35c0.12,0 0.12,0 0.24,0l0 2145.21 0 3074.11 0 0c0,266.33 119.88,378.38 217.65,425.47 -22.22,-6.49 -47.37,-17.86 -73.1,-32.48l0 0c87.84,63.34 178.83,66.58 178.83,66.58l17.31 0c0.58,0 0.82,0 0.82,0l0 0z"/>
   </clipPath>
   <clipPath id="id8">
    <path d="M18.33 6159.42c0,0 0,0 0,0l0 -5073.37c-7.34,-63.44 -12.23,-126.88 -17.12,-190.32l0 -433.5c0,-451.13 339.81,-459.94 339.81,-459.94l3901.67 0 332.47 0 3882.11 0c7.33,0 61.12,3.53 122.23,33.48 -44,-15.86 -78.23,-15.86 -78.23,-15.86l-3904.11 0 -332.47 0 -3904.11 0c0,0 -342.25,8.82 -342.25,459.94l0 3073.28 0 2606.29 0 0z"/>
   </clipPath>
   <clipPath id="id9">
    <path d="M358.91 12343.32l-17.42 0c0,0 -90.88,-2.58 -178.81,-67.11 25.69,15.43 50.87,25.99 73.09,33.3 62.53,30.05 115.91,33.54 123.14,33.81l0 0z"/>
   </clipPath>
   <clipPath id="id10">
    <path d="M8653.4 68.9c-25.69,-15.42 -50.86,-26.01 -73.16,-33.33 -62.46,-30.01 -115.83,-33.46 -123.07,-33.81l17.35 0c0,0 90.96,2.59 178.88,67.14l0 0z"/>
   </clipPath>
   <clipPath id="id11">
    <path d="M-0 11536.22l0 -10642.01c0.09,0 0.18,0 0.27,3.03l0.05 2643.06 0 5264.87 0 2728.02c-0.11,0 -0.22,3.03 -0.32,3.03l0 0z"/>
   </clipPath>
   <clipPath id="id12">
    <path d="M0.32 6664.5l0 -505.39c5.83,0.16 11.75,0.16 17.59,0.16l0 505.23c-5.84,0 -11.78,0 -17.59,0l0 0z"/>
   </clipPath>
   <clipPath id="id13">
    <path d="M0.32 11533.87l0 -2730.11 0 -2138.91c5.81,0 11.75,0 17.59,0l0 2126.36 -0.07 2679.91c-5.91,20.92 -11.69,41.83 -17.52,62.75l0 0z"/>
   </clipPath>
   <clipPath id="id14">
    <path d="M17.91 6158.7c-5.84,0 -11.76,0 -17.59,0l0 -2617.25 -0.05 -2644.4c5.78,63.36 11.64,126.72 17.64,190.07l0 5071.58 0 0z"/>
   </clipPath>
 </defs>
 <g id="Layer_x0020_1">
  <metadata id="CorelCorpID_0Corel-Layer"/>
  <path class="fil0" d="M8474.55 1.75l-8133.06 0c0,0 -341.22,9.26 -341.22,460.95l0.05 3078.4 0 8341.44c0,451.55 341.17,460.84 341.17,460.84l8133.06 0c0,0 341.2,-9.29 341.2,-460.84l0 -11419.84c0,-451.69 -341.2,-460.95 -341.2,-460.95z"/>
  <g style="clip-path:url(#id0)">
   <image x="-4.92" y="6636.96" width="8830.6" height="5729.24" xlink:href="8_Images\8_ImgID1.png"/>
  </g>
  <g style="clip-path:url(#id1)">
   <image x="-4.92" y="-17.76" width="8830.6" height="6203.62" xlink:href="8_Images\8_ImgID2.png"/>
  </g>
  <g style="clip-path:url(#id2)">
   <image x="8430.96" y="-31.19" width="412.62" height="12227.33" xlink:href="8_Images\8_ImgID3.png"/>
  </g>
  <g style="clip-path:url(#id3)">
   <image x="8766.61" y="6131.26" width="76.97" height="564.78" xlink:href="8_Images\8_ImgID4.png"/>
  </g>
  <g style="clip-path:url(#id4)">
   <image x="200.94" y="6636.96" width="8642.64" height="5729.24" xlink:href="8_Images\8_ImgID5.png"/>
  </g>
  <g style="clip-path:url(#id5)">
   <image x="8430.96" y="-31.19" width="412.62" height="6217.04" xlink:href="8_Images\8_ImgID6.png"/>
  </g>
  <g style="clip-path:url(#id6)">
   <image x="-0.44" y="6131.26" width="54.6" height="564.78" xlink:href="8_Images\8_ImgID7.png"/>
  </g>
  <g style="clip-path:url(#id7)">
   <image x="-18.34" y="6636.96" width="412.62" height="5729.24" xlink:href="8_Images\8_ImgID8.png"/>
  </g>
  <g style="clip-path:url(#id8)">
   <image x="-18.34" y="-31.19" width="8624.74" height="6217.04" xlink:href="8_Images\8_ImgID9.png"/>
  </g>
  <g style="clip-path:url(#id9)">
   <image x="133.82" y="12244.47" width="260.46" height="121.73" xlink:href="8_Images\8_ImgID10.png"/>
  </g>
  <g style="clip-path:url(#id10)">
   <image x="8430.96" y="-31.19" width="260.46" height="121.73" xlink:href="8_Images\8_ImgID11.png"/>
  </g>
  <g style="clip-path:url(#id11)">
   <image x="-18.34" y="863.86" width="54.6" height="10705.74" xlink:href="8_Images\8_ImgID12.png"/>
  </g>
  <g style="clip-path:url(#id12)">
   <image x="-18.34" y="6131.26" width="72.5" height="564.78" xlink:href="8_Images\8_ImgID13.png"/>
  </g>
  <g style="clip-path:url(#id13)">
   <image x="-18.34" y="6636.96" width="72.5" height="4919.21" xlink:href="8_Images\8_ImgID14.png"/>
  </g>
  <g style="clip-path:url(#id14)">
   <image x="-18.34" y="863.86" width="72.5" height="5321.99" xlink:href="8_Images\8_ImgID15.png"/>
  </g>
  <path class="fil1" d="M672.62 2371.58c-19.19,229.36 -148.5,390.02 -148.5,390.02l297.04 0c0,0 -129.34,-160.66 -148.54,-390.02z"/>
  <path class="fil1" d="M949.93 2031.55c-183.94,-127.1 -274.84,-260.06 -277.25,-263.46l0 -0.18 -0.06 0.09 -0.05 -0.09 0 0.18c-2.36,3.4 -93.25,136.36 -277.2,263.46 -186.43,128.84 -228.89,289.51 -162.2,410.79 66.68,121.23 333.32,180.26 439.45,-60.51 106.14,240.77 372.82,181.74 439.45,60.51 66.7,-121.28 24.25,-281.95 -162.14,-410.79z"/>
  <path class="fil1" d="M474.7 802.37c0,30.66 3.58,59.48 10.85,86.51 7.28,27.03 19.01,50.39 35.09,70.13 16.12,19.78 37.04,35.49 62.73,47.17 25.73,11.68 57.31,17.5 94.73,17.5 43.09,0 79.33,-8.42 108.7,-25.33 29.31,-16.88 51.18,-41.49 65.47,-73.98 14.26,-32.49 21.43,-70.04 21.43,-112.64 0,-46.77 -8.46,-86.38 -25.34,-118.82 -16.9,-32.49 -40.11,-56.52 -69.75,-72.14 -29.63,-15.53 -63.65,-23.36 -102.09,-23.36 -65.45,0 -115.48,17.81 -150.01,53.43 -34.56,35.54 -51.81,86.06 -51.81,151.53zm-8.59 511.21c0,33.84 3.87,65.39 11.68,94.75 7.76,29.35 20.12,54.68 36.99,75.99 16.91,21.25 38.6,38.17 65.1,50.61 26.51,12.53 58.72,18.75 96.64,18.75 42.57,0 79.13,-8.72 109.51,-26.13 30.38,-17.41 53.49,-43.23 69.36,-77.56 15.82,-34.28 23.76,-74.83 23.76,-121.59 0,-49.81 -8.58,-92.82 -25.7,-128.98 -17.15,-36.12 -41.32,-63.59 -72.51,-82.57 -31.15,-18.97 -67.29,-28.46 -108.32,-28.46 -38.44,0 -70.79,6 -97.02,17.9 -26.22,11.99 -47.55,28.06 -63.89,48.33 -16.36,20.28 -28.08,43.99 -35.09,71.34 -7.01,27.3 -10.51,56.48 -10.51,87.62zm381.86 -268.06l1.57 10.11c58.72,22.87 103.14,56.3 133.27,100.16 30.13,43.94 45.18,96.75 45.18,158.6 0,60.77 -14.55,114.34 -43.62,160.57 -29.12,46.28 -71.32,81.94 -126.67,107.18 -55.31,25.16 -119.87,37.78 -193.68,37.78 -69.1,0 -129.73,-11.59 -181.96,-34.73 -52.18,-23.09 -92.74,-56.84 -121.55,-101.32 -28.85,-44.4 -43.27,-96.71 -43.27,-156.99 0,-45.2 7.8,-84.5 23.39,-117.66 15.58,-33.3 35.98,-60.68 61.19,-82.25 25.15,-21.53 57.02,-41.18 95.45,-58.85l-1.56 -10.12c-111.72,-48.33 -167.56,-131.21 -167.56,-248.6 0,-53.52 14.69,-101.32 44.07,-143.39 29.32,-42.11 71.13,-75.09 125.45,-98.99 54.26,-23.9 114.42,-35.85 180.43,-35.85 74.78,0 137.64,10.52 188.59,31.55 50.9,20.99 89.21,51.42 114.96,91.16 25.69,39.79 38.54,87.41 38.54,142.99 0,57.19 -14,106.42 -42.06,147.73 -28.07,41.35 -71.43,74.96 -130.16,100.92z"/>
  <path class="fil1" d="M8124.45 9951.99c19.2,-229.34 148.49,-390.03 148.49,-390.03l-297.07 0c0,0 129.38,160.69 148.58,390.03z"/>
  <path class="fil1" d="M7847.12 10292.01c183.93,127.09 274.87,260.09 277.24,263.55l0 0.1 0.09 -0.07 0 0.07 0 -0.1c2.37,-3.46 93.31,-136.46 277.24,-263.55 186.4,-128.81 228.87,-289.46 162.14,-410.75 -66.63,-121.18 -333.27,-180.3 -439.38,60.5 -106.11,-240.8 -372.83,-181.68 -439.47,-60.5 -66.68,121.29 -24.26,281.94 162.14,410.75z"/>
  <path class="fil1" d="M8322.39 11521.22c0,-30.7 -3.62,-59.47 -10.87,-86.53 -7.25,-27.03 -18.98,-50.35 -35.09,-70.14 -16.11,-19.72 -37.01,-35.45 -62.7,-47.13 -25.73,-11.71 -57.32,-17.53 -94.74,-17.53 -43.09,0 -79.34,8.42 -108.75,25.33 -29.27,16.9 -51.15,41.52 -65.43,74.05 -14.27,32.41 -21.43,70 -21.43,112.56 0,46.78 8.5,86.39 25.28,118.86 16.92,32.46 40.19,56.52 69.82,72.11 29.58,15.59 63.64,23.39 102.08,23.39 65.43,0 115.46,-17.78 150.01,-53.41 34.55,-35.57 51.82,-86.11 51.82,-151.56zm8.6 -511.25c0,-33.79 -3.85,-65.33 -11.68,-94.68 -7.79,-29.35 -20.14,-54.71 -37.02,-76.03 -16.91,-21.27 -38.62,-38.17 -65.16,-50.62 -26.44,-12.52 -58.67,-18.72 -96.57,-18.72 -42.61,0 -79.12,8.74 -109.56,26.1 -30.34,17.43 -53.48,43.24 -69.32,77.58 -15.84,34.31 -23.72,74.82 -23.72,121.6 0,49.84 8.55,92.81 25.65,128.96 17.18,36.1 41.35,63.62 72.54,82.6 31.15,19.01 67.26,28.43 108.3,28.43 38.44,0 70.8,-6 97.03,-17.92 26.22,-12 47.52,-28.04 63.9,-48.34 16.38,-20.21 28.06,-43.98 35.04,-71.25 7.03,-27.34 10.57,-56.52 10.57,-87.71zm-381.88 268.08l-1.57 -10.09c-58.71,-22.86 -103.15,-56.3 -133.27,-100.15 -30.12,-43.96 -45.2,-96.78 -45.2,-158.61 0,-60.78 14.55,-114.31 43.63,-160.55 29.18,-46.22 71.34,-81.98 126.65,-107.17 55.32,-25.23 119.94,-37.79 193.69,-37.79 69.1,0 129.74,11.58 181.92,34.67 52.28,23.11 92.78,56.89 121.6,101.32 28.82,44.43 43.27,96.75 43.27,157.02 0,45.26 -7.78,84.49 -23.4,117.69 -15.53,33.26 -35.98,60.64 -61.18,82.2 -25.15,21.59 -57.01,41.17 -95.46,58.84l1.57 10.14c111.7,48.35 167.55,131.2 167.55,248.6 0,53.55 -14.68,101.31 -44.03,143.44 -29.36,42.04 -71.16,75.07 -125.49,98.95 -54.24,23.93 -114.39,35.85 -180.4,35.85 -74.82,0 -137.66,-10.56 -188.63,-31.54 -50.84,-21.03 -89.19,-51.41 -114.93,-91.16 -25.68,-39.76 -38.53,-87.43 -38.53,-143.02 0,-57.15 14.01,-106.43 42.03,-147.7 28.06,-41.36 71.47,-74.98 130.18,-100.94z"/>
  <path class="fil1" d="M2812.36 6384.56c-38.06,455.26 -294.77,774.08 -294.77,774.08l589.56 0c0,0 -256.65,-318.82 -294.79,-774.08z"/>
  <path class="fil1" d="M3362.7 5709.86c-365.12,-252.31 -545.51,-516.17 -550.23,-523.02l0 -0.4 -0.11 0.18 -0.11 -0.18 0 0.4c-4.69,6.85 -185.14,270.71 -550.21,523.02 -369.99,255.68 -454.2,574.4 -321.81,815.17 132.31,240.5 661.51,357.8 872.13,-120.11 210.64,477.91 739.89,360.61 872.21,120.11 132.33,-240.77 48.12,-559.49 -321.87,-815.17z"/>
  <path class="fil1" d="M2812.36 9364.16c-38.06,-455.2 -294.77,-774.03 -294.77,-774.03l589.56 0c0,0 -256.65,318.83 -294.79,774.03z"/>
  <path class="fil1" d="M3362.7 10038.88c-365.12,252.27 -545.51,516.19 -550.23,523.06l0 0.37 -0.11 -0.19 -0.11 0.19 0 -0.37c-4.69,-6.87 -185.14,-270.79 -550.21,-523.06 -369.99,-255.62 -454.2,-574.43 -321.81,-815.1 132.31,-240.6 661.51,-357.86 872.13,120.05 210.64,-477.91 739.89,-360.65 872.21,-120.05 132.33,240.67 48.12,559.48 -321.87,815.1z"/>
  <path class="fil1" d="M2812.36 2980.93c-38.06,455.18 -294.77,774.05 -294.77,774.05l589.56 0c0,0 -256.65,-318.87 -294.79,-774.05z"/>
  <path class="fil1" d="M3362.7 2306.2c-365.09,-252.27 -545.51,-516.18 -550.23,-523.07l0 -0.36 -0.11 0.18 -0.11 -0.18 0 0.36c-4.68,6.89 -185.11,270.8 -550.19,523.07 -369.98,255.63 -454.22,574.44 -321.83,815.08 132.31,240.59 661.51,357.93 872.13,-120.03 210.64,477.96 739.89,360.62 872.21,120.03 132.37,-240.64 48.12,-559.45 -321.87,-815.08z"/>
  <path class="fil1" d="M6003.26 6384.56c-38.08,455.26 -294.74,774.08 -294.74,774.08l589.53 0c0,0 -256.66,-318.82 -294.79,-774.08z"/>
  <path class="fil1" d="M6553.63 5709.86c-365.13,-252.31 -545.53,-516.17 -550.23,-523.02l0 -0.4 -0.14 0.18 -0.09 -0.18 0 0.4c-4.69,6.85 -185.14,270.71 -550.18,523.02 -370.02,255.68 -454.24,574.4 -321.87,815.17 132.34,240.5 661.58,357.8 872.14,-120.11 210.66,477.91 739.9,360.61 872.23,120.11 132.34,-240.77 48.11,-559.49 -321.86,-815.17z"/>
  <path class="fil1" d="M6003.26 9364.16c-38.08,-455.2 -294.74,-774.03 -294.74,-774.03l589.53 0c0,0 -256.66,318.83 -294.79,774.03z"/>
  <path class="fil1" d="M6553.63 10038.88c-365.13,252.27 -545.53,516.19 -550.23,523.06l0 0.37 -0.14 -0.19 -0.09 0.19 0 -0.37c-4.69,-6.87 -185.14,-270.79 -550.18,-523.06 -370.02,-255.62 -454.24,-574.43 -321.87,-815.1 132.34,-240.6 661.58,-357.86 872.14,120.05 210.66,-477.91 739.9,-360.65 872.23,-120.05 132.34,240.67 48.11,559.48 -321.86,815.1z"/>
  <path class="fil1" d="M6003.26 2980.93c-38.08,455.18 -294.74,774.05 -294.74,774.05l589.53 0c0,0 -256.66,-318.87 -294.79,-774.05z"/>
  <path class="fil1" d="M6553.63 2306.2c-365.09,-252.27 -545.53,-516.18 -550.23,-523.07l0 -0.36 -0.14 0.18 -0.09 -0.18 0 0.36c-4.65,6.89 -185.09,270.8 -550.18,523.07 -370.02,255.63 -454.24,574.44 -321.87,815.08 132.34,240.59 661.58,357.93 872.14,-120.03 210.66,477.96 739.9,360.62 872.23,120.03 132.38,-240.64 48.11,-559.45 -321.86,-815.08z"/>
  <path class="fil1" d="M4407.83 4594.31c-38.09,455.23 -294.81,774.05 -294.81,774.05l589.55 0c0,0 -256.63,-318.82 -294.74,-774.05z"/>
  <path class="fil1" d="M4958.11 3919.62c-365.05,-252.31 -545.47,-516.18 -550.16,-523.07l0 -0.4 -0.12 0.22 -0.11 -0.22 0 0.4c-4.68,6.89 -185.12,270.76 -550.21,523.07 -370,255.63 -454.22,574.4 -321.85,815.13 132.33,240.54 661.53,357.8 872.17,-120.12 210.61,477.92 739.85,360.66 872.19,120.12 132.33,-240.73 48.15,-559.5 -321.91,-815.13z"/>
  <path class="fil1" d="M4407.83 7750.81c-38.09,-455.22 -294.81,-774.09 -294.81,-774.09l589.55 0c0,0 -256.63,318.87 -294.74,774.09z"/>
  <path class="fil1" d="M4958.11 8425.52c-365.05,252.3 -545.47,516.15 -550.16,523.07l0 0.38 -0.12 -0.21 -0.11 0.21 0 -0.38c-4.68,-6.92 -185.12,-270.77 -550.21,-523.07 -370,-255.63 -454.22,-574.46 -321.85,-815.14 132.33,-240.55 661.53,-357.8 872.17,120.11 210.61,-477.91 739.85,-360.66 872.19,-120.11 132.33,240.68 48.15,559.51 -321.91,815.14z"/>
 </g>
</svg>
