<?xml version="1.0" encoding="UTF-8"?>
<!DOCTYPE svg PUBLIC "-//W3C//DTD SVG 1.1//EN" "http://www.w3.org/Graphics/SVG/1.1/DTD/svg11.dtd">
<!-- Creator: CorelDRAW -->
<svg xmlns="http://www.w3.org/2000/svg" xml:space="preserve" width="100%" height="100%" version="1.1" style="shape-rendering:geometricPrecision; text-rendering:geometricPrecision; image-rendering:optimizeQuality; fill-rule:evenodd; clip-rule:evenodd"
viewBox="0 0 8815.89 12341.71"
 xmlns:xlink="http://www.w3.org/1999/xlink"
 xmlns:xodm="http://www.corel.com/coreldraw/odm/2003">
 <defs>
  <style type="text/css">
   <![CDATA[
    .fil0 {fill:#FEFEFE;fill-rule:nonzero}
    .fil1 {fill:#252422;fill-rule:nonzero}
   ]]>
  </style>
   <clipPath id="id0">
    <path d="M8474.75 12341.71l-3900.2 0 -332.73 0 -3882.7 0c0,0 0,0 0,0l3882.7 0 332.73 0 3900.2 0c0,0 225.16,-6.49 307.72,-248.46 -82.56,241.97 -307.72,248.46 -307.72,248.46zm-17.51 -17.86l-3905.21 0 -332.73 0 -3905.21 0c0,0 -32.52,-1.62 -77.55,-16.24 -97.57,-47.09 -217.65,-159.14 -217.65,-425.47l0 0 0 -3074.11 0 -2145.21c1726.2,-1.63 3452.39,-1.63 5178.59,-1.63 1200.83,0 2401.67,0 3600,0l0 2128.98 0 3074.11 0 0c0,449.83 -340.24,459.57 -340.24,459.57l0 0z"/>
   </clipPath>
   <clipPath id="id1">
    <path d="M8639.87 6161.24c-2138.98,0 -4275.47,-1.75 -6414.45,-1.75 -735.51,-1.76 -1471.02,-1.76 -2206.53,-1.76l0 -2605.94 0 -3073.68c0,-450.15 340.23,-460.7 340.23,-460.7l3905.21 0 332.73 0 3905.21 0c0,0 32.53,1.76 77.56,15.83 97.57,47.47 217.65,160.01 217.65,427.29l0 0 0 3073.67 0 2627.04c-52.54,0 -105.07,0 -157.61,0l0 0z"/>
   </clipPath>
   <clipPath id="id2">
    <path d="M8783.63 12092.79c19.88,-55.15 32.16,-127.53 32.16,-213.7l0 -5218.41 0 0 0 -499.78 0 0 0 -5700.95 0 0c0,-451.53 -341.28,-458.42 -341.28,-458.42l-17.31 0c-0.58,0 -0.81,0 -0.81,0l18.12 0c0,0 341.28,6.89 341.28,458.42l0 3077.96 0 5263.22 0 3077.96c0,86.17 -12.28,158.55 -32.16,213.7l0 0z"/>
   </clipPath>
   <clipPath id="id3">
    <path d="M8797.89 6660.51l0 -499.95 17.85 0 0 499.95 -17.85 0 0 0z"/>
   </clipPath>
   <clipPath id="id4">
    <path d="M8473.64 12341.71l-3899.22 0 -332.47 0 -3882.11 0c-7.34,0 -61.12,-3.24 -124.68,-34.1 46.45,14.62 80.67,16.24 80.67,16.24l3904.12 0 332.47 0 3904.11 0c0,0 342.25,-9.74 342.25,-459.57l0 0 0 0 0 -3074.11 0 -2128.98c4.89,0 12.22,0 17.11,0l0 2140.35 0 3078.98c0,86.07 -12.22,155.89 -31.78,212.73 -85.56,241.97 -310.47,248.46 -310.47,248.46l0 0z"/>
   </clipPath>
   <clipPath id="id5">
    <path d="M8797.9 6161.19l0 -2627.44 0 -3073.27 0 0c0,-267.86 -120,-378.88 -217.66,-426.46 22.22,7.05 47.37,17.63 73.22,33.49l0 0 0 0 0 0c-88.07,-65.21 -178.95,-66.97 -178.95,-66.97l-17.31 0 0 0 17.31 0c0,0 341.28,8.81 341.28,459.94l0 3078.56 0 2622.15c-5.96,0 -11.93,0 -17.89,0l0 0z"/>
   </clipPath>
   <clipPath id="id6">
    <path d="M17.9 6662.75l0 -505.23 0.24 0 0 505.23 -0.24 0 0 0z"/>
   </clipPath>
   <clipPath id="id7">
    <path d="M359.7 12341.71l-18.24 0c0,0 -341.16,-9.74 -341.16,-461.19l0 -347.53c5.84,-21.11 11.57,-42.22 17.54,-63.33l0.12 -2679.49 0 -2127.35c0,0 0.11,0 0.11,0l0 2145.21 0 3074.11 0 0c0,266.33 120,378.38 217.78,425.47 -22.23,-6.49 -47.49,-17.86 -73.22,-32.48l0 0c87.95,63.34 178.83,66.58 178.83,66.58l17.42 0c0.59,0 0.82,0 0.82,0l0 0z"/>
   </clipPath>
   <clipPath id="id8">
    <path d="M17.61 6157.67c0,0 0,0 0,0l0 -5073.37c-4.9,-63.44 -12.24,-126.88 -17.14,-188.56l0 -435.26c0,-451.13 340.51,-459.94 340.51,-459.94l3899.96 0 333.17 0 3882.82 0c7.34,0 61.24,3.53 122.48,33.48 -44.09,-15.86 -78.39,-15.86 -78.39,-15.86l-3904.87 0 -333.16 0 -3902.41 0c0,0 -342.97,8.82 -342.97,459.94l0 3073.28 0 2606.29 0 0z"/>
   </clipPath>
   <clipPath id="id9">
    <path d="M358.84 12341.57l-17.35 0c0,0 -90.96,-2.58 -178.88,-67.11 25.83,15.43 51.01,26.02 73.16,33.3 62.53,30.05 115.91,33.54 123.07,33.81l0 0z"/>
   </clipPath>
   <clipPath id="id10">
    <path d="M8653.4 67.15c-25.76,-15.42 -50.94,-26.01 -73.16,-33.36 -62.53,-29.98 -115.84,-33.43 -123.07,-33.78l17.35 0c0,0 90.95,2.59 178.88,67.14l0 0z"/>
   </clipPath>
   <clipPath id="id11">
    <path d="M-0 11534.47l0 -10642.01c0.1,0 0.17,0 0.27,3.03l0.04 2643.06 0 5264.87 0 2728.02c-0.14,0 -0.21,3.03 -0.31,3.03l0 0z"/>
   </clipPath>
   <clipPath id="id12">
    <path d="M0.3 6662.75l0 -505.39c5.84,0.16 11.73,0.16 17.59,0.16l0 505.23c-5.81,0 -11.75,0 -17.59,0l0 0z"/>
   </clipPath>
   <clipPath id="id13">
    <path d="M0.3 11532.12l0 -2730.11 0 -2138.91c5.84,0 11.78,0 17.59,0l0 2126.36 -0.08 2679.91c-5.9,20.92 -11.67,41.83 -17.51,62.75l0 0z"/>
   </clipPath>
   <clipPath id="id14">
    <path d="M17.89 6156.95c-5.86,0 -11.75,0 -17.59,0l0 -2617.25 -0.02 -2644.4c5.75,63.36 11.63,126.72 17.61,190.07l0 5071.58 0 0z"/>
   </clipPath>
 </defs>
 <g id="Layer_x0020_1">
  <metadata id="CorelCorpID_0Corel-Layer"/>
  <path class="fil0" d="M8474.55 0l-8133.04 0c0,0 -341.24,9.26 -341.24,460.95l0.04 3078.4 0 8341.44c0,451.55 341.2,460.84 341.2,460.84l8133.04 0c0,0 341.19,-9.29 341.19,-460.84l0 -11419.84c0,-451.69 -341.19,-460.95 -341.19,-460.95z"/>
  <g style="clip-path:url(#id0)">
   <image x="-6.13" y="6635.21" width="8826.12" height="5729.24" xlink:href="9_Images\9_ImgID1.png"/>
  </g>
  <g style="clip-path:url(#id1)">
   <image x="-6.13" y="-19.51" width="8826.12" height="6203.62" xlink:href="9_Images\9_ImgID2.png"/>
  </g>
  <g style="clip-path:url(#id2)">
   <image x="8425.28" y="-32.94" width="412.62" height="12160.2" xlink:href="9_Images\9_ImgID3.png"/>
  </g>
  <g style="clip-path:url(#id3)">
   <image x="8765.4" y="6129.51" width="72.5" height="564.78" xlink:href="9_Images\9_ImgID4.png"/>
  </g>
  <g style="clip-path:url(#id4)">
   <image x="213.16" y="6635.21" width="8624.74" height="5729.24" xlink:href="9_Images\9_ImgID5.png"/>
  </g>
  <g style="clip-path:url(#id5)">
   <image x="8425.28" y="-32.94" width="412.62" height="6217.04" xlink:href="9_Images\9_ImgID6.png"/>
  </g>
  <g style="clip-path:url(#id6)">
   <image x="-6.13" y="6129.51" width="54.6" height="564.78" xlink:href="9_Images\9_ImgID7.png"/>
  </g>
  <g style="clip-path:url(#id7)">
   <image x="-24.03" y="6635.21" width="412.62" height="5729.24" xlink:href="9_Images\9_ImgID8.png"/>
  </g>
  <g style="clip-path:url(#id8)">
   <image x="-24.03" y="-32.94" width="8642.64" height="6217.04" xlink:href="9_Images\9_ImgID9.png"/>
  </g>
  <g style="clip-path:url(#id9)">
   <image x="128.13" y="12242.72" width="260.46" height="121.73" xlink:href="9_Images\9_ImgID10.png"/>
  </g>
  <g style="clip-path:url(#id10)">
   <image x="8425.28" y="-32.94" width="260.46" height="121.73" xlink:href="9_Images\9_ImgID11.png"/>
  </g>
  <g style="clip-path:url(#id11)">
   <image x="-24.03" y="862.11" width="54.6" height="10705.74" xlink:href="9_Images\9_ImgID12.png"/>
  </g>
  <g style="clip-path:url(#id12)">
   <image x="-24.03" y="6129.51" width="72.5" height="564.78" xlink:href="9_Images\9_ImgID13.png"/>
  </g>
  <g style="clip-path:url(#id13)">
   <image x="-24.03" y="6635.21" width="72.5" height="4919.21" xlink:href="9_Images\9_ImgID14.png"/>
  </g>
  <g style="clip-path:url(#id14)">
   <image x="-24.03" y="862.11" width="72.5" height="5321.99" xlink:href="9_Images\9_ImgID15.png"/>
  </g>
  <path class="fil1" d="M733.77 2369.83c-19.16,229.36 -148.49,390.02 -148.49,390.02l297.02 0c0,0 -129.29,-160.66 -148.53,-390.02z"/>
  <path class="fil1" d="M1011.1 2029.8c-183.98,-127.1 -274.92,-260.06 -277.24,-263.46l0 -0.18 -0.09 0.09 0 -0.09 0 0.18c-2.42,3.4 -93.31,136.36 -277.25,263.46 -186.44,128.84 -228.86,289.51 -162.23,410.79 66.69,121.23 333.37,180.26 439.48,-60.51 106.1,240.77 372.83,181.74 439.47,60.51 66.72,-121.28 24.25,-281.95 -162.14,-410.79z"/>
  <path class="fil1" d="M710.05 1103.02c19.73,0 38.57,-1.7 56.48,-5.1 17.94,-3.36 35.48,-8.24 52.62,-14.77 17.14,-6.49 33.93,-14.82 50.26,-24.97 16.38,-10.16 31.1,-20.86 44.04,-32.36 4.65,-4.12 8.77,-9.58 12.44,-16.34 3.67,-6.75 6.53,-15.61 8.59,-26.49 2.11,-10.92 3.13,-28.06 3.13,-51.46 0,-71.16 -7.16,-132.02 -21.43,-182.73 -14.28,-50.7 -36.12,-88.88 -65.48,-114.52 -29.31,-25.78 -65.6,-38.62 -108.7,-38.62 -38.93,0 -71.96,6.75 -98.99,20.22 -27.03,13.56 -48.96,32.14 -65.88,55.77 -16.78,23.63 -29.22,51.42 -36.96,83.37 -7.88,31.95 -11.68,66.64 -11.68,104.01 0,77.51 15.79,137.48 47.52,180.04 31.69,42.65 76.35,63.95 134.04,63.95zm-162.14 472.27l0 -38.17c72.77,0 135.78,-16.11 189.03,-48.33 53.26,-32.23 96.18,-79.93 128.62,-142.99 32.4,-63.14 54.15,-145.89 65.03,-248.24l-7.74 -3.13c-43.73,31.19 -86.69,54.06 -129.03,68.51 -42.33,14.64 -88.2,21.93 -137.57,21.93 -58.71,0 -108.7,-12.89 -150.05,-38.62 -41.31,-25.73 -72.32,-61.8 -93.09,-108.35 -20.81,-46.45 -31.19,-100.91 -31.19,-163.26 0,-46.76 7.83,-91.02 23.41,-132.87 15.57,-41.79 38.71,-78.45 69.36,-109.86 30.7,-31.46 68.97,-56.39 114.97,-74.87 45.96,-18.4 99.62,-27.62 160.93,-27.62 109.11,0 192.22,37.68 249.37,113 57.1,75.37 85.74,183.67 85.74,324.95 0,129.38 -21.08,241.49 -63.1,336.27 -42.16,94.88 -101.1,168.68 -176.91,221.4 -75.85,52.71 -164.51,83.77 -265.83,93.13l-31.95 -42.88z"/>
  <path class="fil1" d="M8121.18 9950.24c19.2,-229.34 148.58,-390.03 148.58,-390.03l-297.07 0c0,0 129.29,160.69 148.49,390.03z"/>
  <path class="fil1" d="M7843.94 10290.26c183.93,127.09 274.87,260.09 277.2,263.55l0 0.1 0.09 -0.07 0 0.07 0 -0.1c2.41,-3.46 93.35,-136.46 277.28,-263.55 186.4,-128.81 228.82,-289.46 162.19,-410.75 -66.68,-121.18 -333.32,-180.3 -439.47,60.5 -106.07,-240.8 -372.79,-181.68 -439.48,-60.5 -66.68,121.29 -24.21,281.94 162.19,410.75z"/>
  <path class="fil1" d="M8144.94 11217.08c-19.73,0 -38.57,1.69 -56.47,5.07 -17.95,3.38 -35.49,8.26 -52.63,14.82 -17.1,6.45 -33.88,14.81 -50.26,24.94 -16.38,10.16 -31.06,20.88 -44.04,32.31 -4.65,4.13 -8.77,9.63 -12.44,16.42 -3.67,6.73 -6.49,15.54 -8.59,26.52 -2.1,10.83 -3.13,28 -3.13,51.39 0,71.17 7.2,132.06 21.43,182.72 14.28,50.71 36.16,88.89 65.48,114.54 29.35,25.75 65.6,38.63 108.7,38.63 38.98,0 72.01,-6.75 98.99,-20.26 26.99,-13.53 48.96,-32.1 65.88,-55.73 16.83,-23.64 29.22,-51.43 36.97,-83.37 7.83,-31.99 11.72,-66.64 11.72,-104.07 0,-77.42 -15.89,-137.44 -47.57,-180.02 -31.69,-42.61 -76.35,-63.91 -134.04,-63.91zm162.14 -472.27l0 38.16c-72.76,0 -135.73,16.12 -189.03,48.34 -53.21,32.2 -96.13,79.91 -128.58,142.98 -32.44,63.14 -54.15,145.86 -65.11,248.25l7.79 3.1c43.72,-31.12 86.73,-54.07 129.02,-68.55 42.33,-14.59 88.21,-21.86 137.61,-21.86 58.63,0 108.66,12.88 149.97,38.63 41.35,25.68 72.32,61.8 93.13,108.3 20.81,46.5 31.24,100.92 31.24,163.29 0,46.75 -7.84,90.99 -23.45,132.86 -15.58,41.77 -38.72,78.42 -69.37,109.89 -30.66,31.4 -68.92,56.34 -114.97,74.82 -45.96,18.39 -99.62,27.64 -160.93,27.64 -109.06,0 -192.21,-37.69 -249.36,-113 -57.15,-75.4 -85.75,-183.7 -85.75,-324.95 0,-129.4 21.08,-241.51 63.15,-336.31 42.11,-94.82 101.05,-168.62 176.9,-221.37 75.86,-52.74 164.47,-83.77 265.84,-93.09l31.9 42.87z"/>
  <path class="fil1" d="M6018.39 7093.34c38.08,-455.27 294.78,-774.13 294.78,-774.13l-589.57 0c0,0 256.7,318.86 294.79,774.13z"/>
  <path class="fil1" d="M5468.06 7768.08c365.1,252.25 545.54,516.15 550.24,522.97l0 0.39 0.09 -0.14 0.09 0.14 0 -0.39c4.7,-6.82 185.09,-270.72 550.19,-522.97 370.01,-255.67 454.28,-574.49 321.9,-815.17 -132.33,-240.55 -661.53,-357.89 -872.18,120.12 -210.61,-478.01 -739.85,-360.67 -872.19,-120.12 -132.38,240.68 -48.11,559.5 321.86,815.17z"/>
  <path class="fil1" d="M6018.34 9362.41c-38.04,-455.2 -294.78,-774.03 -294.78,-774.03l589.57 0c0,0 -256.66,318.83 -294.79,774.03z"/>
  <path class="fil1" d="M6568.67 10037.13c-365.1,252.27 -545.49,516.19 -550.24,523.06l0 0.37 -0.09 -0.19 -0.09 0.19 0 -0.37c-4.7,-6.87 -185.14,-270.79 -550.23,-523.06 -370.02,-255.62 -454.2,-574.43 -321.82,-815.1 132.34,-240.6 661.54,-357.86 872.14,120.05 210.65,-477.91 739.9,-360.65 872.23,-120.05 132.34,240.67 48.11,559.48 -321.9,815.1z"/>
  <path class="fil1" d="M6018.34 2979.18c-38.04,455.18 -294.78,774.05 -294.78,774.05l589.57 0c0,0 -256.66,-318.87 -294.79,-774.05z"/>
  <path class="fil1" d="M6568.67 2304.45c-365.1,-252.27 -545.49,-516.18 -550.24,-523.07l0 -0.36 -0.09 0.18 -0.09 -0.18 0 0.36c-4.65,6.89 -185.09,270.8 -550.19,523.07 -369.97,255.63 -454.24,574.44 -321.86,815.08 132.34,240.59 661.54,357.93 872.14,-120.03 210.65,477.96 739.9,360.62 872.23,120.03 132.38,-240.64 48.11,-559.45 -321.9,-815.08z"/>
  <path class="fil1" d="M6018.34 5248.28c-38.04,455.22 -294.78,774.04 -294.78,774.04l589.57 0c0,0 -256.66,-318.82 -294.79,-774.04z"/>
  <path class="fil1" d="M6568.67 4573.59c-365.1,-252.32 -545.49,-516.22 -550.24,-523.03l0 -0.4 -0.09 0.18 -0.09 -0.18 0 0.4c-4.65,6.81 -185.09,270.71 -550.19,523.03 -369.97,255.58 -454.24,574.4 -321.86,815.08 132.34,240.59 661.54,357.89 872.14,-120.07 210.65,477.96 739.9,360.66 872.23,120.07 132.38,-240.68 48.11,-559.5 -321.9,-815.08z"/>
  <path class="fil1" d="M2794.54 7093.34c38.08,-455.27 294.78,-774.13 294.78,-774.13l-589.57 0c0,0 256.66,318.86 294.79,774.13z"/>
  <path class="fil1" d="M2244.21 7768.08c365.1,252.25 545.49,516.15 550.24,522.97l0 0.39 0.09 -0.14 0.09 0.14 0 -0.39c4.7,-6.82 185.14,-270.72 550.19,-522.97 369.97,-255.67 454.28,-574.49 321.86,-815.17 -132.34,-240.55 -661.54,-357.89 -872.14,120.12 -210.65,-478.01 -739.85,-360.67 -872.19,-120.12 -132.38,240.68 -48.15,559.5 321.86,815.17z"/>
  <path class="fil1" d="M2794.49 9362.41c-38.08,-455.2 -294.74,-774.03 -294.74,-774.03l589.53 0c0,0 -256.66,318.83 -294.79,774.03z"/>
  <path class="fil1" d="M3344.82 10037.13c-365.05,252.27 -545.49,516.19 -550.24,523.06l0 0.37 -0.09 -0.19 -0.13 0.19 0 -0.37c-4.66,-6.87 -185.05,-270.79 -550.15,-523.06 -370.01,-255.62 -454.24,-574.43 -321.86,-815.1 132.34,-240.6 661.54,-357.86 872.14,120.05 210.65,-477.91 739.85,-360.65 872.19,-120.05 132.42,240.67 48.11,559.48 -321.86,815.1z"/>
  <path class="fil1" d="M2794.49 2979.18c-38.08,455.18 -294.74,774.05 -294.74,774.05l589.53 0c0,0 -256.66,-318.87 -294.79,-774.05z"/>
  <path class="fil1" d="M3344.82 2304.45c-365.05,-252.27 -545.49,-516.18 -550.24,-523.07l0 -0.36 -0.09 0.18 -0.13 -0.18 0 0.36c-4.66,6.89 -185.05,270.8 -550.15,523.07 -370.01,255.63 -454.24,574.44 -321.86,815.08 132.34,240.59 661.54,357.93 872.14,-120.03 210.65,477.96 739.85,360.62 872.19,120.03 132.42,-240.64 48.11,-559.45 -321.86,-815.08z"/>
  <path class="fil1" d="M2794.49 5248.28c-38.08,455.22 -294.74,774.04 -294.74,774.04l589.53 0c0,0 -256.66,-318.82 -294.79,-774.04z"/>
  <path class="fil1" d="M3344.82 4573.59c-365.05,-252.32 -545.49,-516.22 -550.24,-523.03l0 -0.4 -0.09 0.18 -0.13 -0.18 0 0.4c-4.66,6.81 -185.05,270.71 -550.15,523.03 -370.01,255.58 -454.24,574.4 -321.86,815.08 132.34,240.59 661.54,357.89 872.14,-120.07 210.65,477.96 739.85,360.66 872.19,120.07 132.42,-240.68 48.11,-559.5 -321.86,-815.08z"/>
  <path class="fil1" d="M4406.44 6382.85c-38.08,455.18 -294.79,774 -294.79,774l589.58 0c0,0 -256.66,-318.82 -294.79,-774z"/>
  <path class="fil1" d="M4956.76 5708.16c-365.09,-252.32 -545.53,-516.18 -550.23,-523.12l0 -0.35 -0.09 0.22 -0.13 -0.22 0 0.35c-4.66,6.94 -185.1,270.8 -550.19,523.12 -369.97,255.58 -454.24,574.4 -321.87,815.08 132.34,240.59 661.54,357.84 872.19,-120.12 210.61,477.96 739.85,360.71 872.23,120.12 132.33,-240.68 48.06,-559.5 -321.91,-815.08z"/>
 </g>
</svg>
