<?xml version="1.0" encoding="UTF-8"?>
<!DOCTYPE svg PUBLIC "-//W3C//DTD SVG 1.1//EN" "http://www.w3.org/Graphics/SVG/1.1/DTD/svg11.dtd">
<!-- Creator: CorelDRAW -->
<svg xmlns="http://www.w3.org/2000/svg" xml:space="preserve" width="100%" height="100%" version="1.1" style="shape-rendering:geometricPrecision; text-rendering:geometricPrecision; image-rendering:optimizeQuality; fill-rule:evenodd; clip-rule:evenodd"
viewBox="0 0 8704.8 12186.79"
 xmlns:xlink="http://www.w3.org/1999/xlink"
 xmlns:xodm="http://www.corel.com/coreldraw/odm/2003">
 <defs>
  <style type="text/css">
   <![CDATA[
    .fil0 {fill:#FEFEFE;fill-rule:nonzero}
    .fil1 {fill:#E63A2B;fill-rule:nonzero}
   ]]>
  </style>
   <clipPath id="id0">
    <path d="M8368.86 12186.08c0,0 133.56,-3.21 230.02,-117.18 -96.46,113.97 -230.02,117.18 -230.02,117.18zm-19.79 -17.66l-3853.43 0 -328.95 0 -3855.9 0c0,0 -32.16,0 -76.68,-14.44 -96.46,-46.55 -215.18,-157.31 -215.18,-422.15l0 0 0 -3035.27 0 -2117.15c1704.12,0 3408.24,-1.6 5114.83,-1.6 1184.72,0 2369.44,0 3554.16,0l0 2101.09 0 3035.27 0 0c0,446.23 -338.85,454.25 -338.85,454.25l0 0z"/>
   </clipPath>
   <clipPath id="id1">
    <path d="M8687.92 6083.7c-51.94,0 -103.88,0 -155.82,0 -2112.21,0 -4221.96,0 -6334.17,-1.74 -727.16,0 -1454.31,-1.73 -2179,-1.73l0 -2571.75 0 -3036.51c0,-445.68 336.38,-454.35 336.38,-454.35l3855.9 0 326.48 0 3855.9 0c0,0 34.63,1.74 79.15,15.61 96.46,46.82 215.18,157.81 215.18,421.4l0 0 0 3034.77 0 2594.3 0 0z"/>
   </clipPath>
   <clipPath id="id2">
    <path d="M8600 12068.39c58.62,-65.23 104.74,-171.65 104.74,-336.43l0 -5156.34 0 0 0 -490.91 0 0 0 -5630.09 0 0c0,-446.29 -336.86,-453.16 -336.86,-453.16l-16.58 0c-1.05,0 -1.4,0 -1.4,0l17.98 0c0,0 336.86,6.87 336.86,453.16l0 3041.62 0 5194.1 0 3041.62c0,164.78 -46.12,271.2 -104.74,336.43l0 0z"/>
   </clipPath>
   <clipPath id="id3">
    <path d="M8687.15 6577.07l0 -493.56 17.65 0 0 493.56 -17.65 0 0 0z"/>
   </clipPath>
   <clipPath id="id4">
    <path d="M8367.92 12186.08l-3850.61 0 -328.53 0 -3833.7 0c0,0 -55.56,-1.61 -123.2,-32.1 45.9,14.44 79.72,14.44 79.72,14.44l3855.44 0 328.53 0 3855.44 0c0,0 335.78,-8.02 335.78,-454.25l0 0 0 0 0 -3035.27 0 -2101.09c7.25,0 12.08,0 16.91,0l0 2113.93 0 3040.09c0,165.33 -45.9,271.26 -103.87,337.07 -99.05,113.97 -231.91,117.18 -231.91,117.18l0 0 0 0z"/>
   </clipPath>
   <clipPath id="id5">
    <path d="M8704.74 6083.6c-5.61,0 -11.56,0 -17.63,0l0 -2593.1 0 -3036.58 0 0c0,-262.61 -118.05,-373.92 -214.38,-420.88 21.84,8.7 46.47,19.13 71.93,33.05l0 0 0 0 0 0c-86.76,-62.61 -176.78,-66.09 -176.78,-66.09l-16.58 0 0 0 16.58 0c0,0 336.86,8.69 336.86,455.66l0 3040.06 0 2587.88 0 0z"/>
   </clipPath>
   <clipPath id="id6">
    <path d="M17.67 6579.25l0 -498.85 0.23 0 0 498.85 -0.23 0 0 0z"/>
   </clipPath>
   <clipPath id="id7">
    <path d="M337.2 12186.08c0,0 -336.93,-8.03 -336.93,-454.25l0 -343.49c5.81,-20.87 11.51,-41.74 17.32,-62.6l0.11 -2646.84 0 -2099.49c0.11,0 0.11,0 0.22,0l0 2117.15 0 3035.27 0 0c0,264.84 118.57,375.6 215.13,422.15 -22.02,-8.03 -46.94,-17.66 -72.42,-33.71l0 0c86.72,64.2 176.57,65.81 176.57,65.81l0 0z"/>
   </clipPath>
   <clipPath id="id8">
    <path d="M17.46 6080.12c0,0 0,0 0,0l0 -5008.8c-4.84,-62.61 -12.1,-125.22 -16.94,-187.83l0 -427.83c0,-446.97 336.48,-455.66 336.48,-455.66l3851.33 0 329.22 0 3834.39 0c7.26,0 60.51,5.21 121.03,33.04 -45.99,-13.91 -79.88,-15.65 -79.88,-15.65l-3853.76 0 -329.21 0 -3856.18 0c0,0 -336.48,10.43 -336.48,455.66l0 3034.85 0 2572.22 0 0z"/>
   </clipPath>
   <clipPath id="id9">
    <path d="M355.13 12186.78l-17.99 0 0 0c0,0 -89.76,-2.61 -176.55,-66.24 25.52,15.23 50.41,25.68 72.41,32.89 66.25,31.8 122.13,33.35 122.13,33.35l0 0z"/>
   </clipPath>
   <clipPath id="id10">
    <path d="M8544.65 66.7c-25.38,-15.16 -50.09,-25.62 -71.97,-32.84 -61.03,-29.29 -113.23,-33.05 -121.32,-33.47l16.55 0c0,0 89.97,2.58 176.74,66.31l0 0z"/>
   </clipPath>
   <clipPath id="id11">
    <path d="M-0 11389.24l0 -10507.86c0.04,0 0.18,0 0.22,2.99l0.1 2612.01 0 5197.08 0 2692.79c-0.1,2.99 -0.23,2.99 -0.32,2.99l0 0z"/>
   </clipPath>
   <clipPath id="id12">
    <path d="M0.32 6579.25l0 -498.85c5.72,0 11.57,0 17.35,0l0 498.85c-5.78,0 -11.63,0 -17.35,0l0 0z"/>
   </clipPath>
   <clipPath id="id13">
    <path d="M0.32 11387.2l0 -2695.76 0 -2112.17c5.72,0 11.57,0 17.35,0l0 2099.76 -0.08 2646.08c-5.82,20.7 -11.55,41.39 -17.27,62.09l0 0z"/>
   </clipPath>
   <clipPath id="id14">
    <path d="M17.67 6080.89c-5.78,0 -11.63,0 -17.35,0l0 -2586.39 -0.1 -2610.23c5.7,62.58 11.55,125.15 17.45,187.73l0 5008.89 0 0z"/>
   </clipPath>
 </defs>
 <g id="Layer_x0020_1">
  <metadata id="CorelCorpID_0Corel-Layer"/>
  <path class="fil0" d="M8367.9 0.4l-8030.75 0c0,0 -336.93,9.15 -336.93,455.17l0.09 3039.64 0 8236.54c0,445.89 336.84,455.04 336.84,455.04l8030.75 0c0,0 336.89,-9.15 336.89,-455.04l0 -11276.18c0,-446.02 -336.89,-455.17 -336.89,-455.17z"/>
  <g style="clip-path:url(#id0)">
   <image x="-15.69" y="6548.92" width="8725.87" height="5662.84" xlink:href="4_Images\4_ImgID1.png"/>
  </g>
  <g style="clip-path:url(#id1)">
   <image x="-15.69" y="-1.45" width="8725.87" height="6118.1" xlink:href="4_Images\4_ImgID2.png"/>
  </g>
  <g style="clip-path:url(#id2)">
   <image x="8315.92" y="-19.13" width="411.94" height="12111.55" xlink:href="4_Images\4_ImgID3.png"/>
  </g>
  <g style="clip-path:url(#id3)">
   <image x="8651.84" y="6058.3" width="76.02" height="548.96" xlink:href="4_Images\4_ImgID4.png"/>
  </g>
  <g style="clip-path:url(#id4)">
   <image x="205.31" y="6548.92" width="8522.55" height="5662.84" xlink:href="4_Images\4_ImgID5.png"/>
  </g>
  <g style="clip-path:url(#id5)">
   <image x="8315.92" y="-19.13" width="411.94" height="6135.78" xlink:href="4_Images\4_ImgID6.png"/>
  </g>
  <g style="clip-path:url(#id6)">
   <image x="-15.69" y="6058.3" width="53.92" height="548.96" xlink:href="4_Images\4_ImgID7.png"/>
  </g>
  <g style="clip-path:url(#id7)">
   <image x="-33.37" y="6548.92" width="394.26" height="5662.84" xlink:href="4_Images\4_ImgID8.png"/>
  </g>
  <g style="clip-path:url(#id8)">
   <image x="-33.37" y="-19.13" width="8540.23" height="6135.78" xlink:href="4_Images\4_ImgID9.png"/>
  </g>
  <g style="clip-path:url(#id9)">
   <image x="134.59" y="12087.12" width="243.98" height="124.64" xlink:href="4_Images\4_ImgID10.png"/>
  </g>
  <g style="clip-path:url(#id10)">
   <image x="8315.92" y="-19.13" width="257.24" height="106.96" xlink:href="4_Images\4_ImgID11.png"/>
  </g>
  <g style="clip-path:url(#id11)">
   <image x="-33.37" y="860.44" width="53.92" height="10555.73" xlink:href="4_Images\4_ImgID12.png"/>
  </g>
  <g style="clip-path:url(#id12)">
   <image x="-33.37" y="6058.3" width="71.6" height="548.96" xlink:href="4_Images\4_ImgID13.png"/>
  </g>
  <g style="clip-path:url(#id13)">
   <image x="-33.37" y="6548.92" width="71.6" height="4867.25" xlink:href="4_Images\4_ImgID14.png"/>
  </g>
  <g style="clip-path:url(#id14)">
   <image x="-33.37" y="860.44" width="71.6" height="5256.21" xlink:href="4_Images\4_ImgID15.png"/>
  </g>
  <path class="fil1" d="M913.96 2353.94c-181.71,133.26 -271.43,272.58 -273.77,276.2l0 0.22 -0.09 -0.13 0 0.13 0 -0.22c-2.39,-3.62 -92.16,-142.94 -273.78,-276.2 -184.09,-135.08 -225.99,-303.48 -160.13,-430.55 65.81,-127.12 329.11,-189.04 433.91,63.38 104.79,-252.42 368.09,-190.5 433.95,-63.38 65.9,127.07 23.91,295.47 -160.09,430.55z"/>
  <path class="fil1" d="M390.02 1185.26l300.86 0 0 -191.61c0,-48.26 0.75,-102.23 2.34,-162.03 1.55,-59.76 3.32,-104.75 5.44,-135.03l-7.78 0 -300.86 477.88 0 10.79zm210.87 355.5c31.83,-8.23 53.09,-17.33 63.87,-27.32 10.74,-10.03 17.81,-24.22 21.17,-42.7 3.32,-18.47 4.95,-46.67 4.95,-84.64l0 -126.23 -427.85 0 0 -57.68 450.22 -679.53 110.01 0 0 662.6 16.18 0c29.74,0 51.05,-2.17 63.87,-6.54 12.81,-4.38 23.46,-12.07 31.95,-23.12 8.44,-11 16.27,-29.13 23.47,-54.23l58.48 0 -9.24 158.5 -184.71 0 0 126.23c0,34.39 1.19,59.49 3.49,75.41 2.3,15.91 6.1,28.5 11.54,37.7 5.39,9.24 13.35,16.93 23.87,23.07 10.47,6.14 27.53,12.33 51.13,18.48l0 37.74 -312.4 0 0 -37.74z"/>
  <path class="fil1" d="M7726.21 9813.01c181.66,-133.22 271.3,-272.58 273.73,-276.21l0 -0.22 0 0.09 0 -0.09 0 0.22c2.47,3.63 92.11,142.99 273.77,276.21 184.18,135.07 226.12,303.47 160.18,430.54 -65.99,127.17 -329.16,189.05 -433.95,-63.38 -104.76,252.43 -368.27,190.55 -433.91,63.38 -65.95,-127.07 -24,-295.47 160.18,-430.54z"/>
  <path class="fil1" d="M8250.06 10981.73l-300.91 0 0 191.65c0,48.22 -0.71,102.19 -2.47,161.95 -1.42,59.8 -3.19,104.75 -5.31,135.07l7.78 0 300.91 -477.88 0 -10.79zm-210.96 -355.54c-31.74,8.22 -52.91,17.33 -63.83,27.32 -10.96,10.03 -17.99,24.26 -21.17,42.74 -3.18,18.43 -4.95,46.71 -4.95,84.64l0 126.19 427.9 0 0 57.72 -450.13 679.48 -110.06 0 0 -662.55 -16.22 0c-29.97,0 -51.14,2.21 -63.87,6.54 -13.04,4.38 -23.64,12.11 -32.09,23.12 -8.48,11.05 -16.22,29.04 -23.29,54.23l-58.56 0 9.19 -158.54 184.84 0 0 -126.19c0,-34.39 -1.41,-59.54 -3.53,-75.41 -2.48,-15.86 -6.37,-28.46 -11.63,-37.7 -5.3,-9.19 -13.43,-16.97 -24,-23.11 -10.21,-6.15 -27.49,-12.29 -50.78,-18.48l0 -37.66 312.18 0 0 37.66z"/>
  <path class="fil1" d="M3283.41 2890.74c-360.5,264.45 -538.71,541.05 -543.31,548.25l0 0.36 -0.13 -0.22 -0.04 0.22 0 -0.36c-4.69,-7.2 -182.9,-283.8 -543.35,-548.25 -365.31,-268.02 -448.45,-602.3 -317.84,-854.51 130.66,-252.24 653.23,-375.21 861.23,125.84 207.96,-501.05 730.58,-378.08 861.23,-125.84 130.74,252.21 47.56,586.49 -317.79,854.51z"/>
  <path class="fil1" d="M2196.63 9296.36c360.49,-264.45 538.61,-541.05 543.3,-548.25l0 -0.36 0.04 0.23 0.13 -0.23 0 0.36c4.65,7.2 182.86,283.8 543.35,548.25 365.31,268.02 448.45,602.31 317.79,854.51 -130.69,252.24 -653.22,375.21 -861.27,-125.84 -207.91,501.05 -730.53,378.08 -861.18,125.84 -130.7,-252.2 -47.52,-586.49 317.84,-854.51z"/>
  <path class="fil1" d="M6499.23 2890.74c-360.58,264.45 -538.7,541.05 -543.34,548.25l0 0.36 -0.09 -0.22 -0.09 0.22 0 -0.36c-4.69,-7.2 -182.85,-283.8 -543.3,-548.25 -365.4,-268.02 -448.49,-602.3 -317.84,-854.51 130.65,-252.24 653.22,-375.21 861.23,125.84 207.96,-501.05 730.57,-378.08 861.23,-125.84 130.69,252.21 47.55,586.49 -317.8,854.51z"/>
  <path class="fil1" d="M5412.41 9296.36c360.53,-264.45 538.66,-541.05 543.3,-548.25l0 -0.36 0.09 0.23 0.09 -0.23 0 0.36c4.68,7.2 182.85,283.8 543.34,548.25 365.35,268.02 448.45,602.31 317.8,854.51 -130.66,252.24 -653.19,375.21 -861.23,-125.84 -207.92,501.05 -730.53,378.08 -861.19,125.84 -130.69,-252.2 -47.6,-586.49 317.8,-854.51z"/>
 </g>
</svg>
