<?xml version="1.0" encoding="UTF-8"?>
<!DOCTYPE svg PUBLIC "-//W3C//DTD SVG 1.1//EN" "http://www.w3.org/Graphics/SVG/1.1/DTD/svg11.dtd">
<!-- Creator: CorelDRAW -->
<svg xmlns="http://www.w3.org/2000/svg" xml:space="preserve" width="100%" height="100%" version="1.1" style="shape-rendering:geometricPrecision; text-rendering:geometricPrecision; image-rendering:optimizeQuality; fill-rule:evenodd; clip-rule:evenodd"
viewBox="0 0 8704.79 12186.79"
 xmlns:xlink="http://www.w3.org/1999/xlink"
 xmlns:xodm="http://www.corel.com/coreldraw/odm/2003">
 <defs>
  <style type="text/css">
   <![CDATA[
    .fil0 {fill:#FEFEFE;fill-rule:nonzero}
    .fil1 {fill:#E63A2B;fill-rule:nonzero}
   ]]>
  </style>
   <clipPath id="id0">
    <path d="M8368.6 12186.08c0,0 187.97,-4.82 281.96,-194.22 -93.99,189.4 -281.96,194.22 -281.96,194.22zm-19.79 -17.66l-3853.43 0 -328.95 0 -3855.91 0c0,0 -32.15,0 -76.67,-14.44 -98.93,-46.55 -215.18,-157.31 -215.18,-422.15l0 0 0 -3035.27 0 -2117.15c1704.12,0 3408.24,-1.6 5114.83,-1.6 1184.72,0 2369.44,0 3554.16,0l0 2101.09 0 3035.27 0 0c0,446.23 -338.85,454.25 -338.85,454.25l0 0z"/>
   </clipPath>
   <clipPath id="id1">
    <path d="M8687.66 6083.7c-51.94,0 -103.88,0 -155.82,0 -2112.22,0 -4221.96,0 -6334.17,-1.74 -727.16,0 -1454.32,-1.73 -2179,-1.73l0 -2571.75 0 -3036.51c0,-445.68 336.37,-454.35 336.37,-454.35l3855.91 0 326.48 0 3855.9 0c0,0 34.63,1.74 79.15,15.61 96.46,46.82 215.18,157.81 215.18,421.4l0 0 0 3034.77 0 2594.3 0 0z"/>
   </clipPath>
   <clipPath id="id2">
    <path d="M8651.32 11991.98c31.75,-64.87 53.47,-146.81 53.47,-259.48l0 -5155.42 0 0 0 -495.06 0 0 0 -5626.58 0 0c0,-447.26 -336.86,-454.09 -336.86,-454.09l-17.16 0c-0.47,0 -0.93,0 -0.93,0l18.09 0c0,0 336.86,6.83 336.86,454.09l0 3038.63 0 5196.39 0 3042.04c0,112.67 -21.72,194.61 -53.47,259.48l0 0z"/>
   </clipPath>
   <clipPath id="id3">
    <path d="M8687.09 6577.07l0 -493.56 17.68 0 0 493.56 -17.68 0 0 0z"/>
   </clipPath>
   <clipPath id="id4">
    <path d="M8367.12 12186.08l-3851.33 0 -326.8 0 -3834.39 0c0,0 -55.67,-1.61 -121.03,-32.1 43.57,14.44 77.46,14.44 77.46,14.44l3856.18 0 326.79 0 3856.18 0c0,0 336.47,-8.02 336.47,-454.25l0 0 0 0 0 -3035.27 0 -2101.09c7.27,0 12.11,0 16.95,0l0 2113.93 0 3040.09c0,112.36 -19.37,197.43 -53.26,260.03 -94.4,189.4 -283.22,194.22 -283.22,194.22l0 0 0 0z"/>
   </clipPath>
   <clipPath id="id5">
    <path d="M336.88 12186.78l0 0c0,0 -0.69,0 -2.48,-0.16 1.79,0.16 2.85,0.16 2.85,0.16l-0.37 0z"/>
   </clipPath>
   <clipPath id="id6">
    <path d="M8704.79 6083.6c-6.19,0 -11.56,0 -17.75,0l0 -2593.1 0 -3036.58 0 0c0,-262.61 -118.39,-373.92 -214.72,-420.88 22.07,8.7 46.82,19.13 72.51,33.05l0 0 0 0 0 0c-87.11,-62.61 -176.9,-66.09 -176.9,-66.09l-17.16 0 0 0 17.16 0c0,0 336.86,8.69 336.86,455.66l0 3040.06 0 2587.88 0 0z"/>
   </clipPath>
   <clipPath id="id7">
    <path d="M17.59 6579.25l0 -498.85 0 0 0 498.85 0 0 0 0z"/>
   </clipPath>
   <clipPath id="id8">
    <path d="M334.41 12186.08c-32.45,-1.61 -334.09,-32.1 -334.09,-454.25l0 -343.49c5.66,-20.87 11.31,-41.74 17.29,-62.6l0 -2646.84 0 -2099.49 0 0 0 2117.15 0 3035.27 0 0c0,264.84 118.48,375.6 215.19,422.15 -21.88,-8.03 -46.86,-17.66 -72.37,-33.71l0 0c78.02,57.78 158.51,65.81 173.98,65.81l0 0z"/>
   </clipPath>
   <clipPath id="id9">
    <path d="M16.91 6080.12l0 0 0 -5008.8c-4.83,-62.61 -12.07,-125.22 -16.91,-187.83l0 -427.83c0,-446.97 338.2,-455.66 338.2,-455.66l3850.61 0 328.53 0 3833.7 0c9.67,0 60.4,5.21 120.79,33.04 -45.9,-13.91 -77.3,-15.65 -77.3,-15.65l-3855.45 0 -328.53 0 -3855.44 0c0,0 -338.2,10.43 -338.2,455.66l0 3034.85 0 2572.22 0 0z"/>
   </clipPath>
   <clipPath id="id10">
    <path d="M354.86 12186.78l-17.65 0c0,0 -1.04,0 -2.82,-0.18 -15.5,-1.02 -95.97,-8.93 -173.91,-66.06 25.43,15.23 50.43,25.68 72.31,32.89 66.38,31.8 122.07,33.35 122.07,33.35l0 0z"/>
   </clipPath>
   <clipPath id="id11">
    <path d="M8544.77 66.7c-25.66,-15.19 -50.41,-25.68 -72.47,-32.87 -61,-29.26 -112.73,-33.02 -121.58,-33.44l17.29 0c0,0 89.69,2.58 176.76,66.31l0 0z"/>
   </clipPath>
   <clipPath id="id12">
    <path d="M-0 11389.24l0 -10507.86c0,0 0,2.99 0.3,2.99l0 2612.01 0 5197.08 0 2695.78c-0.3,0 -0.3,0 -0.3,0l0 0z"/>
   </clipPath>
   <clipPath id="id13">
    <path d="M0.3 6579.25l0 -498.85c5.67,0 11.33,0 17.29,0l0 498.85c-5.96,0 -11.62,0 -17.29,0l0 0z"/>
   </clipPath>
   <clipPath id="id14">
    <path d="M0.3 11387.2l0 -2695.76 0 -2112.17c5.67,0 11.33,0 17.29,0l0 2099.76 0 2646.08c-5.96,20.7 -11.62,41.39 -17.29,62.09l0 0z"/>
   </clipPath>
   <clipPath id="id15">
    <path d="M17.59 6080.89c-5.96,0 -11.62,0 -17.29,0l0 -2586.39 0 -2610.23c5.67,62.58 11.33,125.15 17.29,187.73l0 5008.89 0 0z"/>
   </clipPath>
 </defs>
 <g id="Layer_x0020_1">
  <metadata id="CorelCorpID_0Corel-Layer"/>
  <path class="fil0" d="M8367.98 0.4l-8030.74 0c0,0 -336.94,9.15 -336.94,455.17l0 11276.18c0,445.89 336.94,455.04 336.94,455.04l8030.74 0c0,0 336.8,-9.15 336.8,-455.04l0 -11276.18c0,-446.02 -336.8,-455.17 -336.8,-455.17z"/>
  <g style="clip-path:url(#id0)">
   <image x="-6.06" y="6548.92" width="8725.87" height="5662.84" xlink:href="5_Images\5_ImgID1.png"/>
  </g>
  <g style="clip-path:url(#id1)">
   <image x="-6.06" y="-1.45" width="8725.87" height="6118.1" xlink:href="5_Images\5_ImgID2.png"/>
  </g>
  <g style="clip-path:url(#id2)">
   <image x="8325.55" y="-19.13" width="411.94" height="12045.26" xlink:href="5_Images\5_ImgID3.png"/>
  </g>
  <g style="clip-path:url(#id3)">
   <image x="8665.89" y="6058.3" width="71.6" height="548.96" xlink:href="5_Images\5_ImgID4.png"/>
  </g>
  <g style="clip-path:url(#id4)">
   <image x="197.26" y="6548.92" width="8540.23" height="5662.84" xlink:href="5_Images\5_ImgID5.png"/>
  </g>
  <g style="clip-path:url(#id5)">
   <image x="298.92" y="12157.84" width="58.34" height="53.92" xlink:href="5_Images\5_ImgID6.png"/>
  </g>
  <g style="clip-path:url(#id6)">
   <image x="8325.55" y="-19.13" width="411.94" height="6135.78" xlink:href="5_Images\5_ImgID7.png"/>
  </g>
  <g style="clip-path:url(#id7)">
   <image x="-6.06" y="6058.3" width="58.34" height="548.96" xlink:href="5_Images\5_ImgID8.png"/>
  </g>
  <g style="clip-path:url(#id8)">
   <image x="-19.32" y="6548.92" width="376.58" height="5662.84" xlink:href="5_Images\5_ImgID9.png"/>
  </g>
  <g style="clip-path:url(#id9)">
   <image x="-19.32" y="-19.13" width="8522.55" height="6135.78" xlink:href="5_Images\5_ImgID10.png"/>
  </g>
  <g style="clip-path:url(#id10)">
   <image x="130.96" y="12087.12" width="261.66" height="124.64" xlink:href="5_Images\5_ImgID11.png"/>
  </g>
  <g style="clip-path:url(#id11)">
   <image x="8325.55" y="-19.13" width="243.98" height="106.96" xlink:href="5_Images\5_ImgID12.png"/>
  </g>
  <g style="clip-path:url(#id12)">
   <image x="-19.32" y="860.44" width="53.92" height="10555.73" xlink:href="5_Images\5_ImgID13.png"/>
  </g>
  <g style="clip-path:url(#id13)">
   <image x="-19.32" y="6058.3" width="71.6" height="548.96" xlink:href="5_Images\5_ImgID14.png"/>
  </g>
  <g style="clip-path:url(#id14)">
   <image x="-19.32" y="6548.92" width="71.6" height="4867.25" xlink:href="5_Images\5_ImgID15.png"/>
  </g>
  <g style="clip-path:url(#id15)">
   <image x="-19.32" y="860.44" width="71.6" height="5256.21" xlink:href="5_Images\5_ImgID16.png"/>
  </g>
  <path class="fil1" d="M924.25 2353.94c-181.66,133.26 -271.65,272.58 -273.73,276.2l0 0.22 -0.4 -0.13 0 0.13 0 -0.22c-2.07,-3.62 -92.06,-142.94 -273.72,-276.2 -183.83,-135.08 -225.77,-303.48 -160.18,-430.55 65.99,-127.12 329.15,-189.04 433.9,63.38 104.8,-252.42 368.32,-190.5 434.31,-63.38 65.59,127.07 23.6,295.47 -160.18,430.55z"/>
  <path class="fil1" d="M330.52 1581.6l0 -163.19 93.13 0c15.55,52.33 38.8,90.79 69.88,115.45 31.02,24.58 70.89,36.91 120.26,36.91 68.11,0 119.61,-20.56 154.52,-61.57 34.92,-41.02 52.6,-102.32 52.6,-183.92 0,-54.36 -9.19,-99.4 -27.89,-135.07 -18.34,-35.63 -43.4,-61.44 -74.43,-77.31 -31.38,-15.91 -67.76,-23.86 -109.35,-23.86 -34.96,0 -64.93,2.21 -89.99,6.58 -25.37,4.29 -52.2,11.1 -80.75,20.38l-61.75 -36.2 0 -506.35 424.05 0c17.28,0 29.97,-1.37 37.7,-4.2 7.78,-2.83 13.79,-7.2 18.39,-13.13 4.55,-5.83 10.21,-17.01 16.22,-33.46l59.98 0 -11.32 178.53 -442.74 0 0 337.86c26.83,-11.32 55.78,-19.8 87.16,-25.42 31.03,-5.66 62.45,-8.48 93.84,-8.48 61.03,0 115,12.46 162.25,37.3 47.3,24.88 83.63,60.33 109.35,106.26 25.77,45.88 38.5,99.14 38.5,159.64 0,68.78 -14.5,127.74 -43.05,177.02 -28.95,49.24 -70.19,86.72 -124.86,112.31 -54.37,25.68 -118.55,38.5 -192.98,38.5 -88.93,0 -181.7,-18.21 -278.72,-54.58z"/>
  <path class="fil1" d="M7728.86 9813.01c181.66,-133.22 271.82,-272.58 274.03,-276.21l0 -0.22 0 0.09 0 -0.09 0 0.22c2.21,3.63 92.38,142.99 274.04,276.21 183.87,135.07 225.86,303.47 160,430.54 -65.86,127.17 -328.84,189.05 -434.04,-63.38 -104.75,252.43 -368.18,190.55 -433.59,63.38 -65.86,-127.07 -24.31,-295.47 159.56,-430.54z"/>
  <path class="fil1" d="M8322.9 10585.44l0 163.14 -93.26 0c-15.47,-52.33 -38.9,-90.79 -69.4,-115.45 -31.38,-24.62 -71.6,-36.95 -120.66,-36.95 -68.07,0 -119.78,20.55 -154.7,61.61 -34.92,40.98 -52.6,102.28 -52.6,183.87 0,54.41 9.73,99.41 27.85,135.12 18.56,35.58 43.31,61.35 74.7,77.31 31.38,15.86 68.06,23.91 109.17,23.91 34.92,0 64.97,-2.26 90.17,-6.63 25.19,-4.33 52.15,-11.1 80.44,-20.38l61.88 36.16 0 506.35 -423.88 0c-17.23,0 -30.05,1.46 -38.01,4.28 -7.51,2.79 -13.7,7.21 -18.12,13.04 -4.86,5.88 -10.16,17.06 -16.35,33.46l-60.11 0 11.49 -178.48 442.88 0 0 -337.81c-26.96,11.22 -56.14,19.71 -87.52,25.37 -30.94,5.66 -62.32,8.44 -93.7,8.44 -61,0 -114.92,-12.46 -162.21,-37.3 -47.3,-24.89 -83.54,-60.29 -109.18,-106.26 -26.07,-45.88 -38.45,-99.05 -38.45,-159.6 0,-68.74 14.14,-127.79 42.87,-177.02 28.73,-49.24 70.28,-86.68 124.65,-112.36 54.36,-25.68 118.89,-38.45 193.15,-38.45 88.84,0 181.66,18.21 278.9,54.63z"/>
  <path class="fil1" d="M3287.86 2883.54c-360.53,264.49 -538.66,541.04 -543.25,548.29l0 0.36 0 -0.22 0 0.22 0 -0.36c-4.95,-7.25 -183.12,-283.8 -543.66,-548.29 -365.13,-268.03 -448.36,-602.27 -317.48,-854.51 130.52,-252.25 653,-375.21 861.14,125.88 207.78,-501.09 730.57,-378.13 861.09,-125.88 130.88,252.24 47.65,586.48 -317.84,854.51z"/>
  <path class="fil1" d="M2200.95 9289.2c360.89,-264.49 538.71,-541.05 543.66,-548.25l0 -0.4 0 0.22 0 -0.22 0 0.4c4.59,7.2 182.72,283.76 543.25,548.25 365.49,267.98 448.72,602.26 317.84,854.51 -130.52,252.24 -652.96,375.21 -861.09,-125.88 -207.83,501.09 -730.62,378.12 -861.14,125.88 -130.88,-252.25 -47.65,-586.53 317.48,-854.51z"/>
  <path class="fil1" d="M4895.84 6349.09c-360.53,264.49 -538.7,541.05 -543.3,548.29l0 0.36 0 -0.22 -0.35 0.22 0 -0.36c-4.55,-7.24 -182.72,-283.8 -543.26,-548.29 -365.13,-268.03 -448.4,-602.26 -317.88,-854.51 130.92,-252.2 653.36,-375.21 861.49,125.88 207.83,-501.09 730.62,-378.08 861.14,-125.88 130.52,252.25 47.65,586.48 -317.84,854.51z"/>
  <path class="fil1" d="M6503.78 2883.54c-360.54,264.49 -538.66,541.04 -543.26,548.29l0 0.36 -0.35 -0.22 0 0.22 0 -0.36c-4.6,-7.25 -182.77,-283.8 -543.3,-548.29 -365.14,-268.03 -448.36,-602.27 -317.84,-854.51 130.87,-252.25 653.36,-375.21 861.14,125.88 208.13,-501.09 730.62,-378.13 861.27,-125.88 130.83,252.24 47.29,586.48 -317.66,854.51z"/>
  <path class="fil1" d="M5416.87 9289.2c360.53,-264.49 538.7,-541.05 543.3,-548.25l0 -0.4 0 0.22 0.35 -0.22 0 0.4c4.6,7.2 182.72,283.76 543.26,548.25 364.95,267.98 448.49,602.26 317.66,854.51 -130.65,252.24 -653.14,375.21 -861.27,-125.88 -207.78,501.09 -730.27,378.12 -861.14,125.88 -130.52,-252.25 -47.3,-586.53 317.84,-854.51z"/>
 </g>
</svg>
