<?xml version="1.0" encoding="UTF-8"?>
<!DOCTYPE svg PUBLIC "-//W3C//DTD SVG 1.1//EN" "http://www.w3.org/Graphics/SVG/1.1/DTD/svg11.dtd">
<!-- Creator: CorelDRAW -->
<svg xmlns="http://www.w3.org/2000/svg" xml:space="preserve" width="100%" height="100%" version="1.1" style="shape-rendering:geometricPrecision; text-rendering:geometricPrecision; image-rendering:optimizeQuality; fill-rule:evenodd; clip-rule:evenodd"
viewBox="0 0 8705.67 12186.79"
 xmlns:xlink="http://www.w3.org/1999/xlink"
 xmlns:xodm="http://www.corel.com/coreldraw/odm/2003">
 <defs>
  <style type="text/css">
   <![CDATA[
    .fil0 {fill:#FEFEFE;fill-rule:nonzero}
    .fil1 {fill:#E63A2B;fill-rule:nonzero}
   ]]>
  </style>
   <clipPath id="id0">
    <path d="M8368.24 12186.08c0,0 187.97,-4.82 284.43,-194.22 -96.46,189.4 -284.43,194.22 -284.43,194.22zm-17.31 -17.66l-3855.91 0 -328.95 0 -3853.43 0c0,0 -34.63,0 -79.15,-14.44 -96.46,-46.55 -215.17,-157.31 -215.17,-422.15l0 0 0 -3035.27 0 -2117.15c1704.11,0 3410.7,-1.6 5114.82,-1.6 1184.72,0 2369.44,0 3554.16,0l0 2101.09 0 3035.27 0 0c0,446.23 -336.37,454.25 -336.37,454.25l0 0z"/>
   </clipPath>
   <clipPath id="id1">
    <path d="M8687.3 6083.7c-51.94,0 -103.88,0 -155.82,0 -2109.74,0 -4221.96,0 -6334.17,-1.74 -724.68,0 -1451.84,-1.73 -2178.99,-1.73l0 -2571.75 0 -3036.51c0,-445.68 336.37,-454.35 336.37,-454.35l3855.9 0 328.95 0 3855.91 0c0,0 32.15,1.74 76.67,15.61 96.46,46.82 215.18,157.81 215.18,421.4l0 0 0 3034.77 0 2594.3 0 0z"/>
   </clipPath>
   <clipPath id="id2">
    <path d="M8652.46 11991.98c31.4,-64.87 53.01,-146.81 53.01,-259.48l0 -5155.42 0 0 0 -495.06 0 0 0 -5626.58 0 0c0,-447.26 -336.75,-454.09 -336.75,-454.09l-16.81 0c-0.93,0 -1.28,0 -1.28,0l18.09 0c0,0 336.75,6.83 336.75,454.09l0 3038.63 0 5196.39 0 3042.04c0,112.67 -21.61,194.61 -53.01,259.48l0 0z"/>
   </clipPath>
   <clipPath id="id3">
    <path d="M8687.82 6577.07l0 -493.56 17.67 0 0 493.56 -17.67 0 0 0z"/>
   </clipPath>
   <clipPath id="id4">
    <path d="M8369.89 12186.08l-3853.02 0 -328.54 0 -3833.7 0c0,0 -55.56,-1.61 -120.78,-32.1 45.9,14.44 77.3,14.44 77.3,14.44l3855.44 0 328.53 0 3855.44 0c0,0 338.2,-8.02 338.2,-454.25l0 0 0 0 0 -3035.27 0 -2101.09c4.83,0 12.08,0 16.91,0l0 2113.93 0 3040.09c0,112.36 -21.74,197.43 -53.14,260.03 -96.63,189.4 -282.64,194.22 -282.64,194.22l0 0 0 0z"/>
   </clipPath>
   <clipPath id="id5">
    <path d="M8705.47 6083.6c-5.73,0 -11.45,0 -17.64,0l0 -2593.1 0 -3036.58 0 0c0,-262.61 -118.04,-373.92 -214.84,-420.88 22.07,8.7 46.82,19.13 72.04,33.05l0 0 0 0 0 0c-86.63,-62.61 -176.31,-66.09 -176.31,-66.09l-16.81 0 0 0 16.81 0c0,0 336.75,8.69 336.75,455.66l0 3040.06 0 2587.88 0 0z"/>
   </clipPath>
   <clipPath id="id6">
    <path d="M18.51 6579.25l0 -498.85 0 0 0 498.85 0 0 0 0z"/>
   </clipPath>
   <clipPath id="id7">
    <path d="M337.64 12186.08c0,0 -336.86,-8.03 -336.86,-454.25l0 -343.49c5.76,-20.87 11.52,-41.74 17.29,-62.6l0.45 -2646.84 0 -2099.49 0 0 0 2117.15 0 3035.27 0 0c0,264.84 118.42,375.6 215.27,422.15 -22.15,-8.03 -47.35,-17.66 -72.55,-33.71l0 0c86.67,64.2 176.4,65.81 176.4,65.81l0 0z"/>
   </clipPath>
   <clipPath id="id8">
    <path d="M19.33 6080.12l0 0 0 -5008.8c-7.25,-62.61 -12.08,-125.22 -19.33,-187.83l0 -427.83c0,-446.97 338.2,-455.66 338.2,-455.66l3850.61 0 328.53 0 3833.7 0c9.66,0 60.39,5.21 120.78,33.04 -43.48,-13.91 -77.3,-15.65 -77.3,-15.65l-3855.44 0 -328.53 0 -3855.44 0c0,0 -335.78,10.43 -335.78,455.66l0 3034.85 0 2572.22 0 0z"/>
   </clipPath>
   <clipPath id="id9">
    <path d="M355.76 12186.78l-18.15 0 0 0c0,0 -89.69,-2.61 -176.31,-66.24 25.16,15.23 50.39,25.68 72.48,32.89 66.28,31.8 121.98,33.35 121.98,33.35l0 0z"/>
   </clipPath>
   <clipPath id="id10">
    <path d="M8545.05 66.7c-25.17,-15.16 -49.93,-25.62 -72.06,-32.84 -60.58,-29.29 -112.72,-33.05 -121.09,-33.47l16.81 0c0,0 89.69,2.58 176.34,66.31l0 0z"/>
   </clipPath>
   <clipPath id="id11">
    <path d="M0.83 11389.24l0 -10507.86c0,0 0,2.99 0,2.99l0 2612.01 0 5197.08 0 2695.78c0,0 0,0 0,0l0 0z"/>
   </clipPath>
   <clipPath id="id12">
    <path d="M0.84 6579.25l0 -498.85c5.75,0 11.48,0 17.67,0l0 498.85c-6.19,0 -11.92,0 -17.67,0l0 0z"/>
   </clipPath>
   <clipPath id="id13">
    <path d="M0.84 11387.2l0 -2695.76 0 -2112.17c5.75,0 11.48,0 17.67,0l0 2099.76 -0.43 2646.08c-5.76,20.7 -11.49,41.39 -17.24,62.09l0 0z"/>
   </clipPath>
   <clipPath id="id14">
    <path d="M18.51 6080.89c-6.19,0 -11.92,0 -17.67,0l0 -2586.39 0 -2610.23c5.75,62.58 11.48,125.15 17.67,187.73l0 5008.89 0 0z"/>
   </clipPath>
 </defs>
 <g id="Layer_x0020_1">
  <metadata id="CorelCorpID_0Corel-Layer"/>
  <path class="fil0" d="M8368.69 0.4l-8031.06 0c0,0 -336.8,9.15 -336.8,455.17l0 11276.18c0,445.89 336.8,455.04 336.8,455.04l8031.06 0c0,0 336.8,-9.15 336.8,-455.04l0 -11276.18c0,-446.02 -336.8,-455.17 -336.8,-455.17z"/>
  <g style="clip-path:url(#id0)">
   <image x="-8.89" y="6548.92" width="8725.87" height="5662.84" xlink:href="6_Images\6_ImgID1.png"/>
  </g>
  <g style="clip-path:url(#id1)">
   <image x="-8.89" y="-1.45" width="8725.87" height="6118.1" xlink:href="6_Images\6_ImgID2.png"/>
  </g>
  <g style="clip-path:url(#id2)">
   <image x="8322.72" y="-19.13" width="411.94" height="12045.26" xlink:href="6_Images\6_ImgID3.png"/>
  </g>
  <g style="clip-path:url(#id3)">
   <image x="8663.06" y="6058.3" width="71.6" height="548.96" xlink:href="6_Images\6_ImgID4.png"/>
  </g>
  <g style="clip-path:url(#id4)">
   <image x="212.11" y="6548.92" width="8522.55" height="5662.84" xlink:href="6_Images\6_ImgID5.png"/>
  </g>
  <g style="clip-path:url(#id5)">
   <image x="8322.72" y="-19.13" width="411.94" height="6135.78" xlink:href="6_Images\6_ImgID6.png"/>
  </g>
  <g style="clip-path:url(#id6)">
   <image x="-8.89" y="6058.3" width="58.34" height="548.96" xlink:href="6_Images\6_ImgID7.png"/>
  </g>
  <g style="clip-path:url(#id7)">
   <image x="-26.57" y="6548.92" width="398.68" height="5662.84" xlink:href="6_Images\6_ImgID8.png"/>
  </g>
  <g style="clip-path:url(#id8)">
   <image x="-26.57" y="-19.13" width="8522.55" height="6135.78" xlink:href="6_Images\6_ImgID9.png"/>
  </g>
  <g style="clip-path:url(#id9)">
   <image x="128.13" y="12087.12" width="257.24" height="124.64" xlink:href="6_Images\6_ImgID10.png"/>
  </g>
  <g style="clip-path:url(#id10)">
   <image x="8322.72" y="-19.13" width="243.98" height="106.96" xlink:href="6_Images\6_ImgID11.png"/>
  </g>
  <g style="clip-path:url(#id11)">
   <image x="-26.57" y="860.44" width="58.34" height="10555.73" xlink:href="6_Images\6_ImgID12.png"/>
  </g>
  <g style="clip-path:url(#id12)">
   <image x="-26.57" y="6058.3" width="76.02" height="548.96" xlink:href="6_Images\6_ImgID13.png"/>
  </g>
  <g style="clip-path:url(#id13)">
   <image x="-26.57" y="6548.92" width="76.02" height="4867.25" xlink:href="6_Images\6_ImgID14.png"/>
  </g>
  <g style="clip-path:url(#id14)">
   <image x="-26.57" y="860.44" width="76.02" height="5256.21" xlink:href="6_Images\6_ImgID15.png"/>
  </g>
  <path class="fil1" d="M924.6 2353.94c-181.66,133.26 -271.38,272.58 -273.59,276.2l0 0.22 0 -0.13 0 0.13 0 -0.22c-2.65,-3.62 -92.38,-142.94 -274.04,-276.2 -183.87,-135.08 -225.86,-303.48 -160,-430.55 65.86,-127.12 329.28,-189.04 434.04,63.38 104.75,-252.42 367.74,-190.5 434.04,-63.38 65.85,127.07 23.86,295.47 -160.45,430.55z"/>
  <path class="fil1" d="M674.88 1031.27c-25.2,0 -49.51,2.87 -72.49,8.48 -23.87,5.62 -45.53,13.88 -66.3,24.67 -20.33,10.74 -40.22,24.35 -59.67,40.79 -6.19,5.62 -11.05,11.5 -13.7,17.64 -5.31,9.77 -8.84,21.79 -10.61,36.2 -1.33,14.36 -1.77,38.45 -1.77,72.31 0,98.03 15.91,172.69 49.06,223.96 32.71,51.31 82.66,76.91 148.96,76.91 38.89,0 71.16,-6.63 97.23,-19.98 26.52,-13.31 47.3,-31.65 63.21,-55.03 16.35,-23.34 27.85,-50.79 34.92,-82.35 7.07,-31.55 10.61,-65.76 10.61,-102.71 0,-75.94 -15.92,-135.03 -47.3,-177.33 -31.38,-42.35 -75.14,-63.56 -132.15,-63.56zm229.39 -466.31l0 37.75c-79.12,0 -149.39,16.88 -210.39,50.74 -60.99,33.9 -111.38,83.63 -151.6,149.31 -40.67,65.68 -68.95,143.64 -85.31,233.9l7.52 3.09c43.31,-30.76 85.74,-53.34 127.73,-67.71 41.55,-14.36 87.08,-21.52 135.69,-21.52 58.35,0 107.41,12.64 148.07,38.05 41.11,25.42 71.61,61.04 91.94,106.96 20.77,45.97 30.94,99.67 30.94,161.24 0,66.7 -12.82,125.53 -38.46,176.67 -25.63,51.01 -65.41,91.14 -118.89,120.35 -53.93,29.26 -119.78,43.89 -198.46,43.89 -112.27,0 -196.69,-34.91 -254.15,-104.66 -57.46,-69.75 -85.74,-172.6 -85.74,-308.6 0,-91.32 14.58,-176.71 42.87,-256.27 29.17,-79.47 69.39,-148.86 122.43,-208.14 53.04,-59.22 114.48,-105.9 183.87,-140.02 69.84,-34.12 143.21,-53.22 220.12,-57.33l31.82 42.3z"/>
  <path class="fil1" d="M7734.42 9813.01c181.22,-133.22 271.39,-272.58 273.6,-276.21l0 -0.22 0 0.09 0 -0.09 0 0.22c2.21,3.63 92.38,142.99 274.04,276.21 183.87,135.07 225.41,303.47 160,430.54 -65.86,127.17 -329.29,189.05 -434.04,-63.38 -104.75,252.43 -368.18,190.55 -433.6,63.38 -66.3,-127.07 -24.31,-295.47 160,-430.54z"/>
  <path class="fil1" d="M7984.15 11135.68c25.19,0 49.5,-2.83 72.49,-8.44 23.42,-5.66 45.52,-13.88 66.3,-24.71 20.33,-10.74 40.22,-24.31 59.67,-40.71 6.18,-5.61 10.6,-11.54 13.7,-17.72 5.3,-9.73 8.84,-21.79 10.16,-36.2 1.77,-14.32 2.21,-38.41 2.21,-72.31 0,-97.99 -16.35,-172.69 -49.06,-223.92 -33.15,-51.31 -82.65,-76.99 -149.39,-76.99 -38.45,0 -70.72,6.67 -96.8,20.02 -26.52,13.35 -47.29,31.69 -63.65,55.03 -15.91,23.33 -27.4,50.83 -34.47,82.34 -7.07,31.56 -10.17,65.81 -10.17,102.72 0,75.98 15.47,135.07 46.85,177.42 30.94,42.34 75.14,63.47 132.16,63.47zm-229.39 466.3l0 -37.66c79.11,0 149.39,-16.97 209.94,-50.82 61.44,-33.86 111.83,-83.63 152.05,-149.27 40.22,-65.68 68.95,-143.64 84.86,-233.99l-7.51 -3c-43.32,30.76 -85.31,53.34 -127.3,67.71 -41.54,14.32 -87.07,21.52 -136.13,21.52 -57.46,0 -106.96,-12.68 -147.63,-38.05 -41.1,-25.42 -71.6,-61.09 -91.93,-107.05 -20.78,-45.88 -30.94,-99.58 -30.94,-161.2 0,-66.65 12.82,-125.57 38.45,-176.58 25.64,-51.09 65.42,-91.22 118.9,-120.44 53.92,-29.26 119.78,-43.85 198.45,-43.85 112.27,0 196.69,34.88 253.71,104.67 57.46,69.75 86.19,172.64 86.19,308.56 0,91.31 -14.59,176.71 -43.32,256.27 -28.73,79.51 -69.39,148.9 -121.99,208.17 -53.04,59.19 -114.47,105.95 -184.31,140.03 -69.39,34.12 -142.76,53.22 -219.67,57.28l-31.82 -42.3z"/>
  <path class="fil1" d="M3301.21 2880.75c-360.67,264.49 -538.79,541.05 -543.65,548.3l0 0.35 0 -0.22 0 0.22 0 -0.35c-4.86,-7.25 -182.99,-283.81 -543.66,-548.3 -365.09,-268.02 -448.18,-602.26 -317.79,-854.51 130.83,-252.24 653.27,-375.21 861.45,125.88 207.73,-501.09 730.62,-378.12 861,-125.88 130.83,252.25 47.74,586.49 -317.35,854.51z"/>
  <path class="fil1" d="M2213.9 9286.37c360.67,-264.45 538.8,-541 543.66,-548.21l0 -0.4 0 0.23 0 -0.23 0 0.4c4.86,7.21 182.98,283.76 543.65,548.25 365.09,268.03 448.18,602.31 317.35,854.47 -130.38,252.29 -653.27,375.21 -861,-125.79 -208.18,501 -730.62,378.08 -861.45,125.79 -130.83,-252.25 -47.3,-586.44 317.79,-854.51z"/>
  <path class="fil1" d="M6514.96 2880.75c-360.67,264.49 -538.79,541.05 -543.66,548.3l0 0.35 0 -0.22 0 0.22 0 -0.35c-4.86,-7.25 -182.98,-283.81 -543.21,-548.3 -365.53,-268.02 -448.62,-602.26 -318.23,-854.51 131.27,-252.24 653.71,-375.21 861.44,125.88 208.18,-501.09 730.62,-378.12 861.45,-125.88 130.83,252.25 47.74,586.49 -317.79,854.51z"/>
  <path class="fil1" d="M3301.21 6346.35c-360.67,264.45 -538.79,540.96 -543.65,548.16l0 0.4 0 -0.18 0 0.18 0 -0.4c-4.86,-7.2 -182.99,-283.71 -543.66,-548.16 -365.09,-268.11 -448.18,-602.31 -317.79,-854.64 130.83,-252.21 653.27,-375.12 861.45,125.92 207.73,-501.04 730.62,-378.13 861,-125.92 130.83,252.33 47.74,586.53 -317.35,854.64z"/>
  <path class="fil1" d="M6514.96 6346.35c-360.67,264.45 -538.79,540.96 -543.66,548.16l0 0.4 0 -0.18 0 0.18 0 -0.4c-4.86,-7.2 -182.98,-283.71 -543.21,-548.16 -365.53,-268.11 -448.62,-602.31 -318.23,-854.64 131.27,-252.21 653.71,-375.12 861.44,125.92 208.18,-501.04 730.62,-378.13 861.45,-125.92 130.83,252.33 47.74,586.53 -317.79,854.64z"/>
  <path class="fil1" d="M5428.09 9286.37c360.23,-264.45 538.35,-541 543.21,-548.21l0 -0.4 0 0.23 0 -0.23 0 0.4c4.87,7.21 182.99,283.76 543.66,548.25 365.53,268.03 448.18,602.31 317.79,854.47 -130.83,252.29 -653.27,375.21 -861.45,-125.79 -207.73,501 -730.17,378.08 -861.44,125.79 -130.39,-252.25 -47.3,-586.44 318.23,-854.51z"/>
 </g>
</svg>
