<?xml version="1.0" encoding="UTF-8"?>
<!DOCTYPE svg PUBLIC "-//W3C//DTD SVG 1.1//EN" "http://www.w3.org/Graphics/SVG/1.1/DTD/svg11.dtd">
<!-- Creator: CorelDRAW -->
<svg xmlns="http://www.w3.org/2000/svg" xml:space="preserve" width="100%" height="100%" version="1.1" style="shape-rendering:geometricPrecision; text-rendering:geometricPrecision; image-rendering:optimizeQuality; fill-rule:evenodd; clip-rule:evenodd"
viewBox="0 0 8704.15 12186.79"
 xmlns:xlink="http://www.w3.org/1999/xlink"
 xmlns:xodm="http://www.corel.com/coreldraw/odm/2003">
 <defs>
  <style type="text/css">
   <![CDATA[
    .fil0 {fill:#FEFEFE;fill-rule:nonzero}
    .fil1 {fill:#E63A2B;fill-rule:nonzero}
   ]]>
  </style>
   <clipPath id="id0">
    <path d="M8366.77 12186.08c0,0 190.45,-4.82 284.44,-194.22 -93.99,189.4 -284.44,194.22 -284.44,194.22zm-17.31 -17.66l-3855.9 0 -326.48 0 -3855.91 0c0,0 -32.15,0 -76.67,-14.44 -98.93,-46.55 -215.18,-157.31 -215.18,-422.15l0 0 0 -3035.27 0 -2117.15c1704.12,0 3408.24,-1.6 5112.35,-1.6 1184.72,0 2371.92,0 3556.64,0l0 2101.09 0 3035.27c0,446.23 -338.85,454.25 -338.85,454.25l0 0z"/>
   </clipPath>
   <clipPath id="id1">
    <path d="M8688.31 6083.7c-51.94,0 -103.88,0 -155.82,0 -2112.22,0 -4221.96,0 -6334.17,-1.74 -727.16,0 -1454.32,-1.73 -2179,-1.73l0 -2571.75 0 -3036.51c0,-445.68 336.37,-454.35 336.37,-454.35l3855.91 0 326.48 0 3855.9 0c0,0 32.15,1.74 79.15,15.61 96.46,46.82 215.18,157.81 215.18,421.4l0 0 0 3034.77 0 2594.3 0 0z"/>
   </clipPath>
   <clipPath id="id2">
    <path d="M8651.55 11991.98c27.67,-54.63 47.17,-122.91 52.19,-211.68l0 0c-5.02,88.77 -24.52,157.05 -52.19,211.68zm52.19 -11584.34c-22.53,-399.46 -335.92,-406.29 -335.92,-406.29l-16.35 0c-0.81,0 -1.28,0 -1.28,0l17.63 0c0,0 313.39,6.83 335.92,406.29l0 0z"/>
   </clipPath>
   <clipPath id="id3">
    <path d="M8687.41 6577.07l16.15 0 0 -493.56 -16.15 0 0 493.56z"/>
   </clipPath>
   <clipPath id="id4">
    <path d="M8368.37 12186.08l-3850.61 0 -328.54 0 -3833.7 0c0,0 -55.56,-1.61 -123.2,-32.1 45.9,14.44 79.72,14.44 79.72,14.44l3855.44 0 326.12 0 3855.44 0c0,0 338.2,-8.02 338.2,-454.25l0 -3035.27 0 -2101.09 16.91 0 0 5200.57c-4.83,89.88 -24.16,158.9 -53.15,213.48 -94.21,189.4 -282.63,194.22 -282.63,194.22z"/>
   </clipPath>
   <clipPath id="id5">
    <path d="M337.23 12186.78l0 0c0,0 -0.44,0 -0.44,-0.04 0,0.04 0.44,0.04 0.44,0.04l0 0z"/>
   </clipPath>
   <clipPath id="id6">
    <path d="M8703.74 6083.6l-16.34 0 0 -2593.1 0 -3036.58c0,-262.61 -118.4,-373.92 -214.84,-420.88 22.18,8.7 46.93,19.13 72.04,33.05 -86.64,-62.61 -176.78,-66.09 -176.78,-66.09l-16.35 0 16.35 0c0,0 313.39,8.69 335.92,408.7l0 5674.9z"/>
   </clipPath>
   <clipPath id="id7">
    <path d="M17.67 6579.25l0 -498.85 0.45 0 0 498.85 -0.45 0 0 0z"/>
   </clipPath>
   <clipPath id="id8">
    <path d="M336.81 12186.08c-18.55,0 -336.37,-20.87 -336.37,-454.25l0 -343.49c5.7,-20.87 11.51,-41.74 17.21,-62.6l0 -2646.84 0 -2099.49 0.45 0 0 2117.15 0 3035.27 0 0c0,264.84 118.46,375.6 215.23,422.15 -22.46,-8.03 -46.82,-17.66 -72.86,-33.71l0 0c82.14,60.99 167.07,65.81 176.34,65.81l0 0z"/>
   </clipPath>
   <clipPath id="id9">
    <path d="M17.8 6080.12l0 0 0 -5008.8c-4.83,-62.61 -12.08,-125.22 -16.91,-187.83l0 -427.83c0,-446.97 335.78,-455.66 335.78,-455.66l3853.03 0 326.12 0 3836.11 0c7.25,0 60.39,5.21 120.79,33.04 -45.9,-13.91 -77.31,-15.65 -77.31,-15.65l-3855.44 0 -328.53 0 -3855.44 0c0,0 -338.2,10.43 -338.2,455.66l0 3034.85 0 2572.22 0 0z"/>
   </clipPath>
   <clipPath id="id10">
    <path d="M355.35 12186.78l-18.11 0c0,0 -0.42,0 -0.42,-0.03 -9.34,-0.46 -94.19,-6.05 -176.41,-66.21 26.07,15.23 50.41,25.68 72.95,32.89 66.32,31.8 121.99,33.35 121.99,33.35l0 0z"/>
   </clipPath>
   <clipPath id="id11">
    <path d="M8544.66 66.7c-25.22,-15.16 -49.94,-25.62 -72.11,-32.84 -60.95,-29.29 -113.08,-33.05 -121.03,-33.47l16.33 0c0,0 90.19,2.58 176.81,66.31l0 0z"/>
   </clipPath>
   <clipPath id="id12">
    <path d="M-0 11389.24l0 -10507.86c0.43,0 0.43,0 0.43,2.99l0 2612.01 0 5197.08 0 2695.78c0,0 0,0 -0.43,0l0 0z"/>
   </clipPath>
   <clipPath id="id13">
    <path d="M0.44 6579.25l0 -498.85c6.19,0 11.49,0 17.23,0l0 498.85c-5.74,0 -11.04,0 -17.23,0l0 0z"/>
   </clipPath>
   <clipPath id="id14">
    <path d="M0.44 11388.58l0 -2697.14 0 -2112.17c6.19,0 11.49,0 17.23,0l0 2099.76 0 2646.08c-5.74,20.7 -11.51,41.39 -17.23,63.47l0 0z"/>
   </clipPath>
   <clipPath id="id15">
    <path d="M17.67 6080.89c-5.74,0 -11.04,0 -17.23,0l0 -2586.39 0 -2610.23c5.72,62.58 11.49,125.15 17.23,187.73l0 5008.89 0 0z"/>
   </clipPath>
 </defs>
 <g id="Layer_x0020_1">
  <metadata id="CorelCorpID_0Corel-Layer"/>
  <path class="fil0" d="M8367.84 0.4l-8030.61 0c0,0 -336.8,9.15 -336.8,455.17l0 11276.18c0,445.89 336.8,455.04 336.8,455.04l8030.61 0c0,0 313.42,-8.57 335.92,-408.77l0 -11368.74c-22.5,-400.31 -335.92,-408.88 -335.92,-408.88z"/>
  <g style="clip-path:url(#id0)">
   <image x="-12.83" y="6548.92" width="8725.87" height="5662.84" xlink:href="7_Images\7_ImgID1.png"/>
  </g>
  <g style="clip-path:url(#id1)">
   <image x="-12.83" y="-1.45" width="8725.87" height="6118.1" xlink:href="7_Images\7_ImgID2.png"/>
  </g>
  <g style="clip-path:url(#id2)">
   <image x="8318.78" y="-19.13" width="411.94" height="12045.26" xlink:href="7_Images\7_ImgID3.png"/>
  </g>
  <g style="clip-path:url(#id3)">
   <image x="8659.12" y="6058.3" width="71.6" height="548.96" xlink:href="7_Images\7_ImgID4.png"/>
  </g>
  <g style="clip-path:url(#id4)">
   <image x="208.17" y="6548.92" width="8522.55" height="5662.84" xlink:href="7_Images\7_ImgID5.png"/>
  </g>
  <g style="clip-path:url(#id5)">
   <image x="309.83" y="12157.84" width="53.92" height="53.92" xlink:href="7_Images\7_ImgID6.png"/>
  </g>
  <g style="clip-path:url(#id6)">
   <image x="8318.78" y="-19.13" width="411.94" height="6135.78" xlink:href="7_Images\7_ImgID7.png"/>
  </g>
  <g style="clip-path:url(#id7)">
   <image x="-12.83" y="6058.3" width="53.92" height="548.96" xlink:href="7_Images\7_ImgID8.png"/>
  </g>
  <g style="clip-path:url(#id8)">
   <image x="-30.51" y="6548.92" width="394.26" height="5662.84" xlink:href="7_Images\7_ImgID9.png"/>
  </g>
  <g style="clip-path:url(#id9)">
   <image x="-30.51" y="-19.13" width="8522.55" height="6135.78" xlink:href="7_Images\7_ImgID10.png"/>
  </g>
  <g style="clip-path:url(#id10)">
   <image x="137.45" y="12087.12" width="243.98" height="124.64" xlink:href="7_Images\7_ImgID11.png"/>
  </g>
  <g style="clip-path:url(#id11)">
   <image x="8318.78" y="-19.13" width="257.24" height="106.96" xlink:href="7_Images\7_ImgID12.png"/>
  </g>
  <g style="clip-path:url(#id12)">
   <image x="-30.51" y="860.44" width="58.34" height="10555.73" xlink:href="7_Images\7_ImgID13.png"/>
  </g>
  <g style="clip-path:url(#id13)">
   <image x="-30.51" y="6058.3" width="71.6" height="548.96" xlink:href="7_Images\7_ImgID14.png"/>
  </g>
  <g style="clip-path:url(#id14)">
   <image x="-30.51" y="6548.92" width="71.6" height="4867.25" xlink:href="7_Images\7_ImgID15.png"/>
  </g>
  <g style="clip-path:url(#id15)">
   <image x="-30.51" y="860.44" width="71.6" height="5256.21" xlink:href="7_Images\7_ImgID16.png"/>
  </g>
  <path class="fil1" d="M960.88 2353.94c-181.66,133.26 -271.82,272.58 -274.03,276.2l0 0.22 0 -0.13 0 0.13 0 -0.22c-2.21,-3.62 -92.38,-142.94 -274.04,-276.2 -183.87,-135.08 -225.86,-303.48 -160,-430.55 65.86,-127.12 329.28,-189.04 434.04,63.38 104.75,-252.42 368.18,-190.5 434.04,-63.38 65.41,127.07 23.86,295.47 -160.01,430.55z"/>
  <path class="fil1" d="M1024.53 559.57l-447.74 1018.84 -111.82 0 0 -37.7 415.03 -878.02 0 -11.54 -338.57 0c-21.22,0 -38.01,1.95 -50.39,5.79 -12.81,3.8 -22.98,9.37 -31.82,16.49 -8.4,7.2 -15.47,16.71 -21.22,28.51 -5.3,11.8 -13.26,35.14 -22.54,70.05l-66.3 0 15.47 -249.33 659.9 0 0 36.91z"/>
  <path class="fil1" d="M7748.16 9813.01c181.66,-133.22 271.39,-272.58 273.6,-276.21l0 -0.22 0 0.09 0 -0.09 0 0.22c2.65,3.63 92.38,142.99 274.04,276.21 183.87,135.07 225.86,303.47 160,430.54 -65.86,127.17 -329.29,189.05 -434.04,-63.38 -104.75,252.43 -368.18,190.55 -433.6,63.38 -66.3,-127.07 -24.31,-295.47 160,-430.54z"/>
  <path class="fil1" d="M7684.07 11607.46l447.75 -1018.93 111.82 0 0 37.66 -415.03 878.11 0 11.49 338.57 0c21.21,0 38.01,-1.9 50.38,-5.7 12.82,-3.93 22.99,-9.41 31.38,-16.57 8.4,-7.21 15.47,-16.71 21.22,-28.47 5.75,-11.84 13.7,-35.18 23.43,-70.01l65.85 0 -15.02 249.24 -660.35 0 0 -36.82z"/>
  <path class="fil1" d="M3291.08 2880.75c-360.66,264.49 -538.79,541.05 -543.21,548.3l0 0.35 0 -0.22 0 0.22 0 -0.35c-4.86,-7.25 -182.98,-283.81 -543.65,-548.3 -365.09,-268.02 -448.19,-602.26 -317.36,-854.51 130.39,-252.24 652.83,-375.21 861.01,125.88 207.74,-501.09 730.62,-378.12 861.01,-125.88 130.83,252.25 47.73,586.49 -317.8,854.51z"/>
  <path class="fil1" d="M2204.22 9286.37c360.67,-264.45 538.79,-541 543.65,-548.21l0 -0.4 0 0.23 0 -0.23 0 0.4c4.42,7.21 182.55,283.76 543.21,548.25 365.53,268.03 448.63,602.31 317.8,854.47 -130.39,252.29 -653.27,375.21 -861.01,-125.79 -208.18,501 -730.62,378.08 -861.01,125.79 -130.83,-252.25 -47.73,-586.44 317.36,-854.51z"/>
  <path class="fil1" d="M6505.27 2880.75c-360.67,264.49 -538.79,541.05 -543.21,548.3l0 0.35 -0.44 -0.22 0 0.22 0 -0.35c-4.42,-7.25 -182.55,-283.81 -543.21,-548.3 -365.53,-268.02 -448.19,-602.26 -317.8,-854.51 130.39,-252.24 653.27,-375.21 861.01,125.88 208.18,-501.09 730.62,-378.12 861.45,-125.88 130.83,252.25 47.29,586.49 -317.8,854.51z"/>
  <path class="fil1" d="M3291.08 6346.35c-360.66,264.45 -538.79,540.96 -543.21,548.16l0 0.4 0 -0.18 0 0.18 0 -0.4c-4.86,-7.2 -182.98,-283.71 -543.65,-548.16 -365.09,-268.11 -448.19,-602.31 -317.36,-854.64 130.39,-252.21 652.83,-375.12 861.01,125.92 207.74,-501.04 730.62,-378.13 861.01,-125.92 130.83,252.33 47.73,586.53 -317.8,854.64z"/>
  <path class="fil1" d="M6505.27 6346.35c-360.67,264.45 -538.79,540.96 -543.21,548.16l0 0.4 -0.44 -0.18 0 0.18 0 -0.4c-4.42,-7.2 -182.55,-283.71 -543.21,-548.16 -365.53,-268.11 -448.19,-602.31 -317.8,-854.64 130.39,-252.21 653.27,-375.12 861.01,125.92 208.18,-501.04 730.62,-378.13 861.45,-125.92 130.83,252.33 47.29,586.53 -317.8,854.64z"/>
  <path class="fil1" d="M5418.41 9286.37c360.66,-264.45 538.79,-541 543.21,-548.21l0 -0.4 0 0.23 0.44 -0.23 0 0.4c4.42,7.21 182.54,283.76 543.21,548.25 365.09,268.03 448.63,602.31 317.8,854.47 -130.83,252.29 -653.27,375.21 -861.45,-125.79 -207.74,501 -730.18,378.08 -861.01,125.79 -130.39,-252.25 -47.73,-586.44 317.8,-854.51z"/>
  <path class="fil1" d="M4898.18 4657.53c-360.67,264.49 -538.79,540.96 -543.21,548.21l0 0.35 0 -0.13 0 0.13 0 -0.35c-5.31,-7.25 -183.43,-283.72 -543.66,-548.21 -365.53,-268.07 -448.62,-602.31 -317.79,-854.6 130.83,-252.2 653.27,-375.12 861.45,125.88 207.73,-501 730.61,-378.08 861,-125.88 130.83,252.29 47.74,586.53 -317.79,854.6z"/>
 </g>
</svg>
