<?xml version="1.0" encoding="UTF-8"?>
<!DOCTYPE svg PUBLIC "-//W3C//DTD SVG 1.1//EN" "http://www.w3.org/Graphics/SVG/1.1/DTD/svg11.dtd">
<!-- Creator: CorelDRAW -->
<svg xmlns="http://www.w3.org/2000/svg" xml:space="preserve" width="100%" height="100%" version="1.1" style="shape-rendering:geometricPrecision; text-rendering:geometricPrecision; image-rendering:optimizeQuality; fill-rule:evenodd; clip-rule:evenodd"
viewBox="0 0 8704.86 12187.76"
 xmlns:xlink="http://www.w3.org/1999/xlink"
 xmlns:xodm="http://www.corel.com/coreldraw/odm/2003">
 <defs>
  <style type="text/css">
   <![CDATA[
    .fil0 {fill:#FEFEFE;fill-rule:nonzero}
    .fil1 {fill:#E63A2B;fill-rule:nonzero}
   ]]>
  </style>
   <clipPath id="id0">
    <path d="M8368.68 12187.42c0,0 136.03,-3.21 234.97,-120.38 -98.94,117.17 -234.97,120.38 -234.97,120.38zm-19.79 -17.65l-3853.43 0 -328.95 0 -3855.9 0c0,0 -32.16,0 -76.68,-16.05 -96.46,-44.95 -215.18,-155.7 -215.18,-420.54l0 0 0 -3035.27 0 -2117.15c1704.12,-1.6 3408.24,-1.6 5114.83,-1.6 1184.72,-1.61 2369.44,-1.61 3554.16,-1.61l0 2102.7 0 3035.27 0 0c0,446.22 -338.85,454.25 -338.85,454.25zm254.76 -102.73c0,0 0,0 0,0 0,0 0,0 0,0l0 0z"/>
   </clipPath>
   <clipPath id="id1">
    <path d="M8687.74 6083.96c-51.94,0 -103.88,0 -155.82,0 -2112.21,0 -4221.96,0 -6334.17,-1.73 -727.16,0 -1454.31,0 -2179,0l0 -2573.49 0 -3034.77c0,-445.68 336.38,-454.35 336.38,-454.35l3855.9 0 326.48 0 3855.9 0c0,0 34.63,0 79.15,15.61 96.46,46.82 215.18,156.07 215.18,419.67l0 0 0 3036.5 0 2592.56 0 0z"/>
   </clipPath>
   <clipPath id="id2">
    <path d="M8602.92 12067.9l0 0 0 0zm0.82 0c56.63,-68.69 101.12,-171.71 101.12,-336.56l0 -5154.78 0 0 0 -491.09 0 0 0 -5628.71 0 0c0,-446.45 -336.86,-456.76 -336.86,-456.76l-17.17 0c-0.58,0 -0.82,0 -0.82,0l17.99 0c0,0 336.86,10.31 336.86,456.76l0 3039.29 0 5196 0 3039.29c0,164.85 -44.49,267.87 -101.12,336.56l0 0z"/>
   </clipPath>
   <clipPath id="id3">
    <path d="M8687.22 6578.01l0 -493.45 17.6 0 0 493.45 -17.6 0 0 0z"/>
   </clipPath>
   <clipPath id="id4">
    <path d="M8367.91 12187.42l-3850.61 0 -328.53 0 -3833.7 0c0,0 -55.56,-1.6 -123.2,-33.7 45.9,16.05 79.72,16.05 79.72,16.05l3855.44 0 328.53 0 3855.44 0c0,0 335.78,-8.03 335.78,-454.25l0 0 0 0 0 -3035.27 0 -2102.7c7.25,0 12.08,0 16.91,0l0 2115.54 0 3040.09c0,162.11 -43.48,266.45 -99.04,333.86 0,0 -2.41,0 -2.41,0l0 0c-99.05,117.17 -234.33,120.38 -234.33,120.38l0 0 0 0z"/>
   </clipPath>
   <clipPath id="id5">
    <path d="M8704.86 6083.87c-5.84,0 -11.8,0 -17.63,0l0 -2593.09 0 -3034.85 0 0c0,-264.35 -118.4,-373.92 -214.85,-420.88 21.95,6.96 46.82,17.39 72.16,33.05l0 0 0 0 0 0c-86.87,-64.35 -176.54,-66.09 -176.54,-66.09l-17.17 0 0 0 17.17 0c0,0 336.86,8.69 336.86,453.92l0 3040.06 0 2587.88 0 0z"/>
   </clipPath>
   <clipPath id="id6">
    <path d="M17.63 6580.17l0 -498.7 0.26 0 0 498.7 -0.26 0 0 0z"/>
   </clipPath>
   <clipPath id="id7">
    <path d="M337.18 12187.42c0,0 -336.87,-8.02 -336.87,-454.24l0 -345.1c5.76,-20.87 11.41,-41.73 17.29,-62.6l0 -2645.23 0 -2099.49c0.11,0 0.23,0 0.34,0l0 2117.15 0 3035.27 0 0c0,264.84 118.43,375.59 214.94,420.54 -21.93,-6.42 -46.9,-17.66 -72.21,-32.1l0 0c86.78,64.2 176.51,65.8 176.51,65.8l0 0z"/>
   </clipPath>
   <clipPath id="id8">
    <path d="M17.37 6082.13c0,0 0,0 0,0l0 -5010.54c-4.83,-60.87 -12.08,-123.48 -16.92,-186.09l0 -429.57c0,-445.23 335.96,-453.92 335.96,-453.92l3852.61 0 326.28 0 3835.69 0c7.25,0 60.42,3.48 120.85,33.04 -45.92,-15.65 -77.34,-15.65 -77.34,-15.65l-3855.03 0 -328.7 0 -3855.02 0c0,0 -338.38,8.7 -338.38,453.92l0 3034.85 0 2573.96 0 0z"/>
   </clipPath>
   <clipPath id="id9">
    <path d="M355.11 12187.76l-17.94 0 0 0c0,0 -89.75,-2.62 -176.59,-66.28 25.44,15.22 50.31,25.72 72.33,32.89 66.28,31.87 122.2,33.39 122.2,33.39l0 0z"/>
   </clipPath>
   <clipPath id="id10">
    <path d="M8544.6 67.65c-25.45,-15.18 -50.28,-25.61 -72.2,-32.86 -61.76,-29.71 -114.52,-33.11 -121.58,-33.41l17.15 0c0,0 89.7,2.55 176.63,66.27l0 0z"/>
   </clipPath>
   <clipPath id="id11">
    <path d="M-0 11390.77l0 -10509.44c0.03,2.99 0.16,2.99 0.26,2.99l0.04 2610.92 0 5197.89 0 2694.65c-0.09,0 -0.22,2.99 -0.3,2.99l0 0z"/>
   </clipPath>
   <clipPath id="id12">
    <path d="M0.31 6580.17l0 -498.7 17.32 0 0 498.7 -17.32 0 0 0z"/>
   </clipPath>
   <clipPath id="id13">
    <path d="M0.31 11388.51l0 -2696.06 0 -2111.64c5.73,0 11.61,0 17.32,0l0 2099.24 -0.06 2646.44c-5.86,20.67 -11.53,41.35 -17.26,62.02l0 0z"/>
   </clipPath>
   <clipPath id="id14">
    <path d="M17.63 6080.94c-5.75,0 -11.59,0 -17.32,0l0 -2584.21 -0.04 -2612.5c5.64,62.52 11.44,125.04 17.36,187.56l0 5009.15 0 0z"/>
   </clipPath>
 </defs>
 <g id="Layer_x0020_1">
  <metadata id="CorelCorpID_0Corel-Layer"/>
  <path class="fil0" d="M8367.98 1.37l-8030.84 0c0,0 -336.93,9.14 -336.93,455.16l0.09 3039.69 0 8236.48c0,445.92 336.84,455.05 336.84,455.05l8030.84 0c0,0 336.84,-9.13 336.84,-455.05l0 -11276.17c0,-446.02 -336.84,-455.16 -336.84,-455.16z"/>
  <g style="clip-path:url(#id0)">
   <image x="-8.45" y="6551.87" width="8725.87" height="5662.84" xlink:href="9_Images\9_ImgID1.png"/>
  </g>
  <g style="clip-path:url(#id1)">
   <image x="-8.45" y="-2.92" width="8725.87" height="6118.1" xlink:href="9_Images\9_ImgID2.png"/>
  </g>
  <g style="clip-path:url(#id2)">
   <image x="8323.16" y="-20.6" width="411.94" height="12115.97" xlink:href="9_Images\9_ImgID3.png"/>
  </g>
  <g style="clip-path:url(#id3)">
   <image x="8663.5" y="6061.25" width="71.6" height="544.54" xlink:href="9_Images\9_ImgID4.png"/>
  </g>
  <g style="clip-path:url(#id4)">
   <image x="212.55" y="6551.87" width="8522.55" height="5662.84" xlink:href="9_Images\9_ImgID5.png"/>
  </g>
  <g style="clip-path:url(#id5)">
   <image x="8323.16" y="-20.6" width="411.94" height="6135.78" xlink:href="9_Images\9_ImgID6.png"/>
  </g>
  <g style="clip-path:url(#id6)">
   <image x="-8.45" y="6061.25" width="58.34" height="544.54" xlink:href="9_Images\9_ImgID7.png"/>
  </g>
  <g style="clip-path:url(#id7)">
   <image x="-26.13" y="6551.87" width="398.68" height="5662.84" xlink:href="9_Images\9_ImgID8.png"/>
  </g>
  <g style="clip-path:url(#id8)">
   <image x="-26.13" y="-20.6" width="8526.97" height="6135.78" xlink:href="9_Images\9_ImgID9.png"/>
  </g>
  <g style="clip-path:url(#id9)">
   <image x="128.57" y="12090.07" width="257.24" height="124.64" xlink:href="9_Images\9_ImgID10.png"/>
  </g>
  <g style="clip-path:url(#id10)">
   <image x="8323.16" y="-20.6" width="243.98" height="106.96" xlink:href="9_Images\9_ImgID11.png"/>
  </g>
  <g style="clip-path:url(#id11)">
   <image x="-26.13" y="863.39" width="58.34" height="10551.31" xlink:href="9_Images\9_ImgID12.png"/>
  </g>
  <g style="clip-path:url(#id12)">
   <image x="-26.13" y="6061.25" width="76.02" height="544.54" xlink:href="9_Images\9_ImgID13.png"/>
  </g>
  <g style="clip-path:url(#id13)">
   <image x="-26.13" y="6551.87" width="76.02" height="4862.83" xlink:href="9_Images\9_ImgID14.png"/>
  </g>
  <g style="clip-path:url(#id14)">
   <image x="-26.13" y="863.39" width="76.02" height="5251.79" xlink:href="9_Images\9_ImgID15.png"/>
  </g>
  <path class="fil1" d="M998.33 2354.9c-181.62,133.26 -271.43,272.58 -273.78,276.2l0 0.23 -0.09 -0.14 -0.04 0.14 0 -0.23c-2.3,-3.62 -92.02,-142.94 -273.68,-276.2 -184.09,-135.03 -226,-303.47 -160.14,-430.59 65.82,-127.07 329.11,-189 433.86,63.47 104.85,-252.47 368.19,-190.54 434,-63.47 65.86,127.12 23.91,295.56 -160.13,430.59z"/>
  <path class="fil1" d="M701.08 1090c19.45,0 38.06,-1.64 55.74,-4.99 17.72,-3.36 35.05,-8.23 51.98,-14.63 16.93,-6.41 33.46,-14.68 49.59,-24.62 16.22,-10.04 30.67,-20.69 43.49,-31.96 4.64,-4.11 8.75,-9.46 12.38,-16.13 3.53,-6.63 6.41,-15.38 8.4,-26.17 2.07,-10.83 3.13,-27.76 3.13,-50.78 0,-70.33 -7.11,-130.48 -21.21,-180.52 -14.06,-49.98 -35.63,-87.69 -64.67,-113.1 -28.95,-25.33 -64.7,-38.1 -107.31,-38.1 -38.46,0 -71.08,6.72 -97.77,20.02 -26.61,13.35 -48.31,31.65 -65.02,55.03 -16.62,23.34 -28.82,50.83 -36.51,82.34 -7.69,31.56 -11.53,65.73 -11.53,102.77 0,76.37 15.64,135.65 46.94,177.72 31.29,42.08 75.44,63.12 132.37,63.12zm-160.09 466.3l0 -37.65c71.78,0 134.06,-15.91 186.61,-47.78 52.6,-31.74 94.94,-78.85 126.99,-141.18 32.04,-62.36 53.48,-144 64.26,-245.13l-7.73 -3c-43.05,30.72 -85.48,53.3 -127.34,67.67 -41.81,14.36 -87.07,21.52 -135.82,21.52 -57.99,0 -107.32,-12.68 -148.12,-38.1 -40.79,-25.32 -71.47,-60.99 -91.98,-106.96 -20.51,-45.84 -30.76,-99.63 -30.76,-161.2 0,-46.14 7.69,-89.85 23.07,-131.22 15.38,-41.29 38.24,-77.4 68.47,-108.47 30.27,-31.03 68.11,-55.69 113.55,-73.86 45.39,-18.16 98.38,-27.31 158.89,-27.31 107.72,0 189.84,37.12 246.28,111.6 56.4,74.34 84.6,181.31 84.6,320.85 0,127.73 -20.73,238.45 -62.32,332.11 -41.55,93.62 -99.76,166.41 -174.68,218.48 -74.91,52.15 -162.39,82.74 -262.36,91.98l-31.61 -42.35z"/>
  <path class="fil1" d="M7745.29 9813.97c181.62,-133.25 271.35,-272.55 273.78,-276.19l0 -0.21 0.04 0.11 0.09 -0.11 0 0.21c2.25,3.64 92.02,142.94 273.68,276.19 184.05,135.09 225.99,303.5 160.14,430.57 -65.86,127.11 -329.11,189.06 -433.91,-63.4 -104.8,252.46 -368.14,190.51 -433.95,63.4 -65.9,-127.07 -23.96,-295.48 160.13,-430.57z"/>
  <path class="fil1" d="M8042.54 11078.93c-19.45,0 -38.1,1.66 -55.74,5.01 -17.77,3.31 -35.05,8.18 -51.98,14.6 -16.93,6.42 -33.5,14.64 -49.63,24.67 -16.18,10.02 -30.68,20.6 -43.45,31.93 -4.64,4.06 -8.75,9.48 -12.38,16.14 -3.58,6.65 -6.41,15.42 -8.44,26.19 -2.08,10.76 -3.09,27.65 -3.09,50.76 0,70.31 7.07,130.43 21.17,180.45 14.1,50.07 35.62,87.74 64.66,113.1 29,25.43 64.75,38.14 107.32,38.14 38.5,0 71.11,-6.68 97.77,-19.98 26.65,-13.39 48.35,-31.75 65.06,-55.09 16.62,-23.32 28.82,-50.74 36.51,-82.3 7.69,-31.55 11.53,-65.8 11.53,-102.73 0,-76.49 -15.64,-135.73 -46.94,-177.77 -31.29,-42.06 -75.44,-63.12 -132.37,-63.12zm160.09 -466.34l0 37.69c-71.83,0 -134.06,15.94 -186.61,47.72 -52.6,31.82 -94.94,78.92 -127.03,141.21 -32,62.35 -53.44,144.05 -64.22,245.09l7.69 3.11c43.09,-30.77 85.52,-53.42 127.33,-67.7 41.86,-14.4 87.12,-21.6 135.87,-21.6 57.99,0 107.32,12.71 148.12,38.14 40.79,25.4 71.47,61.03 91.93,106.92 20.55,45.93 30.81,99.7 30.81,161.23 0,46.2 -7.69,89.88 -23.07,131.2 -15.38,41.26 -38.24,77.47 -68.47,108.51 -30.32,31.04 -68.11,55.67 -113.55,73.9 -45.39,18.21 -98.39,27.31 -158.89,27.31 -107.76,0 -189.84,-37.22 -246.28,-111.62 -56.4,-74.4 -84.6,-181.32 -84.6,-320.83 0,-127.76 20.73,-238.47 62.32,-332.1 41.55,-93.63 99.76,-166.5 174.68,-218.58 74.91,-52.04 162.39,-82.68 262.36,-91.9l31.61 42.3z"/>
  <path class="fil1" d="M6503.86 2881.72c-360.53,264.49 -538.61,541.04 -543.3,548.29l0 0.35 -0.09 -0.22 -0.13 0.22 0 -0.35c-4.6,-7.25 -182.81,-283.8 -543.26,-548.29 -365.35,-268.03 -448.53,-602.27 -317.83,-854.51 130.65,-252.25 653.18,-375.21 861.22,125.88 207.92,-501.09 730.58,-378.13 861.23,-125.88 130.74,252.24 47.52,586.48 -317.84,854.51z"/>
  <path class="fil1" d="M6503.86 7502.51c-360.53,264.45 -538.61,540.98 -543.3,548.2l0 0.4 -0.09 -0.18 -0.13 0.18 0 -0.4c-4.6,-7.22 -182.81,-283.75 -543.26,-548.2 -365.35,-268.11 -448.53,-602.26 -317.83,-854.6 130.65,-252.2 653.18,-375.12 861.22,125.88 207.92,-501 730.58,-378.08 861.23,-125.88 130.74,252.34 47.52,586.49 -317.84,854.6z"/>
  <path class="fil1" d="M5417.08 9287.31c360.5,-264.4 538.71,-540.99 543.26,-548.21l0 -0.36 0.13 0.2 0.09 -0.2 0 0.36c4.69,7.22 182.9,283.81 543.39,548.28 365.27,268.01 448.41,602.27 317.75,854.5 -130.65,252.23 -653.22,375.22 -861.23,-125.83 -207.96,501.05 -730.53,378.06 -861.18,125.83 -130.74,-252.26 -47.56,-586.49 317.79,-854.57z"/>
  <path class="fil1" d="M6503.86 5192.11c-360.53,264.45 -538.61,541.01 -543.3,548.25l0 0.36 -0.09 -0.18 -0.13 0.18 0 -0.36c-4.6,-7.24 -182.81,-283.8 -543.26,-548.25 -365.35,-268.07 -448.53,-602.35 -317.83,-854.51 130.65,-252.24 653.18,-375.21 861.22,125.8 207.92,-501.01 730.58,-378.04 861.23,-125.8 130.74,252.16 47.52,586.44 -317.84,854.51z"/>
  <path class="fil1" d="M3288.04 2881.72c-360.49,264.49 -538.62,541.04 -543.26,548.29l0 0.35 -0.09 -0.22 -0.13 0.22 0 -0.35c-4.64,-7.25 -182.81,-283.8 -543.3,-548.29 -365.35,-268.03 -448.49,-602.27 -317.84,-854.51 130.7,-252.25 653.23,-375.21 861.27,125.88 207.92,-501.09 730.53,-378.13 861.23,-125.88 130.7,252.24 47.51,586.48 -317.88,854.51z"/>
  <path class="fil1" d="M3288.04 7502.51c-360.49,264.45 -538.62,540.98 -543.26,548.2l0 0.4 -0.09 -0.18 -0.13 0.18 0 -0.4c-4.64,-7.22 -182.81,-283.75 -543.3,-548.2 -365.35,-268.11 -448.49,-602.26 -317.84,-854.6 130.7,-252.2 653.23,-375.12 861.27,125.88 207.92,-501 730.53,-378.08 861.23,-125.88 130.7,252.34 47.51,586.49 -317.88,854.6z"/>
  <path class="fil1" d="M2201.26 9287.31c360.53,-264.4 538.66,-540.99 543.3,-548.21l0 -0.36 0.13 0.2 0.09 -0.2 0 0.36c4.64,7.22 182.85,283.81 543.35,548.28 365.3,268.01 448.44,602.27 317.79,854.5 -130.7,252.23 -653.22,375.22 -861.23,-125.83 -207.96,501.05 -730.57,378.06 -861.23,125.83 -130.69,-252.26 -47.55,-586.49 317.8,-854.57z"/>
  <path class="fil1" d="M3288.04 5192.11c-360.49,264.45 -538.62,541.01 -543.26,548.25l0 0.36 -0.09 -0.18 -0.13 0.18 0 -0.36c-4.64,-7.24 -182.81,-283.8 -543.3,-548.25 -365.35,-268.07 -448.49,-602.35 -317.84,-854.51 130.7,-252.24 653.23,-375.21 861.27,125.8 207.92,-501.01 730.53,-378.04 861.23,-125.8 130.7,252.16 47.51,586.44 -317.88,854.51z"/>
  <path class="fil1" d="M4896.02 6347.27c-360.54,264.49 -538.71,541 -543.3,548.25l0 0.35 -0.14 -0.13 -0.09 0.13 0 -0.35c-4.64,-7.25 -182.89,-283.76 -543.38,-548.25 -365.27,-268.07 -448.41,-602.22 -317.75,-854.56 130.69,-252.24 653.22,-375.16 861.22,125.89 207.96,-501.05 730.53,-378.13 861.19,-125.89 130.69,252.34 47.56,586.49 -317.75,854.56z"/>
 </g>
</svg>
