<?xml version="1.0" encoding="UTF-8"?>
<!DOCTYPE svg PUBLIC "-//W3C//DTD SVG 1.1//EN" "http://www.w3.org/Graphics/SVG/1.1/DTD/svg11.dtd">
<!-- Creator: CorelDRAW -->
<svg xmlns="http://www.w3.org/2000/svg" xml:space="preserve" width="100%" height="100%" version="1.1" style="shape-rendering:geometricPrecision; text-rendering:geometricPrecision; image-rendering:optimizeQuality; fill-rule:evenodd; clip-rule:evenodd"
viewBox="0 0 8704.98 12187.49"
 xmlns:xlink="http://www.w3.org/1999/xlink"
 xmlns:xodm="http://www.corel.com/coreldraw/odm/2003">
 <defs>
  <style type="text/css">
   <![CDATA[
    .fil0 {fill:#FEFEFE;fill-rule:nonzero}
    .fil1 {fill:#E63A2B;fill-rule:nonzero}
   ]]>
  </style>
   <clipPath id="id0">
    <path d="M8368.87 12186.08c0,0 131.15,-3.21 230.14,-117.18 -98.99,113.97 -230.14,117.18 -230.14,117.18zm-19.8 -17.66l-3855.38 0 -326.64 0 -3855.39 0c0,0 -34.64,0 -79.18,-14.44 -96.51,-46.55 -215.29,-157.31 -215.29,-422.15l0 0 0 -3035.27 0 -2117.15c1704.98,0 3409.96,-1.6 5114.94,-1.6 1185.32,0 2370.64,0 3555.96,0l0 2101.09 0 3035.27 0 0c0,446.23 -339.02,454.25 -339.02,454.25l0 0z"/>
   </clipPath>
   <clipPath id="id1">
    <path d="M8688.09 6083.7c-51.97,0 -103.93,0 -155.9,0 -2113.28,0 -4224.09,0 -6334.9,-1.74 -725.05,0 -1452.58,-1.73 -2180.1,-1.73l0 -2571.75 0 -3036.51c0,-445.68 339.02,-454.35 339.02,-454.35l3855.38 0 326.64 0 3855.39 0c0,0 34.64,1.74 79.18,15.61 96.51,46.82 215.29,157.81 215.29,421.4l0 0 0 3034.77 0 2594.3 0 0z"/>
   </clipPath>
   <clipPath id="id2">
    <path d="M338.16 12187.49l0 0c0,0 -2.39,0 -2.39,0 0,0 2.39,0 2.39,0l0 0zm8261.58 -117.87c59.8,-65.87 105.24,-173.34 105.24,-336.28l0 -5155.14 0 0 0 -495.75 0 0 0 -5626.63 0 0c0,-447.22 -337.25,-454.15 -337.25,-454.15l-16.75 0c0,0 0,0 0,0l16.75 0c0,0 337.25,6.93 337.25,454.15l0 3040.39 0 5196.74 0 3040.39c0,162.94 -45.44,270.41 -105.24,336.28l0 0z"/>
   </clipPath>
   <clipPath id="id3">
    <path d="M8687.24 6577.07l0 -493.56 17.64 0 0 493.56 -17.64 0 0 0z"/>
   </clipPath>
   <clipPath id="id4">
    <path d="M8368.1 12186.08l-3851.33 0 -329.22 0 -3831.97 0c0,0 -55.67,0 -123.45,-32.1 45.99,14.44 79.88,14.44 79.88,14.44l3853.75 0 329.22 0 3856.18 0c0,0 336.47,-8.02 336.47,-454.25l0 0 0 0 0 -3035.27 0 -2101.09c4.85,0 12.11,0 16.95,0l0 2113.93 0 3040.09c0,165.33 -45.99,271.26 -104.09,337.07 -99.25,113.97 -232.39,117.18 -232.39,117.18l0 0 0 0z"/>
   </clipPath>
   <clipPath id="id5">
    <path d="M8704.84 6083.6c-5.84,0 -11.68,0 -17.63,0l0 -2593.1 0 -3036.58 0 0c0,-262.61 -118.28,-373.92 -214.73,-420.88 21.95,8.7 46.71,19.13 72.16,33.05l0 0 0 0 0 0c-86.99,-62.61 -176.66,-66.09 -176.66,-66.09l-16.81 0 0 0 16.81 0c0,0 336.86,8.69 336.86,455.66l0 3040.06 0 2587.88 0 0z"/>
   </clipPath>
   <clipPath id="id6">
    <path d="M17.68 6579.25l0 -498.85 0.23 0 0 498.85 -0.23 0 0 0z"/>
   </clipPath>
   <clipPath id="id7">
    <path d="M336.36 12186.08c-18.36,0 -336.02,-20.87 -336.02,-454.25l0 -343.49c5.76,-20.87 11.42,-41.74 17.29,-62.6l0 -2646.84 0 -2099.49c0.21,0 0.21,0 0.32,0l0 2117.15 0 3035.27 0 0c0,264.84 118.48,375.6 215.08,422.15 -21.99,-8.03 -46.96,-17.66 -72.47,-33.71l0 0c82.08,60.99 166.72,65.81 175.8,65.81l0 0z"/>
   </clipPath>
   <clipPath id="id8">
    <path d="M17.89 6080.12c0,0 0,0 0,0l0 -5008.8c-7.24,-62.61 -12.07,-125.22 -16.91,-187.83l0 -427.83c0,-446.97 335.78,-455.66 335.78,-455.66l3853.03 0 326.12 0 3836.11 0c7.25,0 60.39,5.21 120.79,33.04 -45.9,-13.91 -79.72,-15.65 -79.72,-15.65l-3855.44 0 -326.12 0 -3855.44 0c0,0 -338.2,10.43 -338.2,455.66l0 3034.85 0 2572.22 0 0z"/>
   </clipPath>
   <clipPath id="id9">
    <path d="M355.17 12186.78l-17.98 0c0,0 -0.28,0 -0.83,-0.03 -9.06,-0.46 -93.71,-6.05 -175.79,-66.21 25.52,15.23 50.41,25.68 72.4,32.89 66.32,31.87 122.2,33.35 122.2,33.35l0 0z"/>
   </clipPath>
   <clipPath id="id10">
    <path d="M8544.58 66.7c-25.38,-15.19 -50.21,-25.62 -72.13,-32.84 -60.86,-29.29 -113.07,-33.05 -121.3,-33.47l16.87 0c0,0 89.7,2.58 176.56,66.31l0 0z"/>
   </clipPath>
   <clipPath id="id11">
    <path d="M-0 11389.24l0 -10507.86c0.11,0 0.18,2.99 0.27,2.99l0.04 2612.01 0 5197.08 0 2695.78c-0.13,0 -0.2,0 -0.31,0l0 0z"/>
   </clipPath>
   <clipPath id="id12">
    <path d="M0.31 6579.25l0 -498.85c5.8,0 11.57,0 17.37,0l0 498.85c-5.74,0 -11.63,0 -17.37,0l0 0z"/>
   </clipPath>
   <clipPath id="id13">
    <path d="M0.31 11387.2l0 -2695.76 0 -2112.17c5.74,0 11.63,0 17.37,0l0 2099.76 -0.06 2646.08c-5.84,20.7 -11.55,41.39 -17.31,62.09l0 0z"/>
   </clipPath>
   <clipPath id="id14">
    <path d="M17.68 6080.89c-5.8,0 -11.57,0 -17.37,0l0 -2586.39 -0.02 -2610.23c5.68,62.58 11.45,125.15 17.39,187.73l0 5008.89 0 0z"/>
   </clipPath>
 </defs>
 <g id="Layer_x0020_1">
  <metadata id="CorelCorpID_0Corel-Layer"/>
  <path class="fil0" d="M8367.99 0.4l-8030.77 0c0,0 -336.94,9.15 -336.94,455.17l0.02 3039.64 0 8236.54c0,445.89 336.92,455.04 336.92,455.04l8030.77 0c0,0 336.89,-9.15 336.89,-455.04l0 -11276.18c0,-446.02 -336.89,-455.17 -336.89,-455.17z"/>
  <g style="clip-path:url(#id0)">
   <image x="-5.08" y="6548.92" width="8730.29" height="5662.84" xlink:href="Ace_Images\Ace_ImgID1.png"/>
  </g>
  <g style="clip-path:url(#id1)">
   <image x="-5.08" y="-1.45" width="8730.29" height="6118.1" xlink:href="Ace_Images\Ace_ImgID2.png"/>
  </g>
  <g style="clip-path:url(#id2)">
   <image x="299.89" y="-19.13" width="8438.57" height="12230.89" xlink:href="Ace_Images\Ace_ImgID3.png"/>
  </g>
  <g style="clip-path:url(#id3)">
   <image x="8666.87" y="6058.3" width="71.6" height="548.96" xlink:href="Ace_Images\Ace_ImgID4.png"/>
  </g>
  <g style="clip-path:url(#id4)">
   <image x="198.24" y="6548.92" width="8540.23" height="5662.84" xlink:href="Ace_Images\Ace_ImgID5.png"/>
  </g>
  <g style="clip-path:url(#id5)">
   <image x="8326.53" y="-19.13" width="411.94" height="6135.78" xlink:href="Ace_Images\Ace_ImgID6.png"/>
  </g>
  <g style="clip-path:url(#id6)">
   <image x="-0.66" y="6058.3" width="53.92" height="548.96" xlink:href="Ace_Images\Ace_ImgID7.png"/>
  </g>
  <g style="clip-path:url(#id7)">
   <image x="-18.34" y="6548.92" width="376.58" height="5662.84" xlink:href="Ace_Images\Ace_ImgID8.png"/>
  </g>
  <g style="clip-path:url(#id8)">
   <image x="-18.34" y="-19.13" width="8522.55" height="6135.78" xlink:href="Ace_Images\Ace_ImgID9.png"/>
  </g>
  <g style="clip-path:url(#id9)">
   <image x="131.94" y="12087.12" width="243.98" height="124.64" xlink:href="Ace_Images\Ace_ImgID10.png"/>
  </g>
  <g style="clip-path:url(#id10)">
   <image x="8326.53" y="-19.13" width="243.98" height="106.96" xlink:href="Ace_Images\Ace_ImgID11.png"/>
  </g>
  <g style="clip-path:url(#id11)">
   <image x="-18.34" y="860.44" width="53.92" height="10555.73" xlink:href="Ace_Images\Ace_ImgID12.png"/>
  </g>
  <g style="clip-path:url(#id12)">
   <image x="-18.34" y="6058.3" width="71.6" height="548.96" xlink:href="Ace_Images\Ace_ImgID13.png"/>
  </g>
  <g style="clip-path:url(#id13)">
   <image x="-18.34" y="6548.92" width="71.6" height="4867.25" xlink:href="Ace_Images\Ace_ImgID14.png"/>
  </g>
  <g style="clip-path:url(#id14)">
   <image x="-18.34" y="860.44" width="71.6" height="5256.21" xlink:href="Ace_Images\Ace_ImgID15.png"/>
  </g>
  <path class="fil1" d="M965.38 2353.94c-181.68,133.26 -271.44,272.58 -273.76,276.2l0 0.22 -0.05 -0.13 -0.05 0.13 0 -0.22c-2.33,-3.62 -92.13,-142.94 -273.78,-276.2 -184.05,-135.08 -225.95,-303.48 -160.12,-430.55 65.89,-127.12 329.15,-189.04 433.95,63.38 104.79,-252.42 368.08,-190.5 433.92,-63.38 65.85,127.07 23.98,295.47 -160.11,430.55z"/>
  <path class="fil1" d="M522.65 1169.79l321.69 0 -146.26 -496.36 -175.43 496.36zm295.49 415.56l0 -37.7c25.64,-5.13 44.74,-10.74 57.34,-16.97 12.61,-6.1 21.93,-14.72 28.09,-25.77 6.15,-10.96 9.24,-25.77 9.24,-44.2 0,-17.46 -2.06,-36.29 -6.2,-56.57 -4.07,-20.29 -9.94,-42.92 -17.66,-68.07l-28.45 -99.27 -358.6 0 -26.21 75.4c-13.32,37.97 -22.05,66.7 -26.13,86.19 -4.14,19.49 -6.22,37.17 -6.22,53.08 0,30.72 7.86,53.35 23.51,67.72 15.66,14.36 39.62,23.86 71.96,28.46l0 37.7 -328.58 0 0 -37.7c28.73,-4.6 53.73,-21.3 75,-50.08 21.32,-28.68 41.99,-69.7 61.97,-123.05l320.87 -851.86 121.62 0 261.64 858.01c12.35,40.04 23.19,70.54 32.7,91.58 9.5,20.99 20.91,37.43 34.24,49.28 13.31,11.76 31.56,20.51 54.65,26.12l0 37.7 -354.78 0z"/>
  <path class="fil1" d="M7716.05 9813.01c181.66,-133.22 271.42,-272.58 273.77,-276.21l0 -0.22 0.04 0.09 0.09 -0.09 0 0.22c2.3,3.63 92.11,142.99 273.73,276.21 184.04,135.07 225.95,303.47 160.09,430.54 -65.86,127.17 -329.16,189.05 -433.95,-63.38 -104.76,252.43 -368.05,190.55 -433.87,63.38 -65.85,-127.07 -24,-295.47 160.1,-430.54z"/>
  <path class="fil1" d="M8158.79 10997.16l-321.73 0 146.26 496.36 175.47 -496.36zm-295.52 -415.57l0 37.7c-25.63,5.18 -44.77,10.79 -57.37,16.93 -12.55,6.15 -21.92,14.72 -28.11,25.82 -6.14,10.96 -9.19,25.72 -9.19,44.24 0,17.41 2.03,36.24 6.19,56.53 4.06,20.29 9.94,43.01 17.68,68.16l28.46 99.22 358.59 0 26.17 -75.36c13.35,-38.01 22.1,-66.74 26.16,-86.23 4.11,-19.49 6.19,-37.17 6.19,-53.08 0,-30.77 -7.87,-53.4 -23.51,-67.72 -15.6,-14.41 -39.61,-23.86 -71.92,-28.51l0 -37.7 328.58 0 0 37.7c-28.73,4.65 -53.74,21.31 -75,50.08 -21.35,28.64 -41.99,69.75 -61.97,123.1l-320.89 851.81 -121.59 0 -261.62 -857.96c-12.37,-40 -23.25,-70.54 -32.71,-91.58 -9.54,-21.04 -20.95,-37.48 -34.25,-49.28 -13.31,-11.8 -31.56,-20.51 -54.63,-26.17l0 -37.7 354.74 0z"/>
  <path class="fil1" d="M4894.44 6356.34c-360.58,264.49 -538.69,541.04 -543.35,548.25l0 0.4 -0.11 -0.22 -0.1 0.22 0 -0.4c-4.63,-7.21 -182.81,-283.76 -543.28,-548.25 -365.35,-268.03 -448.5,-602.26 -317.83,-854.51 130.64,-252.25 653.22,-375.21 861.21,125.88 207.94,-501.09 730.6,-378.13 861.25,-125.88 130.74,252.25 47.51,586.48 -317.79,854.51z"/>
 </g>
</svg>
