<?xml version="1.0" encoding="UTF-8"?>
<!DOCTYPE svg PUBLIC "-//W3C//DTD SVG 1.1//EN" "http://www.w3.org/Graphics/SVG/1.1/DTD/svg11.dtd">
<!-- Creator: CorelDRAW -->
<svg xmlns="http://www.w3.org/2000/svg" xml:space="preserve" width="100%" height="100%" version="1.1" style="shape-rendering:geometricPrecision; text-rendering:geometricPrecision; image-rendering:optimizeQuality; fill-rule:evenodd; clip-rule:evenodd"
viewBox="0 0 8816.28 12342.93"
 xmlns:xlink="http://www.w3.org/1999/xlink"
 xmlns:xodm="http://www.corel.com/coreldraw/odm/2003">
 <defs>
  <style type="text/css">
   <![CDATA[
    .fil0 {fill:#FEFEFE;fill-rule:nonzero}
    .fil1 {fill:#252422;fill-rule:nonzero}
   ]]>
  </style>
   <clipPath id="id0">
    <path d="M8474.05 12342.2l-3900.59 0 -330.9 0 -3883.05 0c0,0 0,0 0,0l3883.05 0 330.9 0 3900.59 0c0,0 125.34,-3.24 223.11,-103.93 -97.77,100.69 -223.11,103.93 -223.11,103.93zm-17.54 -17.86l-3903.11 0 -333.4 0 -3905.61 0c0,0 -32.59,0 -77.71,-14.62 -97.77,-47.09 -218.1,-159.14 -218.1,-427.09l0 0 0 -3074.11 0 -2145.21c1727.2,0 3454.39,0 5179.07,-1.63 1200.77,0 2401.53,0 3599.78,0l0 2128.98 0 3074.11 0 0c0,451.45 -340.92,459.57 -340.92,459.57l0 0z"/>
   </clipPath>
   <clipPath id="id1">
    <path d="M8639.5 6161.67c-2138.31,0 -4274.11,0 -6412.42,-1.75 -737,0 -1471.49,0 -2208.5,-1.76l0 -2605.43 0 -3073.57c0,-450.61 340.93,-459.37 340.93,-459.37l3905.61 0 330.9 0 3905.61 0c0,0 32.59,0 80.22,15.78 97.76,47.34 215.58,157.8 215.58,426.05l0 0 0 3073.58 0 2626.47c-52.64,0 -105.28,0 -157.93,0l0 0z"/>
   </clipPath>
   <clipPath id="id2">
    <path d="M8696.87 12239.26c65.26,-66.14 119.29,-177.53 119.29,-358.54l0 -5218.05 0 0 0 -501.26 0 0 0 -5698.43 0 0c0,-452.53 -341.16,-462.98 -341.16,-462.98l-17.43 0c-0.46,0 -0.7,0 -0.7,0l18.13 0c0,0 341.28,10.45 341.28,462.98l0 3077.22 0 5263.3 0 3077.22c0,181.01 -54.15,292.4 -119.41,358.54l0 0z"/>
   </clipPath>
   <clipPath id="id3">
    <path d="M8798.34 6661.67l0 -499.79 17.85 0 0 499.79 -17.85 0 0 0z"/>
   </clipPath>
   <clipPath id="id4">
    <path d="M8475.62 12342.2l-3899.97 0 -333.16 0 -3882.82 0c-7.35,0 -61.24,-3.24 -122.48,-32.48 44.09,14.62 78.39,14.62 78.39,14.62l3904.86 0 330.72 0 3904.86 0c0,0 342.96,-8.12 342.96,-459.57l0 0 0 0 0 -3074.11 0 -2128.98c4.9,0 12.25,0 17.15,0l0 2141.97 0 3078.98c0,178.63 -53.89,289.06 -120.03,355.64 -97.99,100.69 -220.48,103.93 -220.48,103.93l0 0z"/>
   </clipPath>
   <clipPath id="id5">
    <path d="M8798.38 6161.6l0 -2625.28 0 -3075.44 0 0c0,-267.27 -119.99,-378.05 -217.65,-425.53 22.22,7.04 47.37,17.59 73.1,33.41l0 0 0 0 0 0c-87.95,-65.06 -178.83,-66.82 -178.83,-66.82l-17.43 0 0 0 17.43 0c0,0 341.16,8.79 341.16,460.7l0 3077.19 0 2621.77c-5.96,0 -11.93,0 -17.78,0l0 0z"/>
   </clipPath>
   <clipPath id="id6">
    <path d="M18.36 6664.07l0 -505.39 0.26 0 0 505.39 -0.26 0 0 0z"/>
   </clipPath>
   <clipPath id="id7">
    <path d="M360.18 12342.2l-18.24 0c0,0 -341.16,-8.12 -341.16,-459.57l0 -349.15c5.84,-21.11 11.57,-42.22 17.42,-63.33l0.12 -2679.49 0 -2127.35c0.12,0 0.12,0 0.35,0l0 2145.21 0 3074.11 0 0c0,267.95 119.76,380 217.54,427.09 -22.22,-8.12 -47.37,-17.86 -73.1,-34.1l0 0c87.95,64.96 178.83,66.58 178.83,66.58l17.42 0c0.47,0 0.82,0 0.82,0l0 0z"/>
   </clipPath>
   <clipPath id="id8">
    <path d="M19.6 6158.08c0,0 0,0 -2.45,0l0 -5072.97c-4.9,-61.54 -9.8,-124.84 -17.15,-188.14l0 -434.33c0,-451.91 342.96,-460.7 342.96,-460.7l3899.97 0 330.71 0 3882.82 0c7.35,0 61.24,3.52 124.93,33.41 -46.54,-15.82 -80.84,-15.82 -80.84,-15.82l-3904.86 0 -330.72 0 -3904.86 0c0,0 -340.51,8.79 -340.51,460.7l0 3073.67 0 2604.18 0 0z"/>
   </clipPath>
   <clipPath id="id9">
    <path d="M359.3 12342.88l-17.4 0c0,0 -90.82,-2.65 -178.82,-67.18 25.71,15.42 50.94,26.04 73.15,33.31 62.43,30.08 115.92,33.51 123.07,33.87l0 0z"/>
   </clipPath>
   <clipPath id="id10">
    <path d="M8653.9 68.44c-25.78,-15.45 -50.95,-26.04 -73.22,-33.34 -62.43,-30.02 -115.85,-33.49 -123.07,-33.78l17.46 0c0,0 90.83,2.59 178.83,67.12l0 0z"/>
   </clipPath>
   <clipPath id="id11">
    <path d="M0.45 11533.55l0 -10642.01c0.1,3.03 0.17,3.03 0.27,6.07l0.04 2643.05 0 5261.84 0 2731.05c-0.14,0 -0.21,0 -0.31,0l0 0z"/>
   </clipPath>
   <clipPath id="id12">
    <path d="M0.77 6664.07l0 -505.39 17.59 0 0 505.39 -17.59 0 0 0z"/>
   </clipPath>
   <clipPath id="id13">
    <path d="M0.77 11533.61l0 -2730.57 0 -2139.15c5.81,0 11.75,0 17.59,0l0 2126.57 -0.1 2680.24c-5.86,20.97 -11.63,41.94 -17.49,62.91l0 0z"/>
   </clipPath>
   <clipPath id="id14">
    <path d="M18.36 6159.06c-5.88,0 -11.73,0 -17.59,0l0 -2618.75 -0.04 -2644.4c5.75,63.35 11.63,126.71 17.63,190.07l0 5073.08 0 0z"/>
   </clipPath>
 </defs>
 <g id="Layer_x0020_1">
  <metadata id="CorelCorpID_0Corel-Layer"/>
  <path class="fil0" d="M8475.04 1.31l-8133.13 0c0,0 -341.19,9.26 -341.19,460.9l0.04 3078.45 0 8341.37c0,451.55 341.15,460.9 341.15,460.9l8133.13 0c0,0 341.15,-9.35 341.15,-460.9l0 -11419.82c0,-451.64 -341.15,-460.9 -341.15,-460.9z"/>
  <g style="clip-path:url(#id0)">
   <image x="-11.5" y="6637.32" width="8844.03" height="5729.24" xlink:href="3_Images\3_ImgID1.png"/>
  </g>
  <g style="clip-path:url(#id1)">
   <image x="-11.5" y="0.5" width="8844.03" height="6185.72" xlink:href="3_Images\3_ImgID2.png"/>
  </g>
  <g style="clip-path:url(#id2)">
   <image x="8437.81" y="-17.4" width="412.62" height="12281.03" xlink:href="3_Images\3_ImgID3.png"/>
  </g>
  <g style="clip-path:url(#id3)">
   <image x="8777.93" y="6127.14" width="72.5" height="564.78" xlink:href="3_Images\3_ImgID4.png"/>
  </g>
  <g style="clip-path:url(#id4)">
   <image x="207.79" y="6637.32" width="8642.64" height="5729.24" xlink:href="3_Images\3_ImgID5.png"/>
  </g>
  <g style="clip-path:url(#id5)">
   <image x="8437.81" y="-17.4" width="412.62" height="6203.62" xlink:href="3_Images\3_ImgID6.png"/>
  </g>
  <g style="clip-path:url(#id6)">
   <image x="-11.5" y="6127.14" width="54.6" height="564.78" xlink:href="3_Images\3_ImgID7.png"/>
  </g>
  <g style="clip-path:url(#id7)">
   <image x="-29.4" y="6637.32" width="412.62" height="5729.24" xlink:href="3_Images\3_ImgID8.png"/>
  </g>
  <g style="clip-path:url(#id8)">
   <image x="-29.4" y="-17.4" width="8642.64" height="6203.62" xlink:href="3_Images\3_ImgID9.png"/>
  </g>
  <g style="clip-path:url(#id9)">
   <image x="140.66" y="12240.36" width="242.56" height="126.2" xlink:href="3_Images\3_ImgID10.png"/>
  </g>
  <g style="clip-path:url(#id10)">
   <image x="8437.81" y="-17.4" width="242.56" height="103.83" xlink:href="3_Images\3_ImgID11.png"/>
  </g>
  <g style="clip-path:url(#id11)">
   <image x="-29.4" y="864.23" width="54.6" height="10705.74" xlink:href="3_Images\3_ImgID12.png"/>
  </g>
  <g style="clip-path:url(#id12)">
   <image x="-29.4" y="6127.14" width="72.5" height="564.78" xlink:href="3_Images\3_ImgID13.png"/>
  </g>
  <g style="clip-path:url(#id13)">
   <image x="-29.4" y="6637.32" width="72.5" height="4932.64" xlink:href="3_Images\3_ImgID14.png"/>
  </g>
  <g style="clip-path:url(#id14)">
   <image x="-29.4" y="864.23" width="72.5" height="5321.99" xlink:href="3_Images\3_ImgID15.png"/>
  </g>
  <path class="fil1" d="M670.89 2371.1c-19.2,229.35 -148.53,390.06 -148.53,390.06l296.98 0c0,0 -129.29,-160.71 -148.45,-390.06z"/>
  <path class="fil1" d="M948.09 2031.11c-183.89,-127.14 -274.83,-260.06 -277.15,-263.55l0 -0.13 -0.14 0.04 0 -0.04 0 0.13c-2.37,3.49 -93.26,136.41 -277.24,263.55 -186.44,128.8 -228.82,289.46 -162.18,410.69 66.68,121.24 333.31,180.36 439.42,-60.46 106.16,240.82 372.84,181.7 439.47,60.46 66.68,-121.23 24.26,-281.89 -162.18,-410.69z"/>
  <path class="fil1" d="M360.67 763.76l0 -148.13c60.23,-28.51 116.62,-49.86 169.12,-63.87 52.49,-14.09 103.11,-21.03 151.98,-21.03 58.71,0 110.13,9.04 154.3,27.26 44.17,18.21 77.92,44.3 101.37,78.27 23.36,34.05 35,74.73 35,121.95 0,44.21 -8.82,83.06 -26.5,116.53 -17.63,33.57 -42.47,62.75 -74.38,87.68 -31.95,24.97 -73.39,49.4 -124.32,73.3l0 6.98c31.68,5.73 62.21,15.49 91.56,29.27 29.36,13.74 55.5,31.51 78.28,53.39 22.86,21.75 41.17,47.93 55,78.32 13.78,30.38 20.67,65.02 20.67,104 0,60.24 -13.15,113.76 -39.38,160.57 -26.22,46.77 -66.41,83.65 -120.43,110.68 -54.02,26.98 -119.76,40.45 -197.18,40.45 -44.66,0 -92.86,-4.96 -144.55,-15.17 -51.73,-10.11 -99.13,-23.49 -142.27,-40.1l0 -165.22 93.58 0c18.17,54.06 42.16,93.26 72.05,117.7 29.9,24.43 70.58,36.61 122,36.61 67.53,0 118.64,-18.49 153.14,-55.36 34.55,-36.84 51.82,-91.48 51.82,-163.62 0,-75.9 -22.87,-133.81 -68.51,-173.82 -45.83,-40.01 -112.82,-60.06 -201.17,-60.06l-70.12 0 0 -68.51c70.12,-4.17 129.24,-17.68 177.31,-40.5 48.06,-22.92 83.77,-52.28 107.18,-88.12 23.36,-35.8 35.04,-76.08 35.04,-120.79 0,-57.64 -15.35,-102.13 -46.01,-133.27 -30.61,-31.2 -75.27,-46.77 -134.03,-46.77 -48.87,0 -88.57,13.25 -119.22,39.74 -30.66,26.54 -53.3,66.99 -67.8,121.64l-93.53 0z"/>
  <path class="fil1" d="M8118.41 9951.53c19.2,-229.36 148.58,-390.02 148.58,-390.02l-297.07 0c0,0 129.29,160.66 148.49,390.02z"/>
  <path class="fil1" d="M7841.17 10291.51c183.93,127.15 274.87,260.06 277.19,263.55l0 0.14 0.09 -0.05 0 0.05 0 -0.14c2.42,-3.49 93.36,-136.4 277.29,-263.55 186.4,-128.75 228.82,-289.46 162.14,-410.69 -66.64,-121.28 -333.27,-180.31 -439.43,60.5 -106.06,-240.81 -372.79,-181.78 -439.42,-60.5 -66.68,121.23 -24.26,281.94 162.14,410.69z"/>
  <path class="fil1" d="M8428.59 11558.91l0 148.13c-60.24,28.51 -116.58,49.86 -169.08,63.86 -52.49,14.06 -103.11,21.04 -151.98,21.04 -58.71,0 -110.13,-9.04 -154.26,-27.26 -44.21,-18.21 -77.96,-44.3 -101.36,-78.31 -23.41,-34.02 -35.04,-74.74 -35.04,-122 0,-44.13 8.81,-82.97 26.49,-116.49 17.59,-33.52 42.47,-62.74 74.33,-87.67 32,-24.97 73.4,-49.36 124.33,-73.31l0 -6.98c-31.64,-5.68 -62.17,-15.44 -91.52,-29.27 -29.36,-13.73 -55.45,-31.5 -78.32,-53.39 -22.87,-21.75 -41.17,-47.88 -54.96,-78.27 -13.78,-30.39 -20.67,-65.07 -20.67,-104.05 0,-60.24 13.11,-113.71 39.38,-160.57 26.23,-46.77 66.37,-83.6 120.43,-110.63 54.02,-27.03 119.76,-40.5 197.18,-40.5 44.66,0 92.86,5.01 144.55,15.17 51.69,10.11 99.13,23.54 142.23,40.1l0 165.23 -93.58 0c-18.13,-54.02 -42.11,-93.27 -72.05,-117.7 -29.9,-24.39 -70.53,-36.57 -121.96,-36.57 -67.53,0 -118.63,18.49 -153.14,55.32 -34.5,36.87 -51.87,91.47 -51.87,163.61 0,75.95 22.87,133.81 68.61,173.82 45.78,40.06 112.78,60.06 201.12,60.06l70.12 0 0 68.56c-70.12,4.16 -129.24,17.68 -177.31,40.5 -48.06,22.87 -83.77,52.23 -107.18,88.08 -23.36,35.84 -35.04,76.08 -35.04,120.83 0,57.64 15.35,102.08 46.01,133.23 30.61,31.19 75.31,46.76 134.03,46.76 48.83,0 88.57,-13.2 119.22,-39.74 30.7,-26.49 53.26,-66.99 67.8,-121.59l93.49 0z"/>
  <path class="fil1" d="M4408.46 2983.09c-38.09,455.22 -294.79,774.04 -294.79,774.04l589.57 0c0,0 -256.65,-318.82 -294.78,-774.04z"/>
  <path class="fil1" d="M4958.78 2308.35c-365.09,-252.31 -545.49,-516.18 -550.23,-523.07l0 -0.36 -0.09 0.23 -0.09 -0.23 0 0.36c-4.66,6.89 -185.14,270.76 -550.19,523.07 -369.97,255.63 -454.29,574.45 -321.86,815.13 132.33,240.59 661.53,357.88 872.14,-120.07 210.6,477.95 739.85,360.66 872.18,120.07 132.42,-240.68 48.16,-559.5 -321.86,-815.13z"/>
  <path class="fil1" d="M4408.46 6386.75c-38.09,455.18 -294.79,774.05 -294.79,774.05l589.57 0c0,0 -256.65,-318.87 -294.78,-774.05z"/>
  <path class="fil1" d="M4958.78 5712.02c-365.09,-252.27 -545.49,-516.18 -550.23,-523.03l0 -0.4 -0.09 0.22 -0.09 -0.22 0 0.4c-4.66,6.85 -185.14,270.76 -550.19,523.03 -369.97,255.62 -454.29,574.49 -321.86,815.12 132.33,240.59 661.53,357.85 872.14,-120.07 210.6,477.92 739.85,360.66 872.18,120.07 132.42,-240.63 48.16,-559.5 -321.86,-815.12z"/>
  <path class="fil1" d="M4408.46 9366.34c-38.09,-455.22 -294.79,-774.08 -294.79,-774.08l589.57 0c0,0 -256.65,318.86 -294.78,774.08z"/>
  <path class="fil1" d="M4958.78 10041.08c-365.09,252.27 -545.49,516.18 -550.23,523.02l0 0.41 -0.09 -0.23 -0.09 0.23 0 -0.41c-4.66,-6.84 -185.14,-270.75 -550.19,-523.02 -369.97,-255.67 -454.29,-574.49 -321.86,-815.17 132.33,-240.55 661.53,-357.84 872.14,120.11 210.6,-477.95 739.85,-360.66 872.18,-120.11 132.42,240.68 48.16,559.5 -321.86,815.17z"/>
 </g>
</svg>
