<?xml version="1.0" encoding="UTF-8"?>
<!DOCTYPE svg PUBLIC "-//W3C//DTD SVG 1.1//EN" "http://www.w3.org/Graphics/SVG/1.1/DTD/svg11.dtd">
<!-- Creator: CorelDRAW -->
<svg xmlns="http://www.w3.org/2000/svg" xml:space="preserve" width="100%" height="100%" version="1.1" style="shape-rendering:geometricPrecision; text-rendering:geometricPrecision; image-rendering:optimizeQuality; fill-rule:evenodd; clip-rule:evenodd"
viewBox="0 0 8816.89 12342.99"
 xmlns:xlink="http://www.w3.org/1999/xlink"
 xmlns:xodm="http://www.corel.com/coreldraw/odm/2003">
 <defs>
  <style type="text/css">
   <![CDATA[
    .fil0 {fill:#FEFEFE;fill-rule:nonzero}
    .fil1 {fill:#252422;fill-rule:nonzero}
   ]]>
  </style>
   <clipPath id="id0">
    <path d="M8798.19 6661.74l0 5203.09c0,451.45 -340.93,459.57 -340.93,459.57l-3905.6 0 -330.9 0 -3905.61 0c0,0 -32.59,0 -77.71,-14.62 -100.28,-47.09 -218.1,-159.14 -218.1,-427.09l0 -5219.32c1724.69,0 3451.88,0 5179.07,-1.63 1200.76,0 2399.02,0 3599.78,0zm-323.38 5680.52l-8114.54 0c0,0 0,0 0,0l3883.05 0 330.9 0 3900.59 0c0,0 167.96,-3.24 268.23,-164.01 -97.76,157.52 -263.21,164.01 -268.23,164.01z"/>
   </clipPath>
   <clipPath id="id1">
    <path d="M8640.26 6161.73c-2138.31,0 -4276.62,0 -6414.92,-1.75 -734.5,0 -1471.5,0 -2206,-1.76l0 -2605.43 0 -3073.57c0,-450.61 340.93,-459.37 340.93,-459.37l3903.1 0 333.41 0 3905.61 0c0,0 32.59,0 77.71,15.78 97.76,47.34 218.09,159.55 218.09,426.05l0 0 0 3073.58 0 2626.47c-52.64,0 -105.28,0 -157.93,0l0 0z"/>
   </clipPath>
   <clipPath id="id2">
    <path d="M8743.8 12179.79c42.1,-69.34 72,-162.95 72,-298.16l0 -5221.4 0 0 0 -499.26 0 0 0 -5699.86 0 0c0,-450.71 -340.95,-461.11 -340.95,-461.11l-17.45 0c-0.49,0 -0.98,0 -0.98,0l18.43 0c0,0 340.95,10.4 340.95,461.11l0 3078.76 0 5263 0 3078.76c0,135.21 -29.9,228.82 -72,298.16l0 0z"/>
   </clipPath>
   <clipPath id="id3">
    <path d="M8797.92 6661.73l0 -499.79 17.92 0 0 499.79 -17.92 0 0 0z"/>
   </clipPath>
   <clipPath id="id4">
    <path d="M8473.93 12342.26l-3899.97 0 -330.71 0 -3882.82 0c-9.8,0 -61.24,-3.24 -124.93,-32.48 46.54,14.62 80.84,14.62 80.84,14.62l3902.41 0 333.17 0 3904.86 0c0,0 340.51,-8.12 340.51,-459.57l0 0 0 0 0 -3074.11 0 -2128.98c7.35,0 12.25,0 19.6,0l0 2141.97 0 3078.98c0,133.16 -31.85,228.97 -73.49,295.56 -100.44,160.77 -269.47,164.01 -269.47,164.01l0 0z"/>
   </clipPath>
   <clipPath id="id5">
    <path d="M8797.98 6161.66l0 -2625.28 0 -3075.44 0 0c0,-267.27 -119.95,-378.05 -217.58,-425.53 22.46,7.04 47.47,17.59 73.46,33.41l0 0 0 0 0 0c-88.22,-65.06 -179.01,-66.82 -179.01,-66.82l-17.45 0 0 0 17.45 0c0,0 340.95,8.79 340.95,460.7l0 3077.19 0 2621.77c-5.74,0 -11.6,0 -17.82,0l0 0z"/>
   </clipPath>
   <clipPath id="id6">
    <path d="M17.9 6664.13l0 -505.39 0.45 0 0 505.39 -0.45 0 0 0z"/>
   </clipPath>
   <clipPath id="id7">
    <path d="M359.77 12342.26l-18.37 0c0,0 -340.92,-8.12 -340.92,-459.57l0 -349.15c5.73,-21.11 11.58,-42.22 17.43,-63.33l0 -2679.49 0 -2127.35 0.47 0 0 2145.21 0 3074.11 0 0c0,267.95 119.87,380 217.88,427.09 -22.34,-8.12 -47.83,-17.86 -73.33,-34.1l0 0c88.19,64.96 178.47,66.58 178.47,66.58l18.02 0c0,0 0.35,0 0.35,0l0 0z"/>
   </clipPath>
   <clipPath id="id8">
    <path d="M17.9 6158.14l0 0 0 -5072.97c-4.89,-61.54 -12.24,-124.84 -17.14,-188.14l0 -434.33c0,-451.91 340.51,-460.7 340.51,-460.7l3899.96 0 333.17 0 3882.82 0c7.34,0 61.24,3.52 122.48,33.41 -46.54,-15.82 -78.39,-15.82 -78.39,-15.82l-3904.86 0 -333.17 0 -3902.41 0c0,0 -342.97,8.79 -342.97,460.7l0 3073.67 0 2604.18 0 0z"/>
   </clipPath>
   <clipPath id="id9">
    <path d="M359.36 12342.94l-17.87 0c0,0 -90.41,-2.65 -178.62,-67.18 25.51,15.42 51.08,26.04 73.43,33.38 62.22,30.01 115.43,33.44 123.06,33.8l0 0z"/>
   </clipPath>
   <clipPath id="id10">
    <path d="M8653.81 68.5c-25.91,-15.45 -51.02,-26.01 -73.38,-33.31 -62.68,-30.05 -115.91,-33.52 -123.07,-33.81l17.49 0c0,0 90.81,2.59 178.96,67.12l0 0z"/>
   </clipPath>
   <clipPath id="id11">
    <path d="M-0 11533.61l0 -10642.01c0.45,3.03 0.45,3.03 0.45,6.07l0 2643.05 0 5261.84 0 2731.05c0,0 0,0 -0.45,0l0 0z"/>
   </clipPath>
   <clipPath id="id12">
    <path d="M0.46 6664.13l0 -505.39 17.44 0 0 505.39 -17.44 0 0 0z"/>
   </clipPath>
   <clipPath id="id13">
    <path d="M0.46 11533.67l0 -2730.57 0 -2139.15c5.81,0 12.08,0 17.44,0l0 2126.57 0 2680.24c-5.81,20.97 -11.63,41.94 -17.44,62.91l0 0z"/>
   </clipPath>
   <clipPath id="id14">
    <path d="M17.9 6159.12c-5.36,0 -11.63,0 -17.44,0l0 -2618.75 0 -2644.4c5.81,63.35 11.63,126.71 17.44,190.07l0 5073.08 0 0z"/>
   </clipPath>
 </defs>
 <g id="Layer_x0020_1">
  <metadata id="CorelCorpID_0Corel-Layer"/>
  <path class="fil0" d="M8474.82 1.37l-8133.36 0c0,0 -341.01,9.26 -341.01,460.9l0 11419.82c0,451.55 341.01,460.9 341.01,460.9l8133.36 0c0,0 341.01,-9.35 341.01,-460.9l0 -11419.82c0,-451.64 -341.01,-460.9 -341.01,-460.9z"/>
  <g style="clip-path:url(#id0)">
   <image x="-10.74" y="6637.38" width="8844.03" height="5729.24" xlink:href="6_Images\6_ImgID1.png"/>
  </g>
  <g style="clip-path:url(#id1)">
   <image x="-10.74" y="0.56" width="8844.03" height="6185.72" xlink:href="6_Images\6_ImgID2.png"/>
  </g>
  <g style="clip-path:url(#id2)">
   <image x="8420.67" y="-17.34" width="430.52" height="12231.8" xlink:href="6_Images\6_ImgID3.png"/>
  </g>
  <g style="clip-path:url(#id3)">
   <image x="8778.69" y="6127.2" width="72.5" height="564.78" xlink:href="6_Images\6_ImgID4.png"/>
  </g>
  <g style="clip-path:url(#id4)">
   <image x="208.55" y="6637.38" width="8642.64" height="5729.24" xlink:href="6_Images\6_ImgID5.png"/>
  </g>
  <g style="clip-path:url(#id5)">
   <image x="8420.67" y="-17.34" width="430.52" height="6203.62" xlink:href="6_Images\6_ImgID6.png"/>
  </g>
  <g style="clip-path:url(#id6)">
   <image x="-10.74" y="6127.2" width="54.59" height="564.78" xlink:href="6_Images\6_ImgID7.png"/>
  </g>
  <g style="clip-path:url(#id7)">
   <image x="-28.64" y="6637.38" width="412.62" height="5729.24" xlink:href="6_Images\6_ImgID8.png"/>
  </g>
  <g style="clip-path:url(#id8)">
   <image x="-28.64" y="-17.34" width="8642.64" height="6203.62" xlink:href="6_Images\6_ImgID9.png"/>
  </g>
  <g style="clip-path:url(#id9)">
   <image x="141.42" y="12240.42" width="242.56" height="126.2" xlink:href="6_Images\6_ImgID10.png"/>
  </g>
  <g style="clip-path:url(#id10)">
   <image x="8420.67" y="-17.34" width="260.46" height="103.83" xlink:href="6_Images\6_ImgID11.png"/>
  </g>
  <g style="clip-path:url(#id11)">
   <image x="-28.64" y="864.29" width="54.59" height="10705.74" xlink:href="6_Images\6_ImgID12.png"/>
  </g>
  <g style="clip-path:url(#id12)">
   <image x="-28.64" y="6127.2" width="72.5" height="564.78" xlink:href="6_Images\6_ImgID13.png"/>
  </g>
  <g style="clip-path:url(#id13)">
   <image x="-28.64" y="6637.38" width="72.5" height="4932.64" xlink:href="6_Images\6_ImgID14.png"/>
  </g>
  <g style="clip-path:url(#id14)">
   <image x="-28.64" y="864.29" width="72.5" height="5321.99" xlink:href="6_Images\6_ImgID15.png"/>
  </g>
  <path class="fil1" d="M659.21 2371.16c-19.69,229.35 -149.03,390.06 -149.03,390.06l297.16 0c0,0 -129.34,-160.71 -148.13,-390.06z"/>
  <path class="fil1" d="M935.78 2031.17c-183.49,-127.14 -274.78,-260.06 -276.57,-263.55l0 -0.13 -0.45 0.04 0 -0.04 0 0.13c-2.24,3.49 -93.08,136.41 -277.47,263.55 -186.17,128.8 -228.23,289.46 -161.55,410.69 66.68,121.24 332.96,180.36 439.02,-60.46 106.07,240.82 372.79,181.7 439.47,60.46 66.68,-121.23 24.62,-281.89 -162.45,-410.69z"/>
  <path class="fil1" d="M682.93 1045.89c-25.06,0 -50.13,2.82 -73.4,8.55 -23.72,5.77 -46.09,14.1 -66.68,24.97 -21.03,10.92 -41.17,24.66 -60.86,41.31 -6.27,5.68 -10.74,11.64 -14.32,17.95 -4.93,9.8 -8.06,22.06 -9.85,36.6 -1.79,14.55 -2.24,38.94 -2.24,73.26 0,99.22 16.56,174.85 49.68,226.81 33.12,51.91 83.69,77.92 151.26,77.92 38.94,0 71.61,-6.76 98.01,-20.23 26.41,-13.56 48.33,-32.14 64.45,-55.76 16.55,-23.63 28.19,-51.47 35.35,-83.38 6.71,-31.95 10.29,-66.68 10.29,-104.05 0,-76.93 -15.66,-136.81 -47.43,-179.64 -31.78,-42.87 -76.53,-64.31 -134.26,-64.31zm232.26 -472.27l0 38.17c-80.1,0 -150.81,17.14 -212.57,51.42 -61.76,34.33 -113.23,84.72 -153.95,151.18 -40.73,66.55 -69.37,145.53 -85.93,236.96l7.61 3.09c43.86,-31.15 86.38,-54.06 129.34,-68.56 41.62,-14.54 88.16,-21.84 136.94,-21.84 59.07,0 109.2,12.89 150.37,38.58 41.17,25.73 72.5,61.85 93.09,108.39 21.03,46.45 30.87,100.87 30.87,163.26 0,67.53 -12.97,127.14 -38.48,178.83 -26.41,51.73 -66.24,92.37 -120.83,121.95 -54.16,29.63 -120.84,44.39 -200.5,44.39 -113.67,0 -199.59,-35.26 -257.77,-105.93 -57.73,-70.66 -86.82,-174.84 -86.82,-312.5 0,-92.46 14.77,-179.01 43.86,-259.57 29.08,-80.55 70.26,-150.82 123.96,-210.78 53.26,-60.02 115.46,-107.28 186.17,-141.83 70.71,-34.59 145,-53.92 222.87,-58.04l31.77 42.83z"/>
  <path class="fil1" d="M8109.64 9951.59c19.24,-229.36 148.57,-390.02 148.57,-390.02l-297.15 0c0,0 129.33,160.66 148.58,390.02z"/>
  <path class="fil1" d="M7832.62 10291.57c183.48,127.15 274.78,260.06 277.02,263.55l0 0.14 0 -0.05 0 0.05 0 -0.14c2.68,-3.49 93.08,-136.4 277.46,-263.55 186.17,-128.75 228.69,-289.46 162.01,-410.69 -66.68,-121.28 -333.41,-180.31 -439.47,60.5 -106.07,-240.81 -372.79,-181.78 -439.48,-60.5 -66.68,121.23 -24.16,281.94 162.46,410.69z"/>
  <path class="fil1" d="M8085.47 11276.85c25.51,0 50.12,-2.82 73.84,-8.55 23.27,-5.73 45.65,-14.05 66.68,-24.97 20.59,-10.92 40.73,-24.61 60.42,-41.31 6.26,-5.64 11.19,-11.63 14.32,-17.94 5.37,-9.8 8.5,-22.02 10.29,-36.57 1.35,-14.54 1.79,-38.98 1.79,-73.3 0,-99.26 -16.56,-174.85 -49.67,-226.76 -33.57,-51.92 -83.69,-77.92 -151.27,-77.92 -38.93,0 -71.6,6.76 -98.01,20.23 -26.4,13.52 -47.88,32.09 -64.44,55.76 -16.56,23.59 -28.19,51.47 -34.91,83.38 -7.16,31.91 -10.74,66.63 -10.74,104 0,76.93 15.67,136.86 47.44,179.68 31.78,42.88 76.53,64.27 134.26,64.27zm-232.27 472.27l0 -38.17c80.11,0 151.27,-17.18 213.03,-51.42 61.31,-34.28 113.22,-84.72 153.5,-151.17 41.17,-66.55 69.81,-145.5 86.37,-236.97l-8.06 -3.09c-43.41,31.19 -86.37,54.06 -128.44,68.56 -42.51,14.55 -88.61,21.8 -137.83,21.8 -59.08,0 -108.75,-12.85 -150.37,-38.49 -41.18,-25.73 -72.05,-61.89 -92.64,-108.44 -21.03,-46.45 -31.33,-100.82 -31.33,-163.25 0,-67.49 12.98,-127.15 38.94,-178.79 25.95,-51.73 66.23,-92.37 120.38,-122.04 54.15,-29.58 120.83,-44.35 200.94,-44.35 113.23,0 199.6,35.26 257.33,105.93 57.73,70.66 86.82,174.89 86.82,312.55 0,92.51 -14.32,178.97 -43.86,259.52 -28.64,80.56 -70.26,150.82 -123.52,210.88 -53.7,59.97 -115.91,107.22 -186.61,141.73 -70.27,34.59 -145,53.93 -222.87,58.09l-31.78 -42.88z"/>
  <path class="fil1" d="M2818.97 6386.81c-38.04,455.23 -294.47,774.05 -294.47,774.05l589.39 0c0,0 -256.43,-318.82 -294.92,-774.05z"/>
  <path class="fil1" d="M3369.43 5712.08c-365.18,-252.27 -545.53,-516.18 -550.01,-523.03l0 -0.36 -0.45 0.14 0 -0.14 0 0.36c-4.47,6.85 -184.83,270.76 -550.01,523.03 -369.65,255.67 -454.24,574.44 -321.77,815.17 132.02,240.5 661.45,357.84 871.78,-120.12 210.79,477.96 740.21,360.62 872.68,120.12 132.02,-240.73 47.89,-559.5 -322.22,-815.17z"/>
  <path class="fil1" d="M2818.97 9366.4c-38.04,-455.22 -294.47,-774.08 -294.47,-774.08l589.39 0c0,0 -256.43,318.86 -294.92,774.08z"/>
  <path class="fil1" d="M3369.43 10041.14c-365.18,252.27 -545.53,516.18 -550.01,523.02l0 0.41 -0.45 -0.23 0 0.23 0 -0.41c-4.47,-6.84 -184.83,-270.75 -550.01,-523.02 -369.65,-255.67 -454.24,-574.49 -321.77,-815.17 132.02,-240.55 661.45,-357.84 871.78,120.11 210.79,-477.95 740.21,-360.66 872.68,-120.11 132.02,240.68 47.89,559.5 -322.22,815.17z"/>
  <path class="fil1" d="M2818.97 2983.15c-38.04,455.22 -294.47,774.04 -294.47,774.04l589.39 0c0,0 -256.43,-318.82 -294.92,-774.04z"/>
  <path class="fil1" d="M3369.43 2308.41c-365.18,-252.31 -545.53,-516.18 -550.01,-523.07l0 -0.36 -0.45 0.23 0 -0.23 0 0.36c-4.47,6.89 -184.83,270.76 -550.01,523.07 -369.65,255.63 -454.24,574.45 -321.77,815.13 132.02,240.59 661.45,357.88 871.78,-120.07 210.79,477.95 740.21,360.66 872.68,120.07 132.02,-240.68 47.89,-559.5 -322.22,-815.13z"/>
  <path class="fil1" d="M6009.84 6386.81c-38.04,455.23 -294.47,774.05 -294.47,774.05l589.39 0c0,0 -256.43,-318.82 -294.92,-774.05z"/>
  <path class="fil1" d="M6560.3 5712.08c-365.18,-252.27 -545.54,-516.18 -550.01,-523.03l0 -0.36 -0.45 0.14 0 -0.14 0 0.36c-4.48,6.85 -184.83,270.76 -550.01,523.03 -369.66,255.67 -454.24,574.44 -321.77,815.17 132.02,240.5 661.44,357.84 871.78,-120.12 210.78,477.96 740.21,360.62 872.68,120.12 132.02,-240.73 47.88,-559.5 -322.22,-815.17z"/>
  <path class="fil1" d="M6009.84 9366.4c-38.04,-455.22 -294.47,-774.08 -294.47,-774.08l589.39 0c0,0 -256.43,318.86 -294.92,774.08z"/>
  <path class="fil1" d="M6560.3 10041.14c-365.18,252.27 -545.54,516.18 -550.01,523.02l0 0.41 -0.45 -0.23 0 0.23 0 -0.41c-4.48,-6.84 -184.83,-270.75 -550.01,-523.02 -369.66,-255.67 -454.24,-574.49 -321.77,-815.17 132.02,-240.55 661.44,-357.84 871.78,120.11 210.78,-477.95 740.21,-360.66 872.68,-120.11 132.02,240.68 47.88,559.5 -322.22,815.17z"/>
  <path class="fil1" d="M6010.29 2983.15c-38.49,455.22 -294.92,774.04 -294.92,774.04l589.39 0c0,0 -256.43,-318.82 -294.47,-774.04z"/>
  <path class="fil1" d="M6560.3 2308.41c-365.18,-252.31 -545.54,-516.18 -550.01,-523.07l0 -0.36 0 0.23 -0.45 -0.23 0 0.36c-4.48,6.89 -184.83,270.76 -550.01,523.07 -369.66,255.63 -454.24,574.45 -321.77,815.13 132.02,240.59 661.44,357.88 872.23,-120.07 210.33,477.95 739.76,360.66 872.23,120.07 132.02,-240.68 47.88,-559.5 -322.22,-815.13z"/>
 </g>
</svg>
