<?xml version="1.0" encoding="UTF-8"?>
<!DOCTYPE svg PUBLIC "-//W3C//DTD SVG 1.1//EN" "http://www.w3.org/Graphics/SVG/1.1/DTD/svg11.dtd">
<!-- Creator: CorelDRAW -->
<svg xmlns="http://www.w3.org/2000/svg" xml:space="preserve" width="100%" height="100%" version="1.1" style="shape-rendering:geometricPrecision; text-rendering:geometricPrecision; image-rendering:optimizeQuality; fill-rule:evenodd; clip-rule:evenodd"
viewBox="0 0 8816.4 12342.86"
 xmlns:xlink="http://www.w3.org/1999/xlink"
 xmlns:xodm="http://www.corel.com/coreldraw/odm/2003">
 <defs>
  <style type="text/css">
   <![CDATA[
    .fil0 {fill:#FEFEFE;fill-rule:nonzero}
    .fil1 {fill:#252422;fill-rule:nonzero}
   ]]>
  </style>
   <clipPath id="id0">
    <path d="M8475.02 12342.13l-3902.18 0 -330.4 0 -3882.16 0c0,0 0,0 -2.5,0l3884.66 0 330.4 0 3902.18 0c0,0 85.1,-1.62 170.21,-61.71 -85.11,60.09 -170.21,61.71 -170.21,61.71zm-17.52 -17.86l-3904.69 0 -332.9 0 -3904.68 0c0,0 -32.54,0 -80.1,-14.62 -97.62,-47.09 -217.76,-159.14 -217.76,-427.09l0 0 0 -3074.11 0 -2145.21c1727.07,0 3454.15,0 5181.22,-1.63 1198.94,0 2400.38,0 3599.32,0l0 2128.98 0 3074.11 0 0c0,451.45 -340.41,459.57 -340.41,459.57l0 0z"/>
   </clipPath>
   <clipPath id="id1">
    <path d="M8640.22 6161.6c-2137.57,0 -4275.13,0 -6415.2,-1.75 -735.88,0 -1471.77,0 -2207.65,-1.76l0 -2605.43 0 -3073.57c0,-450.61 342.91,-459.37 342.91,-459.37l3904.69 0 330.39 0 3904.69 0c0,0 35.04,0 80.1,15.78 97.61,47.34 217.76,157.8 217.76,426.05l0 0 0 3073.58 0 2626.47c-52.56,0 -105.13,0 -157.69,0l0 0z"/>
   </clipPath>
   <clipPath id="id2">
    <path d="M8646.16 12281.33c84.91,-59.41 169.58,-174.74 169.58,-398.42l0 -5221.49 0 0 0 -499.78 0 0 0 -5700.3 0 0c0,-450.85 -341.16,-461.34 -341.16,-461.34l-17.42 0c-0.47,0 -0.82,0 -0.82,0l18.24 0c0,0 341.16,10.49 341.16,461.34l0 3079.07 0 5263.43 0 3079.07c0,223.68 -84.56,339.01 -169.58,398.42l0 0z"/>
   </clipPath>
   <clipPath id="id3">
    <path d="M8797.87 6661.6l0 -499.79 17.85 0 0 499.79 -17.85 0 0 0z"/>
   </clipPath>
   <clipPath id="id4">
    <path d="M8473.43 12342.13l-3899.96 0 -330.72 0 -3882.81 0c-7.35,0 -61.25,-3.24 -124.94,-32.48 46.55,14.62 80.84,14.62 80.84,14.62l3904.87 0 330.71 0 3904.87 0c0,0 340.51,-8.12 340.51,-459.57l0 0 0 0 0 -3074.11 0 -2128.98c7.35,0 12.25,0 19.6,0l0 2141.97 0 3078.98c0,224.1 -85.74,339.4 -169.04,397.86 -85.74,60.09 -173.93,61.71 -173.93,61.71l0 0z"/>
   </clipPath>
   <clipPath id="id5">
    <path d="M8797.85 6161.53l0 -2625.28 0 -3075.44 0 0c0,-267.27 -119.88,-378.05 -217.66,-425.53 22.34,7.04 47.49,17.59 73.22,33.41l0 0 0 0 0 0c-87.95,-65.06 -178.83,-66.82 -178.83,-66.82l-17.42 0 0 0 17.42 0c0,0 341.16,8.79 341.16,460.7l0 3077.19 0 2621.77c-5.96,0 -11.93,0 -17.89,0l0 0z"/>
   </clipPath>
   <clipPath id="id6">
    <path d="M17.89 6664l0 -505.39 0.23 0 0 505.39 -0.23 0 0 0z"/>
   </clipPath>
   <clipPath id="id7">
    <path d="M359.65 12342.13l-18.13 0c0,0 -341.27,-8.12 -341.27,-459.57l0 -349.15c5.84,-21.11 11.69,-42.22 17.54,-63.33l0.12 -2679.49 0 -2127.35c0.11,0 0.11,0 0.23,0l0 2145.21 0 3074.11 0 0c0,267.95 119.88,380 217.66,427.09 -22.23,-8.12 -47.49,-17.86 -73.22,-34.1l0 0c87.95,64.96 178.83,66.58 178.83,66.58l17.42 0c0.59,0 0.82,0 0.82,0l0 0z"/>
   </clipPath>
   <clipPath id="id8">
    <path d="M18.09 6158.01c0,0 0,0 0,0l0 -5072.97c-7.34,-63.3 -12.23,-126.6 -17.12,-189.9l0 -432.57c0,-451.91 339.81,-460.7 339.81,-460.7l3901.67 0 332.47 0 3882.11 0c7.33,0 61.12,3.52 122.23,33.41 -44,-15.82 -78.23,-15.82 -78.23,-15.82l-3904.11 0 -332.47 0 -3904.11 0c0,0 -342.25,8.79 -342.25,460.7l0 3073.67 0 2604.18 0 0z"/>
   </clipPath>
   <clipPath id="id9">
    <path d="M358.82 12342.81l-17.35 0c0,0 -90.88,-2.65 -178.88,-67.18 25.76,15.42 50.94,26.04 73.16,33.38 62.46,30.01 115.91,33.44 123.07,33.8l0 0z"/>
   </clipPath>
   <clipPath id="id10">
    <path d="M8653.38 68.37c-25.69,-15.45 -50.94,-26.01 -73.16,-33.34 -62.38,-30.02 -115.83,-33.49 -123.07,-33.78l17.43 0c0,0 90.88,2.59 178.8,67.12l0 0z"/>
   </clipPath>
   <clipPath id="id11">
    <path d="M-0 11533.48l0 -10642.01c0.1,3.03 0.17,3.03 0.25,3.03l0.05 2646.09 0 5261.84 0 2731.05c-0.1,0 -0.2,0 -0.3,0l0 0z"/>
   </clipPath>
   <clipPath id="id12">
    <path d="M0.28 6664l0 -505.39 17.61 0 0 505.39 -17.61 0 0 0z"/>
   </clipPath>
   <clipPath id="id13">
    <path d="M0.28 11533.54l0 -2730.57 0 -2139.15c5.84,0 11.8,0 17.61,0l0 2126.57 -0.06 2680.24c-5.94,20.97 -11.69,41.94 -17.55,62.91l0 0z"/>
   </clipPath>
   <clipPath id="id14">
    <path d="M17.89 6158.99c-5.9,0 -11.71,0 -17.61,0l0 -2618.75 -0.04 -2644.4c5.77,63.35 11.63,126.71 17.65,190.07l0 5073.08 0 0z"/>
   </clipPath>
 </defs>
 <g id="Layer_x0020_1">
  <metadata id="CorelCorpID_0Corel-Layer"/>
  <path class="fil0" d="M8474.54 1.24l-8133.06 0c0,0 -341.23,9.26 -341.23,460.9l0.04 3078.45 0 8341.37c0,451.55 341.19,460.9 341.19,460.9l8133.06 0c0,0 341.19,-9.35 341.19,-460.9l0 -11419.82c0,-451.64 -341.19,-460.9 -341.19,-460.9z"/>
  <g style="clip-path:url(#id0)">
   <image x="-5.16" y="6637.25" width="8830.6" height="5729.24" xlink:href="Ace_Images\Ace_ImgID1.png"/>
  </g>
  <g style="clip-path:url(#id1)">
   <image x="-5.16" y="0.43" width="8830.6" height="6185.72" xlink:href="Ace_Images\Ace_ImgID2.png"/>
  </g>
  <g style="clip-path:url(#id2)">
   <image x="8430.72" y="-17.47" width="412.62" height="12330.26" xlink:href="Ace_Images\Ace_ImgID3.png"/>
  </g>
  <g style="clip-path:url(#id3)">
   <image x="8766.37" y="6127.07" width="76.97" height="564.78" xlink:href="Ace_Images\Ace_ImgID4.png"/>
  </g>
  <g style="clip-path:url(#id4)">
   <image x="200.7" y="6637.25" width="8642.64" height="5729.24" xlink:href="Ace_Images\Ace_ImgID5.png"/>
  </g>
  <g style="clip-path:url(#id5)">
   <image x="8430.72" y="-17.47" width="412.62" height="6203.62" xlink:href="Ace_Images\Ace_ImgID6.png"/>
  </g>
  <g style="clip-path:url(#id6)">
   <image x="-0.68" y="6127.07" width="54.6" height="564.78" xlink:href="Ace_Images\Ace_ImgID7.png"/>
  </g>
  <g style="clip-path:url(#id7)">
   <image x="-18.58" y="6637.25" width="412.62" height="5729.24" xlink:href="Ace_Images\Ace_ImgID8.png"/>
  </g>
  <g style="clip-path:url(#id8)">
   <image x="-18.58" y="-17.47" width="8624.74" height="6203.62" xlink:href="Ace_Images\Ace_ImgID9.png"/>
  </g>
  <g style="clip-path:url(#id9)">
   <image x="133.58" y="12240.29" width="260.46" height="126.2" xlink:href="Ace_Images\Ace_ImgID10.png"/>
  </g>
  <g style="clip-path:url(#id10)">
   <image x="8430.72" y="-17.47" width="260.46" height="103.83" xlink:href="Ace_Images\Ace_ImgID11.png"/>
  </g>
  <g style="clip-path:url(#id11)">
   <image x="-18.58" y="864.16" width="54.6" height="10705.74" xlink:href="Ace_Images\Ace_ImgID12.png"/>
  </g>
  <g style="clip-path:url(#id12)">
   <image x="-18.58" y="6127.07" width="72.5" height="564.78" xlink:href="Ace_Images\Ace_ImgID13.png"/>
  </g>
  <g style="clip-path:url(#id13)">
   <image x="-18.58" y="6637.25" width="72.5" height="4932.64" xlink:href="Ace_Images\Ace_ImgID14.png"/>
  </g>
  <g style="clip-path:url(#id14)">
   <image x="-18.58" y="864.16" width="72.5" height="5321.99" xlink:href="Ace_Images\Ace_ImgID15.png"/>
  </g>
  <path class="fil1" d="M700.37 2371.03c-19.19,229.35 -148.54,390.06 -148.54,390.06l297.03 0c0,0 -129.29,-160.71 -148.49,-390.06z"/>
  <path class="fil1" d="M977.63 2031.04c-183.96,-127.14 -274.88,-260.06 -277.22,-263.55l0 -0.13 -0.04 0.04 -0.07 -0.04 0 0.13c-2.39,3.49 -93.29,136.41 -277.26,263.55 -186.38,128.8 -228.81,289.46 -162.14,410.69 66.64,121.24 333.34,180.36 439.47,-60.46 106.12,240.82 372.78,181.7 439.45,60.46 66.68,-121.23 24.21,-281.89 -162.19,-410.69z"/>
  <path class="fil1" d="M529.28 1186.06l325.75 0 -148.07 -502.7 -177.68 502.7zm299.28 420.81l0 -38.17c25.95,-5.24 45.3,-10.92 58.06,-17.14 12.71,-6.22 22.22,-14.95 28.46,-26.09 6.22,-11.15 9.33,-26.09 9.33,-44.84 0,-17.64 -2.06,-36.7 -6.25,-57.24 -4.13,-20.59 -10.09,-43.55 -17.94,-69.01l-28.82 -100.52 -363.13 0 -26.54 76.35c-13.48,38.44 -22.32,67.58 -26.45,87.31 -4.19,19.74 -6.29,37.64 -6.29,53.75 0,31.2 7.95,54.06 23.81,68.56 15.83,14.59 40.12,24.21 72.86,28.87l0 38.17 -332.76 0 0 -38.17c29.07,-4.66 54.4,-21.57 75.94,-50.66 21.55,-29.09 42.53,-70.67 62.78,-124.73l324.96 -862.65 123.16 0 264.96 868.92c12.45,40.54 23.5,71.42 33.11,92.73 9.62,21.3 21.14,37.95 34.69,49.9 13.49,11.99 31.95,20.81 55.33,26.49l0 38.17 -359.27 0z"/>
  <path class="fil1" d="M8091.59 9951.46c19.15,-229.36 148.53,-390.02 148.53,-390.02l-296.98 0c0,0 129.29,160.66 148.45,390.02z"/>
  <path class="fil1" d="M7814.3 10291.44c183.98,127.15 274.87,260.06 277.24,263.55l0 0.14 0.05 -0.05 0.04 0.05 0 -0.14c2.42,-3.49 93.31,-136.4 277.24,-263.55 186.4,-128.75 228.87,-289.46 162.19,-410.69 -66.68,-121.28 -333.36,-180.31 -439.47,60.5 -106.16,-240.81 -372.79,-181.78 -439.43,-60.5 -66.73,121.23 -24.26,281.94 162.14,410.69z"/>
  <path class="fil1" d="M8262.68 11136.46l-325.8 0 148.13 502.71 177.67 -502.71zm-299.26 -420.85l0 38.17c-25.96,5.24 -45.29,10.92 -58.09,17.14 -12.71,6.27 -22.2,14.95 -28.42,26.14 -6.27,11.1 -9.4,26.09 -9.4,44.84 0,17.59 2.1,36.7 6.27,57.24 4.16,20.54 10.11,43.5 17.94,69.01l28.82 100.51 363.17 0 26.49 -76.34c13.47,-38.45 22.34,-67.58 26.5,-87.32 4.16,-19.78 6.26,-37.63 6.26,-53.74 0,-31.2 -7.96,-54.11 -23.81,-68.61 -15.84,-14.59 -40.14,-24.21 -72.85,-28.87l0 -38.17 332.73 0 0 38.17c-29.09,4.66 -54.37,21.62 -75.9,50.66 -21.57,29.09 -42.56,70.67 -62.83,124.73l-324.9 862.7 -123.16 0 -265.03 -868.92c-12.4,-40.59 -23.45,-71.47 -33.12,-92.73 -9.57,-21.34 -21.07,-37.99 -34.63,-49.9 -13.48,-11.99 -32,-20.81 -55.32,-26.54l0 -38.17 359.28 0z"/>
  <path class="fil1" d="M6541.67 6333.56c-17.28,58.05 -63.55,98.59 -118.19,112.42 1.96,-13.34 3.31,-26.63 4.69,-39.83 17.41,-15.53 31.33,-35.26 38.54,-59.34 14.81,-49.9 -1.52,-100.92 -37.28,-133.99 -2.69,-29.54 -7.03,-59.16 -12.31,-88.75 4.16,0.81 8.37,1.44 12.58,2.65 88.02,26.22 138.15,118.81 111.97,206.84zm-71.34 252.45c44.26,80.47 15.04,181.61 -65.47,225.91 -37.06,20.41 -78.23,24.57 -116.31,15.62 10.11,-15.75 19.82,-31.77 28.86,-48.69 8.37,-2.55 16.78,-5.73 24.84,-10.16 64,-35.26 87.22,-115.59 52.05,-179.63l-1.52 -2.2c6.08,-20.94 11.41,-41.84 16.06,-62.74 24.93,14.32 46.54,34.86 61.49,61.89zm-218.39 388.37c-8.82,91.34 -90.13,158.33 -181.61,149.42 -33.83,-3.26 -63.95,-16.69 -88.25,-36.65 23.41,-10.29 45.87,-21.97 67.93,-34.46 62.57,2.82 117.61,-38.44 133.28,-97.87 19.73,-18.62 38.8,-38.13 56.43,-59.39 10.2,24.12 14.95,50.89 12.22,78.95zm-384.92 215.26c-41.4,81.89 -141.46,114.74 -223.54,73.21 -42.56,-21.52 -70.93,-59.03 -83.06,-101.45 16.96,0.53 33.79,0.76 50.62,0.53 9.57,9.63 20.09,18.4 32.89,24.89 61.04,30.83 134.08,9.53 170.33,-46.73 23.81,-5.01 47.17,-11.05 70.17,-17.85 -0.9,22.73 -6.44,45.65 -17.41,67.4zm-423.05 74.42c-71.51,57.51 -176.23,46.1 -233.83,-25.55 -34.23,-42.65 -42.96,-96.62 -29.71,-145.67 11.5,3.8 23.13,7.56 34.68,11.01 2.86,23.22 11.05,45.96 26.89,65.56 45.79,56.92 128.94,66.05 185.91,20.27 12.66,-10.16 22.28,-22.33 30.07,-35.44 15.22,1.74 30.3,3.13 45.47,4.25 -5.5,40.1 -25.33,78.18 -59.48,105.57zm-394.36 -126.78c-85.74,32.75 -181.87,-10.21 -214.68,-96 -14.58,-38.31 -13.6,-78.23 -0.76,-113.89 14.82,9.66 29.72,19.33 44.94,28.41 1.2,9.85 3.62,19.74 7.33,29.41 26.1,68.2 102.44,102.43 170.74,76.34 5.72,-2.23 10.69,-5.5 15.88,-8.45 17.95,7.42 36.07,14.45 54.2,21.12 -18.13,27.61 -44.31,50.35 -77.65,63.06zm-451.95 -320.34c-17.64,-26.01 -24.98,-55.63 -23.86,-84.72 5.37,-1.12 10.7,-2.69 16.07,-4.34 51.15,52.58 106.29,101.05 164.82,144.68 -57.46,16.88 -121.41,-3.44 -157.03,-55.62zm-138.97 -221.13c0.31,-9.98 -0.37,-19.82 -2.14,-29.44 21.66,31.14 44.26,61.53 68.47,90.57 -28.82,-9.97 -53.33,-31.28 -66.33,-61.13zm-58.56 0c-12.19,27.97 -34.3,48.43 -60.65,59.12 21.7,-26.04 42.04,-53.25 61.77,-81.05 -0.91,7.25 -1.3,14.55 -1.12,21.93zm-139 221.13c-34.96,51.24 -97.13,71.51 -153.82,56.29 58.56,-43.54 113.7,-91.92 164.92,-144.46 4.25,1.12 8.44,2.55 12.78,3.45 1.05,29.09 -6.14,58.71 -23.88,84.72zm-237.17 224.34c-32.89,85.79 -129.05,128.75 -214.82,96 -32.88,-12.54 -58.56,-34.82 -76.62,-61.9 18.45,-6.76 36.84,-13.65 55.07,-21.3 4.72,2.55 8.97,5.55 14,7.47 68.37,26.09 144.68,-8.14 170.82,-76.34 3.38,-8.78 5.5,-17.73 6.88,-26.68 15.6,-9.17 30.77,-19.06 45.96,-28.91 12.13,35.13 12.89,74.16 -1.29,111.66zm-375.33 197.23c-57.6,71.65 -162.23,83.06 -233.83,25.55 -34.02,-27.3 -53.8,-65.2 -59.39,-105.21 15.14,-1.03 30.37,-2.55 45.66,-4.26 7.71,12.94 17.36,25.02 29.79,35.09 56.97,45.78 140.15,36.65 185.99,-20.27 15.49,-19.2 23.7,-41.44 26.69,-64.18 11.79,-3.49 23.5,-7.34 35.28,-11.19 12.75,48.7 3.74,102.13 -30.19,144.47zm-433.28 24.34c-82.06,41.53 -182.12,8.68 -223.55,-73.21 -11.16,-22.11 -16.68,-45.56 -17.5,-68.74 22.79,6.93 45.94,12.97 69.56,18.08 35.95,57.06 109.62,78.85 171.05,47.84 12.8,-6.54 23.36,-15.26 32.99,-24.98 16.75,0.32 33.57,0.18 50.43,-0.26 -12.13,42.33 -40.52,79.79 -82.98,101.27zm-426.86 -139.05c-91.45,8.91 -172.77,-58.08 -181.57,-149.42 -2.88,-29.41 2.41,-57.47 13.67,-82.35 16.96,20.68 35.04,40.05 54.06,58.31 14.28,63.06 72.44,107.41 138.33,102.44 21.1,11.95 42.74,23.18 65.12,33.12 -24.53,20.68 -55.12,34.55 -89.61,37.9zm-334.55 -311.88c-80.52,-44.3 -109.75,-145.44 -65.46,-225.91 15.64,-28.37 38.63,-49.81 65.03,-64.22 4.47,20.27 9.63,40.55 15.41,60.87l-4.4 6.4c-35.21,64.04 -11.94,144.37 52.02,179.63 9.57,5.28 19.58,8.86 29.65,11.46 8.66,16.15 18.04,31.5 27.68,46.63 -39.11,10.12 -81.68,6.22 -119.93,-14.86zm-20.09 -602.9c-38.73,32.8 -57.21,85.92 -41.77,137.79 7.81,26.09 23.44,47.08 43.02,62.97 1.39,12.39 2.72,24.79 4.47,37.23 -56.48,-12.71 -104.71,-53.88 -122.44,-113.45 -26.18,-88.03 23.99,-180.62 111.95,-206.84 5.63,-1.66 11.25,-2.65 16.88,-3.54 -5.15,28.64 -9.31,57.28 -12.11,85.84zm-36.79 -281.68c-26.19,-87.98 24,-180.66 111.95,-206.84 27.6,-8.15 55.31,-8.11 81.41,-2.15 -10.05,19.24 -19.65,38.44 -28.76,57.55l-0.56 0.13c-70.02,20.86 -109.94,94.52 -89.04,164.51 2.98,10.12 7.33,19.47 12.42,28.15 -5.45,17.23 -10.55,34.42 -15.28,51.65 -33.47,-20.45 -60.06,-52.32 -72.14,-93zm311.01 -580.75c39.51,-11.82 79.46,-7.57 114.14,8.1 -10.59,14.27 -21.14,28.55 -31.31,42.69 -10.26,0.45 -20.56,1.66 -30.82,4.7 -70.03,20.81 -109.91,94.47 -89.05,164.47l2.39 5.81c-10.97,17.73 -21.41,35.31 -31.73,52.9 -20.59,-19.06 -37.04,-42.92 -45.61,-71.92 -26.22,-87.98 23.99,-180.62 111.99,-206.75zm287.91 -331.04c30.15,0 57.84,8.77 82.05,22.96 -13.21,15.35 -26.38,30.52 -39.31,45.65l-8.73 -0.5c-73.03,0 -132.31,59.17 -132.31,132.25 0,11.68 2.16,22.69 5.08,33.47 -10.71,13.65 -21.29,27.21 -31.69,40.73 -25.59,-28.87 -41.4,-66.5 -41.4,-108.26 0,-91.88 74.45,-166.3 166.31,-166.3zm266.45 -323.16c37.46,0 71.37,13.16 98.98,34.06 -11.64,12.57 -23.43,25.28 -35.25,37.99 -9.54,-2.32 -19.36,-3.89 -29.71,-3.89 -73.02,0 -132.23,59.16 -132.23,132.29 0,14.14 2.5,27.66 6.78,40.46 -10.8,11.9 -21.21,23.71 -31.71,35.62 -26.59,-29.22 -43.15,-67.44 -43.15,-110.14 0,-91.88 74.46,-166.39 166.29,-166.39zm268.2 -309.96c40.59,0 77.22,15.04 105.76,39.39 -10.23,11.72 -20.61,23.49 -31.15,35.35 -12.74,-4.21 -26.36,-6.71 -40.57,-6.71 -73.06,0 -132.28,59.25 -132.28,132.33 0,19.2 4.36,37.24 11.85,53.57 -9.5,10.43 -19.25,21.04 -28.87,31.51 -31.45,-29.99 -51.04,-72.14 -51.04,-119.18 0,-91.83 74.47,-166.26 166.3,-166.26zm266.49 -318.05c41.9,0 79.77,15.84 108.68,41.57 -9.6,11.68 -19.14,23.27 -29.11,35.27 -14.14,-5.46 -29.38,-8.82 -45.54,-8.82 -73.01,0 -132.24,59.25 -132.24,132.29 0,23.9 6.69,45.92 17.88,65.07 -8.01,9.26 -16.45,18.89 -24.66,28.33 -37.23,-30.21 -61.28,-75.63 -61.28,-127.41 0,-91.79 74.44,-166.3 166.27,-166.3zm237.56 -322.8c47.23,0 89.33,20.05 119.27,51.86 -7.83,10.3 -15.8,20.77 -24.02,31.47 -18.32,-9.67 -39.05,-15.31 -61.26,-15.31 -73.01,0 -132.24,59.25 -132.24,132.29 0,33.34 12.55,63.41 32.95,86.42 -5.82,7.2 -11.89,14.63 -17.81,21.97 -49.62,-28.51 -83.2,-81.09 -83.2,-142.4 0,-91.84 74.47,-166.3 166.31,-166.3zm266.55 -323.12c36.28,0 69.07,12.44 96.27,32.27 -7.62,11.86 -16.57,25.51 -26.97,41.13 -11.29,-3.18 -22.97,-5.28 -35.28,-5.28 -73.07,0 -132.34,59.2 -132.34,132.24 0,28.46 9.6,54.24 25.06,75.68 -6.61,8.9 -13.1,17.81 -19.97,27.03 -44,-29.63 -73.14,-79.57 -73.14,-136.77 0,-91.83 74.51,-166.3 166.37,-166.3zm131.02 -208.05c83.64,-2.06 140.57,51.06 179.82,116.67l-8.55 -0.45c-17.68,0 -34.91,2.19 -51.42,6.31 -25.91,-39.88 -90.98,-65.74 -129.86,-63.19 -39.16,2.59 -83.47,29.94 -103.93,66.86 -19.96,-6.27 -41.06,-9.98 -63.07,-9.98 -3.29,0 -6.54,0.31 -9.74,0.49 33.62,-71.56 100.75,-114.65 186.75,-116.71zm291.74 374.35c0,56.03 -27.83,105.17 -70.3,134.98 -7.16,-9.54 -13.97,-18.75 -20.68,-27.97 14.28,-20.86 22.82,-45.7 22.82,-72.95 0,-73.04 -59.16,-132.24 -132.2,-132.24 -11.09,0 -21.57,1.79 -31.72,4.34 -10.84,-16.16 -19.94,-30.17 -27.73,-42.16 26.61,-18.57 58.38,-30.3 93.47,-30.3 91.83,0 166.34,74.47 166.34,166.3zm100.11 156.82c91.84,0 166.31,74.46 166.31,166.3 0,60.14 -32.41,111.79 -80.38,140.65 -6.18,-7.56 -12.44,-15.3 -18.48,-22.73 19.15,-22.69 30.88,-51.78 30.88,-83.91 0,-73.04 -59.3,-132.29 -132.29,-132.29 -21.04,0 -40.59,5.24 -58.14,13.96 -8.46,-11.05 -16.69,-21.84 -24.79,-32.44 29.81,-30.43 70.89,-49.54 116.89,-49.54zm237.6 322.8c91.83,0 166.3,74.51 166.3,166.3 0,50.66 -23.18,95.19 -59.03,125.35 -8.46,-9.76 -17.05,-19.69 -25.42,-29.31 10.16,-18.4 16.38,-39.34 16.38,-62.03 0,-73.04 -59.25,-132.29 -132.29,-132.29 -14.99,0 -29.18,2.91 -42.43,7.61 -10.24,-12.31 -20,-24.21 -29.94,-36.21 28.74,-24.43 65.66,-39.42 106.43,-39.42zm266.5 318.05c91.79,0 166.25,74.43 166.25,166.26 0,45.92 -18.75,87.13 -48.82,117.07 -10.03,-10.87 -20.09,-21.88 -29.85,-32.53 6.71,-15.58 10.7,-32.49 10.7,-50.44 0,-73.08 -59.26,-132.33 -132.34,-132.33 -13.02,0 -25.6,2.1 -37.41,5.64 -10.83,-12.18 -21.48,-24.26 -32,-36.25 28.28,-23.18 63.91,-37.42 103.47,-37.42zm268.16 309.96c91.87,0 166.34,74.51 166.34,166.39 0,41.53 -15.71,78.99 -41.08,107.81 -10.88,-12.22 -21.66,-24.43 -32.85,-36.79 3.63,-11.72 5.86,-24.07 5.86,-36.96 0,-73.13 -59.25,-132.29 -132.29,-132.29 -9.17,0 -17.9,1.12 -26.49,2.95 -12.08,-13.02 -24.08,-26.04 -36.02,-38.84 27.12,-19.92 60.14,-32.27 96.53,-32.27zm266.54 323.16c91.84,0 166.26,74.42 166.26,166.3 0,40.55 -14.95,77.24 -39.16,105.75 -10.78,-13.92 -21.7,-27.88 -32.8,-42.02 2.32,-9.53 3.89,-19.38 3.89,-29.67 0,-73.08 -59.21,-132.25 -132.2,-132.25l-4.83 0.23c-13.34,-15.58 -26.94,-31.24 -40.64,-46.99 23.59,-13.29 50.44,-21.35 79.48,-21.35zm287.9 331.04c87.98,26.13 138.1,118.77 112.01,206.75 -8.37,27.71 -23.63,50.93 -43.05,69.5 -10.52,-17.99 -21.44,-36.11 -32.76,-54.33l0.76 -1.96c20.9,-70 -18.93,-143.66 -88.97,-164.47 -8.95,-2.64 -17.9,-4.03 -26.71,-4.7 -10.56,-14.63 -21.44,-29.31 -32.36,-44.08 33.92,-14.55 72.72,-18.13 111.08,-6.71zm95.01 322.04l6.13 -2.42 -5.42 3.71 -0.71 -1.29zm-231.28 -349.21l4.47 -2.37 -3.53 3.62 -0.94 -1.25zm-266.28 -322.98l1.65 -0.8 -1.16 1.34 -0.49 -0.54zm441.17 1210.92c-42.69,0 -77.24,-34.55 -77.24,-77.24 0,-42.61 34.55,-77.16 77.24,-77.16 42.56,0 77.24,34.55 77.24,77.16 0,42.69 -34.68,77.24 -77.24,77.24zm-150.55 -454.02c0,-33.92 27.57,-61.49 61.58,-61.49 33.97,0 61.49,27.57 61.49,61.49 0,34.02 -27.52,61.54 -61.49,61.54 -34.01,0 -61.58,-27.52 -61.58,-61.54zm79.17 698.82c45.83,0 83.1,37.23 83.1,83.15 0,45.91 -37.27,83.1 -83.1,83.1 -45.87,0 -83.11,-37.19 -83.11,-83.1 0,-45.92 37.24,-83.15 83.11,-83.15zm-651.96 473.66c0,-33.97 27.52,-61.49 61.54,-61.49 33.96,0 61.53,27.52 61.53,61.49 0,34.01 -27.57,61.53 -61.53,61.53 -34.02,0 -61.54,-27.52 -61.54,-61.53zm-1194.51 -418.04c0,-16.96 13.79,-30.74 30.76,-30.74 16.96,0 30.72,13.78 30.72,30.74 0,17.01 -13.76,30.79 -30.72,30.79 -16.97,0 -30.76,-13.78 -30.76,-30.79zm-997.57 418.04c0,-33.97 27.5,-61.49 61.43,-61.49 34.04,0 61.57,27.52 61.57,61.49 0,34.01 -27.53,61.53 -61.57,61.53 -33.93,0 -61.43,-27.52 -61.43,-61.53zm-600.33 -872.86c42.69,0 77.19,34.55 77.19,77.16 0,42.69 -34.5,77.24 -77.19,77.24 -42.59,0 -77.15,-34.55 -77.15,-77.24 0,-42.61 34.56,-77.16 77.15,-77.16zm89 -238.08c-33.97,0 -61.52,-27.52 -61.52,-61.54 0,-33.92 27.55,-61.49 61.52,-61.49 34,0 61.55,27.57 61.55,61.49 0,34.02 -27.55,61.54 -61.55,61.54zm65.45 720.43c0,45.91 -37.22,83.1 -83.14,83.1 -45.8,0 -83.04,-37.19 -83.04,-83.1 0,-45.92 37.24,-83.15 83.04,-83.15 45.92,0 83.14,37.23 83.14,83.15zm1610.03 -3127.77c-3.26,-5.32 -5.26,-8.77 -6,-9.89l0 -0.98 -0.52 0 0.31 0.44 -0.31 0.5 0 -0.94 -0.32 0 0 0.94 -0.26 -0.5 0.26 -0.44 -0.54 0 0 0.98c-0.77,1.3 -3.38,5.64 -7.52,12.31 -20.98,-27.3 -48.35,-49.27 -79.89,-63.73 28.18,-20.76 67.76,-28.15 100.4,-19.2 18.7,5.06 33.29,18.31 47.61,32.13 -20.44,12.85 -38.08,29.5 -53.22,48.38zm887.59 1397.09c-34.01,0 -61.49,-27.57 -61.49,-61.53 0,-33.93 27.48,-61.49 61.49,-61.49 33.96,0 61.44,27.56 61.44,61.49 0,33.96 -27.48,61.53 -61.44,61.53zm555.2 1938.73c42.07,0 76.17,34.15 76.17,76.13 0,42.15 -34.1,76.3 -76.17,76.3 -42.11,0 -76.26,-34.15 -76.26,-76.3 0,-41.98 34.15,-76.13 76.26,-76.13zm-1907.4 -137.25c22.39,-14.41 44.05,-29 64.81,-42.79 167.38,-111.83 292.02,-254.64 351.65,-448.15 12.27,-39.88 17.31,-80.69 16.68,-121.19 14.18,-104.99 1.8,-213.16 -49.24,-304.1 -66.01,-117.52 -159.58,-214.14 -224.28,-331.84 -34.21,-62.25 -55.55,-128.3 -73.33,-196.55 -9.18,-34.73 -14.32,-69.99 -15.35,-105.75 1.31,-28.11 2.64,-56.21 3.92,-84.4 41.34,-142.14 262.53,-180.36 254.67,-20.68 -67.92,0 -162.32,94.2 -57.81,164.42 82.75,55.58 152,8.41 184.15,-66.68 32.13,75.09 101.34,122.26 184.13,66.68 104.5,-70.22 10.12,-164.42 -57.86,-164.42 -7.83,-159.68 213.38,-121.46 254.73,20.68 1.25,28.19 2.6,56.29 3.85,84.4 -0.99,35.76 -6.13,71.02 -15.31,105.75 -17.76,68.25 -39.11,134.3 -73.35,196.55 -64.71,117.7 -158.2,214.32 -224.25,331.84 -51.03,90.94 -63.41,199.11 -49.23,304.1 -0.64,40.5 4.4,81.31 16.66,121.19 59.64,193.51 184.23,336.32 351.65,448.15 20.55,13.7 42.12,28.2 64.45,42.52 -180.35,-79.75 -345.04,-207.66 -455.37,-375.79 -110.4,168.36 -275.46,296.35 -455.97,376.06zm-991.36 137.25c42.11,0 76.22,34.15 76.22,76.13 0,42.15 -34.11,76.3 -76.22,76.3 -42.11,0 -76.23,-34.15 -76.23,-76.3 0,-41.98 34.12,-76.13 76.23,-76.13zm555.15 -1938.73c-33.9,0 -61.45,-27.57 -61.45,-61.53 0,-33.93 27.55,-61.49 61.45,-61.49 34.01,0 61.57,27.56 61.57,61.49 0,33.96 -27.56,61.53 -61.57,61.53zm892.04 -969.7l0 0.67 -0.26 -0.36 0.26 -0.31zm0.45 0.31l-0.17 0.36 0 -0.67 0.17 0.31zm-220.02 1791.54c-53.88,-57.68 -116.91,-106.55 -193.81,-156.09 -97.2,-62.66 -183.07,-132.38 -233.45,-238.76 -39.62,-83.64 -63.29,-132.6 -71.19,-225.78 -15.1,-179.5 251.65,-248.33 170.96,-26.49l-1.19 -0.45c-46.51,90.4 31.95,154.31 96.65,90.4 -1.45,39.97 1.8,82.12 10.4,125.53 29.69,149.43 167.34,274.87 257.64,388.55 51.82,65.2 88.02,137.03 109.72,211.99 -34.79,-67.22 -85.1,-126.34 -145.73,-168.9zm-558.88 276.31c7.86,41.03 24.63,78.81 48.02,111.52 -97.76,-36.97 -229.37,35.98 -158.78,140.57 7.97,11.86 24.54,19.82 38.86,15.26 5.96,-2.02 11.97,-3.85 17.9,-5.73 34.74,-11.19 66.13,-88.48 9.67,-86.46 129.1,-35.13 159.38,12.31 91,142.27 -56.27,80.37 -188.27,36.38 -245.05,-3.81 -125.43,-88.7 -105.91,-309.15 -49.41,-426.22 94.81,-196.51 388.94,-310.32 599.87,-234.55 -51.01,-1.07 -103.97,8.91 -157.2,32.94 -117.79,53.16 -221.57,174.67 -194.88,314.21zm47.13 411.72c7.24,-3.85 14.37,-8.01 21.24,-13.47 71.48,-56.07 91.48,-136.18 54.93,-214.95 59.02,37.64 133.17,52.27 211.35,30.26 107,-30.03 186.13,-127.73 133.1,-236.34 -42.72,-87.72 -137.58,-19.38 -156.46,37.14 -1.41,4.21 4.55,4.39 6.14,1.34 23.49,91.43 1.77,130.19 -65.05,116.23 -78.7,-3.54 -135.99,-43.77 -171.7,-120.48 -69.14,-208.77 147.99,-275.23 291.57,-277.64 208.14,-3.63 348.55,244.26 311.16,427.47 -34.93,170.65 -153.46,324.51 -288.85,427.8 -68.51,52.36 -146.34,112.59 -229.06,154.66 17.84,-25.91 31.25,-57.28 39.05,-94.25 24.23,-113.89 -54.93,-210.2 -157.42,-237.77zm896.65 -1873.75c-0.04,112.11 -45.82,210.38 -123.22,314.3 -20.89,28.01 -34.24,57.46 -42.07,87.8 -7.8,-30.34 -21.17,-59.79 -42.1,-87.8 -77.39,-103.92 -123.19,-202.19 -123.26,-314.3 3.6,-13.74 8.11,-27.66 14.37,-41.66 46.06,-104.1 135.5,-173.51 150.99,-273.98 15.42,100.47 104.92,169.88 150.97,273.98 6.27,14 10.79,27.92 14.32,41.66zm667.22 1723.65c5.91,1.88 11.86,3.71 17.81,5.73 14.32,4.56 30.97,-3.4 38.89,-15.26 70.58,-104.59 -61.04,-177.54 -158.78,-140.57 23.4,-32.71 40.19,-70.49 48.02,-111.52 26.67,-139.54 -77.07,-261.05 -194.85,-314.21 -53.31,-24.03 -106.25,-34.01 -157.22,-32.94 210.92,-75.77 505.03,38.04 599.91,234.55 56.43,117.07 75.99,337.52 -49.41,426.22 -56.83,40.19 -188.81,84.18 -245.06,3.81 -68.43,-129.96 -38.13,-177.4 90.98,-142.27 -56.48,-2.02 -25.11,75.27 9.71,86.46zm-380.94 -1095.1c64.72,63.91 143.21,0 96.67,-90.4l-1.16 0.45c-80.69,-221.84 186.03,-153.01 170.91,26.49 -7.88,93.18 -31.51,142.14 -71.16,225.78 -50.39,106.38 -136.23,176.1 -233.43,238.76 -76.93,49.54 -139.94,98.41 -193.78,156.09 -60.68,42.56 -110.98,101.68 -145.8,168.9 21.7,-74.96 57.95,-146.79 109.73,-211.99 90.31,-113.68 228.02,-239.12 257.64,-388.55 8.59,-43.41 11.86,-85.56 10.38,-125.53zm122.36 1482.97c7.79,36.97 21.21,68.34 39.07,94.25 -82.75,-42.07 -160.57,-102.3 -229.09,-154.66 -135.38,-103.29 -253.88,-257.15 -288.88,-427.8 -37.41,-183.21 103.02,-431.1 311.17,-427.47 143.61,2.41 360.75,68.87 291.6,277.64 -35.71,76.71 -92.99,116.94 -171.71,120.48 -66.82,13.96 -88.57,-24.8 -65.07,-116.23 1.56,3.05 7.56,2.87 6.13,-1.34 -18.84,-56.52 -113.72,-124.86 -156.46,-37.14 -52.98,108.61 26.14,206.31 133.14,236.34 78.19,22.01 152.34,7.38 211.32,-30.26 -36.51,78.77 -16.51,158.88 54.92,214.95 6.93,5.46 14.05,9.62 21.21,13.47 -102.44,27.57 -181.61,123.88 -157.35,237.77zm451.6 -74.51c-8.77,-9.98 -19.6,-17.37 -31.33,-22.74l-3.8 -3.44c-30.57,-20.99 -78.28,-28.82 -112.51,-13.88 -38.13,16.7 -50.88,65.52 -33.43,101.15 8.32,16.96 27.16,37.36 46.41,41.21 5.28,1.08 13.38,1.21 18.75,-0.8 1.7,-0.63 18.79,-8.95 7.38,-4.3 5.02,-1.97 7.79,-6.62 7.92,-11.95l2.64 -3.35 -2.95 -5.96 -0.76 -0.49c-0.72,-17.72 -13.2,-32.67 6.67,-48.33 8.64,-6.71 16.83,-10.29 24.79,-12.22 44.89,31.64 81.36,95.46 13.65,136.63 -32.44,19.74 -60.55,26.76 -96.93,35.09 -68.25,15.57 -135.43,18.97 -193.2,-27.44 -79.08,-63.59 -66.28,-200.76 9.49,-260.64 35.49,-28.06 74.47,-37.01 115.86,-46.54 55.54,-2.37 113,-29.89 158.87,-54.19 233.3,-123.21 187.11,-452.27 28.47,-615.09 -7.43,-7.65 -15.44,-14.94 -23.5,-22.15 7.12,1.26 13.7,2.28 19.2,2.69 72.9,6.22 166.61,-11.1 208.77,-79.84 81.23,-132.6 -20,-315.06 -178.43,-314.88 -81.45,0 -203.22,76.17 -194.45,157.22 -9.62,56.79 47.71,119.08 106.33,123.38 81.23,5.86 156.68,-72.46 93.58,-145.94 -24.75,-28.91 -76.08,-44.8 -98.01,-4.34 -13.6,24.93 -2.14,52.85 19.11,67.17 -4.11,1.75 -8.37,3 -13.33,3.31 -22.25,1.3 -51.29,-4.38 -65.66,-23.4 -11.85,-15.62 -7.83,-28.06 -6.26,-47.35l-1.34 -5.24c6.26,-13.02 17.32,-25.06 34.19,-36.02 27.79,-10.47 57.77,-18.48 87.89,-16.96 62.97,3.22 150.33,26.62 165.86,97.56 17.81,81.13 -20.32,151.58 -100.92,180.17 -37.28,13.29 -77.83,19.16 -116.36,10.03 -150.73,-110.59 -371.71,-151.76 -533.67,-48.02 -18.67,2.15 -36.84,6.17 -54.83,11.23 42.97,-33.07 88.12,-64.85 136.19,-97.2 91.6,-61.49 222.33,-136.41 264.89,-244.58 58.58,-149.2 41.48,-359.58 -138.07,-407.87 -74.64,-20.05 -152.47,43.32 -178.2,116.94 -29.22,-70.58 -84.81,-134.04 -160.84,-159.68 50.48,-20.27 96.44,-47.93 123.61,-99.71 78.49,-149.52 -41.22,-233.07 -95.1,-361.78l-2.02 0.45c28.02,112.33 130.37,262.25 -16.51,351.89 -33.12,20.23 -68.43,33.34 -103.07,47.39 13.83,-10.25 27.7,-21.08 36.79,-33.12 44.44,-59.34 56.43,-123.92 55.22,-196.86 -2.37,-153.46 -160.21,-244.53 -220.93,-376.6 -19.33,-30.25 -35.8,-62.65 -46.95,-95.59 -9.35,51.78 -30.91,95.59 -58.6,135.69 -70.06,111.57 -196.56,199.06 -198.67,336.5 -1.25,72.94 10.74,137.52 55.2,196.86 9.06,12.04 22.96,22.87 36.8,33.12 -34.69,-14.05 -70,-27.16 -103.09,-47.39 -146.86,-89.64 -44.56,-239.56 -16.52,-351.89l-2.04 -0.45c-53.86,128.71 -173.59,212.26 -95.1,361.78 27.2,51.78 73.15,79.44 123.68,99.71 -76.1,25.64 -131.65,89.1 -160.9,159.68 -25.72,-73.62 -103.54,-136.99 -178.19,-116.94 -179.5,48.29 -196.63,258.67 -138.05,407.87 42.51,108.17 173.29,183.09 264.88,244.58 48.07,32.35 93.23,64.13 136.16,97.2 -17.95,-5.06 -36.12,-9.08 -54.82,-11.23 -161.91,-103.74 -382.9,-62.57 -533.69,48.02 -38.54,9.13 -79.04,3.26 -116.36,-10.03 -80.56,-28.59 -118.67,-99.04 -100.9,-180.17 15.57,-70.94 102.89,-94.34 165.93,-97.56 30.03,-1.52 60.05,6.49 87.81,16.96 16.87,10.96 27.95,23 34.23,36.02l-1.35 5.24c1.56,19.29 5.58,31.73 -6.28,47.35 -14.35,19.02 -43.4,24.7 -65.65,23.4 -4.99,-0.31 -9.15,-1.56 -13.32,-3.31 21.23,-14.32 32.72,-42.24 19.12,-67.17 -21.96,-40.46 -73.28,-24.57 -98.06,4.34 -63.07,73.48 12.38,151.8 93.58,145.94 58.66,-4.3 115.94,-66.59 106.34,-123.38 8.8,-81.05 -112.96,-157.22 -194.41,-157.22 -158.47,-0.18 -259.69,182.28 -178.45,314.88 42.17,68.74 135.89,86.06 208.78,79.84 5.51,-0.41 12.14,-1.43 19.16,-2.69 -8.02,7.21 -16.03,14.5 -23.48,22.15 -158.64,162.82 -204.79,491.88 28.48,615.09 45.87,24.3 103.35,51.82 158.84,54.19 41.42,9.53 80.43,18.48 115.92,46.54 75.75,59.88 88.54,197.05 9.42,260.64 -57.7,46.41 -124.89,43.01 -193.18,27.44 -36.37,-8.33 -64.44,-15.35 -96.91,-35.09 -67.69,-41.17 -31.22,-104.99 13.66,-136.63 7.95,1.93 16.18,5.51 24.8,12.22 19.85,15.66 7.33,30.61 6.66,48.33l-0.75 0.49 -3.02 5.96 2.67 3.35c0.16,5.33 2.92,9.98 7.92,11.95 -11.36,-4.65 5.66,3.67 7.38,4.3 5.35,2.01 13.46,1.88 18.79,0.8 19.23,-3.85 38.02,-24.25 46.35,-41.21 17.49,-35.63 4.73,-84.45 -33.38,-101.15 -34.26,-14.94 -81.97,-7.11 -112.47,13.88l-3.83 3.44c-11.75,5.37 -22.6,12.76 -31.4,22.74 -29.98,34.28 -38.49,116.18 -17.27,156.63 12.94,24.75 30.17,43.5 50.28,58.23 -201.13,-26.45 -373.06,-128.09 -456.23,-318.33 -200.01,-457.28 52.42,-869.77 594.65,-1439.07 628,-659.43 845.73,-1020.94 853.74,-1033.74l0 -0.63 1.14 0 0 0.63c7.86,12.8 225.63,374.31 853.65,1033.74 542.22,569.3 794.54,981.79 594.67,1439.07 -83.28,190.38 -255.31,291.92 -456.47,318.33 20.09,-14.64 37.32,-33.48 50.3,-58.23 21.21,-40.45 12.75,-122.35 -17.32,-156.63zm-499.62 -2077.87c0,-33.92 27.57,-61.49 61.53,-61.49 33.88,0 61.49,27.57 61.49,61.49 0,33.97 -27.61,61.54 -61.49,61.54 -33.96,0 -61.53,-27.57 -61.53,-61.54zm-277.42 -325.66c0,-33.93 27.52,-61.45 61.53,-61.45 33.88,0 61.45,27.52 61.45,61.45 0,34.01 -27.57,61.49 -61.45,61.49 -34.01,0 -61.53,-27.48 -61.53,-61.49zm-246.34 -440.64l4.89 -0.54c33.99,0 61.5,27.57 61.5,61.49 0,34.06 -27.51,61.58 -61.5,61.58l-4.89 -0.49 -4.91 0.49c-34.01,0 -61.52,-27.52 -61.52,-61.58 0,-33.92 27.51,-61.49 61.52,-61.49l4.91 0.54zm-0.18 -152.69l0 0.85 -0.29 -0.45 0.29 -0.4zm0.63 0.4l-0.28 0.45 0 -0.85 0.28 0.4zm-369.78 592.93c0,-33.93 27.51,-61.45 61.42,-61.45 34.01,0 61.56,27.52 61.56,61.45 0,34.01 -27.55,61.49 -61.56,61.49 -33.91,0 -61.42,-27.48 -61.42,-61.49zm-277.51 325.66c0,-33.92 27.57,-61.49 61.5,-61.49 33.97,0 61.52,27.57 61.52,61.49 0,33.97 -27.55,61.54 -61.52,61.54 -33.93,0 -61.5,-27.57 -61.5,-61.54zm-589.65 659.07c0,-33.92 27.54,-61.49 61.48,-61.49 33.97,0 61.51,27.57 61.51,61.49 0,34.02 -27.54,61.58 -61.51,61.58 -33.94,0 -61.48,-27.56 -61.48,-61.58zm-289.12 350.69c0,-33.93 27.55,-61.49 61.46,-61.49 33.98,0 61.55,27.56 61.55,61.49 0,34.01 -27.57,61.58 -61.55,61.58 -33.91,0 -61.46,-27.57 -61.46,-61.58zm898.32 1438.53c0,33.92 -27.55,61.49 -61.52,61.49 -33.93,0 -61.48,-27.57 -61.48,-61.49 0,-33.97 27.55,-61.54 61.48,-61.54 33.97,0 61.52,27.57 61.52,61.54zm312.84 -150.91c0,24.66 -19.92,44.48 -44.52,44.48 -24.51,0 -44.43,-19.82 -44.43,-44.48 0,-24.57 19.92,-44.44 44.43,-44.44 24.6,0 44.52,19.87 44.52,44.44zm717.82 0c0,24.66 -19.91,44.48 -44.48,44.48 -24.61,0 -44.44,-19.82 -44.44,-44.48 0,-24.57 19.83,-44.44 44.44,-44.44 24.57,0 44.48,19.87 44.48,44.44zm346.88 150.91c0,33.92 -27.52,61.49 -61.44,61.49 -33.97,0 -61.54,-27.57 -61.54,-61.49 0,-33.97 27.57,-61.54 61.54,-61.54 33.92,0 61.44,27.57 61.44,61.54zm652.32 -1438.53c0,-33.93 27.52,-61.49 61.49,-61.49 33.97,0 61.49,27.56 61.49,61.49 0,34.01 -27.52,61.58 -61.49,61.58 -33.97,0 -61.49,-27.57 -61.49,-61.58zm-289.1 -350.69c0,-33.92 27.56,-61.49 61.53,-61.49 33.92,0 61.49,27.57 61.49,61.49 0,34.02 -27.57,61.58 -61.49,61.58 -33.97,0 -61.53,-27.56 -61.53,-61.58zm-355.07 -679.25c5.77,-2.42 11.45,-4.88 17,-7.74 -3.76,4.83 -7.11,10.15 -10.42,15.44l-6.58 -7.7zm-265.21 -313.36l7.83 -1.84 -3.98 6.63 -3.85 -4.79zm-256.16 -326.87c14.86,-4.7 29.31,-10.39 42.56,-18.22 -10.52,11.86 -19.16,25.33 -26.81,39.25 -5.37,-7.16 -10.56,-14.05 -15.75,-21.03zm-492.49 24.39c-7.97,-15.22 -17.1,-29.81 -28.46,-42.61 14.25,8.46 29.88,14.41 46.03,19.2 -5.86,7.79 -11.57,15.35 -17.57,23.41zm-249.79 300.64c3.6,1.08 7.48,1.75 11.17,2.65l-5.56 6.84c-1.84,-3.22 -3.57,-6.44 -5.61,-9.49zm-274.46 307.46c6.41,3.44 13.18,6.35 19.96,9.17l-7.8 8.95c-3.74,-6.26 -7.72,-12.44 -12.16,-18.12zm-542.93 623.36l4.5 2.23 -1.42 1.66 -3.08 -3.89zm-269.13 321.41l7.54 3.94 -1.61 2.06 -5.93 -6zm-232.92 349.16l9.51 3.76 -1.13 1.97 -8.38 -5.73zm1923.12 841.57c0,-16.96 13.87,-30.74 30.83,-30.74 16.92,0 30.66,13.78 30.66,30.74 0,17.01 -13.74,30.79 -30.66,30.79 -16.96,0 -30.83,-13.78 -30.83,-30.79zm1819.78 -787.28c87.98,26.18 138.19,118.86 111.97,206.84 -11.68,39.25 -36.83,70.31 -68.65,90.72 -5.06,-18.04 -10.43,-36.16 -16.29,-54.29 3.85,-7.34 7.52,-14.9 9.93,-23.23 20.37,-68.42 -17.41,-139.98 -84.49,-162.63 -9.58,-20.09 -19.65,-40.32 -30.3,-60.59 25.02,-5.1 51.56,-4.61 77.83,3.18zm150.14 331.25c-18.39,-5.46 -36.83,-8.05 -55.13,-8.5 55.13,-24.21 99.57,-71.51 118.1,-133.72 33.39,-112.37 -30.52,-230.52 -142.94,-264 -52.49,-15.57 -106.2,-9.66 -151.98,12.22 44.66,-26.27 79.97,-68.65 95.91,-122.22 33.43,-112.33 -30.53,-230.52 -142.86,-263.95 -60.01,-17.81 -121.45,-7.7 -170.95,22.47 43.41,-38.85 70.98,-95.28 70.98,-158.11 0,-117.21 -95.01,-212.27 -212.26,-212.27 -39.34,0 -76.04,10.92 -107.59,29.5 33.12,-37.37 53.34,-86.42 53.34,-140.35 0,-117.21 -94.96,-212.22 -212.26,-212.22 -33.29,0 -64.62,7.88 -92.64,21.49 23.14,-33.97 36.75,-75.06 36.75,-119.32 0,-117.2 -95.06,-212.21 -212.27,-212.21 -35.89,0 -69.76,8.95 -99.39,24.75 28.15,-35.99 45.11,-81.28 45.11,-130.55 0,-117.21 -95.05,-212.26 -212.26,-212.26 -21.75,0 -42.74,3.36 -62.48,9.4 23.45,-34.1 37.24,-75.41 37.24,-119.94 0,-117.25 -95.01,-212.26 -212.22,-212.26 -39.38,0 -76.03,10.87 -107.63,29.54 33.07,-37.42 53.3,-86.47 53.3,-140.39 0,-103.52 -74.07,-189.58 -172.12,-208.37 -37.01,-98.19 -115.64,-195.79 -226.93,-182.64 -108.65,12.89 -179.37,83.29 -193.57,181.43 -101.95,15.57 -180.2,103.33 -180.2,209.58 0,53.92 20.29,102.97 53.32,140.39 -31.52,-18.67 -68.2,-29.54 -107.49,-29.54 -117.24,0 -212.25,95.01 -212.25,212.26 0,44.53 13.76,85.84 37.15,119.94 -19.72,-6.04 -40.71,-9.4 -62.48,-9.4 -117.21,0 -212.26,95.05 -212.26,212.26 0,49.27 16.98,94.56 45.19,130.55 -29.74,-15.8 -63.55,-24.75 -99.38,-24.75 -117.25,0 -212.3,95.01 -212.3,212.21 0,44.26 13.58,85.35 36.77,119.32 -28.01,-13.61 -59.46,-21.49 -92.67,-21.49 -117.23,0 -212.27,95.01 -212.27,212.22 0,53.93 20.25,102.98 53.32,140.35 -31.57,-18.58 -68.26,-29.5 -107.58,-29.5 -117.23,0 -212.27,95.06 -212.27,212.27 0,62.83 27.55,119.26 71.02,158.11 -49.47,-30.17 -110.97,-40.28 -170.92,-22.47 -112.4,33.43 -176.31,151.62 -142.96,263.95 15.96,53.57 51.29,95.95 95.97,122.22 -45.78,-21.88 -99.55,-27.79 -152.01,-12.22 -112.43,33.48 -176.38,151.63 -142.92,264 18.5,62.21 63.03,109.51 118.11,133.72 -18.28,0.45 -36.8,3.04 -55.16,8.5 -112.37,33.48 -176.37,151.63 -142.9,263.96 29.78,100.02 126.6,161.33 226.71,150.14l1.4 8.55c-64.49,8.5 -124.38,46.14 -158.24,107.49 -56.54,102.71 -19.14,231.78 83.51,288.35 63.59,35.08 137.21,33.96 197.54,3.76 -34.28,41.84 -52.62,96.75 -47.03,154.88 11.3,116.67 114.99,202.11 231.69,190.79 75.58,-7.25 137.84,-53.48 169.43,-116.72 -19.65,53.35 -18.18,114.3 9.52,169.08 52.94,104.58 180.62,146.47 285.23,93.62 50.47,-25.56 86.17,-68.56 103.83,-117.92 10.5,44.43 35.08,85.88 73.45,116.71 91.38,73.44 224.97,58.85 298.36,-32.45 35.17,-43.72 49.95,-97.02 46.07,-148.8 21.79,24.26 49.33,43.9 81.77,56.3 109.54,41.89 232.28,-12.98 274.04,-122.44 19.9,-52.18 17.78,-107.19 -1.59,-155.12 76.2,27.89 164.4,1.97 212.28,-68.15 33.07,-48.52 39.26,-107.23 22.25,-158.97 40.47,-3.35 78.25,-23.36 103.2,-55.89 24.93,32.53 62.72,52.54 103.13,55.89 -16.96,51.74 -10.7,110.45 22.38,158.97 47.75,70.12 136,96.04 212.21,68.15 -19.33,47.93 -21.52,102.94 -1.61,155.12 41.89,109.46 164.47,164.33 274.02,122.44 32.54,-12.4 60.02,-32.04 81.86,-56.3 -3.85,51.78 10.92,105.08 45.96,148.8 73.48,91.3 207.02,105.89 298.41,32.45 38.35,-30.83 63.01,-72.28 73.44,-116.71 17.63,49.36 53.39,92.36 103.87,117.92 104.63,52.85 232.31,10.96 285.16,-93.62 27.48,-54.24 29.14,-114.57 10.07,-167.69l0.27 -0.09c31.77,62.56 93.62,108.21 168.67,115.42 116.67,11.32 220.45,-74.12 231.73,-190.79 5.6,-58.13 -12.8,-113.04 -47.12,-154.88 60.37,30.2 134.03,31.32 197.54,-3.76 102.75,-56.57 140.07,-185.64 83.5,-288.35 -33.02,-60.1 -91.25,-97.29 -154.21,-106.82l1.43 -8.68c98.63,9.08 193.33,-51.96 222.69,-150.68 33.43,-112.33 -30.57,-230.48 -142.9,-263.96z"/>
  <polygon class="fil1" points="4429.37,3901.79 4429.37,3901.16 4429.11,3901.48 "/>
  <polygon class="fil1" points="4429.86,3901.48 4429.65,3901.16 4429.65,3901.79 "/>
  <path class="fil1" d="M3081.88 5785.34l-1.98 -0.18c-33.65,88.17 -58.63,140.66 -27.41,236.34 28.36,86.78 95.66,189.04 196.07,185.77 18.08,-0.58 30.53,-18.48 22.73,-35.22 -31.52,-67.76 -89.68,-113.63 -127.98,-177.13 -31.56,-52.32 -63.11,-148.89 -61.43,-209.58z"/>
  <path class="fil1" d="M3181.16 6234.52c-62.19,12 -118.83,54.29 -146.51,110.68 -27.84,56.74 54.48,82.57 76.81,28.86 20.07,-48.46 88.24,-62.2 132.68,-80.37 33.93,-13.74 78.72,-17.81 109.24,-35.85l-0.36 -2.55c-25.96,3.4 -60.89,-11.99 -85.98,-18.48 -29.28,-7.57 -56.32,-7.97 -85.88,-2.29z"/>
  <path class="fil1" d="M3976.08 6277.08c-29.98,-15.39 -64.28,-5.23 -94.86,3.32 -15.49,4.2 -27.55,13.51 -40.47,22.69 -14.32,10.15 -20.28,26.98 -33.96,37.27l0.06 5.87c16.09,5.46 33.24,0.09 49.53,4.7 24.95,7.02 50.63,9.17 75.61,16.15 51.25,14.41 96.65,-62.79 44.09,-90z"/>
  <path class="fil1" d="M3830.59 6268c3.33,-0.81 5.79,-2.19 8.74,-3.72 5.83,-3.08 -7.5,4.17 6.47,-2.28 12.03,-5.64 22.74,-18.79 28.36,-30.25 6.64,-13.61 4.19,-32.67 -11.58,-38.58 -15.45,-5.81 -33.44,5.02 -39.82,19.2 -3.81,8.33 -5.36,15.58 -6.1,24.66 -0.35,3.89 0.18,3.98 0.88,2.91l0 0.09c-0.95,2.33 -4.94,22.55 -8.11,22.73 -4.03,0.27 -6.94,4.66 -3.95,7.97 6.69,7.52 17.91,-0.9 25.11,-2.73z"/>
  <path class="fil1" d="M4075.07 6282.01c16.5,-3.14 30.12,-17.68 33.9,-33.84 3.11,-13.51 -1.7,-33.29 -17.25,-37.23 -15.88,-4.07 -27.8,-1.12 -42.62,4.47 -7.08,2.6 -15.19,7.39 -19.72,13.7 -2.99,4.3 -5.18,9.22 -9.27,12.53l-1.1 9.49c18.3,15.71 26.99,36.34 56.06,30.88z"/>
  <path class="fil1" d="M3056.69 6217.29c13.11,-4.92 20.99,-23.8 13.3,-35.98 -18.96,-30.34 -51.5,-46.76 -71.69,-76.26 -23.04,-33.69 -35.38,-74.33 -43.77,-113.67l-3.73 0.18c-26.27,48.25 -36.62,99.98 -16.06,152.65 20.08,51.2 65.08,94.43 121.95,73.08z"/>
  <path class="fil1" d="M3226.82 6015.37c15.49,10.25 32.41,-7.34 29.45,-23.23 -4.63,-24.03 -12.98,-45.42 -24.01,-67.13 -7.66,-14.94 -14.53,-28.06 -16.19,-45.11 -1.38,-13.6 3.74,-30.83 4.82,-44.97l-2.5 -0.14c-17.22,31.78 -32.76,55.54 -36.13,92.15 -3.32,35.49 15.72,69.32 44.56,88.43z"/>
  <path class="fil1" d="M5610.23 6207.27c100.42,3.27 167.73,-98.99 196.06,-185.77 31.24,-95.68 6.27,-148.17 -27.39,-236.34l-1.97 0.18c1.61,60.69 -29.89,157.26 -61.44,209.58 -38.31,63.5 -96.44,109.37 -127.99,177.13 -7.79,16.74 4.61,34.64 22.73,35.22z"/>
  <path class="fil1" d="M5614.62 6293.69c44.44,18.17 112.64,31.91 132.73,80.37 22.33,53.71 104.63,27.88 76.8,-28.86 -27.7,-56.39 -84.36,-98.68 -146.52,-110.68 -29.54,-5.68 -56.57,-5.28 -85.88,2.29 -25.11,6.49 -60.02,21.88 -85.97,18.48l-0.36 2.55c30.52,18.04 75.32,22.11 109.2,35.85z"/>
  <path class="fil1" d="M5018.02 6303.09c-12.89,-9.18 -24.97,-18.49 -40.46,-22.69 -30.56,-8.55 -64.85,-18.71 -94.83,-3.32 -52.58,27.21 -7.16,104.41 44.08,90 24.93,-6.98 50.71,-9.13 75.59,-16.15 16.33,-4.61 33.43,0.76 49.54,-4.7l0.09 -5.87c-13.69,-10.29 -19.69,-27.12 -34.01,-37.27z"/>
  <path class="fil1" d="M5049.39 6262.76c-3.22,-0.18 -7.16,-20.4 -8.15,-22.73l0 -0.09c0.72,1.07 1.26,0.98 0.9,-2.91 -0.76,-9.08 -2.33,-16.33 -6.09,-24.66 -6.44,-14.18 -24.39,-25.01 -39.83,-19.2 -15.79,5.91 -18.21,24.97 -11.59,38.58 5.64,11.46 16.34,24.61 28.38,30.25 13.96,6.45 0.62,-0.8 6.44,2.28 2.95,1.53 5.46,2.91 8.77,3.72 7.16,1.83 18.39,10.25 25.06,2.73 3,-3.31 0.09,-7.7 -3.89,-7.97z"/>
  <path class="fil1" d="M4829.43 6229.11c-4.52,-6.31 -12.67,-11.1 -19.74,-13.7 -14.81,-5.59 -26.76,-8.54 -42.65,-4.47 -15.48,3.94 -20.31,23.72 -17.23,37.23 3.81,16.16 17.37,30.7 33.93,33.84 29.04,5.46 37.77,-15.17 56.03,-30.88l-1.12 -9.49c-4.03,-3.31 -6.22,-8.23 -9.22,-12.53z"/>
  <path class="fil1" d="M5788.79 6181.31c-7.69,12.18 0.23,31.06 13.34,35.98 56.84,21.35 101.86,-21.88 121.95,-73.08 20.5,-52.67 10.16,-104.4 -16.07,-152.65l-3.75 -0.18c-8.42,39.34 -20.73,79.98 -43.77,113.67 -20.19,29.5 -52.72,45.92 -71.7,76.26z"/>
  <path class="fil1" d="M5631.98 6015.37c28.82,-19.11 47.89,-52.94 44.57,-88.43 -3.4,-36.61 -18.93,-60.37 -36.16,-92.15l-2.46 0.14c1.03,14.14 6.18,31.37 4.84,44.97 -1.71,17.05 -8.55,30.17 -16.21,45.11 -11.05,21.71 -19.42,43.1 -24.03,67.13 -2.95,15.89 13.97,33.48 29.45,23.23z"/>
  <path class="fil1" d="M4330.44 4507.61c13.06,107.27 96.21,209.31 96.21,209.31 0,0 83.07,-102.04 96.18,-209.31 13.07,-107.32 -96.18,-243.46 -96.18,-243.46 0,0 -109.33,136.14 -96.21,243.46z"/>
  <path class="fil1" d="M4426.65 5120.85c0,0 -152.69,190.16 -134.37,339.99 18.2,149.88 134.37,292.5 134.37,292.5 0,0 116.05,-142.62 134.31,-292.5 18.3,-149.83 -134.31,-339.99 -134.31,-339.99z"/>
  <path class="fil1" d="M4728.87 5306.85c26.76,-76.84 -31.91,-194.5 -31.91,-194.5 0,0 -102.17,82.79 -109.69,163.8 -7.47,80.95 37.37,169.38 37.37,169.38 0,0 77.51,-61.8 104.23,-138.68z"/>
  <path class="fil1" d="M4159.56 5112.35c0,0 -58.67,117.66 -31.88,194.5 26.72,76.88 104.17,138.68 104.17,138.68 0,0 44.88,-88.43 37.42,-169.38 -7.51,-81.01 -109.71,-163.8 -109.71,-163.8z"/>
  <path class="fil1" d="M4429.41 6837.57c26.03,0 49.87,13.15 63.79,35.04 209.89,333.23 573.78,524.28 998.44,524.32l0.13 31.37 0.04 -31.37c495.19,0 939.9,-266.5 1106.51,-663.01 299.98,-713.98 -104.63,-1360.03 -904.89,-2234.59 -742.41,-811.37 -1117.57,-1345.94 -1264.02,-1571.89 -146.58,226.09 -522.06,760.97 -1264.07,1571.89 -800.27,874.56 -1204.87,1520.61 -904.83,2234.59 166.55,396.51 611.33,663.01 1106.7,663.01 424.54,0 788.47,-191.09 998.34,-524.19 13.82,-21.97 37.7,-35.17 63.86,-35.17zm1062.4 622.15l-0.17 0c-446.73,-0.05 -829.94,-201.75 -1051.52,-553.5 -4.54,-7.12 -16.97,-7.12 -21.41,-0.05 -221.65,351.85 -604.92,553.55 -1051.5,553.55 -520.37,0 -988.4,-281.85 -1164.58,-701.41 -313.13,-745.04 98.89,-1408.01 916.38,-2301.36 788.63,-861.89 1160.56,-1409.22 1283.86,-1604.56l26.54 -42.07 26.55 42.11c123.17,195.17 494.75,742.13 1283.83,1604.52 817.45,893.35 1229.49,1556.27 916.49,2301.36 -176.33,419.56 -644.26,701.41 -1164.47,701.41z"/>
  <path class="fil1" d="M6734.78 6791.7c-179.87,423.62 -658.41,708.21 -1191.05,708.21l-0.18 0c-456.88,-0.05 -848.74,-203.94 -1075.02,-559.41 -8.48,-13.2 -23.25,-21.26 -39.12,-21.26 -15.88,0 -30.7,8.06 -39.09,21.26 -226.32,355.51 -618.18,559.41 -1075.06,559.41 -532.71,0 -1011.41,-284.59 -1191.21,-708.21 -321.54,-757.26 106.73,-1436.7 955.1,-2354.4 832.89,-900.74 1224.02,-1472.18 1350.26,-1670.26 126.22,198.08 517.36,769.52 1350.21,1670.26 848.38,917.7 1276.7,1597.14 955.16,2354.4zm-1939.09 2019.95c108.39,188.9 235.98,342.23 233.52,569.57 -1.88,168.14 -86.11,305.57 -232.54,381.56 -267.71,138.82 -526.05,-322.62 -226.54,-442.83 18.35,-7.38 39.39,-5.9 60.15,1.39 43.5,1.57 86.51,22.96 131.8,22.11 62.65,-1.08 110.49,-42.02 118.68,-103.78 6,-45.87 -17.45,-83.6 -62.47,-95.51 -20.5,-4.11 -38.36,0.41 -53.66,13.61 -8.82,14.77 -10.3,29 -4.25,42.69 4.78,-6.66 13.2,-2.55 16.55,3.23l1.35 2.41c2.59,4.61 1.3,9.53 -1.97,13.16 -35.76,39.74 -99.22,-40.77 -67.89,-80.06 45.65,-57.29 130.72,-38.4 170.24,15.84 41.44,56.79 0.98,144.1 -46.19,182.72 -19.2,15.76 -43,24.57 -67.48,28.92 30.83,20.31 56.79,50.34 74.96,82.88 47.12,84.27 -8.1,176.01 -93.8,198.97 -3.23,0.94 -6.23,-3.99 -2.78,-5.78 64.67,-33.2 47.04,-131.84 10.25,-177.89 -8.15,-10.25 -18.44,-19.15 -29.45,-27.7 -0.22,88.07 -108.39,169.79 -140.7,89.06 -8.68,-21.66 14.68,-33.61 29.45,-16.92 67.75,-33.34 -28.56,-245.02 -127.46,-104.94 -103.04,145.94 56.21,267.84 166.88,301.94 221.89,68.47 330.86,-155.83 336.14,-333.27 6.85,-235.04 -199.46,-477.87 -295.19,-683.15 -131.3,-281.63 -229.36,-595.26 -274.37,-910.27 -45.19,315.01 -143.19,628.64 -274.5,910.27 -95.75,205.28 -302.04,448.11 -295.1,683.15 5.15,177.44 114.17,401.74 336.06,333.27 110.75,-34.1 269.92,-156 166.9,-301.94 -98.81,-140.08 -195.22,71.6 -127.46,104.94 14.79,-16.69 38.11,-4.74 29.46,16.92 -32.35,80.73 -140.43,-0.99 -140.76,-89.06 -10.96,8.55 -21.26,17.45 -29.39,27.7 -36.82,46.05 -54.49,144.69 10.28,177.89 3.37,1.79 0.45,6.72 -2.84,5.78 -85.69,-22.96 -140.93,-114.7 -93.8,-198.97 18.28,-32.54 44.14,-62.57 74.98,-82.88 -24.53,-4.35 -48.27,-13.16 -67.46,-28.92 -47.17,-38.62 -87.6,-125.93 -46.17,-182.72 39.51,-54.24 124.59,-73.13 170.16,-15.84 31.37,39.29 -32.12,119.8 -67.82,80.06 -3.29,-3.63 -4.6,-8.55 -1.95,-13.16l1.33 -2.41c3.29,-5.78 11.71,-9.89 16.59,-3.23 5.96,-13.69 4.48,-27.92 -4.33,-42.69 -15.25,-13.2 -33.17,-17.72 -53.7,-13.61 -44.98,11.91 -68.41,49.64 -62.38,95.51 8.13,61.76 56,102.7 118.65,103.78 45.22,0.85 88.33,-20.54 131.76,-22.11 20.75,-7.29 41.81,-8.77 60.22,-1.39 299.48,120.21 41.17,581.65 -226.53,442.83 -146.56,-75.99 -230.63,-213.42 -232.57,-381.56 -2.52,-227.34 125.13,-380.67 233.5,-569.57 189.26,-329.78 301.31,-700.2 363.53,-1076.21 1.49,-5.55 3.08,-10.96 4.66,-16.42l-0.1 -0.14c2.61,-9.44 5.18,-18.79 7.94,-28.06 6.1,26.76 12.69,53.26 19.86,79.17 63.41,364.15 174.31,721.9 357.75,1041.66zm-158.52 -50.66c-3.8,-5.9 2.6,-11.63 7.3,-5.99 68.69,81.85 95.86,169.65 75.49,275.94 -32.04,167.11 -245.12,205.01 -270.41,381.52l-2.91 -0.99c1.56,-80.02 30.05,-152.07 70.1,-220.63 81.63,-139.67 244.22,-238.71 120.43,-429.85zm-261.92 -240.36c-70.21,201.88 -88.06,361.69 -9.42,563.39 2.72,6.89 -7.59,13.51 -12.42,7.69 -95.36,-114.38 -164.99,-259.65 -118.61,-412.03 65.87,-216.2 172.51,-394.23 187.93,-625.06l0.03 -0.05 0 -0.49 1.28 -0.9 0.28 -0.26 0.14 0.26 1.27 0.9 0.04 0.49 0.04 0.05c15.45,230.83 122.08,408.86 187.96,625.06 46.36,152.38 -23.27,297.65 -118.6,412.03 -4.88,5.82 -15.17,-0.8 -12.48,-7.69 78.72,-201.7 60.86,-361.51 -9.37,-563.39 -26.45,-76.04 -41.48,-147.91 -49,-220.41 -7.59,72.5 -22.62,144.37 -49.07,220.41zm-54.26 670.21c40.04,68.56 68.51,140.61 70.13,220.63l-2.95 0.99c-25.26,-176.51 -238.31,-214.41 -270.37,-381.52 -20.4,-106.29 6.8,-194.09 75.48,-275.94 4.62,-5.64 11.12,0.09 7.31,5.99 -123.86,191.14 38.74,290.18 120.4,429.85zm1556.91 -4835.35c-956.41,-1052.8 -1336.77,-1666.77 -1404.65,-1781.6l-0.66 -1.12c-4.36,-9.26 -11.4,-17.41 -21.32,-22.33 -5.04,-2.55 -10.41,-3.89 -15.73,-4.52l-1.27 -0.18 -4.27 -0.05 -1.45 -0.22 -1.12 0.14c-4.05,0.13 -8.01,0.71 -12.04,1.88l-0.6 0.22 -7.31 2.73 -3.16 2.19 -2.05 1.43c-7.06,4.84 -12.46,11.1 -15.87,18.4l-0.1 0.18 -0.21 0.35c-66.4,112.47 -446.2,726.79 -1405.29,1782.5 -891.89,981.83 -1340.25,1713.36 -992.63,2546.65 198.08,474.97 721.86,794.01 1303.42,794.01 362.44,0 687.25,-120.52 933.62,-338.06l5.36 3.17 1.49 0.41c-206.91,1538.1 -896.63,2589.79 -896.63,2589.79l2188.47 0c0,0 -690.71,-1053.26 -896.93,-2593.2l4.29 -2.14c246.55,218.84 572.3,340.03 935.92,340.03l0.18 0c581.38,0 1105.12,-319.04 1303.28,-794.01 347.55,-833.29 -100.78,-1564.82 -992.74,-2546.65z"/>
 </g>
</svg>
