<?xml version="1.0" encoding="UTF-8"?>
<!DOCTYPE svg PUBLIC "-//W3C//DTD SVG 1.1//EN" "http://www.w3.org/Graphics/SVG/1.1/DTD/svg11.dtd">
<!-- Creator: CorelDRAW -->
<svg xmlns="http://www.w3.org/2000/svg" xml:space="preserve" width="100%" height="100%" version="1.1" style="shape-rendering:geometricPrecision; text-rendering:geometricPrecision; image-rendering:optimizeQuality; fill-rule:evenodd; clip-rule:evenodd"
viewBox="0 0 10122.46 14171.7"
 xmlns:xlink="http://www.w3.org/1999/xlink"
 xmlns:xodm="http://www.corel.com/coreldraw/odm/2003">
 <defs>
  <style type="text/css">
   <![CDATA[
    .fil0 {fill:#FEFEFE;fill-rule:nonzero}
    .fil1 {fill:#1D1D1E;fill-rule:nonzero}
   ]]>
  </style>
   <clipPath id="id0">
    <path d="M9731.6 14171.35l-4478.61 0 -382.07 0 -4458.5 0c0,0 0,0 0,0l4458.5 0 382.07 0 4478.61 0c0,0 229.82,-5.6 338.98,-244.29 -109.16,238.69 -338.98,244.29 -338.98,244.29zm-22.99 -20.52l-4481.47 0 -382.08 0 -4481.48 0c0,0 -40.22,0 -91.93,-18.64 -112.03,-54.08 -249.92,-182.75 -249.92,-488.57l0 0 0 -3530 0 -2461.48c1982.19,-1.87 3964.38,-1.87 5946.57,-1.87 1378.92,-1.86 2754.96,-1.86 4133.88,-1.86l0 2444.7 0 3530 0 0c0,516.54 -393.57,527.72 -393.57,527.72l0 0z"/>
   </clipPath>
   <clipPath id="id1">
    <path d="M9921.2 7075.89c-2456.2,-2.01 -4909.52,-2.01 -7365.71,-2.01 -844.59,-2.02 -1689.18,-2.02 -2533.76,-2.02l0 -2992.26 0 -3528.97c0,-518.55 390.69,-528.64 390.69,-528.64l4484.35 0 382.08 0 4481.47 0c0,0 40.22,2.02 91.93,18.16 112.04,54.47 249.93,183.61 249.93,490.3l0 0 0 3528.97 0 3016.47c-60.33,0 -120.66,0 -180.98,0l0 0z"/>
   </clipPath>
   <clipPath id="id2">
    <path d="M10069.65 13926.3c32.04,-71.3 52.81,-162.4 52.81,-285.18l0 -5992.75 0 0 0 -574.32 0 0 0 -6543.3 0 0c0,-518.87 -391.79,-530.75 -391.79,-530.75l-19.96 0c-0.54,0 -0.95,0 -0.95,0l20.91 0c0,0 391.79,11.88 391.79,530.75l0 3533.06 0 6044.24 0 3533.07c0,122.78 -20.77,213.88 -52.81,285.18l0 0z"/>
   </clipPath>
   <clipPath id="id3">
    <path d="M10101.98 7648.88l0 -573.9 20.47 0 0 573.9 -20.47 0 0 0z"/>
   </clipPath>
   <clipPath id="id4">
    <path d="M9731.89 14171.35l-4479.8 0 -381.98 0 -4457.33 0c-8.42,0 -70.21,-3.73 -140.43,-39.16 50.56,18.64 89.88,18.64 89.88,18.64l4482.61 0 381.97 0 4482.61 0c0,0 393.21,-11.18 393.21,-527.72l0 0 0 0 0 -3530 0 -2444.7c5.62,0 14.04,0 19.66,0l0 2459.62 0 3533.72c0,121.21 -19.66,212.59 -53.36,285.31 -106.73,238.69 -337.04,244.29 -337.04,244.29l0 0z"/>
   </clipPath>
   <clipPath id="id5">
    <path d="M10101.97 7075.83l0 -3016.94 0 -3528.53 0 0c0,-307.35 -137.66,-434.74 -249.8,-489.34 25.52,8.09 54.44,20.22 83.9,38.42l0 0 0 0 0 0c-101,-74.82 -205.4,-76.84 -205.4,-76.84l-19.96 0 0 0 19.96 0c0,0 391.79,10.11 391.79,527.76l0 3534.59 0 3010.88c-6.92,0 -13.71,0 -20.49,0l0 0z"/>
   </clipPath>
   <clipPath id="id6">
    <path d="M21.27 7651.57l0 -580.18 0.26 0 0 580.18 -0.26 0 0 0z"/>
   </clipPath>
   <clipPath id="id7">
    <path d="M413.67 14171.35l-20.89 0c0,0 -391.66,-11.19 -391.66,-529.6l0 -399.05c6.7,-24.25 13.27,-48.49 20.1,-72.73l0 -3076.86 0 -2440.97c0.13,0 0.13,0 0.26,0l0 2461.48 0 3530 0 0c0,305.82 137.7,434.49 249.9,488.57 -25.49,-7.46 -54.39,-20.52 -83.95,-37.3l0 0c101.03,74.59 205.35,76.46 205.35,76.46l19.97 0c0.66,0 0.92,0 0.92,0l0 0z"/>
   </clipPath>
   <clipPath id="id8">
    <path d="M22.48 7071.78c0,0 0,0 0,0l0 -5825.6c-8.43,-70.77 -14.05,-143.57 -22.48,-216.36l0 -499.46c0,-517.65 393.42,-527.76 393.42,-527.76l4476.5 0 382.17 0 4459.64 0c8.43,0 67.45,4.04 140.51,38.42 -53.39,-18.2 -89.92,-18.2 -89.92,-18.2l-4484.94 0 -382.17 0 -4482.12 0c0,0 -390.61,10.11 -390.61,527.76l0 3528.53 0 2992.67 0 0z"/>
   </clipPath>
   <clipPath id="id9">
    <path d="M412.74 14171.67l-19.97 0c0,0 -104.29,-3.04 -205.35,-77.11 29.53,17.71 58.42,29.87 83.93,38.25 71.76,34.5 133.18,38.49 141.39,38.86l0 0z"/>
   </clipPath>
   <clipPath id="id10">
    <path d="M9936.08 78.85c-29.49,-17.67 -58.32,-29.8 -83.9,-38.2 -71.82,-34.59 -133.14,-38.51 -141.39,-38.86l19.91 0c0,0 104.4,3.01 205.38,77.06l0 0z"/>
   </clipPath>
   <clipPath id="id11">
    <path d="M0.71 13245.08l0 -12219.02c0.1,0 0.22,3.48 0.31,3.48l0.05 3035.63 0 6043.44 0 3132.99c-0.14,0 -0.26,3.48 -0.36,3.48l0 0z"/>
   </clipPath>
   <clipPath id="id12">
    <path d="M1.06 7651.57l0 -580.18 20.21 0 0 580.18 -20.21 0 0 0z"/>
   </clipPath>
   <clipPath id="id13">
    <path d="M1.06 13242.48l0 -3134.99 0 -2456.11c6.68,0 13.49,0 20.21,0l0 2441.7 -0.04 3077.35c-6.81,24.01 -13.43,48.03 -20.17,72.05l0 0z"/>
   </clipPath>
   <clipPath id="id14">
    <path d="M21.27 7071.57c-6.72,0 -13.47,0 -20.21,0l0 -3005.52 -0.04 -3036.64c6.64,72.63 13.36,145.26 20.25,217.89l0 5824.27 0 0z"/>
   </clipPath>
 </defs>
 <g id="Layer_x0020_1">
  <metadata id="CorelCorpID_0Corel-Layer"/>
  <path class="fil0" d="M9730.7 1.77l-9337.94 0c0,0 -391.74,10.63 -391.74,529.21l0.05 3534.51 0 9577.08c0,518.47 391.69,529.13 391.69,529.13l9337.94 0c0,0 391.74,-10.66 391.74,-529.13l0 -13111.59c0,-518.58 -391.74,-529.21 -391.74,-529.21z"/>
  <g style="clip-path:url(#id0)">
   <image x="-9.87" y="7624.17" width="10135.04" height="6578.88" xlink:href="10_Images\10_ImgID1.png"/>
  </g>
  <g style="clip-path:url(#id1)">
   <image x="-9.87" y="-12.31" width="10135.04" height="7118.47" xlink:href="10_Images\10_ImgID2.png"/>
  </g>
  <g style="clip-path:url(#id2)">
   <image x="9677.05" y="-27.73" width="478.95" height="13973.83" xlink:href="10_Images\10_ImgID3.png"/>
  </g>
  <g style="clip-path:url(#id3)">
   <image x="10067.61" y="7048.6" width="88.39" height="633.12" xlink:href="10_Images\10_ImgID4.png"/>
  </g>
  <g style="clip-path:url(#id4)">
   <image x="247.07" y="7624.17" width="9908.92" height="6578.88" xlink:href="10_Images\10_ImgID5.png"/>
  </g>
  <g style="clip-path:url(#id5)">
   <image x="9677.05" y="-27.73" width="478.95" height="7133.89" xlink:href="10_Images\10_ImgID6.png"/>
  </g>
  <g style="clip-path:url(#id6)">
   <image x="-9.87" y="7048.6" width="57.56" height="633.12" xlink:href="10_Images\10_ImgID7.png"/>
  </g>
  <g style="clip-path:url(#id7)">
   <image x="-25.29" y="7624.17" width="463.53" height="6578.88" xlink:href="10_Images\10_ImgID8.png"/>
  </g>
  <g style="clip-path:url(#id8)">
   <image x="-25.29" y="-27.73" width="9914.06" height="7133.89" xlink:href="10_Images\10_ImgID9.png"/>
  </g>
  <g style="clip-path:url(#id9)">
   <image x="159.71" y="14058.13" width="278.53" height="144.92" xlink:href="10_Images\10_ImgID10.png"/>
  </g>
  <g style="clip-path:url(#id10)">
   <image x="9677.05" y="-27.73" width="293.95" height="139.78" xlink:href="10_Images\10_ImgID11.png"/>
  </g>
  <g style="clip-path:url(#id11)">
   <image x="-25.29" y="1005.2" width="57.56" height="12267.7" xlink:href="10_Images\10_ImgID12.png"/>
  </g>
  <g style="clip-path:url(#id12)">
   <image x="-25.29" y="7048.6" width="72.97" height="633.12" xlink:href="10_Images\10_ImgID13.png"/>
  </g>
  <g style="clip-path:url(#id13)">
   <image x="-25.29" y="7624.16" width="72.97" height="5648.73" xlink:href="10_Images\10_ImgID14.png"/>
  </g>
  <g style="clip-path:url(#id14)">
   <image x="-25.29" y="1005.2" width="72.97" height="6100.96" xlink:href="10_Images\10_ImgID15.png"/>
  </g>
  <path class="fil1" d="M1011.34 2818.01c-22,263.38 -170.51,447.81 -170.51,447.81l341.02 0c0,0 -148.47,-184.43 -170.51,-447.81z"/>
  <path class="fil1" d="M1258.42 2519.9c-33.87,0 -66.19,6.94 -95.53,19.33l-2.21 -2.32c59.35,-45.12 97.74,-116.45 97.74,-196.82 0,-136.49 -110.59,-247.08 -247.08,-247.08 -136.49,0 -247.08,110.59 -247.08,247.08 0,85.98 43.94,161.67 110.54,205.97 -33.25,-16.7 -70.82,-26.16 -110.54,-26.16 -136.49,0 -247.08,110.65 -247.08,247.14 0,136.43 110.59,247.02 247.08,247.02 132.84,0 241.17,-104.83 246.82,-236.28l0.52 0.3c5.8,131.36 114.08,235.98 246.82,235.98 136.44,0 247.13,-110.59 247.13,-247.02 0,-136.49 -110.69,-247.14 -247.13,-247.14z"/>
  <path class="fil1" d="M752.28 1601.06c0,34.64 2.01,60.69 5.86,78.27 3.91,17.67 10.74,31.96 20.61,43.01 9.81,11 24,19.68 42.5,25.9 18.5,6.27 41.73,11.05 69.79,14.29 28,3.34 65.05,5.6 110.95,6.78l0 65.31 -661.28 0 0 -65.31c66.24,-3.03 113.51,-7.04 141.83,-12.13 28.37,-5.04 49.95,-12.64 64.91,-22.82 14.9,-10.12 25.79,-24.41 32.63,-42.91 6.88,-18.5 10.33,-48.61 10.33,-90.39l0 -725.67c0,-23.85 -4.22,-41.27 -12.59,-52.37 -8.38,-10.99 -20.56,-16.54 -36.64,-16.54 -19.12,0 -46.25,9.81 -81.46,29.54 -35.2,19.69 -78.73,46.87 -130.58,81.41l-39.41 -68.87 418.82 -249.65 49.18 0c-3.6,57.25 -5.45,136.6 -5.45,237.99l0 764.16z"/>
  <path class="fil1" d="M1123.68 1208.24c0,194.51 17.98,337.22 54.16,428.23 36.02,90.96 91.99,136.38 167.68,136.38 72.26,0 125.81,-42.8 160.7,-128.42 34.89,-85.56 52.26,-218.09 52.26,-397.65 0,-137.21 -8.89,-248.42 -26.77,-333.36 -17.89,-85 -42.86,-146 -74.77,-183 -31.87,-36.95 -70.51,-55.45 -115.84,-55.45 -41.16,0 -75.59,12.28 -103.34,36.69 -27.75,24.46 -50.16,59.66 -67.11,105.56 -17.01,45.94 -29.09,101.9 -36.23,167.78 -7.2,65.93 -10.74,140.35 -10.74,223.24zm207.61 640.67c-128.89,0 -224.83,-50.67 -287.73,-152.11 -62.95,-101.39 -94.4,-255.25 -94.4,-461.74 0,-109.71 9.71,-204.53 29.08,-284.44 19.38,-80.01 46.51,-146.05 81.4,-198.21 34.95,-52.21 76.78,-90.9 125.75,-115.93 48.88,-25.08 102.32,-37.57 160.13,-37.57 130.69,0 227.92,50.42 291.79,151.19 63.78,100.88 95.69,253.3 95.69,457.26 0,211.11 -34.17,370.93 -102.47,479.16 -68.3,108.28 -168.04,162.39 -299.24,162.39z"/>
  <path class="fil1" d="M9139.51 11318.16c22.05,-263.31 170.51,-447.75 170.51,-447.75l-341.07 0c0,0 148.52,184.44 170.56,447.75z"/>
  <path class="fil1" d="M8892.38 11616.32c33.86,0 66.19,-6.95 95.53,-19.3l2.21 2.28c-59.35,45.1 -97.74,116.47 -97.74,196.8 0,136.48 110.64,247.11 247.13,247.11 136.44,0 247.08,-110.63 247.08,-247.11 0,-85.94 -43.88,-161.67 -110.59,-205.92 33.25,16.68 70.82,26.14 110.59,26.14 136.44,0 247.08,-110.63 247.08,-247.12 0,-136.42 -110.64,-247.04 -247.08,-247.04 -132.84,0 -241.17,104.8 -246.82,236.28l-0.52 -0.36c-5.85,-131.26 -114.08,-235.92 -246.87,-235.92 -136.39,0 -247.08,110.62 -247.08,247.04 0,136.49 110.69,247.12 247.08,247.12z"/>
  <path class="fil1" d="M9398.51 12535.17c0,-34.61 -1.95,-60.71 -5.8,-78.26 -3.86,-17.66 -10.74,-31.99 -20.56,-42.99 -9.87,-11.04 -24.05,-19.72 -42.55,-25.94 -18.45,-6.26 -41.73,-11.08 -69.79,-14.31 -27.95,-3.29 -65,-5.54 -110.95,-6.71l0 -65.37 661.28 0 0 65.37c-66.24,3 -113.52,6.95 -141.83,12.07 -28.37,5 -49.95,12.67 -64.8,22.79 -14.96,10.15 -25.9,24.48 -32.79,42.97 -6.83,18.47 -10.23,48.64 -10.23,90.38l0 725.65c0,23.85 4.22,41.31 12.54,52.35 8.33,11.05 20.51,16.59 36.64,16.59 19.17,0 46.25,-9.84 81.46,-29.55 35.2,-19.74 78.72,-46.81 130.63,-81.43l39.41 68.9 -418.82 249.62 -49.18 0c3.6,-57.23 5.34,-136.56 5.34,-237.98l0 -764.15z"/>
  <path class="fil1" d="M9027.23 12927.96c0,-194.42 -18.04,-337.19 -54.17,-428.19 -36.07,-90.97 -92.04,-136.44 -167.73,-136.44 -72.16,0 -125.75,42.82 -160.65,128.47 -34.89,85.56 -52.26,218.09 -52.26,397.63 0,137.23 8.84,248.42 26.72,333.37 17.88,85.05 42.91,145.98 74.77,182.98 31.92,36.97 70.51,55.46 115.89,55.46 41.16,0 75.59,-12.2 103.29,-36.7 27.75,-24.41 50.16,-59.61 67.17,-105.55 16.95,-45.92 29.03,-101.87 36.22,-167.77 7.2,-65.92 10.75,-140.34 10.75,-223.26zm-207.62 -640.65c128.89,0 224.78,50.69 287.68,152.14 62.95,101.36 94.4,255.24 94.4,461.73 0,109.7 -9.66,204.49 -29.03,284.44 -19.48,80 -46.61,146.08 -81.51,198.21 -34.89,52.22 -76.72,90.88 -125.64,115.93 -48.93,25.01 -102.37,37.54 -160.18,37.54 -130.69,0 -227.92,-50.39 -291.74,-151.13 -63.83,-100.92 -95.69,-253.32 -95.69,-457.31 0,-211.16 34.17,-370.91 102.42,-479.13 68.35,-108.3 168.09,-162.42 299.29,-162.42z"/>
  <path class="fil1" d="M5061.76 9641.94c-43.79,-522.67 -338.51,-888.7 -338.51,-888.7l676.9 0c0,0 -294.66,366.03 -338.39,888.7z"/>
  <path class="fil1" d="M6042.52 9743.25c0,-270.86 -219.53,-490.35 -490.36,-490.35 -263.47,0 -478.33,207.71 -489.89,468.31l-1.13 0.74c-11.15,-260.88 -226.12,-469.05 -489.74,-469.05 -270.88,0 -490.46,219.49 -490.46,490.35 0,270.86 219.58,490.43 490.46,490.43 78.83,0 153.34,-18.69 219.43,-51.85 -132.28,87.84 -219.43,238.15 -219.43,408.73 0,270.86 219.48,490.37 490.36,490.37 270.82,0 490.4,-219.51 490.4,-490.37 0,-159.49 -76.15,-301.03 -194.04,-390.56l4.37 -4.62c58.32,24.65 122.41,38.3 189.67,38.3 270.83,0 490.36,-219.57 490.36,-490.43z"/>
  <path class="fil1" d="M5061.76 4471.68c-43.79,522.68 -338.51,888.73 -338.51,888.73l676.9 0c0,0 -294.66,-366.05 -338.39,-888.73z"/>
  <path class="fil1" d="M5552.16 3879.88c-67.26,0 -131.35,13.72 -189.67,38.38l-4.37 -4.62c117.89,-89.57 194.04,-231.1 194.04,-390.56 0,-270.88 -219.58,-490.36 -490.4,-490.36 -270.88,0 -490.36,219.48 -490.36,490.36 0,170.56 87.15,320.87 219.43,408.7 -66.09,-33.15 -140.6,-51.9 -219.43,-51.9 -270.88,0 -490.46,219.63 -490.46,490.46 0,270.87 219.58,490.41 490.46,490.41 263.62,0 478.59,-208.23 489.74,-469.09l1.13 0.72c11.56,260.6 226.42,468.37 489.89,468.37 270.83,0 490.36,-219.54 490.36,-490.41 0,-270.83 -219.53,-490.46 -490.36,-490.46z"/>
  <path class="fil1" d="M6931.36 3111.81c-43.74,522.68 -338.46,888.73 -338.46,888.73l676.91 0c0,0 -294.67,-366.05 -338.45,-888.73z"/>
  <path class="fil1" d="M7421.82 2520.06c-67.32,0 -131.41,13.67 -189.73,38.28l-4.32 -4.57c117.84,-89.52 194.05,-231.1 194.05,-390.61 0,-270.82 -219.64,-490.36 -490.46,-490.36 -270.83,0 -490.36,219.54 -490.36,490.36 0,170.66 87.21,320.93 219.43,408.8 -66.09,-33.2 -140.55,-51.9 -219.43,-51.9 -270.93,0 -490.46,219.59 -490.46,490.46 0,270.82 219.53,490.36 490.46,490.36 263.63,0 478.69,-208.23 489.79,-469.03l1.08 0.66c11.51,260.65 226.42,468.37 489.95,468.37 270.72,0 490.25,-219.54 490.25,-490.36 0,-270.87 -219.53,-490.46 -490.25,-490.46z"/>
  <path class="fil1" d="M6931.36 11061.65c43.73,-522.66 338.45,-888.72 338.45,-888.72l-676.91 0c0,0 294.67,366.06 338.46,888.72z"/>
  <path class="fil1" d="M6440.89 11653.39c67.27,0 131.36,-13.65 189.68,-38.3l4.37 4.58c-117.89,89.55 -194.05,231.11 -194.05,390.6 0,270.86 219.59,490.37 490.47,490.37 270.82,0 490.3,-219.51 490.3,-490.37 0,-170.61 -87.15,-320.92 -219.43,-408.73 66.09,33.12 140.6,51.85 219.43,51.85 270.88,0 490.41,-219.58 490.41,-490.44 0,-270.85 -219.53,-490.33 -490.41,-490.33 -263.62,0 -478.59,208.12 -489.79,469.05l-1.08 -0.78c-11.56,-260.6 -226.42,-468.27 -489.9,-468.27 -270.82,0 -490.35,219.48 -490.35,490.33 0,270.86 219.53,490.44 490.35,490.44z"/>
  <path class="fil1" d="M6931.36 5945.17c-43.74,522.68 -338.46,888.73 -338.46,888.73l676.91 0c0,0 -294.67,-366.05 -338.45,-888.73z"/>
  <path class="fil1" d="M7421.82 5353.42c-67.32,0 -131.41,13.67 -189.73,38.28l-4.32 -4.57c117.84,-89.52 194.05,-231.05 194.05,-390.56 0,-270.93 -219.64,-490.36 -490.46,-490.36 -270.83,0 -490.36,219.43 -490.36,490.36 0,170.61 87.21,320.93 219.43,408.7 -66.09,-33.1 -140.55,-51.85 -219.43,-51.85 -270.93,0 -490.46,219.58 -490.46,490.51 0,270.77 219.53,490.31 490.46,490.31 263.63,0 478.69,-208.13 489.79,-469.03l1.08 0.71c11.51,260.6 226.42,468.32 489.95,468.32 270.72,0 490.25,-219.54 490.25,-490.31 0,-270.93 -219.53,-490.51 -490.25,-490.51z"/>
  <path class="fil1" d="M6931.36 8228.3c-43.74,-522.73 -338.46,-888.73 -338.46,-888.73l676.91 0c0,0 -294.67,366 -338.45,888.73z"/>
  <path class="fil1" d="M7912.07 8329.59c0,-270.88 -219.53,-490.36 -490.25,-490.36 -263.53,0 -478.44,207.72 -489.95,468.26l-1.08 0.77c-11.1,-260.85 -226.16,-469.03 -489.79,-469.03 -270.93,0 -490.46,219.48 -490.46,490.36 0,270.82 219.53,490.46 490.46,490.46 78.88,0 153.34,-18.76 219.43,-51.9 -132.22,87.82 -219.43,238.14 -219.43,408.73 0,270.88 219.53,490.39 490.36,490.39 270.82,0 490.46,-219.51 490.46,-490.39 0,-159.44 -76.21,-301.02 -194.05,-390.54l4.32 -4.63c58.32,24.67 122.41,38.34 189.73,38.34 270.72,0 490.25,-219.64 490.25,-490.46z"/>
  <path class="fil1" d="M3192.1 3111.81c-43.68,522.68 -338.4,888.73 -338.4,888.73l676.85 0c0,0 -294.61,-366.05 -338.45,-888.73z"/>
  <path class="fil1" d="M3682.62 2520.06c-67.38,0 -131.46,13.67 -189.79,38.28l-4.26 -4.57c117.83,-89.52 194.05,-231.1 194.05,-390.61 0,-270.82 -219.64,-490.36 -490.52,-490.36 -270.82,0 -490.36,219.54 -490.36,490.36 0,170.66 87.21,320.93 219.44,408.8 -66.09,-33.2 -140.55,-51.9 -219.44,-51.9 -270.87,0 -490.41,219.59 -490.41,490.46 0,270.82 219.54,490.36 490.41,490.36 263.73,0 478.65,-208.23 489.85,-469.03l1.08 0.66c11.56,260.65 226.37,468.37 489.95,468.37 270.72,0 490.3,-219.54 490.3,-490.36 0,-270.87 -219.58,-490.46 -490.3,-490.46z"/>
  <path class="fil1" d="M3192.1 5945.17c-43.68,522.68 -338.4,888.73 -338.4,888.73l676.85 0c0,0 -294.61,-366.05 -338.45,-888.73z"/>
  <path class="fil1" d="M3682.62 5353.42c-67.38,0 -131.46,13.67 -189.79,38.28l-4.26 -4.57c117.83,-89.52 194.05,-231.05 194.05,-390.56 0,-270.93 -219.64,-490.36 -490.52,-490.36 -270.82,0 -490.36,219.43 -490.36,490.36 0,170.61 87.21,320.93 219.44,408.7 -66.09,-33.1 -140.55,-51.85 -219.44,-51.85 -270.87,0 -490.41,219.58 -490.41,490.51 0,270.77 219.54,490.31 490.41,490.31 263.73,0 478.65,-208.13 489.85,-469.03l1.08 0.71c11.56,260.6 226.37,468.32 489.95,468.32 270.72,0 490.3,-219.54 490.3,-490.31 0,-270.93 -219.58,-490.51 -490.3,-490.51z"/>
  <path class="fil1" d="M3192.1 8228.3c-43.68,-522.73 -338.4,-888.73 -338.4,-888.73l676.85 0c0,0 -294.61,366 -338.45,888.73z"/>
  <path class="fil1" d="M4172.92 8329.59c0,-270.88 -219.58,-490.36 -490.3,-490.36 -263.58,0 -478.39,207.72 -489.95,468.26l-1.08 0.77c-11.2,-260.85 -226.12,-469.03 -489.85,-469.03 -270.87,0 -490.41,219.48 -490.41,490.36 0,270.82 219.54,490.46 490.41,490.46 78.89,0 153.35,-18.76 219.44,-51.9 -132.23,87.82 -219.44,238.14 -219.44,408.73 0,270.88 219.54,490.39 490.36,490.39 270.88,0 490.52,-219.51 490.52,-490.39 0,-159.44 -76.22,-301.02 -194.05,-390.54l4.26 -4.63c58.33,24.67 122.41,38.34 189.79,38.34 270.72,0 490.3,-219.64 490.3,-490.46z"/>
  <path class="fil1" d="M3192.1 11061.65c43.79,-522.66 338.45,-888.72 338.45,-888.72l-676.85 0c0,0 294.62,366.06 338.4,888.72z"/>
  <path class="fil1" d="M2701.69 11653.39c67.27,0 131.35,-13.65 189.63,-38.3l4.37 4.58c-117.89,89.55 -194,231.11 -194,390.6 0,270.86 219.59,490.37 490.41,490.37 270.88,0 490.36,-219.51 490.36,-490.37 0,-170.61 -87.16,-320.92 -219.43,-408.73 66.03,33.12 140.55,51.85 219.43,51.85 270.88,0 490.46,-219.58 490.46,-490.44 0,-270.85 -219.58,-490.33 -490.46,-490.33 -263.63,0 -478.64,208.12 -489.79,469.05l-1.08 -0.78c-11.56,-260.6 -226.42,-468.27 -489.9,-468.27 -270.82,0 -490.36,219.48 -490.36,490.33 0,270.86 219.54,490.44 490.36,490.44z"/>
 </g>
</svg>
