<?xml version="1.0" encoding="UTF-8"?>
<!DOCTYPE svg PUBLIC "-//W3C//DTD SVG 1.1//EN" "http://www.w3.org/Graphics/SVG/1.1/DTD/svg11.dtd">
<!-- Creator: CorelDRAW -->
<svg xmlns="http://www.w3.org/2000/svg" xml:space="preserve" width="100%" height="100%" version="1.1" style="shape-rendering:geometricPrecision; text-rendering:geometricPrecision; image-rendering:optimizeQuality; fill-rule:evenodd; clip-rule:evenodd"
viewBox="0 0 10122.25 14170.99"
 xmlns:xlink="http://www.w3.org/1999/xlink"
 xmlns:xodm="http://www.corel.com/coreldraw/odm/2003">
 <defs>
  <style type="text/css">
   <![CDATA[
    .fil0 {fill:#FEFEFE;fill-rule:nonzero}
    .fil1 {fill:#1D1D1E;fill-rule:nonzero}
   ]]>
  </style>
   <clipPath id="id0">
    <path d="M9730.77 14170.99l-4479.21 0 -381.88 0 -4456.23 0c0,0 0,0 -2.87,0l4459.1 0 381.88 0 4479.21 0c0,0 229.7,-7.46 338.81,-246.15 -106.24,238.69 -338.81,246.15 -338.81,246.15zm-22.97 -20.52l-4482.08 0 -381.88 0 -4482.08 0c0,0 -37.32,-1.86 -91.88,-18.64 -111.98,-54.08 -249.8,-182.75 -249.8,-490.44l0 0 0 -3528.13 0 -2463.35c1984.06,0 3965.25,-1.86 5949.3,-1.86 1375.35,0 2753.57,0 4131.78,0l0 2444.7 0 3528.13 0 0c0,518.41 -393.36,529.59 -393.36,529.59l0 0z"/>
   </clipPath>
   <clipPath id="id1">
    <path d="M9920.27 7073.36c-2454.95,0 -4909.89,0 -7364.84,-2.02 -844.16,0 -1688.32,0 -2535.35,-2.01l0 -2990.25 0 -3528.97c0,-518.55 393.37,-528.64 393.37,-528.64l4482.07 0 381.88 0 4482.08 0c0,0 40.2,0 91.88,18.16 111.98,54.48 249.8,181.6 249.8,488.29l0 0 0 3530.99 0 3014.45c-60.29,0 -120.59,0 -180.89,0l0 0z"/>
   </clipPath>
   <clipPath id="id2">
    <path d="M10068.88 13923.84c31.93,-71.3 52.82,-162.39 52.82,-281.22l0 -5996.71 0 0 0 -570.36 0 0 0 -6547.26 0 0c0,-518.87 -391.8,-526.79 -391.8,-526.79l-19.84 0c-0.65,0 -1.05,0 -1.05,0l20.89 0c0,0 391.8,7.92 391.8,526.79l0 3537.03 0 6040.27 0 3537.03c0,118.83 -20.89,209.92 -52.82,281.22l0 0z"/>
   </clipPath>
   <clipPath id="id3">
    <path d="M10101.21 7647.69l0 -573.9 20.46 0 0 573.9 -20.46 0 0 0z"/>
   </clipPath>
   <clipPath id="id4">
    <path d="M9729.44 14170.99l-4477.96 0 -381.58 0 -4458.31 0c-8.42,-1.87 -70.15,-5.6 -140.29,-39.16 53.31,16.78 89.78,18.64 89.78,18.64l4483.57 0 381.58 0 4483.57 0c0,0 392.8,-11.18 392.8,-529.59l0 0 0 0 0 -3528.13 0 -2444.7c5.62,0 11.23,0 19.65,0l0 2459.62 0 3533.72c0,119.35 -22.45,212.59 -53.31,283.45 -106.62,238.69 -339.5,246.15 -339.5,246.15l0 0z"/>
   </clipPath>
   <clipPath id="id5">
    <path d="M10101.2 7073.29l0 -3014.92 0 -3530.55 0 0c0,-305.33 -137.69,-434.74 -249.9,-489.34 25.49,10.11 54.53,22.24 84.09,38.42l0 0 0 0 0 0c-101.03,-72.8 -205.49,-76.84 -205.49,-76.84l-19.84 0 0 0 19.84 0c0,0 391.8,10.11 391.8,529.79l0 3534.59 0 3008.85c-6.83,0 -13.67,0 -20.5,0l0 0z"/>
   </clipPath>
   <clipPath id="id6">
    <path d="M20.5 7650.32l0 -580.15 0.27 0 0 580.15 -0.27 0 0 0z"/>
   </clipPath>
   <clipPath id="id7">
    <path d="M412.93 14170.99l-20.9 0c0,0 -391.79,-11.19 -391.79,-529.6l0 -399.06c6.7,-26.1 13.27,-50.34 20.23,-74.59l0 -3074.99 0 -2442.84 0.26 0 0 2463.35 0 3528.13 0 0c0,307.69 137.57,436.36 249.77,490.44 -25.49,-9.33 -54.26,-20.52 -83.82,-39.16l0 0c100.9,74.59 205.35,78.32 205.35,78.32l19.98 0c0.52,0 0.92,0 0.92,0l0 0z"/>
   </clipPath>
   <clipPath id="id8">
    <path d="M20.89 7070.05c0,0 0,0 0,0l0 -5825.12c-8.42,-72.64 -14.03,-145.28 -19.63,-217.91l0 -496.36c0,-518.55 389.79,-530.66 389.79,-530.66l4478.44 0 381.38 0 4458.81 0c8.41,0 70.11,4.04 143.02,40.36 -53.28,-18.16 -92.54,-20.18 -92.54,-20.18l-4484.05 0 -381.38 0 -4481.24 0c0,0 -392.6,12.11 -392.6,528.64l0 3530.99 0 2990.24 0 0z"/>
   </clipPath>
   <clipPath id="id9">
    <path d="M411.96 14170.42l-19.97 0c0,0 -104.37,-3 -205.27,-77.15 29.45,17.71 58.26,29.83 83.76,38.25 71.85,34.54 133.19,38.49 141.48,38.9l0 0z"/>
   </clipPath>
   <clipPath id="id10">
    <path d="M9935.33 77.62c-29.52,-17.71 -58.5,-29.92 -84,-38.28 -71.76,-34.47 -133.05,-38.43 -141.27,-38.82l19.84 0c0,0 104.46,3.01 205.43,77.1l0 0z"/>
   </clipPath>
   <clipPath id="id11">
    <path d="M-0 13241.42l0 -12215.33c0.1,0 0.14,0 0.31,0l0 3038.17 0 6041.54 0 3135.62c-0.17,0 -0.21,0 -0.31,0l0 0z"/>
   </clipPath>
   <clipPath id="id12">
    <path d="M0.29 7650.32l0 -580.15c6.75,0 13.49,0 20.21,0l0 580.15c-6.78,0 -13.4,0 -20.21,0l0 0z"/>
   </clipPath>
   <clipPath id="id13">
    <path d="M0.29 13242.07l0 -3135.33 0 -2457.08c6.81,0 13.43,0 20.21,0l0 2442.68 -0.04 3076.14c-6.91,24 -13.49,47.99 -20.17,73.59l0 0z"/>
   </clipPath>
   <clipPath id="id14">
    <path d="M20.5 7069.82c-6.72,0 -13.46,0 -20.21,0l0 -3004.82 0 -3037.6c6.6,72.45 13.26,144.9 20.21,219.07l0 5823.35 0 0z"/>
   </clipPath>
 </defs>
 <g id="Layer_x0020_1">
  <metadata id="CorelCorpID_0Corel-Layer"/>
  <path class="fil0" d="M9729.93 0.5l-9337.89 0c0,0 -391.74,10.63 -391.74,529.26l0 13111.56c0,518.47 391.74,529.11 391.74,529.11l9337.89 0c0,0 391.74,-10.64 391.74,-529.11l0 -13111.56c0,-518.63 -391.74,-529.26 -391.74,-529.26z"/>
  <g style="clip-path:url(#id0)">
   <image x="-5.76" y="7625.67" width="10129.9" height="6578.88" xlink:href="2_Images\2_ImgID1.png"/>
  </g>
  <g style="clip-path:url(#id1)">
   <image x="-5.76" y="-10.81" width="10129.9" height="7118.47" xlink:href="2_Images\2_ImgID2.png"/>
  </g>
  <g style="clip-path:url(#id2)">
   <image x="9681.16" y="-26.23" width="463.53" height="13973.83" xlink:href="2_Images\2_ImgID3.png"/>
  </g>
  <g style="clip-path:url(#id3)">
   <image x="10071.72" y="7050.11" width="72.97" height="633.12" xlink:href="2_Images\2_ImgID4.png"/>
  </g>
  <g style="clip-path:url(#id4)">
   <image x="246.05" y="7625.67" width="9898.64" height="6578.88" xlink:href="2_Images\2_ImgID5.png"/>
  </g>
  <g style="clip-path:url(#id5)">
   <image x="9681.16" y="-26.23" width="463.53" height="7133.89" xlink:href="2_Images\2_ImgID6.png"/>
  </g>
  <g style="clip-path:url(#id6)">
   <image x="-5.76" y="7034.69" width="57.56" height="648.54" xlink:href="2_Images\2_ImgID7.png"/>
  </g>
  <g style="clip-path:url(#id7)">
   <image x="-21.18" y="7625.67" width="463.53" height="6578.88" xlink:href="2_Images\2_ImgID8.png"/>
  </g>
  <g style="clip-path:url(#id8)">
   <image x="-21.18" y="-26.23" width="9893.5" height="7118.47" xlink:href="2_Images\2_ImgID9.png"/>
  </g>
  <g style="clip-path:url(#id9)">
   <image x="163.82" y="14059.63" width="278.53" height="144.92" xlink:href="2_Images\2_ImgID10.png"/>
  </g>
  <g style="clip-path:url(#id10)">
   <image x="9681.16" y="-26.23" width="273.39" height="139.78" xlink:href="2_Images\2_ImgID11.png"/>
  </g>
  <g style="clip-path:url(#id11)">
   <image x="-21.18" y="991.29" width="57.56" height="12277.98" xlink:href="2_Images\2_ImgID12.png"/>
  </g>
  <g style="clip-path:url(#id12)">
   <image x="-21.18" y="7034.69" width="72.97" height="648.54" xlink:href="2_Images\2_ImgID13.png"/>
  </g>
  <g style="clip-path:url(#id13)">
   <image x="-21.18" y="7625.67" width="72.97" height="5643.59" xlink:href="2_Images\2_ImgID14.png"/>
  </g>
  <g style="clip-path:url(#id14)">
   <image x="-21.18" y="1006.7" width="72.97" height="6085.54" xlink:href="2_Images\2_ImgID15.png"/>
  </g>
  <path class="fil1" d="M731.99 2816.79c-21.95,263.32 -170.46,447.76 -170.46,447.76l341.07 0c0,0 -148.46,-184.44 -170.61,-447.76z"/>
  <path class="fil1" d="M979.12 2518.68c-33.87,0 -66.14,6.89 -95.53,19.28l-2.21 -2.32c59.4,-45.12 97.74,-116.45 97.74,-196.77 0,-136.49 -110.59,-247.13 -247.13,-247.13 -136.44,0 -247.03,110.64 -247.03,247.13 0,85.93 43.99,161.67 110.59,205.92 -33.3,-16.7 -70.82,-26.11 -110.59,-26.11 -136.49,0 -247.14,110.59 -247.14,247.08 0,136.44 110.65,247.09 247.14,247.09 132.84,0 241.17,-104.89 246.82,-236.34l0.51 0.36c5.81,131.3 114.14,235.98 246.83,235.98 136.44,0 247.08,-110.65 247.08,-247.09 0,-136.49 -110.64,-247.08 -247.08,-247.08z"/>
  <path class="fil1" d="M868.94 1690.18c29.24,0 52.83,-1.8 70.71,-5.39 17.83,-3.55 32.17,-9.51 42.91,-17.89 10.69,-8.37 19.27,-19.22 25.49,-32.63 6.27,-13.41 14.18,-34.17 23.74,-62.18l76.01 0 -15.16 261.26 -736.41 0 0 -43.01c25.64,-62.54 60.22,-126.73 103.75,-192.35 43.53,-65.57 105.35,-142.86 185.26,-231.72 69.17,-76.41 119.02,-134.22 149.44,-173.59 33.35,-42.96 58.28,-80.06 74.67,-111.41 16.39,-31.3 28.21,-60.85 35.41,-88.55 7.09,-27.8 10.69,-55.6 10.69,-83.66 0,-44.76 -7.1,-84.28 -21.48,-118.6 -14.29,-34.33 -36.18,-61.31 -65.73,-80.94 -29.55,-19.74 -66.65,-29.55 -111.41,-29.55 -111.62,0 -186.75,62.03 -225.5,186.13l-108.28 0 0 -171.79c72.2,-34.08 139.73,-58.69 202.68,-73.9 62.95,-15.16 119.43,-22.72 169.59,-22.72 110.95,0 194.76,24.26 251.45,72.87 56.63,48.67 84.94,119.18 84.94,211.63 0,31.6 -3.08,60.74 -9.4,87.26 -6.27,26.56 -16.09,52.77 -29.5,78.72 -13.36,25.96 -31.45,53.81 -54.11,83.67 -22.72,29.85 -47.74,60.12 -75.19,90.8 -27.44,30.73 -74.87,81.92 -142.24,153.5 -113.42,119.84 -196.62,224.57 -249.7,314.04l337.37 0z"/>
  <path class="fil1" d="M9284.79 11316.92c22,-263.37 170.51,-447.75 170.51,-447.75l-341.07 0c0,0 148.46,184.38 170.56,447.75z"/>
  <path class="fil1" d="M9037.71 11615.04c33.87,0 66.14,-6.89 95.48,-19.28l2.26 2.27c-59.35,45.17 -97.74,116.5 -97.74,196.82 0,136.49 110.59,247.08 247.08,247.08 136.44,0 247.03,-110.59 247.03,-247.08 0,-85.93 -43.94,-161.67 -110.54,-205.97 33.25,16.75 70.82,26.16 110.54,26.16 136.54,0 247.13,-110.65 247.13,-247.14 0,-136.38 -110.59,-247.03 -247.13,-247.03 -132.79,0 -241.17,104.89 -246.77,236.34l-0.57 -0.36c-5.8,-131.3 -114.13,-235.98 -246.77,-235.98 -136.49,0 -247.13,110.65 -247.13,247.03 0,136.49 110.64,247.14 247.13,247.14z"/>
  <path class="fil1" d="M9147.89 12443.54c-29.24,0 -52.78,1.74 -70.66,5.34 -17.94,3.6 -32.22,9.51 -43.01,17.94 -10.69,8.37 -19.22,19.22 -25.49,32.58 -6.22,13.46 -14.19,34.17 -23.69,62.18l-76.06 0 15.16 -261.27 736.46 0 0 43.07c-25.64,62.54 -60.23,126.67 -103.8,192.3 -43.48,65.62 -105.3,142.86 -185.26,231.76 -69.17,76.37 -119.02,134.23 -149.39,173.6 -33.41,42.96 -58.33,80.06 -74.72,111.41 -16.35,31.3 -28.22,60.85 -35.36,88.54 -7.14,27.76 -10.74,55.61 -10.74,83.67 0,44.76 7.14,84.28 21.53,118.6 14.29,34.28 36.18,61.26 65.73,80.94 29.55,19.68 66.65,29.55 111.41,29.55 111.57,0 186.75,-62.03 225.5,-186.18l108.23 0 0 171.84c-72.16,34.07 -139.73,58.64 -202.68,73.85 -62.91,15.16 -119.43,22.77 -169.59,22.77 -110.9,0 -194.71,-24.26 -251.45,-72.93 -56.58,-48.61 -84.95,-119.12 -84.95,-211.62 0,-31.6 3.14,-60.69 9.46,-87.21 6.22,-26.56 16.03,-52.82 29.45,-78.78 13.41,-25.95 31.5,-53.8 54.16,-83.61 22.66,-29.85 47.69,-60.12 75.13,-90.8 27.44,-30.78 74.93,-81.92 142.3,-153.5 113.36,-119.89 196.62,-224.57 249.7,-314.04l-337.37 0z"/>
  <path class="fil1" d="M5022.91 3111.51c-43.69,522.63 -338.4,888.68 -338.4,888.68l676.9 0c0,0 -294.67,-366.05 -338.5,-888.68z"/>
  <path class="fil1" d="M5513.37 2519.76c-67.22,0 -131.35,13.67 -189.63,38.29l-4.37 -4.58c117.89,-89.57 194,-231.09 194,-390.61 0,-270.82 -219.54,-490.36 -490.46,-490.36 -270.78,0 -490.26,219.54 -490.26,490.36 0,170.62 87.11,320.93 219.38,408.76 -66.03,-33.15 -140.55,-51.86 -219.38,-51.86 -270.93,0 -490.46,219.59 -490.46,490.46 0,270.83 219.53,490.36 490.46,490.36 263.63,0 478.59,-208.18 489.74,-469.08l1.08 0.77c11.62,260.6 226.47,468.31 489.9,468.31 270.82,0 490.41,-219.53 490.41,-490.36 0,-270.87 -219.59,-490.46 -490.41,-490.46z"/>
  <path class="fil1" d="M5022.91 11061.31c43.73,-522.63 338.5,-888.67 338.5,-888.67l-676.9 0c0,0 294.66,366.04 338.4,888.67z"/>
  <path class="fil1" d="M4532.55 11653.11c67.27,0 131.35,-13.66 189.68,-38.33l4.31 4.62c-117.83,89.58 -193.99,231.1 -193.99,390.56 0,270.88 219.58,490.36 490.36,490.36 270.87,0 490.41,-219.48 490.41,-490.36 0,-170.56 -87.16,-320.92 -219.44,-408.7 66.09,33.1 140.55,51.85 219.44,51.85 270.87,0 490.46,-219.63 490.46,-490.46 0,-270.87 -219.59,-490.35 -490.46,-490.35 -263.68,0 -478.7,208.12 -489.85,469.08l-1.08 -0.82c-11.51,-260.55 -226.37,-468.26 -489.84,-468.26 -270.83,0 -490.36,219.48 -490.36,490.35 0,270.83 219.53,490.46 490.36,490.46z"/>
 </g>
</svg>
