<?xml version="1.0" encoding="UTF-8"?>
<!DOCTYPE svg PUBLIC "-//W3C//DTD SVG 1.1//EN" "http://www.w3.org/Graphics/SVG/1.1/DTD/svg11.dtd">
<!-- Creator: CorelDRAW -->
<svg xmlns="http://www.w3.org/2000/svg" xml:space="preserve" width="100%" height="100%" version="1.1" style="shape-rendering:geometricPrecision; text-rendering:geometricPrecision; image-rendering:optimizeQuality; fill-rule:evenodd; clip-rule:evenodd"
viewBox="0 0 10122.6 14170.99"
 xmlns:xlink="http://www.w3.org/1999/xlink"
 xmlns:xodm="http://www.corel.com/coreldraw/odm/2003">
 <defs>
  <style type="text/css">
   <![CDATA[
    .fil0 {fill:#FEFEFE;fill-rule:nonzero}
    .fil1 {fill:#1D1D1E;fill-rule:nonzero}
   ]]>
  </style>
   <clipPath id="id0">
    <path d="M9731.6 14170.99l-4478.61 0 -382.07 0 -4458.5 0c0,0 0,0 0,0l4458.5 0 382.07 0 4478.61 0c0,0 140.76,-3.73 252.8,-119.35 -112.04,115.62 -252.8,119.35 -252.8,119.35zm-22.99 -20.52l-4481.47 0 -382.08 0 -4481.48 0c0,0 -40.22,-1.86 -91.93,-18.64 -112.03,-54.08 -249.92,-182.75 -249.92,-490.44l0 0 0 -3528.13 0 -2463.35c1982.19,0 3964.38,-1.86 5946.57,-1.86 1378.92,0 2754.96,0 4133.88,0l0 2444.7 0 3528.13 0 0c0,518.41 -393.57,529.59 -393.57,529.59l0 0z"/>
   </clipPath>
   <clipPath id="id1">
    <path d="M9921.2 7073.36c-2456.2,0 -4909.52,0 -7365.71,-2.02 -844.59,0 -1689.18,0 -2533.76,-2.01l0 -2990.25 0 -3528.97c0,-518.55 390.69,-528.64 390.69,-528.64l4484.35 0 382.08 0 4481.47 0c0,0 40.22,0 91.93,18.16 112.04,54.48 249.93,181.6 249.93,488.29l0 0 0 3530.99 0 3014.45c-60.33,0 -120.66,0 -180.98,0l0 0z"/>
   </clipPath>
   <clipPath id="id2">
    <path d="M0.81 13241.42l0 -12215.33c0.12,0 0.21,0 0.31,0l0.05 3038.17 0 6041.54 0 3135.62c-0.15,0 -0.24,0 -0.36,0l0 0z"/>
   </clipPath>
   <clipPath id="id3">
    <path d="M21.32 7650.32l0 -580.15 0.36 0 0 580.15 -0.36 0 0 0z"/>
   </clipPath>
   <clipPath id="id4">
    <path d="M413.81 14170.99l-20.9 0c0,0 -391.79,-11.19 -391.79,-529.6l0 -400.92c6.83,-24.24 13.4,-48.48 20.1,-72.73l0.13 -3074.99 0 -2442.84c0.13,0 0.13,0 0.26,0l0 2463.35 0 3528.13 0 0c0,307.69 137.57,436.36 249.77,490.44 -25.49,-9.33 -54.26,-20.52 -83.82,-39.16l0 0c100.9,74.59 205.35,78.32 205.35,78.32l19.98 0c0.52,0 0.92,0 0.92,0l0 0z"/>
   </clipPath>
   <clipPath id="id5">
    <path d="M22.48 7070.05c0,0 0,0 0,0l0 -5825.12c-8.43,-72.64 -14.05,-145.28 -22.48,-217.91l0 -496.36c0,-518.55 393.42,-530.66 393.42,-530.66l4476.5 0 382.17 0 4459.64 0c8.43,0 67.45,4.04 140.51,40.36 -53.39,-18.16 -89.92,-20.18 -89.92,-20.18l-4484.94 0 -379.36 0 -4484.93 0c0,0 -390.61,12.11 -390.61,528.64l0 3530.99 0 2990.24 0 0z"/>
   </clipPath>
   <clipPath id="id6">
    <path d="M1.16 7650.32l0 -580.15c6.75,0 13.47,0 20.15,0l0 580.15c-6.68,0 -13.44,0 -20.15,0l0 0z"/>
   </clipPath>
   <clipPath id="id7">
    <path d="M1.16 13242.07l0 -3135.33 0 -2457.08c6.71,0 13.47,0 20.15,0l0 2442.68 -0.04 3076.14c-6.72,24 -13.36,47.99 -20.11,73.59l0 0z"/>
   </clipPath>
   <clipPath id="id8">
    <path d="M21.31 7069.82c-6.68,0 -13.4,0 -20.15,0l0 -3004.82 -0.04 -3037.6c6.62,72.45 13.37,144.9 20.19,219.07l0 5823.35 0 0z"/>
   </clipPath>
   <clipPath id="id9">
    <path d="M9984.54 14050.35c75.2,-76 138.06,-200 138.06,-408.01l0 -5996.25 0 0 0 -572.02 0 0 0 -6544.27 0 0c0,-520.02 -391.79,-528.03 -391.79,-528.03l-19.96 0c-0.54,0 -0.95,0 -0.95,0l20.91 0c0,0 391.79,8.01 391.79,528.03l0 3536.14 0 6040.25 0 3536.15c0,208.01 -62.86,332.01 -138.06,408.01l0 0z"/>
   </clipPath>
   <clipPath id="id10">
    <path d="M10102.08 7647.69l0 -573.9 20.47 0 0 573.9 -20.47 0 0 0z"/>
   </clipPath>
   <clipPath id="id11">
    <path d="M9731.89 14170.99l-4479.8 0 -381.98 0 -4457.33 0c-8.42,-1.87 -70.21,-5.6 -140.43,-39.16 50.56,16.78 89.88,18.64 89.88,18.64l4482.61 0 381.97 0 4482.61 0c0,0 393.21,-11.18 393.21,-529.59l0 0 0 0 0 -3528.13 0 -2444.7c5.62,0 14.04,0 19.66,0l0 2459.62 0 3533.72c0,206.99 -61.79,333.8 -137.62,410.25 -112.35,115.62 -252.78,119.35 -252.78,119.35l0 0z"/>
   </clipPath>
   <clipPath id="id12">
    <path d="M10102.1 7073.29l0 -3014.92 0 -3530.55 0 0c0,-305.33 -137.79,-434.74 -249.93,-489.34 25.52,10.11 54.44,22.24 84.04,38.42l0 0 0 0 0 0c-101.01,-72.8 -205.4,-76.84 -205.4,-76.84l-19.96 0 0 0 19.96 0c0,0 391.79,10.11 391.79,529.79l0 3534.59 0 3008.85c-6.92,0 -13.71,0 -20.5,0l0 0z"/>
   </clipPath>
   <clipPath id="id13">
    <path d="M412.82 14170.42l-19.97 0c0,0 -104.37,-3 -205.27,-77.15 29.45,17.71 58.34,29.83 83.77,38.25 71.84,34.54 133.26,38.49 141.47,38.9l0 0z"/>
   </clipPath>
   <clipPath id="id14">
    <path d="M9936.17 77.62c-29.58,-17.71 -58.41,-29.92 -83.99,-38.28 -71.74,-34.54 -133.06,-38.43 -141.31,-38.82l20 0c0,0 104.31,3.01 205.3,77.1l0 0z"/>
   </clipPath>
 </defs>
 <g id="Layer_x0020_1">
  <metadata id="CorelCorpID_0Corel-Layer"/>
  <path class="fil0" d="M9730.85 0.5l-9337.98 0c0,0 -391.75,10.63 -391.75,529.26l0.05 3534.46 0 9577.1c0,518.47 391.7,529.11 391.7,529.11l9337.98 0c0,0 391.69,-10.64 391.69,-529.11l0 -13111.56c0,-518.63 -391.69,-529.26 -391.69,-529.26z"/>
  <g style="clip-path:url(#id0)">
   <image x="-9.87" y="7625.67" width="10135.04" height="6578.88" xlink:href="3_Images\3_ImgID1.png"/>
  </g>
  <g style="clip-path:url(#id1)">
   <image x="-9.87" y="-10.81" width="10135.04" height="7118.47" xlink:href="3_Images\3_ImgID2.png"/>
  </g>
  <g style="clip-path:url(#id2)">
   <image x="-25.29" y="991.29" width="57.56" height="12277.98" xlink:href="3_Images\3_ImgID3.png"/>
  </g>
  <g style="clip-path:url(#id3)">
   <image x="-9.87" y="7034.69" width="57.56" height="648.54" xlink:href="3_Images\3_ImgID4.png"/>
  </g>
  <g style="clip-path:url(#id4)">
   <image x="-25.29" y="7625.67" width="463.53" height="6578.88" xlink:href="3_Images\3_ImgID5.png"/>
  </g>
  <g style="clip-path:url(#id5)">
   <image x="-25.29" y="-26.23" width="9914.06" height="7118.47" xlink:href="3_Images\3_ImgID6.png"/>
  </g>
  <g style="clip-path:url(#id6)">
   <image x="-25.29" y="7034.69" width="72.97" height="648.54" xlink:href="3_Images\3_ImgID7.png"/>
  </g>
  <g style="clip-path:url(#id7)">
   <image x="-25.29" y="7625.67" width="72.97" height="5643.59" xlink:href="3_Images\3_ImgID8.png"/>
  </g>
  <g style="clip-path:url(#id8)">
   <image x="-25.29" y="1006.7" width="72.97" height="6085.54" xlink:href="3_Images\3_ImgID9.png"/>
  </g>
  <g style="clip-path:url(#id9)">
   <image x="9677.05" y="-26.23" width="478.95" height="14112.58" xlink:href="3_Images\3_ImgID10.png"/>
  </g>
  <g style="clip-path:url(#id10)">
   <image x="10067.61" y="7050.11" width="88.39" height="633.12" xlink:href="3_Images\3_ImgID11.png"/>
  </g>
  <g style="clip-path:url(#id11)">
   <image x="247.07" y="7625.67" width="9908.92" height="6578.88" xlink:href="3_Images\3_ImgID12.png"/>
  </g>
  <g style="clip-path:url(#id12)">
   <image x="9677.05" y="-26.23" width="478.95" height="7133.89" xlink:href="3_Images\3_ImgID13.png"/>
  </g>
  <g style="clip-path:url(#id13)">
   <image x="159.71" y="14059.63" width="278.53" height="144.92" xlink:href="3_Images\3_ImgID14.png"/>
  </g>
  <g style="clip-path:url(#id14)">
   <image x="9677.05" y="-26.23" width="293.95" height="139.78" xlink:href="3_Images\3_ImgID15.png"/>
  </g>
  <path class="fil1" d="M770.48 2816.79c-22,263.32 -170.46,447.76 -170.46,447.76l341.02 0c0,0 -148.47,-184.44 -170.56,-447.76z"/>
  <path class="fil1" d="M1017.61 2518.68c-33.87,0 -66.19,6.89 -95.54,19.28l-2.21 -2.32c59.36,-45.12 97.75,-116.45 97.75,-196.77 0,-136.49 -110.59,-247.13 -247.13,-247.13 -136.39,0 -247.03,110.64 -247.03,247.13 0,85.93 43.99,161.67 110.54,205.92 -33.25,-16.7 -70.82,-26.11 -110.54,-26.11 -136.49,0 -247.08,110.59 -247.08,247.08 0,136.44 110.59,247.09 247.08,247.09 132.84,0 241.17,-104.89 246.82,-236.34l0.51 0.36c5.86,131.3 114.14,235.98 246.83,235.98 136.44,0 247.13,-110.65 247.13,-247.09 0,-136.49 -110.69,-247.08 -247.13,-247.08z"/>
  <path class="fil1" d="M414.4 865.23l0 -170.1c69.17,-32.74 133.92,-57.25 194.15,-73.33 60.28,-16.14 118.45,-24.11 174.52,-24.11 67.42,0 126.41,10.38 177.14,31.25 50.72,20.91 89.46,50.87 116.39,89.93 26.83,39.06 40.19,85.82 40.19,140.04 0,50.77 -10.12,95.27 -30.42,133.81 -20.2,38.44 -48.77,72 -85.36,100.63 -36.74,28.62 -84.28,56.68 -142.81,84.12l0 8.07c36.43,6.52 71.48,17.78 105.19,33.56 33.66,15.77 63.62,36.17 89.93,61.3 26.21,24.98 47.23,54.99 63.11,89.88 15.78,34.9 23.69,74.72 23.69,119.43 0,69.22 -15.06,130.63 -45.22,184.39 -30.12,53.7 -76.21,95.99 -138.24,127.08 -62.03,30.99 -137.52,46.46 -226.37,46.46 -51.29,0 -106.69,-5.76 -165.99,-17.42 -59.41,-11.61 -113.83,-27.03 -163.37,-46.05l0 -189.73 107.46 0c20.81,62.08 48.36,107.1 82.74,135.16 34.27,28.01 80.99,42.04 140.08,42.04 77.5,0 136.13,-21.23 175.81,-63.57 39.62,-42.35 59.51,-104.99 59.51,-187.88 0,-87.16 -26.26,-153.61 -78.73,-199.55 -52.57,-45.94 -129.5,-68.96 -230.9,-68.96l-80.52 0 0 -78.63c80.52,-4.83 148.36,-20.3 203.55,-46.56 55.19,-26.31 96.2,-59.97 123.08,-101.13 26.82,-41.17 40.19,-87.37 40.19,-138.7 0,-66.19 -17.58,-117.22 -52.78,-153.04 -35.2,-35.77 -86.44,-53.65 -153.91,-53.65 -56.07,0 -101.65,15.16 -136.85,45.63 -35.26,30.42 -61.21,76.88 -77.86,139.63l-107.4 0z"/>
  <path class="fil1" d="M9321.48 11316.92c21.94,-263.37 170.51,-447.75 170.51,-447.75l-341.07 0c0,0 148.46,184.38 170.56,447.75z"/>
  <path class="fil1" d="M9074.35 11615.04c33.86,0 66.19,-6.89 95.53,-19.28l2.21 2.27c-59.35,45.17 -97.74,116.5 -97.74,196.82 0,136.49 110.59,247.08 247.13,247.08 136.39,0 247.03,-110.59 247.03,-247.08 0,-85.93 -43.94,-161.67 -110.54,-205.97 33.25,16.75 70.82,26.16 110.54,26.16 136.49,0 247.08,-110.65 247.08,-247.14 0,-136.38 -110.59,-247.03 -247.08,-247.03 -132.84,0 -241.12,104.89 -246.82,236.34l-0.52 -0.36c-5.8,-131.3 -114.08,-235.98 -246.82,-235.98 -136.44,0 -247.13,110.65 -247.13,247.03 0,136.49 110.69,247.14 247.13,247.14z"/>
  <path class="fil1" d="M9677.56 13268.49l0 170.1c-69.17,32.69 -133.92,57.2 -194.1,73.28 -60.38,16.19 -118.45,24.16 -174.52,24.16 -67.47,0 -126.52,-10.38 -177.14,-31.25 -50.77,-20.91 -89.52,-50.87 -116.45,-89.93 -26.77,-39.11 -40.18,-85.82 -40.18,-140.04 0,-50.72 10.12,-95.32 30.42,-133.82 20.25,-38.49 48.77,-71.99 85.41,-100.62 36.64,-28.67 84.23,-56.68 142.76,-84.17l0 -8.02c-36.44,-6.52 -71.43,-17.78 -105.19,-33.56 -33.66,-15.77 -63.62,-36.23 -89.89,-61.3 -26.26,-24.98 -47.27,-55.04 -63.1,-89.94 -15.83,-34.84 -23.74,-74.66 -23.74,-119.42 0,-69.17 15.11,-130.64 45.22,-184.34 30.11,-53.7 76.21,-96.05 138.24,-127.08 62.02,-30.99 137.52,-46.51 226.42,-46.51 51.29,0 106.63,5.75 165.94,17.47 59.4,11.61 113.82,27.03 163.36,45.99l0 189.73 -107.45 0c-20.81,-62.02 -48.36,-107.04 -82.74,-135.1 -34.28,-28.06 -80.99,-42.04 -140.04,-42.04 -77.54,0 -136.18,21.23 -175.85,63.52 -39.62,42.35 -59.46,105.04 -59.46,187.93 0,87.16 26.26,153.55 78.68,199.55 52.57,45.94 129.5,68.91 230.89,68.91l80.53 0 0 78.68c-80.53,4.78 -148.36,20.3 -203.55,46.56 -55.2,26.31 -96.21,59.97 -123.03,101.13 -26.83,41.11 -40.24,87.36 -40.24,138.7 0,66.19 17.58,117.22 52.78,153.04 35.2,35.77 86.49,53.65 153.91,53.65 56.07,0 101.65,-15.16 136.85,-45.63 35.25,-30.43 61.2,-76.93 77.91,-139.63l107.35 0z"/>
  <path class="fil1" d="M5060.01 3098.92c-43.73,522.63 -338.4,888.68 -338.4,888.68l676.85 0c0,0 -294.67,-366.05 -338.45,-888.68z"/>
  <path class="fil1" d="M5550.47 2507.12c-67.22,0 -131.35,13.72 -189.63,38.34l-4.42 -4.63c117.94,-89.52 194.05,-231.1 194.05,-390.56 0,-270.87 -219.54,-490.36 -490.46,-490.36 -270.77,0 -490.31,219.49 -490.31,490.36 0,170.62 87.16,320.93 219.43,408.75 -66.03,-33.14 -140.6,-51.9 -219.43,-51.9 -270.87,0 -490.41,219.64 -490.41,490.46 0,270.88 219.54,490.36 490.41,490.36 263.63,0 478.64,-208.18 489.79,-469.03l1.08 0.72c11.62,260.6 226.43,468.31 489.9,468.31 270.82,0 490.41,-219.48 490.41,-490.36 0,-270.82 -219.59,-490.46 -490.41,-490.46z"/>
  <path class="fil1" d="M5060.01 7348.94c-43.73,522.68 -338.4,888.73 -338.4,888.73l676.85 0c0,0 -294.67,-366.05 -338.45,-888.73z"/>
  <path class="fil1" d="M5550.47 6757.19c-67.22,0 -131.35,13.72 -189.63,38.28l-4.42 -4.57c117.94,-89.52 194.05,-231.1 194.05,-390.56 0,-270.88 -219.54,-490.36 -490.46,-490.36 -270.77,0 -490.31,219.48 -490.31,490.36 0,170.61 87.16,320.93 219.43,408.7 -66.03,-33.1 -140.6,-51.85 -219.43,-51.85 -270.87,0 -490.41,219.64 -490.41,490.46 0,270.82 219.54,490.36 490.41,490.36 263.63,0 478.64,-208.18 489.79,-469.09l1.08 0.72c11.62,260.65 226.43,468.37 489.9,468.37 270.82,0 490.41,-219.54 490.41,-490.36 0,-270.82 -219.59,-490.46 -490.41,-490.46z"/>
  <path class="fil1" d="M5060.01 11048.72c43.73,-522.63 338.45,-888.68 338.45,-888.68l-676.85 0c0,0 294.67,366.05 338.4,888.68z"/>
  <path class="fil1" d="M4569.6 11640.52c67.32,0 131.4,-13.72 189.73,-38.33l4.26 4.57c-117.78,89.57 -193.99,231.1 -193.99,390.61 0,270.83 219.64,490.36 490.41,490.36 270.87,0 490.41,-219.53 490.41,-490.36 0,-170.66 -87.21,-320.98 -219.44,-408.75 66.04,33.15 140.55,51.9 219.44,51.9 270.87,0 490.46,-219.58 490.46,-490.51 0,-270.77 -219.59,-490.31 -490.46,-490.31 -263.68,0 -478.64,208.13 -489.85,469.09l-1.08 -0.77c-11.51,-260.65 -226.42,-468.32 -489.89,-468.32 -270.77,0 -490.31,219.54 -490.31,490.31 0,270.93 219.54,490.51 490.31,490.51z"/>
 </g>
</svg>
