<?xml version="1.0" encoding="UTF-8"?>
<!DOCTYPE svg PUBLIC "-//W3C//DTD SVG 1.1//EN" "http://www.w3.org/Graphics/SVG/1.1/DTD/svg11.dtd">
<!-- Creator: CorelDRAW -->
<svg xmlns="http://www.w3.org/2000/svg" xml:space="preserve" width="100%" height="100%" version="1.1" style="shape-rendering:geometricPrecision; text-rendering:geometricPrecision; image-rendering:optimizeQuality; fill-rule:evenodd; clip-rule:evenodd"
viewBox="0 0 10122.35 14170.99"
 xmlns:xlink="http://www.w3.org/1999/xlink"
 xmlns:xodm="http://www.corel.com/coreldraw/odm/2003">
 <defs>
  <style type="text/css">
   <![CDATA[
    .fil0 {fill:#FEFEFE;fill-rule:nonzero}
    .fil1 {fill:#1D1D1E;fill-rule:nonzero}
   ]]>
  </style>
   <clipPath id="id0">
    <path d="M10101.19 7648.05l0 5972.83c0,518.41 -393.37,529.59 -393.37,529.59l-4482.08 0 -381.88 0 -4482.07 0c0,0 -37.33,-1.86 -91.89,-18.64 -111.98,-54.08 -249.8,-182.75 -249.8,-490.44l0 -5991.48c1984.06,0 3965.25,-1.86 5946.44,-1.86 1378.21,0 2756.43,0 4134.65,0zm-370.4 6522.94c2.87,0 140.69,-5.6 252.67,-119.35 -111.98,113.75 -249.8,119.35 -252.67,119.35z"/>
   </clipPath>
   <clipPath id="id1">
    <path d="M9920.3 7073.36c-2454.95,0 -4909.9,0 -7364.85,-2.02 -844.16,0 -1688.32,0 -2535.35,-2.01l0 -2990.25 0 -3528.97c0,-518.55 393.37,-528.64 393.37,-528.64l4482.08 0 381.88 0 4482.07 0c0,0 40.2,0 91.89,18.16 111.98,54.48 249.8,181.6 249.8,488.29l0 0 0 3530.99 0 3014.45c-60.3,0 -120.6,0 -180.89,0l0 0z"/>
   </clipPath>
   <clipPath id="id2">
    <path d="M9983.46 14050.35c75.55,-76 138.22,-200 138.22,-408.01l0 -5996.25 0 0 0 -572.02 0 0 0 -6544.27 0 0c0,-520.02 -391.53,-528.03 -391.53,-528.03l-20.1 0c-0.53,0 -1.05,0 -1.05,0l21.15 0c0,0 391.53,8.01 391.53,528.03l0 3536.14 0 6040.25 0 3536.15c0,208.01 -62.67,332.01 -138.22,408.01l0 0z"/>
   </clipPath>
   <clipPath id="id3">
    <path d="M10101.12 7647.69l0 -573.9 20.56 0 0 573.9 -20.56 0 0 0z"/>
   </clipPath>
   <clipPath id="id4">
    <path d="M9728.94 14170.99l-4476.5 0 -382.18 0 -4456.83 0c-11.24,-1.87 -70.25,-5.6 -143.31,-39.16 53.39,16.78 92.73,18.64 92.73,18.64l4482.12 0 382.18 0 4482.12 0c0,0 390.6,-11.18 390.6,-529.59l0 0 0 0 0 -3528.13 0 -2444.7c8.43,0 14.05,0 22.48,0l0 2459.62 0 3533.72c0,206.99 -64.63,333.8 -137.69,410.25 -112.41,115.62 -255.72,119.35 -255.72,119.35l0 0z"/>
   </clipPath>
   <clipPath id="id5">
    <path d="M10101.18 7073.29l0 -3014.92 0 -3530.55 0 0c0,-305.33 -137.82,-434.74 -249.76,-489.34 25.09,10.11 54.39,22.24 83.69,38.42l0 0 0 0 0 0c-100.64,-72.8 -204.96,-76.84 -204.96,-76.84l-20.1 0 0 0 20.1 0c0,0 391.53,10.11 391.53,529.79l0 3534.59 0 3008.85c-6.7,0 -13.4,0 -20.5,0l0 0z"/>
   </clipPath>
   <clipPath id="id6">
    <path d="M20.56 7650.32l0 -580.15 0.5 0 0 580.15 -0.5 0 0 0z"/>
   </clipPath>
   <clipPath id="id7">
    <path d="M412.71 14170.99l-20.58 0c0,0 -391.6,-11.19 -391.6,-529.6l0 -400.92c6.72,-24.24 13.31,-48.48 20.03,-72.73l0 -3074.99 0 -2442.84c0,0 0,0 0.55,0l0 2463.35 0 3528.13 0 0c0,307.69 137.21,436.36 249.18,490.44 -25.66,-9.33 -53.93,-20.52 -83.7,-39.16l0 0c101.12,74.59 205.54,78.32 205.54,78.32l20.04 0c0.54,0 0.54,0 0.54,0l0 0z"/>
   </clipPath>
   <clipPath id="id8">
    <path d="M20.23 7070.05c0,0 0,0 0,0l0 -5825.12c-5.62,-72.64 -14.05,-145.28 -19.67,-217.91l0 -496.36c0,-518.55 390.61,-530.66 390.61,-530.66l4479.31 0 382.17 0 4456.83 0c8.44,0 70.26,4.04 140.51,40.36 -50.58,-18.16 -89.92,-20.18 -89.92,-20.18l-4482.13 0 -382.17 0 -4482.12 0c0,0 -393.42,12.11 -393.42,528.64l0 3530.99 0 2990.24 0 0z"/>
   </clipPath>
   <clipPath id="id9">
    <path d="M412.12 14170.42l-19.99 0c0,0 -104.32,-3 -205.55,-77.15 29.75,17.67 58.07,29.83 83.74,38.21 71.9,34.58 133.05,38.53 141.8,38.94l0 0z"/>
   </clipPath>
   <clipPath id="id10">
    <path d="M9935.13 77.62c-29.29,-17.71 -58.58,-29.92 -83.76,-38.28 -71.45,-34.47 -133.11,-38.43 -141.32,-38.82l20.06 0c0,0 104.29,3.01 205.02,77.1l0 0z"/>
   </clipPath>
   <clipPath id="id11">
    <path d="M-0 13241.42l0 -12215.33c0,0 0,0 0.52,0l0 3038.17 0 6041.54 0 3135.62c-0.52,0 -0.52,0 -0.52,0l0 0z"/>
   </clipPath>
   <clipPath id="id12">
    <path d="M0.51 7650.32l0 -580.15c6.68,0 13.36,0 20.04,0l0 580.15c-6.68,0 -13.36,0 -20.04,0l0 0z"/>
   </clipPath>
   <clipPath id="id13">
    <path d="M0.51 13242.07l0 -3135.33 0 -2457.08c6.68,0 13.36,0 20.04,0l0 2442.68 0 3076.14c-6.68,24 -13.36,47.99 -20.04,73.59l0 0z"/>
   </clipPath>
   <clipPath id="id14">
    <path d="M20.55 7069.82c-6.68,0 -13.36,0 -20.04,0l0 -3004.82 0 -3037.6c6.17,72.45 13.36,144.9 20.04,219.07l0 5823.35 0 0z"/>
   </clipPath>
 </defs>
 <g id="Layer_x0020_1">
  <metadata id="CorelCorpID_0Corel-Layer"/>
  <path class="fil0" d="M9730.09 0.5l-9337.98 0c0,0 -391.59,10.63 -391.59,529.26l0 13111.56c0,518.47 391.59,529.11 391.59,529.11l9337.98 0c0,0 391.59,-10.64 391.59,-529.11l0 -13111.56c0,-518.63 -391.59,-529.26 -391.59,-529.26z"/>
  <g style="clip-path:url(#id0)">
   <image x="0" y="7625.67" width="10129.9" height="6578.88" xlink:href="6_Images\6_ImgID1.png"/>
  </g>
  <g style="clip-path:url(#id1)">
   <image x="0" y="-10.81" width="10129.9" height="7118.47" xlink:href="6_Images\6_ImgID2.png"/>
  </g>
  <g style="clip-path:url(#id2)">
   <image x="9686.92" y="-26.23" width="463.53" height="14112.58" xlink:href="6_Images\6_ImgID3.png"/>
  </g>
  <g style="clip-path:url(#id3)">
   <image x="10077.48" y="7050.11" width="72.97" height="633.12" xlink:href="6_Images\6_ImgID4.png"/>
  </g>
  <g style="clip-path:url(#id4)">
   <image x="236.39" y="7625.67" width="9914.06" height="6578.88" xlink:href="6_Images\6_ImgID5.png"/>
  </g>
  <g style="clip-path:url(#id5)">
   <image x="9686.92" y="-26.23" width="463.53" height="7133.89" xlink:href="6_Images\6_ImgID6.png"/>
  </g>
  <g style="clip-path:url(#id6)">
   <image x="0" y="7034.69" width="57.55" height="648.54" xlink:href="6_Images\6_ImgID7.png"/>
  </g>
  <g style="clip-path:url(#id7)">
   <image x="-35.97" y="7625.67" width="484.08" height="6578.88" xlink:href="6_Images\6_ImgID8.png"/>
  </g>
  <g style="clip-path:url(#id8)">
   <image x="-35.97" y="-26.23" width="9914.06" height="7118.47" xlink:href="6_Images\6_ImgID9.png"/>
  </g>
  <g style="clip-path:url(#id9)">
   <image x="154.17" y="14059.63" width="293.94" height="144.92" xlink:href="6_Images\6_ImgID10.png"/>
  </g>
  <g style="clip-path:url(#id10)">
   <image x="9686.92" y="-26.23" width="278.53" height="139.78" xlink:href="6_Images\6_ImgID11.png"/>
  </g>
  <g style="clip-path:url(#id11)">
   <image x="-35.97" y="991.29" width="57.55" height="12277.98" xlink:href="6_Images\6_ImgID12.png"/>
  </g>
  <g style="clip-path:url(#id12)">
   <image x="-35.97" y="7034.69" width="93.52" height="648.54" xlink:href="6_Images\6_ImgID13.png"/>
  </g>
  <g style="clip-path:url(#id13)">
   <image x="-35.97" y="7625.67" width="93.52" height="5643.59" xlink:href="6_Images\6_ImgID14.png"/>
  </g>
  <g style="clip-path:url(#id14)">
   <image x="-35.97" y="1006.7" width="93.52" height="6085.54" xlink:href="6_Images\6_ImgID15.png"/>
  </g>
  <path class="fil1" d="M755.94 2816.79c-21.58,263.32 -170.1,447.76 -170.1,447.76l340.72 0c0,0 -148.52,-184.44 -170.62,-447.76z"/>
  <path class="fil1" d="M1003.13 2518.68c-33.41,0 -66.3,6.89 -95.59,19.28l-2.05 -2.32c59.61,-45.12 97.64,-116.45 97.64,-196.77 0,-136.49 -110.49,-247.13 -247.19,-247.13 -136.69,0 -246.67,110.64 -246.67,247.13 0,85.93 43.68,161.67 109.98,205.92 -32.89,-16.7 -70.41,-26.11 -109.98,-26.11 -136.69,0 -247.69,110.59 -247.69,247.08 0,136.44 111,247.09 247.69,247.09 132.59,0 241.02,-104.89 246.67,-236.34l0.52 0.36c6.16,131.3 114.08,235.98 246.67,235.98 136.18,0 247.18,-110.65 247.18,-247.09 0,-136.49 -111,-247.08 -247.18,-247.08z"/>
  <path class="fil1" d="M783.69 1189.08c-29.29,0 -57.04,3.29 -84.28,9.82 -27.23,6.63 -52.93,16.19 -76.57,28.73 -23.64,12.48 -47.27,28.26 -69.89,47.38 -7.19,6.52 -12.33,13.36 -15.93,20.55 -6.16,11.31 -9.76,25.39 -11.82,42.09 -1.54,16.65 -2.57,44.71 -2.57,84.13 0,113.87 19.02,200.72 57.56,260.39 38.03,59.61 95.59,89.47 173.18,89.47 45.23,0 82.23,-7.76 112.55,-23.28 30.83,-15.52 54.98,-36.85 74.51,-63.98 18.5,-27.19 31.86,-59.1 40.08,-95.74 8.23,-36.69 11.82,-76.57 11.82,-119.43 0,-88.34 -18.5,-157.1 -54.47,-206.28 -36.49,-49.23 -87.87,-73.85 -154.17,-73.85zm266.71 -542.21l0 43.84c-91.98,0 -173.18,19.68 -244.1,58.99 -70.91,39.42 -130.01,97.28 -176.78,173.65 -46.76,76.36 -79.65,167.07 -98.66,272l8.73 3.55c50.36,-35.77 99.18,-62.03 148,-78.73 48.82,-16.7 101.24,-25.03 158.28,-25.03 67.32,0 124.88,14.75 172.16,44.25 47.28,29.55 83.25,71.07 106.89,124.41 23.64,53.4 35.97,115.89 35.97,187.47 0,77.55 -15.41,146 -45.22,205.36 -29.81,59.4 -75.54,106.01 -138.24,140.03 -62.18,33.97 -138.75,50.98 -230.22,50.98 -130.53,0 -229.2,-40.55 -295.49,-121.64 -66.81,-81.14 -100.21,-200.78 -100.21,-358.8 0,-106.22 16.96,-205.51 50.36,-298.01 33.4,-92.45 80.68,-173.18 142.35,-242.04 61.15,-68.92 132.58,-123.18 213.78,-162.8 80.68,-39.73 166.5,-61.93 255.92,-66.66l36.48 49.18z"/>
  <path class="fil1" d="M9310.75 11316.92c22.1,-263.37 170.61,-447.75 170.61,-447.75l-341.22 0c0,0 148.51,184.38 170.61,447.75z"/>
  <path class="fil1" d="M9063.57 11615.04c33.91,0 66.29,-6.89 95.58,-19.28l2.06 2.27c-59.1,45.17 -97.64,116.5 -97.64,196.82 0,136.49 111,247.08 247.18,247.08 136.18,0 247.18,-110.59 247.18,-247.08 0,-85.93 -44.19,-161.67 -111,-205.97 33.41,16.75 70.92,26.16 111,26.16 136.19,0 246.67,-110.65 246.67,-247.14 0,-136.38 -110.48,-247.03 -246.67,-247.03 -133.09,0 -241.53,104.89 -247.18,236.34l0 -0.36c-6.17,-131.3 -114.6,-235.98 -247.18,-235.98 -136.7,0 -247.19,110.65 -247.19,247.03 0,136.49 110.49,247.14 247.19,247.14z"/>
  <path class="fil1" d="M9283 12944.58c29.29,0 57.56,-3.23 84.28,-9.81 27.24,-6.58 52.93,-16.14 76.57,-28.68 24.15,-12.54 47.28,-28.26 69.89,-47.38 7.19,-6.52 12.85,-13.41 16.44,-20.6 5.66,-11.31 9.77,-25.34 11.31,-41.99 2.06,-16.75 2.57,-44.76 2.57,-84.18 0,-113.93 -19.01,-200.72 -57.04,-260.39 -38.03,-59.66 -96.1,-89.47 -173.7,-89.47 -44.71,0 -82.22,7.76 -113.06,23.23 -30.32,15.57 -54.98,36.9 -73.48,64.03 -18.5,27.14 -32.38,59.05 -40.09,95.69 -8.22,36.74 -12.33,76.57 -12.33,119.43 0,88.39 17.99,157.1 54.47,206.33 36.49,49.23 87.88,73.79 154.17,73.79zm-266.71 542.27l0 -43.84c91.99,0 173.18,-19.73 244.1,-58.99 71.43,-39.42 130.02,-97.28 176.78,-173.65 46.76,-76.36 79.65,-167.07 98.67,-272.06l-8.74 -3.54c-49.85,35.82 -99.69,62.08 -148,78.73 -48.31,16.7 -101.24,25.08 -157.77,25.08 -67.32,0 -124.87,-14.8 -172.67,-44.25 -47.27,-29.55 -82.73,-71.07 -106.89,-124.47 -23.63,-53.39 -35.45,-115.83 -35.45,-187.46 0,-77.5 14.9,-146 44.7,-205.31 29.81,-59.4 76.06,-106.06 138.24,-140.03 62.18,-33.97 139.27,-51.03 230.23,-51.03 130.53,0 229.19,40.54 296,121.69 66.29,81.14 99.7,200.73 99.7,358.8 0,106.22 -16.45,205.51 -50.37,297.96 -33.4,92.5 -80.68,173.18 -142.34,242.09 -61.16,68.92 -132.59,123.18 -213.78,162.8 -81.2,39.68 -166.51,61.93 -255.92,66.66l-36.49 -49.18z"/>
  <path class="fil1" d="M6938.1 3110.54c-43.68,522.63 -338.66,888.68 -338.66,888.68l676.8 0c0,0 -294.46,-366.05 -338.14,-888.68z"/>
  <path class="fil1" d="M7428.35 2518.74c-67.32,0 -131.04,13.72 -189.62,38.33l-4.11 -4.57c117.68,-89.57 193.73,-231.1 193.73,-390.61 0,-270.88 -219.43,-490.36 -490.25,-490.36 -270.82,0 -490.26,219.48 -490.26,490.36 0,170.61 86.85,320.92 219.44,408.75 -66.3,-33.15 -140.81,-51.9 -219.44,-51.9 -270.82,0 -490.25,219.63 -490.25,490.46 0,270.87 219.43,490.36 490.25,490.36 263.63,0 478.44,-208.13 489.74,-469.04l1.03 0.72c11.31,260.6 226.12,468.32 489.74,468.32 270.83,0 490.26,-219.49 490.26,-490.36 0,-270.83 -219.43,-490.46 -490.26,-490.46z"/>
  <path class="fil1" d="M6938.1 11060.39c43.68,-522.68 338.14,-888.73 338.14,-888.73l-676.8 0c0,0 294.98,366.05 338.66,888.73z"/>
  <path class="fil1" d="M6447.84 11652.09c66.81,0 131.05,-13.67 189.12,-38.29l4.62 4.58c-117.68,89.57 -193.74,231.09 -193.74,390.61 0,270.87 219.44,490.36 490.26,490.36 270.82,0 490.25,-219.49 490.25,-490.36 0,-170.62 -86.84,-320.93 -219.43,-408.75 66.29,33.14 140.29,51.85 219.43,51.85 270.83,0 490.26,-219.59 490.26,-490.41 0,-270.88 -219.43,-490.41 -490.26,-490.41 -263.62,0 -478.43,208.18 -489.74,469.13l-1.03 -0.77c-11.81,-260.65 -226.62,-468.36 -489.74,-468.36 -270.82,0 -490.25,219.53 -490.25,490.41 0,270.82 219.43,490.41 490.25,490.41z"/>
  <path class="fil1" d="M3198.49 3110.54c-43.69,522.63 -338.15,888.68 -338.15,888.68l676.8 0c0,0 -294.97,-366.05 -338.65,-888.68z"/>
  <path class="fil1" d="M3689.25 2518.74c-67.32,0 -131.55,13.72 -189.62,38.33l-4.11 -4.57c117.68,-89.57 193.73,-231.1 193.73,-390.61 0,-270.88 -219.43,-490.36 -490.76,-490.36 -270.31,0 -490.26,219.48 -490.26,490.36 0,170.61 87.36,320.92 219.43,408.75 -65.78,-33.15 -140.29,-51.9 -219.43,-51.9 -270.31,0 -490.26,219.63 -490.26,490.46 0,270.87 219.95,490.36 490.26,490.36 264.14,0 478.95,-208.13 490.26,-469.04l1.02 0.72c11.31,260.6 226.12,468.32 489.74,468.32 270.83,0 490.26,-219.49 490.26,-490.36 0,-270.83 -219.43,-490.46 -490.26,-490.46z"/>
  <path class="fil1" d="M6938.1 7360.6c-43.68,522.63 -338.66,888.68 -338.66,888.68l676.8 0c0,0 -294.46,-366.05 -338.14,-888.68z"/>
  <path class="fil1" d="M7428.35 6768.8c-67.32,0 -131.04,13.67 -189.62,38.34l-4.11 -4.63c117.68,-89.52 193.73,-231.1 193.73,-390.56 0,-270.87 -219.43,-490.36 -490.25,-490.36 -270.82,0 -490.26,219.49 -490.26,490.36 0,170.56 86.85,320.88 219.44,408.75 -66.3,-33.19 -140.81,-51.9 -219.44,-51.9 -270.82,0 -490.25,219.59 -490.25,490.46 0,270.82 219.43,490.36 490.25,490.36 263.63,0 478.44,-208.18 489.74,-469.08l1.03 0.77c11.31,260.59 226.12,468.31 489.74,468.31 270.83,0 490.26,-219.54 490.26,-490.36 0,-270.87 -219.43,-490.46 -490.26,-490.46z"/>
  <path class="fil1" d="M3198.49 7360.6c-43.69,522.63 -338.15,888.68 -338.15,888.68l676.8 0c0,0 -294.97,-366.05 -338.65,-888.68z"/>
  <path class="fil1" d="M3689.25 6768.8c-67.32,0 -131.55,13.67 -189.62,38.34l-4.11 -4.63c117.68,-89.52 193.73,-231.1 193.73,-390.56 0,-270.87 -219.43,-490.36 -490.76,-490.36 -270.31,0 -490.26,219.49 -490.26,490.36 0,170.56 87.36,320.88 219.43,408.75 -65.78,-33.19 -140.29,-51.9 -219.43,-51.9 -270.31,0 -490.26,219.59 -490.26,490.46 0,270.82 219.95,490.36 490.26,490.36 264.14,0 478.95,-208.18 490.26,-469.08l1.02 0.77c11.31,260.59 226.12,468.31 489.74,468.31 270.83,0 490.26,-219.54 490.26,-490.36 0,-270.87 -219.43,-490.46 -490.26,-490.46z"/>
  <path class="fil1" d="M3198.49 11060.39c43.68,-522.68 338.65,-888.73 338.65,-888.73l-676.8 0c0,0 294.46,366.05 338.15,888.73z"/>
  <path class="fil1" d="M2708.23 11652.09c67.32,0 131.56,-13.67 189.63,-38.29l4.62 4.58c-118.19,89.57 -194.25,231.09 -194.25,390.61 0,270.87 219.95,490.36 490.26,490.36 271.33,0 490.76,-219.49 490.76,-490.36 0,-170.62 -87.36,-320.93 -219.43,-408.75 66.29,33.14 140.3,51.85 219.43,51.85 270.83,0 490.26,-219.59 490.26,-490.41 0,-270.88 -219.43,-490.41 -490.26,-490.41 -263.62,0 -478.43,208.18 -489.74,469.13l-1.02 -0.77c-11.82,-260.65 -226.63,-468.36 -490.26,-468.36 -270.31,0 -490.26,219.53 -490.26,490.41 0,270.82 219.95,490.41 490.26,490.41z"/>
 </g>
</svg>
