<?xml version="1.0" encoding="UTF-8"?>
<!DOCTYPE svg PUBLIC "-//W3C//DTD SVG 1.1//EN" "http://www.w3.org/Graphics/SVG/1.1/DTD/svg11.dtd">
<!-- Creator: CorelDRAW -->
<svg xmlns="http://www.w3.org/2000/svg" xml:space="preserve" width="100%" height="100%" version="1.1" style="shape-rendering:geometricPrecision; text-rendering:geometricPrecision; image-rendering:optimizeQuality; fill-rule:evenodd; clip-rule:evenodd"
viewBox="0 0 10122.34 14171.43"
 xmlns:xlink="http://www.w3.org/1999/xlink"
 xmlns:xodm="http://www.corel.com/coreldraw/odm/2003">
 <defs>
  <style type="text/css">
   <![CDATA[
    .fil0 {fill:#FEFEFE;fill-rule:nonzero}
    .fil1 {fill:#1D1D1E;fill-rule:nonzero}
   ]]>
  </style>
   <clipPath id="id0">
    <path d="M9730.08 14171.08l-4478.61 0 -382.07 0 -4455.63 0c0,0 0,0 -2.87,0l4458.5 0 382.07 0 4478.61 0c0,0 140.76,-3.73 252.8,-117.48 -112.04,113.75 -252.8,117.48 -252.8,117.48zm-20.11 -20.52l-4484.35 0 -382.08 0 -4481.48 0c0,0 -37.34,0 -91.92,-18.64 -112.04,-54.08 -249.93,-182.75 -249.93,-488.57l0 0 0 -3530 0 -2461.48c1982.19,-1.87 3964.38,-1.87 5946.57,-1.87 1378.92,-1.86 2757.84,-1.86 4133.88,-1.86l0 2444.7 0 3530 0 0c0,516.54 -390.69,527.72 -390.69,527.72l0 0z"/>
   </clipPath>
   <clipPath id="id1">
    <path d="M9919.68 7075.62c-2453.32,-2.01 -4909.52,-2.01 -7362.84,-2.01 -847.46,-2.02 -1692.05,-2.02 -2536.63,-2.02l0 -2992.26 0 -3528.97c0,-518.55 393.56,-528.64 393.56,-528.64l4481.48 0 382.08 0 4484.35 0c0,0 37.34,2.02 89.05,18.16 112.04,54.47 249.93,183.61 249.93,490.3l0 0 0 3528.97 0 3016.47c-60.33,0 -120.65,0 -180.98,0l0 0z"/>
   </clipPath>
   <clipPath id="id2">
    <path d="M9983.59 14052.58c75.42,-76 138.09,-204.01 138.09,-412.02l0 -5992.24 0 0 0 -572.03 0 0 0 -6544.27 0 0c0,-520.02 -391.66,-532.02 -391.66,-532.02l-19.97 0c-0.66,0 -0.92,0 -0.92,0l20.89 0c0,0 391.79,12 391.79,532.02l0 3532.15 0 6044.25 0 3532.14c0,208.01 -62.8,336.02 -138.22,412.02l0 0z"/>
   </clipPath>
   <clipPath id="id3">
    <path d="M10101.29 7648.61l0 -573.9 20.43 0 0 573.9 -20.43 0 0 0z"/>
   </clipPath>
   <clipPath id="id4">
    <path d="M9729.12 14171.08l-4476.99 0 -381.97 0 -4457.33 0c-8.43,0 -70.22,-3.73 -143.24,-39.16 53.36,18.64 92.68,18.64 92.68,18.64l4482.61 0 381.98 0 4482.6 0c0,0 393.21,-11.18 393.21,-527.72l0 0 0 0 0 -3530 0 -2444.7c5.62,0 11.24,0 19.67,0l0 2459.62 0 3533.72c0,208.86 -64.6,333.8 -137.63,412.12 -115.15,113.75 -255.59,117.48 -255.59,117.48l0 0z"/>
   </clipPath>
   <clipPath id="id5">
    <path d="M10101.32 7075.56l0 -3016.94 0 -3528.53 0 0c0,-307.35 -137.7,-434.74 -249.9,-489.34 25.49,8.09 54.39,20.22 83.95,38.42l0 0 0 0 0 0c-100.9,-74.82 -205.35,-76.84 -205.35,-76.84l-19.97 0 0 0 19.97 0c0,0 391.66,10.11 391.66,527.76l0 3534.59 0 3010.88c-6.83,0 -13.66,0 -20.36,0l0 0z"/>
   </clipPath>
   <clipPath id="id6">
    <path d="M20.54 7651.3l0 -580.18 0.32 0 0 580.18 -0.32 0 0 0z"/>
   </clipPath>
   <clipPath id="id7">
    <path d="M413.04 14171.08l-20.89 0c0,0 -391.8,-11.19 -391.8,-529.6l0 -399.05c6.7,-24.25 13.4,-48.49 20.1,-72.73l0.13 -3076.86 0 -2440.97c0.14,0 0.14,0 0.27,0l0 2461.48 0 3530 0 0c0,305.82 137.56,434.49 249.76,488.57 -25.48,-7.46 -54.39,-20.52 -83.82,-37.3l0 0c100.9,74.59 205.36,76.46 205.36,76.46l19.84 0c0.65,0 1.05,0 1.05,0l0 0z"/>
   </clipPath>
   <clipPath id="id8">
    <path d="M21.02 7071.51c0,0 0,0 0,0l0 -5825.6c-8.42,-70.77 -14.03,-143.57 -19.64,-216.36l0 -499.46c0,-517.65 390,-527.76 390,-527.76l4477.96 0 381.58 0 4458.31 0c8.42,0 70.15,4.04 143.1,38.42 -53.31,-18.2 -92.59,-18.2 -92.59,-18.2l-4483.57 0 -381.58 0 -4480.77 0c0,0 -392.8,10.11 -392.8,527.76l0 3528.53 0 2992.67 0 0z"/>
   </clipPath>
   <clipPath id="id9">
    <path d="M412.07 14171.4l-19.97 0c0,0 -104.37,-3.04 -205.35,-77.11 29.53,17.67 58.35,29.83 83.93,38.25 71.76,34.5 133.1,38.49 141.39,38.86l0 0z"/>
   </clipPath>
   <clipPath id="id10">
    <path d="M9935.41 78.58c-29.61,-17.67 -58.43,-29.8 -84,-38.24 -71.77,-34.55 -133.11,-38.47 -141.32,-38.82l19.97 0c0,0 104.37,3.01 205.35,77.06l0 0z"/>
   </clipPath>
   <clipPath id="id11">
    <path d="M-0 13244.81l0 -12219.02c0.11,0 0.21,3.48 0.31,3.48l0.06 3035.63 0 6043.44 0 3132.99c-0.11,0 -0.24,3.48 -0.37,3.48l0 0z"/>
   </clipPath>
   <clipPath id="id12">
    <path d="M0.36 7651.3l0 -580.18 20.17 0 0 580.18 -20.17 0 0 0z"/>
   </clipPath>
   <clipPath id="id13">
    <path d="M0.36 13242.21l0 -3134.99 0 -2456.11c6.68,0 13.49,0 20.17,0l0 2441.7 -0.02 3077.35c-6.8,24.01 -13.42,48.03 -20.15,72.05l0 0z"/>
   </clipPath>
   <clipPath id="id14">
    <path d="M20.53 7071.3c-6.7,0 -13.46,0 -20.17,0l0 -3005.52 -0.06 -3036.64c6.62,72.63 13.38,145.26 20.23,217.89l0 5824.27 0 0z"/>
   </clipPath>
 </defs>
 <g id="Layer_x0020_1">
  <metadata id="CorelCorpID_0Corel-Layer"/>
  <path class="fil0" d="M9730.04 1.5l-9337.95 0c0,0 -391.78,10.63 -391.78,529.21l0.06 3534.51 0 9577.08c0,518.47 391.72,529.13 391.72,529.13l9337.95 0c0,0 391.69,-10.66 391.69,-529.13l0 -13111.59c0,-518.58 -391.69,-529.21 -391.69,-529.21z"/>
  <g style="clip-path:url(#id0)">
   <image x="-5.65" y="7623.9" width="10135.04" height="6578.88" xlink:href="8_Images\8_ImgID1.png"/>
  </g>
  <g style="clip-path:url(#id1)">
   <image x="-5.65" y="-12.58" width="10135.04" height="7118.47" xlink:href="8_Images\8_ImgID2.png"/>
  </g>
  <g style="clip-path:url(#id2)">
   <image x="9681.27" y="-28" width="463.53" height="14112.58" xlink:href="8_Images\8_ImgID3.png"/>
  </g>
  <g style="clip-path:url(#id3)">
   <image x="10071.83" y="7048.33" width="72.97" height="633.12" xlink:href="8_Images\8_ImgID4.png"/>
  </g>
  <g style="clip-path:url(#id4)">
   <image x="235.88" y="7623.9" width="9908.92" height="6578.88" xlink:href="8_Images\8_ImgID5.png"/>
  </g>
  <g style="clip-path:url(#id5)">
   <image x="9681.27" y="-28" width="463.53" height="7133.89" xlink:href="8_Images\8_ImgID6.png"/>
  </g>
  <g style="clip-path:url(#id6)">
   <image x="-0.51" y="7048.33" width="52.42" height="633.12" xlink:href="8_Images\8_ImgID7.png"/>
  </g>
  <g style="clip-path:url(#id7)">
   <image x="-21.06" y="7623.9" width="463.53" height="6578.88" xlink:href="8_Images\8_ImgID8.png"/>
  </g>
  <g style="clip-path:url(#id8)">
   <image x="-21.06" y="-28" width="9898.64" height="7133.89" xlink:href="8_Images\8_ImgID9.png"/>
  </g>
  <g style="clip-path:url(#id9)">
   <image x="163.94" y="14057.86" width="278.53" height="144.92" xlink:href="8_Images\8_ImgID10.png"/>
  </g>
  <g style="clip-path:url(#id10)">
   <image x="9681.27" y="-28" width="278.53" height="139.78" xlink:href="8_Images\8_ImgID11.png"/>
  </g>
  <g style="clip-path:url(#id11)">
   <image x="-21.06" y="1004.93" width="57.56" height="12267.7" xlink:href="8_Images\8_ImgID12.png"/>
  </g>
  <g style="clip-path:url(#id12)">
   <image x="-21.06" y="7048.33" width="72.97" height="633.12" xlink:href="8_Images\8_ImgID13.png"/>
  </g>
  <g style="clip-path:url(#id13)">
   <image x="-21.06" y="7623.89" width="72.97" height="5648.73" xlink:href="8_Images\8_ImgID14.png"/>
  </g>
  <g style="clip-path:url(#id14)">
   <image x="-21.06" y="1004.93" width="72.97" height="6100.96" xlink:href="8_Images\8_ImgID15.png"/>
  </g>
  <path class="fil1" d="M772.27 2817.74c-22.04,263.38 -170.55,447.81 -170.55,447.81l341.1 0c0,0 -148.52,-184.43 -170.55,-447.81z"/>
  <path class="fil1" d="M1019.36 2519.63c-33.86,0 -66.16,6.94 -95.53,19.33l-2.21 -2.32c59.38,-45.12 97.74,-116.45 97.74,-196.82 0,-136.49 -110.58,-247.08 -247.09,-247.08 -136.44,0 -247.07,110.59 -247.07,247.08 0,85.98 43.92,161.67 110.57,205.97 -33.26,-16.7 -70.8,-26.16 -110.57,-26.16 -136.48,0 -247.09,110.65 -247.09,247.14 0,136.43 110.61,247.02 247.09,247.02 132.85,0 241.17,-104.83 246.83,-236.28l0.54 0.3c5.83,131.36 114.02,235.98 246.79,235.98 136.45,0 247.13,-110.59 247.13,-247.02 0,-136.49 -110.68,-247.14 -247.13,-247.14z"/>
  <path class="fil1" d="M544.98 910.01c0,35.2 4.13,68.3 12.48,99.34 8.35,31.04 21.8,57.86 40.31,80.58 18.49,22.61 42.5,40.7 72,54.06 29.53,13.46 65.81,20.09 108.74,20.09 49.49,0 91.1,-9.61 124.85,-29.03 33.62,-19.38 58.71,-47.69 75.11,-85 16.4,-37.26 24.63,-80.37 24.63,-129.25 0,-53.7 -9.71,-99.23 -29.06,-136.44 -19.39,-37.3 -46.07,-64.9 -80.1,-82.84 -34,-17.88 -73.09,-26.82 -117.23,-26.82 -75.14,0 -132.59,20.4 -172.24,61.31 -39.68,40.85 -59.49,98.82 -59.49,174zm-9.84 586.97c0,38.75 4.43,75.08 13.43,108.74 8.89,33.71 23.06,62.8 42.46,87.26 19.38,24.46 44.32,43.84 74.77,58.12 30.39,14.34 67.37,21.48 110.91,21.48 48.88,0 90.85,-10.02 125.74,-29.96 34.89,-19.99 61.45,-49.64 79.65,-89.05 18.19,-39.37 27.25,-85.88 27.25,-139.58 0,-57.25 -9.86,-106.58 -29.49,-148.1 -19.69,-41.47 -47.44,-73.03 -83.23,-94.82 -35.79,-21.78 -77.28,-32.68 -124.36,-32.68 -44.14,0 -81.32,6.94 -111.39,20.61 -30.15,13.77 -54.6,32.22 -73.39,55.5 -18.81,23.23 -32.24,50.51 -40.31,81.81 -8.03,31.35 -12.04,64.85 -12.04,100.67zm438.41 -307.77l1.81 11.56c67.43,26.26 118.42,64.65 153,115.01 34.59,50.47 51.9,111.11 51.9,182.08 0,69.83 -16.7,131.3 -50.09,184.38 -33.44,53.14 -81.92,94.1 -145.43,123.03 -63.48,28.93 -137.65,43.37 -222.38,43.37 -79.34,0 -148.91,-13.26 -208.87,-39.83 -59.96,-26.51 -106.52,-65.31 -139.62,-116.29 -33.08,-51.03 -49.64,-111.16 -49.64,-180.33 0,-51.9 8.93,-96.97 26.84,-135.1 17.88,-38.18 41.31,-69.63 70.26,-94.35 28.88,-24.77 65.44,-47.28 109.58,-67.58l-1.79 -11.66c-128.29,-55.5 -192.37,-150.63 -192.37,-285.42 0,-61.41 16.85,-116.35 50.59,-164.65 33.68,-48.31 81.66,-86.18 144.05,-113.62 62.27,-27.39 131.35,-41.17 207.12,-41.17 85.86,0 158.05,12.13 216.54,36.23 58.44,24.16 102.46,59.05 131.99,104.63 29.49,45.69 44.27,100.42 44.27,164.19 0,65.68 -16.11,122.21 -48.29,169.64 -32.23,47.43 -82.04,86.02 -149.47,115.88z"/>
  <path class="fil1" d="M9328.02 11317.89c22.05,-263.31 170.56,-447.75 170.56,-447.75l-341.07 0c0,0 148.52,184.44 170.51,447.75z"/>
  <path class="fil1" d="M9080.94 11616.05c33.86,0 66.19,-6.95 95.53,-19.3l2.21 2.28c-59.4,45.1 -97.74,116.47 -97.74,196.8 0,136.48 110.59,247.11 247.08,247.11 136.44,0 247.03,-110.63 247.03,-247.11 0,-85.94 -43.84,-161.67 -110.49,-205.92 33.25,16.68 70.77,26.14 110.49,26.14 136.54,0 247.13,-110.63 247.13,-247.12 0,-136.42 -110.59,-247.04 -247.13,-247.04 -132.79,0 -241.12,104.8 -246.77,236.28l-0.52 -0.36c-5.86,-131.26 -114.08,-235.92 -246.82,-235.92 -136.44,0 -247.13,110.62 -247.13,247.04 0,136.49 110.69,247.12 247.13,247.12z"/>
  <path class="fil1" d="M9555.32 13225.66c0,-35.17 -4.12,-68.29 -12.49,-99.32 -8.33,-31.06 -21.79,-57.88 -40.29,-80.56 -18.5,-22.64 -42.5,-40.67 -72,-54.08 -29.55,-13.47 -65.83,-20.13 -108.74,-20.13 -49.49,0 -91.11,9.69 -124.87,29.1 -33.61,19.37 -58.69,47.66 -75.08,84.96 -16.45,37.27 -24.67,80.39 -24.67,129.27 0,53.66 9.76,99.21 29.08,136.43 19.43,37.31 46.05,64.94 80.12,82.82 33.97,17.89 73.08,26.82 117.22,26.82 75.13,0 132.59,-20.4 172.21,-61.31 39.72,-40.83 59.51,-98.84 59.51,-174zm9.86 -586.94c0,-38.81 -4.42,-75.08 -13.46,-108.76 -8.89,-33.69 -23.08,-62.8 -42.45,-87.28 -19.37,-24.41 -44.3,-43.81 -74.72,-58.1 -30.42,-14.35 -67.42,-21.52 -110.95,-21.52 -48.87,0 -90.86,10.06 -125.75,29.99 -34.89,19.95 -61.46,49.63 -79.6,89.03 -18.25,39.41 -27.29,85.94 -27.29,139.63 0,57.26 9.87,106.62 29.5,148.09 19.68,41.45 47.43,73.03 83.2,94.81 35.82,21.8 77.29,32.7 124.36,32.7 44.14,0 81.3,-6.92 111.41,-20.61 30.17,-13.75 54.58,-32.2 73.39,-55.49 18.81,-23.21 32.22,-50.52 40.29,-81.88 8.01,-31.32 12.07,-64.8 12.07,-100.61zm-438.45 307.75l-1.8 -11.6c-67.42,-26.23 -118.4,-64.62 -152.99,-114.96 -34.58,-50.45 -51.85,-111.13 -51.85,-182.12 0,-69.77 16.65,-131.26 50.05,-184.36 33.41,-53.09 81.92,-94.08 145.44,-123.01 63.46,-28.97 137.62,-43.38 222.36,-43.38 79.34,0 148.92,13.25 208.85,39.83 60.02,26.52 106.58,65.3 139.67,116.31 33.05,50.96 49.64,111.08 49.64,180.26 0,51.98 -8.99,96.98 -26.87,135.12 -17.89,38.2 -41.32,69.68 -70.25,94.41 -28.88,24.73 -65.47,47.27 -109.62,67.55l1.85 11.64c128.27,55.49 192.3,150.64 192.3,285.43 0,61.45 -16.75,116.35 -50.51,164.67 -33.71,48.26 -81.71,86.16 -144.1,113.64 -62.28,27.44 -131.3,41.13 -207.1,41.13 -85.87,0 -158.07,-12.06 -216.55,-36.23 -58.43,-24.13 -102.42,-59.02 -132.02,-104.63 -29.45,-45.65 -44.25,-100.37 -44.25,-164.22 0,-65.63 16.09,-122.2 48.31,-169.59 32.22,-47.44 82.01,-86.04 149.44,-115.89z"/>
  <path class="fil1" d="M5060.83 5263.83c-43.7,522.68 -338.45,888.68 -338.45,888.68l676.91 0c0,0 -294.68,-366 -338.46,-888.68z"/>
  <path class="fil1" d="M5551.25 4672.08c-67.22,0 -131.3,13.62 -189.57,38.29l-4.42 -4.63c117.88,-89.52 193.99,-231.04 193.99,-390.56 0,-270.82 -219.53,-490.36 -490.42,-490.36 -270.82,0 -490.31,219.54 -490.31,490.36 0,170.62 87.12,320.93 219.41,408.75 -66.03,-33.14 -140.58,-51.85 -219.41,-51.85 -270.9,0 -490.45,219.54 -490.45,490.41 0,270.88 219.55,490.36 490.45,490.36 263.61,0 478.61,-208.18 489.78,-469.03l1.11 0.72c11.56,260.59 226.42,468.31 489.84,468.31 270.88,0 490.41,-219.48 490.41,-490.36 0,-270.87 -219.53,-490.41 -490.41,-490.41z"/>
  <path class="fil1" d="M5060.83 9139.03c43.72,-522.65 338.46,-888.7 338.46,-888.7l-676.91 0c0,0 294.66,366.05 338.45,888.7z"/>
  <path class="fil1" d="M4570.4 9730.82c67.31,0 131.38,-13.73 189.7,-38.32l4.33 4.59c-117.83,89.53 -194.03,231.07 -194.03,390.56 0,270.86 219.61,490.35 490.43,490.35 270.83,0 490.42,-219.49 490.42,-490.35 0,-170.61 -87.21,-320.88 -219.43,-408.73 66.03,33.17 140.5,51.9 219.43,51.9 270.88,0 490.41,-219.62 490.41,-490.47 0,-270.87 -219.53,-490.41 -490.41,-490.41 -263.73,0 -478.7,208.23 -489.84,469.11l-1.11 -0.74c-11.54,-260.6 -226.41,-468.37 -489.9,-468.37 -270.78,0 -490.33,219.54 -490.33,490.41 0,270.85 219.55,490.47 490.33,490.47z"/>
  <path class="fil1" d="M6930.49 3111.59c-43.73,522.63 -338.45,888.68 -338.45,888.68l676.91 0c0,0 -294.67,-366.05 -338.46,-888.68z"/>
  <path class="fil1" d="M7420.9 2519.79c-67.32,0 -131.35,13.72 -189.67,38.33l-4.32 -4.62c117.78,-89.52 193.99,-231.05 193.99,-390.56 0,-270.82 -219.58,-490.36 -490.41,-490.36 -270.82,0 -490.35,219.54 -490.35,490.36 0,170.61 87.15,320.88 219.38,408.75 -66.04,-33.15 -140.5,-51.9 -219.38,-51.9 -270.93,0 -490.47,219.64 -490.47,490.46 0,270.87 219.54,490.41 490.47,490.41 263.62,0 478.64,-208.23 489.84,-469.08l1.03 0.72c11.51,260.59 226.42,468.36 489.89,468.36 270.83,0 490.31,-219.54 490.31,-490.41 0,-270.82 -219.48,-490.46 -490.31,-490.46z"/>
  <path class="fil1" d="M6930.49 11061.38c43.69,-522.63 338.46,-888.67 338.46,-888.67l-676.91 0c0,0 294.67,366.04 338.45,888.67z"/>
  <path class="fil1" d="M6440.03 11653.17c67.27,0 131.3,-13.7 189.68,-38.31l4.37 4.58c-117.89,89.53 -194.05,231.11 -194.05,390.6 0,270.86 219.54,490.35 490.46,490.35 270.83,0 490.31,-219.49 490.31,-490.35 0,-170.61 -87.15,-320.92 -219.43,-408.73 66.03,33.12 140.6,51.86 219.43,51.86 270.93,0 490.41,-219.62 490.41,-490.48 0,-270.81 -219.48,-490.32 -490.41,-490.32 -263.63,0 -478.64,208.14 -489.79,469.07l-1.03 -0.79c-11.66,-260.6 -226.47,-468.28 -489.95,-468.28 -270.82,0 -490.36,219.51 -490.36,490.32 0,270.86 219.54,490.48 490.36,490.48z"/>
  <path class="fil1" d="M6930.49 7361.65c-43.73,522.64 -338.45,888.68 -338.45,888.68l676.91 0c0,0 -294.67,-366.04 -338.46,-888.68z"/>
  <path class="fil1" d="M7420.9 6769.85c-67.32,0 -131.35,13.67 -189.67,38.29l-4.32 -4.58c117.78,-89.52 193.99,-231.04 193.99,-390.56 0,-270.82 -219.58,-490.35 -490.41,-490.35 -270.82,0 -490.35,219.53 -490.35,490.35 0,170.57 87.15,320.88 219.38,408.7 -66.04,-33.09 -140.5,-51.85 -219.38,-51.85 -270.93,0 -490.47,219.64 -490.47,490.46 0,270.88 219.54,490.36 490.47,490.36 263.62,0 478.64,-208.18 489.84,-469.08l1.03 0.77c11.51,260.6 226.42,468.31 489.89,468.31 270.83,0 490.31,-219.48 490.31,-490.36 0,-270.82 -219.48,-490.46 -490.31,-490.46z"/>
  <path class="fil1" d="M3191.25 3111.59c-43.72,522.63 -338.44,888.68 -338.44,888.68l676.91 0c0,0 -294.68,-366.05 -338.47,-888.68z"/>
  <path class="fil1" d="M3681.68 2519.79c-67.31,0 -131.37,13.72 -189.68,38.33l-4.33 -4.62c117.81,-89.52 194.01,-231.05 194.01,-390.56 0,-270.82 -219.59,-490.36 -490.43,-490.36 -270.84,0 -490.37,219.54 -490.37,490.36 0,170.61 87.21,320.88 219.42,408.75 -66.05,-33.15 -140.5,-51.9 -219.42,-51.9 -270.9,0 -490.44,219.64 -490.44,490.46 0,270.87 219.54,490.41 490.44,490.41 263.7,0 478.67,-208.23 489.85,-469.08l1.09 0.72c11.52,260.59 226.37,468.36 489.86,468.36 270.8,0 490.33,-219.54 490.33,-490.41 0,-270.82 -219.53,-490.46 -490.33,-490.46z"/>
  <path class="fil1" d="M3191.25 7361.65c-43.72,522.64 -338.44,888.68 -338.44,888.68l676.91 0c0,0 -294.68,-366.04 -338.47,-888.68z"/>
  <path class="fil1" d="M3681.68 6769.85c-67.31,0 -131.37,13.67 -189.68,38.29l-4.33 -4.58c117.81,-89.52 194.01,-231.04 194.01,-390.56 0,-270.82 -219.59,-490.35 -490.43,-490.35 -270.84,0 -490.37,219.53 -490.37,490.35 0,170.57 87.21,320.88 219.42,408.7 -66.05,-33.09 -140.5,-51.85 -219.42,-51.85 -270.9,0 -490.44,219.64 -490.44,490.46 0,270.88 219.54,490.36 490.44,490.36 263.7,0 478.67,-208.18 489.85,-469.08l1.09 0.77c11.52,260.6 226.37,468.31 489.86,468.31 270.8,0 490.33,-219.48 490.33,-490.36 0,-270.82 -219.53,-490.46 -490.33,-490.46z"/>
  <path class="fil1" d="M3191.25 11061.38c43.72,-522.63 338.47,-888.67 338.47,-888.67l-676.91 0c0,0 294.68,366.04 338.44,888.67z"/>
  <path class="fil1" d="M2700.83 11653.17c67.24,0 131.32,-13.7 189.63,-38.31l4.38 4.58c-117.88,89.53 -194.01,231.11 -194.01,390.6 0,270.86 219.54,490.35 490.42,490.35 270.84,0 490.33,-219.49 490.33,-490.35 0,-170.61 -87.14,-320.92 -219.43,-408.73 66.05,33.12 140.58,51.86 219.43,51.86 270.9,0 490.43,-219.62 490.43,-490.48 0,-270.81 -219.53,-490.32 -490.43,-490.32 -263.61,0 -478.61,208.14 -489.76,469.07l-1.09 -0.79c-11.6,-260.6 -226.48,-468.28 -489.9,-468.28 -270.85,0 -490.39,219.51 -490.39,490.32 0,270.86 219.54,490.48 490.39,490.48z"/>
 </g>
</svg>
