<?xml version="1.0" encoding="UTF-8"?>
<!DOCTYPE svg PUBLIC "-//W3C//DTD SVG 1.1//EN" "http://www.w3.org/Graphics/SVG/1.1/DTD/svg11.dtd">
<!-- Creator: CorelDRAW -->
<svg xmlns="http://www.w3.org/2000/svg" xml:space="preserve" width="100%" height="100%" version="1.1" style="shape-rendering:geometricPrecision; text-rendering:geometricPrecision; image-rendering:optimizeQuality; fill-rule:evenodd; clip-rule:evenodd"
viewBox="0 0 10012.5 14017.24"
 xmlns:xlink="http://www.w3.org/1999/xlink"
 xmlns:xodm="http://www.corel.com/coreldraw/odm/2003">
 <defs>
  <style type="text/css">
   <![CDATA[
    .fil0 {fill:#FEFEFE;fill-rule:nonzero}
    .fil1 {fill:#E42D24;fill-rule:nonzero}
   ]]>
  </style>
   <clipPath id="id0">
    <path d="M9623.63 14017.24c0,0 122.26,-3.68 230.3,-95.92 -108.04,92.24 -230.3,95.92 -230.3,95.92zm-19.91 -20.29l-4432.67 0 -378.16 0 -4435.52 0c0,0 -36.96,-1.84 -88.14,-18.44 -110.89,-53.5 -247.36,-180.79 -247.36,-483.32l0 0 0 -3492.02 0 -2435.01c1959.02,-1.84 3920.88,-1.84 5882.75,-3.69 1361.93,0 2723.86,0 4088.63,0l0 2418.41 0 3492.02 0 0c0,510.98 -389.53,522.05 -389.53,522.05zm250.21 -77.47c0,0 0,0 0,0 0,0 0,0 0,0l0 0z"/>
   </clipPath>
   <clipPath id="id1">
    <path d="M9993.25 6997.11c-59.71,0 -122.26,0 -181.97,0 -2428.16,0 -4856.32,0 -7284.48,-1.99 -835.93,0 -1669.01,0 -2504.93,-1.99l0 -2957.8 0 -3491.94c0,-512.24 386.68,-522.2 386.68,-522.2l4435.52 0 375.31 0 4435.52 0c0,0 36.97,0 90.99,17.94 110.89,53.81 247.36,181.37 247.36,484.32l0 0 0 3489.96 0 2983.7 0 0z"/>
   </clipPath>
   <clipPath id="id2">
    <path d="M9853.61 13922.39c0.14,0 0.27,-3.96 0.4,-3.96 -0.13,0 -0.26,3.96 -0.4,3.96zm1.19 -3.96c83.31,-71.31 157.56,-202.04 157.56,-423.88l0 -5930.3 0 0 0 -566.49 0 0 0 -6473.02 0 0c0,-514.99 -387.54,-522.91 -387.54,-522.91l-18.92 0c-1.18,0 -1.71,0 -1.71,0l20.63 0c0,0 387.68,7.92 387.68,522.91l0 3494 0 5977.84 0 3497.97c0,221.84 -74.25,352.57 -157.7,423.88l0 0z"/>
   </clipPath>
   <clipPath id="id3">
    <path d="M9992.15 7564.8l0 -567.59 20.17 0 0 567.59 -20.17 0 0 0z"/>
   </clipPath>
   <clipPath id="id4">
    <path d="M9626.16 14017.24l-4432.57 0 -374.7 0 -4410.36 0c0,0 -63.84,-1.84 -141.55,-38.73 52.73,16.6 91.59,18.44 91.59,18.44l4432.57 0 377.47 0 4435.34 0c0,0 388.58,-11.07 388.58,-522.05l0 0 0 0 0 -3492.02 0 -2418.41c5.55,0 13.88,0 19.43,0l0 2433.17 0 3495.71c0,225.05 -74.94,352.34 -158.21,426.13 0,0 0,0 0,0 0,1.84 0,1.84 0,1.84 -108.25,92.24 -227.59,95.92 -227.59,95.92l0 0 0 0z"/>
   </clipPath>
   <clipPath id="id5">
    <path d="M10012.36 6997.04c-6.83,0 -13.53,0 -20.23,0l0 -2982.18 0 -3491.53 0 0c0,-303.61 -136.15,-431.45 -247.06,-485.38 25.23,9.99 53.74,21.97 82.92,37.95l0 0 0 0 0 0c-99.88,-71.91 -203.17,-75.9 -203.17,-75.9l-18.92 0 0 0 18.92 0c0,0 387.54,9.98 387.54,523.33l0 3497.52 0 2976.19 0 0z"/>
   </clipPath>
   <clipPath id="id6">
    <path d="M20.29 7567.42l0 -573.87 0.35 0 0 573.87 -0.35 0 0 0z"/>
   </clipPath>
   <clipPath id="id7">
    <path d="M387.88 14017.24c0,0 -387.5,-11.06 -387.5,-523.89l0 -394.77c6.61,-23.98 13.09,-47.96 19.95,-71.94l0 -3043.76 0 -2414.72c0.13,0 0.13,0 0.25,0l0 2435.01 0 3492.02 0 0c0,302.53 136.37,429.82 247.33,483.32 -25.3,-7.38 -53.89,-20.3 -83.12,-36.9l0 0c99.76,71.95 203.09,75.63 203.09,75.63l0 0z"/>
   </clipPath>
   <clipPath id="id8">
    <path d="M20.24 6993.05c0,0 0,0 0,0l0 -5760.63c-5.55,-71.91 -13.88,-143.82 -19.44,-215.72l0 -493.37c0,-513.35 386.01,-523.33 386.01,-523.33l4432.08 0 374.9 0 4412.65 0c11.11,0 69.42,5.99 138.85,37.95 -52.77,-15.98 -91.64,-17.98 -91.64,-17.98l-4432.09 0 -377.67 0 -4434.87 0c0,0 -388.78,11.99 -388.78,523.33l0 3491.53 0 2958.22 0 0z"/>
   </clipPath>
   <clipPath id="id9">
    <path d="M408.51 14017.17l-20.7 0 0 0c0,0 -103.25,-3 -203.06,-76.23 29.29,17.54 57.87,29.57 83.18,37.83 76.3,36.62 140.58,38.4 140.58,38.4l0 0z"/>
   </clipPath>
   <clipPath id="id10">
    <path d="M9828.07 76.62c-29.21,-17.47 -57.8,-29.53 -83.02,-37.83 -69.12,-33.23 -128.55,-37.87 -139.18,-38.43l18.98 0c0,0 103.33,3 203.22,76.26l0 0z"/>
   </clipPath>
   <clipPath id="id11">
    <path d="M-0 13100.22l0 -12087.37c0.1,0 0.19,3.44 0.31,3.44l0.05 3005.49 0 5976.55 0 3098.45c-0.12,3.44 -0.26,3.44 -0.36,3.44l0 0z"/>
   </clipPath>
   <clipPath id="id12">
    <path d="M0.35 7567.42l0 -573.87c6.62,0 13.32,0 19.93,0l0 573.87c-6.57,0 -13.38,0 -19.93,0l0 0z"/>
   </clipPath>
   <clipPath id="id13">
    <path d="M0.35 13098.95l0 -3100.91 0 -2430.31c6.55,0 13.36,0 19.93,0l0 2414.46 0 3043.84c-6.77,23.78 -13.31,47.56 -19.93,72.92l0 0z"/>
   </clipPath>
   <clipPath id="id14">
    <path d="M20.28 6993.08c-6.61,0 -13.31,0 -19.93,0l0 -2973.19 -0.04 -3003.98c6.55,71.85 13.2,143.7 19.97,215.55l0 5761.62 0 0z"/>
   </clipPath>
 </defs>
 <g id="Layer_x0020_1">
  <metadata id="CorelCorpID_0Corel-Layer"/>
  <path class="fil0" d="M9624.86 0.37l-9237.03 0c0,0 -387.53,10.47 -387.53,523.52l0.05 3496.24 0 9473.66c0,512.87 387.48,523.38 387.48,523.38l9237.03 0c0,0 387.47,-10.51 387.47,-523.38l0 -12969.9c0,-513.05 -387.47,-523.52 -387.47,-523.52z"/>
  <g style="clip-path:url(#id0)">
   <image x="-9.41" y="7531.27" width="10031.1" height="6508.11" xlink:href="10_Images\10_ImgID1.png"/>
  </g>
  <g style="clip-path:url(#id1)">
   <image x="-9.41" y="-2.73" width="10031.1" height="7031.73" xlink:href="10_Images\10_ImgID2.png"/>
  </g>
  <g style="clip-path:url(#id2)">
   <image x="9573.31" y="-17.98" width="463.63" height="13976.02" xlink:href="10_Images\10_ImgID3.png"/>
  </g>
  <g style="clip-path:url(#id3)">
   <image x="9964.75" y="6972.06" width="72.19" height="616.14" xlink:href="10_Images\10_ImgID4.png"/>
  </g>
  <g style="clip-path:url(#id4)">
   <image x="244.77" y="7531.27" width="9792.16" height="6508.11" xlink:href="10_Images\10_ImgID5.png"/>
  </g>
  <g style="clip-path:url(#id5)">
   <image x="9573.31" y="-17.98" width="463.63" height="7046.98" xlink:href="10_Images\10_ImgID6.png"/>
  </g>
  <g style="clip-path:url(#id6)">
   <image x="-9.41" y="6972.06" width="56.94" height="616.14" xlink:href="10_Images\10_ImgID7.png"/>
  </g>
  <g style="clip-path:url(#id7)">
   <image x="-29.74" y="7531.27" width="448.38" height="6508.11" xlink:href="10_Images\10_ImgID8.png"/>
  </g>
  <g style="clip-path:url(#id8)">
   <image x="-29.74" y="-17.98" width="9797.25" height="7046.98" xlink:href="10_Images\10_ImgID9.png"/>
  </g>
  <g style="clip-path:url(#id9)">
   <image x="158.35" y="13916.36" width="275.54" height="123.02" xlink:href="10_Images\10_ImgID10.png"/>
  </g>
  <g style="clip-path:url(#id10)">
   <image x="9573.31" y="-17.98" width="275.54" height="123.03" xlink:href="10_Images\10_ImgID11.png"/>
  </g>
  <g style="clip-path:url(#id11)">
   <image x="-29.74" y="978.42" width="56.94" height="12145.9" xlink:href="10_Images\10_ImgID12.png"/>
  </g>
  <g style="clip-path:url(#id12)">
   <image x="-29.74" y="6972.06" width="77.27" height="616.14" xlink:href="10_Images\10_ImgID13.png"/>
  </g>
  <g style="clip-path:url(#id13)">
   <image x="-29.74" y="7531.27" width="77.27" height="5593.05" xlink:href="10_Images\10_ImgID14.png"/>
  </g>
  <g style="clip-path:url(#id14)">
   <image x="-29.74" y="993.67" width="77.27" height="6035.33" xlink:href="10_Images\10_ImgID15.png"/>
  </g>
  <path class="fil1" d="M1462.67 2621.66l0.05 -0.1 -0.15 0c-253.37,-140.46 -456.31,-566.22 -462.72,-579.89l0 -0.31 -0.15 0.16 -0.1 -0.16 0 0.31c-6.46,13.67 -209.35,439.43 -462.72,579.89l-0.2 0 0.15 0.1 -0.15 0.11 0.2 0c253.37,140.51 456.26,566.27 462.72,579.89l0 0.36 0.1 -0.21 0.15 0.21 0 -0.36c6.41,-13.62 209.35,-439.38 462.72,-579.89l0.15 0 -0.05 -0.11z"/>
  <path class="fil1" d="M743.48 1591.97c0,34.21 1.93,59.93 5.75,77.37 3.91,17.39 10.62,31.57 20.38,42.45 9.76,10.93 23.79,19.52 42.04,25.77 18.31,6.2 41.33,10.88 69.04,14.14 27.76,3.25 64.36,5.43 109.81,6.66l0 64.56 -654.17 0 0 -64.56c65.53,-2.95 112.3,-6.97 140.31,-12.05 28.06,-4.99 49.41,-12.56 64.16,-22.57 14.79,-9.97 25.57,-24.1 32.28,-42.45 6.86,-18.3 10.27,-48.04 10.27,-89.32l0 -717.92c0,-23.59 -4.17,-40.87 -12.46,-51.8 -8.28,-10.88 -20.33,-16.32 -36.3,-16.32 -18.86,0 -45.75,9.71 -80.52,29.23 -34.82,19.47 -77.83,46.31 -129.18,80.53l-38.99 -68.18 414.27 -246.96 48.65 0c-3.56,56.63 -5.34,135.12 -5.34,235.48l0 755.94z"/>
  <path class="fil1" d="M1110.83 1203.32c0,192.42 17.84,333.54 53.58,423.57 35.64,89.98 91,134.92 165.93,134.92 71.38,0 124.35,-42.34 158.92,-126.99 34.46,-84.69 51.7,-215.75 51.7,-393.42 0,-135.74 -8.8,-245.65 -26.49,-329.68 -17.69,-84.08 -42.4,-144.48 -73.97,-181.03 -31.51,-36.6 -69.74,-54.95 -114.58,-54.95 -40.72,0 -74.78,12.15 -102.23,36.35 -27.46,24.24 -49.57,59.02 -66.45,104.46 -16.77,45.45 -28.72,100.76 -35.79,165.94 -7.11,65.17 -10.62,138.88 -10.62,220.83zm205.38 633.78c-127.5,0 -222.36,-50.12 -284.64,-150.53 -62.22,-100.25 -93.38,-252.5 -93.38,-456.66 0,-108.54 9.66,-202.38 28.77,-281.49 19.17,-79.05 46.01,-144.42 80.58,-196.07 34.51,-51.65 75.95,-89.83 124.39,-114.59 48.3,-24.76 101.17,-37.21 158.41,-37.21 129.23,0 225.46,49.82 288.55,149.61 63.19,99.74 94.66,250.47 94.66,452.3 0,208.88 -33.76,366.88 -101.32,473.95 -67.56,107.11 -166.24,160.69 -296.02,160.69z"/>
  <path class="fil1" d="M8577.16 11365.72l-0.15 0.09 0.2 0c253.37,140.48 456.26,566.2 462.82,579.88l0 0.28 0 -0.1 0.1 0.1 0 -0.28c6.46,-13.68 209.4,-439.4 462.77,-579.88l0.15 0 -0.05 -0.05 0.05 -0.1 -0.15 0c-253.37,-140.52 -456.31,-566.29 -462.77,-579.94l0 -0.36 -0.1 0.22 0 -0.22 0 0.36c-6.56,13.65 -209.45,439.42 -462.82,579.94l-0.2 0 0.15 0.06z"/>
  <path class="fil1" d="M9296.25 12395.44c0,-34.26 -1.88,-60.03 -5.75,-77.39 -3.81,-17.4 -10.57,-31.57 -20.33,-42.51 -9.71,-10.95 -23.69,-19.45 -42.04,-25.68 -18.36,-6.22 -41.28,-10.98 -69.04,-14.16 -27.76,-3.28 -64.31,-5.46 -109.76,-6.65l0 -64.56 654.12 0 0 64.56c-65.53,2.95 -112.3,6.94 -140.26,12.01 -28.06,4.99 -49.46,12.53 -64.16,22.56 -14.84,9.97 -25.57,24.09 -32.43,42.46 -6.76,18.28 -10.12,48.05 -10.12,89.36l0 717.87c0,23.61 4.12,40.87 12.41,51.79 8.28,10.9 20.33,16.34 36.3,16.34 18.91,0 45.7,-9.75 80.52,-29.21 34.88,-19.48 77.88,-46.37 129.23,-80.51l38.94 68.16 -414.27 246.91 -48.65 0c3.56,-56.61 5.29,-135.11 5.29,-235.48l0 -755.87z"/>
  <path class="fil1" d="M8929 12784.06c0,-192.41 -17.84,-333.53 -53.58,-423.54 -35.64,-90.03 -91,-134.97 -165.93,-134.97 -71.43,0 -124.4,42.34 -158.92,126.99 -34.51,84.7 -51.75,215.8 -51.75,393.43 0,135.71 8.8,245.67 26.49,329.7 17.74,84.1 42.45,144.47 74.02,181.05 31.46,36.54 69.69,54.89 114.58,54.89 40.72,0 74.78,-12.17 102.18,-36.3 27.51,-24.23 49.62,-59.06 66.45,-104.49 16.82,-45.44 28.77,-100.76 35.84,-165.98 7.11,-65.13 10.62,-138.83 10.62,-220.78zm-205.38 -633.79c127.5,0 222.36,50.16 284.54,150.52 62.32,100.27 93.43,252.56 93.43,456.72 0,108.5 -9.6,202.35 -28.72,281.41 -19.22,79.09 -46.11,144.43 -80.63,196.14 -34.51,51.61 -75.95,89.78 -124.34,114.54 -48.35,24.76 -101.22,37.19 -158.41,37.19 -129.28,0 -225.41,-49.84 -288.6,-149.59 -63.14,-99.73 -94.66,-250.47 -94.66,-452.25 0,-208.88 33.81,-366.93 101.32,-473.97 67.61,-107.13 166.29,-160.71 296.07,-160.71z"/>
  <path class="fil1" d="M7774.55 11212.93l0.1 -0.14 -0.35 0c-502.78,-278.91 -905.5,-1123.99 -918.42,-1151.05l0 -0.6 -0.15 0.28 -0.05 -0.28 -0.1 0.6c-12.81,27.06 -415.69,872.14 -918.37,1151.05l-0.4 0 0.2 0.14 -0.2 0.1 0.4 0c502.68,278.84 905.56,1123.89 918.37,1150.95l0.1 0.66 0.05 -0.34 0.15 0.34 0 -0.66c12.92,-27.06 415.64,-872.11 918.42,-1150.95l0.35 0 -0.1 -0.1z"/>
  <path class="fil1" d="M7774.55 2804.68l0.1 -0.16 -0.35 0c-502.78,-278.89 -905.5,-1123.95 -918.42,-1151.04l0 -0.61 -0.15 0.25 -0.05 -0.25 -0.1 0.61c-12.81,27.09 -415.69,872.15 -918.37,1151.04l-0.4 0 0.2 0.16 -0.2 0.1 0.4 0c502.68,278.84 905.56,1123.84 918.37,1150.94l0.1 0.71 0.05 -0.4 0.15 0.4 0 -0.71c12.92,-27.1 415.64,-872.1 918.42,-1150.94l0.35 0 -0.1 -0.1z"/>
  <path class="fil1" d="M7774.55 8410.18l0.1 -0.15 -0.35 0c-502.78,-278.89 -905.5,-1123.95 -918.42,-1150.99l0 -0.61 -0.15 0.3 -0.05 -0.3 -0.1 0.61c-12.81,27.04 -415.69,872.1 -918.37,1150.99l-0.4 0 0.2 0.15 -0.2 0.1 0.4 0c502.68,278.84 905.56,1123.93 918.37,1150.93l0.1 0.72 0.05 -0.36 0.15 0.36 0 -0.72c12.92,-27 415.64,-872.09 918.42,-1150.93l0.35 0 -0.1 -0.1z"/>
  <path class="fil1" d="M7774.55 5607.45l0.1 -0.15 -0.35 0c-502.78,-278.89 -905.5,-1123.95 -918.42,-1151.04l0 -0.56 -0.15 0.25 -0.05 -0.25 -0.1 0.56c-12.81,27.09 -415.69,872.15 -918.37,1151.04l-0.4 0 0.2 0.15 -0.2 0.11 0.4 0c502.68,278.79 905.56,1123.89 918.37,1150.89l0.1 0.76 0.05 -0.35 0.15 0.35 0 -0.76c12.92,-27 415.64,-872.1 918.42,-1150.89l0.35 0 -0.1 -0.11z"/>
  <path class="fil1" d="M4075.73 11212.93l0.1 -0.14 -0.36 0c-502.77,-278.91 -905.55,-1123.99 -918.41,-1151.05l0 -0.6 -0.11 0.28 -0.15 -0.28 -0.05 0.6c-12.81,27.06 -415.69,872.14 -918.36,1151.05l-0.41 0 0.2 0 -0.2 0.24 0.41 0c502.67,278.84 905.55,1123.89 918.36,1150.95l0.05 0.66 0.15 -0.34 0.11 0.34 0 -0.66c12.86,-27.06 415.64,-872.11 918.41,-1150.95l0.36 0 -0.1 -0.1z"/>
  <path class="fil1" d="M4075.73 2804.68l0.1 -0.16 -0.36 0c-502.77,-278.89 -905.55,-1123.95 -918.41,-1151.04l0 -0.61 -0.11 0.25 -0.15 -0.25 -0.05 0.61c-12.81,27.09 -415.69,872.15 -918.36,1151.04l-0.41 0 0.2 0.16 -0.2 0.1 0.41 0c502.67,278.84 905.55,1123.84 918.36,1150.94l0.05 0.71 0.15 -0.4 0.11 0.4 0 -0.71c12.86,-27.1 415.64,-872.1 918.41,-1150.94l0.36 0 -0.1 -0.1z"/>
  <path class="fil1" d="M4075.73 8410.18l0.1 -0.15 -0.36 0c-502.77,-278.89 -905.55,-1123.95 -918.41,-1150.99l0 -0.61 -0.11 0.3 -0.15 -0.3 -0.05 0.61c-12.81,27.04 -415.69,872.1 -918.36,1150.99l-0.41 0 0.2 0 -0.2 0.25 0.41 0c502.67,278.84 905.55,1123.93 918.36,1150.93l0.05 0.72 0.15 -0.36 0.11 0.36 0 -0.72c12.86,-27 415.64,-872.09 918.41,-1150.93l0.36 0 -0.1 -0.1z"/>
  <path class="fil1" d="M4075.73 5607.45l0.1 -0.15 -0.36 0c-502.77,-278.89 -905.55,-1123.95 -918.41,-1151.04l0 -0.56 -0.11 0.25 -0.15 -0.25 -0.05 0.56c-12.81,27.09 -415.69,872.15 -918.36,1151.04l-0.41 0 0.2 0 -0.2 0.26 0.41 0c502.67,278.79 905.55,1123.89 918.36,1150.89l0.05 0.76 0.15 -0.35 0.11 0.35 0 -0.76c12.86,-27 415.64,-872.1 918.41,-1150.89l0.36 0 -0.1 -0.11z"/>
  <path class="fil1" d="M5925.11 9808.54l0.11 -0.09 -0.36 0c-502.78,-278.87 -905.5,-1123.95 -918.42,-1151.05l0 -0.61 -0.1 0.31 -0.1 -0.31 -0.1 0.61c-12.81,27.1 -415.69,872.18 -918.32,1151.05l-0.45 0 0.2 0.09 -0.2 0.15 0.45 0c502.63,278.84 905.51,1123.88 918.32,1150.95l0.1 0.67 0.1 -0.32 0.1 0.32 0 -0.67c12.92,-27.07 415.64,-872.11 918.42,-1150.95l0.36 0 -0.11 -0.15z"/>
  <path class="fil1" d="M5925.11 4149.87l0.11 -0.16 -0.36 0c-502.78,-278.89 -905.5,-1124 -918.42,-1151.04l0 -0.66 -0.1 0.3 -0.1 -0.3 -0.1 0.66c-12.81,27.04 -415.69,872.15 -918.32,1151.04l-0.45 0 0.2 0.16 -0.2 0.1 0.45 0c502.63,278.84 905.51,1123.84 918.32,1150.89l0.1 0.71 0.1 -0.36 0.1 0.36 0 -0.71c12.92,-27.05 415.64,-872.05 918.42,-1150.89l0.36 0 -0.11 -0.1z"/>
 </g>
</svg>
