<?xml version="1.0" encoding="UTF-8"?>
<!DOCTYPE svg PUBLIC "-//W3C//DTD SVG 1.1//EN" "http://www.w3.org/Graphics/SVG/1.1/DTD/svg11.dtd">
<!-- Creator: CorelDRAW -->
<svg xmlns="http://www.w3.org/2000/svg" xml:space="preserve" width="100%" height="100%" version="1.1" style="shape-rendering:geometricPrecision; text-rendering:geometricPrecision; image-rendering:optimizeQuality; fill-rule:evenodd; clip-rule:evenodd"
viewBox="0 0 10013.93 14018.82"
 xmlns:xlink="http://www.w3.org/1999/xlink"
 xmlns:xodm="http://www.corel.com/coreldraw/odm/2003">
 <defs>
  <style type="text/css">
   <![CDATA[
    .fil0 {fill:#FEFEFE;fill-rule:nonzero}
    .fil1 {fill:#E42D24;fill-rule:nonzero}
   ]]>
  </style>
   <clipPath id="id0">
    <path d="M9625.53 14018.82c0,0 207.56,-5.53 318.45,-210.29 -110.89,204.76 -318.45,210.29 -318.45,210.29zm-19.9 -20.29l-4435.52 0 -378.15 0 -4432.68 0c0,0 -39.8,-1.84 -90.98,-18.45 -110.89,-53.49 -247.37,-180.78 -247.37,-483.31l0 0 0 -3492.02 0 -2435.01c1961.86,-1.84 3920.89,-1.84 5882.75,-3.69 1361.93,0 2726.71,0 4088.64,0l0 2418.41 0 3492.02 0 0c0,510.98 -386.69,522.05 -386.69,522.05l0 0z"/>
   </clipPath>
   <clipPath id="id1">
    <path d="M9992.32 6998.54c-59.71,0 -119.42,0 -179.13,0 -2428.16,0 -4856.32,0 -7284.49,-1.99 -835.92,0 -1671.84,0 -2507.77,-1.99l0 -2957.8 0 -3491.94c0,-512.24 386.69,-522.2 386.69,-522.2l4435.52 0 378.15 0 4432.68 0c0,0 39.8,0 90.98,17.94 110.89,53.81 247.37,181.37 247.37,484.32l0 0 0 3489.96 0 2983.7 0 0z"/>
   </clipPath>
   <clipPath id="id2">
    <path d="M9944.18 13808.03c40.61,-74.64 68.33,-176.77 68.33,-314.26l0 -5927.83 0 0 0 -565.68 0 0 0 -6473.87 0 0c0,-514.6 -387.54,-526.39 -387.54,-526.39l-19.32 0c-0.78,0 -1.31,0 -1.31,0l20.63 0c0,0 387.68,11.79 387.68,526.39l0 3496.21 0 5974.96 0 3496.21c0,137.49 -27.86,239.62 -68.47,314.26l0 0z"/>
   </clipPath>
   <clipPath id="id3">
    <path d="M9992.27 7566.3l0 -567.59 20.28 0 0 567.59 -20.28 0 0 0z"/>
   </clipPath>
   <clipPath id="id4">
    <path d="M9625.35 14018.82l-4429.78 0 -377.48 0 -4410.36 0c0,0 -63.84,-1.84 -138.78,-38.74 49.96,16.61 88.82,18.45 88.82,18.45l4435.34 0 377.48 0 4432.56 0c0,0 388.58,-11.07 388.58,-522.05l0 0 0 0 0 -3492.02 0 -2418.41c8.32,0 13.88,0 22.2,0l0 2433.16 0 3495.72c0,138.35 -27.75,237.96 -69.39,313.6 -111.02,204.76 -319.19,210.29 -319.19,210.29l0 0 0 0z"/>
   </clipPath>
   <clipPath id="id5">
    <path d="M388.04 14018.66l0 0c0,0 -0.43,0 -1.26,-0.05 0.88,0.05 1.33,0.05 1.33,0.05l-0.07 0z"/>
   </clipPath>
   <clipPath id="id6">
    <path d="M10012.51 6998.44c-6.7,0 -13.53,0 -20.23,0l0 -2982.33 0 -3492.05 0 0c0,-303.83 -136.02,-429.76 -247.06,-483.73 25.23,7.99 53.88,19.98 83.05,37.97l0 0 0 0 0 0c-100.01,-73.95 -203.3,-75.95 -203.3,-75.95l-19.32 0 0 0 19.32 0c0,0 387.54,9.99 387.54,523.7l0 3496.05 0 2976.34 0 0z"/>
   </clipPath>
   <clipPath id="id7">
    <path d="M20.57 7568.9l0 -573.77 0.24 0 0 573.77 -0.24 0 0 0z"/>
   </clipPath>
   <clipPath id="id8">
    <path d="M386.78 14018.82c-24.65,-1.84 -386.23,-27.67 -386.23,-523.89l0 -394.77c6.61,-23.98 13.22,-47.96 19.96,-71.94l0 -3043.76 0 -2414.72 0.25 0 0 2435.01 0 3492.02 0 0c0,302.53 136.24,429.82 247.19,483.31 -25.29,-7.37 -53.76,-20.29 -82.99,-36.89l0 0c93.42,68.25 189.75,75.63 201.82,75.63l0 0z"/>
   </clipPath>
   <clipPath id="id9">
    <path d="M19.44 6995.23c0,0 0,0 0,0l0 -5762.29c-5.56,-71.8 -11.11,-143.6 -19.44,-215.41l0 -492.66c0,-512.6 388.78,-522.57 388.78,-522.57l4429.31 0 377.67 0 4409.87 0c8.33,0 69.43,3.99 138.85,37.9 -52.76,-17.96 -88.86,-17.96 -88.86,-17.96l-4434.87 0 -377.67 0 -4434.86 0c0,0 -388.78,9.98 -388.78,522.58l0 3490.48 0 2959.93 0 0z"/>
   </clipPath>
   <clipPath id="id10">
    <path d="M408.73 14018.67l-20.62 0c0,0 -0.47,0 -1.33,-0.07 -12.11,-0.66 -108.4,-7.7 -201.81,-76.19 29.13,17.47 57.72,29.47 82.94,37.77 76.38,36.75 140.82,38.49 140.82,38.49l0 0z"/>
   </clipPath>
   <clipPath id="id11">
    <path d="M9828.21 78.11c-29.21,-17.47 -57.72,-29.52 -82.94,-37.76 -69.98,-33.77 -130.04,-38.02 -139.57,-38.53l19.3 0c0,0 103.24,2.98 203.21,76.29l0 0z"/>
   </clipPath>
   <clipPath id="id12">
    <path d="M0.31 13100.2l0 -12083.93c0.07,0 0.16,0 0.21,0l0 3005.49 0 5976.55 0 3101.89c-0.05,0 -0.14,0 -0.21,0l0 0z"/>
   </clipPath>
   <clipPath id="id13">
    <path d="M0.52 7568.9l0 -573.77c6.73,0 13.39,0 20.04,0l0 573.77c-6.72,0 -13.27,0 -20.04,0l0 0z"/>
   </clipPath>
   <clipPath id="id14">
    <path d="M0.52 13099.21l0 -3100.91 0 -2428.73c6.77,0 13.32,0 20.04,0l0 2414.46 0 3043.84c-6.83,23.78 -13.38,47.56 -20.04,71.34l0 0z"/>
   </clipPath>
   <clipPath id="id15">
    <path d="M20.56 6994.93c-6.65,0 -13.31,0 -20.04,0l0 -2973.18 0 -3003.98c6.55,71.85 13.21,143.69 20.04,215.54l0 5761.62 0 0z"/>
   </clipPath>
 </defs>
 <g id="Layer_x0020_1">
  <metadata id="CorelCorpID_0Corel-Layer"/>
  <path class="fil0" d="M9625.03 1.81l-9236.92 0c0,0 -387.58,10.58 -387.58,523.57l0 12969.86c0,512.94 387.58,523.42 387.58,523.42l9236.92 0c0,0 387.53,-10.48 387.53,-523.42l0 -12969.86c0,-512.99 -387.53,-523.57 -387.53,-523.57z"/>
  <g style="clip-path:url(#id0)">
   <image x="-4.66" y="7534.69" width="10031.1" height="6508.11" xlink:href="2_Images\2_ImgID1.png"/>
  </g>
  <g style="clip-path:url(#id1)">
   <image x="-4.66" y="0.69" width="10031.1" height="7031.73" xlink:href="2_Images\2_ImgID2.png"/>
  </g>
  <g style="clip-path:url(#id2)">
   <image x="9578.06" y="-19.64" width="463.63" height="13859.1" xlink:href="2_Images\2_ImgID3.png"/>
  </g>
  <g style="clip-path:url(#id3)">
   <image x="9969.5" y="6975.49" width="72.19" height="616.14" xlink:href="2_Images\2_ImgID4.png"/>
  </g>
  <g style="clip-path:url(#id4)">
   <image x="249.52" y="7534.69" width="9792.16" height="6508.11" xlink:href="2_Images\2_ImgID5.png"/>
  </g>
  <g style="clip-path:url(#id5)">
   <image x="366.45" y="13985.87" width="56.94" height="56.94" xlink:href="2_Images\2_ImgID6.png"/>
  </g>
  <g style="clip-path:url(#id6)">
   <image x="9578.06" y="-19.64" width="463.63" height="7052.07" xlink:href="2_Images\2_ImgID7.png"/>
  </g>
  <g style="clip-path:url(#id7)">
   <image x="-4.66" y="6960.24" width="56.94" height="631.39" xlink:href="2_Images\2_ImgID8.png"/>
  </g>
  <g style="clip-path:url(#id8)">
   <image x="-24.99" y="7534.69" width="448.38" height="6508.11" xlink:href="2_Images\2_ImgID9.png"/>
  </g>
  <g style="clip-path:url(#id9)">
   <image x="-24.99" y="-19.64" width="9797.25" height="7036.81" xlink:href="2_Images\2_ImgID10.png"/>
  </g>
  <g style="clip-path:url(#id10)">
   <image x="163.1" y="13919.78" width="275.54" height="123.03" xlink:href="2_Images\2_ImgID11.png"/>
  </g>
  <g style="clip-path:url(#id11)">
   <image x="9578.06" y="-19.64" width="275.54" height="128.11" xlink:href="2_Images\2_ImgID12.png"/>
  </g>
  <g style="clip-path:url(#id12)">
   <image x="-24.99" y="981.84" width="56.94" height="12145.9" xlink:href="2_Images\2_ImgID13.png"/>
  </g>
  <g style="clip-path:url(#id13)">
   <image x="-24.99" y="6960.24" width="77.27" height="631.39" xlink:href="2_Images\2_ImgID14.png"/>
  </g>
  <g style="clip-path:url(#id14)">
   <image x="-24.99" y="7534.69" width="77.27" height="5593.05" xlink:href="2_Images\2_ImgID15.png"/>
  </g>
  <g style="clip-path:url(#id15)">
   <image x="-24.99" y="981.84" width="77.27" height="6035.33" xlink:href="2_Images\2_ImgID16.png"/>
  </g>
  <path class="fil1" d="M1187.41 2623.16l0 -0.06 -0.15 -0.1c-253.32,-140.46 -456.31,-566.17 -462.77,-579.84l0 -0.31 -0.05 0.11 -0.05 -0.11 -0.05 0.31c-6.41,13.67 -209.4,439.38 -462.72,579.84l-0.2 0 0.05 0.1 -0.05 0.11 0.2 0c253.32,140.51 456.31,566.32 462.72,579.89l0.05 0.36 0.05 -0.21 0.05 0.21 0 -0.36c6.46,-13.57 209.45,-439.38 462.77,-579.89l0.15 0 0 -0.05z"/>
  <path class="fil1" d="M859.82 1682.78c28.93,0 52.21,-1.73 69.9,-5.34 17.69,-3.51 31.93,-9.4 42.6,-17.69 10.52,-8.24 18.96,-18.96 25.11,-32.28 6.26,-13.32 14.04,-33.81 23.49,-61.57l75.29 0 -15.1 258.51 -728.39 0 0 -42.5c25.37,-61.97 59.53,-125.36 102.64,-190.28 43.06,-64.92 104.12,-141.33 183.22,-229.28 68.37,-75.49 117.68,-132.78 147.78,-171.77 33.04,-42.4 57.65,-79.16 73.92,-110.17 16.21,-30.96 27.91,-60.08 34.92,-87.64 7.17,-27.35 10.68,-55 10.68,-82.71 0,-44.28 -7.07,-83.37 -21.2,-117.28 -14.24,-33.91 -35.89,-60.65 -65.12,-80.12 -29.18,-19.47 -65.89,-29.18 -110.22,-29.18 -110.36,0 -184.64,61.41 -223.02,184.13l-107.11 0 0 -170c71.42,-33.6 138.22,-57.95 200.5,-73 62.22,-14.99 118.19,-22.57 167.71,-22.57 109.76,0 192.62,24.1 248.74,72.19 56.08,48.04 84.09,117.84 84.09,209.24 0,31.32 -3.15,60.09 -9.31,86.32 -6.15,26.29 -15.91,52.21 -29.23,77.89 -13.21,25.67 -31.11,53.27 -53.53,82.81 -22.42,29.48 -47.23,59.43 -74.37,89.83 -27.1,30.4 -74.07,80.93 -140.72,151.74 -112.09,118.66 -194.45,222.26 -246.91,310.72l333.64 0z"/>
  <path class="fil1" d="M8721.71 11367.17l0 0.05 0.16 0.05c253.26,140.51 456.25,566.22 462.71,579.89l0 0.31 0.05 -0.1 0.05 0.1 0 -0.31c6.46,-13.67 209.45,-439.38 462.77,-579.89l0.25 0 -0.1 -0.05 0.1 -0.1 -0.25 0c-253.32,-140.52 -456.31,-566.32 -462.77,-579.9l0 -0.35 -0.05 0.15 -0.05 -0.15 0 0.35c-6.46,13.58 -209.45,439.38 -462.71,579.9l-0.16 0 0 0.05z"/>
  <path class="fil1" d="M9049.25 12307.54c-28.87,0 -52.21,1.78 -69.9,5.29 -17.69,3.61 -31.87,9.46 -42.55,17.74 -10.52,8.24 -19.01,18.97 -25.16,32.28 -6.2,13.32 -14.03,33.81 -23.49,61.57l-75.29 0 15.1 -258.46 728.44 0 0 42.4c-25.37,62.02 -59.53,125.37 -102.64,190.33 -43.06,64.97 -104.16,141.28 -183.21,229.33 -68.43,75.44 -117.74,132.73 -147.84,171.67 -33.04,42.4 -57.65,79.21 -73.91,110.22 -16.22,30.91 -27.91,60.14 -34.93,87.59 -7.12,27.4 -10.62,55.01 -10.62,82.76 0,44.23 7.01,83.37 21.2,117.23 14.23,33.96 35.84,60.7 65.07,80.17 29.18,19.47 65.93,29.18 110.21,29.18 110.32,0 184.74,-61.36 223.07,-184.08l107.11 0 0 169.95c-71.47,33.65 -138.22,57.95 -200.5,73 -62.27,15.05 -118.24,22.52 -167.76,22.52 -109.75,0 -192.62,-23.99 -248.74,-72.14 -56.02,-48.04 -84.08,-117.84 -84.08,-209.29 0,-31.32 3.15,-60.04 9.35,-86.27 6.15,-26.28 15.86,-52.21 29.23,-77.88 13.22,-25.68 31.11,-53.28 53.48,-82.82 22.42,-29.43 47.23,-59.42 74.38,-89.82 27.09,-30.4 74.06,-80.99 140.76,-151.8 112.05,-118.6 194.35,-222.21 246.92,-310.67l-333.7 0z"/>
  <path class="fil1" d="M5925.39 11214.35l0.15 -0.1 -0.4 0c-502.78,-278.89 -905.51,-1123.95 -918.42,-1151.04l0 -0.61 -0.1 0.35 -0.1 -0.35 -0.05 0.61c-12.87,27.09 -415.75,872.15 -918.37,1151.04l-0.46 0 0.16 0 -0.16 0.25 0.46 0c502.62,278.79 905.5,1123.9 918.37,1150.9l0.05 0.71 0.1 -0.36 0.1 0.36 0 -0.71c12.91,-27 415.64,-872.11 918.42,-1150.9l0.4 0 -0.15 -0.15z"/>
  <path class="fil1" d="M5925.39 2806.12l0.15 -0.11 -0.4 0c-502.78,-278.94 -905.51,-1123.99 -918.42,-1151.09l0 -0.56 -0.1 0.31 -0.1 -0.31 -0.05 0.56c-12.87,27.1 -415.75,872.15 -918.37,1151.09l-0.46 0 0.16 0.11 -0.16 0.1 0.46 0c502.62,278.84 905.5,1123.9 918.37,1150.94l0.05 0.71 0.1 -0.35 0.1 0.35 0 -0.71c12.91,-27.04 415.64,-872.1 918.42,-1150.94l0.4 0 -0.15 -0.1z"/>
 </g>
</svg>
