<?xml version="1.0" encoding="UTF-8"?>
<!DOCTYPE svg PUBLIC "-//W3C//DTD SVG 1.1//EN" "http://www.w3.org/Graphics/SVG/1.1/DTD/svg11.dtd">
<!-- Creator: CorelDRAW -->
<svg xmlns="http://www.w3.org/2000/svg" xml:space="preserve" width="100%" height="100%" version="1.1" style="shape-rendering:geometricPrecision; text-rendering:geometricPrecision; image-rendering:optimizeQuality; fill-rule:evenodd; clip-rule:evenodd"
viewBox="0 0 10012.34 14018.82"
 xmlns:xlink="http://www.w3.org/1999/xlink"
 xmlns:xodm="http://www.corel.com/coreldraw/odm/2003">
 <defs>
  <style type="text/css">
   <![CDATA[
    .fil0 {fill:#FEFEFE;fill-rule:nonzero}
    .fil1 {fill:#E42D24;fill-rule:nonzero}
   ]]>
  </style>
   <clipPath id="id0">
    <path d="M9623.74 14018.82c0,0 207.56,-5.53 321.29,-210.29 -113.73,204.76 -321.29,210.29 -321.29,210.29zm-19.91 -20.29l-4432.67 0 -378.16 0 -4435.52 0c0,0 -36.96,-1.84 -90.98,-18.45 -110.89,-53.49 -244.52,-180.78 -244.52,-483.31l0 0 0 -3492.02 0 -2435.01c1959.02,-1.84 3920.88,-1.84 5882.75,-3.69 1361.93,0 2723.86,0 4088.63,0l0 2418.41 0 3492.02 0 0c0,510.98 -389.53,522.05 -389.53,522.05l0 0z"/>
   </clipPath>
   <clipPath id="id1">
    <path d="M9993.36 6998.54c-62.55,0 -122.26,0 -181.97,0 -2428.16,0 -4856.32,0 -7284.48,-1.99 -835.93,0 -1671.85,0 -2504.93,-1.99l0 -2957.8 0 -3491.94c0,-512.24 386.68,-522.2 386.68,-522.2l4435.52 0 375.31 0 4435.52 0c0,0 36.97,0 90.99,17.94 110.89,53.81 247.36,181.37 247.36,484.32l0 0 0 3489.96 0 2983.7 0 0z"/>
   </clipPath>
   <clipPath id="id2">
    <path d="M9944.01 13808.03c40.6,-74.64 68.33,-176.77 68.33,-314.26l0 -5927.83 0 0 0 -565.68 0 0 0 -6473.87 0 0c0,-514.6 -387.54,-526.39 -387.54,-526.39l-19.32 0c-0.79,0 -1.31,0 -1.31,0l20.63 0c0,0 387.54,11.79 387.54,526.39l0 3496.21 0 5974.96 0 3496.21c0,137.49 -27.73,239.62 -68.33,314.26l0 0z"/>
   </clipPath>
   <clipPath id="id3">
    <path d="M9992.05 7566.3l0 -567.59 20.28 0 0 567.59 -20.28 0 0 0z"/>
   </clipPath>
   <clipPath id="id4">
    <path d="M9623.49 14018.82l-4429.79 0 -374.7 0 -4410.36 0c0,0 -63.84,-1.84 -141.55,-38.74 52.73,16.61 91.59,18.45 91.59,18.45l4432.57 0 377.47 0 4435.34 0c0,0 388.58,-11.07 388.58,-522.05l0 0 0 0 0 -3492.02 0 -2418.41c5.55,0 13.88,0 19.43,0l0 2433.16 0 3495.72c0,138.35 -27.76,237.96 -69.39,313.6 -111.02,204.76 -319.19,210.29 -319.19,210.29l0 0 0 0z"/>
   </clipPath>
   <clipPath id="id5">
    <path d="M387.79 14018.66l0 0c0,0 -0.11,0 -0.3,0 0.19,0 0.35,0 0.35,0l-0.05 0z"/>
   </clipPath>
   <clipPath id="id6">
    <path d="M10012.34 6998.44c-6.7,0 -13.53,0 -20.24,0l0 -2982.33 0 -3492.05 0 0c0,-303.83 -136.14,-429.76 -247.06,-483.73 25.24,7.99 53.75,19.98 82.93,37.97l0 0 0 0 0 0c-99.88,-73.95 -203.17,-75.95 -203.17,-75.95l-19.32 0 0 0 19.32 0c0,0 387.54,9.99 387.54,523.7l0 3496.05 0 2976.34 0 0z"/>
   </clipPath>
   <clipPath id="id7">
    <path d="M20.28 7568.9l0 -573.77 0.31 0 0 573.77 -0.31 0 0 0z"/>
   </clipPath>
   <clipPath id="id8">
    <path d="M387.48 14018.82c-12.83,0 -387.12,-20.29 -387.12,-523.89l0 -394.77c6.61,-23.98 13.09,-47.96 19.83,-71.94l0.12 -3043.76 0 -2414.72 0.26 0 0 2435.01 0 3492.02 0 0c0,302.53 136.11,429.82 247.06,483.31 -25.16,-7.37 -53.76,-20.29 -82.99,-36.89l0 0c96.72,70.1 196.49,75.63 202.84,75.63l0 0z"/>
   </clipPath>
   <clipPath id="id9">
    <path d="M20.35 6995.23c0,0 0,0 0,0l0 -5762.29c-5.55,-71.8 -13.88,-143.6 -19.44,-215.41l0 -492.66c0,-512.6 386.01,-522.57 386.01,-522.57l4432.08 0 374.9 0 4412.65 0c8.33,0 69.42,3.99 138.85,37.9 -52.77,-17.96 -91.64,-17.96 -91.64,-17.96l-4432.09 0 -377.67 0 -4434.87 0c0,0 -388.78,9.98 -388.78,522.58l0 3490.48 0 2959.93 0 0z"/>
   </clipPath>
   <clipPath id="id10">
    <path d="M408.46 14018.67l-20.62 0c0,0 -0.16,0 -0.39,0 -6.33,-0.28 -106.14,-5.4 -202.75,-76.26 29.13,17.47 57.72,29.47 82.95,37.77 76.46,36.75 140.81,38.49 140.81,38.49l0 0z"/>
   </clipPath>
   <clipPath id="id11">
    <path d="M9827.94 78.11c-29.13,-17.43 -57.63,-29.48 -82.86,-37.76 -69.98,-33.77 -130.04,-38.02 -139.56,-38.53l19.29 0c0,0 103.32,2.98 203.13,76.29l0 0z"/>
   </clipPath>
   <clipPath id="id12">
    <path d="M-0 13100.2l0 -12083.93c0.11,0 0.21,0 0.3,3.44l0 3002.05 0 5976.55 0 3101.89c-0.09,0 -0.19,0 -0.3,0l0 0z"/>
   </clipPath>
   <clipPath id="id13">
    <path d="M0.31 7568.9l0 -573.77c6.66,0 13.31,0 19.97,0l0 573.77c-6.7,0 -13.27,0 -19.97,0l0 0z"/>
   </clipPath>
   <clipPath id="id14">
    <path d="M0.31 13099.21l0 -3100.91 0 -2428.73c6.7,0 13.27,0 19.97,0l0 2414.46 -0.04 3043.84c-6.77,23.78 -13.32,47.56 -19.93,71.34l0 0z"/>
   </clipPath>
   <clipPath id="id15">
    <path d="M20.28 6994.99c-6.66,0 -13.31,0 -19.97,0l0 -2974.21 0 -3003.21c6.5,71.67 13.16,145.04 19.97,216.71l0 5760.71 0 0z"/>
   </clipPath>
 </defs>
 <g id="Layer_x0020_1">
  <metadata id="CorelCorpID_0Corel-Layer"/>
  <path class="fil0" d="M9624.81 1.81l-9236.97 0c0,0 -387.53,10.58 -387.53,523.57l0 12969.86c0,512.94 387.53,523.42 387.53,523.42l9236.97 0c0,0 387.53,-10.48 387.53,-523.42l0 -12969.86c0,-512.99 -387.53,-523.57 -387.53,-523.57z"/>
  <g style="clip-path:url(#id0)">
   <image x="-9.3" y="7534.69" width="10031.1" height="6508.11" xlink:href="3_Images\3_ImgID1.png"/>
  </g>
  <g style="clip-path:url(#id1)">
   <image x="-9.3" y="0.69" width="10031.1" height="7031.73" xlink:href="3_Images\3_ImgID2.png"/>
  </g>
  <g style="clip-path:url(#id2)">
   <image x="9573.42" y="-19.64" width="463.63" height="13859.1" xlink:href="3_Images\3_ImgID3.png"/>
  </g>
  <g style="clip-path:url(#id3)">
   <image x="9964.86" y="6975.49" width="72.19" height="616.14" xlink:href="3_Images\3_ImgID4.png"/>
  </g>
  <g style="clip-path:url(#id4)">
   <image x="244.88" y="7534.69" width="9792.16" height="6508.11" xlink:href="3_Images\3_ImgID5.png"/>
  </g>
  <g style="clip-path:url(#id5)">
   <image x="361.81" y="13985.87" width="56.94" height="56.94" xlink:href="3_Images\3_ImgID6.png"/>
  </g>
  <g style="clip-path:url(#id6)">
   <image x="9573.42" y="-19.64" width="463.63" height="7052.07" xlink:href="3_Images\3_ImgID7.png"/>
  </g>
  <g style="clip-path:url(#id7)">
   <image x="-9.3" y="6960.24" width="56.94" height="631.39" xlink:href="3_Images\3_ImgID8.png"/>
  </g>
  <g style="clip-path:url(#id8)">
   <image x="-29.63" y="7534.69" width="448.38" height="6508.11" xlink:href="3_Images\3_ImgID9.png"/>
  </g>
  <g style="clip-path:url(#id9)">
   <image x="-29.63" y="-19.64" width="9797.25" height="7036.81" xlink:href="3_Images\3_ImgID10.png"/>
  </g>
  <g style="clip-path:url(#id10)">
   <image x="158.46" y="13919.78" width="275.54" height="123.03" xlink:href="3_Images\3_ImgID11.png"/>
  </g>
  <g style="clip-path:url(#id11)">
   <image x="9573.42" y="-19.64" width="275.54" height="128.11" xlink:href="3_Images\3_ImgID12.png"/>
  </g>
  <g style="clip-path:url(#id12)">
   <image x="-29.63" y="981.84" width="56.94" height="12145.9" xlink:href="3_Images\3_ImgID13.png"/>
  </g>
  <g style="clip-path:url(#id13)">
   <image x="-29.63" y="6960.24" width="77.27" height="631.39" xlink:href="3_Images\3_ImgID14.png"/>
  </g>
  <g style="clip-path:url(#id14)">
   <image x="-29.63" y="7534.69" width="77.27" height="5593.05" xlink:href="3_Images\3_ImgID15.png"/>
  </g>
  <g style="clip-path:url(#id15)">
   <image x="-29.63" y="997.09" width="77.27" height="6020.08" xlink:href="3_Images\3_ImgID16.png"/>
  </g>
  <path class="fil1" d="M1224.25 2623.16l0.16 -0.06 -0.21 -0.1c-253.32,-140.46 -456.31,-566.17 -462.76,-579.84l0 -0.31 -0.11 0.11 -0.05 -0.11 0 0.31c-6.45,13.67 -209.44,439.38 -462.76,579.84l-0.21 0 0.11 0.1 -0.11 0.11 0.21 0c253.32,140.51 456.31,566.32 462.76,579.89l0 0.36 0.05 -0.21 0.11 0.21 0 -0.36c6.45,-13.57 209.44,-439.38 462.76,-579.89l0.21 0 -0.16 -0.05z"/>
  <path class="fil1" d="M409.09 866.7l0 -168.17c68.42,-32.43 132.48,-56.68 192.01,-72.6 59.63,-15.96 117.18,-23.89 172.69,-23.89 66.6,0 125.06,10.32 175.23,31.01 50.13,20.59 88.51,50.33 115.05,88.97 26.58,38.63 39.85,84.79 39.85,138.47 0,50.23 -10.01,94.31 -30.09,132.28 -20.08,38.08 -48.25,71.33 -84.54,99.64 -36.3,28.27 -83.33,56.02 -141.23,83.17l0 8.03c36.05,6.46 70.72,17.54 104.06,33.15 33.3,15.66 62.94,35.84 88.87,60.65 26.03,24.75 46.87,54.39 62.48,88.91 15.6,34.57 23.43,73.97 23.43,118.14 0,68.48 -14.89,129.28 -44.74,182.36 -29.73,53.12 -75.34,95.06 -136.75,125.71 -61.3,30.71 -135.98,46.06 -223.88,46.06 -50.79,0 -105.49,-5.79 -164.15,-17.33 -58.77,-11.44 -112.55,-26.64 -161.56,-45.55l0 -187.64 106.2 0c20.69,61.36 47.94,105.89 81.84,133.65 33.91,27.71 80.12,41.58 138.64,41.58 76.66,0 134.66,-20.89 173.81,-62.83 39.29,-41.89 58.86,-103.86 58.86,-185.86 0,-86.17 -25.92,-151.9 -77.88,-197.35 -51.9,-45.45 -128.05,-68.22 -228.3,-68.22l-79.72 0 0 -77.88c79.72,-4.68 146.77,-20.03 201.32,-46.01 54.65,-25.98 95.21,-59.28 121.75,-100.05 26.54,-40.67 39.86,-86.42 39.86,-137.15 0,-65.53 -17.44,-115.96 -52.21,-151.34 -34.88,-35.39 -85.56,-53.13 -152.26,-53.13 -55.46,0 -100.66,15.05 -135.43,45.14 -34.82,30.05 -60.54,76.11 -76.96,138.08l-106.25 0z"/>
  <path class="fil1" d="M8756.98 11367.17l-0.1 0.05 0.15 0.05c253.32,140.51 456.31,566.22 462.77,579.89l0 0.31 0.1 -0.1 0.05 0.1 0 -0.31c6.46,-13.67 209.45,-439.38 462.77,-579.89l0.25 0 -0.1 -0.05 0.1 -0.1 -0.25 0c-253.32,-140.52 -456.31,-566.32 -462.77,-579.9l0 -0.35 -0.05 0.15 -0.1 -0.15 0 0.35c-6.46,13.58 -209.45,439.38 -462.77,579.9l-0.15 0 0.1 0.05z"/>
  <path class="fil1" d="M9572.15 13123.68l0 168.11c-68.38,32.44 -132.43,56.69 -192.01,72.6 -59.64,15.96 -117.18,23.84 -172.65,23.84 -66.64,0 -125.05,-10.27 -175.28,-30.96 -50.13,-20.59 -88.46,-50.33 -115.04,-88.91 -26.54,-38.74 -39.81,-84.85 -39.81,-138.53 0,-50.23 10.02,-94.3 30.05,-132.33 20.08,-38.08 48.24,-71.27 84.54,-99.59 36.29,-28.32 83.37,-56.02 141.22,-83.17l0 -8.03c-36.04,-6.46 -70.71,-17.49 -104.01,-33.09 -33.3,-15.76 -62.94,-35.95 -88.96,-60.7 -25.93,-24.76 -46.83,-54.4 -62.38,-88.92 -15.66,-34.57 -23.49,-73.96 -23.49,-118.14 0,-68.53 14.95,-129.28 44.74,-182.35 29.74,-53.13 75.39,-95.07 136.75,-125.72 61.31,-30.71 136.04,-46.01 223.88,-46.01 50.79,0 105.49,5.75 164.16,17.29 58.76,11.43 112.6,26.63 161.61,45.54l0 187.64 -106.2 0c-20.69,-61.36 -47.94,-105.94 -81.85,-133.65 -33.96,-27.75 -80.22,-41.58 -138.63,-41.58 -76.66,0 -134.67,20.89 -173.81,62.88 -39.3,41.84 -58.92,103.76 -58.92,185.81 0,86.17 25.98,151.9 77.88,197.35 51.96,45.45 128.11,68.17 228.36,68.17l79.66 0 0 77.93c-79.66,4.63 -146.72,20.03 -201.31,46.01 -54.6,25.98 -95.17,59.28 -121.76,100.05 -26.53,40.72 -39.85,86.47 -39.85,137.16 0,65.52 17.48,115.9 52.21,151.34 34.87,35.43 85.6,53.12 152.25,53.12 55.52,0 100.66,-15.05 135.43,-45.14 34.82,-30.05 60.6,-76.1 77.02,-138.02l106.2 0z"/>
  <path class="fil1" d="M5923.29 11214.35l0.15 -0.1 -0.35 0c-502.78,-278.89 -905.56,-1123.95 -918.47,-1151.04l0 -0.61 -0.1 0.35 -0.1 -0.35 -0.05 0.61c-12.81,27.09 -415.69,872.15 -918.37,1151.04l-0.4 0 0.2 0.1 -0.2 0.15 0.4 0c502.68,278.79 905.56,1123.9 918.37,1150.9l0.05 0.71 0.1 -0.36 0.1 0.36 0 -0.71c12.91,-27 415.69,-872.11 918.47,-1150.9l0.35 0 -0.15 -0.15z"/>
  <path class="fil1" d="M5923.29 7010.31l0.15 -0.15 -0.35 0c-502.78,-278.89 -905.56,-1123.95 -918.47,-1151.05l0 -0.61 -0.1 0.31 -0.1 -0.31 -0.05 0.61c-12.81,27.1 -415.69,872.16 -918.37,1151.05l-0.4 0 0.2 0.15 -0.2 0.05 0.4 0c502.68,278.84 905.56,1123.9 918.37,1150.94l0.05 0.72 0.1 -0.36 0.1 0.36 0 -0.72c12.91,-27.04 415.69,-872.1 918.47,-1150.94l0.35 0 -0.15 -0.05z"/>
  <path class="fil1" d="M5923.29 2806.12l0.15 -0.11 -0.35 0c-502.78,-278.94 -905.56,-1123.99 -918.47,-1151.09l0 -0.56 -0.1 0.31 -0.1 -0.31 -0.05 0.56c-12.81,27.1 -415.69,872.15 -918.37,1151.09l-0.4 0 0.2 0.11 -0.2 0.1 0.4 0c502.68,278.84 905.56,1123.9 918.37,1150.94l0.05 0.71 0.1 -0.35 0.1 0.35 0 -0.71c12.91,-27.04 415.69,-872.1 918.47,-1150.94l0.35 0 -0.15 -0.1z"/>
 </g>
</svg>
