<?xml version="1.0" encoding="UTF-8"?>
<!DOCTYPE svg PUBLIC "-//W3C//DTD SVG 1.1//EN" "http://www.w3.org/Graphics/SVG/1.1/DTD/svg11.dtd">
<!-- Creator: CorelDRAW -->
<svg xmlns="http://www.w3.org/2000/svg" xml:space="preserve" width="100%" height="100%" version="1.1" style="shape-rendering:geometricPrecision; text-rendering:geometricPrecision; image-rendering:optimizeQuality; fill-rule:evenodd; clip-rule:evenodd"
viewBox="0 0 10012.48 14018.91"
 xmlns:xlink="http://www.w3.org/1999/xlink"
 xmlns:xodm="http://www.corel.com/coreldraw/odm/2003">
 <defs>
  <style type="text/css">
   <![CDATA[
    .fil0 {fill:#FEFEFE;fill-rule:nonzero}
    .fil1 {fill:#E42D24;fill-rule:nonzero}
   ]]>
  </style>
   <clipPath id="id0">
    <path d="M9624.05 14018.91c0,0 249.83,-7.38 349.19,-274.86 -99.36,267.48 -349.19,274.86 -349.19,274.86zm-19.87 -20.29l-4434.46 0 -377.58 0 -4434.45 0c0,0 -36.91,-1.84 -90.85,-18.45 -110.72,-53.49 -246.99,-180.78 -246.99,-483.31l0 0 0 -3492.02 0 -2435.01c1961.72,-1.84 3923.44,-1.84 5882.32,-3.69 1365.54,0 2728.24,0 4090.94,0l0 2418.41 0 3492.02 0 0c0,510.98 -388.93,522.05 -388.93,522.05l0 0z"/>
   </clipPath>
   <clipPath id="id1">
    <path d="M9993.11 6998.63c-59.61,0 -122.07,0 -181.69,0 -2427.31,0 -4854.62,0 -7281.93,-1.99 -837.49,0 -1672.14,0 -2509.64,-1.99l0 -2957.8 0 -3491.94c0,-512.24 388.94,-522.2 388.94,-522.2l4434.45 0 377.58 0 4434.46 0c0,0 36.9,0 90.84,17.94 110.72,53.81 246.99,181.37 246.99,484.32l0 0 0 3489.96 0 2983.7 0 0z"/>
   </clipPath>
   <clipPath id="id2">
    <path d="M9973.27 13742.18c23.91,-62.55 39.16,-144.65 39.16,-246.3l0 -5930.84 0 0 0 -566.89 0 0 0 -6474.27 0 0c0,-512.15 -387.8,-523.88 -387.8,-523.88l-18.79 0c-1.06,0 -1.58,0 -1.58,0l20.37 0c0,0 387.8,11.73 387.8,523.88l0 3499.08 0 5977.75 0 3495.17c0,101.65 -15.25,183.75 -39.16,246.3l0 0z"/>
   </clipPath>
   <clipPath id="id3">
    <path d="M9992.13 7566.39l0 -567.59 20.35 0 0 567.59 -20.35 0 0 0z"/>
   </clipPath>
   <clipPath id="id4">
    <path d="M9625.81 14018.91l-4430.64 0 -378.26 0 -4408.39 0c0,0 -63.97,-1.84 -141.85,-38.74 52.84,16.61 91.78,18.45 91.78,18.45l4433.43 0 378.26 0 4433.42 0c0,0 389.39,-11.07 389.39,-522.05l0 0 0 0 0 -3492.02 0 -2418.41c5.56,0 13.9,0 19.46,0l0 2433.16 0 3495.72c0,101.46 -13.9,182.62 -38.93,249.03 -100.13,267.48 -347.67,274.86 -347.67,274.86l0 0 0 0z"/>
   </clipPath>
   <clipPath id="id5">
    <path d="M10012.43 6998.53c-6.57,0 -13.67,0 -20.24,0l0 -2982.33 0 -3492.05 0 0c0,-303.83 -136.27,-429.76 -247.06,-483.73 25.37,7.99 53.88,19.98 82.79,37.97l0 0 0 0 0 0c-100.13,-73.95 -203.29,-75.95 -203.29,-75.95l-18.79 0 0 0 18.79 0c0,0 387.8,9.99 387.8,523.7l0 3496.05 0 2976.34 0 0z"/>
   </clipPath>
   <clipPath id="id6">
    <path d="M20.27 7568.99l0 -573.77 0.37 0 0 573.77 -0.37 0 0 0z"/>
   </clipPath>
   <clipPath id="id7">
    <path d="M387.82 14018.91c0,0 -387.38,-11.07 -387.38,-523.89l0 -394.77c6.41,-23.98 13.07,-47.96 19.85,-71.94l0 -3043.76 0 -2414.72 0.38 0 0 2435.01 0 3492.02 0 0c0,302.53 136.08,429.82 247.28,483.31 -25.38,-7.37 -54.03,-20.29 -83.31,-36.89l0 0c99.89,71.94 203.18,75.63 203.18,75.63l0 0z"/>
   </clipPath>
   <clipPath id="id8">
    <path d="M19.46 6995.32l0 0 0 -5762.29c-5.56,-71.8 -13.9,-143.6 -19.46,-215.41l0 -492.66c0,-512.6 389.18,-522.57 389.18,-522.57l4428.35 0 378.06 0 4408.89 0c11.12,0 69.5,3.99 141.77,37.9 -52.81,-17.96 -91.73,-17.96 -91.73,-17.96l-4433.91 0 -378.06 0 -4433.91 0c0,0 -389.18,9.98 -389.18,522.58l0 3490.48 0 2959.93 0 0z"/>
   </clipPath>
   <clipPath id="id9">
    <path d="M408.63 14018.76l-20.76 0 0 0c0,0 -103.32,-3 -203.22,-76.26 29.35,17.47 57.9,29.54 83.28,37.77 76.19,36.75 140.7,38.49 140.7,38.49l0 0z"/>
   </clipPath>
   <clipPath id="id10">
    <path d="M9827.9 78.2c-28.97,-17.43 -57.4,-29.48 -82.86,-37.76 -70.13,-33.7 -130.11,-38.02 -139.25,-38.53l18.82 0c0,0 103.17,2.98 203.29,76.29l0 0z"/>
   </clipPath>
   <clipPath id="id11">
    <path d="M0.14 13100.29l0 -12083.93c0,0 0,0 0.36,0l0 3005.49 0 5976.55 0 3101.89c-0.36,0 -0.36,0 -0.36,0l0 0z"/>
   </clipPath>
   <clipPath id="id12">
    <path d="M0.49 7568.99l0 -573.77c6.72,0 13.06,0 19.78,0l0 573.77c-6.72,0 -13.06,0 -19.78,0l0 0z"/>
   </clipPath>
   <clipPath id="id13">
    <path d="M0.49 13099.3l0 -3100.91 0 -2428.73c6.72,0 13.06,0 19.78,0l0 2414.46 0 3043.84c-6.72,23.78 -13.43,47.56 -19.78,71.34l0 0z"/>
   </clipPath>
   <clipPath id="id14">
    <path d="M20.27 6995.02c-6.72,0 -13.06,0 -19.78,0l0 -2973.18 0 -3003.98c6.35,71.85 13.06,143.69 19.78,215.54l0 5761.62 0 0z"/>
   </clipPath>
 </defs>
 <g id="Layer_x0020_1">
  <metadata id="CorelCorpID_0Corel-Layer"/>
  <path class="fil0" d="M9624.59 1.9l-9236.72 0c0,0 -387.37,10.58 -387.37,523.57l0 12969.86c0,512.94 387.37,523.42 387.37,523.42l9236.72 0c0,0 387.89,-10.48 387.89,-523.42l0 -12969.86c0,-512.99 -387.89,-523.57 -387.89,-523.57z"/>
  <g style="clip-path:url(#id0)">
   <image x="-2.86" y="7534.78" width="10015.84" height="6508.11" xlink:href="5_Images\5_ImgID1.png"/>
  </g>
  <g style="clip-path:url(#id1)">
   <image x="-2.86" y="0.78" width="10015.84" height="7031.73" xlink:href="5_Images\5_ImgID2.png"/>
  </g>
  <g style="clip-path:url(#id2)">
   <image x="9584.94" y="-19.55" width="463.63" height="13793.01" xlink:href="5_Images\5_ImgID3.png"/>
  </g>
  <g style="clip-path:url(#id3)">
   <image x="9956.05" y="6975.58" width="92.52" height="616.14" xlink:href="5_Images\5_ImgID4.png"/>
  </g>
  <g style="clip-path:url(#id4)">
   <image x="236.07" y="7534.78" width="9812.5" height="6508.11" xlink:href="5_Images\5_ImgID5.png"/>
  </g>
  <g style="clip-path:url(#id5)">
   <image x="9584.94" y="-19.55" width="463.63" height="7052.07" xlink:href="5_Images\5_ImgID6.png"/>
  </g>
  <g style="clip-path:url(#id6)">
   <image x="-2.86" y="6960.33" width="56.93" height="631.39" xlink:href="5_Images\5_ImgID7.png"/>
  </g>
  <g style="clip-path:url(#id7)">
   <image x="-33.36" y="7534.78" width="443.29" height="6508.11" xlink:href="5_Images\5_ImgID8.png"/>
  </g>
  <g style="clip-path:url(#id8)">
   <image x="-33.36" y="-19.55" width="9807.41" height="7036.81" xlink:href="5_Images\5_ImgID9.png"/>
  </g>
  <g style="clip-path:url(#id9)">
   <image x="149.65" y="13919.87" width="280.61" height="123.03" xlink:href="5_Images\5_ImgID10.png"/>
  </g>
  <g style="clip-path:url(#id10)">
   <image x="9584.94" y="-19.55" width="275.53" height="128.11" xlink:href="5_Images\5_ImgID11.png"/>
  </g>
  <g style="clip-path:url(#id11)">
   <image x="-33.36" y="981.93" width="56.93" height="12145.9" xlink:href="5_Images\5_ImgID12.png"/>
  </g>
  <g style="clip-path:url(#id12)">
   <image x="-33.36" y="6960.33" width="87.44" height="631.39" xlink:href="5_Images\5_ImgID13.png"/>
  </g>
  <g style="clip-path:url(#id13)">
   <image x="-33.36" y="7534.78" width="87.44" height="5593.05" xlink:href="5_Images\5_ImgID14.png"/>
  </g>
  <g style="clip-path:url(#id14)">
   <image x="-33.36" y="981.93" width="87.44" height="6035.33" xlink:href="5_Images\5_ImgID15.png"/>
  </g>
  <path class="fil1" d="M1210.92 2623.25l0.35 -0.16 -0.35 0c-253.32,-140.46 -456.16,-566.17 -462.87,-579.84l0 -0.31 0 0.11 0 -0.11 0 0.31c-6.35,13.67 -209.55,439.38 -462.87,579.84l0 0.21c253.32,140.51 456.52,566.32 462.87,579.89l0 0.36 0 -0.21 0 0.21 0 -0.36c6.71,-13.57 209.55,-439.38 462.87,-579.89l0.35 0 -0.35 -0.05z"/>
  <path class="fil1" d="M380.45 1820.13l0 -187.64 106.91 0c18,60.14 44.43,104.42 80.07,132.73 35.99,28.32 81.84,42.5 138.63,42.5 78.69,0 137.92,-23.64 177.83,-70.81 40.21,-47.23 60.34,-117.74 60.34,-211.53 0,-62.53 -10.63,-114.39 -31.77,-155.41 -21.56,-40.98 -50.13,-70.61 -86.07,-88.92 -35.99,-18.3 -77.98,-27.45 -125.62,-27.45 -40.21,0 -74.78,2.54 -103.7,7.53 -28.93,4.98 -59.64,12.81 -92.78,23.48l-70.92 -41.63 0 -582.39 487.88 0c20.13,0 34.57,-1.62 43.42,-4.88 8.79,-3.2 15.86,-8.23 21.14,-15.04 5.29,-6.77 11.64,-19.58 18.71,-38.54l68.78 0 -13.06 205.33 -509.03 0 0 388.65c30.71,-13.02 63.85,-22.78 99.84,-29.23 36.35,-6.51 72.29,-9.76 108.29,-9.76 70.2,0 132.32,14.33 186.62,42.9 54.34,28.62 96.28,69.39 125.61,122.21 29.59,52.77 44.44,114.03 44.44,183.62 0,79.11 -16.58,146.92 -49.77,203.61 -33.15,56.68 -80.78,99.74 -143.21,129.22 -62.43,29.49 -136.5,44.23 -222.26,44.23 -101.93,0 -208.84,-20.89 -320.32,-62.78z"/>
  <path class="fil1" d="M8742.58 11367.26l-0.51 0.1 0.51 0c253.16,140.51 456,566.22 462.61,579.89l0 0.31 0 -0.1 0 0.1 0 -0.31c6.61,-13.67 209.45,-439.38 463.12,-579.89l0 -0.15c-253.67,-140.52 -456.51,-566.32 -463.12,-579.9l0 -0.35 0 0.15 0 -0.15 0 0.35c-6.61,13.58 -209.45,439.38 -462.61,579.9l-0.51 0 0.51 0.05z"/>
  <path class="fil1" d="M9572.74 12170.38l0 187.63 -106.76 0c-17.79,-60.19 -44.73,-104.41 -80.32,-132.78 -35.58,-28.22 -81.85,-42.45 -138.27,-42.45 -78.29,0 -137.77,23.64 -177.93,70.82 -40.16,47.17 -60.5,117.68 -60.5,211.58 0,62.48 10.68,114.33 32.03,155.35 21.35,40.98 49.82,70.62 85.91,88.92 36.1,18.3 77.78,27.45 125.57,27.45 40.16,0 74.73,-2.54 103.71,-7.58 28.97,-4.98 59.47,-12.81 93.03,-23.43l70.66 41.63 0 582.39 -487.52 0c-20.34,0 -35.08,1.58 -43.72,4.88 -8.65,3.2 -15.76,8.24 -21.35,15.05 -5.09,6.71 -11.19,19.57 -18.31,38.48l-69.13 0 13.21 -205.33 508.88 0 0 -388.59c-30.5,13.01 -63.55,22.72 -99.64,29.28 -36.1,6.45 -72.19,9.66 -108.28,9.66 -70.16,0 -132.18,-14.29 -186.57,-42.91 -54.4,-28.57 -96.09,-69.34 -125.57,-122.16 -29.99,-52.82 -44.74,-114.03 -44.74,-183.67 0,-79.05 16.78,-146.87 49.82,-203.55 33.05,-56.69 80.83,-99.74 143.36,-129.18 62.53,-29.54 136.25,-44.28 222.16,-44.28 102.18,0 208.94,20.9 320.27,62.79z"/>
  <path class="fil1" d="M4074.04 11214.44l0.36 -0.1 -0.36 0c-502.72,-278.89 -905.55,-1123.95 -918.62,-1151.04l0 -0.61 0 0.35 0 -0.35 0 0.61c-13.06,27.09 -415.94,872.15 -918.62,1151.04l-0.35 0 0.35 0.1 -0.35 0.15 0.35 0c502.68,278.79 905.56,1123.9 918.62,1150.9l0 0.71 0 -0.36 0 0.36 0 -0.71c13.07,-27 415.9,-872.11 918.62,-1150.9l0.36 0 -0.36 -0.15z"/>
  <path class="fil1" d="M4074.04 2806.21l0.36 -0.11 -0.36 0c-502.72,-278.94 -905.55,-1123.99 -918.62,-1151.09l0 -0.56 0 0.31 0 -0.31 0 0.56c-13.06,27.1 -415.94,872.15 -918.62,1151.09l-0.35 0 0.35 0.11 -0.35 0.1 0.35 0c502.68,278.84 905.56,1123.9 918.62,1150.94l0 0.71 0 -0.35 0 0.35 0 -0.71c13.07,-27.04 415.9,-872.1 918.62,-1150.94l0.36 0 -0.36 -0.1z"/>
  <path class="fil1" d="M7772.92 11214.44l0.35 -0.1 -0.35 0c-502.73,-278.89 -905.56,-1123.95 -918.62,-1151.04l0 -0.61 0 0.35 0 -0.35 -0.36 0.61c-12.71,27.09 -415.54,872.15 -918.31,1151.04l-0.31 0 0.31 0.1 -0.31 0.15 0.31 0c502.77,278.79 905.6,1123.9 918.31,1150.9l0.36 0.71 0 -0.36 0 0.36 0 -0.71c13.06,-27 415.89,-872.11 918.62,-1150.9l0.35 0 -0.35 -0.15z"/>
  <path class="fil1" d="M7772.92 2806.21l0.35 -0.11 -0.35 0c-502.73,-278.94 -905.56,-1123.99 -918.62,-1151.09l0 -0.56 0 0.31 0 -0.31 -0.36 0.56c-12.71,27.1 -415.54,872.15 -918.31,1151.09l-0.31 0 0.31 0.11 -0.31 0.1 0.31 0c502.77,278.84 905.6,1123.9 918.31,1150.94l0.36 0.71 0 -0.35 0 0.35 0 -0.71c13.06,-27.04 415.89,-872.1 918.62,-1150.94l0.35 0 -0.35 -0.1z"/>
  <path class="fil1" d="M5923.68 7010.4l0 -0.15 -0.35 0c-502.73,-278.89 -905.61,-1123.95 -918.32,-1151.05l0 -0.61 -0.3 0.31 0 -0.31 0 0.61c-12.71,27.1 -415.59,872.16 -918.32,1151.05l-0.35 0 0 0.2 0.35 0c502.73,278.84 905.61,1123.9 918.32,1150.94l0 0.72 0 -0.36 0.3 0.36 0 -0.72c12.71,-27.04 415.59,-872.1 918.32,-1150.94l0.35 0 0 -0.05z"/>
 </g>
</svg>
