<?xml version="1.0" encoding="UTF-8"?>
<!DOCTYPE svg PUBLIC "-//W3C//DTD SVG 1.1//EN" "http://www.w3.org/Graphics/SVG/1.1/DTD/svg11.dtd">
<!-- Creator: CorelDRAW -->
<svg xmlns="http://www.w3.org/2000/svg" xml:space="preserve" width="100%" height="100%" version="1.1" style="shape-rendering:geometricPrecision; text-rendering:geometricPrecision; image-rendering:optimizeQuality; fill-rule:evenodd; clip-rule:evenodd"
viewBox="0 0 10012.92 14018.68"
 xmlns:xlink="http://www.w3.org/1999/xlink"
 xmlns:xodm="http://www.corel.com/coreldraw/odm/2003">
 <defs>
  <style type="text/css">
   <![CDATA[
    .fil0 {fill:#FEFEFE;fill-rule:nonzero}
    .fil1 {fill:#E42D24;fill-rule:nonzero}
   ]]>
  </style>
   <clipPath id="id0">
    <path d="M9626.27 14018.68c0,0 130.72,-3.69 238.71,-106.99 -107.99,103.3 -238.71,106.99 -238.71,106.99zm-22.74 -20.29l-4433.27 0 -377.96 0 -4433.27 0c0,0 -39.79,-1.84 -90.94,-18.45 -110.83,-53.49 -247.24,-180.78 -247.24,-483.31l0 0 0 -3492.02 0 -2435.01c1960.87,-1.84 3921.74,-1.84 5882.61,-3.69 1364.08,0 2725.32,0 4089.41,0l0 2418.41 0 3492.02 0 0c0,510.98 -389.34,522.05 -389.34,522.05l0 0z"/>
   </clipPath>
   <clipPath id="id1">
    <path d="M9992.87 6998.4c-59.68,0 -119.36,0 -179.04,0 -2429.77,0 -4856.7,0 -7286.48,-1.99 -835.5,0 -1671,0 -2506.5,-1.99l0 -2957.8 0 -3491.94c0,-512.24 389.33,-522.2 389.33,-522.2l4433.27 0 377.97 0 4433.27 0c0,0 39.78,0 90.94,17.94 110.83,53.81 247.24,181.37 247.24,484.32l0 0 0 3489.96 0 2983.7 0 0z"/>
   </clipPath>
   <clipPath id="id2">
    <path d="M9866 13909.33c79.37,-75.18 146.39,-201.81 146.39,-415.5l0 -5927.78 0 0 0 -565.87 0 0 0 -6473.88 0 0c0,-514.42 -387.27,-526.3 -387.27,-526.3l-19.32 0c-0.53,0 -1.05,0 -1.05,0l20.37 0c0,0 387.8,11.88 387.8,526.3l0 3494.15 0 5979.23 0 3494.15c0,213.69 -67.55,340.32 -146.92,415.5l0 0z"/>
   </clipPath>
   <clipPath id="id3">
    <path d="M9992.62 7566.16l0 -567.59 19.82 0 0 567.59 -19.82 0 0 0z"/>
   </clipPath>
   <clipPath id="id4">
    <path d="M9624.48 14018.68l-4430.64 0 -375.48 0 -4408.39 0c0,0 -66.75,-1.84 -141.85,-38.74 52.85,16.61 89,18.45 89,18.45l4436.21 0 375.48 0 4436.2 0c0,0 386.61,-11.07 386.61,-522.05l0 0 0 0 0 -3492.02 0 -2418.41c8.34,0 13.9,0 19.47,0l0 2433.16 0 3495.72c0,213.98 -66.76,341.27 -144.63,416.9 -111.26,103.3 -241.98,106.99 -241.98,106.99l0 0 0 0z"/>
   </clipPath>
   <clipPath id="id5">
    <path d="M10012.39 6998.3c-6.57,0 -13.14,0 -19.84,0l0 -2982.33 0 -3492.05 0 0c0,-303.83 -136.15,-429.76 -247.06,-483.73 25.5,7.99 53.49,19.98 82.92,37.97l0 0 0 0 0 0c-99.61,-73.95 -203.29,-75.95 -203.29,-75.95l-19.32 0 0 0 19.32 0c0,0 387.27,9.99 387.27,523.7l0 3496.05 0 2976.34 0 0z"/>
   </clipPath>
   <clipPath id="id6">
    <path d="M21 7568.76l0 -573.77 0 0 0 573.77 0 0 0 0z"/>
   </clipPath>
   <clipPath id="id7">
    <path d="M387.99 14018.68c0,0 -387.28,-11.07 -387.28,-523.89l0 -394.77c6.55,-23.98 13.1,-47.96 20.26,-71.94l0 -3043.76 0 -2414.72 0 0 0 2435.01 0 3492.02 0 0c0,302.53 135.77,429.82 247.15,483.31 -25.48,-7.37 -54,-20.29 -82.87,-36.89l0 0c99.61,71.94 202.74,75.63 202.74,75.63l0 0z"/>
   </clipPath>
   <clipPath id="id8">
    <path d="M22.21 6995.09l0 0 0 -5762.29c-8.33,-71.8 -13.88,-143.6 -22.21,-215.41l0 -492.66c0,-512.6 388.78,-522.57 388.78,-522.57l4429.31 0 377.67 0 4409.87 0c11.11,0 69.42,3.99 138.85,37.9 -49.99,-17.96 -88.86,-17.96 -88.86,-17.96l-4434.87 0 -377.67 0 -4434.87 0c0,0 -386,9.98 -386,522.58l0 3490.48 0 2959.93 0 0z"/>
   </clipPath>
   <clipPath id="id9">
    <path d="M408.85 14018.53l-20.85 0 0 0c0,0 -103.19,-3 -202.84,-76.26 29.01,17.47 57.45,29.47 82.92,37.7 76.23,36.82 140.77,38.56 140.77,38.56l0 0z"/>
   </clipPath>
   <clipPath id="id10">
    <path d="M9828.4 77.97c-29.52,-17.43 -57.48,-29.48 -82.86,-37.76 -70.13,-33.77 -130.11,-38.02 -139.8,-38.53l19.29 0c0,0 103.72,2.98 203.37,76.29l0 0z"/>
   </clipPath>
   <clipPath id="id11">
    <path d="M0.15 13100.06l0 -12083.93c0,0 0.51,0 0.51,3.44l0 3002.05 0 5976.55 0 3101.89c0,0 -0.51,0 -0.51,0l0 0z"/>
   </clipPath>
   <clipPath id="id12">
    <path d="M0.67 7568.76l0 -573.77c6.59,0 13.2,0 20.32,0l0 573.77c-7.12,0 -13.73,0 -20.32,0l0 0z"/>
   </clipPath>
   <clipPath id="id13">
    <path d="M0.67 13099.07l0 -3100.91 0 -2428.73c6.59,0 13.2,0 20.32,0l0 2414.46 0 3043.84c-7.12,23.78 -13.73,47.56 -20.32,71.34l0 0z"/>
   </clipPath>
   <clipPath id="id14">
    <path d="M20.99 6994.85c-7.12,0 -13.73,0 -20.32,0l0 -2974.21 0 -3003.21c6.59,71.67 13.2,145.04 20.32,216.71l0 5760.71 0 0z"/>
   </clipPath>
 </defs>
 <g id="Layer_x0020_1">
  <metadata id="CorelCorpID_0Corel-Layer"/>
  <path class="fil0" d="M9625.06 1.67l-9237.03 0c0,0 -387.37,10.58 -387.37,523.57l0 12969.86c0,512.94 387.37,523.42 387.37,523.42l9237.03 0c0,0 387.37,-10.48 387.37,-523.42l0 -12969.86c0,-512.99 -387.37,-523.57 -387.37,-523.57z"/>
  <g style="clip-path:url(#id0)">
   <image x="-1.89" y="7534.55" width="10026.01" height="6508.11" xlink:href="6_Images\6_ImgID1.png"/>
  </g>
  <g style="clip-path:url(#id1)">
   <image x="-1.89" y="0.55" width="10026.01" height="7031.73" xlink:href="6_Images\6_ImgID2.png"/>
  </g>
  <g style="clip-path:url(#id2)">
   <image x="9580.83" y="-19.78" width="463.63" height="13960.77" xlink:href="6_Images\6_ImgID3.png"/>
  </g>
  <g style="clip-path:url(#id3)">
   <image x="9967.19" y="6975.35" width="77.27" height="616.14" xlink:href="6_Images\6_ImgID4.png"/>
  </g>
  <g style="clip-path:url(#id4)">
   <image x="231.96" y="7534.55" width="9812.5" height="6508.11" xlink:href="6_Images\6_ImgID5.png"/>
  </g>
  <g style="clip-path:url(#id5)">
   <image x="9580.83" y="-19.78" width="463.63" height="7052.07" xlink:href="6_Images\6_ImgID6.png"/>
  </g>
  <g style="clip-path:url(#id6)">
   <image x="-1.89" y="6960.1" width="56.93" height="631.39" xlink:href="6_Images\6_ImgID7.png"/>
  </g>
  <g style="clip-path:url(#id7)">
   <image x="-22.22" y="7534.55" width="428.04" height="6508.11" xlink:href="6_Images\6_ImgID8.png"/>
  </g>
  <g style="clip-path:url(#id8)">
   <image x="-22.22" y="-19.78" width="9797.25" height="7036.81" xlink:href="6_Images\6_ImgID9.png"/>
  </g>
  <g style="clip-path:url(#id9)">
   <image x="150.62" y="13919.64" width="290.78" height="123.03" xlink:href="6_Images\6_ImgID10.png"/>
  </g>
  <g style="clip-path:url(#id10)">
   <image x="9580.83" y="-19.78" width="275.53" height="128.11" xlink:href="6_Images\6_ImgID11.png"/>
  </g>
  <g style="clip-path:url(#id11)">
   <image x="-22.22" y="981.7" width="56.93" height="12145.9" xlink:href="6_Images\6_ImgID12.png"/>
  </g>
  <g style="clip-path:url(#id12)">
   <image x="-22.22" y="6960.1" width="77.27" height="631.39" xlink:href="6_Images\6_ImgID13.png"/>
  </g>
  <g style="clip-path:url(#id13)">
   <image x="-22.22" y="7534.55" width="77.27" height="5593.05" xlink:href="6_Images\6_ImgID14.png"/>
  </g>
  <g style="clip-path:url(#id14)">
   <image x="-22.22" y="996.95" width="77.27" height="6020.08" xlink:href="6_Images\6_ImgID15.png"/>
  </g>
  <path class="fil1" d="M1211.59 2623.02l0 -0.16 -0.51 0c-253.17,-140.46 -456.01,-566.17 -462.62,-579.84l0 -0.31 0 0.11 -0.5 -0.11 0 0.31c-6.1,13.67 -208.94,439.38 -462.62,579.84l0 0.21c253.68,140.51 456.52,566.32 462.62,579.89l0 0.36 0.5 -0.21 0 0.21 0 -0.36c6.61,-13.57 209.45,-439.38 462.62,-579.89l0.51 0 0 -0.05z"/>
  <path class="fil1" d="M775.92 1186.93c-28.98,0 -56.94,3.3 -83.88,9.76 -26.95,6.46 -52.37,15.91 -75.24,28.37 -23.9,12.35 -47.28,28.01 -69.14,46.92 -7.12,6.46 -12.71,13.27 -16.27,20.33 -5.59,11.19 -9.66,25.07 -11.18,41.64 -2.04,16.47 -2.54,44.18 -2.54,83.12 0,112.75 18.3,198.62 56.42,257.59 37.62,59.02 95.07,88.5 171.83,88.5 43.72,0 81.34,-7.67 111.33,-22.97 30,-15.31 54.4,-36.45 73.21,-63.35 18.3,-26.84 31.52,-58.41 39.65,-94.66 8.14,-36.34 12.2,-75.69 12.2,-118.19 0,-87.29 -18.3,-155.36 -54.39,-203.96 -35.59,-48.7 -86.42,-73.1 -152,-73.1zm263.84 -536.33l0 43.37c-91,0 -171.83,19.42 -241.98,58.41 -70.16,38.99 -128.11,96.18 -174.88,171.72 -46.26,75.55 -78.8,165.22 -97.61,269.03l8.64 3.56c49.82,-35.38 98.63,-61.36 146.92,-77.88 47.79,-16.52 100.15,-24.76 156.07,-24.76 66.6,0 123.53,14.54 170.3,43.77 46.77,29.23 82.36,70.26 105.74,123.03 23.9,52.87 35.08,114.68 35.08,185.45 0,76.71 -14.23,144.43 -43.72,203.14 -29.48,58.72 -75.24,104.88 -137.26,138.48 -61,33.71 -137.26,50.53 -227.75,50.53 -129.12,0 -226.22,-40.16 -292.31,-120.43 -65.58,-80.22 -98.62,-198.52 -98.62,-354.89 0,-105.08 16.27,-203.3 49.31,-294.8 33.55,-91.41 80.32,-171.27 140.82,-239.39 61,-68.12 131.16,-121.81 211.48,-161.1 80.32,-39.2 164.71,-61.21 253.17,-65.94l36.6 48.7z"/>
  <path class="fil1" d="M8747.62 11367.03l0 0.1c253.67,140.51 456.51,566.22 462.61,579.89l0 0.31 0 -0.1 0.51 0.1 0 -0.31c6.1,-13.67 208.94,-439.38 462.61,-579.89l0 0 0 -0.1 0 -0.05 0 0c-253.67,-140.52 -456.51,-566.32 -462.61,-579.9l0 -0.35 -0.51 0.15 0 -0.15 0 0.35c-6.1,13.58 -208.94,439.38 -462.61,579.9l0 0.05z"/>
  <path class="fil1" d="M9183.29 12803.11c28.47,0 56.43,-3.3 83.37,-9.81 26.94,-6.45 51.85,-15.91 75.75,-28.31 23.38,-12.36 46.26,-28.02 69.13,-46.93 7.12,-6.45 12.21,-13.27 15.76,-20.28 6.1,-11.24 9.66,-25.11 11.19,-41.69 2.03,-16.47 3.05,-44.17 3.05,-83.11 0,-112.76 -19.32,-198.62 -56.43,-257.59 -38.13,-59.08 -95.57,-88.51 -171.83,-88.51 -44.73,0 -81.85,7.62 -111.84,22.98 -29.99,15.3 -54.39,36.45 -72.7,63.29 -18.81,26.89 -32.02,58.41 -40.16,94.71 -8.13,36.3 -11.69,75.69 -11.69,118.19 0,87.34 17.79,155.26 53.89,203.96 36.09,48.65 86.93,73.1 152.51,73.1zm-263.84 536.33l0 -43.36c90.99,0 171.31,-19.42 241.47,-58.42 70.15,-38.94 128.62,-96.18 174.88,-171.72 46.26,-75.6 78.79,-165.22 97.6,-269.03l-9.15 -3.61c-49.31,35.38 -98.11,61.36 -146.41,77.93 -47.78,16.48 -100.14,24.71 -156.06,24.71 -66.6,0 -123.54,-14.54 -170.31,-43.72 -46.77,-29.23 -81.84,-70.2 -105.74,-123.02 -23.38,-52.87 -35.58,-114.64 -35.58,-185.51 0,-76.66 14.74,-144.37 44.73,-203.14 28.98,-58.67 74.73,-104.83 136.25,-138.48 62.02,-33.7 137.76,-50.43 228.25,-50.43 129.13,0 226.73,40.16 292.31,120.33 66.09,80.22 98.63,198.62 98.63,354.94 0,105.08 -16.27,203.35 -49.32,294.8 -33.04,91.46 -80.32,171.22 -140.81,239.39 -60.5,68.18 -131.16,121.81 -211.48,161.06 -80.33,39.24 -164.71,61.2 -253.17,65.93l-36.09 -48.65z"/>
  <path class="fil1" d="M7782.23 11212.33l0 -0.1 -0.51 0c-502.77,-278.89 -905.4,-1124 -918.11,-1151.04l0 -0.61 0 0.3 -0.51 -0.3 0 0.61c-12.71,27.04 -415.33,872.15 -918.11,1151.04l-0.51 0 0 0.2 0.51 0c502.78,278.84 905.4,1123.9 918.11,1150.95l0 0.71 0.51 -0.36 0 0.36 0 -0.71c12.71,-27.05 415.34,-872.11 918.11,-1150.95l0.51 0 0 -0.1z"/>
  <path class="fil1" d="M7782.23 2804.04l0 -0.1 -0.51 0c-502.77,-278.89 -905.4,-1123.95 -918.11,-1151.04l0 -0.56 0 0.25 -0.51 -0.25 0 0.56c-12.71,27.09 -415.33,872.15 -918.11,1151.04l-0.51 0 0 0.26 0.51 0c502.78,278.84 905.4,1123.89 918.11,1150.94l0 0.71 0.51 -0.35 0 0.35 0 -0.71c12.71,-27.05 415.34,-872.1 918.11,-1150.94l0.51 0 0 -0.16z"/>
  <path class="fil1" d="M7782.23 7030.25l0 -0.1 -0.51 0c-502.77,-278.89 -905.4,-1123.95 -918.11,-1151.04l0 -0.61 0 0.35 -0.51 -0.35 0 0.61c-12.71,27.09 -415.33,872.15 -918.11,1151.04l-0.51 0 0 0.25 0.51 0c502.78,278.84 905.4,1123.9 918.11,1150.9l0 0.71 0.51 -0.31 0 0.31 0 -0.71c12.71,-27 415.34,-872.06 918.11,-1150.9l0.51 0 0 -0.15z"/>
  <path class="fil1" d="M4083.35 11212.33l0.51 -0.1 -1.02 0c-502.77,-278.89 -904.89,-1124 -918.11,-1151.04l0 -0.61 0 0.3 -0.51 -0.3 0 0.61c-12.71,27.04 -415.33,872.15 -918.11,1151.04l-0.51 0 0 0.2 0.51 0c502.78,278.84 905.4,1123.9 918.11,1150.95l0 0.71 0.51 -0.36 0 0.36 0 -0.71c13.22,-27.05 415.34,-872.11 918.11,-1150.95l1.02 0 -0.51 -0.1z"/>
  <path class="fil1" d="M4083.35 2804.04l0.51 -0.1 -1.02 0c-502.77,-278.89 -904.89,-1123.95 -918.11,-1151.04l0 -0.56 0 0.25 -0.51 -0.25 0 0.56c-12.71,27.09 -415.33,872.15 -918.11,1151.04l-0.51 0 0 0.26 0.51 0c502.78,278.84 905.4,1123.89 918.11,1150.94l0 0.71 0.51 -0.35 0 0.35 0 -0.71c13.22,-27.05 415.34,-872.1 918.11,-1150.94l1.02 0 -0.51 -0.16z"/>
  <path class="fil1" d="M4083.35 7030.25l0.51 -0.1 -1.02 0c-502.77,-278.89 -904.89,-1123.95 -918.11,-1151.04l0 -0.61 0 0.35 -0.51 -0.35 0 0.61c-12.71,27.09 -415.33,872.15 -918.11,1151.04l-0.51 0 0 0.25 0.51 0c502.78,278.84 905.4,1123.9 918.11,1150.9l0 0.71 0.51 -0.31 0 0.31 0 -0.71c13.22,-27 415.34,-872.06 918.11,-1150.9l1.02 0 -0.51 -0.15z"/>
 </g>
</svg>
