<?xml version="1.0" encoding="UTF-8"?>
<!DOCTYPE svg PUBLIC "-//W3C//DTD SVG 1.1//EN" "http://www.w3.org/Graphics/SVG/1.1/DTD/svg11.dtd">
<!-- Creator: CorelDRAW -->
<svg xmlns="http://www.w3.org/2000/svg" xml:space="preserve" width="100%" height="100%" version="1.1" style="shape-rendering:geometricPrecision; text-rendering:geometricPrecision; image-rendering:optimizeQuality; fill-rule:evenodd; clip-rule:evenodd"
viewBox="0 0 10012.31 14018.73"
 xmlns:xlink="http://www.w3.org/1999/xlink"
 xmlns:xodm="http://www.corel.com/coreldraw/odm/2003">
 <defs>
  <style type="text/css">
   <![CDATA[
    .fil0 {fill:#FEFEFE;fill-rule:nonzero}
    .fil1 {fill:#E42D24;fill-rule:nonzero}
   ]]>
  </style>
   <clipPath id="id0">
    <path d="M9623.6 14018.73c0,0 153.53,-3.69 267.27,-132.82 -113.74,129.13 -267.27,132.82 -267.27,132.82zm-19.91 -20.29l-4432.67 0 -378.16 0 -4435.52 0c0,0 -36.96,-1.84 -90.98,-18.45 -108.05,-53.49 -244.52,-180.78 -244.52,-483.31l0 0 0 -3492.02 0 -2435.01c1959.02,-1.84 3920.88,-1.84 5882.75,-3.69 1361.93,0 2723.86,0 4088.63,0l0 2418.41 0 3492.02 0 0c0,510.98 -389.53,522.05 -389.53,522.05l0 0z"/>
   </clipPath>
   <clipPath id="id1">
    <path d="M9993.22 6998.45c-59.71,0 -119.41,0 -181.97,0 -2425.31,0 -4853.48,0 -7284.48,-1.99 -833.08,0 -1669.01,0 -2504.93,-1.99l0 -2957.8 0 -3491.94c0,-512.24 386.68,-522.2 386.68,-522.2l4435.52 0 375.32 0 4435.51 0c0,0 36.97,0 90.99,17.94 110.89,53.81 247.36,181.37 247.36,484.32l0 0 0 3489.96 0 2983.7 0 0z"/>
   </clipPath>
   <clipPath id="id2">
    <path d="M9889.8 13885.72c68.08,-74.99 122.48,-197.35 122.48,-390.76l0 -5928.46 0 0 0 -568.38 0 0 0 -6473.16 0 0c0,-513.11 -387.41,-524.96 -387.41,-524.96l-19.31 0c-0.92,0 -1.45,0 -1.45,0l20.76 0c0,0 387.41,11.85 387.41,524.96l0 3497.09 0 5975.83 0 3497.08c0,193.41 -54.4,315.77 -122.48,390.76l0 0z"/>
   </clipPath>
   <clipPath id="id3">
    <path d="M9991.95 7566.21l0 -567.59 20.36 0 0 567.59 -20.36 0 0 0z"/>
   </clipPath>
   <clipPath id="id4">
    <path d="M9626.19 14018.73l-4432.56 0 -374.7 0 -4410.36 0c0,0 -63.84,-1.84 -141.55,-38.74 52.73,16.61 91.59,18.45 91.59,18.45l4432.56 0 377.48 0 4435.34 0c0,0 388.58,-11.07 388.58,-522.05l0 0 0 0 0 -3492.02 0 -2418.41c5.55,0 13.87,0 19.43,0l0 2433.16 0 3495.72c0,191.85 -52.74,313.6 -122.13,391.07 -113.8,129.13 -263.68,132.82 -263.68,132.82l0 0 0 0z"/>
   </clipPath>
   <clipPath id="id5">
    <path d="M387.9 14018.57l0 0c0,0 -0.5,0 -0.5,0 0,0 0.5,0 0.5,0l0 0z"/>
   </clipPath>
   <clipPath id="id6">
    <path d="M10012.28 6998.35c-6.57,0 -13.67,0 -20.37,0l0 -2982.33 0 -3492.05 0 0c0,-303.83 -135.62,-429.76 -247.05,-483.73 25.49,7.99 53.87,19.98 82.92,37.97l0 0 0 0 0 0c-99.61,-73.95 -202.91,-75.95 -202.91,-75.95l-19.31 0 0 0 19.31 0c0,0 387.41,9.99 387.41,523.7l0 3496.05 0 2976.34 0 0z"/>
   </clipPath>
   <clipPath id="id7">
    <path d="M20.35 7568.81l0 -573.77 0.5 0 0 573.77 -0.5 0 0 0z"/>
   </clipPath>
   <clipPath id="id8">
    <path d="M387.39 14018.73c-19.32,-1.84 -386.87,-23.98 -386.87,-523.89l0 -394.77c6.61,-23.98 13.22,-47.96 19.83,-71.94l0 -3043.76 0 -2414.72 0.51 0 0 2435.01 0 3492.02 0 0c0,302.53 136.24,429.82 246.55,483.31 -24.91,-7.37 -53.38,-20.29 -82.86,-36.89l0 0c95.06,68.25 193.18,75.63 202.84,75.63l0 0z"/>
   </clipPath>
   <clipPath id="id9">
    <path d="M20.28 6995.14l0 0 0 -5762.29c-5.56,-71.8 -13.89,-143.6 -19.44,-215.41l0 -492.66c0,-512.6 386,-522.57 386,-522.57l4432.09 0 374.89 0 4412.65 0c8.33,0 69.43,3.99 138.85,37.9 -52.76,-17.96 -91.64,-17.96 -91.64,-17.96l-4432.09 0 -377.67 0 -4434.86 0c0,0 -388.78,9.98 -388.78,522.58l0 3490.48 0 2959.93 0 0z"/>
   </clipPath>
   <clipPath id="id10">
    <path d="M408.27 14018.58l-20.39 0c0,0 -0.46,0 -0.46,0 -9.69,-0.52 -107.78,-6.62 -202.9,-76.26 29.52,17.47 57.95,29.47 82.86,37.77 76.77,36.75 140.89,38.49 140.89,38.49l0 0z"/>
   </clipPath>
   <clipPath id="id11">
    <path d="M9827.75 78.02c-28.97,-17.47 -57.4,-29.52 -82.86,-37.76 -69.66,-33.77 -129.64,-38.02 -139.25,-38.53l19.29 0c0,0 103.17,2.98 202.82,76.29l0 0z"/>
   </clipPath>
   <clipPath id="id12">
    <path d="M-0 13100.11l0 -12083.93c0,0 0,0 0.52,3.44l0 3002.05 0 5976.55 0 3101.89c-0.52,0 -0.52,0 -0.52,0l0 0z"/>
   </clipPath>
   <clipPath id="id13">
    <path d="M0.51 7568.81l0 -573.77c6.62,0 13.23,0 19.84,0l0 573.77c-6.61,0 -13.22,0 -19.84,0l0 0z"/>
   </clipPath>
   <clipPath id="id14">
    <path d="M0.51 13099.12l0 -3100.91 0 -2428.73c6.62,0 13.23,0 19.84,0l0 2414.46 0 3043.84c-6.61,23.78 -13.22,47.56 -19.84,71.34l0 0z"/>
   </clipPath>
   <clipPath id="id15">
    <path d="M20.35 6994.9c-6.61,0 -13.22,0 -19.84,0l0 -2974.21 0 -3003.21c6.62,71.67 13.23,145.04 19.84,216.71l0 5760.71 0 0z"/>
   </clipPath>
 </defs>
 <g id="Layer_x0020_1">
  <metadata id="CorelCorpID_0Corel-Layer"/>
  <path class="fil0" d="M9624.92 1.72l-9237.02 0c0,0 -387.38,10.58 -387.38,523.57l0 12969.86c0,512.94 387.38,523.42 387.38,523.42l9237.02 0c0,0 387.38,-10.48 387.38,-523.42l0 -12969.86c0,-512.99 -387.38,-523.57 -387.38,-523.57z"/>
  <g style="clip-path:url(#id0)">
   <image x="-6.6" y="7534.6" width="10031.1" height="6508.11" xlink:href="7_Images\7_ImgID1.png"/>
  </g>
  <g style="clip-path:url(#id1)">
   <image x="-6.6" y="0.6" width="10031.1" height="7031.73" xlink:href="7_Images\7_ImgID2.png"/>
  </g>
  <g style="clip-path:url(#id2)">
   <image x="9576.12" y="-19.73" width="463.63" height="13925.19" xlink:href="7_Images\7_ImgID3.png"/>
  </g>
  <g style="clip-path:url(#id3)">
   <image x="9967.56" y="6975.4" width="72.18" height="616.14" xlink:href="7_Images\7_ImgID4.png"/>
  </g>
  <g style="clip-path:url(#id4)">
   <image x="247.59" y="7534.6" width="9792.16" height="6508.11" xlink:href="7_Images\7_ImgID5.png"/>
  </g>
  <g style="clip-path:url(#id5)">
   <image x="364.51" y="13985.78" width="56.93" height="56.94" xlink:href="7_Images\7_ImgID6.png"/>
  </g>
  <g style="clip-path:url(#id6)">
   <image x="9576.12" y="-19.73" width="463.63" height="7052.07" xlink:href="7_Images\7_ImgID7.png"/>
  </g>
  <g style="clip-path:url(#id7)">
   <image x="-6.6" y="6960.15" width="56.93" height="631.39" xlink:href="7_Images\7_ImgID8.png"/>
  </g>
  <g style="clip-path:url(#id8)">
   <image x="-26.93" y="7534.6" width="448.38" height="6508.11" xlink:href="7_Images\7_ImgID9.png"/>
  </g>
  <g style="clip-path:url(#id9)">
   <image x="-26.93" y="-19.73" width="9797.25" height="7036.81" xlink:href="7_Images\7_ImgID10.png"/>
  </g>
  <g style="clip-path:url(#id10)">
   <image x="161.17" y="13919.69" width="275.53" height="123.03" xlink:href="7_Images\7_ImgID11.png"/>
  </g>
  <g style="clip-path:url(#id11)">
   <image x="9576.12" y="-19.73" width="275.53" height="128.11" xlink:href="7_Images\7_ImgID12.png"/>
  </g>
  <g style="clip-path:url(#id12)">
   <image x="-26.93" y="981.75" width="56.93" height="12145.9" xlink:href="7_Images\7_ImgID13.png"/>
  </g>
  <g style="clip-path:url(#id13)">
   <image x="-26.93" y="6960.15" width="77.27" height="631.39" xlink:href="7_Images\7_ImgID14.png"/>
  </g>
  <g style="clip-path:url(#id14)">
   <image x="-26.93" y="7534.6" width="77.27" height="5593.05" xlink:href="7_Images\7_ImgID15.png"/>
  </g>
  <g style="clip-path:url(#id15)">
   <image x="-26.93" y="997" width="77.27" height="6020.08" xlink:href="7_Images\7_ImgID16.png"/>
  </g>
  <path class="fil1" d="M1253.14 2623.07l0 -0.16 -0.51 0c-253.17,-140.46 -456.01,-566.17 -463.12,-579.84l0 -0.31 0 0.11 0 -0.11 0 0.31c-6.1,13.67 -209.45,439.38 -462.62,579.84l0 0.21c253.17,140.51 456.52,566.32 462.62,579.89l0 0.36 0 -0.21 0 0.21 0 -0.36c7.11,-13.57 209.95,-439.38 463.12,-579.89l0.51 0 0 -0.05z"/>
  <path class="fil1" d="M1178.41 644.45l-514.98 1171.89 -128.61 0 0 -43.37 477.35 -1009.92 0 -13.27 -389.41 0c-24.4,0 -43.72,2.24 -57.95,6.61 -14.74,4.43 -26.44,10.83 -36.6,19.02 -9.66,8.28 -17.8,19.21 -24.41,32.79 -6.6,13.57 -15.25,40.41 -26.43,80.57l-76.26 0 17.8 -286.82 759.5 0 0 42.5z"/>
  <path class="fil1" d="M8763.75 11367.08l0 0.1c253.17,140.51 456.51,566.22 462.61,579.89l0 0.31 0 -0.1 0.51 0.1 0 -0.31c6.1,-13.67 208.94,-439.38 462.62,-579.89l0 0 0 -0.15 0 0c-253.68,-140.52 -456.52,-566.32 -462.62,-579.9l0 -0.35 -0.51 0.15 0 -0.15 0 0.35c-6.1,13.58 -209.44,439.38 -462.61,579.9l0 0.05z"/>
  <path class="fil1" d="M8837.97 13345.69l514.98 -1171.83 128.61 0 0 43.31 -476.84 1009.92 0 13.32 389.41 0c23.89,0 43.21,-2.29 57.95,-6.66 14.23,-4.42 26.43,-10.83 36.09,-19.01 9.66,-8.29 17.8,-19.17 24.4,-32.79 6.1,-13.53 15.26,-40.42 26.44,-80.53l76.25 0 -17.79 286.72 -759.5 0 0 -42.45z"/>
  <path class="fil1" d="M7777.01 11216.75l0 -0.05 0 0c-503.28,-278.94 -905.91,-1124 -918.62,-1151.09l0 -0.56 0 0.3 0 -0.3 -0.51 0.56c-12.71,27.09 -415.33,872.15 -918.11,1151.09l-0.51 0 0 0.15 0.51 0c502.78,278.89 905.4,1123.95 918.11,1151l0.51 0.66 0 -0.36 0 0.36 0 -0.66c12.71,-27.05 415.34,-872.11 918.62,-1151l0 0 0 -0.1z"/>
  <path class="fil1" d="M7777.01 2808.52l0 -0.1 0 0c-503.28,-278.89 -905.91,-1124 -918.62,-1151.05l0 -0.61 0 0.31 0 -0.31 -0.51 0.61c-12.71,27.05 -415.33,872.16 -918.11,1151.05l-0.51 0 0 0.25 0.51 0c502.78,278.79 905.4,1123.85 918.11,1150.89l0.51 0.71 0 -0.35 0 0.35 0 -0.71c12.71,-27.04 415.34,-872.1 918.62,-1150.89l0 0 0 -0.15z"/>
  <path class="fil1" d="M7777.01 7034.72l0 -0.15 0 0c-503.28,-278.84 -905.91,-1123.95 -918.62,-1151.04l0 -0.61 0 0.35 0 -0.35 -0.51 0.61c-12.71,27.09 -415.33,872.2 -918.11,1151.04l-0.51 0 0 0.26 0.51 0c502.78,278.83 905.4,1123.94 918.11,1150.94l0.51 0.71 0 -0.36 0 0.36 0 -0.71c12.71,-27 415.34,-872.11 918.62,-1150.94l0 0 0 -0.11z"/>
  <path class="fil1" d="M5927.57 4937.56l0 -0.15 -0.51 0c-502.26,-278.95 -905.4,-1124 -918.11,-1151.05l0 -0.56 0 0.26 -0.51 -0.26 0 0.56c-12.71,27.05 -415.33,872.1 -918.11,1151.05l-0.51 0 0 0.2 0.51 0c502.78,278.89 905.4,1123.9 918.11,1150.94l0 0.71 0.51 -0.35 0 0.35 0 -0.71c12.71,-27.04 415.85,-872.05 918.11,-1150.94l0.51 0 0 -0.05z"/>
  <path class="fil1" d="M4078.13 11216.75l0 -0.05 0 0c-502.77,-278.94 -905.91,-1124 -918.62,-1151.09l0 -0.56 0 0.3 0 -0.3 0 0.56c-13.21,27.09 -415.84,872.15 -918.62,1151.09l-0.5 0 0.5 0.05 -0.5 0.1 0.5 0c502.78,278.89 905.41,1123.95 918.62,1151l0 0.66 0 -0.36 0 0.36 0 -0.66c12.71,-27.05 415.85,-872.11 918.62,-1151l0 0 0 -0.1z"/>
  <path class="fil1" d="M4078.13 2808.52l0 -0.1 0 0c-502.77,-278.89 -905.91,-1124 -918.62,-1151.05l0 -0.61 0 0.31 0 -0.31 0 0.61c-13.21,27.05 -415.84,872.16 -918.62,1151.05l-0.5 0 0.5 0.1 -0.5 0.15 0.5 0c502.78,278.79 905.41,1123.85 918.62,1150.89l0 0.71 0 -0.35 0 0.35 0 -0.71c12.71,-27.04 415.85,-872.1 918.62,-1150.89l0 0 0 -0.15z"/>
  <path class="fil1" d="M4078.13 7034.72l0 -0.15 0 0c-502.77,-278.84 -905.91,-1123.95 -918.62,-1151.04l0 -0.61 0 0.35 0 -0.35 0 0.61c-13.21,27.09 -415.84,872.2 -918.62,1151.04l-0.5 0 0.5 0 -0.5 0.26 0.5 0c502.78,278.83 905.41,1123.94 918.62,1150.94l0 0.71 0 -0.36 0 0.36 0 -0.71c12.71,-27 415.85,-872.11 918.62,-1150.94l0 0 0 -0.11z"/>
 </g>
</svg>
