<?xml version="1.0" encoding="UTF-8"?>
<!DOCTYPE svg PUBLIC "-//W3C//DTD SVG 1.1//EN" "http://www.w3.org/Graphics/SVG/1.1/DTD/svg11.dtd">
<!-- Creator: CorelDRAW -->
<svg xmlns="http://www.w3.org/2000/svg" xml:space="preserve" width="100%" height="100%" version="1.1" style="shape-rendering:geometricPrecision; text-rendering:geometricPrecision; image-rendering:optimizeQuality; fill-rule:evenodd; clip-rule:evenodd"
viewBox="0 0 10013.93 14017.24"
 xmlns:xlink="http://www.w3.org/1999/xlink"
 xmlns:xodm="http://www.corel.com/coreldraw/odm/2003">
 <defs>
  <style type="text/css">
   <![CDATA[
    .fil0 {fill:#FEFEFE;fill-rule:nonzero}
    .fil1 {fill:#E42D24;fill-rule:nonzero}
   ]]>
  </style>
   <clipPath id="id0">
    <path d="M9625.53 14017.24c0,0 170.6,-5.53 284.33,-156.8 -113.73,151.27 -284.33,156.8 -284.33,156.8zm-19.9 -20.29l-4435.52 0 -378.15 0 -4432.68 0c0,0 -39.8,-1.84 -90.98,-18.44 -110.89,-53.5 -247.37,-180.79 -247.37,-483.32l0 0 0 -3492.02 0 -2435.01c1961.86,-1.84 3920.89,-1.84 5882.75,-3.69 1361.93,0 2726.71,0 4088.64,0l0 2418.41 0 3492.02 0 0c0,510.98 -386.69,522.05 -386.69,522.05l0 0z"/>
   </clipPath>
   <clipPath id="id1">
    <path d="M9992.32 6997.11c-59.71,0 -119.42,0 -179.13,0 -2428.16,0 -4856.32,0 -7284.49,-1.99 -835.92,0 -1671.84,0 -2507.77,-1.99l0 -2957.8 0 -3491.94c0,-512.24 386.69,-522.2 386.69,-522.2l4435.52 0 378.15 0 4432.68 0c0,0 39.8,0 90.98,17.94 110.89,53.81 247.37,181.37 247.37,484.32l0 0 0 3489.96 0 2983.7 0 0z"/>
   </clipPath>
   <clipPath id="id2">
    <path d="M9909.88 13859.28c58.61,-74.88 102.77,-193.12 102.77,-366.54l0 -5927.69 0 0 0 -567.54 0 0 0 -6475.53 0 0c0,-512.37 -387.41,-520.25 -387.41,-520.25l-19.06 0c-1.18,0 -1.71,0 -1.71,0l20.77 0c0,0 387.41,7.88 387.41,520.25l0 3499.86 0 5974.98 0 3495.92c0,173.42 -44.16,291.66 -102.77,366.54l0 0z"/>
   </clipPath>
   <clipPath id="id3">
    <path d="M9992.38 7564.8l0 -567.59 20.27 0 0 567.59 -20.27 0 0 0z"/>
   </clipPath>
   <clipPath id="id4">
    <path d="M9625.35 14017.24l-4429.78 0 -377.48 0 -4410.36 0c0,0 -63.84,-1.84 -138.78,-38.73 49.96,16.6 88.82,18.44 88.82,18.44l4435.34 0 377.48 0 4432.56 0c0,0 388.58,-11.07 388.58,-522.05l0 0 0 0 0 -3492.02 0 -2418.41c8.32,0 13.88,0 22.2,0l0 2433.17 0 3495.71c0,173.4 -44.41,289.62 -102.69,367.09 -116.58,151.27 -285.89,156.8 -285.89,156.8l0 0 0 0z"/>
   </clipPath>
   <clipPath id="id5">
    <path d="M10012.65 6997.04c-6.71,0 -13.54,0 -20.24,0l0 -2982.18 0 -3491.53 0 0c0,-303.61 -136.15,-431.45 -247.19,-485.38 25.36,9.99 53.88,21.97 83.18,37.95l0 0 0 0 0 0c-100,-71.91 -203.16,-75.9 -203.16,-75.9l-19.06 0 0 0 19.06 0c0,0 387.41,9.98 387.41,523.33l0 3497.52 0 2976.19 0 0z"/>
   </clipPath>
   <clipPath id="id6">
    <path d="M20.61 7567.42l0 -573.87 0.3 0 0 573.87 -0.3 0 0 0z"/>
   </clipPath>
   <clipPath id="id7">
    <path d="M388.06 14017.24c0,0 -387.38,-11.06 -387.38,-523.89l0 -394.77c6.61,-23.98 13.22,-47.96 19.83,-71.94l0.12 -3043.76 0 -2414.72c0.13,0 0.13,0 0.26,0l0 2435.01 0 3492.02 0 0c0,302.53 136.37,429.82 247.45,483.32 -25.42,-7.38 -54.02,-20.3 -83.38,-36.9l0 0c99.9,71.95 203.1,75.63 203.1,75.63l0 0z"/>
   </clipPath>
   <clipPath id="id8">
    <path d="M22.22 6993.05c-2.78,0 -2.78,0 -2.78,0l0 -5760.63c-5.56,-71.91 -11.11,-143.82 -19.44,-215.72l0 -493.37c0,-513.35 388.78,-523.33 388.78,-523.33l4429.31 0 377.67 0 4409.87 0c11.11,0 69.43,5.99 138.85,37.95 -49.98,-15.98 -88.86,-17.98 -88.86,-17.98l-4434.87 0 -377.67 0 -4434.86 0c0,0 -386,11.99 -386,523.33l0 3491.53 0 2958.22 0 0z"/>
   </clipPath>
   <clipPath id="id9">
    <path d="M408.8 14017.17l-20.69 0 0 0c0,0 -103.17,-3 -203.06,-76.23 29.29,17.54 57.95,29.61 83.25,37.83 76.23,36.62 140.5,38.4 140.5,38.4l0 0z"/>
   </clipPath>
   <clipPath id="id10">
    <path d="M9828.37 76.62c-29.29,-17.47 -57.88,-29.53 -83.1,-37.87 -69.12,-33.23 -128.48,-37.83 -139.1,-38.39l18.98 0c0,0 103.25,3 203.22,76.26l0 0z"/>
   </clipPath>
   <clipPath id="id11">
    <path d="M0.31 13100.22l0 -12087.37c0.07,0 0.16,3.44 0.33,3.44l0.04 3005.49 0 5976.55 0 3098.45c-0.16,3.44 -0.25,3.44 -0.37,3.44l0 0z"/>
   </clipPath>
   <clipPath id="id12">
    <path d="M0.68 7567.42l0 -573.87c6.61,0 13.31,0 19.93,0l0 573.87c-6.62,0 -13.32,0 -19.93,0l0 0z"/>
   </clipPath>
   <clipPath id="id13">
    <path d="M0.68 13097.37l0 -3099.33 0 -2430.31c6.61,0 13.31,0 19.93,0l0 2414.46 -0.05 3043.84c-6.72,23.78 -13.27,47.56 -19.88,71.34l0 0z"/>
   </clipPath>
   <clipPath id="id14">
    <path d="M20.61 6993.08c-6.62,0 -13.32,0 -19.93,0l0 -2973.19 -0.05 -3003.98c6.55,71.85 13.17,143.7 19.98,215.55l0 5761.62 0 0z"/>
   </clipPath>
 </defs>
 <g id="Layer_x0020_1">
  <metadata id="CorelCorpID_0Corel-Layer"/>
  <path class="fil0" d="M9625.18 0.37l-9237.07 0c0,0 -387.48,10.47 -387.48,523.52l0.05 3496.24 0 9473.66c0,512.87 387.43,523.38 387.43,523.38l9237.07 0c0,0 387.48,-10.51 387.48,-523.38l0 -12969.9c0,-513.05 -387.48,-523.52 -387.48,-523.52z"/>
  <g style="clip-path:url(#id0)">
   <image x="-4.66" y="7531.27" width="10031.1" height="6508.11" xlink:href="9_Images\9_ImgID1.png"/>
  </g>
  <g style="clip-path:url(#id1)">
   <image x="-4.66" y="-2.73" width="10031.1" height="7031.73" xlink:href="9_Images\9_ImgID2.png"/>
  </g>
  <g style="clip-path:url(#id2)">
   <image x="9578.06" y="-17.98" width="463.63" height="13904.85" xlink:href="9_Images\9_ImgID3.png"/>
  </g>
  <g style="clip-path:url(#id3)">
   <image x="9969.5" y="6972.06" width="72.19" height="616.14" xlink:href="9_Images\9_ImgID4.png"/>
  </g>
  <g style="clip-path:url(#id4)">
   <image x="249.52" y="7531.27" width="9792.16" height="6508.11" xlink:href="9_Images\9_ImgID5.png"/>
  </g>
  <g style="clip-path:url(#id5)">
   <image x="9578.06" y="-17.98" width="463.63" height="7046.98" xlink:href="9_Images\9_ImgID6.png"/>
  </g>
  <g style="clip-path:url(#id6)">
   <image x="-4.66" y="6972.06" width="56.94" height="616.14" xlink:href="9_Images\9_ImgID7.png"/>
  </g>
  <g style="clip-path:url(#id7)">
   <image x="-24.99" y="7531.27" width="448.38" height="6508.11" xlink:href="9_Images\9_ImgID8.png"/>
  </g>
  <g style="clip-path:url(#id8)">
   <image x="-24.99" y="-17.98" width="9797.25" height="7046.98" xlink:href="9_Images\9_ImgID9.png"/>
  </g>
  <g style="clip-path:url(#id9)">
   <image x="163.1" y="13916.36" width="275.54" height="123.02" xlink:href="9_Images\9_ImgID10.png"/>
  </g>
  <g style="clip-path:url(#id10)">
   <image x="9578.06" y="-17.98" width="275.54" height="123.03" xlink:href="9_Images\9_ImgID11.png"/>
  </g>
  <g style="clip-path:url(#id11)">
   <image x="-24.99" y="978.42" width="56.94" height="12145.9" xlink:href="9_Images\9_ImgID12.png"/>
  </g>
  <g style="clip-path:url(#id12)">
   <image x="-24.99" y="6972.06" width="77.27" height="616.14" xlink:href="9_Images\9_ImgID13.png"/>
  </g>
  <g style="clip-path:url(#id13)">
   <image x="-24.99" y="7531.27" width="77.27" height="5593.05" xlink:href="9_Images\9_ImgID14.png"/>
  </g>
  <g style="clip-path:url(#id14)">
   <image x="-24.99" y="993.67" width="77.27" height="6035.33" xlink:href="9_Images\9_ImgID15.png"/>
  </g>
  <path class="fil1" d="M1296.66 2621.66l0 -0.05 -0.1 -0.05c-253.37,-140.46 -456.31,-566.22 -462.82,-579.89l0 -0.31 0 0.16 -0.15 -0.16 0 0.31c-6.46,13.67 -209.35,439.43 -462.72,579.89l-0.2 0 0.15 0.1 -0.15 0.11 0.2 0c253.37,140.51 456.26,566.27 462.72,579.89l0 0.36 0.15 -0.21 0 0.21 0 -0.36c6.51,-13.62 209.45,-439.38 462.82,-579.89l0.1 0 0 -0.11z"/>
  <path class="fil1" d="M806.69 1252.07c22.37,0 43.83,-1.93 64.16,-5.79 20.39,-3.87 40.26,-9.46 59.78,-16.78 19.42,-7.42 38.49,-16.93 57.09,-28.37 18.56,-11.54 35.23,-23.74 49.98,-36.65 5.28,-4.83 10.01,-10.98 14.23,-18.66 4.07,-7.62 7.32,-17.69 9.66,-30.09 2.39,-12.41 3.56,-31.88 3.56,-58.41 0,-80.83 -8.14,-150.02 -24.35,-207.62 -16.22,-57.5 -40.98,-100.86 -74.33,-130.04 -33.34,-29.23 -74.52,-43.92 -123.48,-43.92 -44.28,0 -81.74,7.77 -112.45,23.08 -30.65,15.3 -55.61,36.4 -74.78,63.24 -19.11,26.84 -33.14,58.51 -42.04,94.76 -8.85,36.29 -13.27,75.64 -13.27,118.14 0,87.95 17.95,156.02 53.99,204.52 35.99,48.34 86.78,72.59 152.25,72.59zm-184.07 536.33l0 -43.36c82.55,0 154.13,-18.36 214.58,-54.91 60.49,-36.55 109.19,-90.69 146.1,-162.37 36.81,-71.78 61.46,-165.68 73.87,-281.94l-8.8 -3.51c-49.56,35.44 -98.42,61.36 -146.51,77.88 -48.14,16.53 -100.15,24.76 -156.22,24.76 -66.7,0 -123.48,-14.64 -170.35,-43.82 -46.98,-29.18 -82.26,-70.21 -105.79,-123.08 -23.59,-52.71 -35.44,-114.58 -35.44,-185.35 0,-53.12 8.85,-103.45 26.59,-150.98 17.69,-47.43 43.92,-89.02 78.69,-124.81 34.88,-35.63 78.39,-64 130.6,-84.89 52.26,-20.95 113.17,-31.47 182.76,-31.47 123.94,0 218.29,42.75 283.26,128.41 64.92,85.56 97.36,208.54 97.36,369.08 0,146.86 -23.9,274.21 -71.68,381.93 -47.84,107.73 -114.79,191.45 -200.91,251.34 -86.17,59.94 -186.82,95.17 -301.82,105.79l-36.29 -48.7z"/>
  <path class="fil1" d="M8761.01 11365.72l-0.1 0.09 0.15 0c253.37,140.48 456.26,566.2 462.82,579.88l0 0.28 0 -0.1 0.1 0.1 0 -0.28c6.46,-13.68 209.45,-439.4 462.72,-579.88l0.25 0 -0.15 -0.09 0.15 -0.06 -0.25 0c-253.27,-140.52 -456.26,-566.29 -462.72,-579.94l0 -0.36 -0.1 0.22 0 -0.22 0 0.36c-6.56,13.65 -209.45,439.42 -462.82,579.94l-0.15 0 0.1 0.06z"/>
  <path class="fil1" d="M9250.87 12735.31c-22.37,0 -43.77,1.94 -64.15,5.76 -20.39,3.87 -40.27,9.49 -59.79,16.86 -19.37,7.37 -38.48,16.82 -56.99,28.3 -18.65,11.53 -35.33,23.77 -50.07,36.71 -5.29,4.77 -10.01,10.95 -14.13,18.63 -4.17,7.62 -7.37,17.67 -9.71,30.08 -2.44,12.44 -3.61,31.9 -3.61,58.37 0,80.88 8.13,150.06 24.35,207.59 16.22,57.59 41.08,100.94 74.37,130.15 33.3,29.14 74.48,43.85 123.43,43.85 44.28,0 81.75,-7.72 112.51,-23.04 30.6,-15.34 55.56,-36.44 74.73,-63.28 19.16,-26.89 33.24,-58.47 42.04,-94.77 8.89,-36.3 13.27,-75.6 13.27,-118.17 0,-87.91 -18,-156.01 -53.99,-204.44 -35.99,-48.35 -86.73,-72.6 -152.26,-72.6zm184.18 -536.33l0 43.35c-82.66,0 -154.18,18.31 -214.68,54.93 -60.5,36.48 -109.2,90.67 -146.1,162.36 -36.81,71.71 -61.47,165.66 -73.87,281.96l8.85 3.48c49.61,-35.39 98.42,-61.36 146.46,-77.86 48.14,-16.53 100.25,-24.77 156.32,-24.77 66.65,0 123.43,14.6 170.35,43.85 46.92,29.13 82.15,70.12 105.74,123 23.64,52.74 35.44,114.62 35.44,185.4 0,53.1 -8.9,103.39 -26.59,150.96 -17.69,47.44 -43.98,89.02 -78.75,124.76 -34.87,35.67 -78.29,64.06 -130.6,85 -52.21,20.91 -113.16,31.39 -182.75,31.39 -123.89,0 -218.3,-42.73 -283.27,-128.34 -64.81,-85.59 -97.3,-208.61 -97.3,-369.08 0,-146.89 23.89,-274.25 71.68,-381.95 47.79,-107.72 114.74,-191.45 200.91,-251.33 86.17,-59.93 186.77,-95.18 301.87,-105.82l36.29 48.71z"/>
  <path class="fil1" d="M7773.05 11212.93l0.15 -0.14 -0.35 0c-502.83,-278.91 -905.56,-1123.99 -918.42,-1151.05l0 -0.6 -0.15 0.28 -0.1 -0.28 -0.05 0.6c-12.82,27.06 -415.75,872.14 -918.37,1151.05l-0.41 0 0.16 0 -0.16 0.24 0.41 0c502.62,278.84 905.55,1123.89 918.37,1150.95l0.05 0.66 0.1 -0.34 0.15 0.34 0 -0.66c12.86,-27.06 415.59,-872.11 918.42,-1150.95l0.35 0 -0.15 -0.1z"/>
  <path class="fil1" d="M7773.05 2804.68l0.15 -0.16 -0.35 0c-502.83,-278.89 -905.56,-1123.95 -918.42,-1151.04l0 -0.61 -0.15 0.25 -0.1 -0.25 -0.05 0.61c-12.82,27.09 -415.75,872.15 -918.37,1151.04l-0.41 0 0.16 0.16 -0.16 0.1 0.41 0c502.62,278.84 905.55,1123.84 918.37,1150.94l0.05 0.71 0.1 -0.4 0.15 0.4 0 -0.71c12.86,-27.1 415.59,-872.1 918.42,-1150.94l0.35 0 -0.15 -0.1z"/>
  <path class="fil1" d="M7773.05 8410.18l0.15 -0.15 -0.35 0c-502.83,-278.89 -905.56,-1123.95 -918.42,-1150.99l0 -0.61 -0.15 0.3 -0.1 -0.3 -0.05 0.61c-12.82,27.04 -415.75,872.1 -918.37,1150.99l-0.41 0 0.16 0 -0.16 0.25 0.41 0c502.62,278.84 905.55,1123.93 918.37,1150.93l0.05 0.72 0.1 -0.36 0.15 0.36 0 -0.72c12.86,-27 415.59,-872.09 918.42,-1150.93l0.35 0 -0.15 -0.1z"/>
  <path class="fil1" d="M7773.05 5607.45l0.15 -0.15 -0.35 0c-502.83,-278.89 -905.56,-1123.95 -918.42,-1151.04l0 -0.56 -0.15 0.25 -0.1 -0.25 -0.05 0.56c-12.82,27.09 -415.75,872.15 -918.37,1151.04l-0.41 0 0.16 0 -0.16 0.26 0.41 0c502.62,278.79 905.55,1123.89 918.37,1150.89l0.05 0.76 0.1 -0.35 0.15 0.35 0 -0.76c12.86,-27 415.59,-872.1 918.42,-1150.89l0.35 0 -0.15 -0.11z"/>
  <path class="fil1" d="M4074.22 11212.93l0.16 -0.14 -0.36 0c-502.83,-278.91 -905.55,-1123.99 -918.42,-1151.05l0 -0.6 -0.15 0.28 -0.1 -0.28 -0.05 0.6c-12.86,27.06 -415.74,872.14 -918.37,1151.05l-0.4 0 0.15 0.14 -0.15 0.1 0.4 0c502.63,278.84 905.51,1123.89 918.37,1150.95l0.05 0.66 0.1 -0.34 0.15 0.34 0 -0.66c12.87,-27.06 415.59,-872.11 918.42,-1150.95l0.36 0 -0.16 -0.1z"/>
  <path class="fil1" d="M4074.22 2804.68l0.16 -0.16 -0.36 0c-502.83,-278.89 -905.55,-1123.95 -918.42,-1151.04l0 -0.61 -0.15 0.25 -0.1 -0.25 -0.05 0.61c-12.86,27.09 -415.74,872.15 -918.37,1151.04l-0.4 0 0.15 0.16 -0.15 0.1 0.4 0c502.63,278.84 905.51,1123.84 918.37,1150.94l0.05 0.71 0.1 -0.4 0.15 0.4 0 -0.71c12.87,-27.1 415.59,-872.1 918.42,-1150.94l0.36 0 -0.16 -0.1z"/>
  <path class="fil1" d="M4074.22 8410.18l0.16 -0.15 -0.36 0c-502.83,-278.89 -905.55,-1123.95 -918.42,-1150.99l0 -0.61 -0.15 0.3 -0.1 -0.3 -0.05 0.61c-12.86,27.04 -415.74,872.1 -918.37,1150.99l-0.4 0 0.15 0.15 -0.15 0.1 0.4 0c502.63,278.84 905.51,1123.93 918.37,1150.93l0.05 0.72 0.1 -0.36 0.15 0.36 0 -0.72c12.87,-27 415.59,-872.09 918.42,-1150.93l0.36 0 -0.16 -0.1z"/>
  <path class="fil1" d="M4074.22 5607.45l0.16 -0.15 -0.36 0c-502.83,-278.89 -905.55,-1123.95 -918.42,-1151.04l0 -0.56 -0.15 0.25 -0.1 -0.25 -0.05 0.56c-12.86,27.09 -415.74,872.15 -918.37,1151.04l-0.4 0 0.15 0.15 -0.15 0.11 0.4 0c502.63,278.79 905.51,1123.89 918.37,1150.89l0.05 0.76 0.1 -0.35 0.15 0.35 0 -0.76c12.87,-27 415.59,-872.1 918.42,-1150.89l0.36 0 -0.16 -0.11z"/>
  <path class="fil1" d="M5923.66 6874l0.15 -0.1 -0.35 0c-502.78,-278.89 -905.5,-1123.95 -918.47,-1150.99l0 -0.61 -0.1 0.25 -0.1 -0.25 -0.05 0.61c-12.81,27.04 -415.69,872.1 -918.37,1150.99l-0.4 0 0.15 0.1 -0.15 0.15 0.4 0c502.68,278.84 905.56,1123.85 918.37,1150.89l0.05 0.77 0.1 -0.36 0.1 0.36 0 -0.77c12.97,-27.04 415.69,-872.05 918.47,-1150.89l0.35 0 -0.15 -0.15z"/>
 </g>
</svg>
