<?xml version="1.0" encoding="UTF-8"?>
<!DOCTYPE svg PUBLIC "-//W3C//DTD SVG 1.1//EN" "http://www.w3.org/Graphics/SVG/1.1/DTD/svg11.dtd">
<!-- Creator: CorelDRAW -->
<svg xmlns="http://www.w3.org/2000/svg" xml:space="preserve" width="100%" height="100%" version="1.1" style="shape-rendering:geometricPrecision; text-rendering:geometricPrecision; image-rendering:optimizeQuality; fill-rule:evenodd; clip-rule:evenodd"
viewBox="0 0 8705.67 12187.76"
 xmlns:xlink="http://www.w3.org/1999/xlink"
 xmlns:xodm="http://www.corel.com/coreldraw/odm/2003">
 <defs>
  <style type="text/css">
   <![CDATA[
    .fil0 {fill:#FEFEFE;fill-rule:nonzero}
    .fil1 {fill:#E63A2B;fill-rule:nonzero}
   ]]>
  </style>
   <clipPath id="id0">
    <path d="M8368.29 12187.42c0,0 136.04,-3.21 234.97,-120.38 -98.93,117.17 -234.97,120.38 -234.97,120.38zm-17.31 -17.65l-3855.9 0 -328.96 0 -3853.43 0c0,0 -34.62,0 -79.14,-16.05 -96.46,-46.55 -215.18,-155.7 -215.18,-420.54l0 0 0 -3035.27 0 -2117.15c1704.12,-1.6 3410.71,-1.6 5114.82,-1.6 1184.72,-1.61 2369.44,-1.61 3554.16,-1.61l0 2102.7 0 3035.27 0 0c0,446.22 -336.37,454.25 -336.37,454.25zm252.28 -102.73c0,0 0,0 0,0 0,0 0,0 0,0l0 0z"/>
   </clipPath>
   <clipPath id="id1">
    <path d="M8687.35 6083.96c-51.94,0 -103.88,0 -155.82,0 -2109.74,0 -4221.95,0 -6334.17,-1.73 -724.68,0 -1451.84,0 -2178.99,0l0 -2573.49 0 -3034.77c0,-445.68 336.37,-454.35 336.37,-454.35l3855.9 0 328.96 0 3855.9 0c0,0 32.15,0 76.67,15.61 96.46,46.82 215.18,156.07 215.18,419.67l0 0 0 3036.5 0 2592.56 0 0z"/>
   </clipPath>
   <clipPath id="id2">
    <path d="M8603.57 12067.9c0.11,0 0.23,0 0.35,0 -0.12,0 -0.24,0 -0.35,0zm0.93 0c56.63,-68.69 101,-171.71 101,-336.56l0 -5154.78 0 0 0 -491.09 0 0 0 -5628.71 0 0c0,-446.45 -336.86,-456.76 -336.86,-456.76l-17.16 0c-0.47,0 -0.82,0 -0.82,0l17.98 0c0,0 336.98,10.31 336.98,456.76l0 3039.29 0 5196 0 3039.29c0,164.85 -44.49,267.87 -101.12,336.56l0 0z"/>
   </clipPath>
   <clipPath id="id3">
    <path d="M8687.95 6578.01l0 -493.45 17.58 0 0 493.45 -17.58 0 0 0z"/>
   </clipPath>
   <clipPath id="id4">
    <path d="M8367.47 12187.42l-3850.61 0 -328.53 0 -3833.7 0c0,0 -55.56,-1.6 -120.79,-33.7 45.9,16.05 77.3,16.05 77.3,16.05l3855.45 0 328.53 0 3855.44 0c0,0 338.2,-8.03 338.2,-454.25l0 0 0 0 0 -3035.27 0 -2102.7c4.83,0 12.07,0 16.91,0l0 2115.54 0 3040.09c0,162.11 -43.49,266.45 -101.46,333.86 0,0 0,0 0,0 0,0 0,0 0,0 -99.05,117.17 -236.74,120.38 -236.74,120.38l0 0 0 0z"/>
   </clipPath>
   <clipPath id="id5">
    <path d="M8705.5 6083.87c-5.84,0 -11.68,0 -17.51,0l0 -2593.09 0 -3034.85 0 0c0,-264.35 -118.4,-373.92 -214.96,-420.88 21.95,6.96 46.82,17.39 72.27,33.05l0 0 0 0 0 0c-86.87,-64.35 -176.66,-66.09 -176.66,-66.09l-17.16 0 0 0 17.16 0c0,0 336.86,8.69 336.86,453.92l0 3040.06 0 2587.88 0 0z"/>
   </clipPath>
   <clipPath id="id6">
    <path d="M18.36 6580.17l0 -498.7 0.21 0 0 498.7 -0.21 0 0 0z"/>
   </clipPath>
   <clipPath id="id7">
    <path d="M337.89 12187.42c0,0 -336.93,-8.02 -336.93,-454.24l0 -345.1c5.81,-20.87 11.51,-41.73 17.32,-62.6l0.11 -2645.23 0 -2099.49c0,0 0.11,0 0.22,0l0 2117.15 0 3035.27 0 0c0,264.84 118.46,373.99 214.9,420.54 -21.9,-6.42 -46.82,-17.66 -72.19,-32.1l0 0c86.83,64.2 176.57,65.8 176.57,65.8l0 0z"/>
   </clipPath>
   <clipPath id="id8">
    <path d="M19.32 6082.13c0,0 0,0 0,0l0 -5010.54c-7.24,-60.87 -12.08,-123.48 -19.32,-186.09l0 -429.57c0,-445.23 338.19,-453.92 338.19,-453.92l3850.61 0 328.54 0 3833.7 0c7.24,0 60.39,3.48 123.2,33.04 -45.9,-15.65 -79.72,-15.65 -79.72,-15.65l-3855.44 0 -328.54 0 -3855.44 0c0,0 -335.78,8.7 -335.78,453.92l0 3034.85 0 2573.96 0 0z"/>
   </clipPath>
   <clipPath id="id9">
    <path d="M355.79 12187.76l-17.93 0 0 0c0,0 -89.77,-2.62 -176.55,-66.28 25.4,15.22 50.25,25.72 72.25,32.89 66.34,31.87 122.23,33.39 122.23,33.39l0 0z"/>
   </clipPath>
   <clipPath id="id10">
    <path d="M8545.31 67.65c-25.44,-15.18 -50.31,-25.68 -72.25,-32.86 -61.69,-29.71 -114.41,-33.11 -121.55,-33.41l17.13 0c0,0 89.76,2.55 176.67,66.27l0 0z"/>
   </clipPath>
   <clipPath id="id11">
    <path d="M0.68 11390.77l0 -10509.44c0.06,2.99 0.16,2.99 0.24,2.99l0.05 2610.92 0 5197.89 0 2694.65c-0.08,0 -0.23,2.99 -0.29,2.99l0 0z"/>
   </clipPath>
   <clipPath id="id12">
    <path d="M0.98 6580.17l0 -498.7 17.37 0 0 498.7 -17.37 0 0 0z"/>
   </clipPath>
   <clipPath id="id13">
    <path d="M0.98 11388.51l0 -2696.06 0 -2111.64c5.73,0 11.62,0 17.37,0l0 2099.24 -0.04 2646.44c-5.88,20.67 -11.53,41.35 -17.33,62.02l0 0z"/>
   </clipPath>
   <clipPath id="id14">
    <path d="M18.35 6080.94c-5.8,0 -11.55,0 -17.37,0l0 -2584.21 -0.04 -2612.5c5.69,62.52 11.49,125.04 17.41,187.56l0 5009.15 0 0z"/>
   </clipPath>
 </defs>
 <g id="Layer_x0020_1">
  <metadata id="CorelCorpID_0Corel-Layer"/>
  <path class="fil0" d="M8368.65 1.37l-8030.79 0c0,0 -336.97,9.14 -336.97,455.16l0.09 3039.69 0 8236.48c0,445.92 336.88,455.05 336.88,455.05l8030.79 0c0,0 336.89,-9.13 336.89,-455.05l0 -11276.17c0,-446.02 -336.89,-455.16 -336.89,-455.16z"/>
  <g style="clip-path:url(#id0)">
   <image x="-11.31" y="6551.87" width="8725.87" height="5662.84" xlink:href="10_Images\10_ImgID1.png"/>
  </g>
  <g style="clip-path:url(#id1)">
   <image x="-11.31" y="-2.92" width="8725.87" height="6118.1" xlink:href="10_Images\10_ImgID2.png"/>
  </g>
  <g style="clip-path:url(#id2)">
   <image x="8320.3" y="-20.6" width="411.94" height="12115.97" xlink:href="10_Images\10_ImgID3.png"/>
  </g>
  <g style="clip-path:url(#id3)">
   <image x="8660.64" y="6061.25" width="71.6" height="544.54" xlink:href="10_Images\10_ImgID4.png"/>
  </g>
  <g style="clip-path:url(#id4)">
   <image x="209.69" y="6551.87" width="8522.55" height="5662.84" xlink:href="10_Images\10_ImgID5.png"/>
  </g>
  <g style="clip-path:url(#id5)">
   <image x="8320.3" y="-20.6" width="411.94" height="6135.78" xlink:href="10_Images\10_ImgID6.png"/>
  </g>
  <g style="clip-path:url(#id6)">
   <image x="-11.31" y="6061.25" width="58.34" height="544.54" xlink:href="10_Images\10_ImgID7.png"/>
  </g>
  <g style="clip-path:url(#id7)">
   <image x="-28.99" y="6551.87" width="394.26" height="5662.84" xlink:href="10_Images\10_ImgID8.png"/>
  </g>
  <g style="clip-path:url(#id8)">
   <image x="-28.99" y="-20.6" width="8522.55" height="6135.78" xlink:href="10_Images\10_ImgID9.png"/>
  </g>
  <g style="clip-path:url(#id9)">
   <image x="143.39" y="12090.07" width="239.56" height="124.64" xlink:href="10_Images\10_ImgID10.png"/>
  </g>
  <g style="clip-path:url(#id10)">
   <image x="8320.3" y="-20.6" width="257.24" height="106.96" xlink:href="10_Images\10_ImgID11.png"/>
  </g>
  <g style="clip-path:url(#id11)">
   <image x="-28.99" y="863.39" width="58.34" height="10551.31" xlink:href="10_Images\10_ImgID12.png"/>
  </g>
  <g style="clip-path:url(#id12)">
   <image x="-28.99" y="6061.25" width="76.02" height="544.54" xlink:href="10_Images\10_ImgID13.png"/>
  </g>
  <g style="clip-path:url(#id13)">
   <image x="-28.99" y="6551.87" width="76.02" height="4862.83" xlink:href="10_Images\10_ImgID14.png"/>
  </g>
  <g style="clip-path:url(#id14)">
   <image x="-28.99" y="863.39" width="76.02" height="5251.79" xlink:href="10_Images\10_ImgID15.png"/>
  </g>
  <path class="fil1" d="M1143.67 2354.9c-181.66,133.26 -271.43,272.58 -273.78,276.2l0 0.23 -0.04 -0.14 -0.09 0.14 0 -0.23c-2.3,-3.62 -92.07,-142.94 -273.73,-276.2 -184.09,-135.03 -225.99,-303.47 -160.09,-430.59 65.82,-127.07 329.11,-189 433.91,63.47 104.8,-252.47 368.09,-190.54 433.95,-63.47 65.81,127.12 23.91,295.56 -160.13,430.59z"/>
  <path class="fil1" d="M647.08 1385.47c0,29.79 1.68,52.2 5.04,67.36 3.32,15.12 9.2,27.41 17.68,36.91 8.45,9.5 20.64,16.93 36.56,22.37 15.91,5.39 35.89,9.5 60.02,12.28 24.09,2.83 55.91,4.73 95.43,5.79l0 56.14 -568.72 0 0 -56.14c56.97,-2.56 97.64,-6.05 121.99,-10.47 24.36,-4.29 42.96,-10.88 55.74,-19.58 12.9,-8.71 22.27,-21 28.15,-36.91 5.92,-15.96 8.84,-41.81 8.84,-77.75l0 -624.09c0,-20.47 -3.58,-35.54 -10.74,-45 -7.25,-9.5 -17.72,-14.28 -31.6,-14.28 -16.44,0 -39.74,8.54 -70.01,25.46 -30.28,16.93 -67.72,40.31 -112.31,69.97l-33.91 -59.18 360.19 -214.72 42.3 0c-3.14,49.19 -4.65,117.48 -4.65,204.69l0 657.15z"/>
  <path class="fil1" d="M966.43 1047.66c0,167.25 15.51,289.99 46.58,368.27 30.99,78.19 79.12,117.3 144.27,117.3 62.06,0 108.11,-36.82 138.17,-110.41 29.96,-73.68 44.95,-187.62 44.95,-342.06 0,-118.01 -7.65,-213.57 -23.03,-286.63 -15.38,-73.15 -36.86,-125.62 -64.31,-157.4 -27.4,-31.82 -60.64,-47.73 -99.63,-47.73 -35.4,0 -65.01,10.52 -88.84,31.56 -23.86,21.04 -43.14,51.31 -57.77,90.87 -14.58,39.47 -24.97,87.52 -31.16,144.27 -6.18,56.66 -9.23,120.71 -9.23,191.96zm178.52 550.99c-110.81,0 -193.29,-43.58 -247.39,-130.88 -54.14,-87.16 -81.19,-219.49 -81.19,-397.04 0,-94.32 8.35,-175.96 25.02,-244.69 16.66,-68.73 40.04,-125.57 70.05,-170.48 30.01,-44.86 65.99,-78.1 108.07,-99.62 42.08,-21.57 88.05,-32.31 137.77,-32.31 112.35,0 196.02,43.31 250.88,130.03 54.89,86.72 82.34,217.77 82.34,393.25 0,181.57 -29.39,318.98 -88.09,412.02 -58.79,93.13 -144.58,139.72 -257.46,139.72z"/>
  <path class="fil1" d="M7586.41 9813.97c181.66,-133.25 271.43,-272.55 273.77,-276.19l0 -0.21 0.09 0.11 0 -0.11 0 0.21c2.34,3.64 92.16,142.94 273.77,276.19 184.09,135.09 225.99,303.5 160.14,430.57 -65.86,127.11 -329.16,189.06 -433.91,-63.4 -104.8,252.46 -368.09,190.51 -433.99,63.4 -65.86,-127.07 -23.92,-295.48 160.13,-430.57z"/>
  <path class="fil1" d="M8082.99 10783.45c0,-29.78 -1.68,-52.25 -4.99,-67.32 -3.36,-15.16 -9.28,-27.47 -17.68,-36.97 -8.49,-9.53 -20.69,-16.97 -36.6,-22.32 -15.91,-5.37 -35.89,-9.5 -59.98,-12.28 -24.13,-2.86 -55.95,-4.73 -95.43,-5.8l0 -56.2 568.68 0 0 56.2c-56.98,2.63 -97.64,6.01 -121.99,10.38 -24.4,4.33 -42.97,10.89 -55.74,19.65 -12.91,8.72 -22.23,21.03 -28.2,36.89 -5.88,15.92 -8.84,41.85 -8.84,77.77l0 624.06c0,20.49 3.67,35.53 10.83,45.04 7.2,9.5 17.68,14.27 31.56,14.27 16.44,0 39.73,-8.46 70.01,-25.44 30.28,-16.93 67.71,-40.26 112.31,-70.03l33.95 59.28 -360.23 214.69 -42.3 0c3.14,-49.26 4.64,-117.47 4.64,-204.68l0 -657.19z"/>
  <path class="fil1" d="M7763.61 11121.23c0,-167.22 -15.43,-289.99 -46.55,-368.21 -30.98,-78.22 -79.11,-117.35 -144.26,-117.35 -62.06,0 -108.16,36.83 -138.13,110.45 -30.01,73.58 -44.99,187.61 -44.99,342.01 0,118.01 7.64,213.61 23.03,286.71 15.38,73.1 36.86,125.52 64.31,157.31 27.4,31.85 60.59,47.77 99.62,47.77 35.41,0 65.02,-10.55 88.89,-31.58 23.87,-20.99 43.09,-51.3 57.72,-90.8 14.63,-39.52 24.97,-87.64 31.12,-144.29 6.23,-56.7 9.24,-120.68 9.24,-192.02zm-178.53 -550.94c110.86,0 193.33,43.58 247.43,130.82 54.15,87.21 81.2,219.56 81.2,397.12 0,94.34 -8.36,175.9 -24.97,244.62 -16.71,68.78 -40.05,125.62 -70.06,170.46 -30.06,44.91 -66.08,78.14 -108.11,99.69 -42.04,21.57 -88,32.32 -137.77,32.32 -112.36,0 -195.94,-43.35 -250.88,-130.04 -54.9,-86.75 -82.3,-217.84 -82.3,-393.24 0,-181.61 29.39,-318.98 88.13,-412.11 58.75,-93.09 144.54,-139.64 257.33,-139.64z"/>
  <path class="fil1" d="M6504.58 2881.72c-360.53,264.49 -538.66,541 -543.3,548.29l0 0.31 -0.09 -0.18 -0.13 0.18 0 -0.31c-4.64,-7.29 -182.85,-283.8 -543.34,-548.29 -365.31,-268.07 -448.45,-602.27 -317.8,-854.56 130.7,-252.24 653.23,-375.16 861.27,125.84 207.92,-501 730.53,-378.08 861.19,-125.84 130.7,252.29 47.56,586.49 -317.8,854.56z"/>
  <path class="fil1" d="M6504.58 7502.47c-360.53,264.44 -538.66,541.02 -543.3,548.24l0 0.4 -0.09 -0.21 -0.13 0.21 0 -0.4c-4.64,-7.22 -182.85,-283.8 -543.34,-548.24 -365.31,-268.07 -448.45,-602.31 -317.8,-854.56 130.7,-252.2 653.23,-375.16 861.27,125.88 207.92,-501.04 730.53,-378.08 861.19,-125.88 130.7,252.25 47.56,586.49 -317.8,854.56z"/>
  <path class="fil1" d="M5417.76 9287.31c360.54,-264.47 538.7,-540.99 543.3,-548.21l0 -0.36 0.13 0.13 0.09 -0.13 0 0.36c4.64,7.22 182.86,283.74 543.35,548.21 365.31,268.08 448.4,602.31 317.79,854.57 -130.65,252.23 -653.22,375.15 -861.23,-125.83 -207.96,500.98 -730.57,378.06 -861.22,125.83 -130.75,-252.26 -47.56,-586.49 317.79,-854.57z"/>
  <path class="fil1" d="M6504.58 5192.11c-360.53,264.45 -538.66,541.01 -543.3,548.21l0 0.35 -0.09 -0.13 -0.13 0.13 0 -0.35c-4.64,-7.2 -182.85,-283.76 -543.34,-548.21 -365.31,-268.11 -448.45,-602.35 -317.8,-854.59 130.7,-252.21 653.23,-375.13 861.27,125.83 207.92,-500.96 730.53,-378.04 861.19,-125.83 130.7,252.24 47.56,586.48 -317.8,854.59z"/>
  <path class="fil1" d="M3288.76 2881.72c-360.49,264.49 -538.66,541 -543.3,548.29l0 0.31 -0.09 -0.18 -0.09 0.18 0 -0.31c-4.64,-7.29 -182.85,-283.8 -543.34,-548.29 -365.31,-268.07 -448.45,-602.27 -317.84,-854.56 130.69,-252.24 653.27,-375.16 861.27,125.84 207.96,-501 730.57,-378.08 861.23,-125.84 130.69,252.29 47.51,586.49 -317.84,854.56z"/>
  <path class="fil1" d="M3288.76 7502.47c-360.49,264.44 -538.66,541.02 -543.3,548.24l0 0.4 -0.09 -0.21 -0.09 0.21 0 -0.4c-4.64,-7.22 -182.85,-283.8 -543.34,-548.24 -365.31,-268.07 -448.45,-602.31 -317.84,-854.56 130.69,-252.2 653.27,-375.16 861.27,125.88 207.96,-501.04 730.57,-378.08 861.23,-125.88 130.69,252.25 47.51,586.49 -317.84,854.56z"/>
  <path class="fil1" d="M2201.94 9287.31c360.53,-264.47 538.7,-540.99 543.34,-548.21l0 -0.36 0.09 0.13 0.09 -0.13 0 0.36c4.64,7.22 182.85,283.74 543.34,548.21 365.31,268.08 448.45,602.31 317.84,854.57 -130.7,252.23 -653.27,375.15 -861.27,-125.83 -207.96,500.98 -730.58,378.06 -861.23,125.83 -130.7,-252.26 -47.51,-586.49 317.8,-854.57z"/>
  <path class="fil1" d="M3288.76 5192.11c-360.49,264.45 -538.66,541.01 -543.3,548.21l0 0.35 -0.09 -0.13 -0.09 0.13 0 -0.35c-4.64,-7.2 -182.85,-283.76 -543.34,-548.21 -365.31,-268.11 -448.45,-602.35 -317.84,-854.59 130.69,-252.21 653.27,-375.13 861.27,125.83 207.96,-500.96 730.57,-378.04 861.23,-125.83 130.69,252.24 47.51,586.48 -317.84,854.59z"/>
  <path class="fil1" d="M4896.65 3914.61c-360.49,264.45 -538.62,540.96 -543.26,548.21l0 0.36 -0.09 -0.14 -0.13 0.14 0 -0.36c-4.64,-7.25 -182.85,-283.76 -543.34,-548.21 -365.31,-268.11 -448.45,-602.3 -317.8,-854.59 130.7,-252.21 653.23,-375.17 861.27,125.88 207.92,-501.05 730.53,-378.09 861.19,-125.88 130.69,252.29 47.56,586.48 -317.84,854.59z"/>
  <path class="fil1" d="M4896.65 8201.59c-360.49,-264.44 -538.62,-541.02 -543.26,-548.23l0 -0.35 -0.09 0.18 -0.13 -0.18 0 0.35c-4.64,7.21 -182.85,283.79 -543.34,548.23 -365.31,268.08 -448.45,602.34 -317.8,854.55 130.7,252.24 653.23,375.22 861.27,-125.84 207.92,501.06 730.53,378.08 861.19,125.84 130.69,-252.21 47.56,-586.47 -317.84,-854.55z"/>
 </g>
</svg>
