<?xml version="1.0" encoding="UTF-8"?>
<!DOCTYPE svg PUBLIC "-//W3C//DTD SVG 1.1//EN" "http://www.w3.org/Graphics/SVG/1.1/DTD/svg11.dtd">
<!-- Creator: CorelDRAW -->
<svg xmlns="http://www.w3.org/2000/svg" xml:space="preserve" width="100%" height="100%" version="1.1" style="shape-rendering:geometricPrecision; text-rendering:geometricPrecision; image-rendering:optimizeQuality; fill-rule:evenodd; clip-rule:evenodd"
viewBox="0 0 8705.9 12186.79"
 xmlns:xlink="http://www.w3.org/1999/xlink"
 xmlns:xodm="http://www.corel.com/coreldraw/odm/2003">
 <defs>
  <style type="text/css">
   <![CDATA[
    .fil0 {fill:#FEFEFE;fill-rule:nonzero}
    .fil1 {fill:#E63A2B;fill-rule:nonzero}
   ]]>
  </style>
   <clipPath id="id0">
    <path d="M8368.47 12186.08c0,0 187.97,-4.82 281.96,-194.22 -93.99,189.4 -281.96,194.22 -281.96,194.22zm-19.79 -17.66l-3853.43 0 -328.95 0 -3855.9 0c0,0 -32.16,0 -76.68,-14.44 -96.46,-46.55 -215.18,-157.31 -215.18,-422.15l0 0 0 -3035.27 0 -2117.15c1704.12,0 3408.24,-1.6 5114.83,-1.6 1184.72,0 2369.44,0 3554.16,0l0 2101.09 0 3035.27 0 0c0,446.23 -338.85,454.25 -338.85,454.25l0 0z"/>
   </clipPath>
   <clipPath id="id1">
    <path d="M8687.53 6083.7c-51.94,0 -103.88,0 -155.82,0 -2112.21,0 -4221.96,0 -6334.17,-1.74 -727.16,0 -1451.84,-1.73 -2179,-1.73l0 -2571.75 0 -3036.51c0,-445.68 336.38,-454.35 336.38,-454.35l3855.9 0 328.95 0 3853.43 0c0,0 34.63,1.74 79.15,15.61 96.46,46.82 215.18,157.81 215.18,421.4l0 0 0 3034.77 0 2594.3 0 0z"/>
   </clipPath>
   <clipPath id="id2">
    <path d="M8651.4 11991.98c32,-64.87 53.36,-146.81 53.36,-259.48l0 -5155.42 0 0 0 -495.06 0 0 0 -5626.58 0 0c0,-447.26 -336.86,-454.09 -336.86,-454.09l-16.81 0c-0.82,0 -1.17,0 -1.17,0l17.98 0c0,0 336.98,6.83 336.98,454.09l0 3038.63 0 5196.39 0 3042.04c0,112.67 -21.48,194.61 -53.48,259.48l0 0z"/>
   </clipPath>
   <clipPath id="id3">
    <path d="M8687.19 6577.07l0 -493.56 17.6 0 0 493.56 -17.6 0 0 0z"/>
   </clipPath>
   <clipPath id="id4">
    <path d="M8367.7 12186.08l-3850.61 0 -328.53 0 -3833.7 0c0,0 -55.56,0 -120.78,-32.1 43.48,14.44 77.3,14.44 77.3,14.44l3855.44 0 328.53 0 3855.44 0c0,0 335.78,-8.02 335.78,-454.25l0 0 0 0 0 -3035.27 0 -2101.09c7.25,0 12.08,0 19.33,0l0 2113.93 0 3040.09c0,112.36 -21.74,197.43 -55.56,260.03 -94.21,189.4 -282.64,194.22 -282.64,194.22l0 0 0 0z"/>
   </clipPath>
   <clipPath id="id5">
    <path d="M337.11 12186.78l0 0c0,0 -0.49,0 -1.32,-0.04 0.88,0.04 1.37,0.04 1.37,0.04l-0.05 0z"/>
   </clipPath>
   <clipPath id="id6">
    <path d="M8704.76 6083.6c-5.83,0 -11.79,0 -17.51,0l0 -2593.1 0 -3036.58 0 0c0,-262.61 -118.4,-373.92 -214.84,-420.88 21.95,8.7 46.7,19.13 72.16,33.05l0 0 0 0 0 0c-86.88,-62.61 -176.67,-66.09 -176.67,-66.09l-16.81 0 0 0 16.81 0c0,0 336.86,8.69 336.86,455.66l0 3040.06 0 2587.88 0 0z"/>
   </clipPath>
   <clipPath id="id7">
    <path d="M17.63 6579.25l0 -498.85 0.18 0 0 498.85 -0.18 0 0 0z"/>
   </clipPath>
   <clipPath id="id8">
    <path d="M335.84 12186.08c-23.39,0 -335.63,-25.68 -335.63,-454.25l0 -343.49c5.77,-20.87 11.42,-41.74 17.41,-62.6l0 -2646.84 0 -2099.49 0.22 0 0 2117.15 0 3035.27 0 0c0,264.84 118.55,375.6 215.05,422.15 -22.03,-8.03 -46.9,-17.66 -72.32,-33.71l0 0c80.68,59.39 163.85,65.81 175.27,65.81l0 0z"/>
   </clipPath>
   <clipPath id="id9">
    <path d="M17.16 6080.12c0,0 0,0 0,0l0 -5008.8c-4.83,-62.61 -12.08,-125.22 -16.92,-187.83l0 -427.83c0,-446.97 335.96,-455.66 335.96,-455.66l3852.61 0 328.7 0 3833.27 0c9.67,0 60.42,5.21 120.85,33.04 -43.51,-13.91 -77.34,-15.65 -77.34,-15.65l-3855.03 0 -328.7 0 -3855.02 0c0,0 -338.38,10.43 -338.38,455.66l0 3034.85 0 2572.22 0 0z"/>
   </clipPath>
   <clipPath id="id10">
    <path d="M355.05 12186.78l-17.87 0c0,0 -0.51,0 -1.38,-0.03 -11.45,-0.68 -94.57,-7.11 -175.29,-66.21 25.45,15.23 50.39,25.68 72.41,32.89 66.28,31.87 122.13,33.35 122.13,33.35l0 0z"/>
   </clipPath>
   <clipPath id="id11">
    <path d="M8544.52 66.7c-25.38,-15.19 -50.2,-25.62 -72.12,-32.87 -60.86,-29.26 -113.01,-33.02 -121.3,-33.44l16.8 0c0,0 89.77,2.58 176.62,66.31l0 0z"/>
   </clipPath>
   <clipPath id="id12">
    <path d="M-0 11389.24l0 -10507.86c0.05,0 0.13,0 0.22,2.99l0 2612.01 0 5197.08 0 2695.78c-0.09,0 -0.17,0 -0.22,0l0 0z"/>
   </clipPath>
   <clipPath id="id13">
    <path d="M0.23 6579.25l0 -498.85c5.84,0 11.61,0 17.41,0l0 498.85c-5.84,0 -11.55,0 -17.41,0l0 0z"/>
   </clipPath>
   <clipPath id="id14">
    <path d="M0.23 11387.2l0 -2695.76 0 -2112.17c5.86,0 11.57,0 17.41,0l0 2099.76 -0.04 2646.08c-5.93,20.7 -11.64,41.39 -17.37,62.09l0 0z"/>
   </clipPath>
   <clipPath id="id15">
    <path d="M17.64 6080.89c-5.8,0 -11.57,0 -17.41,0l0 -2586.39 0 -2610.23c5.64,62.58 11.44,125.15 17.41,187.73l0 5008.89 0 0z"/>
   </clipPath>
 </defs>
 <g id="Layer_x0020_1">
  <metadata id="CorelCorpID_0Corel-Layer"/>
  <path class="fil0" d="M8367.9 0.4l-8030.74 0c0,0 -336.94,9.15 -336.94,455.17l0 11276.18c0,445.89 336.94,455.04 336.94,455.04l8030.74 0c0,0 336.89,-9.15 336.89,-455.04l0 -11276.18c0,-446.02 -336.89,-455.17 -336.89,-455.17z"/>
  <g style="clip-path:url(#id0)">
   <image x="-8.66" y="6548.92" width="8725.87" height="5662.84" xlink:href="2_Images\2_ImgID1.png"/>
  </g>
  <g style="clip-path:url(#id1)">
   <image x="-8.66" y="-1.45" width="8725.87" height="6118.1" xlink:href="2_Images\2_ImgID2.png"/>
  </g>
  <g style="clip-path:url(#id2)">
   <image x="8322.95" y="-19.13" width="411.94" height="12045.26" xlink:href="2_Images\2_ImgID3.png"/>
  </g>
  <g style="clip-path:url(#id3)">
   <image x="8663.29" y="6058.3" width="71.6" height="548.96" xlink:href="2_Images\2_ImgID4.png"/>
  </g>
  <g style="clip-path:url(#id4)">
   <image x="212.34" y="6548.92" width="8522.55" height="5662.84" xlink:href="2_Images\2_ImgID5.png"/>
  </g>
  <g style="clip-path:url(#id5)">
   <image x="313.99" y="12157.84" width="58.34" height="53.92" xlink:href="2_Images\2_ImgID6.png"/>
  </g>
  <g style="clip-path:url(#id6)">
   <image x="8322.95" y="-19.13" width="411.94" height="6135.78" xlink:href="2_Images\2_ImgID7.png"/>
  </g>
  <g style="clip-path:url(#id7)">
   <image x="-8.66" y="6058.3" width="58.34" height="548.96" xlink:href="2_Images\2_ImgID8.png"/>
  </g>
  <g style="clip-path:url(#id8)">
   <image x="-26.34" y="6548.92" width="398.68" height="5662.84" xlink:href="2_Images\2_ImgID9.png"/>
  </g>
  <g style="clip-path:url(#id9)">
   <image x="-26.34" y="-19.13" width="8526.97" height="6135.78" xlink:href="2_Images\2_ImgID10.png"/>
  </g>
  <g style="clip-path:url(#id10)">
   <image x="128.36" y="12087.12" width="257.24" height="124.64" xlink:href="2_Images\2_ImgID11.png"/>
  </g>
  <g style="clip-path:url(#id11)">
   <image x="8322.95" y="-19.13" width="243.98" height="106.96" xlink:href="2_Images\2_ImgID12.png"/>
  </g>
  <g style="clip-path:url(#id12)">
   <image x="-26.34" y="860.44" width="58.34" height="10555.73" xlink:href="2_Images\2_ImgID13.png"/>
  </g>
  <g style="clip-path:url(#id13)">
   <image x="-26.34" y="6058.3" width="76.02" height="548.96" xlink:href="2_Images\2_ImgID14.png"/>
  </g>
  <g style="clip-path:url(#id14)">
   <image x="-26.34" y="6548.92" width="76.02" height="4867.25" xlink:href="2_Images\2_ImgID15.png"/>
  </g>
  <g style="clip-path:url(#id15)">
   <image x="-26.34" y="860.44" width="76.02" height="5256.21" xlink:href="2_Images\2_ImgID16.png"/>
  </g>
  <path class="fil1" d="M903.35 2353.94c-181.66,133.26 -271.43,272.58 -273.77,276.2l0 0.22 -0.04 -0.13 -0.05 0.13 0 -0.22c-2.34,-3.62 -92.11,-142.94 -273.77,-276.2 -184.05,-135.08 -225.95,-303.48 -160.14,-430.55 65.86,-127.12 329.16,-189.04 433.96,63.38 104.79,-252.42 368.09,-190.5 433.9,-63.38 65.9,127.07 23.96,295.47 -160.09,430.55z"/>
  <path class="fil1" d="M747.24 1462.21c25.15,0 45.39,-1.5 60.77,-4.59 15.43,-3.1 27.76,-8.22 37,-15.38 9.19,-7.17 16.53,-16.54 21.88,-28.12 5.39,-11.53 12.2,-29.34 20.42,-53.48l65.46 0 -13.13 224.71 -633.25 0 0 -36.95c22.01,-53.83 51.72,-108.95 89.2,-165.39 37.48,-56.45 90.52,-122.88 159.29,-199.39 59.49,-65.59 102.37,-115.4 128.49,-149.26 28.73,-36.9 50.17,-68.86 64.31,-95.82 14.1,-26.92 24.22,-52.25 30.37,-76.16 6.18,-23.82 9.23,-47.82 9.23,-71.96 0,-38.45 -6.14,-72.44 -18.47,-101.92 -12.29,-29.52 -31.16,-52.73 -56.58,-69.7 -25.32,-16.89 -57.28,-25.37 -95.82,-25.37 -95.87,0 -160.53,53.35 -193.91,160.09l-93.12 0 0 -147.76c62.1,-29.26 120.17,-50.43 174.32,-63.52 54.14,-13.03 102.76,-19.58 145.81,-19.58 95.43,0 167.52,20.91 216.27,62.72 48.75,41.77 73.11,102.5 73.11,181.97 0,27.19 -2.74,52.2 -8.09,75.01 -5.39,22.85 -13.84,45.44 -25.42,67.71 -11.49,22.32 -27.05,46.32 -46.49,72 -19.54,25.64 -41.11,51.67 -64.71,78.1 -23.56,26.44 -64.36,70.37 -122.35,131.94 -97.46,103.16 -169.01,193.2 -214.67,270.1l290.08 0z"/>
  <path class="fil1" d="M7711.23 9813.01c181.66,-133.22 271.43,-272.58 273.73,-276.21l0 -0.22 0.08 0.09 0 -0.09 0 0.22c2.39,3.63 92.16,142.99 273.82,276.21 184.05,135.07 225.9,303.47 160.13,430.54 -65.9,127.17 -329.15,189.05 -433.95,-63.38 -104.79,252.43 -368.13,190.55 -433.95,63.38 -65.85,-127.07 -23.95,-295.47 160.14,-430.54z"/>
  <path class="fil1" d="M7867.3 10704.73c-25.11,0 -45.35,1.55 -60.78,4.69 -15.38,2.96 -27.71,8.13 -36.95,15.33 -9.19,7.21 -16.53,16.54 -21.92,28.07 -5.39,11.54 -12.2,29.39 -20.38,53.53l-65.46 0 13.09 -224.76 633.29 0 0 36.95c-22.06,53.84 -51.72,109 -89.2,165.49 -37.48,56.39 -90.56,122.83 -159.29,199.25 -59.5,65.72 -102.37,115.45 -128.49,149.35 -28.73,36.9 -50.17,68.82 -64.31,95.78 -14.1,26.92 -24.22,52.33 -30.37,76.2 -6.18,23.82 -9.23,47.82 -9.23,71.91 0,38.5 6.14,72.44 18.43,102.01 12.33,29.48 31.16,52.65 56.57,69.62 25.42,16.93 57.33,25.41 95.83,25.41 95.95,0 160.57,-53.35 193.94,-160.09l93.09 0 0 147.76c-62.1,29.26 -120.18,50.43 -174.32,63.52 -54.1,13.08 -102.77,19.53 -145.82,19.53 -95.43,0 -167.51,-20.82 -216.22,-62.67 -48.75,-41.82 -73.11,-102.46 -73.11,-181.97 0,-27.19 2.7,-52.25 8.05,-75.05 5.39,-22.85 13.87,-45.4 25.45,-67.72 11.5,-22.32 27.05,-46.27 46.55,-71.95 19.49,-25.68 41.01,-51.67 64.66,-78.06 23.56,-26.48 64.36,-70.45 122.34,-132.02 97.42,-103.08 168.98,-193.16 214.68,-270.11l-290.12 0z"/>
  <path class="fil1" d="M4895.94 2880.75c-360.58,264.49 -538.71,541.05 -543.35,548.3l0 0.35 -0.08 -0.22 -0.14 0.22 0 -0.35c-4.59,-7.25 -182.81,-283.81 -543.3,-548.3 -365.31,-268.02 -448.49,-602.26 -317.79,-854.51 130.65,-252.24 653.22,-375.21 861.23,125.88 207.91,-501.09 730.57,-378.12 861.22,-125.88 130.7,252.25 47.52,586.49 -317.79,854.51z"/>
  <path class="fil1" d="M3809.12 9286.37c360.53,-264.45 538.66,-541 543.25,-548.21l0 -0.4 0.14 0.23 0.08 -0.23 0 0.4c4.69,7.21 182.9,283.76 543.35,548.25 365.31,268.03 448.45,602.31 317.79,854.47 -130.65,252.29 -653.22,375.21 -861.22,-125.79 -207.92,501 -730.53,378.08 -861.23,125.79 -130.7,-252.25 -47.52,-586.44 317.84,-854.51z"/>
 </g>
</svg>
