<?xml version="1.0" encoding="UTF-8"?>
<!DOCTYPE svg PUBLIC "-//W3C//DTD SVG 1.1//EN" "http://www.w3.org/Graphics/SVG/1.1/DTD/svg11.dtd">
<!-- Creator: CorelDRAW -->
<svg xmlns="http://www.w3.org/2000/svg" xml:space="preserve" width="100%" height="100%" version="1.1" style="shape-rendering:geometricPrecision; text-rendering:geometricPrecision; image-rendering:optimizeQuality; fill-rule:evenodd; clip-rule:evenodd"
viewBox="0 0 8705.73 12186.79"
 xmlns:xlink="http://www.w3.org/1999/xlink"
 xmlns:xodm="http://www.corel.com/coreldraw/odm/2003">
 <defs>
  <style type="text/css">
   <![CDATA[
    .fil0 {fill:#FEFEFE;fill-rule:nonzero}
    .fil1 {fill:#E63A2B;fill-rule:nonzero}
   ]]>
  </style>
   <clipPath id="id0">
    <path d="M8368.29 12186.08c0,0 133.56,-3.21 232.5,-117.18 -98.94,113.97 -232.5,117.18 -232.5,117.18zm-17.31 -17.66l-3855.9 0 -328.96 0 -3853.43 0c0,0 -34.62,0 -79.14,-14.44 -96.46,-46.55 -215.18,-157.31 -215.18,-422.15l0 0 0 -3035.27 0 -2117.15c1704.12,0 3410.71,-1.6 5114.82,-1.6 1184.72,0 2369.44,0 3554.16,0l0 2101.09 0 3035.27 0 0c0,446.23 -336.37,454.25 -336.37,454.25l0 0z"/>
   </clipPath>
   <clipPath id="id1">
    <path d="M8687.35 6083.7c-51.94,0 -103.88,0 -155.82,0 -2109.74,0 -4221.95,0 -6331.69,-1.74 -727.16,0 -1454.32,-1.73 -2181.47,-1.73l0 -2571.75 0 -3036.51c0,-445.68 338.84,-454.35 338.84,-454.35l3853.43 0 328.96 0 3855.9 0c0,0 32.15,1.74 76.67,15.61 96.46,46.82 215.18,157.81 215.18,421.4l0 0 0 3034.77 0 2594.3 0 0z"/>
   </clipPath>
   <clipPath id="id2">
    <path d="M8601 12068.39c58.38,-65.23 104.73,-171.65 104.73,-336.43l0 -5156.34 0 0 0 -490.91 0 0 0 -5630.09 0 0c0,-446.29 -336.86,-453.16 -336.86,-453.16l-16.93 0c-0.7,0 -1.05,0 -1.05,0l17.98 0c0,0 336.86,6.87 336.86,453.16l0 3041.62 0 5194.1 0 3041.62c0,164.78 -46.35,271.2 -104.73,336.43l0 0z"/>
   </clipPath>
   <clipPath id="id3">
    <path d="M8688.14 6577.07l0 -493.56 17.57 0 0 493.56 -17.57 0 0 0z"/>
   </clipPath>
   <clipPath id="id4">
    <path d="M8369.89 12186.08l-3853.03 0 -326.12 0 -3833.7 0c0,0 -57.97,-1.61 -123.2,-32.1 45.9,14.44 77.3,14.44 77.3,14.44l3855.45 0 328.53 0 3855.44 0c0,0 338.2,-8.02 338.2,-454.25l0 0 0 0 0 -3035.27 0 -2101.09c4.83,0 12.07,0 16.91,0l0 2113.93 0 3040.09c0,165.33 -45.9,271.26 -103.88,337.07 -99.04,113.97 -231.9,117.18 -231.9,117.18l0 0 0 0z"/>
   </clipPath>
   <clipPath id="id5">
    <path d="M8705.73 6083.6c-5.83,0 -11.79,0 -17.63,0l0 -2593.1 0 -3036.58 0 0c0,-262.61 -118.39,-373.92 -214.72,-420.88 21.83,8.7 46.7,19.13 72.04,33.05l0 0 0 0 0 0c-86.87,-62.61 -176.55,-66.09 -176.55,-66.09l-16.93 0 0 0 16.93 0c0,0 336.86,8.69 336.86,455.66l0 3040.06 0 2587.88 0 0z"/>
   </clipPath>
   <clipPath id="id6">
    <path d="M18.52 6579.25l0 -498.85 0.22 0 0 498.85 -0.22 0 0 0z"/>
   </clipPath>
   <clipPath id="id7">
    <path d="M338 12186.08c0,0 -336.93,-8.03 -336.93,-454.25l0 -343.49c5.81,-20.87 11.51,-41.74 17.32,-62.6l0.11 -2646.84 0 -2099.49c0.11,0 0.11,0 0.23,0l0 2117.15 0 3035.27 0 0c0,264.84 118.57,375.6 215.12,422.15 -22.02,-8.03 -46.94,-17.66 -72.42,-33.71l0 0c86.83,64.2 176.57,65.81 176.57,65.81l0 0z"/>
   </clipPath>
   <clipPath id="id8">
    <path d="M19.32 6080.12c0,0 0,0 0,0l0 -5008.8c-7.24,-62.61 -12.08,-125.22 -19.32,-187.83l0 -427.83c0,-446.97 338.19,-455.66 338.19,-455.66l3850.61 0 328.54 0 3833.7 0c9.66,0 60.39,5.21 123.2,33.04 -45.9,-13.91 -79.72,-15.65 -79.72,-15.65l-3855.44 0 -328.54 0 -3855.44 0c0,0 -335.78,10.43 -335.78,455.66l0 3034.85 0 2572.22 0 0z"/>
   </clipPath>
   <clipPath id="id9">
    <path d="M355.99 12186.78l-17.93 0 0 0c0,0 -89.76,-2.61 -176.61,-66.24 25.46,15.23 50.38,25.68 72.38,32.89 66.28,31.8 122.16,33.35 122.16,33.35l0 0z"/>
   </clipPath>
   <clipPath id="id10">
    <path d="M8545.46 66.7c-25.45,-15.19 -50.24,-25.62 -72.11,-32.84 -60.89,-29.29 -113.02,-33.05 -121.33,-33.47l16.84 0c0,0 89.76,2.58 176.6,66.31l0 0z"/>
   </clipPath>
   <clipPath id="id11">
    <path d="M0.84 11389.24l0 -10507.86c0.05,0 0.18,2.99 0.22,2.99l0.05 2612.01 0 5197.08 0 2695.78c-0.05,0 -0.19,0 -0.27,0l0 0z"/>
   </clipPath>
   <clipPath id="id12">
    <path d="M1.11 6579.25l0 -498.85c5.8,0 11.62,0 17.41,0l0 498.85c-5.75,0 -11.68,0 -17.41,0l0 0z"/>
   </clipPath>
   <clipPath id="id13">
    <path d="M1.11 11387.2l0 -2695.76 0 -2112.17c5.73,0 11.66,0 17.41,0l0 2099.76 -0.08 2646.08c-5.84,20.7 -11.53,41.39 -17.33,62.09l0 0z"/>
   </clipPath>
   <clipPath id="id14">
    <path d="M18.52 6080.89c-5.79,0 -11.61,0 -17.41,0l0 -2586.39 -0.04 -2610.23c5.73,62.58 11.48,125.15 17.45,187.73l0 5008.89 0 0z"/>
   </clipPath>
 </defs>
 <g id="Layer_x0020_1">
  <metadata id="CorelCorpID_0Corel-Layer"/>
  <path class="fil0" d="M8368.83 0.4l-8030.79 0c0,0 -336.98,9.15 -336.98,455.17l0.05 3039.64 0 8236.54c0,445.89 336.93,455.04 336.93,455.04l8030.79 0c0,0 336.89,-9.15 336.89,-455.04l0 -11276.18c0,-446.02 -336.89,-455.17 -336.89,-455.17z"/>
  <g style="clip-path:url(#id0)">
   <image x="-11.31" y="6548.92" width="8725.87" height="5662.84" xlink:href="3_Images\3_ImgID1.png"/>
  </g>
  <g style="clip-path:url(#id1)">
   <image x="-11.31" y="-1.45" width="8725.87" height="6118.1" xlink:href="3_Images\3_ImgID2.png"/>
  </g>
  <g style="clip-path:url(#id2)">
   <image x="8320.3" y="-19.13" width="411.94" height="12111.55" xlink:href="3_Images\3_ImgID3.png"/>
  </g>
  <g style="clip-path:url(#id3)">
   <image x="8660.64" y="6058.3" width="71.6" height="548.96" xlink:href="3_Images\3_ImgID4.png"/>
  </g>
  <g style="clip-path:url(#id4)">
   <image x="209.69" y="6548.92" width="8522.55" height="5662.84" xlink:href="3_Images\3_ImgID5.png"/>
  </g>
  <g style="clip-path:url(#id5)">
   <image x="8320.3" y="-19.13" width="411.94" height="6135.78" xlink:href="3_Images\3_ImgID6.png"/>
  </g>
  <g style="clip-path:url(#id6)">
   <image x="-11.31" y="6058.3" width="58.34" height="548.96" xlink:href="3_Images\3_ImgID7.png"/>
  </g>
  <g style="clip-path:url(#id7)">
   <image x="-28.99" y="6548.92" width="394.26" height="5662.84" xlink:href="3_Images\3_ImgID8.png"/>
  </g>
  <g style="clip-path:url(#id8)">
   <image x="-28.99" y="-19.13" width="8522.55" height="6135.78" xlink:href="3_Images\3_ImgID9.png"/>
  </g>
  <g style="clip-path:url(#id9)">
   <image x="143.39" y="12087.12" width="239.56" height="124.64" xlink:href="3_Images\3_ImgID10.png"/>
  </g>
  <g style="clip-path:url(#id10)">
   <image x="8320.3" y="-19.13" width="257.24" height="106.96" xlink:href="3_Images\3_ImgID11.png"/>
  </g>
  <g style="clip-path:url(#id11)">
   <image x="-28.99" y="860.44" width="58.34" height="10555.73" xlink:href="3_Images\3_ImgID12.png"/>
  </g>
  <g style="clip-path:url(#id12)">
   <image x="-28.99" y="6058.3" width="76.02" height="548.96" xlink:href="3_Images\3_ImgID13.png"/>
  </g>
  <g style="clip-path:url(#id13)">
   <image x="-28.99" y="6548.92" width="76.02" height="4867.25" xlink:href="3_Images\3_ImgID14.png"/>
  </g>
  <g style="clip-path:url(#id14)">
   <image x="-28.99" y="860.44" width="76.02" height="5256.21" xlink:href="3_Images\3_ImgID15.png"/>
  </g>
  <path class="fil1" d="M936.64 2353.94c-181.75,133.26 -271.48,272.58 -273.82,276.2l0 0.22 -0.04 -0.13 -0.05 0.13 0 -0.22c-2.34,-3.62 -92.15,-142.94 -273.77,-276.2 -184.09,-135.08 -225.95,-303.48 -160.14,-430.55 65.86,-127.12 329.16,-189.04 433.96,63.38 104.79,-252.42 368.04,-190.5 433.95,-63.38 65.81,127.07 23.91,295.47 -160.09,430.55z"/>
  <path class="fil1" d="M356.52 752.72l0 -146.21c59.49,-28.2 115.18,-49.28 166.94,-63.12 51.8,-13.83 101.88,-20.73 150.1,-20.73 57.95,0 108.73,8.98 152.36,26.92 43.58,17.95 76.95,43.76 100.06,77.35 23.08,33.59 34.61,73.73 34.61,120.44 0,43.63 -8.71,81.95 -26.16,115.01 -17.46,33.11 -41.95,61.97 -73.46,86.59 -31.61,24.57 -72.49,48.71 -122.79,72.31l0 6.98c31.29,5.62 61.48,15.21 90.43,28.82 28.95,13.61 54.72,31.21 77.26,52.73 22.63,21.53 40.75,47.29 54.32,77.26 13.57,30.1 20.42,64.36 20.42,102.77 0,59.53 -12.99,112.39 -38.89,158.54 -25.9,46.19 -65.51,82.61 -118.9,109.26 -53.35,26.74 -118.28,40.04 -194.7,40.04 -44.11,0 -91.67,-4.99 -142.72,-15.02 -51.05,-9.95 -97.86,-23.21 -140.46,-39.61l0 -163.14 92.33 0c17.99,53.35 41.68,92.07 71.2,116.2 29.49,24.14 69.66,36.12 120.45,36.12 66.7,0 117.08,-18.13 151.16,-54.59 34.17,-36.42 51.18,-90.3 51.18,-161.64 0,-74.87 -22.54,-132.07 -67.71,-171.54 -45.13,-39.51 -111.29,-59.31 -198.5,-59.31l-69.26 0 0 -67.72c69.26,-4.06 127.6,-17.41 175.03,-40 47.47,-22.58 82.74,-51.53 105.81,-86.98 23.12,-35.36 34.7,-75.14 34.7,-119.25 0,-56.98 -15.25,-100.82 -45.44,-131.58 -30.32,-30.77 -74.43,-46.19 -132.33,-46.19 -48.22,0 -87.52,13.08 -117.75,39.25 -30.32,26.16 -52.64,66.16 -67,120.04l-92.29 0z"/>
  <path class="fil1" d="M7742.97 9813.01c181.66,-133.22 271.42,-272.58 273.72,-276.21l0 -0.22 0.05 0.09 0.09 -0.09 0 0.22c2.34,3.63 92.15,142.99 273.77,276.21 184.04,135.07 225.9,303.47 160.09,430.54 -65.86,127.17 -329.16,189.05 -433.95,-63.38 -104.76,252.43 -368.05,190.55 -433.91,63.38 -65.81,-127.07 -23.96,-295.47 160.14,-430.54z"/>
  <path class="fil1" d="M8323 11414.22l0 146.26c-59.5,28.15 -115.14,49.24 -166.95,63.07 -51.8,13.88 -101.83,20.73 -150.1,20.73 -57.94,0 -108.68,-8.88 -152.31,-26.87 -43.62,-17.99 -76.95,-43.76 -100.07,-77.31 -23.07,-33.63 -34.65,-73.77 -34.65,-120.44 0,-43.63 8.71,-81.95 26.17,-115.05 17.46,-33.11 41.94,-61.97 73.5,-86.59 31.56,-24.62 72.44,-48.75 122.74,-72.35l0 -6.94c-31.25,-5.62 -61.43,-15.25 -90.39,-28.86 -28.99,-13.57 -54.76,-31.17 -77.34,-52.69 -22.55,-21.48 -40.71,-47.29 -54.24,-77.35 -13.61,-29.97 -20.42,-64.22 -20.42,-102.72 0,-59.49 12.95,-112.31 38.9,-158.54 25.85,-46.19 65.5,-82.57 118.89,-109.26 53.35,-26.66 118.24,-40.01 194.62,-40.01 44.15,0 91.71,4.96 142.76,14.99 51.05,10.03 97.86,23.25 140.47,39.65l0 163.14 -92.34 0c-17.94,-53.35 -41.68,-92.12 -71.16,-116.25 -29.48,-24.13 -69.66,-36.15 -120.49,-36.15 -66.69,0 -117.08,18.25 -151.16,54.67 -34.12,36.38 -51.23,90.3 -51.23,161.59 0,74.92 22.59,132.12 67.76,171.59 45.13,39.56 111.34,59.31 198.5,59.31l69.26 0 0 67.67c-69.26,4.11 -127.56,17.42 -175.03,40 -47.42,22.59 -82.74,51.58 -105.81,86.99 -23.07,35.36 -34.65,75.18 -34.65,119.29 0,56.93 15.2,100.82 45.39,131.58 30.32,30.77 74.39,46.19 132.38,46.19 48.22,0 87.47,-13.08 117.74,-39.25 30.28,-26.16 52.65,-66.16 66.92,-120.09l92.34 0z"/>
  <path class="fil1" d="M4895.23 2880.75c-360.49,264.49 -538.61,541.05 -543.25,548.3l0 0.35 -0.14 -0.22 -0.08 0.22 0 -0.35c-4.64,-7.25 -182.86,-283.81 -543.3,-548.3 -365.36,-268.02 -448.5,-602.26 -317.84,-854.51 130.65,-252.24 653.22,-375.21 861.22,125.88 207.96,-501.09 730.58,-378.12 861.23,-125.88 130.74,252.25 47.52,586.49 -317.84,854.51z"/>
  <path class="fil1" d="M4895.23 6346.35c-360.49,264.45 -538.61,540.96 -543.25,548.16l0 0.4 -0.14 -0.18 -0.08 0.18 0 -0.4c-4.64,-7.2 -182.86,-283.71 -543.3,-548.16 -365.36,-268.11 -448.5,-602.31 -317.84,-854.64 130.65,-252.21 653.22,-375.12 861.22,125.92 207.96,-501.04 730.58,-378.13 861.23,-125.92 130.74,252.33 47.52,586.53 -317.84,854.64z"/>
  <path class="fil1" d="M3808.46 9286.37c360.49,-264.45 538.66,-541 543.3,-548.21l0 -0.4 0.08 0.23 0.14 -0.23 0 0.4c4.64,7.21 182.85,283.76 543.34,548.25 365.27,268.03 448.41,602.31 317.75,854.47 -130.65,252.29 -653.18,375.21 -861.23,-125.79 -207.91,501 -730.53,378.08 -861.18,125.79 -130.7,-252.25 -47.56,-586.44 317.8,-854.51z"/>
 </g>
</svg>
