<?xml version="1.0" encoding="UTF-8"?>
<!DOCTYPE svg PUBLIC "-//W3C//DTD SVG 1.1//EN" "http://www.w3.org/Graphics/SVG/1.1/DTD/svg11.dtd">
<!-- Creator: CorelDRAW -->
<svg xmlns="http://www.w3.org/2000/svg" xml:space="preserve" width="100%" height="100%" version="1.1" style="shape-rendering:geometricPrecision; text-rendering:geometricPrecision; image-rendering:optimizeQuality; fill-rule:evenodd; clip-rule:evenodd"
viewBox="0 0 8704.93 12187.85"
 xmlns:xlink="http://www.w3.org/1999/xlink"
 xmlns:xodm="http://www.corel.com/coreldraw/odm/2003">
 <defs>
  <style type="text/css">
   <![CDATA[
    .fil0 {fill:#FEFEFE;fill-rule:nonzero}
    .fil1 {fill:#E63A2B;fill-rule:nonzero}
   ]]>
  </style>
   <clipPath id="id0">
    <path d="M8369.08 12187.51c0,0 168.27,-4.81 267.25,-165.32 -98.98,160.51 -267.25,165.32 -267.25,165.32zm-19.8 -17.65l-3855.38 0 -326.64 0 -3855.39 0c0,0 -34.64,0 -79.18,-16.05 -96.51,-46.55 -215.29,-155.7 -215.29,-420.54l0 0 0 -3035.27 0 -2117.15c1704.98,-1.6 3409.96,-1.6 5114.94,-1.6 1185.32,-1.61 2370.64,-1.61 3555.96,-1.61l0 2102.7 0 3035.27 0 0c0,446.22 -339.02,454.25 -339.02,454.25l0 0z"/>
   </clipPath>
   <clipPath id="id1">
    <path d="M8688.3 6084.05c-51.97,0 -103.93,0 -158.37,0 -2110.81,0 -4221.62,0 -6332.43,-1.73 -725.05,0 -1452.58,0 -2180.1,0l0 -2573.49 0 -3034.77c0,-445.68 336.54,-454.35 336.54,-454.35l3855.38 0 329.12 0 3855.39 0c0,0 32.17,0 79.18,15.61 96.51,46.82 215.29,156.07 215.29,419.67l0 0 0 3036.5 0 2592.56 0 0z"/>
   </clipPath>
   <clipPath id="id2">
    <path d="M8635.93 12021.91c40.4,-64.97 68.89,-160.7 68.89,-290.63l0 -5152.74 0 0 0 -492.36 0 0 0 -5628 0 0c0,-447.92 -336.86,-458.18 -336.86,-458.18l-17.17 0c-0.46,0 -0.82,0 -0.82,0l17.99 0c0,0 336.97,10.26 336.97,458.18l0 3039.66 0 5193.77 0 3039.67c0,129.93 -28.6,225.66 -69,290.63l0 0z"/>
   </clipPath>
   <clipPath id="id3">
    <path d="M8687.23 6578.1l0 -493.45 17.64 0 0 493.45 -17.64 0 0 0z"/>
   </clipPath>
   <clipPath id="id4">
    <path d="M8368.31 12187.51l-3851.33 0 -329.22 0 -3831.97 0c0,0 -55.67,-1.6 -123.45,-33.7 45.99,16.05 79.88,16.05 79.88,16.05l3853.75 0 329.22 0 3853.76 0c0,0 338.89,-8.03 338.89,-454.25l0 0 0 0 0 -3035.27 0 -2102.7c4.85,0 12.11,0 16.95,0l0 2115.54 0 3040.09c0,130.01 -29.05,221.5 -67.78,288.92 -99.25,160.51 -268.7,165.32 -268.7,165.32l0 0 0 0z"/>
   </clipPath>
   <clipPath id="id5">
    <path d="M8704.82 6083.96c-5.84,0 -11.68,0 -17.63,0l0 -2593.09 0 -3034.85 0 0c0,-264.35 -118.28,-373.92 -214.85,-420.88 21.95,6.96 46.94,17.39 72.28,33.05l0 0 0 0 0 0c-86.87,-64.35 -176.66,-66.09 -176.66,-66.09l-17.17 0 0 0 17.17 0c0,0 336.86,8.69 336.86,453.92l0 3040.06 0 2587.88 0 0z"/>
   </clipPath>
   <clipPath id="id6">
    <path d="M17.64 6580.26l0 -498.7 0.26 0 0 498.7 -0.26 0 0 0z"/>
   </clipPath>
   <clipPath id="id7">
    <path d="M337.21 12187.51c0,0 -336.88,-8.02 -336.88,-454.24l0 -345.1c5.77,-20.87 11.43,-41.73 17.3,-62.6l0 -2645.23 0 -2099.49c0.1,0 0.21,0 0.32,0l0 2117.15 0 3035.27 0 0c0,264.84 118.37,373.99 214.97,420.54 -21.99,-6.42 -46.86,-17.66 -72.37,-32.1l0 0c86.89,64.2 176.66,65.8 176.66,65.8l0 0z"/>
   </clipPath>
   <clipPath id="id8">
    <path d="M18.1 6082.22c0,0 0,0 0,0l0 -5010.54c-7.24,-60.87 -12.07,-123.48 -16.91,-186.09l0 -429.57c0,-445.23 335.78,-453.92 335.78,-453.92l3850.61 0 328.54 0 3833.7 0c7.24,0 60.39,3.48 123.2,33.04 -45.9,-15.65 -79.72,-15.65 -79.72,-15.65l-3855.44 0 -326.12 0 -3855.44 0c0,0 -338.2,8.7 -338.2,453.92l0 3034.85 0 2573.96 0 0z"/>
   </clipPath>
   <clipPath id="id9">
    <path d="M355.17 12187.85l-17.98 0 0 0c0,0 -89.76,-2.62 -176.62,-66.28 25.45,15.22 50.34,25.72 72.34,32.89 66.32,31.9 122.26,33.39 122.26,33.39l0 0z"/>
   </clipPath>
   <clipPath id="id10">
    <path d="M8544.58 67.74c-25.38,-15.18 -50.21,-25.68 -72.27,-32.86 -61.62,-29.71 -114.38,-33.11 -121.5,-33.41l17.15 0c0,0 89.76,2.55 176.62,66.27l0 0z"/>
   </clipPath>
   <clipPath id="id11">
    <path d="M-0 11390.86l0 -10509.44c0.09,2.99 0.16,2.99 0.26,2.99l0.04 2610.92 0 5197.89 0 2694.65c-0.11,0 -0.21,2.99 -0.3,2.99l0 0z"/>
   </clipPath>
   <clipPath id="id12">
    <path d="M0.3 6580.26l0 -498.7 17.35 0 0 498.7 -17.35 0 0 0z"/>
   </clipPath>
   <clipPath id="id13">
    <path d="M0.3 11388.6l0 -2696.06 0 -2111.64c5.72,0 11.61,0 17.35,0l0 2099.24 -0.02 2646.44c-5.87,20.67 -11.55,41.35 -17.33,62.02l0 0z"/>
   </clipPath>
   <clipPath id="id14">
    <path d="M17.65 6081.03c-5.78,0 -11.59,0 -17.35,0l0 -2584.21 -0.04 -2612.5c5.7,62.52 11.48,125.04 17.39,187.56l0 5009.15 0 0z"/>
   </clipPath>
 </defs>
 <g id="Layer_x0020_1">
  <metadata id="CorelCorpID_0Corel-Layer"/>
  <path class="fil0" d="M8367.98 1.46l-8030.8 0c0,0 -336.93,9.14 -336.93,455.16l0.05 3039.69 0 8236.48c0,445.92 336.88,455.05 336.88,455.05l8030.8 0c0,0 336.89,-9.13 336.89,-455.05l0 -11276.17c0,-446.02 -336.89,-455.16 -336.89,-455.16z"/>
  <g style="clip-path:url(#id0)">
   <image x="-4.87" y="6551.96" width="8730.29" height="5662.84" xlink:href="8_Images\8_ImgID1.png"/>
  </g>
  <g style="clip-path:url(#id1)">
   <image x="-4.87" y="-2.83" width="8730.29" height="6118.1" xlink:href="8_Images\8_ImgID2.png"/>
  </g>
  <g style="clip-path:url(#id2)">
   <image x="8326.74" y="-20.51" width="411.94" height="12062.94" xlink:href="8_Images\8_ImgID3.png"/>
  </g>
  <g style="clip-path:url(#id3)">
   <image x="8667.08" y="6061.34" width="71.6" height="544.54" xlink:href="8_Images\8_ImgID4.png"/>
  </g>
  <g style="clip-path:url(#id4)">
   <image x="198.45" y="6551.96" width="8540.23" height="5662.84" xlink:href="8_Images\8_ImgID5.png"/>
  </g>
  <g style="clip-path:url(#id5)">
   <image x="8326.74" y="-20.51" width="411.94" height="6135.78" xlink:href="8_Images\8_ImgID6.png"/>
  </g>
  <g style="clip-path:url(#id6)">
   <image x="-0.45" y="6061.34" width="53.92" height="544.54" xlink:href="8_Images\8_ImgID7.png"/>
  </g>
  <g style="clip-path:url(#id7)">
   <image x="-18.13" y="6551.96" width="376.58" height="5662.84" xlink:href="8_Images\8_ImgID8.png"/>
  </g>
  <g style="clip-path:url(#id8)">
   <image x="-18.13" y="-20.51" width="8522.55" height="6135.78" xlink:href="8_Images\8_ImgID9.png"/>
  </g>
  <g style="clip-path:url(#id9)">
   <image x="132.15" y="12090.16" width="243.98" height="124.64" xlink:href="8_Images\8_ImgID10.png"/>
  </g>
  <g style="clip-path:url(#id10)">
   <image x="8326.74" y="-20.51" width="243.98" height="106.96" xlink:href="8_Images\8_ImgID11.png"/>
  </g>
  <g style="clip-path:url(#id11)">
   <image x="-18.13" y="863.48" width="53.92" height="10551.31" xlink:href="8_Images\8_ImgID12.png"/>
  </g>
  <g style="clip-path:url(#id12)">
   <image x="-18.13" y="6061.34" width="71.6" height="544.54" xlink:href="8_Images\8_ImgID13.png"/>
  </g>
  <g style="clip-path:url(#id13)">
   <image x="-18.13" y="6551.96" width="71.6" height="4862.83" xlink:href="8_Images\8_ImgID14.png"/>
  </g>
  <g style="clip-path:url(#id14)">
   <image x="-18.13" y="863.48" width="71.6" height="5251.79" xlink:href="8_Images\8_ImgID15.png"/>
  </g>
  <path class="fil1" d="M937.97 2354.99c-181.65,133.26 -271.43,272.58 -273.76,276.2l0 0.23 -0.05 -0.14 -0.05 0.14 0 -0.23c-2.33,-3.62 -92.12,-142.94 -273.75,-276.2 -184.08,-135.03 -225.99,-303.47 -160.14,-430.59 65.86,-127.07 329.14,-189 433.94,63.47 104.78,-252.47 368.08,-190.54 433.95,-63.47 65.85,127.12 23.92,295.56 -160.14,430.59z"/>
  <path class="fil1" d="M468.7 791.52c0,30.23 3.57,58.74 10.75,85.35 7.19,26.7 18.73,49.81 34.64,69.31 15.9,19.49 36.56,35 61.93,46.58 25.39,11.49 56.59,17.28 93.52,17.28 42.56,0 78.35,-8.35 107.36,-25.01 28.94,-16.67 50.52,-41.02 64.63,-73.11 14.1,-32.04 21.16,-69.08 21.16,-111.2 0,-46.15 -8.37,-85.27 -25,-117.35 -16.69,-32.05 -39.62,-55.74 -68.87,-71.17 -29.27,-15.38 -62.86,-23.11 -100.83,-23.11 -64.62,0 -114.02,17.59 -148.12,52.68 -34.14,35.19 -51.17,85.09 -51.17,149.75zm-8.48 504.76c0,33.37 3.83,64.53 11.56,93.53 7.67,28.99 19.84,54.01 36.54,75 16.66,21.09 38.09,37.71 64.26,49.99 26.16,12.33 57.98,18.52 95.41,18.52 42.06,0 78.13,-8.57 108.13,-25.77 30.01,-17.23 52.84,-42.74 68.51,-76.55 15.63,-33.86 23.43,-73.9 23.43,-120.04 0,-49.29 -8.46,-91.67 -25.38,-127.39 -16.92,-35.62 -40.8,-62.81 -71.58,-81.63 -30.77,-18.66 -66.44,-28.03 -106.94,-28.03 -37.97,0 -69.91,5.88 -95.81,17.68 -25.91,11.8 -46.94,27.76 -63.09,47.69 -16.18,20.07 -27.73,43.5 -34.65,70.5 -6.92,26.92 -10.39,55.74 -10.39,86.5zm377.08 -264.71l1.53 10.03c57.98,22.54 101.87,55.52 131.6,98.92 29.76,43.32 44.63,95.52 44.63,156.6 0,59.98 -14.35,112.8 -43.1,158.5 -28.76,45.66 -70.42,80.93 -125.07,105.77 -54.61,24.93 -118.37,37.35 -191.24,37.35 -68.22,0 -128.1,-11.45 -179.67,-34.21 -51.54,-22.85 -91.57,-56.22 -120.03,-100.07 -28.49,-43.89 -42.71,-95.52 -42.71,-155.05 0,-44.64 7.7,-83.36 23.1,-116.25 15.38,-32.75 35.53,-59.84 60.41,-81.15 24.84,-21.26 56.29,-40.66 94.25,-58.12l-1.55 -9.99c-110.31,-47.69 -165.42,-129.46 -165.42,-245.48 0,-52.87 14.48,-100.03 43.51,-141.57 28.93,-41.6 70.22,-74.13 123.86,-97.73 53.59,-23.6 112.97,-35.4 178.14,-35.4 73.85,0 135.93,10.34 186.23,31.2 50.26,20.73 88.09,50.74 113.5,89.99 25.36,39.21 38.09,86.32 38.09,141.18 0,56.44 -13.83,105.06 -41.56,145.85 -27.69,40.76 -70.51,74.04 -128.5,99.63z"/>
  <path class="fil1" d="M7748.48 9814.06c181.61,-133.25 271.34,-272.55 273.72,-276.19l0 -0.21 0.09 0.11 0.05 -0.11 0 0.21c2.3,3.64 92.06,142.94 273.68,276.19 184.09,135.09 225.99,303.5 160.18,430.57 -65.86,127.11 -329.15,189.06 -433.91,-63.4 -104.84,252.46 -368.14,190.51 -433.99,63.4 -65.86,-127.07 -23.91,-295.48 160.18,-430.57z"/>
  <path class="fil1" d="M8217.7 11377.61c0,-30.3 -3.58,-58.74 -10.74,-85.43 -7.21,-26.71 -18.79,-49.71 -34.65,-69.26 -15.92,-19.47 -36.56,-34.99 -61.93,-46.52 -25.41,-11.62 -56.62,-17.34 -93.52,-17.34 -42.57,0 -78.37,8.34 -107.32,25.02 -28.95,16.7 -50.56,40.99 -64.66,73.1 -14.1,32.06 -21.18,69.15 -21.18,111.16 0,46.22 8.36,85.34 25.07,117.33 16.66,32.07 39.6,55.84 68.81,71.26 29.26,15.34 62.86,23.08 100.82,23.08 64.62,0 114.04,-17.58 148.12,-52.75 34.12,-35.1 51.18,-84.98 51.18,-149.65zm8.44 -504.79c0,-33.37 -3.8,-64.56 -11.49,-93.51 -7.69,-29.01 -19.89,-54.06 -36.6,-75.04 -16.62,-21.06 -38.01,-37.76 -64.18,-50.03 -26.21,-12.35 -58.03,-18.48 -95.47,-18.48 -42.03,0 -78.05,8.64 -108.11,25.78 -30.01,17.18 -52.82,42.73 -68.51,76.59 -15.6,33.88 -23.42,73.88 -23.42,120.05 0,49.25 8.44,91.69 25.37,127.36 16.93,35.62 40.84,62.83 71.6,81.56 30.81,18.74 66.39,28.11 106.96,28.11 37.97,0 69.84,-5.95 95.83,-17.75 25.85,-11.81 46.89,-27.66 63.03,-47.72 16.13,-19.97 27.71,-43.38 34.65,-70.39 6.89,-26.91 10.34,-55.77 10.34,-86.53zm-377.02 264.66l-1.59 -9.95c-57.9,-22.58 -101.84,-55.56 -131.58,-98.92 -29.75,-43.36 -44.6,-95.54 -44.6,-156.57 0,-60.03 14.36,-112.91 43.05,-158.53 28.82,-45.65 70.45,-80.92 125.08,-105.84 54.68,-24.9 118.37,-37.29 191.25,-37.29 68.25,0 128.14,11.4 179.68,34.26 51.53,22.78 91.58,56.09 120,100.05 28.51,43.81 42.74,95.53 42.74,155.01 0,44.66 -7.69,83.39 -23.12,116.21 -15.34,32.84 -35.49,59.89 -60.37,81.16 -24.89,21.27 -56.31,40.65 -94.28,58.1l1.59 10.03c110.28,47.73 165.44,129.51 165.44,245.47 0,52.81 -14.5,100.05 -43.54,141.61 -28.95,41.54 -70.23,74.14 -123.85,97.74 -53.61,23.6 -112.97,35.39 -178.16,35.39 -73.86,0 -135.92,-10.41 -186.26,-31.15 -50.26,-20.78 -88.05,-50.81 -113.46,-90.04 -25.42,-39.25 -38.1,-86.29 -38.1,-141.21 0,-56.44 13.79,-105.09 41.59,-145.84 27.63,-40.81 70.45,-74.02 128.49,-99.69z"/>
  <path class="fil1" d="M3288.81 2879.6c-360.53,264.49 -538.68,541.04 -543.3,548.29l0 0.35 -0.09 -0.22 -0.12 0.22 0 -0.35c-4.65,-7.25 -182.84,-283.8 -543.34,-548.29 -365.31,-268.03 -448.46,-602.27 -317.79,-854.51 130.66,-252.25 653.2,-375.21 861.25,125.83 207.91,-501.04 730.55,-378.08 861.2,-125.83 130.7,252.24 47.55,586.48 -317.81,854.51z"/>
  <path class="fil1" d="M2201.99 9285.21c360.54,-264.44 538.7,-541.01 543.31,-548.25l0 -0.34 0.12 0.17 0.09 -0.17 0 0.34c4.66,7.24 182.85,283.81 543.34,548.25 365.32,268.08 448.44,602.31 317.8,854.53 -130.68,252.25 -653.23,375.22 -861.23,-125.86 -207.94,501.08 -730.55,378.11 -861.22,125.86 -130.71,-252.22 -47.55,-586.45 317.79,-854.53z"/>
  <path class="fil1" d="M6502.85 2879.6c-360.54,264.49 -538.66,541.04 -543.35,548.29l0 0.35 -0.09 -0.22 -0.13 0.22 0 -0.35c-4.6,-7.25 -182.81,-283.8 -543.3,-548.29 -365.31,-268.03 -448.45,-602.27 -317.8,-854.51 130.66,-252.25 653.23,-375.21 861.23,125.83 207.92,-501.04 730.58,-378.08 861.23,-125.83 130.7,252.24 47.51,586.48 -317.79,854.51z"/>
  <path class="fil1" d="M3288.81 6345.15c-360.53,264.49 -538.71,541.05 -543.3,548.25l0 0.4 -0.09 -0.22 -0.12 0.22 0 -0.4c-4.65,-7.2 -182.88,-283.76 -543.36,-548.25 -365.29,-267.98 -448.44,-602.31 -317.77,-854.47 130.66,-252.29 653.2,-375.25 861.25,125.8 207.91,-501.05 730.5,-378.09 861.16,-125.8 130.71,252.16 47.59,586.49 -317.77,854.47z"/>
  <path class="fil1" d="M6502.85 6345.15c-360.54,264.49 -538.66,541.05 -543.35,548.25l0 0.4 -0.09 -0.22 -0.13 0.22 0 -0.4c-4.6,-7.2 -182.81,-283.76 -543.3,-548.25 -365.31,-267.98 -448.45,-602.31 -317.8,-854.47 130.66,-252.29 653.23,-375.25 861.23,125.8 207.92,-501.05 730.58,-378.09 861.23,-125.8 130.7,252.16 47.51,586.49 -317.79,854.47z"/>
  <path class="fil1" d="M5416.02 9285.21c360.54,-264.44 538.66,-541.01 543.26,-548.25l0 -0.34 0.13 0.17 0.09 -0.17 0 0.34c4.69,7.24 182.9,283.81 543.35,548.25 365.3,268.08 448.44,602.31 317.79,854.53 -130.61,252.25 -653.18,375.22 -861.23,-125.86 -207.87,501.08 -730.53,378.11 -861.23,125.86 -130.69,-252.22 -47.51,-586.45 317.84,-854.53z"/>
  <path class="fil1" d="M4895.79 4656.37c-360.53,264.45 -538.71,541.01 -543.32,548.25l0 0.36 -0.07 -0.22 -0.1 0.22 0 -0.36c-4.66,-7.24 -182.9,-283.8 -543.36,-548.25 -365.31,-268.02 -448.46,-602.3 -317.81,-854.51 130.7,-252.29 653.24,-375.21 861.27,125.84 207.88,-501.05 730.54,-378.13 861.19,-125.84 130.7,252.21 47.51,586.49 -317.8,854.51z"/>
  <path class="fil1" d="M4895.79 7703.75c-360.53,-264.49 -538.71,-541 -543.32,-548.25l0 -0.35 -0.07 0.18 -0.1 -0.18 0 0.35c-4.66,7.25 -182.9,283.76 -543.36,548.25 -365.31,268.11 -448.46,602.28 -317.81,854.6 130.7,252.2 653.24,375.11 861.27,-125.91 207.88,501.02 730.54,378.11 861.19,125.91 130.7,-252.32 47.51,-586.49 -317.8,-854.6z"/>
 </g>
</svg>
