<?xml version="1.0" encoding="UTF-8"?>
<!DOCTYPE svg PUBLIC "-//W3C//DTD SVG 1.1//EN" "http://www.w3.org/Graphics/SVG/1.1/DTD/svg11.dtd">
<!-- Creator: CorelDRAW -->
<svg xmlns="http://www.w3.org/2000/svg" xml:space="preserve" width="100%" height="100%" version="1.1" style="shape-rendering:geometricPrecision; text-rendering:geometricPrecision; image-rendering:optimizeQuality; fill-rule:evenodd; clip-rule:evenodd"
viewBox="0 0 10122.18 14183.63"
 xmlns:xlink="http://www.w3.org/1999/xlink"
 xmlns:xodm="http://www.corel.com/coreldraw/odm/2003">
 <defs>
  <style type="text/css">
   <![CDATA[
    .fil0 {fill:#FEFEFE;fill-rule:nonzero}
    .fil1 {fill:#1D1D1E;fill-rule:nonzero}
   ]]>
  </style>
   <clipPath id="id0">
    <path d="M9729.38 14183.63l-4477.82 0 -380.36 0 -4457.65 0c0,0 -95.09,-3.73 -190.18,-67.14 86.45,48.49 164.25,52.22 164.25,52.22l4477.82 0 380.36 0 4480.7 0c0,0 391.88,-11.19 391.88,-529.6l0 -3535.59 0 -2442.83c0,0 2.88,0 2.88,0l0 2459.62 0 3533.72c0,518.41 -391.88,529.6 -391.88,529.6zm-25.93 -35.44l-4480.71 0 -383.23 0 -4483.59 0c0,0 -72.04,-3.72 -155.6,-46.61 -92.21,-70.87 -178.65,-201.4 -178.65,-447.55l0 0 0 -3528.13 0 -2463.35c1982.46,0 3964.92,-1.86 5947.38,-1.86 1374.47,0 2751.81,0 4129.16,0l0 2429.78 0 3528.13 0 0c0,518.41 -394.76,529.59 -394.76,529.59l0 0z"/>
   </clipPath>
   <clipPath id="id1">
    <path d="M9919.2 7086.56c-2452.97,0 -4908.83,0 -7361.81,-2.03 -845.55,0 -1691.11,0 -2536.66,-2.02l0 -2990.65 0 -3528.53c0,-519.67 392.48,-529.78 392.48,-529.78l4484.61 0 380.93 0 4481.73 0c0,0 72.15,2.02 155.84,46.51 92.34,70.77 181.8,202.21 181.8,446.88l0 0 0 3528.52 0 3031.1c-60.6,0 -118.32,0 -178.92,0zm199.13 0l0 -3025.03 0 -3534.59c0,-88.97 -11.55,-163.79 -31.75,-224.45 23.09,64.7 34.63,143.56 34.63,240.62l0 3534.59 0 3008.86c0,0 -2.88,0 -2.88,0zm-10117.8 -6543.45l0 0c0,-519.67 392.47,-529.78 392.47,-529.78l9338.62 0c0,0 75.03,2.02 161.61,48.53 0,0 0,2.02 0,2.02 -83.69,-48.53 -161.61,-50.55 -161.61,-50.55l-4478.84 0 -380.93 0 -4478.85 0c0,0 -392.47,10.11 -392.47,529.78l0 0z"/>
   </clipPath>
   <clipPath id="id2">
    <path d="M21.07 7663.1l0 -580 0.31 0 0 580 -0.31 0 0 0z"/>
   </clipPath>
   <clipPath id="id3">
    <path d="M413.52 14183.63l-20.89 0c0,0 -391.8,-11.19 -391.8,-529.6l0 -399.06c6.84,-24.24 13.4,-50.35 20.24,-74.59l0 -3074.99 0 -2442.84c0.13,0 0.26,0 0.26,0l0 2463.35 0 3528.13 0 0c0,246.15 87.5,376.68 179.87,447.55 -6.31,-3.73 -12.61,-7.46 -19.05,-11.19l0 0c13.79,11.19 27.72,18.64 41.38,26.1 95.92,63.41 189.99,67.14 189.99,67.14l0 0z"/>
   </clipPath>
   <clipPath id="id4">
    <path d="M22.62 7082.51c0,0 -2.82,0 -2.82,0l0 -5823.58c-5.66,-72.8 -11.31,-145.59 -19.8,-218.39l0 -497.43c0,-519.67 393.04,-529.78 393.04,-529.78l4478.9 0 378.89 0 4478.9 0c0,0 79.17,2.02 164,50.55 8.48,4.05 14.14,10.11 22.62,16.18 -82,-44.49 -155.51,-46.51 -155.51,-46.51l-4481.73 0 -381.72 0 -4484.56 0c0,0 -390.21,10.11 -390.21,529.78l0 3528.53 0 2990.65 0 0z"/>
   </clipPath>
   <clipPath id="id5">
    <path d="M0.51 13257.06l0 -12220.85c0.11,3.48 0.2,3.48 0.31,3.48l0.05 3037.83 0 6040.91 0 3135.16c-0.11,0 -0.21,0 -0.36,3.47l0 0z"/>
   </clipPath>
   <clipPath id="id6">
    <path d="M0.87 7663.1l0 -580 20.18 0 0 580 -20.18 0 0 0z"/>
   </clipPath>
   <clipPath id="id7">
    <path d="M0.87 13253.65l0 -3133.73 0 -2457.08c6.68,0 13.5,0 20.18,0l0 2442.68 -0.04 3076.14c-6.78,24 -13.36,47.99 -20.14,71.99l0 0z"/>
   </clipPath>
   <clipPath id="id8">
    <path d="M21.05 7083.44c-6.68,0 -13.5,0 -20.18,0l0 -3007.24 -0.05 -3034.92c6.62,72.63 13.37,145.26 20.23,217.89l0 5824.27 0 0z"/>
   </clipPath>
   <clipPath id="id9">
    <path d="M10086.22 301.88c-44.08,-128.53 -122.05,-199.89 -193.99,-239.43 -67.3,-43.95 -133.47,-57.95 -166.37,-62.45l20.72 0c65.29,8.91 263.04,55.99 339.64,301.88z"/>
   </clipPath>
   <clipPath id="id10">
    <path d="M10096.81 7660.41l0 -573.72c6.66,0 13.39,0 20.43,0l0 573.72c-7.04,0 -13.77,0 -20.43,0l0 0z"/>
   </clipPath>
   <clipPath id="id11">
    <path d="M9725.2 14168.73l-4477.11 0 -381.33 0 -4479.93 0c0,0 -76.27,-3.72 -163.84,-52.05 -5.65,-3.72 -14.12,-9.3 -22.59,-14.87 84.74,42.75 155.35,46.47 155.35,46.47l4485.59 0 381.33 0 4482.76 0c0,0 392.62,-11.15 392.62,-529.8l0 0 0 0 0 -3528.26 0 -2429.63c5.65,0 11.3,0 19.78,0l0 2444.5 0 3533.84c0,518.64 -392.63,529.8 -392.63,529.8l0 0z"/>
   </clipPath>
   <clipPath id="id12">
    <path d="M10096.76 7086.75l0 -3031.35 0 -3529.2 0 0c0,-244.92 -87.79,-375.41 -180.23,-445.67 6.39,2.01 13.02,6.02 19.42,10.04l0 0 0 0 0 0c-14.13,-10.04 -27.87,-20.08 -41.61,-26.1 -0.71,-2.01 -1.5,-2.01 -2.13,-2.01 71.92,40.15 149.92,110.42 193.97,238.9 19.42,62.23 31.11,136.51 31.11,224.84l0 3535.23 0 3025.32c-7.11,0 -13.82,0 -20.53,0l0 0z"/>
   </clipPath>
   <clipPath id="id13">
    <path d="M223.55 14117.37c-13.68,-7.63 -27.56,-16.42 -41.37,-26.6 6.42,3.85 12.73,7.41 18.99,10.74 7.47,5.64 14.91,10.98 22.38,15.86l0 0z"/>
   </clipPath>
   <clipPath id="id14">
    <path d="M9935.94 90.47c-6.36,-3.91 -13.06,-7.49 -19.42,-10.85 -7.41,-5.71 -14.79,-11.05 -22.2,-15.98 13.77,7.72 27.48,16.61 41.62,26.83l0 0z"/>
   </clipPath>
 </defs>
 <g id="Layer_x0020_1">
  <metadata id="CorelCorpID_0Corel-Layer"/>
  <path class="fil0" d="M9730.65 13.33l-9338.04 0c0,0 -391.79,10.69 -391.79,529.26l0.05 3534.47 0 9577.1c0,518.52 391.74,529.16 391.74,529.16l9338.04 0c0,0 391.53,-10.64 391.53,-529.16l0 -13111.57c0,-518.57 -391.53,-529.26 -391.53,-529.26z"/>
  <g style="clip-path:url(#id0)">
   <image x="-10.03" y="7630.85" width="10165.87" height="6578.88" xlink:href="4_Images\4_ImgID1.png"/>
  </g>
  <g style="clip-path:url(#id1)">
   <image x="-25.44" y="-21.05" width="10181.29" height="7133.89" xlink:href="4_Images\4_ImgID2.png"/>
  </g>
  <g style="clip-path:url(#id2)">
   <image x="-10.03" y="7055.29" width="57.56" height="633.12" xlink:href="4_Images\4_ImgID3.png"/>
  </g>
  <g style="clip-path:url(#id3)">
   <image x="-25.44" y="7630.85" width="463.53" height="6578.88" xlink:href="4_Images\4_ImgID4.png"/>
  </g>
  <g style="clip-path:url(#id4)">
   <image x="-25.44" y="-21.05" width="9975.73" height="7133.89" xlink:href="4_Images\4_ImgID5.png"/>
  </g>
  <g style="clip-path:url(#id5)">
   <image x="-25.44" y="1011.88" width="52.42" height="12262.56" xlink:href="4_Images\4_ImgID6.png"/>
  </g>
  <g style="clip-path:url(#id6)">
   <image x="-25.44" y="7055.29" width="72.97" height="633.12" xlink:href="4_Images\4_ImgID7.png"/>
  </g>
  <g style="clip-path:url(#id7)">
   <image x="-25.44" y="7630.85" width="72.97" height="5643.59" xlink:href="4_Images\4_ImgID8.png"/>
  </g>
  <g style="clip-path:url(#id8)">
   <image x="-25.44" y="1011.88" width="72.97" height="6100.96" xlink:href="4_Images\4_ImgID9.png"/>
  </g>
  <g style="clip-path:url(#id9)">
   <image x="9676.89" y="-21.05" width="442.97" height="345.34" xlink:href="4_Images\4_ImgID10.png"/>
  </g>
  <g style="clip-path:url(#id10)">
   <image x="10062.31" y="7055.29" width="78.11" height="633.12" xlink:href="4_Images\4_ImgID11.png"/>
  </g>
  <g style="clip-path:url(#id11)">
   <image x="174.97" y="7630.85" width="9965.45" height="6558.33" xlink:href="4_Images\4_ImgID12.png"/>
  </g>
  <g style="clip-path:url(#id12)">
   <image x="9861.89" y="30.34" width="278.53" height="7082.5" xlink:href="4_Images\4_ImgID13.png"/>
  </g>
  <g style="clip-path:url(#id13)">
   <image x="159.56" y="14064.81" width="88.39" height="72.97" xlink:href="4_Images\4_ImgID14.png"/>
  </g>
  <g style="clip-path:url(#id14)">
   <image x="9861.89" y="30.34" width="108.94" height="88.39" xlink:href="4_Images\4_ImgID15.png"/>
  </g>
  <path class="fil1" d="M739.69 2814.27c-22.04,263.37 -170.56,447.8 -170.56,447.8l341.13 0c0,0 -148.52,-184.43 -170.57,-447.8z"/>
  <path class="fil1" d="M986.83 2516.16c-33.87,0 -66.19,6.88 -95.54,19.27l-2.26 -2.26c59.41,-45.12 97.8,-116.5 97.8,-196.83 0,-136.49 -110.59,-247.08 -247.14,-247.08 -136.44,0 -247.03,110.59 -247.03,247.08 0,85.98 43.89,161.68 110.54,205.92 -33.3,-16.7 -70.81,-26.1 -110.54,-26.1 -136.54,0 -247.13,110.59 -247.13,247.08 0,136.44 110.59,247.08 247.13,247.08 132.85,0 241.12,-104.84 246.83,-236.29l0.51 0.31c5.81,131.3 114.04,235.98 246.83,235.98 136.43,0 247.08,-110.64 247.08,-247.08 0,-136.49 -110.65,-247.08 -247.08,-247.08z"/>
  <path class="fil1" d="M448.88 1365.6l349.86 0 0 -222.83c0,-56.06 0.87,-118.81 2.67,-188.34 1.85,-69.53 3.91,-121.79 6.32,-157.05l-8.99 0 -349.86 555.68 0 12.54zm245.18 413.37c37,-9.55 61.77,-20.14 74.26,-31.76 12.49,-11.61 20.76,-28.16 24.61,-49.69 3.86,-21.43 5.81,-54.27 5.81,-98.41l0 -146.72 -497.5 0 0 -67.16 523.5 -790.06 127.91 0 0 770.43 18.76 0c34.64,0 59.41,-2.57 74.31,-7.61 14.9,-5.09 27.23,-14.03 37.1,-26.88 9.87,-12.79 18.96,-33.81 27.34,-63.05l67.99 0 -10.74 184.33 -214.76 0 0 146.72c0,39.98 1.39,69.22 4.06,87.67 2.67,18.5 7.09,33.15 13.41,43.89 6.22,10.74 15.47,19.73 27.7,26.87 12.23,7.15 32.12,14.29 59.51,21.43l0 43.84 -363.27 0 0 -43.84z"/>
  <path class="fil1" d="M9297.38 11314.4c22.25,-263.32 170.77,-447.81 170.77,-447.81l-341.13 0c0,0 148.52,184.49 170.36,447.81z"/>
  <path class="fil1" d="M9050.45 11612.51c33.87,0 65.99,-6.84 95.28,-19.22l2.47 2.21c-59.62,45.17 -97.75,116.5 -97.75,196.87 0,136.44 110.44,247.03 246.93,247.03 136.54,0 246.98,-110.59 246.98,-247.03 0,-85.97 -43.73,-161.72 -110.44,-205.97 33.15,16.7 70.92,26.11 110.44,26.11 136.54,0 247.28,-110.59 247.28,-247.08 0,-136.44 -110.74,-247.03 -247.28,-247.03 -132.64,0 -240.97,104.83 -246.57,236.29l-0.72 -0.31c-5.65,-131.35 -113.98,-235.98 -246.62,-235.98 -136.49,0 -247.28,110.59 -247.28,247.03 0,136.49 110.79,247.08 247.28,247.08z"/>
  <path class="fil1" d="M9588.45 12763.17l-349.96 0 0 222.77c0,56.07 -1.03,118.81 -2.83,188.29 -1.75,69.53 -3.85,121.85 -6.37,157.1l9.2 0 349.96 -555.72 0 -12.44zm-245.54 -413.43c-36.69,9.56 -61.72,20.09 -74.05,31.76 -12.75,11.56 -20.81,28.16 -24.72,49.64 -3.9,21.48 -5.65,54.32 -5.65,98.46l0 146.67 497.45 0 0 67.17 -523.56 790.11 -128.06 0 0 -770.38 -18.71 0c-34.53,0 -59.25,2.47 -74.05,7.5 -15.16,5.09 -27.54,14.08 -37.41,26.88 -9.51,12.85 -18.65,33.86 -27.13,63.1l-68.09 0 10.94 -184.38 214.45 0 0 -146.67c0,-40.03 -1.03,-69.27 -3.85,-87.72 -2.83,-18.45 -7.1,-33.14 -13.42,-43.88 -6.37,-10.64 -15.52,-19.69 -27.9,-26.83 -11.98,-7.14 -32.07,-14.29 -59.25,-21.43l0 -43.89 363.01 0 0 43.89z"/>
  <path class="fil1" d="M6926.06 3096.34c-43.78,522.69 -338.34,888.73 -338.34,888.73l676.64 0c0,0 -294.56,-366.04 -338.3,-888.73z"/>
  <path class="fil1" d="M7416.42 2504.59c-67.42,0 -131.25,13.67 -189.47,38.29l-4.57 -4.58c117.83,-89.52 194.04,-231.09 194.04,-390.56 0,-270.87 -219.43,-490.35 -490.36,-490.35 -270.92,0 -490.35,219.48 -490.35,490.35 0,170.57 87.1,320.88 219.43,408.76 -65.99,-33.15 -140.45,-51.91 -219.43,-51.91 -270.98,0 -490.36,219.64 -490.36,490.46 0,270.83 219.38,490.36 490.36,490.36 263.47,0 478.69,-208.18 489.63,-469.08l1.08 0.77c11.62,260.6 226.48,468.31 490,468.31 270.93,0 490.36,-219.53 490.36,-490.36 0,-270.82 -219.43,-490.46 -490.36,-490.46z"/>
  <path class="fil1" d="M6926.06 11046.19c43.74,-522.63 338.3,-888.67 338.3,-888.67l-676.64 0c0,0 294.56,366.04 338.34,888.67z"/>
  <path class="fil1" d="M6435.71 11637.94c67.37,0 131.19,-13.66 189.42,-38.28l4.57 4.57c-117.78,89.58 -193.99,231.05 -193.99,390.61 0,270.83 219.43,490.36 490.35,490.36 270.93,0 490.36,-219.53 490.36,-490.36 0,-170.66 -87.15,-320.92 -219.43,-408.8 65.93,33.2 140.4,51.9 219.43,51.9 270.93,0 490.36,-219.58 490.36,-490.46 0,-270.82 -219.43,-490.36 -490.36,-490.36 -263.52,0 -478.74,208.18 -490,469.09l-1.08 -0.77c-11.3,-260.55 -226.16,-468.32 -489.63,-468.32 -270.98,0 -490.36,219.54 -490.36,490.36 0,270.88 219.38,490.46 490.36,490.46z"/>
  <path class="fil1" d="M3186.96 3096.34c-43.73,522.69 -338.65,888.73 -338.65,888.73l676.95 0c0,0 -294.56,-366.04 -338.3,-888.73z"/>
  <path class="fil1" d="M3677.32 2504.59c-67.37,0 -131.61,13.67 -189.78,38.29l-4.21 -4.58c117.78,-89.52 193.99,-231.09 193.99,-390.56 0,-270.87 -219.79,-490.35 -490.36,-490.35 -270.92,0 -490.35,219.48 -490.35,490.35 0,170.57 87.15,320.88 219.43,408.76 -66.35,-33.15 -140.76,-51.91 -219.43,-51.91 -270.98,0 -490.57,219.64 -490.57,490.46 0,270.83 219.59,490.36 490.57,490.36 263.52,0 478.38,-208.18 489.63,-469.08l1.08 0.77c11.62,260.6 226.48,468.31 490,468.31 270.57,0 490.36,-219.53 490.36,-490.36 0,-270.82 -219.79,-490.46 -490.36,-490.46z"/>
  <path class="fil1" d="M3186.96 11046.19c43.38,-522.63 338.3,-888.67 338.3,-888.67l-676.95 0c0,0 294.56,366.04 338.65,888.67z"/>
  <path class="fil1" d="M2696.25 11637.94c67.37,0 131.6,-13.66 189.78,-38.28l4.26 4.57c-117.83,89.58 -194.04,231.05 -194.04,390.61 0,270.83 219.79,490.36 490.71,490.36 270.57,0 490.36,-219.53 490.36,-490.36 0,-170.66 -87.46,-320.92 -219.43,-408.8 65.98,33.2 140.4,51.9 219.43,51.9 270.57,0 490.36,-219.58 490.36,-490.46 0,-270.82 -219.79,-490.36 -490.36,-490.36 -263.88,0 -478.74,208.18 -490,469.09l-1.08 -0.77c-11.61,-260.55 -226.47,-468.32 -489.99,-468.32 -270.62,0 -490.21,219.54 -490.21,490.36 0,270.88 219.59,490.46 490.21,490.46z"/>
 </g>
</svg>
