<?xml version="1.0" encoding="UTF-8"?>
<!DOCTYPE svg PUBLIC "-//W3C//DTD SVG 1.1//EN" "http://www.w3.org/Graphics/SVG/1.1/DTD/svg11.dtd">
<!-- Creator: CorelDRAW -->
<svg xmlns="http://www.w3.org/2000/svg" xml:space="preserve" width="100%" height="100%" version="1.1" style="shape-rendering:geometricPrecision; text-rendering:geometricPrecision; image-rendering:optimizeQuality; fill-rule:evenodd; clip-rule:evenodd"
viewBox="0 0 10122.32 14170.99"
 xmlns:xlink="http://www.w3.org/1999/xlink"
 xmlns:xodm="http://www.corel.com/coreldraw/odm/2003">
 <defs>
  <style type="text/css">
   <![CDATA[
    .fil0 {fill:#FEFEFE;fill-rule:nonzero}
    .fil1 {fill:#1D1D1E;fill-rule:nonzero}
   ]]>
  </style>
   <clipPath id="id0">
    <path d="M9729.32 14170.99l-4476.79 0 -382.65 0 -4456.65 0c0,0 0,0 0,0l4456.65 0 382.65 0 4476.79 0c0,0 233.05,-7.46 339.5,-246.15 -106.45,238.69 -339.5,246.15 -339.5,246.15zm-20.14 -20.52l-4482.54 0 -382.66 0 -4482.54 0c0,0 -37.4,-1.86 -92.07,-18.64 -112.2,-54.08 -247.43,-182.75 -247.43,-490.44l0 0 0 -3528.13 0 -2463.35c1982.33,0 3964.66,-1.86 5946.99,-1.86 1378.14,0 2753.4,0 4131.54,0l0 2444.7 0 3528.13 0 0c0,518.41 -391.29,529.59 -391.29,529.59l0 0z"/>
   </clipPath>
   <clipPath id="id1">
    <path d="M9919.21 7073.36c-2454.18,0 -4908.35,0 -7362.53,-2.02 -845.87,0 -1691.74,0 -2534.74,-2.01l0 -2990.25 0 -3528.97c0,-518.55 391.29,-528.64 391.29,-528.64l4482.54 0 382.66 0 4482.54 0c0,0 37.4,0 89.19,18.16 112.21,54.48 250.31,181.6 250.31,488.29l0 0 0 3530.99 0 3014.45c-60.42,0 -120.84,0 -181.26,0l0 0z"/>
   </clipPath>
   <clipPath id="id2">
    <path d="M10069.21 13923.84c31.93,-71.3 52.95,-162.39 52.95,-281.22l0 -5996.71 0 0 0 -570.36 0 0 0 -6547.26 0 0c0,-518.87 -392.06,-526.79 -392.06,-526.79l-20.1 0c-0.53,0 -1.05,0 -1.05,0l21.15 0c0,0 392.06,7.92 392.06,526.79l0 3537.03 0 6040.27 0 3537.03c0,118.83 -21.02,209.92 -52.95,281.22l0 0z"/>
   </clipPath>
   <clipPath id="id3">
    <path d="M10101.59 7647.69l0 -573.9 20.56 0 0 573.9 -20.56 0 0 0z"/>
   </clipPath>
   <clipPath id="id4">
    <path d="M9729.11 14170.99l-4476.99 0 -381.98 0 -4457.32 0c-8.43,-1.87 -70.22,-5.6 -143.25,-39.16 53.37,16.78 92.69,18.64 92.69,18.64l4482.61 0 381.97 0 4482.61 0c0,0 393.21,-11.18 393.21,-529.59l0 0 0 0 0 -3528.13 0 -2444.7c5.62,0 11.24,0 19.66,0l0 2459.62 0 3533.72c0,119.35 -22.47,212.59 -53.36,283.45 -106.73,238.69 -339.85,246.15 -339.85,246.15l0 0z"/>
   </clipPath>
   <clipPath id="id5">
    <path d="M10101.53 7073.29l0 -3014.92 0 -3530.55 0 0c0,-305.33 -138.22,-434.74 -250.16,-489.34 25.62,10.11 54.39,22.24 83.69,38.42l0 0 0 0 0 0c-100.64,-72.8 -204.96,-76.84 -204.96,-76.84l-20.1 0 0 0 20.1 0c0,0 392.06,10.11 392.06,529.79l0 3534.59 0 3008.85c-7.23,0 -13.93,0 -20.63,0l0 0z"/>
   </clipPath>
   <clipPath id="id6">
    <path d="M20.46 7650.32l0 -580.15 0.36 0 0 580.15 -0.36 0 0 0z"/>
   </clipPath>
   <clipPath id="id7">
    <path d="M413.18 14170.99l-20.91 0c0,0 -391.92,-11.19 -391.92,-529.6l0 -399.06c6.78,-26.1 13.44,-50.34 20.09,-74.59l0 -3074.99 0 -2442.84 0.41 0 0 2463.35 0 3528.13 0 0c0,307.69 137.52,436.36 249.79,490.44 -25.39,-9.33 -54.44,-20.52 -84.04,-39.16l0 0c101.28,74.59 205.4,78.32 205.4,78.32l20.09 0c0.68,0 1.09,0 1.09,0l0 0z"/>
   </clipPath>
   <clipPath id="id8">
    <path d="M19.71 7070.05c0,0 0,0 0,0l0 -5825.12c-5.63,-72.64 -11.25,-145.28 -19.68,-217.91l0 -496.36c0,-518.55 393.42,-530.66 393.42,-530.66l4476.5 0 382.18 0 4456.83 0c8.43,0 70.25,4.04 143.31,40.36 -53.39,-18.16 -92.73,-20.18 -92.73,-20.18l-4482.12 0 -382.18 0 -4482.12 0c0,0 -393.41,12.11 -393.41,528.64l0 3530.99 0 2990.24 0 0z"/>
   </clipPath>
   <clipPath id="id9">
    <path d="M412.05 14170.42l-20.06 0c0,0 -104.13,-3 -205.34,-77.15 29.61,17.71 58.5,29.87 83.92,38.25 72,34.54 133.35,38.49 141.48,38.9l0 0z"/>
   </clipPath>
   <clipPath id="id10">
    <path d="M9935.09 77.62c-29.29,-17.71 -58.11,-29.92 -83.77,-38.28 -71.44,-34.54 -133.1,-38.43 -141.31,-38.82l20.05 0c0,0 104.29,3.01 205.03,77.1l0 0z"/>
   </clipPath>
   <clipPath id="id11">
    <path d="M-0 13241.42l0 -12215.33c0.36,0 0.36,0 0.36,0l0 3038.17 0 6041.54 0 3135.62c0,0 0,0 -0.36,0l0 0z"/>
   </clipPath>
   <clipPath id="id12">
    <path d="M0.37 7650.32l0 -580.15c6.73,0 13.41,0 20.09,0l0 580.15c-6.68,0 -13.36,0 -20.09,0l0 0z"/>
   </clipPath>
   <clipPath id="id13">
    <path d="M0.37 13242.07l0 -3135.33 0 -2457.08c6.73,0 13.41,0 20.09,0l0 2442.68 0 3076.14c-6.68,24 -13.36,47.99 -20.09,73.59l0 0z"/>
   </clipPath>
   <clipPath id="id14">
    <path d="M20.46 7069.82c-6.68,0 -13.36,0 -20.09,0l0 -3004.82 0 -3037.6c6.73,72.45 13.41,144.9 20.09,219.07l0 5823.35 0 0z"/>
   </clipPath>
 </defs>
 <g id="Layer_x0020_1">
  <metadata id="CorelCorpID_0Corel-Layer"/>
  <path class="fil0" d="M9730.04 0.5l-9337.72 0c0,0 -391.95,10.63 -391.95,529.26l0 13111.56c0,518.47 391.95,529.11 391.95,529.11l9337.72 0c0,0 392.11,-10.64 392.11,-529.11l0 -13111.56c0,-518.63 -392.11,-529.26 -392.11,-529.26z"/>
  <g style="clip-path:url(#id0)">
   <image x="-15.46" y="7625.67" width="10150.45" height="6578.88" xlink:href="5_Images\5_ImgID1.png"/>
  </g>
  <g style="clip-path:url(#id1)">
   <image x="-15.46" y="-10.81" width="10150.45" height="7118.47" xlink:href="5_Images\5_ImgID2.png"/>
  </g>
  <g style="clip-path:url(#id2)">
   <image x="9686.88" y="-26.23" width="463.53" height="13973.83" xlink:href="5_Images\5_ImgID3.png"/>
  </g>
  <g style="clip-path:url(#id3)">
   <image x="10077.44" y="7050.11" width="72.97" height="633.12" xlink:href="5_Images\5_ImgID4.png"/>
  </g>
  <g style="clip-path:url(#id4)">
   <image x="241.49" y="7625.67" width="9908.92" height="6578.88" xlink:href="5_Images\5_ImgID5.png"/>
  </g>
  <g style="clip-path:url(#id5)">
   <image x="9686.88" y="-26.23" width="463.53" height="7133.89" xlink:href="5_Images\5_ImgID6.png"/>
  </g>
  <g style="clip-path:url(#id6)">
   <image x="-15.46" y="7034.69" width="57.55" height="648.54" xlink:href="5_Images\5_ImgID7.png"/>
  </g>
  <g style="clip-path:url(#id7)">
   <image x="-30.88" y="7625.67" width="478.95" height="6578.88" xlink:href="5_Images\5_ImgID8.png"/>
  </g>
  <g style="clip-path:url(#id8)">
   <image x="-30.88" y="-26.23" width="9914.06" height="7118.47" xlink:href="5_Images\5_ImgID9.png"/>
  </g>
  <g style="clip-path:url(#id9)">
   <image x="154.13" y="14059.63" width="278.53" height="144.92" xlink:href="5_Images\5_ImgID10.png"/>
  </g>
  <g style="clip-path:url(#id10)">
   <image x="9686.88" y="-26.23" width="278.53" height="139.78" xlink:href="5_Images\5_ImgID11.png"/>
  </g>
  <g style="clip-path:url(#id11)">
   <image x="-30.88" y="991.29" width="57.55" height="12277.98" xlink:href="5_Images\5_ImgID12.png"/>
  </g>
  <g style="clip-path:url(#id12)">
   <image x="-30.88" y="7034.69" width="72.97" height="648.54" xlink:href="5_Images\5_ImgID13.png"/>
  </g>
  <g style="clip-path:url(#id13)">
   <image x="-30.88" y="7625.67" width="72.97" height="5643.59" xlink:href="5_Images\5_ImgID14.png"/>
  </g>
  <g style="clip-path:url(#id14)">
   <image x="-30.88" y="1006.7" width="72.97" height="6085.54" xlink:href="5_Images\5_ImgID15.png"/>
  </g>
  <path class="fil1" d="M756.36 2816.79c-21.84,263.32 -170.41,447.76 -170.41,447.76l340.82 0c0,0 -148.16,-184.44 -170.41,-447.76z"/>
  <path class="fil1" d="M1003.65 2518.68c-33.87,0 -66.3,6.89 -95.59,19.28l-2.47 -2.32c59.62,-45.12 98.06,-116.45 98.06,-196.77 0,-136.49 -110.75,-247.13 -247.29,-247.13 -136.54,0 -246.93,110.64 -246.93,247.13 0,85.93 43.73,161.67 110.39,205.92 -33.15,-16.7 -70.87,-26.11 -110.39,-26.11 -136.54,0 -247.28,110.59 -247.28,247.08 0,136.44 110.74,247.09 247.28,247.09 132.64,0 240.97,-104.89 246.57,-236.34l0.72 0.36c5.65,131.3 113.93,235.98 246.93,235.98 136.18,0 246.97,-110.65 246.97,-247.09 0,-136.49 -110.79,-247.08 -246.97,-247.08z"/>
  <path class="fil1" d="M384.56 1828.88l0 -189.68 108.27 0c17.99,60.85 45.17,105.56 81.15,134.23 35.97,28.63 82.53,42.91 140.03,42.91 79.4,0 139.37,-23.79 179.92,-71.58 40.6,-47.64 60.69,-118.97 60.69,-213.83 0,-63.21 -10.59,-115.53 -32.07,-157.05 -21.53,-41.42 -50.46,-71.38 -86.79,-89.88 -36.39,-18.5 -79.04,-27.8 -127.04,-27.8 -40.55,0 -75.49,2.57 -104.78,7.6 -29.24,5.14 -60.64,13.01 -94.15,23.75l-71.28 -42.04 0 -588.77 492.83 0c20.45,0 34.94,-1.64 43.73,-4.93 9.2,-3.24 16.24,-8.38 21.53,-15.21 5.3,-6.84 11.67,-19.84 19.07,-38.91l69.48 0 -13.41 207.57 -514.31 0 0 392.82c30.99,-13.11 64.55,-22.92 101.19,-29.55 36.38,-6.58 72.71,-9.82 109.04,-9.82 70.92,0 133.67,14.49 188.76,43.38 54.98,28.93 97.33,70.09 126.98,123.54 29.96,53.39 44.81,115.21 44.81,185.61 0,79.92 -16.6,148.57 -50.1,205.77 -33.51,57.3 -81.87,100.88 -145.02,130.68 -63.11,29.86 -137.93,44.76 -224.37,44.76 -103.34,0 -211.31,-21.22 -324.16,-63.57z"/>
  <path class="fil1" d="M9306.08 11316.92c21.58,-263.37 170.1,-447.75 170.1,-447.75l-341.23 0c0,0 148.52,184.38 171.13,447.75z"/>
  <path class="fil1" d="M9058.38 11615.04c33.92,0 66.81,-6.89 96.1,-19.28l2.06 2.27c-59.62,45.17 -98.16,116.5 -98.16,196.82 0,136.49 111,247.08 247.7,247.08 136.18,0 246.67,-110.59 246.67,-247.08 0,-85.93 -43.68,-161.67 -110.49,-205.97 33.41,16.75 70.92,26.16 110.49,26.16 136.7,0 247.18,-110.65 247.18,-247.14 0,-136.38 -110.48,-247.03 -247.18,-247.03 -132.59,0 -241.02,104.89 -246.67,236.34l-0.51 -0.36c-6.17,-131.3 -114.09,-235.98 -247.19,-235.98 -136.18,0 -246.67,110.65 -246.67,247.03 0,136.49 110.49,247.14 246.67,247.14z"/>
  <path class="fil1" d="M9677.63 12304.79l0 189.67 -108.44 0c-17.98,-60.79 -44.7,-105.55 -80.68,-134.17 -35.97,-28.68 -83.25,-42.97 -140.29,-42.97 -79.14,0 -139.27,23.85 -179.86,71.59 -40.6,47.69 -60.64,118.97 -60.64,213.88 0,63.21 10.27,115.53 31.86,157 21.58,41.42 50.87,71.43 86.85,89.88 36.48,18.55 78.62,27.8 126.93,27.8 40.6,0 75.54,-2.57 104.83,-7.61 29.29,-5.08 60.64,-12.95 94.05,-23.69l71.43 42.04 0 588.72 -492.83 0c-20.55,0 -34.94,1.69 -44.19,4.98 -8.74,3.29 -15.93,8.38 -21.07,15.21 -5.66,6.84 -11.31,19.79 -19.02,38.91l-69.37 0 12.84 -207.57 514.93 0 0 -392.82c-31.35,13.11 -64.75,22.92 -101.24,29.55 -36.49,6.53 -72.97,9.77 -108.95,9.77 -70.91,0 -134.12,-14.44 -189.11,-43.38 -54.99,-28.88 -97.13,-70.04 -126.93,-123.49 -29.81,-53.39 -44.71,-115.26 -44.71,-185.62 0,-79.96 16.44,-148.56 50.36,-205.81 33.4,-57.3 81.2,-100.83 144.92,-130.68 63.21,-29.81 137.72,-44.71 224.06,-44.71 103.29,0 211.72,21.17 324.27,63.52z"/>
  <path class="fil1" d="M5058.12 7348.94c-43.37,522.68 -338.3,888.73 -338.3,888.73l676.96 0c0,0 -294.57,-366.05 -338.66,-888.73z"/>
  <path class="fil1" d="M5548.84 6757.19c-67.37,0 -131.61,13.72 -189.78,38.28l-4.27 -4.57c117.84,-89.52 194.05,-231.1 194.05,-390.56 0,-270.88 -219.79,-490.36 -490.72,-490.36 -270.56,0 -490.36,219.48 -490.36,490.36 0,170.61 87.52,320.93 219.44,408.7 -65.99,-33.1 -140.4,-51.85 -219.44,-51.85 -270.92,0 -490.36,219.64 -490.36,490.46 0,270.82 219.44,490.36 490.36,490.36 263.89,0 478.7,-208.18 490,-469.09l1.08 0.72c11.62,260.65 226.47,468.37 490,468.37 270.57,0 490.36,-219.54 490.36,-490.36 0,-270.82 -219.79,-490.46 -490.36,-490.46z"/>
  <path class="fil1" d="M6927.83 3098.92c-43.74,522.63 -338.3,888.68 -338.3,888.68l676.64 0c0,0 -294.61,-366.05 -338.34,-888.68z"/>
  <path class="fil1" d="M7418.18 2507.12c-67.01,0 -131.19,13.72 -189.42,38.34l-4.57 -4.63c117.83,-89.52 193.99,-231.1 193.99,-390.56 0,-270.87 -219.43,-490.36 -490.35,-490.36 -270.93,0 -490.36,219.49 -490.36,490.36 0,170.62 87.15,320.93 219.43,408.75 -65.98,-33.14 -140.4,-51.9 -219.43,-51.9 -270.93,0 -490.36,219.64 -490.36,490.46 0,270.88 219.43,490.36 490.36,490.36 263.52,0 478.74,-208.18 490.05,-469.03l1.03 0.72c11.3,260.6 226.47,468.31 489.63,468.31 270.98,0 490.62,-219.48 490.62,-490.36 0,-270.82 -219.64,-490.46 -490.62,-490.46z"/>
  <path class="fil1" d="M6927.83 11048.72c43.73,-522.63 338.34,-888.68 338.34,-888.68l-676.64 0c0,0 294.56,366.05 338.3,888.68z"/>
  <path class="fil1" d="M6437.47 11640.52c67.37,0 131.25,-13.72 189.83,-38.33l4.21 4.57c-117.83,89.57 -194.04,231.1 -194.04,390.61 0,270.83 219.43,490.36 490.36,490.36 270.92,0 490.35,-219.53 490.35,-490.36 0,-170.66 -87.1,-320.98 -219.43,-408.75 65.99,33.15 140.4,51.9 219.43,51.9 270.98,0 490.62,-219.58 490.62,-490.51 0,-270.77 -219.64,-490.31 -490.62,-490.31 -263.52,0 -478.69,208.13 -489.63,469.09l-1.03 -0.77c-11.67,-260.65 -226.53,-468.32 -490.05,-468.32 -270.93,0 -490.36,219.54 -490.36,490.31 0,270.93 219.43,490.51 490.36,490.51z"/>
  <path class="fil1" d="M3188.78 3098.92c-43.73,522.63 -338.66,888.68 -338.66,888.68l676.95 0c0,0 -294.56,-366.05 -338.29,-888.68z"/>
  <path class="fil1" d="M3679.14 2507.12c-67.38,0 -131.25,13.72 -189.79,38.34l-4.26 -4.63c117.84,-89.52 194.05,-231.1 194.05,-390.56 0,-270.87 -219.44,-490.36 -490.36,-490.36 -270.93,0 -490.36,219.49 -490.36,490.36 0,170.62 87.1,320.93 219.43,408.75 -65.98,-33.14 -140.81,-51.9 -219.43,-51.9 -270.93,0 -490.36,219.64 -490.36,490.46 0,270.88 219.43,490.36 490.36,490.36 263.52,0 478.33,-208.18 489.64,-469.03l1.03 0.72c11.66,260.6 226.52,468.31 490.05,468.31 270.92,0 490.35,-219.48 490.35,-490.36 0,-270.82 -219.43,-490.46 -490.35,-490.46z"/>
  <path class="fil1" d="M3188.78 11048.72c43.73,-522.63 338.29,-888.68 338.29,-888.68l-676.95 0c0,0 294.93,366.05 338.66,888.68z"/>
  <path class="fil1" d="M2698.06 11640.52c67.37,0 131.61,-13.72 189.78,-38.33l4.21 4.57c-117.83,89.57 -193.99,231.1 -193.99,390.61 0,270.83 219.79,490.36 490.72,490.36 270.56,0 490.36,-219.53 490.36,-490.36 0,-170.66 -87.16,-320.98 -219.44,-408.75 65.99,33.15 140.4,51.9 219.44,51.9 270.92,0 490.35,-219.58 490.35,-490.51 0,-270.77 -219.43,-490.31 -490.35,-490.31 -263.89,0 -478.75,208.13 -490.05,469.09l-1.03 -0.77c-11.62,-260.65 -226.48,-468.32 -490,-468.32 -270.57,0 -490,219.54 -490,490.31 0,270.93 219.43,490.51 490,490.51z"/>
 </g>
</svg>
