<?xml version="1.0" encoding="UTF-8"?>
<!DOCTYPE svg PUBLIC "-//W3C//DTD SVG 1.1//EN" "http://www.w3.org/Graphics/SVG/1.1/DTD/svg11.dtd">
<!-- Creator: CorelDRAW -->
<svg xmlns="http://www.w3.org/2000/svg" xml:space="preserve" width="100%" height="100%" version="1.1" style="shape-rendering:geometricPrecision; text-rendering:geometricPrecision; image-rendering:optimizeQuality; fill-rule:evenodd; clip-rule:evenodd"
viewBox="0 0 10121.69 14170.99"
 xmlns:xlink="http://www.w3.org/1999/xlink"
 xmlns:xodm="http://www.corel.com/coreldraw/odm/2003">
 <defs>
  <style type="text/css">
   <![CDATA[
    .fil0 {fill:#FEFEFE;fill-rule:nonzero}
    .fil1 {fill:#1D1D1E;fill-rule:nonzero}
   ]]>
  </style>
   <clipPath id="id0">
    <path d="M9730.61 14170.99l-4478.61 0 -382.08 0 -4458.49 0c0,0 0,0 0,0l4458.49 0 382.08 0 4478.61 0c0,0 140.76,-3.73 252.8,-119.35 -112.04,115.62 -252.8,119.35 -252.8,119.35zm-22.99 -20.52l-4481.48 0 -382.07 0 -4481.48 0c0,0 -40.22,-1.86 -91.93,-18.64 -112.03,-54.08 -249.92,-182.75 -249.92,-490.44l0 0 0 -3528.13 0 -2463.35c1982.19,0 3964.38,-1.86 5946.57,-1.86 1378.92,0 2754.96,0 4133.88,0l0 2444.7 0 3528.13 0 0c0,518.41 -393.57,529.59 -393.57,529.59l0 0z"/>
   </clipPath>
   <clipPath id="id1">
    <path d="M9920.21 7073.36c-2456.2,0 -4909.52,0 -7365.72,-2.02 -844.58,0 -1689.17,0 -2533.75,-2.01l0 -2990.25 0 -3528.97c0,-518.55 390.69,-528.64 390.69,-528.64l4484.35 0 382.07 0 4481.48 0c0,0 40.22,0 91.93,18.16 112.04,54.48 249.93,181.6 249.93,488.29l0 0 0 3530.99 0 3014.45c-60.33,0 -120.66,0 -180.98,0l0 0z"/>
   </clipPath>
   <clipPath id="id2">
    <path d="M9983.99 14050.35c66.08,-68 122.71,-172 135.19,-340.01l0 0c-12.48,168.01 -69.11,272.01 -135.19,340.01zm135.19 -13592.56c-33.76,-448.01 -389.03,-456.02 -389.03,-456.02l-20.1 0c-1.05,0 -1.05,0 -1.05,0l21.15 0c0,0 355.27,8.01 389.03,456.02l0 0z"/>
   </clipPath>
   <clipPath id="id3">
    <path d="M10101.13 7647.69l18.06 0 0 -573.9 -18.06 0 0 573.9z"/>
   </clipPath>
   <clipPath id="id4">
    <path d="M9729.65 14170.99l-4476.99 0 -381.97 0 -4460.14 0c-8.43,-1.87 -67.41,-5.6 -140.43,-39.16 53.36,16.78 92.68,18.64 92.68,18.64l4482.61 0 379.17 0 4485.41 0c0,0 390.4,-11.18 390.4,-529.59l0 -3528.13 0 -2444.7 19.67 0 0 6064.2c-14.05,165.97 -70.22,272.26 -134.82,339.39 -115.15,115.62 -255.59,119.35 -255.59,119.35z"/>
   </clipPath>
   <clipPath id="id5">
    <path d="M10101.18 7073.29l0 -3014.92 0 -3530.55c0,-305.33 -137.82,-434.74 -249.76,-489.34 25.09,10.11 54.39,22.24 83.69,38.42 -100.64,-72.8 -204.96,-76.84 -204.96,-76.84l-20.1 0 20.1 0c0,0 355.27,10.11 389.03,459.01l0 6614.22 -18 0z"/>
   </clipPath>
   <clipPath id="id6">
    <path d="M20.57 7650.32l0 -580.15 0 0 0 580.15 0 0 0 0z"/>
   </clipPath>
   <clipPath id="id7">
    <path d="M412.72 14170.99l-20.64 0c0,0 -392.06,-11.19 -392.06,-529.6l0 -399.06c6.65,-26.1 13.31,-50.34 20.5,-74.59l0 -3074.99 0 -2442.84 0 0 0 2463.35 0 3528.13 0 0c0,307.69 137.79,436.36 249.79,490.44 -25.66,-9.33 -54.44,-20.52 -83.76,-39.16l0 0c100.73,74.59 205.53,78.32 205.53,78.32l19.55 0c0.55,0 1.09,0 1.09,0l0 0z"/>
   </clipPath>
   <clipPath id="id8">
    <path d="M20.25 7070.05l0 0 0 -5825.12c-5.62,-72.64 -14.05,-145.28 -19.67,-217.91l0 -496.36c0,-518.55 390.6,-530.66 390.6,-530.66l4479.32 0 382.17 0 4456.83 0c8.43,0 70.25,4.04 140.51,40.36 -50.59,-18.16 -89.93,-20.18 -89.93,-20.18l-4482.12 0 -382.17 0 -4482.13 0c0,0 -393.41,12.11 -393.41,528.64l0 3530.99 0 2990.24 0 0z"/>
   </clipPath>
   <clipPath id="id9">
    <path d="M411.67 14170.42l-19.58 0c0,0 -104.82,-3 -205.55,-77.15 29.33,17.71 58.07,29.87 83.82,38.25 71.9,34.54 133.06,38.49 141.31,38.9l0 0z"/>
   </clipPath>
   <clipPath id="id10">
    <path d="M9935.14 77.62c-29.29,-17.71 -58.58,-29.92 -83.76,-38.28 -71.92,-34.54 -133.11,-38.43 -141.32,-38.82l20.06 0c0,0 104.29,3.01 205.02,77.1l0 0z"/>
   </clipPath>
   <clipPath id="id11">
    <path d="M0.02 13241.42l0 -12215.33c0,0 0,0 0,3.48l0 3034.69 0 6041.54 0 3135.62c0,0 0,0 0,0l0 0z"/>
   </clipPath>
   <clipPath id="id12">
    <path d="M0.02 7650.32l0 -580.15c7.19,0 13.88,0 20.57,0l0 580.15c-6.69,0 -13.38,0 -20.57,0l0 0z"/>
   </clipPath>
   <clipPath id="id13">
    <path d="M0.02 13242.07l0 -3135.33 0 -2457.08c7.19,0 13.88,0 20.57,0l0 2442.68 0 3076.14c-7.21,24 -13.88,47.99 -20.57,73.59l0 0z"/>
   </clipPath>
   <clipPath id="id14">
    <path d="M20.59 7069.82c-6.69,0 -13.38,0 -20.57,0l0 -3004.82 0 -3037.6c6.69,72.45 13.36,146.62 20.57,219.07l0 5823.35 0 0z"/>
   </clipPath>
 </defs>
 <g id="Layer_x0020_1">
  <metadata id="CorelCorpID_0Corel-Layer"/>
  <path class="fil0" d="M9730.11 0.5l-9337.99 0c0,0 -392.1,10.63 -392.1,529.26l0 13111.56c0,518.47 392.1,529.11 392.1,529.11l9337.99 0c0,0 391.58,-10.64 391.58,-529.11l0 -13111.56c0,-518.63 -391.58,-529.26 -391.58,-529.26z"/>
  <g style="clip-path:url(#id0)">
   <image x="-5.12" y="7625.67" width="10135.04" height="6578.88" xlink:href="7_Images\7_ImgID1.png"/>
  </g>
  <g style="clip-path:url(#id1)">
   <image x="-5.12" y="-10.81" width="10135.04" height="7118.47" xlink:href="7_Images\7_ImgID2.png"/>
  </g>
  <g style="clip-path:url(#id2)">
   <image x="9681.8" y="-26.23" width="463.53" height="14112.58" xlink:href="7_Images\7_ImgID3.png"/>
  </g>
  <g style="clip-path:url(#id3)">
   <image x="10072.36" y="7050.11" width="72.97" height="633.12" xlink:href="7_Images\7_ImgID4.png"/>
  </g>
  <g style="clip-path:url(#id4)">
   <image x="236.41" y="7625.67" width="9908.92" height="6578.88" xlink:href="7_Images\7_ImgID5.png"/>
  </g>
  <g style="clip-path:url(#id5)">
   <image x="9681.8" y="-26.23" width="463.53" height="7133.89" xlink:href="7_Images\7_ImgID6.png"/>
  </g>
  <g style="clip-path:url(#id6)">
   <image x="-5.12" y="7034.69" width="57.55" height="648.54" xlink:href="7_Images\7_ImgID7.png"/>
  </g>
  <g style="clip-path:url(#id7)">
   <image x="-35.95" y="7625.67" width="478.95" height="6578.88" xlink:href="7_Images\7_ImgID8.png"/>
  </g>
  <g style="clip-path:url(#id8)">
   <image x="-35.95" y="-26.23" width="9914.06" height="7118.47" xlink:href="7_Images\7_ImgID9.png"/>
  </g>
  <g style="clip-path:url(#id9)">
   <image x="149.05" y="14059.63" width="293.94" height="144.92" xlink:href="7_Images\7_ImgID10.png"/>
  </g>
  <g style="clip-path:url(#id10)">
   <image x="9681.8" y="-26.23" width="278.53" height="139.78" xlink:href="7_Images\7_ImgID11.png"/>
  </g>
  <g style="clip-path:url(#id11)">
   <image x="-35.95" y="991.29" width="57.55" height="12277.98" xlink:href="7_Images\7_ImgID12.png"/>
  </g>
  <g style="clip-path:url(#id12)">
   <image x="-35.95" y="7034.69" width="88.39" height="648.54" xlink:href="7_Images\7_ImgID13.png"/>
  </g>
  <g style="clip-path:url(#id13)">
   <image x="-35.95" y="7625.67" width="88.39" height="5643.59" xlink:href="7_Images\7_ImgID14.png"/>
  </g>
  <g style="clip-path:url(#id14)">
   <image x="-35.95" y="1006.7" width="88.39" height="6085.54" xlink:href="7_Images\7_ImgID15.png"/>
  </g>
  <path class="fil1" d="M798.61 2816.79c-22.61,263.32 -171.12,447.76 -171.12,447.76l341.22 0c0,0 -148.51,-184.44 -170.1,-447.76z"/>
  <path class="fil1" d="M1045.28 2518.68c-33.92,0 -66.29,6.89 -95.58,19.28l-2.06 -2.32c59.1,-45.12 97.64,-116.45 97.64,-196.77 0,-136.49 -110.49,-247.13 -246.67,-247.13 -136.69,0 -247.69,110.64 -247.69,247.13 0,85.93 44.19,161.67 111,205.92 -33.41,-16.7 -70.92,-26.11 -111,-26.11 -136.19,0 -246.67,110.59 -246.67,247.08 0,136.44 110.48,247.09 246.67,247.09 133.09,0 241.53,-104.89 247.18,-236.34l0.51 0.36c5.66,131.3 114.09,235.98 246.67,235.98 136.7,0 247.19,-110.65 247.19,-247.09 0,-136.49 -110.49,-247.08 -247.19,-247.08z"/>
  <path class="fil1" d="M1191.23 640.55l-521.09 1184.74 -129.5 0 0 -43.84 482.03 -1020.95 0 -13.42 -393.64 0c-24.16,0 -44.2,2.21 -58.59,6.68 -14.39,4.47 -26.72,10.9 -36.48,19.27 -10.28,8.33 -17.99,19.38 -24.67,33.1 -6.68,13.72 -15.93,40.85 -27.24,81.4l-76.57 0 17.99 -289.84 767.76 0 0 42.86z"/>
  <path class="fil1" d="M9327.21 11316.92c22.1,-263.37 170.62,-447.75 170.62,-447.75l-341.23 0c0,0 148.51,184.38 170.61,447.75z"/>
  <path class="fil1" d="M9080.03 11615.04c33.92,0 66.29,-6.89 95.58,-19.28l2.06 2.27c-59.61,45.17 -97.64,116.5 -97.64,196.82 0,136.49 110.49,247.08 247.18,247.08 136.18,0 246.67,-110.59 246.67,-247.08 0,-85.93 -43.68,-161.67 -110.49,-205.97 33.41,16.75 70.92,26.16 110.49,26.16 136.7,0 247.7,-110.65 247.7,-247.14 0,-136.38 -111,-247.03 -247.7,-247.03 -132.58,0 -241.01,104.89 -246.67,236.34l-0.51 -0.36c-5.65,-131.3 -114.09,-235.98 -246.67,-235.98 -136.18,0 -247.18,110.65 -247.18,247.03 0,136.49 111,247.14 247.18,247.14z"/>
  <path class="fil1" d="M8934.6 13493.17l520.57 -1184.79 130.02 0 0 43.84 -482.55 1021 0 13.42 393.64 0c24.67,0 43.68,-2.26 58.59,-6.68 14.39,-4.47 26.72,-10.9 37,-19.28 9.76,-8.37 17.98,-19.42 24.15,-33.09 6.68,-13.77 15.42,-40.85 27.24,-81.4l76.57 0 -17.99 289.84 -767.24 0 0 -42.86z"/>
  <path class="fil1" d="M6932.98 3110.59c-43.69,522.68 -338.66,888.68 -338.66,888.68l676.8 0c0,0 -294.46,-366 -338.14,-888.68z"/>
  <path class="fil1" d="M7423.23 2518.79c-67.32,0 -131.56,13.72 -189.63,38.33l-4.62 -4.57c118.2,-89.57 194.25,-231.1 194.25,-390.61 0,-270.88 -219.43,-490.31 -490.25,-490.31 -271.34,0 -490.77,219.43 -490.77,490.31 0,170.61 87.36,320.93 219.43,408.75 -65.78,-33.15 -140.29,-51.9 -219.43,-51.9 -270.83,0 -490.26,219.64 -490.26,490.51 0,270.82 219.43,490.31 490.26,490.31 263.62,0 478.95,-208.13 490.25,-469.04l1.03 0.72c11.31,260.6 226.11,468.32 489.74,468.32 270.82,0 490.26,-219.49 490.26,-490.31 0,-270.87 -219.44,-490.51 -490.26,-490.51z"/>
  <path class="fil1" d="M5062.91 5262.83c-43.68,522.63 -338.14,888.73 -338.14,888.73l676.8 0c0,0 -294.98,-366.1 -338.66,-888.73z"/>
  <path class="fil1" d="M5553.68 4671.03c-67.32,0 -131.56,13.72 -189.63,38.34l-4.11 -4.58c117.69,-89.57 193.74,-231.1 193.74,-390.56 0,-270.92 -219.43,-490.36 -490.77,-490.36 -270.31,0 -490.25,219.44 -490.25,490.36 0,170.56 87.36,320.88 219.43,408.7 -65.78,-33.14 -140.29,-51.9 -219.43,-51.9 -270.31,0 -490.26,219.64 -490.26,490.46 0,270.88 219.95,490.41 490.26,490.41 264.14,0 478.95,-208.23 490.25,-469.08l1.03 0.77c11.31,260.54 226.11,468.31 489.74,468.31 270.82,0 490.26,-219.53 490.26,-490.41 0,-270.82 -219.44,-490.46 -490.26,-490.46z"/>
  <path class="fil1" d="M6932.98 11060.39c43.68,-522.63 338.14,-888.68 338.14,-888.68l-676.8 0c0,0 294.97,366.05 338.66,888.68z"/>
  <path class="fil1" d="M6442.21 11652.19c67.83,0 131.55,-13.67 189.62,-38.34l4.63 4.63c-117.68,89.52 -194.25,231.1 -194.25,390.56 0,270.82 219.43,490.36 490.77,490.36 270.82,0 490.25,-219.54 490.25,-490.36 0,-170.56 -87.36,-320.88 -219.43,-408.75 65.78,33.19 140.29,51.9 219.43,51.9 270.82,0 490.26,-219.59 490.26,-490.46 0,-270.82 -219.44,-490.36 -490.26,-490.36 -263.63,0 -478.95,208.18 -489.74,469.08l-1.03 -0.77c-11.82,-260.59 -226.63,-468.31 -490.25,-468.31 -270.83,0 -490.26,219.54 -490.26,490.36 0,270.87 219.43,490.46 490.26,490.46z"/>
  <path class="fil1" d="M3193.88 3110.59c-43.68,522.68 -338.66,888.68 -338.66,888.68l676.8 0c0,0 -294.46,-366 -338.14,-888.68z"/>
  <path class="fil1" d="M3684.13 2518.79c-67.32,0 -131.55,13.72 -189.62,38.33l-4.63 -4.57c118.2,-89.57 194.25,-231.1 194.25,-390.61 0,-270.88 -219.94,-490.31 -490.25,-490.31 -271.34,0 -490.77,219.43 -490.77,490.31 0,170.61 87.36,320.93 219.43,408.75 -66.29,-33.15 -140.29,-51.9 -219.43,-51.9 -270.83,0 -490.26,219.64 -490.26,490.51 0,270.82 219.43,490.31 490.26,490.31 263.63,0 478.95,-208.13 489.74,-469.04l1.03 0.72c11.82,260.6 226.62,468.32 490.25,468.32 270.31,0 490.26,-219.49 490.26,-490.31 0,-270.87 -219.95,-490.51 -490.26,-490.51z"/>
  <path class="fil1" d="M6932.98 7360.65c-43.69,522.63 -338.66,888.68 -338.66,888.68l676.8 0c0,0 -294.46,-366.05 -338.14,-888.68z"/>
  <path class="fil1" d="M7423.23 6768.9c-67.32,0 -131.56,13.67 -189.63,38.29l-4.62 -4.63c118.2,-89.52 194.25,-231.04 194.25,-390.56 0,-270.87 -219.43,-490.36 -490.25,-490.36 -271.34,0 -490.77,219.49 -490.77,490.36 0,170.62 87.36,320.93 219.43,408.76 -65.78,-33.15 -140.29,-51.86 -219.43,-51.86 -270.83,0 -490.26,219.59 -490.26,490.46 0,270.83 219.43,490.31 490.26,490.31 263.62,0 478.95,-208.18 490.25,-469.08l1.03 0.77c11.31,260.6 226.11,468.31 489.74,468.31 270.82,0 490.26,-219.48 490.26,-490.31 0,-270.87 -219.44,-490.46 -490.26,-490.46z"/>
  <path class="fil1" d="M3193.88 7360.65c-43.68,522.63 -338.66,888.68 -338.66,888.68l676.8 0c0,0 -294.46,-366.05 -338.14,-888.68z"/>
  <path class="fil1" d="M3684.13 6768.9c-67.32,0 -131.55,13.67 -189.62,38.29l-4.63 -4.63c118.2,-89.52 194.25,-231.04 194.25,-390.56 0,-270.87 -219.94,-490.36 -490.25,-490.36 -271.34,0 -490.77,219.49 -490.77,490.36 0,170.62 87.36,320.93 219.43,408.76 -66.29,-33.15 -140.29,-51.86 -219.43,-51.86 -270.83,0 -490.26,219.59 -490.26,490.46 0,270.83 219.43,490.31 490.26,490.31 263.63,0 478.95,-208.18 489.74,-469.08l1.03 0.77c11.82,260.6 226.62,468.31 490.25,468.31 270.31,0 490.26,-219.48 490.26,-490.31 0,-270.87 -219.95,-490.46 -490.26,-490.46z"/>
  <path class="fil1" d="M3193.88 11060.39c43.68,-522.63 338.14,-888.68 338.14,-888.68l-676.8 0c0,0 294.98,366.05 338.66,888.68z"/>
  <path class="fil1" d="M2703.11 11652.19c67.32,0 131.55,-13.67 189.62,-38.34l4.12 4.63c-117.69,89.52 -193.74,231.1 -193.74,390.56 0,270.82 219.43,490.36 490.77,490.36 270.31,0 490.25,-219.54 490.25,-490.36 0,-170.56 -87.36,-320.88 -219.43,-408.75 65.78,33.19 140.29,51.9 219.43,51.9 270.31,0 490.26,-219.59 490.26,-490.46 0,-270.82 -219.95,-490.36 -490.26,-490.36 -264.14,0 -478.95,208.18 -490.25,469.08l-1.03 -0.77c-11.31,-260.59 -226.11,-468.31 -489.74,-468.31 -270.83,0 -490.26,219.54 -490.26,490.36 0,270.87 219.43,490.46 490.26,490.46z"/>
 </g>
</svg>
