<?xml version="1.0" encoding="UTF-8"?>
<!DOCTYPE svg PUBLIC "-//W3C//DTD SVG 1.1//EN" "http://www.w3.org/Graphics/SVG/1.1/DTD/svg11.dtd">
<!-- Creator: CorelDRAW -->
<svg xmlns="http://www.w3.org/2000/svg" xml:space="preserve" width="100%" height="100%" version="1.1" style="shape-rendering:geometricPrecision; text-rendering:geometricPrecision; image-rendering:optimizeQuality; fill-rule:evenodd; clip-rule:evenodd"
viewBox="0 0 10122.51 14171.7"
 xmlns:xlink="http://www.w3.org/1999/xlink"
 xmlns:xodm="http://www.corel.com/coreldraw/odm/2003">
 <defs>
  <style type="text/css">
   <![CDATA[
    .fil0 {fill:#FEFEFE;fill-rule:nonzero}
    .fil1 {fill:#1D1D1E;fill-rule:nonzero}
   ]]>
  </style>
   <clipPath id="id0">
    <path d="M9731.03 14171.35l-4479.21 0 -381.88 0 -4456.23 0c0,0 0,0 -2.87,0l4459.1 0 381.88 0 4479.21 0c0,0 229.7,-5.6 338.81,-244.29 -109.11,238.69 -338.81,244.29 -338.81,244.29zm-22.97 -20.52l-4482.08 0 -381.88 0 -4482.08 0c0,0 -37.32,0 -91.88,-18.64 -111.98,-54.08 -249.8,-182.75 -249.8,-488.57l0 0 0 -3530 0 -2461.48c1984.06,-1.87 3965.25,-1.87 5946.43,-1.87 1378.22,-1.86 2756.44,-1.86 4134.65,-1.86l0 2444.7 0 3530 0 0c0,516.54 -393.36,527.72 -393.36,527.72l0 0z"/>
   </clipPath>
   <clipPath id="id1">
    <path d="M9920.53 7075.89c-2454.95,-2.01 -4909.89,-2.01 -7364.84,-2.01 -844.16,-2.02 -1691.19,-2.02 -2535.35,-2.02l0 -2992.26 0 -3528.97c0,-518.55 393.37,-528.64 393.37,-528.64l4482.07 0 381.88 0 4482.08 0c0,0 40.2,2.02 91.88,18.16 111.98,54.47 249.8,183.61 249.8,490.3l0 0 0 3528.97 0 3016.47c-60.29,0 -120.59,0 -180.89,0l0 0z"/>
   </clipPath>
   <clipPath id="id2">
    <path d="M10069.01 13926.3c31.93,-71.3 52.82,-162.4 52.82,-285.18l0 -5992.75 0 0 0 -574.32 0 0 0 -6543.3 0 0c0,-518.87 -391.8,-530.75 -391.8,-530.75l-19.97 0c-0.53,0 -0.92,0 -0.92,0l20.89 0c0,0 391.8,11.88 391.8,530.75l0 3533.06 0 6044.24 0 3533.07c0,122.78 -20.89,213.88 -52.82,285.18l0 0z"/>
   </clipPath>
   <clipPath id="id3">
    <path d="M10101.27 7648.88l0 -573.9 20.49 0 0 573.9 -20.49 0 0 0z"/>
   </clipPath>
   <clipPath id="id4">
    <path d="M9729.7 14171.35l-4477.96 0 -381.58 0 -4458.31 0c-8.42,0 -70.15,-3.73 -140.29,-39.16 50.5,18.64 89.78,18.64 89.78,18.64l4483.57 0 381.58 0 4483.57 0c0,0 390,-11.18 390,-527.72l0 0 0 0 0 -3530 0 -2444.7c8.42,0 14.03,0 22.45,0l0 2459.62 0 3533.72c0,121.21 -22.45,212.59 -53.31,285.31 -106.62,238.69 -339.5,244.29 -339.5,244.29l0 0z"/>
   </clipPath>
   <clipPath id="id5">
    <path d="M10101.33 7075.83l0 -3016.94 0 -3528.53 0 0c0,-307.35 -137.69,-434.74 -249.9,-489.34 25.62,8.09 54.4,20.22 83.96,38.42l0 0 0 0 0 0c-101.04,-74.82 -205.36,-76.84 -205.36,-76.84l-19.97 0 0 0 19.97 0c0,0 391.8,10.11 391.8,527.76l0 3534.59 0 3010.88c-6.97,0 -13.67,0 -20.5,0l0 0z"/>
   </clipPath>
   <clipPath id="id6">
    <path d="M20.55 7651.57l0 -580.18 0.31 0 0 580.18 -0.31 0 0 0z"/>
   </clipPath>
   <clipPath id="id7">
    <path d="M412.92 14171.35l-20.76 0c0,0 -391.79,-11.19 -391.79,-529.6l0 -399.05c6.83,-24.25 13.4,-48.49 20.1,-72.73l0.13 -3076.86 0 -2440.97c0,0 0.13,0 0.26,0l0 2461.48 0 3530 0 0c0,305.82 137.57,434.49 249.77,488.57 -25.49,-7.46 -54.39,-20.52 -83.83,-37.3l0 0c100.91,74.59 205.36,76.46 205.36,76.46l19.84 0c0.66,0 0.92,0 0.92,0l0 0z"/>
   </clipPath>
   <clipPath id="id8">
    <path d="M21.15 7071.78c0,0 0,0 0,0l0 -5825.6c-8.42,-70.77 -14.03,-143.57 -19.63,-216.36l0 -499.46c0,-517.65 389.79,-527.76 389.79,-527.76l4478.44 0 381.38 0 4458.81 0c8.41,0 70.11,4.04 140.21,38.42 -50.47,-18.2 -89.73,-18.2 -89.73,-18.2l-4484.05 0 -381.38 0 -4481.24 0c0,0 -392.6,10.11 -392.6,527.76l0 3528.53 0 2992.67 0 0z"/>
   </clipPath>
   <clipPath id="id9">
    <path d="M412.06 14171.67l-19.97 0c0,0 -104.37,-3.04 -205.27,-77.11 29.45,17.67 58.34,29.83 83.77,38.25 71.84,34.5 133.26,38.49 141.47,38.86l0 0z"/>
   </clipPath>
   <clipPath id="id10">
    <path d="M9935.36 78.85c-29.45,-17.67 -58.35,-29.8 -83.92,-38.24 -71.76,-34.55 -133.06,-38.47 -141.35,-38.82l19.92 0c0,0 104.38,3.01 205.35,77.06l0 0z"/>
   </clipPath>
   <clipPath id="id11">
    <path d="M-0 13245.08l0 -12219.02c0.14,0 0.26,3.48 0.31,3.48l0.05 3035.63 0 6043.44 0 3132.99c-0.1,0 -0.22,3.48 -0.36,3.48l0 0z"/>
   </clipPath>
   <clipPath id="id12">
    <path d="M0.37 7651.57l0 -580.18 20.18 0 0 580.18 -20.18 0 0 0z"/>
   </clipPath>
   <clipPath id="id13">
    <path d="M0.37 13242.48l0 -3134.99 0 -2456.11c6.72,0 13.5,0 20.18,0l0 2441.7 -0.06 3077.35c-6.76,24.01 -13.34,48.03 -20.12,72.05l0 0z"/>
   </clipPath>
   <clipPath id="id14">
    <path d="M20.55 7071.57c-6.74,0 -13.46,0 -20.18,0l0 -3005.52 -0.07 -3036.64c6.62,72.63 13.43,145.26 20.25,217.89l0 5824.27 0 0z"/>
   </clipPath>
 </defs>
 <g id="Layer_x0020_1">
  <metadata id="CorelCorpID_0Corel-Layer"/>
  <path class="fil0" d="M9730.03 1.77l-9337.93 0c0,0 -391.79,10.63 -391.79,529.21l0.05 3534.51 0 9577.08c0,518.47 391.74,529.13 391.74,529.13l9337.93 0c0,0 391.74,-10.66 391.74,-529.13l0 -13111.59c0,-518.58 -391.74,-529.21 -391.74,-529.21z"/>
  <g style="clip-path:url(#id0)">
   <image x="-5.5" y="7624.17" width="10129.9" height="6578.88" xlink:href="9_Images\9_ImgID1.png"/>
  </g>
  <g style="clip-path:url(#id1)">
   <image x="-5.5" y="-12.31" width="10129.9" height="7118.47" xlink:href="9_Images\9_ImgID2.png"/>
  </g>
  <g style="clip-path:url(#id2)">
   <image x="9681.42" y="-27.73" width="463.53" height="13973.83" xlink:href="9_Images\9_ImgID3.png"/>
  </g>
  <g style="clip-path:url(#id3)">
   <image x="10071.98" y="7048.6" width="72.97" height="633.12" xlink:href="9_Images\9_ImgID4.png"/>
  </g>
  <g style="clip-path:url(#id4)">
   <image x="246.31" y="7624.17" width="9898.64" height="6578.88" xlink:href="9_Images\9_ImgID5.png"/>
  </g>
  <g style="clip-path:url(#id5)">
   <image x="9681.42" y="-27.73" width="463.53" height="7133.89" xlink:href="9_Images\9_ImgID6.png"/>
  </g>
  <g style="clip-path:url(#id6)">
   <image x="-5.5" y="7048.6" width="57.56" height="633.12" xlink:href="9_Images\9_ImgID7.png"/>
  </g>
  <g style="clip-path:url(#id7)">
   <image x="-20.92" y="7624.17" width="463.53" height="6578.88" xlink:href="9_Images\9_ImgID8.png"/>
  </g>
  <g style="clip-path:url(#id8)">
   <image x="-20.92" y="-27.73" width="9893.5" height="7133.89" xlink:href="9_Images\9_ImgID9.png"/>
  </g>
  <g style="clip-path:url(#id9)">
   <image x="164.08" y="14058.13" width="278.53" height="144.92" xlink:href="9_Images\9_ImgID10.png"/>
  </g>
  <g style="clip-path:url(#id10)">
   <image x="9681.42" y="-27.73" width="273.39" height="139.78" xlink:href="9_Images\9_ImgID11.png"/>
  </g>
  <g style="clip-path:url(#id11)">
   <image x="-20.92" y="1005.2" width="57.56" height="12267.7" xlink:href="9_Images\9_ImgID12.png"/>
  </g>
  <g style="clip-path:url(#id12)">
   <image x="-20.92" y="7048.6" width="72.97" height="633.12" xlink:href="9_Images\9_ImgID13.png"/>
  </g>
  <g style="clip-path:url(#id13)">
   <image x="-20.92" y="7624.16" width="72.97" height="5648.73" xlink:href="9_Images\9_ImgID14.png"/>
  </g>
  <g style="clip-path:url(#id14)">
   <image x="-20.92" y="1005.2" width="72.97" height="6100.96" xlink:href="9_Images\9_ImgID15.png"/>
  </g>
  <path class="fil1" d="M842.48 2818.01c-22.05,263.38 -170.57,447.81 -170.57,447.81l341.13 0c0,0 -148.52,-184.43 -170.56,-447.81z"/>
  <path class="fil1" d="M1089.61 2519.9c-33.92,0 -66.19,6.94 -95.59,19.33l-2.21 -2.32c59.41,-45.12 97.8,-116.45 97.8,-196.82 0,-136.49 -110.64,-247.08 -247.13,-247.08 -136.44,0 -247.03,110.59 -247.03,247.08 0,85.98 43.88,161.67 110.54,205.97 -33.25,-16.7 -70.82,-26.16 -110.54,-26.16 -136.54,0 -247.13,110.65 -247.13,247.14 0,136.43 110.59,247.02 247.13,247.02 132.79,0 241.17,-104.83 246.77,-236.28l0.51 0.3c5.86,131.36 114.09,235.98 246.88,235.98 136.44,0 247.08,-110.59 247.08,-247.02 0,-136.49 -110.64,-247.14 -247.08,-247.14z"/>
  <path class="fil1" d="M815.24 1257.47c22.56,0 44.3,-1.95 64.8,-5.81 20.61,-3.85 40.7,-9.5 60.44,-17.01 19.68,-7.4 38.9,-17.01 57.71,-28.67 18.75,-11.62 35.66,-23.95 50.56,-37.11 5.35,-4.78 10.13,-11.04 14.34,-18.8 4.16,-7.76 7.45,-17.89 9.82,-30.38 2.36,-12.53 3.59,-32.22 3.59,-59.09 0,-81.71 -8.22,-151.6 -24.66,-209.78 -16.34,-58.22 -41.42,-102.06 -75.19,-131.55 -33.66,-29.55 -75.23,-44.3 -124.72,-44.3 -44.76,0 -82.68,7.76 -113.67,23.23 -31.04,15.57 -56.27,36.9 -75.65,64.03 -19.37,27.13 -33.5,59.05 -42.44,95.74 -8.95,36.64 -13.42,76.47 -13.42,119.38 0,89 18.14,157.86 54.53,206.74 36.43,48.97 87.77,73.38 153.96,73.38zm-186.13 542.26l0 -43.83c83.51,0 155.81,-18.56 216.96,-55.5 61.16,-37.01 110.39,-91.73 147.7,-164.19 37.2,-72.46 62.13,-167.48 74.67,-285.01l-8.95 -3.6c-50.1,35.82 -99.43,62.13 -148.1,78.73 -48.61,16.81 -101.19,25.13 -157.92,25.13 -67.47,0 -124.83,-14.8 -172.21,-44.35 -47.48,-29.55 -83.09,-70.97 -106.94,-124.31 -23.84,-53.44 -35.82,-115.93 -35.82,-187.52 0,-53.7 8.95,-104.47 26.88,-152.52 17.88,-48 44.4,-90.09 79.6,-126.17 35.2,-36.12 79.19,-64.75 131.97,-85.92 52.78,-21.17 114.39,-31.76 184.8,-31.76 125.29,0 220.72,43.27 286.34,129.76 65.62,86.54 98.41,210.85 98.41,373.09 0,148.57 -24.15,277.25 -72.46,386.09 -48.36,108.89 -116.04,193.63 -203.09,254.17 -87.16,60.49 -188.8,96.2 -305.15,106.89l-36.69 -49.18z"/>
  <path class="fil1" d="M9324.36 11318.16c22,-263.31 170.51,-447.75 170.51,-447.75l-341.02 0c0,0 148.47,184.44 170.51,447.75z"/>
  <path class="fil1" d="M9077.28 11616.32c33.87,0 66.14,-6.95 95.54,-19.3l2.21 2.28c-59.41,45.1 -97.75,116.47 -97.75,196.8 0,136.48 110.59,247.11 247.08,247.11 136.44,0 247.08,-110.63 247.08,-247.11 0,-85.94 -43.93,-161.67 -110.59,-205.92 33.3,16.68 70.87,26.14 110.59,26.14 136.49,0 247.08,-110.63 247.08,-247.12 0,-136.42 -110.59,-247.04 -247.08,-247.04 -132.84,0 -241.17,104.8 -246.82,236.28l-0.51 -0.36c-5.86,-131.26 -114.14,-235.92 -246.83,-235.92 -136.44,0 -247.13,110.62 -247.13,247.04 0,136.49 110.69,247.12 247.13,247.12z"/>
  <path class="fil1" d="M9351.55 12878.77c-22.61,0 -44.2,1.91 -64.85,5.82 -20.56,3.84 -40.71,9.5 -60.39,16.97 -19.63,7.48 -38.9,17.04 -57.71,28.68 -18.81,11.64 -35.66,23.93 -50.57,37.08 -5.34,4.75 -10.07,11.08 -14.28,18.83 -4.22,7.73 -7.45,17.88 -9.87,30.45 -2.36,12.44 -3.6,32.18 -3.6,59.02 0,81.7 8.23,151.62 24.62,209.79 16.44,58.22 41.52,102.06 75.18,131.55 33.71,29.53 75.34,44.28 124.78,44.28 44.81,0 82.68,-7.73 113.72,-23.21 30.99,-15.55 56.17,-36.91 75.6,-64.03 19.32,-27.12 33.6,-59.02 42.49,-95.72 8.95,-36.67 13.42,-76.49 13.42,-119.44 0,-88.94 -18.19,-157.8 -54.58,-206.69 -36.38,-48.93 -87.67,-73.38 -153.96,-73.38zm186.23 -542.26l0 43.82c-83.61,0 -155.86,18.49 -217.07,55.49 -61.1,37.02 -110.38,91.76 -147.64,164.18 -37.25,72.51 -62.18,167.46 -74.72,285.02l8.94 3.59c50.16,-35.81 99.49,-62.09 148.11,-78.69 48.61,-16.8 101.29,-25.14 157.97,-25.14 67.37,0 124.77,14.8 172.21,44.35 47.48,29.51 83.09,70.94 106.89,124.32 23.94,53.41 35.87,115.92 35.87,187.47 0,53.72 -9,104.48 -26.88,152.58 -17.94,47.98 -44.45,90.05 -79.65,126.15 -35.21,36.09 -79.14,64.74 -131.97,85.93 -52.78,21.14 -114.4,31.72 -184.8,31.72 -125.29,0 -220.67,-43.26 -286.29,-129.72 -65.62,-86.54 -98.46,-210.91 -98.46,-373.09 0,-148.55 24.2,-277.29 72.46,-386.13 48.35,-108.86 116.03,-193.63 203.14,-254.16 87.11,-60.5 188.86,-96.17 305.15,-106.89l36.74 49.2z"/>
  <path class="fil1" d="M5061.04 7225.64c-43.73,522.63 -338.45,888.68 -338.45,888.68l676.9 0c0,0 -294.67,-366.05 -338.45,-888.68z"/>
  <path class="fil1" d="M5551.5 6633.79c-67.37,0 -131.4,13.77 -189.73,38.33l-4.32 -4.57c117.79,-89.57 194.05,-231.05 194.05,-390.56 0,-270.87 -219.64,-490.31 -490.46,-490.31 -270.82,0 -490.41,219.44 -490.41,490.31 0,170.61 87.21,320.93 219.48,408.7 -66.08,-33.09 -140.55,-51.9 -219.48,-51.9 -270.87,0 -490.41,219.69 -490.41,490.51 0,270.82 219.54,490.36 490.41,490.36 263.73,0 478.69,-208.18 489.84,-469.09l1.08 0.78c11.57,260.54 226.43,468.31 489.95,468.31 270.72,0 490.31,-219.54 490.31,-490.36 0,-270.82 -219.59,-490.51 -490.31,-490.51z"/>
  <path class="fil1" d="M6930.59 3111.81c-43.68,522.68 -338.4,888.73 -338.4,888.73l676.85 0c0,0 -294.62,-366.05 -338.45,-888.73z"/>
  <path class="fil1" d="M7421.05 2520.06c-67.27,0 -131.3,13.67 -189.63,38.28l-4.36 -4.57c117.83,-89.52 193.99,-231.1 193.99,-390.61 0,-270.82 -219.53,-490.36 -490.46,-490.36 -270.82,0 -490.31,219.54 -490.31,490.36 0,170.66 87.16,320.93 219.49,408.8 -66.09,-33.2 -140.66,-51.9 -219.49,-51.9 -270.87,0 -490.41,219.59 -490.41,490.46 0,270.82 219.54,490.36 490.41,490.36 263.68,0 478.59,-208.23 489.8,-469.03l1.02 0.66c11.62,260.65 226.53,468.37 489.95,468.37 270.82,0 490.36,-219.54 490.36,-490.36 0,-270.87 -219.54,-490.46 -490.36,-490.46z"/>
  <path class="fil1" d="M6930.59 11061.65c43.78,-522.66 338.45,-888.72 338.45,-888.72l-676.85 0c0,0 294.62,366.06 338.4,888.72z"/>
  <path class="fil1" d="M6440.18 11653.39c67.32,0 131.4,-13.65 189.68,-38.3l4.32 4.58c-117.79,89.55 -194,231.11 -194,390.6 0,270.86 219.59,490.37 490.41,490.37 270.87,0 490.41,-219.51 490.41,-490.37 0,-170.61 -87.21,-320.92 -219.43,-408.73 66.03,33.12 140.5,51.85 219.43,51.85 270.87,0 490.41,-219.58 490.41,-490.44 0,-270.85 -219.54,-490.33 -490.41,-490.33 -263.68,0 -478.69,208.12 -489.9,469.05l-1.02 -0.78c-11.52,-260.6 -226.37,-468.27 -489.9,-468.27 -270.77,0 -490.31,219.48 -490.31,490.33 0,270.86 219.54,490.44 490.31,490.44z"/>
  <path class="fil1" d="M6930.59 5945.17c-43.68,522.68 -338.4,888.73 -338.4,888.73l676.85 0c0,0 -294.62,-366.05 -338.45,-888.73z"/>
  <path class="fil1" d="M7421.05 5353.42c-67.27,0 -131.3,13.67 -189.63,38.28l-4.36 -4.57c117.83,-89.52 193.99,-231.05 193.99,-390.56 0,-270.93 -219.53,-490.36 -490.46,-490.36 -270.82,0 -490.31,219.43 -490.31,490.36 0,170.61 87.16,320.93 219.49,408.7 -66.09,-33.1 -140.66,-51.85 -219.49,-51.85 -270.87,0 -490.41,219.58 -490.41,490.51 0,270.77 219.54,490.31 490.41,490.31 263.68,0 478.59,-208.13 489.8,-469.03l1.02 0.71c11.62,260.6 226.53,468.32 489.95,468.32 270.82,0 490.36,-219.54 490.36,-490.31 0,-270.93 -219.54,-490.51 -490.36,-490.51z"/>
  <path class="fil1" d="M6930.59 8228.3c-43.68,-522.73 -338.4,-888.73 -338.4,-888.73l676.85 0c0,0 -294.62,366 -338.45,888.73z"/>
  <path class="fil1" d="M7911.41 8329.59c0,-270.88 -219.54,-490.36 -490.36,-490.36 -263.42,0 -478.33,207.72 -489.95,468.26l-1.02 0.77c-11.21,-260.85 -226.12,-469.03 -489.8,-469.03 -270.87,0 -490.41,219.48 -490.41,490.36 0,270.82 219.54,490.46 490.41,490.46 78.83,0 153.4,-18.76 219.49,-51.9 -132.33,87.82 -219.49,238.14 -219.49,408.73 0,270.88 219.49,490.39 490.31,490.39 270.93,0 490.46,-219.51 490.46,-490.39 0,-159.44 -76.16,-301.02 -193.99,-390.54l4.36 -4.63c58.33,24.67 122.36,38.34 189.63,38.34 270.82,0 490.36,-219.64 490.36,-490.46z"/>
  <path class="fil1" d="M3191.39 3111.81c-43.73,522.68 -338.45,888.73 -338.45,888.73l676.9 0c0,0 -294.67,-366.05 -338.45,-888.73z"/>
  <path class="fil1" d="M3681.85 2520.06c-67.27,0 -131.35,13.67 -189.68,38.28l-4.37 -4.57c117.89,-89.52 194.05,-231.1 194.05,-390.61 0,-270.82 -219.59,-490.36 -490.46,-490.36 -270.83,0 -490.36,219.54 -490.36,490.36 0,170.66 87.16,320.93 219.43,408.8 -66.03,-33.2 -140.55,-51.9 -219.43,-51.9 -270.82,0 -490.41,219.59 -490.41,490.46 0,270.82 219.59,490.36 490.41,490.36 263.68,0 478.64,-208.23 489.84,-469.03l1.08 0.66c11.57,260.65 226.42,468.37 489.9,468.37 270.82,0 490.36,-219.54 490.36,-490.36 0,-270.87 -219.54,-490.46 -490.36,-490.46z"/>
  <path class="fil1" d="M3191.39 5945.17c-43.73,522.68 -338.45,888.73 -338.45,888.73l676.9 0c0,0 -294.67,-366.05 -338.45,-888.73z"/>
  <path class="fil1" d="M3681.85 5353.42c-67.27,0 -131.35,13.67 -189.68,38.28l-4.37 -4.57c117.89,-89.52 194.05,-231.05 194.05,-390.56 0,-270.93 -219.59,-490.36 -490.46,-490.36 -270.83,0 -490.36,219.43 -490.36,490.36 0,170.61 87.16,320.93 219.43,408.7 -66.03,-33.1 -140.55,-51.85 -219.43,-51.85 -270.82,0 -490.41,219.58 -490.41,490.51 0,270.77 219.59,490.31 490.41,490.31 263.68,0 478.64,-208.13 489.84,-469.03l1.08 0.71c11.57,260.6 226.42,468.32 489.9,468.32 270.82,0 490.36,-219.54 490.36,-490.31 0,-270.93 -219.54,-490.51 -490.36,-490.51z"/>
  <path class="fil1" d="M3191.39 8228.3c-43.73,-522.73 -338.45,-888.73 -338.45,-888.73l676.9 0c0,0 -294.67,366 -338.45,888.73z"/>
  <path class="fil1" d="M4172.21 8329.59c0,-270.88 -219.54,-490.36 -490.36,-490.36 -263.48,0 -478.33,207.72 -489.9,468.26l-1.08 0.77c-11.2,-260.85 -226.16,-469.03 -489.84,-469.03 -270.82,0 -490.41,219.48 -490.41,490.36 0,270.82 219.59,490.46 490.41,490.46 78.88,0 153.4,-18.76 219.43,-51.9 -132.27,87.82 -219.43,238.14 -219.43,408.73 0,270.88 219.53,490.39 490.36,490.39 270.87,0 490.46,-219.51 490.46,-490.39 0,-159.44 -76.16,-301.02 -194.05,-390.54l4.37 -4.63c58.33,24.67 122.41,38.34 189.68,38.34 270.82,0 490.36,-219.64 490.36,-490.46z"/>
  <path class="fil1" d="M3191.39 11061.65c43.68,-522.66 338.45,-888.72 338.45,-888.72l-676.9 0c0,0 294.66,366.06 338.45,888.72z"/>
  <path class="fil1" d="M2700.93 11653.39c67.32,0 131.4,-13.65 189.67,-38.3l4.37 4.58c-117.83,89.55 -194.04,231.11 -194.04,390.6 0,270.86 219.63,490.37 490.46,490.37 270.82,0 490.36,-219.51 490.36,-490.37 0,-170.61 -87.16,-320.92 -219.44,-408.73 66.09,33.12 140.55,51.85 219.44,51.85 270.92,0 490.46,-219.58 490.46,-490.44 0,-270.85 -219.54,-490.33 -490.46,-490.33 -263.68,0 -478.65,208.12 -489.8,469.05l-1.08 -0.78c-11.56,-260.6 -226.37,-468.27 -489.94,-468.27 -270.72,0 -490.31,219.48 -490.31,490.33 0,270.86 219.59,490.44 490.31,490.44z"/>
 </g>
</svg>
