<?xml version="1.0" encoding="UTF-8"?>
<!DOCTYPE svg PUBLIC "-//W3C//DTD SVG 1.1//EN" "http://www.w3.org/Graphics/SVG/1.1/DTD/svg11.dtd">
<!-- Creator: CorelDRAW -->
<svg xmlns="http://www.w3.org/2000/svg" xml:space="preserve" width="100%" height="100%" version="1.1" style="shape-rendering:geometricPrecision; text-rendering:geometricPrecision; image-rendering:optimizeQuality; fill-rule:evenodd; clip-rule:evenodd"
viewBox="0 0 10122.08 14170.99"
 xmlns:xlink="http://www.w3.org/1999/xlink"
 xmlns:xodm="http://www.corel.com/coreldraw/odm/2003">
 <defs>
  <style type="text/css">
   <![CDATA[
    .fil0 {fill:#FEFEFE;fill-rule:nonzero}
    .fil1 {fill:#1D1D1E;fill-rule:nonzero}
   ]]>
  </style>
   <clipPath id="id0">
    <path d="M9729.82 14170.99l-4478.61 0 -382.07 0 -4455.63 0c0,0 0,0 -2.87,0l4458.5 0 382.07 0 4478.61 0c0,0 140.76,-3.73 252.8,-119.35 -112.04,115.62 -252.8,119.35 -252.8,119.35zm-20.11 -20.52l-4484.35 0 -382.08 0 -4481.48 0c0,0 -37.34,-1.86 -91.92,-18.64 -112.04,-54.08 -249.93,-182.75 -249.93,-490.44l0 0 0 -3528.13 0 -2463.35c1982.19,0 3964.38,-1.86 5949.45,-1.86 1376.04,0 2754.96,0 4131,0l0 2444.7 0 3528.13 0 0c0,518.41 -390.69,529.59 -390.69,529.59l0 0z"/>
   </clipPath>
   <clipPath id="id1">
    <path d="M9919.42 7073.36c-2453.32,0 -4909.52,0 -7362.84,-2.02 -844.59,0 -1692.05,0 -2536.63,-2.01l0 -2990.25 0 -3528.97c0,-518.55 393.56,-528.64 393.56,-528.64l4481.48 0 382.08 0 4484.35 0c0,0 37.34,0 89.05,18.16 112.04,54.48 249.93,181.6 249.93,488.29l0 0 0 3530.99 0 3014.45c-60.33,0 -120.65,0 -180.98,0l0 0z"/>
   </clipPath>
   <clipPath id="id2">
    <path d="M9983.99 14050.35c75.15,-76 137.69,-200 137.69,-408.01l0 -5996.25 0 0 0 -572.02 0 0 0 -6544.27 0 0c0,-520.02 -391.66,-528.03 -391.66,-528.03l-19.97 0c-0.66,0 -0.92,0 -0.92,0l20.89 0c0,0 391.79,8.01 391.79,528.03l0 3536.14 0 6040.25 0 3536.15c0,208.01 -62.67,332.01 -137.82,408.01l0 0z"/>
   </clipPath>
   <clipPath id="id3">
    <path d="M10101.27 7647.69l0 -573.9c6.79,0 13.61,0 20.46,0l0 573.9c-6.85,0 -13.61,0 -20.46,0l0 0z"/>
   </clipPath>
   <clipPath id="id4">
    <path d="M9728.86 14170.99l-4476.99 0 -381.97 0 -4457.33 0c-8.43,-1.87 -70.22,-5.6 -143.24,-39.16 53.36,16.78 92.68,18.64 92.68,18.64l4482.61 0 381.98 0 4482.6 0c0,0 393.21,-11.18 393.21,-529.59l0 0 0 0 0 -3528.13 0 -2444.7c5.62,0 11.24,0 19.67,0l0 2459.62 0 3533.72c0,206.99 -61.79,333.8 -137.63,410.25 -112.34,115.62 -255.59,119.35 -255.59,119.35l0 0z"/>
   </clipPath>
   <clipPath id="id5">
    <path d="M10101.32 7073.29l0 -3014.92 0 -3530.55 0 0c0,-305.33 -137.83,-434.74 -250.03,-489.34 25.62,10.11 54.52,22.24 84.09,38.42l0 0 0 0 0 0c-100.91,-72.8 -205.36,-76.84 -205.36,-76.84l-19.97 0 0 0 19.97 0c0,0 391.66,10.11 391.66,529.79l0 3534.59 0 3008.85c-6.83,0 -13.66,0 -20.36,0l0 0z"/>
   </clipPath>
   <clipPath id="id6">
    <path d="M20.52 7650.32l0 -580.15 0.31 0 0 580.15 -0.31 0 0 0z"/>
   </clipPath>
   <clipPath id="id7">
    <path d="M412.91 14170.99l-20.89 0c0,0 -391.67,-11.19 -391.67,-529.6l0 -400.92c6.7,-24.24 13.27,-48.48 20.11,-72.73l0 -3074.99 0 -2442.84c0.13,0 0.26,0 0.39,0l0 2463.35 0 3528.13 0 0c0,307.69 137.56,436.36 249.77,490.44 -25.49,-9.33 -54.4,-20.52 -83.83,-39.16l0 0c100.91,74.59 205.23,78.32 205.23,78.32l19.97 0c0.66,0 0.92,0 0.92,0l0 0z"/>
   </clipPath>
   <clipPath id="id8">
    <path d="M20.76 7070.05c0,0 0,0 0,0l0 -5825.12c-8.42,-72.64 -14.03,-145.28 -19.64,-217.91l0 -496.36c0,-518.55 390,-530.66 390,-530.66l4477.96 0 381.58 0 4458.31 0c8.42,0 70.15,4.04 143.1,40.36 -53.31,-18.16 -92.59,-20.18 -92.59,-20.18l-4480.77 0 -381.58 0 -4483.57 0c0,0 -392.8,12.11 -392.8,528.64l0 3530.99 0 2990.24 0 0z"/>
   </clipPath>
   <clipPath id="id9">
    <path d="M412.05 14170.42l-19.97 0c0,0 -104.37,-3 -205.35,-77.15 29.53,17.71 58.34,29.83 83.84,38.25 71.77,34.54 133.19,38.49 141.48,38.9l0 0z"/>
   </clipPath>
   <clipPath id="id10">
    <path d="M9935.3 77.62c-29.52,-17.71 -58.42,-29.92 -84,-38.28 -71.68,-34.54 -133.02,-38.43 -141.24,-38.82l19.9 0c0,0 104.45,3.01 205.34,77.1l0 0z"/>
   </clipPath>
   <clipPath id="id11">
    <path d="M-0 13241.42l0 -12215.33c0.1,0 0.19,0 0.29,0l0.07 3038.17 0 6041.54 0 3135.62c-0.13,0 -0.25,0 -0.36,0l0 0z"/>
   </clipPath>
   <clipPath id="id12">
    <path d="M0.35 7650.32l0 -580.15c6.7,0 13.47,0 20.17,0l0 580.15c-6.68,0 -13.49,0 -20.17,0l0 0z"/>
   </clipPath>
   <clipPath id="id13">
    <path d="M0.35 13242.07l0 -3135.33 0 -2457.08c6.68,0 13.49,0 20.17,0l0 2442.68 -0.06 3076.14c-6.79,24 -13.41,47.99 -20.11,73.59l0 0z"/>
   </clipPath>
   <clipPath id="id14">
    <path d="M20.52 7069.82c-6.7,0 -13.47,0 -20.17,0l0 -3004.82 -0.06 -3037.6c6.62,72.45 13.36,144.9 20.23,219.07l0 5823.35 0 0z"/>
   </clipPath>
 </defs>
 <g id="Layer_x0020_1">
  <metadata id="CorelCorpID_0Corel-Layer"/>
  <path class="fil0" d="M9729.99 0.5l-9337.92 0c0,0 -391.8,10.63 -391.8,529.26l0.08 3534.46 0 9577.1c0,518.47 391.72,529.11 391.72,529.11l9337.92 0c0,0 391.74,-10.64 391.74,-529.11l0 -13111.56c0,-518.63 -391.74,-529.26 -391.74,-529.26z"/>
  <g style="clip-path:url(#id0)">
   <image x="-5.91" y="7625.67" width="10135.04" height="6578.88" xlink:href="Ace_Images\Ace_ImgID1.png"/>
  </g>
  <g style="clip-path:url(#id1)">
   <image x="-5.91" y="-10.81" width="10135.04" height="7118.47" xlink:href="Ace_Images\Ace_ImgID2.png"/>
  </g>
  <g style="clip-path:url(#id2)">
   <image x="9681.01" y="-26.23" width="463.53" height="14112.58" xlink:href="Ace_Images\Ace_ImgID3.png"/>
  </g>
  <g style="clip-path:url(#id3)">
   <image x="10071.57" y="7050.11" width="72.97" height="633.12" xlink:href="Ace_Images\Ace_ImgID4.png"/>
  </g>
  <g style="clip-path:url(#id4)">
   <image x="235.62" y="7625.67" width="9908.92" height="6578.88" xlink:href="Ace_Images\Ace_ImgID5.png"/>
  </g>
  <g style="clip-path:url(#id5)">
   <image x="9681.01" y="-26.23" width="463.53" height="7133.89" xlink:href="Ace_Images\Ace_ImgID6.png"/>
  </g>
  <g style="clip-path:url(#id6)">
   <image x="-0.77" y="7034.69" width="52.42" height="648.54" xlink:href="Ace_Images\Ace_ImgID7.png"/>
  </g>
  <g style="clip-path:url(#id7)">
   <image x="-21.32" y="7625.67" width="463.53" height="6578.88" xlink:href="Ace_Images\Ace_ImgID8.png"/>
  </g>
  <g style="clip-path:url(#id8)">
   <image x="-21.32" y="-26.23" width="9898.64" height="7118.47" xlink:href="Ace_Images\Ace_ImgID9.png"/>
  </g>
  <g style="clip-path:url(#id9)">
   <image x="163.68" y="14059.63" width="278.53" height="144.92" xlink:href="Ace_Images\Ace_ImgID10.png"/>
  </g>
  <g style="clip-path:url(#id10)">
   <image x="9681.01" y="-26.23" width="278.53" height="139.78" xlink:href="Ace_Images\Ace_ImgID11.png"/>
  </g>
  <g style="clip-path:url(#id11)">
   <image x="-21.32" y="991.29" width="57.56" height="12277.98" xlink:href="Ace_Images\Ace_ImgID12.png"/>
  </g>
  <g style="clip-path:url(#id12)">
   <image x="-21.32" y="7034.69" width="72.97" height="648.54" xlink:href="Ace_Images\Ace_ImgID13.png"/>
  </g>
  <g style="clip-path:url(#id13)">
   <image x="-21.32" y="7625.67" width="72.97" height="5643.59" xlink:href="Ace_Images\Ace_ImgID14.png"/>
  </g>
  <g style="clip-path:url(#id14)">
   <image x="-21.32" y="1006.7" width="72.97" height="6085.54" xlink:href="Ace_Images\Ace_ImgID15.png"/>
  </g>
  <path class="fil1" d="M804.13 2816.79c-22.04,263.32 -170.55,447.76 -170.55,447.76l341.1 0c0,0 -148.51,-184.44 -170.55,-447.76z"/>
  <path class="fil1" d="M1051.26 2518.68c-33.88,0 -66.18,6.89 -95.55,19.28l-2.23 -2.32c59.4,-45.12 97.78,-116.45 97.78,-196.77 0,-136.49 -110.62,-247.13 -247.13,-247.13 -136.44,0 -247.05,110.64 -247.05,247.13 0,85.93 43.9,161.67 110.57,205.92 -33.29,-16.7 -70.82,-26.11 -110.57,-26.11 -136.5,0 -247.11,110.59 -247.11,247.08 0,136.44 110.61,247.09 247.11,247.09 132.83,0 241.17,-104.89 246.81,-236.34l0.54 0.36c5.82,131.3 114.04,235.98 246.83,235.98 136.43,0 247.09,-110.65 247.09,-247.09 0,-136.49 -110.66,-247.08 -247.09,-247.08z"/>
  <path class="fil1" d="M607.71 1350.19l374.06 0 -170.07 -577.16 -203.99 577.16zm343.6 483.16l0 -43.83c29.79,-6.01 52.02,-12.54 66.67,-19.73 14.65,-7.15 25.51,-17.07 32.68,-29.96 7.15,-12.75 10.74,-29.97 10.74,-51.45 0,-20.24 -2.41,-42.14 -7.22,-65.77 -4.72,-23.59 -11.57,-49.9 -20.52,-79.2l-33.1 -115.42 -417 0 -30.45 87.67c-15.48,44.15 -25.62,77.6 -30.37,100.26 -4.82,22.67 -7.21,43.22 -7.21,61.72 0,35.77 9.13,62.08 27.32,78.73 18.21,16.76 46.05,27.8 83.67,33.15l0 43.83 -382.07 0 0 -43.83c33.4,-5.35 62.47,-24.77 87.2,-58.17 24.79,-33.41 48.82,-81.15 72.06,-143.18l373.1 -990.48 141.42 0 304.23 997.63c14.35,46.56 26.95,82.02 38.01,106.48 11.05,24.46 24.32,43.58 39.81,57.24 15.5,13.78 36.7,23.9 63.54,30.48l0 43.83 -412.51 0z"/>
  <path class="fil1" d="M9290.3 11316.92c22.04,-263.37 170.51,-447.75 170.51,-447.75l-341.02 0c0,0 148.46,184.38 170.51,447.75z"/>
  <path class="fil1" d="M9043.22 11615.04c33.86,0 66.19,-6.89 95.53,-19.28l2.21 2.27c-59.41,45.17 -97.74,116.5 -97.74,196.82 0,136.49 110.59,247.08 247.08,247.08 136.44,0 247.08,-110.59 247.08,-247.08 0,-85.93 -43.94,-161.67 -110.54,-205.97 33.2,16.75 70.76,26.16 110.54,26.16 136.49,0 247.08,-110.65 247.08,-247.14 0,-136.38 -110.59,-247.03 -247.08,-247.03 -132.84,0 -241.17,104.89 -246.83,236.34l-0.51 -0.36c-5.86,-131.3 -114.08,-235.98 -246.82,-235.98 -136.49,0 -247.14,110.65 -247.14,247.03 0,136.49 110.65,247.14 247.14,247.14z"/>
  <path class="fil1" d="M9486.71 12783.48l-374.07 0 170.1 577.2 203.97 -577.2zm-343.59 -483.17l0 43.89c-29.76,5.96 -52.01,12.54 -66.71,19.68 -14.59,7.15 -25.49,17.12 -32.58,29.96 -7.19,12.8 -10.79,29.96 -10.79,51.44 0,20.25 2.42,42.19 7.2,65.83 4.72,23.59 11.61,49.95 20.55,79.2l33.1 115.36 416.97 0 30.47 -87.67c15.47,-44.09 25.6,-77.54 30.38,-100.21 4.78,-22.71 7.19,-43.27 7.19,-61.71 0,-35.82 -9.15,-62.13 -27.29,-78.73 -18.19,-16.81 -46.09,-27.86 -83.66,-33.15l0 -43.89 382.03 0 0 43.89c-33.35,5.29 -62.44,24.77 -87.16,58.17 -24.87,33.41 -48.82,81.15 -72.1,143.17l-373.08 990.49 -141.43 0 -304.22 -997.63c-14.39,-46.56 -26.98,-82.02 -38.03,-106.48 -11.05,-24.51 -24.31,-43.58 -39.83,-57.3 -15.47,-13.72 -36.69,-23.89 -63.52,-30.42l0 -43.89 412.51 0z"/>
  <path class="fil1" d="M5059.2 7348.94c-43.72,522.63 -338.45,888.68 -338.45,888.68l676.9 0c0,0 -294.67,-366.05 -338.45,-888.68z"/>
  <path class="fil1" d="M5549.6 6757.14c-67.21,0 -131.3,13.72 -189.57,38.33l-4.42 -4.57c117.89,-89.52 193.99,-231.1 193.99,-390.61 0,-270.88 -219.48,-490.36 -490.4,-490.36 -270.84,0 -490.33,219.48 -490.33,490.36 0,170.61 87.14,320.92 219.43,408.75 -66.04,-33.15 -140.58,-51.9 -219.43,-51.9 -270.9,0 -490.42,219.63 -490.42,490.51 0,270.82 219.52,490.31 490.42,490.31 263.64,0 478.61,-208.18 489.81,-469.04l1.09 0.72c11.56,260.65 226.46,468.32 489.83,468.32 270.88,0 490.41,-219.49 490.41,-490.31 0,-270.88 -219.53,-490.51 -490.41,-490.51z"/>
 </g>
</svg>
